<?xml version="1.0" encoding="utf-8"?>
<!-- Generator: Adobe Illustrator 18.1.1, SVG Export Plug-In . SVG Version: 6.00 Build 0)  -->
<svg version="1.1" id="Ebene_1" xmlns="http://www.w3.org/2000/svg" xmlns:xlink="http://www.w3.org/1999/xlink" x="0px" y="0px"
	 viewBox="0 0 310 310" style="enable-background:new 0 0 310 310;" xml:space="preserve">
<style type="text/css">
	.st0{fill:#CFCFCF;}
	.st1{fill:#D9D9D9;}
	.st2{fill:#3C3C3B;}
	.st3{fill:#868686;}
</style>
<polygon class="st0" points="123.3,172.2 116.3,277.7 151.9,288.8 189.8,280.2 181.1,172.2 "/>
<g>
	<path class="st1" d="M80.7,112.3c-7.6-1.9-12.5,12.7-8.7,25.9c3.8,13.2,10.6,18.1,18.1,18.1c7.6,0-0.6-34.1-0.6-34.1
		S88.3,114.2,80.7,112.3"/>
	<path class="st1" d="M218.9,111c7.6-1.9,12.5,12.7,8.7,25.9c-3.8,13.2-10.6,18.1-18.1,18.1c-7.6,0,0.6-34.1,0.6-34.1
		S211.3,112.9,218.9,111"/>
	<path class="st1" d="M154,29.1c16.1,0,39.9,9.5,54.2,36s4.5,101.6-2.7,120.6c-7.2,18.9-31.3,35.2-54.6,35.2
		c-23.3,0-40.5-14.3-51.9-32.2C87.5,170.7,78.8,99.4,87.7,74.8C96.7,50.2,114.6,29.1,154,29.1"/>
	<path class="st2" d="M187.9,225.1c3,0,7.4,9.7,7.4,9.7s70.5,12,87.6,29.1C300,281,304.3,310,304.3,310H5.4c0,0,2.2-32.4,15-45.3
		s88.2-29,88.2-29s6.3-10.7,8.9-10.7c2.6,0,13,7.3,19.6,16.2c6.6,8.9,18,39.4,18,39.4s7.8-27.1,11.7-36.6
		C170.7,234.6,184.9,225.1,187.9,225.1"/>
	<path class="st3" d="M83.5,77.9C93,51.6,112.2,29,154.2,29c17.2,0,43.4,8.7,57.8,39.9c0,0,6.5,20.9,4.7,42.2c0,0-1.4,25.4-2.9,23.9
		c-1.4-1.5-3.9-58.2-22.2-65.5c-18.3-7.3-28.8,13.2-43.5,13.2c-14.6,0-28.1-17.1-43.9-12.2c-15.9,4.9-11,65.3-11.6,65.3
		c-0.6,0-5.6-9.5-8.1-21.4C79.2,97.2,83.5,77.9,83.5,77.9"/>
</g>
<g>
</g>
<g>
</g>
<g>
</g>
<g>
</g>
<g>
</g>
<g>
</g>
<g>
</g>
<g>
</g>
<g>
</g>
<g>
</g>
<g>
</g>
<g>
</g>
<g>
</g>
<g>
</g>
<g>
</g>
</svg>
