<?xml version="1.0" encoding="utf-8"?>
<!-- Generator: Adobe Illustrator 18.1.1, SVG Export Plug-In . SVG Version: 6.00 Build 0)  -->
<svg version="1.1" id="Ebene_1" xmlns="http://www.w3.org/2000/svg" xmlns:xlink="http://www.w3.org/1999/xlink" x="0px" y="0px"
	 viewBox="0 0 310 310" style="enable-background:new 0 0 310 310;" xml:space="preserve">
<style type="text/css">
	.st0{clip-path:url(#SVGID_2_);fill:#868686;}
	.st1{clip-path:url(#SVGID_2_);fill:#D9D9D9;}
	.st2{fill:#CFCFCF;}
	.st3{clip-path:url(#SVGID_4_);fill:#D9D9D9;}
	.st4{clip-path:url(#SVGID_4_);fill:#3C3C3B;}
</style>
<g>
	<defs>
		<rect id="SVGID_1_" x="33.5" y="29.2" width="242.9" height="280.8"/>
	</defs>
	<clipPath id="SVGID_2_">
		<use xlink:href="#SVGID_1_"  style="overflow:visible;"/>
	</clipPath>
	<path class="st0" d="M73.7,128.1c0,0,0.2-13.8,6.1-39.5c5.9-25.7,31-59.4,79.7-59.4c19.9,0,50.2,10,67,46.2c0,0,8.2,21.5,8.2,48.9
		s-5.7,110.7-15,114.6c-9.3,3.9-50.1,9.7-50.1,9.7l2.9-45.7c0,0,43.6-22.4,43.6-58.6s-16-66.5-16-66.5
		c-34.5,30.1-92.2,22.7-103.3,41.8c-3.4,4.4,0.8,14.2,0.8,29.7s15.5,44.5,38.8,52.3l7.1,48.2c0,0-48.9-3.5-55.4-14
		C81.4,225.5,73.7,140.3,73.7,128.1"/>
	<path class="st1" d="M219.4,113.7c6.6-2.4,12.1,12.4,9.7,26.5c-2.4,14-8.1,19.5-14.9,20c-6.8,0.5-2-35.5-2-35.5
		S212.8,116.1,219.4,113.7"/>
	<path class="st1" d="M90.4,116.5c-6.8-2-11.2,13.2-7.8,27.1c3.4,13.8,9.5,18.9,16.3,18.9s-0.5-35.5-0.5-35.5S97.2,118.4,90.4,116.5
		"/>
</g>
<polygon class="st2" points="137.6,170.8 128.5,293.5 153.6,310 181.5,296.4 170.6,170.8 "/>
<g>
	<defs>
		<rect id="SVGID_3_" x="33.5" y="29.2" width="242.9" height="280.8"/>
	</defs>
	<clipPath id="SVGID_4_">
		<use xlink:href="#SVGID_3_"  style="overflow:visible;"/>
	</clipPath>
	<path class="st3" d="M171.8,204.8c10.5-3.4,44.3-29.7,44.3-59.5c0-36.8-16.2-67.6-16.2-67.6c-35,30.6-93.7,23.1-105,42.4
		c-3.4,4.4,0.8,14.5,0.8,30.2c0,15.8,19.5,44.4,39.4,53.1S161.2,208.2,171.8,204.8"/>
	<path class="st4" d="M174.2,210.7c0,0,16.5,8.5,16.5,18c0,0,50,5.6,69.8,25.4c19.8,19.8,15.6,55.9,15.6,55.9H35
		c0,0-6.6-40.1,8.2-54.9c14.9-14.9,73.8-25.2,73.8-25.2c0-8.2,17.3-18.2,17.3-18.2l0.7,18.8c0,0,8,76.8,19.9,76.8
		c12,0,19.6-69.4,19.6-77.9C174.6,220.8,174.2,210.7,174.2,210.7"/>
</g>
<g>
</g>
<g>
</g>
<g>
</g>
<g>
</g>
<g>
</g>
<g>
</g>
<g>
</g>
<g>
</g>
<g>
</g>
<g>
</g>
<g>
</g>
<g>
</g>
<g>
</g>
<g>
</g>
<g>
</g>
</svg>
