<?xml version="1.0" encoding="utf-8"?>
<!-- Generator: Adobe Illustrator 18.1.1, SVG Export Plug-In . SVG Version: 6.00 Build 0)  -->
<svg version="1.1" id="Ebene_1" xmlns="http://www.w3.org/2000/svg" xmlns:xlink="http://www.w3.org/1999/xlink" x="0px" y="0px"
	 viewBox="0 0 24.4 25.4" style="enable-background:new 0 0 24.4 25.4;" xml:space="preserve">
<style type="text/css">
	.st0{clip-path:url(#SVGID_2_);}
	.st1{fill:#3C3C3B;}
</style>
<g>
	<defs>
		<rect id="SVGID_1_" x="0.6" y="0.8" width="23.2" height="23.8"/>
	</defs>
	<clipPath id="SVGID_2_">
		<use xlink:href="#SVGID_1_"  style="overflow:visible;"/>
	</clipPath>
	<g class="st0">
		<path class="st1" d="M22.6,3.3H1.9c-0.7,0-1.2-0.6-1.2-1.2s0.6-1.2,1.2-1.2h20.7c0.7,0,1.2,0.6,1.2,1.2S23.3,3.3,22.6,3.3z"/>
	</g>
	<g class="st0">
		<path class="st1" d="M22.6,10.4H1.9c-0.7,0-1.2-0.6-1.2-1.2s0.6-1.2,1.2-1.2h20.7c0.7,0,1.2,0.6,1.2,1.2S23.3,10.4,22.6,10.4z"/>
	</g>
	<g class="st0">
		<path class="st1" d="M22.6,17.5H1.9c-0.7,0-1.2-0.6-1.2-1.2c0-0.7,0.6-1.3,1.2-1.3h20.7c0.7,0,1.2,0.6,1.2,1.3
			C23.8,16.9,23.3,17.5,22.6,17.5z"/>
	</g>
	<g class="st0">
		<path class="st1" d="M22.6,24.6H1.9c-0.7,0-1.2-0.6-1.2-1.2s0.6-1.2,1.2-1.2h20.7c0.7,0,1.2,0.6,1.2,1.2S23.3,24.6,22.6,24.6z"/>
	</g>
</g>
</svg>
