<?xml version="1.0" encoding="utf-8"?>
<!-- Generator: Adobe Illustrator 18.1.1, SVG Export Plug-In . SVG Version: 6.00 Build 0)  -->
<svg version="1.1" id="Ebene_1" xmlns="http://www.w3.org/2000/svg" xmlns:xlink="http://www.w3.org/1999/xlink" x="0px" y="0px"
	 viewBox="0 0 24.4 25.4" style="enable-background:new 0 0 24.4 25.4;" xml:space="preserve">
<style type="text/css">
	.st0{clip-path:url(#SVGID_2_);}
	.st1{fill:#868686;}
</style>
<g>
	<defs>
		<rect id="SVGID_1_" x="1.4" y="1.6" width="21.7" height="22.3"/>
	</defs>
	<clipPath id="SVGID_2_">
		<use xlink:href="#SVGID_1_"  style="overflow:visible;"/>
	</clipPath>
	<g class="st0">
		<path class="st1" d="M22.6,2.6H1.9c-0.3,0-0.5-0.2-0.5-0.5s0.2-0.5,0.5-0.5h20.7c0.3,0,0.5,0.2,0.5,0.5S22.8,2.6,22.6,2.6z"/>
	</g>
	<g class="st0">
		<path class="st1" d="M22.6,9.7H1.9c-0.3,0-0.5-0.2-0.5-0.5s0.2-0.5,0.5-0.5h20.7c0.3,0,0.5,0.2,0.5,0.5S22.8,9.7,22.6,9.7z"/>
	</g>
	<g class="st0">
		<path class="st1" d="M22.6,16.7H1.9c-0.3,0-0.5-0.2-0.5-0.5c0-0.3,0.2-0.5,0.5-0.5h20.7c0.3,0,0.5,0.2,0.5,0.5
			C23.1,16.5,22.8,16.7,22.6,16.7z"/>
	</g>
	<g class="st0">
		<path class="st1" d="M22.6,23.8H1.9c-0.3,0-0.5-0.2-0.5-0.5s0.2-0.5,0.5-0.5h20.7c0.3,0,0.5,0.2,0.5,0.5S22.8,23.8,22.6,23.8z"/>
	</g>
</g>
</svg>
