<?xml version="1.0" encoding="utf-8"?>
<!-- Generator: Adobe Illustrator 18.1.1, SVG Export Plug-In . SVG Version: 6.00 Build 0)  -->
<svg version="1.1" id="Ebene_1" xmlns="http://www.w3.org/2000/svg" xmlns:xlink="http://www.w3.org/1999/xlink" x="0px" y="0px"
	 viewBox="0 0 48.3 48" style="enable-background:new 0 0 48.3 48;" xml:space="preserve">
<style type="text/css">
	.st0{fill:none;stroke:#F2F2F2;stroke-width:0.297;stroke-miterlimit:10;}
	.st1{fill:#F2F2F2;}
</style>
<rect x="0.9" y="0.8" class="st0" width="46.6" height="46.6"/>
<path class="st1" d="M4.2,27.8h1.6v14.9h4.6v1.2H4.2V27.8z M19.4,40.2c0,0.1,0.1,0.2,0.2,0.2c0.1,0,0.1-0.1,0.1-0.2
	c0.1-1,0.3-2.2,0.5-3.4c0.2-1.2,0.4-2.4,0.7-3.6c0.2-1.2,0.4-2.2,0.6-3.2c0.2-1,0.4-1.7,0.5-2.2h5.1v16h-3.1V30.3
	c0-0.1-0.1-0.1-0.2-0.1c-0.1,0-0.1,0-0.1,0.1c-0.1,0.6-0.3,1.3-0.4,2.1c-0.1,0.8-0.3,1.7-0.5,2.7c-0.2,1.1-0.5,2.3-0.7,3.7
	c-0.3,1.4-0.6,3.1-1,5h-3.2c-0.4-1.9-0.7-3.5-1-4.8c-0.3-1.4-0.5-2.5-0.7-3.6c-0.2-1-0.4-1.9-0.5-2.7c-0.2-0.8-0.3-1.6-0.5-2.3
	c0-0.1-0.1-0.1-0.2-0.1c-0.1,0-0.1,0-0.1,0.1v13.5H12v-16h5.2c0.1,0.3,0.2,0.8,0.3,1.4c0.1,0.6,0.2,1.2,0.4,1.9
	c0.1,0.7,0.3,1.4,0.4,2.2c0.1,0.8,0.3,1.6,0.4,2.4c0.1,0.8,0.3,1.6,0.4,2.4C19.2,38.7,19.3,39.5,19.4,40.2 M29.1,37.7v-9.9h5.5v10.5
	c0,0.7,0.2,1.3,0.5,1.6c0.3,0.3,0.8,0.5,1.4,0.5c0.6,0,1-0.2,1.4-0.5c0.3-0.3,0.5-0.8,0.5-1.6V27.8h5.5v9.9c0,1.2-0.2,2.2-0.5,3
	c-0.4,0.8-0.9,1.5-1.5,2c-0.6,0.5-1.4,0.9-2.3,1.1c-0.9,0.2-1.9,0.4-3,0.4c-1.1,0-2.1-0.1-3-0.4c-0.9-0.2-1.7-0.6-2.3-1.1
	c-0.7-0.5-1.2-1.2-1.5-2C29.3,39.9,29.1,38.9,29.1,37.7"/>
</svg>
