<?xml version="1.0" encoding="utf-8"?>
<!-- Generator: Adobe Illustrator 18.1.1, SVG Export Plug-In . SVG Version: 6.00 Build 0)  -->
<svg version="1.1" id="Ebene_1" xmlns="http://www.w3.org/2000/svg" xmlns:xlink="http://www.w3.org/1999/xlink" x="0px" y="0px"
	 viewBox="0 0 34 48" style="enable-background:new 0 0 34 48;" xml:space="preserve">
<style type="text/css">
	.st0{clip-path:url(#SVGID_2_);fill:#F2F2F2;}
	.st1{fill:#F2F2F2;}
	.st2{clip-path:url(#SVGID_4_);fill:#F2F2F2;}
</style>
<g>
	<defs>
		<rect id="SVGID_1_" x="0.7" y="0.7" width="32.6" height="46.9"/>
	</defs>
	<clipPath id="SVGID_2_">
		<use xlink:href="#SVGID_1_"  style="overflow:visible;"/>
	</clipPath>
	<path class="st0" d="M2.6,17.1c0,8.1,6.5,14.7,14.5,14.7c8,0,14.5-6.6,14.5-14.7S25.1,2.5,17.1,2.5C9.1,2.5,2.6,9,2.6,17.1 M3,17.1
		C3,9.3,9.3,2.9,17.1,2.9c7.8,0,14.1,6.4,14.1,14.3s-6.3,14.3-14.1,14.3C9.3,31.4,3,25,3,17.1"/>
	<path class="st0" d="M21.1,25.9c-0.4,1.2-0.5,1.9,0,3.1c0,0,0.1,0.2,0,0.2c-0.6-0.1-0.8-0.2-1.3-0.2c-0.5-0.1-1.4,0.1-2,0.1
		c-0.5,0-0.9,0-1.4,0.1c-0.1-0.1,0-0.2,0-0.3c0.1-0.2,0.1-0.3,0.1-0.4c0.1-0.1,0.2,0,0.3-0.1c0.3-0.1,0.6-0.3,0.6-0.6
		c0.1-0.3,0-0.6-0.1-0.9c0-0.1-0.1-0.2-0.1-0.2c0.4-0.7,0.1-1.4,0-2.1c-0.1-0.5-0.3-1-0.4-1.6c0-0.1-0.1-0.2,0.1-0.2l0,0
		c0.4,0.5,1.6,1.5,2,1.9c0.4,0.3,1.6,1,2.3,1.2C21.1,25.8,21.1,25.9,21.1,25.9 M15.7,27.2c0-0.1,0-0.1,0.1-0.1H16
		c0.2,0,0.5,0.1,0.8-0.1c0.1,0,0.1,0.2,0.2,0.3c0,0.2,0,0.3,0,0.4c-0.1,0.1-0.1,0.3-0.2,0.4c-0.2,0.1-0.4,0.1-0.6,0
		C15.9,27.9,15.7,27.6,15.7,27.2 M16.2,28.6c0,0.3-0.4,0.6-0.6,0.7c-0.2,0.1-0.8,0-0.9,0c-0.2-0.1-0.6-0.9-0.5-1.3
		c0-0.3,0.1-0.9,0.2-0.9c0.1,0,0.5,0,0.5,0c0.2,0,0.3,0,0.4,0c0.1,0,0,0.2,0.1,0.2c0,0.2,0.1,0.4,0.2,0.6c0.2,0.3,0.4,0.5,0.7,0.6
		C16.2,28.4,16.2,28.5,16.2,28.6 M13.9,29.1c-0.1,0.1-0.2,0.1-0.3,0.1c-0.3-0.1-0.5-0.2-0.6-0.6c-0.1-0.5-0.1-1.1,0-1.6l0.1,0
		c0.2,0,0.6-0.1,0.6,0c0.1,0.1-0.1,1-0.1,1c0,0.2,0.1,0.6,0.2,0.9C13.8,28.9,14,29,13.9,29.1 M17.6,18.4l0,0.3
		c0,0.3-0.2,0.6-0.4,0.8c-0.2,0-0.1-0.2-0.1-0.4c0.1-0.3,0.3-0.5,0.5-0.8C17.5,18.4,17.5,18.4,17.6,18.4L17.6,18.4z M19.9,16
		c-0.2,0.1-0.3,0.1-0.5,0c0-0.1-0.2-0.1-0.1-0.2c0.1-0.2,0.3-0.4,0.5-0.6l0.1,0c0.3-0.3,0.7-0.6,1.1-0.9l0.2-0.1
		c0.1-0.1,0.2-0.2,0.2-0.1c0,0.4-0.2,0.9-0.6,1.2c-0.2,0.2-0.4,0.1-0.6,0.2l-0.1,0.2C20,15.8,20,15.9,19.9,16 M19,20.1
		c-0.1,0-0.7-0.2-0.6-0.1c-0.2-0.2,0.1-0.2-0.5-0.4l-0.1,0c0,0-0.1,0-0.1,0c0-0.1,0.1-0.1,0.1-0.2c0.2-0.5,0.1-0.8,0.1-1.3l0.1-0.4
		c0.3-0.3,0.3-0.4,0.5-0.6c0.2-0.3,0.2-0.3,0.5-0.5c0,0,0.1-0.1,0.2,0c0.1,0.1,0.1,0.2,0.2,0.3c0.1,0.5-0.2,0.8-0.5,1
		c-0.2,0.2-0.5,0.5-0.4,0.8l0,0c0.1-0.1,0.2-0.1,0.3-0.3c0.2-0.4,0.7-0.6,0.9-0.9c0.1-0.2,0-0.6,0-0.8c0,0,0.4-0.2,0.3-0.1
		c0.2,0.1,0.1,0.2,0.2,0.3c0.2,0.4,0.1,0.8-0.1,1.1l-0.7,0.8C19.3,19.3,19.4,19.8,19,20.1 M21.8,13.6L21.8,13.6
		c0.3-0.2,0.4-0.2,0.7-0.3l0.3-0.1c0.1-0.1,0.2-0.1,0.3,0c0,0.4-0.3,0.8-0.7,1c-0.1,0.1-0.3,0.1-0.4,0.1c0,0-0.2,0-0.2-0.1
		C21.8,14.1,21.8,13.8,21.8,13.6 M24.5,12.9c0,0.3-0.4,0.5-0.6,0.6c-0.1,0-0.2,0-0.3,0c0,0-0.1,0-0.1-0.1c0-0.1,0-0.2,0-0.3l0.1-0.1
		c0.3-0.1,0.6-0.1,0.8-0.2C24.4,12.9,24.5,12.9,24.5,12.9 M16.3,18.2c0.7-1.4,1.7-2.5,2.6-3.7l1.4-1.6c1-1,2-2.1,3.2-2.9
		c0.1-0.1,0.2-0.3,0.4-0.1L24,9.9c0.1,0.1,0,0.4-0.1,0.5c-0.1,0.1-0.2,0.1-0.2,0.2c0.2,0.2,0.6,0.7,0.8,1c0.1,0.1,0.1,0.3,0.3,0.4
		c0.1,0.1,0.1,0.2,0.1,0.3c-0.2,0.2-0.5,0.2-0.8,0.3c-0.9,0.2-1.7,0.5-2.7,1c-0.8,0.4-1.5,0.9-2.1,1.7c-0.2,0.3-0.5,0.5-0.7,0.8
		c-0.5,0.7-1,1.4-1.4,2.1c-0.2,0.2-0.2,0.3-0.4,0.5c-0.1,0.1-0.2-0.1-0.3-0.2c0,0,0,0,0,0c0,0,0,0-0.1,0
		C16.4,18.3,16.2,18.3,16.3,18.2 M24.9,13.1c0,0-0.1,0.1-0.1,0.1c-0.1-0.1-0.1-0.2-0.1-0.3c0,0,0,0,0.1,0c0.1,0,0.1,0,0.1,0.1
		C24.9,13,24.9,13.1,24.9,13.1 M12.4,28.6c-0.2,0-0.4-0.1-0.5-0.4c-0.1-0.3-0.1-0.6-0.1-1c0,0,0.1-0.1,0.1-0.1l0.3-0.1
		c0.1,0,0.2-0.1,0.3,0l0.1,0.1c0,0.2,0,0.3-0.1,0.5c0,0.4-0.1,0.5,0.1,0.9C12.6,28.7,12.5,28.6,12.4,28.6 M11.5,27.5
		c0,0.1,0,0.1-0.1,0.2c0,0-0.2,0-0.2,0c-0.2-0.1-0.2,0-0.2-0.2c0-0.1,0-0.2,0.1-0.3c0.1-0.1,0.3-0.1,0.4,0
		C11.6,27.2,11.5,27.4,11.5,27.5 M26.7,18.6c-0.4-0.9-0.8-1.7-1.1-2.6c-0.2-0.3-0.1-0.7-0.1-1c-0.1-0.5-0.4-1-0.6-1.5
		c-0.1-0.2,0.1-0.2,0.2-0.3c0.1-0.3,0-0.6-0.1-0.8c0-0.1,0.1-0.2,0.1-0.4c0-0.2-0.2-0.4-0.4-0.5c-0.2-0.3-0.4-0.5-0.6-0.8v-0.1
		c0.1-0.1,0.3-0.4,0.3-0.6c-0.1-0.2-0.1-0.4-0.3-0.6c-0.3-0.2-0.7,0.1-1,0.3c-0.1,0.1-0.1,0.1-0.2,0.1c-0.1,0-0.1,0-0.2-0.1
		c-0.1,0.1-0.2,0.2-0.3,0.2l0.3,0.1c0,0,0,0,0,0c0,0,0,0,0,0c0,0-0.8,0.7-0.8,0.7c0,0-1.3,1.3-1.3,1.3l-0.4,0.4c0,0-1.2,1.4-1.2,1.4
		c-0.6,0.7-1.5,1.9-2.1,2.8c-0.3,0.4-0.6,0.8-0.8,1.3c0,0-0.1,0-0.2,0c-0.1,0-0.1,0-0.2,0h0l0,0c0,0,0,0,0,0c-0.3,0-0.5,0.1-0.8,0.3
		c-0.3,0.4-0.5,0.8-0.5,1.3c0,0.3,0.1,0.7,0.2,1c-0.1,0.2-0.2,0.3-0.3,0.5l-0.1,0.1l-0.1,0.1c-0.1,0.1-0.1,0.1-0.2,0.2l0,0l0,0
		c0,0,0,0.1,0.1,0.1l0,0l0,0c0.3-0.1,0.5-0.3,0.6-0.5c0,0,0.1-0.1,0.1-0.1c0,0,0,0,0.1,0c0,0,0,0,0.1,0v0c0,0,0,0.1,0,0.1
		c-0.7,0.7-1.2,1-1.9,1.5L13,22.8l0.1,0c0.3,0,0.5-0.1,0.8-0.3l0.3-0.2c0.3-0.1,0.5-0.4,0.8-0.6c0,0,0.2-0.2,0.3-0.2
		c0,0,0.1,0,0.1,0.1c0,0,0,0,0,0c0,0,0.2,0.4,0.2,0.4c0,0.2-0.1,0.4-0.1,0.6c0,0.4,0.1,0.9,0.2,1.3c0.1,0.4,0.2,0.8,0.2,1.3
		c0,0,0,0.1,0,0.1c0,0.1-0.1,0.3-0.3,0.4c-0.3,0-0.6,0-0.9,0.1c-0.4,0-0.9,0-1.2,0.1c-0.1,0-0.2,0-0.3,0.1c-0.1,0-0.2,0.1-0.4,0.1
		l0,0l0,0l0,0c0,0-0.1,0.1-0.1,0.1c0,0,0,0,0,0c0,0,0,0.1,0,0.1c0,0,0.1,0,0.1,0c0.1,0,0.2,0,0.3-0.1c0.1,0,0.2-0.1,0.2-0.1
		c0.7-0.1,1.5-0.1,2-0.1c0.3,0,0.7,0,0.8-0.4c0.1-0.1,0.1-0.3,0.1-0.4c0-0.1,0-0.3,0-0.4l0-0.4c0-0.2-0.1-0.4-0.1-0.6
		c-0.1-0.4-0.2-0.8-0.2-1.1c0-0.1,0-0.2,0-0.2c0,0,0,0,0,0c0,0,0.1,0,0.1,0.1c0,0,0.1,0.1,0.1,0.1c0,0,0.1,0,0.1,0.1
		c0.1,0,0.1,0,0.1,0.1c0,0.3,0.1,0.7,0.3,1c0.1,0.2,0.2,0.5,0.2,0.7c0.1,0.4,0.2,0.8,0.2,1.2c0,0.2,0,0.5-0.1,0.7
		c-0.2,0.3-0.6,0.3-0.9,0.3h-0.1l-0.9-0.1c-0.8-0.1-1.6-0.1-2.4,0c0,0-0.2,0-0.2,0c-0.1,0-0.2,0-0.3,0c0,0-0.1-0.1-0.1-0.1
		c0,0,0,0,0-0.1c0.1-0.3,0.2-0.6,0.2-0.9c0-0.2,0-0.4-0.1-0.6c-0.2-0.4-0.5-0.7-0.7-0.9c-0.4-0.4-0.7-0.7-0.9-1
		C10.1,23.1,10,23,10,23l0,0l-0.2,0.2c0.2,0.2,0.4,0.4,0.6,0.6c0.4,0.2,0.6,0.5,0.9,0.8c0.3,0.4,0.4,0.8,0.3,1.2
		c0,0.5-0.5,0.7-0.8,1.1c-0.1,0.2-0.2,0.5,0,0.8c0.1,0.3,0.6,0.2,0.6,0.5c0.1,0.5,1.1,0.9,1.3,0.9c0.2,0,0.4,0.2,0.4,0.2
		c0.4,0.3,0.9,0.2,1.1,0.2c0.3,0,0.7,0.2,1,0.1c0.4-0.2,0.8-0.1,1.2-0.1c1.4,0,3,0,4.4,0.2c0.3,0,0.6,0.2,0.8,0c0.1-0.1,0-0.2,0-0.3
		c-0.7-1.1-0.8-2.3-0.4-3.5l0.3,0c0.9,0.1,1.8,0,2.7-0.6c0.5-0.3,0.7-0.9,0.7-1.3c0-0.3-0.1-0.6-0.1-0.9c0-0.1,0.1-0.3,0.2-0.4
		c0,0,0.2-0.1,0.3-0.3c0.1-0.3-0.1-0.4-0.2-0.4c0.1-0.1,0.3-0.4,0.2-0.6c-0.1-0.1-0.2-0.5-0.2-0.6c0-0.2,0-0.4,0.1-0.5
		c0.4-0.2,0.7-0.2,1.1-0.4c0.3-0.1,0.4-0.4,0.4-0.6L26.7,18.6z M26.6,19.5c-0.4,0.4-1,0.4-1.4,0.7c-0.2,0.2-0.2,0.4-0.1,0.7
		c0.2,0.3,0.1,0.3-0.1,0.4c-0.5,0.2-0.5,0.8-1.2,0.7c0,0-0.2-0.1-0.1,0c0.1,0.1,0.1,0,0.2,0.1c0.2,0,0.3-0.1,0.5-0.2
		c0.2-0.2,0.2-0.3,0.5-0.4c0.1,0,0.2-0.1,0.3,0c0.1,0.1,0.1,0.1,0.1,0.1c0,0.2-0.3,0.3-0.4,0.4c0.1,0.1,0.4,0.2,0.3,0.4
		c-0.1,0.1,0,0.1-0.1,0.1c-0.1,0.1-0.4,0.1-0.6-0.1c0,0-0.1-0.1-0.2,0c0.2,0.2,0.6,0.2,0.6,0.2c0,0-0.2,0.3-0.2,0.4
		c-0.2,0.4,0,0.8,0,1.3c-0.1,0.4-0.2,0.5-0.5,0.7c-0.6,0.4-0.9,0.5-1.6,0.6c-1.6,0.1-2.7-0.5-3.8-1.3c-1.2-0.9-1.6-1.4-2-1.9
		c0-0.2,0.1-0.4,0-0.6c-0.1,0-0.1,0.2-0.2,0.3c-0.1,0.1-0.3,0.2-0.5,0.2c-0.5-0.2-0.5-0.7-0.8-1.1c-0.6-0.6-0.8-1.6-0.5-2.4
		c0.1-0.2,0.3-0.5,0.6-0.6c0.3-0.1,0.7-0.1,0.9,0.2c0.2,0.2,0.4,0.6,0.4,0.9c0.1,0.2,0,0.3,0.1,0.5c0.3,0,0.5,0.1,0.8-0.1
		c0.2,0,0.2,0.2,0.4,0.3l0.3,0.2c0.3,0.1,0.6,0.1,0.9-0.1c0.4-0.5,0.4-0.9,0.5-1.5c0.4-0.4,0.7-0.9,0.7-1.5c0-0.3-0.1-0.7-0.3-1
		c0-0.2,0.1-0.3,0.2-0.5c0.1,0,0.1,0,0.2,0c0.5-0.1,0.9-0.5,1.1-1l0,0c0.5,0,1.2-0.2,1.5-0.8c0.1-0.2,0.3-0.1,0.5-0.1
		c0.3,0,0.6-0.2,0.8-0.4c0.1,0,0.1,0,0.1,0.1c0.1,0.4,0.4,0.8,0.5,1.3c0.2,0.3,0.2,0.6,0.2,1c0.1,0.5,0.4,1,0.6,1.5
		c0.2,0.5,0.5,1.1,0.7,1.7C26.6,19.2,26.7,19.3,26.6,19.5"/>
	<path class="st0" d="M24.2,15.2c0.1,0.1,0.1,0.2,0.1,0.3c-0.1,0-0.2-0.2-0.3-0.2c-0.2-0.1-0.4,0-0.6,0.1c-0.5,0.2-0.9,0.6-1.4,0.9
		c-0.1,0-0.1,0-0.1-0.1C22,16,22.1,16,22.2,16c0.5-0.3,1-0.8,1.6-0.9C23.9,15,24.1,15.1,24.2,15.2"/>
	<path class="st0" d="M23.7,17c-0.1,0.1-0.2,0-0.3,0c-0.2,0-0.6,0-0.9,0c0,0-0.1-0.1,0-0.1c0-0.1,0.2-0.1,0.2-0.1
		c0.3-0.2,0.6-0.4,0.9-0.4c0.1,0,0.1,0,0.1,0.1C23.8,16.6,23.7,16.9,23.7,17 M24.1,16c0-0.1,0-0.3-0.2-0.3c0,0.1,0,0.2,0,0.2
		c0,0.1-0.1,0.1-0.2,0.1c-0.6,0-1,0.6-1.5,0.8C22,17,21.8,17,21.7,17.1c0,0,0,0.1,0,0.1c0.6,0.1,1.1,0.1,1.7,0.2l0.6-0.1
		c0-0.1-0.1-0.2-0.1-0.2c0.1-0.3,0.1-0.5,0-0.8C24,16.1,24.1,16.2,24.1,16"/>
	<path class="st0" d="M24.5,18.8C24.5,18.8,24.5,18.8,24.5,18.8c0.1,0,0.1,0,0.1,0c0,0.1,0,0.2-0.1,0.3c0,0.1-0.1,0.3-0.1,0.4
		c0,0.1,0,0.1,0,0.2c0.1,0.1,0.2,0.1,0.3,0.1c0,0,0.2-0.1,0.2-0.1c0.2-0.1,0.4-0.2,0.8-0.3c0,0,0,0,0,0c0,0,0,0,0,0c0,0,0,0.1,0,0.1
		c0,0-0.4,0.2-0.4,0.2c-0.3,0.1-0.5,0.2-0.8,0.4c-0.1,0-0.1,0-0.2-0.1l0,0c-0.1-0.1-0.1-0.3-0.1-0.4c0-0.1,0-0.2,0.1-0.4
		C24.4,19.1,24.4,19,24.5,18.8C24.4,18.8,24.5,18.8,24.5,18.8"/>
	<path class="st0" d="M16.2,18.7c0.2,0.4,0,0.8,0,1.2c0,0.1,0.3,0.1,0.2,0.3c-0.1,0-0.1,0.1-0.2,0c-0.1-0.1-0.1-0.1-0.2-0.2
		c0-0.4,0.3-0.8,0-1.1c-0.1-0.1-0.2-0.2-0.3-0.2c-0.2,0-0.3,0.3-0.4,0.5c-0.1,0.5-0.2,1,0.3,1.4c0.2,0.1,0.5,0.3,0.6,0.6
		c0,0.1,0.1,0.1,0.2,0.1c0.1,0,0.1-0.2,0.2-0.1l0,0.1c0,0.1-0.1,0.2-0.2,0.2c-0.1,0-0.1,0-0.2-0.1c-0.1-0.2,0-0.4-0.3-0.5
		c-0.4-0.1-0.7-0.6-0.7-1c0-0.4,0-0.8,0.3-1.2c0.1-0.1,0.3-0.2,0.5-0.1C16,18.6,16.1,18.6,16.2,18.7"/>
	<path class="st0" d="M11,21.8c0.6-0.3,1.2-0.2,1.4-0.2c-0.1,0.2-0.3,0.8-0.9,1.1c-0.6,0.3-1.2,0.2-1.4,0.2
		C10.2,22.7,10.5,22.1,11,21.8 M11,21.6c-0.8,0.4-1,1.3-1,1.3l0,0.1l0.1,0c0,0,0.7,0.2,1.6-0.2c0.9-0.4,1-1.3,1.1-1.3l0-0.1l-0.1,0
		C12.5,21.4,11.7,21.3,11,21.6"/>
	<path class="st0" d="M11.8,20.1c0.6-0.3,1.2-0.2,1.4-0.2c-0.1,0.2-0.3,0.8-0.9,1.1c-0.6,0.3-1.2,0.2-1.4,0.2
		C10.9,20.9,11.2,20.3,11.8,20.1 M11.7,19.9c-0.8,0.3-1,1.3-1.1,1.3l0,0.1l0.1,0c0,0,0.7,0.2,1.6-0.2c0.9-0.4,1.1-1.3,1.1-1.3l0-0.1
		l-0.1,0C13.3,19.7,12.5,19.6,11.7,19.9"/>
	<path class="st0" d="M12.8,18.4c0.5-0.2,1.1-0.2,1.3-0.2c-0.1,0.2-0.3,0.7-0.9,1c-0.6,0.3-1.2,0.3-1.4,0.2
		C11.9,19.3,12.2,18.7,12.8,18.4 M12.7,18.2c-0.8,0.3-1.1,1.2-1.1,1.3l0,0.1l0.1,0c0,0,0.7,0.2,1.6-0.2c0.9-0.4,1.1-1.2,1.1-1.3
		l0-0.1l-0.1,0C14.2,18.1,13.4,17.9,12.7,18.2"/>
	<path class="st0" d="M13.7,16.8c0.5-0.2,1.1-0.2,1.3-0.2c-0.1,0.2-0.3,0.7-1,1c-0.6,0.3-1.1,0.3-1.4,0.2
		C12.9,17.6,13.2,17,13.7,16.8 M13.7,16.6c-0.8,0.3-1.1,1.2-1.2,1.3l0,0.1l0.1,0c0,0,0.7,0.2,1.6-0.2c0.9-0.4,1.1-1.2,1.1-1.2l0-0.1
		l-0.1,0C15.2,16.4,14.4,16.3,13.7,16.6"/>
	<path class="st0" d="M15.1,15.1c0.5-0.2,1.1-0.2,1.3-0.2c-0.1,0.2-0.3,0.7-1,1c-0.6,0.3-1.1,0.3-1.4,0.2
		C14.2,15.9,14.5,15.4,15.1,15.1 M15,15c-0.8,0.3-1.2,1.2-1.2,1.2l0,0.1l0.1,0c0,0,0.7,0.2,1.6-0.2c0.9-0.4,1.1-1.1,1.1-1.2l0-0.1
		l-0.1,0C16.5,14.8,15.8,14.6,15,15"/>
	<path class="st0" d="M16.6,13.6c0.5-0.2,1-0.2,1.2-0.2c-0.1,0.2-0.3,0.7-1,0.9c-0.6,0.3-1.1,0.3-1.4,0.2
		C15.6,14.3,16,13.8,16.6,13.6 M16.5,13.4c-0.8,0.3-1.2,1.2-1.3,1.2l-0.1,0.1l0.1,0c0,0,0.7,0.1,1.6-0.2c0.9-0.4,1.1-1.1,1.1-1.1
		l0-0.1l-0.1,0C17.9,13.2,17.3,13.1,16.5,13.4"/>
	<path class="st0" d="M18.2,12.1c0.5-0.2,1-0.2,1.2-0.1c-0.1,0.2-0.3,0.6-1,0.9c-0.6,0.3-1.1,0.3-1.4,0.3
		C17.2,12.8,17.6,12.3,18.2,12.1 M18.1,11.9c-0.8,0.3-1.3,1.2-1.3,1.2l-0.1,0.1l0.1,0c0,0,0.7,0.1,1.6-0.3c0.9-0.4,1.1-1.1,1.1-1.1
		l0-0.1l-0.1,0C19.5,11.8,18.9,11.6,18.1,11.9"/>
	<path class="st0" d="M19.8,10.7c0.5-0.2,1-0.2,1.1-0.1c-0.1,0.2-0.4,0.6-1,0.8c-0.6,0.2-1.1,0.3-1.3,0.3
		C18.9,11.4,19.3,10.9,19.8,10.7 M19.8,10.5c-0.8,0.3-1.3,1.2-1.4,1.2l-0.1,0.1l0.1,0c0,0,0.7,0.1,1.6-0.3c0.9-0.4,1.1-1,1.1-1.1
		l0-0.1l-0.1,0C21.1,10.4,20.6,10.2,19.8,10.5"/>
	<path class="st0" d="M21.5,9.4c0.5-0.2,0.9-0.2,1.1-0.1c-0.1,0.2-0.4,0.6-1,0.8c-0.6,0.2-1.1,0.3-1.3,0.3
		C20.5,10.2,21,9.6,21.5,9.4 M21.5,9.3c-0.8,0.3-1.4,1.1-1.4,1.2L20,10.6l0.2,0c0,0,0.7,0.1,1.6-0.3c0.9-0.4,1.1-1,1.1-1l0-0.1
		l-0.1,0C22.8,9.2,22.2,9,21.5,9.3"/>
	<path class="st0" d="M9.3,21.5C9.3,21.5,9.3,21.5,9.3,21.5c0-0.7,0.4-1.3,0.5-1.5c0.2,0.2,0.5,0.6,0.5,1.3c0,0,0,0.1,0,0.1
		c0,0.7-0.4,1.2-0.5,1.3C9.7,22.6,9.3,22.1,9.3,21.5 M9.7,19.9c0,0-0.5,0.7-0.6,1.6c-0.1,0.8,0.6,1.5,0.7,1.5L9.9,23L9.9,23
		c0,0,0.6-0.5,0.6-1.5c0-1-0.6-1.6-0.7-1.6L9.7,19.9L9.7,19.9z"/>
	<path class="st0" d="M10.3,19.7c0-0.1,0-0.1,0-0.2c0-0.1,0-0.2,0.1-0.3c0.1-0.5,0.4-0.9,0.5-1c0.1,0.2,0.4,0.6,0.4,1.1
		c0,0.1,0,0.1,0,0.2c-0.1,0.7-0.4,1.1-0.6,1.3C10.6,20.7,10.3,20.2,10.3,19.7 M10.8,18c0,0-0.4,0.5-0.6,1.2c0,0.1,0,0.2-0.1,0.3
		C10,20.3,10.6,21,10.6,21l0.1,0.1l0.1-0.1c0,0,0.6-0.5,0.7-1.5c0.1-1-0.5-1.5-0.5-1.6L10.8,18L10.8,18z"/>
	<path class="st0" d="M11.4,18c0-0.1,0-0.2,0-0.3c0-0.1,0-0.2,0.1-0.3c0.2-0.5,0.5-0.8,0.6-1c0.1,0.1,0.3,0.5,0.3,1
		c0,0.1,0,0.2,0,0.3c-0.1,0.7-0.5,1.1-0.6,1.2C11.6,18.8,11.4,18.4,11.4,18 M12,16.3c0,0-0.5,0.4-0.7,1.1c0,0.1-0.1,0.2-0.1,0.3
		c-0.1,0.8,0.3,1.5,0.4,1.5l0.1,0.1l0.1-0.1c0,0,0.6-0.5,0.8-1.4c0.2-0.9-0.3-1.5-0.4-1.6L12,16.3L12,16.3z"/>
	<path class="st0" d="M12.6,16.4c0-0.1,0-0.3,0-0.4c0-0.1,0-0.2,0.1-0.3c0.2-0.5,0.5-0.8,0.6-0.9c0.1,0.1,0.2,0.4,0.2,0.8
		c0,0.1,0,0.3-0.1,0.5c-0.2,0.6-0.5,1-0.7,1.2C12.7,17.2,12.6,16.8,12.6,16.4 M13.3,14.6c0,0-0.5,0.4-0.8,1.1c0,0.1-0.1,0.2-0.1,0.3
		c-0.2,0.8,0.2,1.5,0.2,1.5l0.1,0.1l0.1-0.1c0,0,0.6-0.4,0.9-1.3c0.3-0.9-0.2-1.5-0.2-1.5L13.3,14.6L13.3,14.6z"/>
	<path class="st0" d="M13.9,15c0-0.2,0-0.4,0.1-0.6c0-0.1,0.1-0.2,0.1-0.2c0.2-0.5,0.5-0.8,0.7-0.9c0.1,0.1,0.1,0.3,0.1,0.7
		c0,0.2,0,0.4-0.1,0.6c-0.2,0.6-0.6,1-0.8,1.1C14,15.6,13.9,15.3,13.9,15 M14.8,13.1c0,0-0.5,0.3-0.8,1c0,0.1-0.1,0.2-0.1,0.3
		c-0.2,0.7,0.1,1.5,0.1,1.5l0,0.1l0.1-0.1c0,0,0.6-0.4,0.9-1.3c0.3-0.9-0.1-1.5-0.1-1.5L14.8,13.1L14.8,13.1z"/>
	<path class="st0" d="M15.3,13.8c0-0.2,0-0.5,0.1-0.8c0-0.1,0.1-0.2,0.1-0.2c0.3-0.5,0.6-0.7,0.7-0.8c0,0.1,0.1,0.3,0.1,0.5
		c0,0.2,0,0.5-0.2,0.8c-0.3,0.6-0.7,0.9-0.8,1.1C15.3,14.1,15.3,14,15.3,13.8 M16.3,11.7c0,0-0.5,0.3-0.9,0.9c0,0.1-0.1,0.2-0.1,0.3
		c-0.3,0.7-0.1,1.5-0.1,1.5l0,0.1l0.1-0.1c0,0,0.6-0.4,1-1.2c0.4-0.8,0.1-1.5,0.1-1.5L16.3,11.7L16.3,11.7z"/>
	<path class="st0" d="M16.7,12.7c0-0.3,0-0.7,0.2-1.1c0-0.1,0.1-0.2,0.1-0.2c0.3-0.5,0.6-0.7,0.8-0.8c0,0.1,0,0.2,0,0.3
		c0,0.2-0.1,0.6-0.3,0.9c-0.3,0.6-0.7,0.9-0.9,1C16.7,12.8,16.7,12.8,16.7,12.7 M17.9,10.4c0,0-0.5,0.2-1,0.9c0,0.1-0.1,0.2-0.1,0.2
		c-0.3,0.7-0.2,1.5-0.2,1.5l0,0.1l0.1-0.1c0,0,0.6-0.4,1.1-1.2c0.5-0.8,0.2-1.5,0.2-1.5L17.9,10.4L17.9,10.4z"/>
	<path class="st0" d="M18.6,10.3c0-0.1,0.1-0.2,0.1-0.2c0.3-0.4,0.7-0.6,0.9-0.7c0,0,0,0.1,0,0.2c0,0.2-0.1,0.6-0.4,1.1
		c-0.4,0.5-0.8,0.8-1,1C18.3,11.3,18.3,10.8,18.6,10.3 M19.6,9.2c0,0-0.6,0.2-1,0.8c-0.1,0.1-0.1,0.1-0.1,0.2
		c-0.4,0.7-0.4,1.5-0.4,1.5l0,0.1l0.1-0.1c0,0,0.6-0.3,1.2-1.1c0.5-0.8,0.4-1.5,0.4-1.5L19.6,9.2L19.6,9.2z"/>
	<path class="st0" d="M20.4,9c0.4-0.4,0.7-0.6,0.9-0.7c0,0,0,0,0,0c0,0.2-0.1,0.7-0.5,1.2c-0.4,0.5-0.8,0.8-1,0.9
		C19.9,10.1,20,9.4,20.4,9 M21.4,8.1c0,0-0.6,0.1-1.1,0.7c-0.5,0.6-0.7,1.7-0.7,1.7l0,0.2l0.1-0.1c0,0,0.7-0.3,1.3-1
		c0.6-0.8,0.5-1.4,0.5-1.5L21.4,8.1L21.4,8.1z"/>
	<path class="st0" d="M4.8,17.1c0-6.9,5.5-12.5,12.3-12.5c2,0,4,0.5,5.8,1.5c-0.3,0.3-1.3,1.5-1.4,1.7c-1.4-0.6-2.8-1-4.3-1
		c-5.6,0-10.2,4.6-10.2,10.3c0,2.5,0.9,4.9,2.5,6.7c-0.1,0.2-0.3,0.7-0.3,1.3c0,0.5,0.1,1.1,0.5,1.8C6.6,24.6,4.8,20.9,4.8,17.1
		 M4.4,17.1c0,4.4,2.3,8.6,6.1,11l0.2,0.1l0.1-0.1c0,0,0-0.1,0-0.1c0-0.1-0.1-0.2-0.1-0.2l-0.2-0.2c-0.8-0.9-1-1.7-1-2.4
		c0-0.7,0.3-1.2,0.3-1.2l0.1-0.1l-0.1-0.1c-1.6-1.8-2.4-4.1-2.4-6.6c0-5.5,4.4-9.9,9.8-9.9c1.5,0,2.9,0.3,4.3,1l0.1,0.1l2-2.3
		l-0.2-0.1c-1.9-1.1-4-1.6-6.2-1.6C10.1,4.2,4.4,10,4.4,17.1"/>
	<path class="st0" d="M21.5,7.8c-1.4-0.7-2.9-1-4.5-1c-5.6,0-10.2,4.6-10.2,10.3c0,2.6,0.9,5,2.5,6.8l0.2,0.2l0.8-1.2l0,0
		c-0.1,0-0.1,0-0.2,0c0,0,0-0.1,0-0.1c-0.1-0.1-0.1-0.1-0.2-0.2c-0.1,0.1-0.1,0.2-0.2,0.2c-0.2-0.2-0.5-0.6-0.5-1.2c0,0,0,0,0-0.1
		c-0.7-1.3-1.1-2.8-1.1-4.4c0-5,4-9,8.9-9c1.2,0,2.4,0.2,3.4,0.7c0.1-0.1,0.2-0.2,0.3-0.3c-1.2-0.5-2.5-0.8-3.8-0.8
		c-5.1,0-9.3,4.2-9.3,9.4c0,2.2,0.7,4.2,2,5.9c-0.1,0.1-0.2,0.3-0.3,0.5c-1.5-1.8-2.3-4-2.3-6.4c0-5.5,4.4-9.9,9.8-9.9
		c1.4,0,2.8,0.3,4.1,0.9c-0.1,0.1-0.1,0.2-0.2,0.4c0.1-0.1,0.2-0.1,0.3-0.1c0,0,0,0,0,0c0,0.2,0,0.4-0.2,0.8l0,0l0.6-1.2L21.5,7.8z"
		/>
	<path class="st0" d="M21.5,5.8l-1,1.3c0.1,0,0.2,0.1,0.3,0.1l1-1.2C21.6,5.9,21.5,5.8,21.5,5.8"/>
	<path class="st0" d="M19.5,5.2L19,6.6c0.1,0,0.2,0,0.3,0.1l0.6-1.4C19.7,5.3,19.6,5.2,19.5,5.2"/>
	<path class="st0" d="M17.3,5l-0.1,1.5c0.1,0,0.2,0,0.3,0L17.5,5C17.5,5,17.4,5,17.3,5"/>
	<path class="st0" d="M15.1,5.1l0.3,1.5c0.1,0,0.2,0,0.3,0l-0.3-1.5C15.2,5.1,15.1,5.1,15.1,5.1"/>
	<path class="st0" d="M12.9,5.7l0.7,1.4C13.7,7,13.7,7,13.8,7l-0.7-1.4C13.1,5.7,13,5.7,12.9,5.7"/>
	<path class="st0" d="M10.9,6.7l1,1.2c0.1,0,0.2-0.1,0.2-0.1l-1-1.2C11,6.6,10.9,6.7,10.9,6.7"/>
	<path class="st0" d="M9,8.1L10.3,9c0.1-0.1,0.1-0.1,0.2-0.2L9.2,7.9C9.2,8,9.1,8,9,8.1"/>
	<path class="st0" d="M7.4,9.9l1.5,0.6C9,10.4,9,10.3,9.1,10.2L7.6,9.6C7.5,9.7,7.5,9.8,7.4,9.9"/>
	<path class="st0" d="M6.2,11.9l1.6,0.2c0-0.1,0.1-0.2,0.1-0.3l-1.6-0.2C6.3,11.7,6.3,11.8,6.2,11.9"/>
	<path class="st0" d="M5.4,14.2L7,14c0-0.1,0.1-0.2,0.1-0.3l-1.6,0.2C5.5,14,5.4,14.1,5.4,14.2"/>
	<path class="st0" d="M5.1,16.5L6.6,16c0-0.1,0-0.2,0-0.3l-1.6,0.6C5.1,16.3,5.1,16.4,5.1,16.5"/>
	<path class="st0" d="M5.2,18.9L6.6,18c0-0.1,0-0.2,0-0.3l-1.4,0.9C5.2,18.7,5.2,18.8,5.2,18.9"/>
	<path class="st0" d="M5.8,21.2L6.9,20c0-0.1-0.1-0.2-0.1-0.3l-1.2,1.3C5.7,21,5.8,21.1,5.8,21.2"/>
	<path class="st0" d="M6.9,23.4l0.8-1.5c0-0.1-0.1-0.2-0.1-0.3l-0.8,1.6C6.7,23.3,6.8,23.3,6.9,23.4"/>
	<path class="st0" d="M8.2,25.3l0.4-1.8c-0.1-0.1-0.1-0.2-0.2-0.3L8,25C8.1,25.1,8.1,25.2,8.2,25.3"/>
	<path class="st0" d="M21.3,9.2c0,0,0.1,0,0.1,0.1c0,0,0.1,0,0.1,0c0,0,0.1,0,0.1,0c-0.1-0.1-0.2-0.1-0.2-0.2
		C21.3,9.1,21.3,9.2,21.3,9.2"/>
</g>
<polygon class="st1" points="2.6,44.5 2.6,35.8 3.4,35.8 6.8,39.8 10.3,35.8 11.1,35.8 11.1,44.5 10.3,44.5 10.3,36.8 6.8,40.9 
	3.3,36.8 3.3,44.5 "/>
<g>
	<defs>
		<rect id="SVGID_3_" x="0.7" y="0.7" width="32.6" height="46.9"/>
	</defs>
	<clipPath id="SVGID_4_">
		<use xlink:href="#SVGID_3_"  style="overflow:visible;"/>
	</clipPath>
	<path class="st2" d="M15.3,36.4v3.4h1.4c0.8,0,1.4-0.1,1.8-0.4c0.4-0.3,0.6-0.7,0.6-1.3c0-0.6-0.2-1-0.6-1.3
		c-0.4-0.3-0.9-0.4-1.6-0.4H15.3z M14.6,35.8h2.3c1,0,1.8,0.2,2.3,0.6c0.5,0.4,0.8,1,0.8,1.7c0,0.7-0.2,1.3-0.7,1.7
		c-0.5,0.4-1.2,0.6-2,0.6h-1.8v4h-0.7V35.8z"/>
	<path class="st2" d="M23,40.2c0,0.5,0.1,1,0.3,1.5c0.2,0.5,0.5,0.9,0.9,1.3c0.4,0.4,0.8,0.6,1.3,0.8c0.5,0.2,1,0.3,1.6,0.3
		c0.5,0,1.1-0.1,1.5-0.3s0.9-0.5,1.3-0.8c0.4-0.4,0.7-0.8,0.9-1.2c0.2-0.5,0.3-1,0.3-1.5s-0.1-1-0.3-1.5c-0.2-0.5-0.5-0.9-0.9-1.2
		c-0.4-0.4-0.8-0.6-1.3-0.8c-0.5-0.2-1-0.3-1.5-0.3c-0.5,0-1,0.1-1.5,0.3c-0.5,0.2-0.9,0.5-1.3,0.8c-0.4,0.4-0.7,0.8-0.9,1.2
		C23.1,39.1,23,39.6,23,40.2 M26.5,44.6c-1.3-0.2-2.3-0.7-3.1-1.5c-0.8-0.8-1.2-1.8-1.2-3c0-0.6,0.1-1.1,0.4-1.7
		c0.3-0.5,0.6-1,1.1-1.4c0.5-0.4,1-0.7,1.6-1c0.6-0.2,1.2-0.3,1.9-0.3c0.7,0,1.3,0.1,1.9,0.3c0.6,0.2,1.1,0.5,1.6,1
		c0.5,0.4,0.8,0.9,1.1,1.5s0.4,1.1,0.4,1.7c0,1.2-0.4,2.1-1.2,3c-0.8,0.8-1.8,1.3-3.1,1.5c0.6,0.3,1.1,0.6,1.5,0.8
		c0.5,0.2,0.9,0.3,1.3,0.3c0.2,0,0.4,0,0.6-0.1c0.2-0.1,0.3-0.1,0.5-0.2l0.1,0.1l-0.8,0.9c-0.7,0-1.4-0.2-2.1-0.5
		C28,45.6,27.3,45.2,26.5,44.6"/>
</g>
<path class="st1" d="M1,0.9h32.1v46.4H1V0.9z M0.7,47.6h32.6V0.7H0.7V47.6z"/>
<path class="st1" d="M31.8,2.2H2.3v29.9h29.6V2.2z M32.1,32.3H2V2h30V32.3z"/>
</svg>
