<?xml version="1.0" encoding="utf-8"?>
<!-- Generator: Adobe Illustrator 19.2.1, SVG Export Plug-In . SVG Version: 6.00 Build 0)  -->
<svg version="1.1" id="Ebene_1" xmlns="http://www.w3.org/2000/svg" xmlns:xlink="http://www.w3.org/1999/xlink" x="0px" y="0px"
	 viewBox="0 0 35.5 48.3" style="enable-background:new 0 0 35.5 48.3;" xml:space="preserve">
<style type="text/css">
	.st0{clip-path:url(#SVGID_2_);}
	.st1{fill:#3C3C3B;}
	.st2{clip-path:url(#SVGID_4_);fill:none;stroke:#3C3C3B;stroke-width:1.19;stroke-linecap:round;stroke-linejoin:round;}
	.st3{fill:#F2F2F2;}
	.st4{clip-path:url(#SVGID_6_);fill:none;stroke:#3C3C3B;stroke-width:1.19;stroke-linecap:round;stroke-linejoin:round;}
	.st5{fill:#868686;}
	.st6{font-family:'MyriadPro-Regular';}
	.st7{font-size:11.2px;}
</style>
<g>
	<defs>
		<rect id="SVGID_1_" x="-1000.5" width="1241.2" height="53.4"/>
	</defs>
	<clipPath id="SVGID_2_">
		<use xlink:href="#SVGID_1_"  style="overflow:visible;"/>
	</clipPath>
	<g class="st0">
		<text transform="matrix(1 0 0 1 -633.3709 47.917)" class="st1 st6" style="font-size:18px;"> </text>
	</g>
</g>
<polygon class="st1" points="30.4,0.6 0,0.6 0,48.3 35.5,48.3 35.5,5.7 "/>
<g>
	<defs>
		<rect id="SVGID_3_" x="-1000.5" width="1241.2" height="53.4"/>
	</defs>
	<clipPath id="SVGID_4_">
		<use xlink:href="#SVGID_3_"  style="overflow:visible;"/>
	</clipPath>
	<polygon class="st2" points="30.4,0.6 0,0.6 0,48.3 35.5,48.3 35.5,5.7 	"/>
</g>
<polygon class="st3" points="0,0.6 0,48.3 35.5,48.3 35.5,5.7 30.4,5.7 30.4,0.6 "/>
<g>
	<defs>
		<rect id="SVGID_5_" width="35.5" height="48.3"/>
	</defs>
	<clipPath id="SVGID_6_">
		<use xlink:href="#SVGID_5_"  style="overflow:visible;"/>
	</clipPath>
	<polygon class="st4" points="0,0.6 0,48.3 35.5,48.3 35.5,5.7 30.4,5.7 30.4,0.6 	"/>
</g>
<text transform="matrix(1 0 0 1 8.5036 29.4229)"><tspan x="0" y="0" class="st5 st6 st7">P</tspan><tspan x="5.7" y="0" class="st5 st6 st7">D</tspan><tspan x="13.2" y="0" class="st5 st6 st7">F</tspan></text>
</svg>
