<?xml version="1.0" encoding="utf-8"?>
<!-- Generator: Adobe Illustrator 18.1.1, SVG Export Plug-In . SVG Version: 6.00 Build 0)  -->
<svg version="1.1" id="Ebene_1" xmlns="http://www.w3.org/2000/svg" xmlns:xlink="http://www.w3.org/1999/xlink" x="0px" y="0px"
	 viewBox="0 0 36.7 48.9" enable-background="new 0 0 36.7 48.9" xml:space="preserve">
<polygon fill="#3C3C3B" points="0.6,0.6 0.6,48.3 36.1,48.3 36.1,5.7 31,0.6 "/>
<g>
	<defs>
		<rect id="SVGID_1_" y="0" width="36.7" height="48.9"/>
	</defs>
	<clipPath id="SVGID_2_">
		<use xlink:href="#SVGID_1_"  overflow="visible"/>
	</clipPath>
	
		<polygon clip-path="url(#SVGID_2_)" fill="none" stroke="#3C3C3B" stroke-width="1.19" stroke-linecap="round" stroke-linejoin="round" points="
		31,0.6 0.6,0.6 0.6,48.3 36.1,48.3 36.1,5.7 	"/>
</g>
<polygon fill="#F2F2F2" points="0.6,0.6 0.6,48.3 36.1,48.3 36.1,5.7 31,5.7 31,0.6 "/>
<g>
	<defs>
		<rect id="SVGID_3_" y="0" width="36.7" height="48.9"/>
	</defs>
	<clipPath id="SVGID_4_">
		<use xlink:href="#SVGID_3_"  overflow="visible"/>
	</clipPath>
	
		<polygon clip-path="url(#SVGID_4_)" fill="none" stroke="#3C3C3B" stroke-width="1.19" stroke-linecap="round" stroke-linejoin="round" points="
		0.6,0.6 0.6,48.3 36.1,48.3 36.1,5.7 31,5.7 31,0.6 	"/>
	<path clip-path="url(#SVGID_4_)" fill="#868686" d="M25.2,26.1h2.9c0.1,0,0.3,0,0.4-0.1c0.1,0,0.2-0.1,0.2-0.2
		c0-0.1,0.1-0.1,0.1-0.2c0-0.1,0-0.1,0-0.2s0-0.1,0-0.2c0-0.1,0-0.1-0.1-0.2c0-0.1-0.1-0.1-0.2-0.2c-0.1,0-0.2-0.1-0.4-0.1h-2.9
		v-2.2h3.1c0.1,0,0.3,0,0.4-0.1c0.1,0,0.2-0.1,0.2-0.2c0-0.1,0.1-0.1,0.1-0.2c0-0.1,0-0.1,0-0.2s0-0.1,0-0.2c0-0.1,0-0.1-0.1-0.2
		c0-0.1-0.1-0.1-0.2-0.2s-0.2-0.1-0.4-0.1h-3.7c-0.6,0-0.8,0.3-0.8,0.8v6.4c0,0.2,0,0.3,0.1,0.4c0.1,0.1,0.1,0.2,0.2,0.2
		c0.1,0.1,0.1,0.1,0.2,0.1c0.1,0,0.2,0,0.2,0c0.1,0,0.1,0,0.2,0c0.1,0,0.2-0.1,0.2-0.1c0.1-0.1,0.1-0.1,0.2-0.2s0.1-0.2,0.1-0.4
		V26.1z M16.6,22.7h1.2c0.4,0,0.7,0,1.1,0.1c0.4,0.1,0.7,0.2,1,0.4c0.3,0.2,0.5,0.5,0.7,0.8c0.2,0.4,0.3,0.8,0.3,1.4
		c0,0.5-0.1,1-0.3,1.3c-0.2,0.4-0.4,0.6-0.7,0.8c-0.3,0.2-0.6,0.4-1,0.4c-0.4,0.1-0.7,0.1-1.1,0.1h-1.2V22.7z M18,29.4
		c0.5,0,1-0.1,1.6-0.2c0.5-0.2,1-0.4,1.4-0.7c0.4-0.3,0.8-0.7,1-1.2c0.3-0.5,0.4-1.1,0.4-1.8c0-0.7-0.1-1.4-0.4-1.9
		c-0.3-0.5-0.6-0.9-1-1.2c-0.4-0.3-0.9-0.5-1.4-0.7c-0.5-0.1-1-0.2-1.6-0.2h-2c-0.6,0-0.8,0.3-0.8,0.8v6.2c0,0.6,0.3,0.8,0.8,0.8H18
		z M9.2,21.5c-0.6,0-0.8,0.3-0.8,0.8v6.4c0,0.2,0,0.3,0.1,0.4s0.1,0.2,0.2,0.2c0.1,0.1,0.1,0.1,0.2,0.1c0.1,0,0.2,0,0.2,0
		c0.1,0,0.1,0,0.2,0c0.1,0,0.2-0.1,0.2-0.1c0.1-0.1,0.1-0.1,0.2-0.2c0.1-0.1,0.1-0.2,0.1-0.4v-2.6h1.1c0.4,0,0.8,0,1.2-0.1
		c0.4-0.1,0.7-0.2,1-0.4s0.5-0.4,0.7-0.7c0.2-0.3,0.2-0.7,0.2-1.1c0-0.4-0.1-0.8-0.2-1.1c-0.1-0.3-0.3-0.5-0.6-0.7
		c-0.3-0.2-0.6-0.3-0.9-0.4c-0.4-0.1-0.8-0.1-1.2-0.1H9.2z M9.8,22.7h1c0.2,0,0.4,0,0.6,0c0.2,0,0.4,0.1,0.5,0.2
		c0.2,0.1,0.3,0.2,0.4,0.3c0.1,0.1,0.1,0.3,0.1,0.6c0,0.2,0,0.4-0.1,0.6c-0.1,0.2-0.2,0.3-0.4,0.4c-0.2,0.1-0.4,0.1-0.6,0.2
		c-0.2,0-0.4,0.1-0.7,0.1h-1V22.7z"/>
</g>
</svg>
