<?xml version="1.0" encoding="utf-8"?>
<!-- Generator: Adobe Illustrator 18.1.1, SVG Export Plug-In . SVG Version: 6.00 Build 0)  -->
<svg version="1.1" id="Ebene_1" xmlns="http://www.w3.org/2000/svg" xmlns:xlink="http://www.w3.org/1999/xlink" x="0px" y="0px"
	 viewBox="0 0 36.9 48.9" enable-background="new 0 0 36.9 48.9" xml:space="preserve">
<g>
	<polygon fill="#3C3C3B" points="1,1 1,47.9 35.9,47.9 35.9,6 30.9,1 	"/>
	<g>
		<defs>
			<rect id="SVGID_1_" x="0" y="0" width="36.9" height="48.9"/>
		</defs>
		<clipPath id="SVGID_2_">
			<use xlink:href="#SVGID_1_"  overflow="visible"/>
		</clipPath>
		
			<polygon clip-path="url(#SVGID_2_)" fill="none" stroke="#3C3C3B" stroke-width="1.967" stroke-linecap="round" stroke-linejoin="round" points="
			30.9,1 1,1 1,47.9 35.9,47.9 35.9,6 		"/>
	</g>
	<polygon fill="#F2F2F2" points="1,1 1,47.9 35.9,47.9 35.9,6 30.9,6 30.9,1 	"/>
	<g>
		<defs>
			<rect id="SVGID_3_" x="0" y="0" width="36.9" height="48.9"/>
		</defs>
		<clipPath id="SVGID_4_">
			<use xlink:href="#SVGID_3_"  overflow="visible"/>
		</clipPath>
		
			<polygon clip-path="url(#SVGID_4_)" fill="none" stroke="#3C3C3B" stroke-width="1.967" stroke-linecap="round" stroke-linejoin="round" points="
			1,1 1,47.9 35.9,47.9 35.9,6 30.9,6 30.9,1 		"/>
		<path clip-path="url(#SVGID_4_)" fill="#3C3C3B" d="M26.1,26.4h3.1c0.2,0,0.3,0,0.4-0.1c0.1,0,0.2-0.1,0.2-0.2
			c0-0.1,0.1-0.1,0.1-0.2c0-0.1,0-0.1,0-0.2c0,0,0-0.1,0-0.2c0-0.1,0-0.1-0.1-0.2c0-0.1-0.1-0.1-0.2-0.2c-0.1,0-0.2-0.1-0.4-0.1
			h-3.1v-2.3h3.3c0.2,0,0.3,0,0.4-0.1c0.1,0,0.2-0.1,0.2-0.2c0.1-0.1,0.1-0.1,0.1-0.2c0-0.1,0-0.1,0-0.2c0,0,0-0.1,0-0.2
			c0-0.1,0-0.2-0.1-0.2c-0.1-0.1-0.1-0.1-0.2-0.2c-0.1,0-0.2-0.1-0.4-0.1h-4c-0.6,0-0.9,0.3-0.9,0.9v6.9c0,0.2,0,0.3,0.1,0.4
			c0.1,0.1,0.1,0.2,0.2,0.3c0.1,0.1,0.2,0.1,0.2,0.1c0.1,0,0.2,0,0.2,0c0.1,0,0.1,0,0.2,0c0.1,0,0.2-0.1,0.2-0.1
			c0.1-0.1,0.1-0.1,0.2-0.3c0.1-0.1,0.1-0.3,0.1-0.4V26.4z M16.8,22.8h1.3c0.4,0,0.8,0,1.2,0.1c0.4,0.1,0.7,0.2,1.1,0.4
			c0.3,0.2,0.6,0.5,0.8,0.9c0.2,0.4,0.3,0.9,0.3,1.5c0,0.6-0.1,1.1-0.3,1.4c-0.2,0.4-0.5,0.7-0.8,0.9c-0.3,0.2-0.7,0.4-1.1,0.5
			c-0.4,0.1-0.8,0.1-1.2,0.1h-1.3V22.8z M18.3,30c0.6,0,1.1-0.1,1.7-0.2c0.6-0.2,1.1-0.4,1.5-0.8c0.4-0.3,0.8-0.8,1.1-1.3
			c0.3-0.5,0.4-1.2,0.4-1.9c0-0.8-0.1-1.5-0.4-2c-0.3-0.5-0.6-1-1.1-1.3c-0.5-0.3-1-0.6-1.5-0.7c-0.6-0.1-1.1-0.2-1.7-0.2h-2.1
			c-0.6,0-0.9,0.3-0.9,0.9v6.7c0,0.6,0.3,0.9,0.9,0.9H18.3z M9,21.5c-0.6,0-0.9,0.3-0.9,0.9v6.9c0,0.2,0,0.3,0.1,0.4
			c0.1,0.1,0.1,0.2,0.2,0.3c0.1,0.1,0.2,0.1,0.2,0.1c0.1,0,0.2,0,0.2,0c0.1,0,0.1,0,0.2,0c0.1,0,0.2-0.1,0.2-0.1
			c0.1-0.1,0.1-0.1,0.2-0.3c0.1-0.1,0.1-0.3,0.1-0.4v-2.8h1.2c0.4,0,0.9,0,1.3-0.1c0.4-0.1,0.8-0.2,1.1-0.4c0.3-0.2,0.5-0.5,0.7-0.8
			c0.2-0.3,0.3-0.7,0.3-1.2c0-0.4-0.1-0.8-0.2-1.1c-0.2-0.3-0.4-0.6-0.6-0.8c-0.3-0.2-0.6-0.3-1-0.4c-0.4-0.1-0.8-0.1-1.3-0.1H9z
			 M9.6,22.8h1.1c0.2,0,0.5,0,0.7,0c0.2,0,0.4,0.1,0.6,0.2c0.2,0.1,0.3,0.2,0.4,0.4c0.1,0.2,0.2,0.4,0.2,0.6c0,0.3-0.1,0.5-0.2,0.6
			c-0.1,0.2-0.2,0.3-0.4,0.4c-0.2,0.1-0.4,0.2-0.6,0.2c-0.2,0-0.5,0.1-0.7,0.1H9.6V22.8z"/>
	</g>
</g>
</svg>
