<?xml version="1.0" encoding="utf-8"?>
<!-- Generator: Adobe Illustrator 18.1.1, SVG Export Plug-In . SVG Version: 6.00 Build 0)  -->
<svg version="1.1" id="Ebene_1" xmlns="http://www.w3.org/2000/svg" xmlns:xlink="http://www.w3.org/1999/xlink" x="0px" y="0px"
	 viewBox="0 0 24.4 25.4" style="enable-background:new 0 0 24.4 25.4;" xml:space="preserve">
<style type="text/css">
	.st0{clip-path:url(#SVGID_2_);}
	.st1{fill:#3C3C3B;}
</style>
<g>
	<defs>
		<rect id="SVGID_1_" x="0.1" y="0.3" width="24.2" height="24.8"/>
	</defs>
	<clipPath id="SVGID_2_">
		<use xlink:href="#SVGID_1_"  style="overflow:visible;"/>
	</clipPath>
	<g class="st0">
		<path class="st1" d="M10.4,11.8h-9c-0.7,0-1.2-0.6-1.2-1.2v-9c0-0.7,0.6-1.2,1.2-1.2h9c0.7,0,1.2,0.6,1.2,1.2v9
			C11.6,11.3,11.1,11.8,10.4,11.8z M2.6,9.3h6.5V2.8H2.6V9.3z"/>
	</g>
	<g class="st0">
		<path class="st1" d="M23.1,11.8h-9c-0.7,0-1.2-0.6-1.2-1.2v-9c0-0.7,0.6-1.2,1.2-1.2h9c0.7,0,1.2,0.6,1.2,1.2v9
			C24.3,11.3,23.8,11.8,23.1,11.8z M15.3,9.3h6.5V2.8h-6.5V9.3z"/>
	</g>
	<g class="st0">
		<path class="st1" d="M10.4,25.1h-9c-0.7,0-1.2-0.6-1.2-1.2v-9c0-0.7,0.6-1.2,1.2-1.2h9c0.7,0,1.2,0.6,1.2,1.2v9
			C11.6,24.5,11.1,25.1,10.4,25.1z M2.6,22.6h6.5v-6.5H2.6V22.6z"/>
	</g>
	<g class="st0">
		<path class="st1" d="M23.1,25.1h-9c-0.7,0-1.2-0.6-1.2-1.2v-9c0-0.7,0.6-1.2,1.2-1.2h9c0.7,0,1.2,0.6,1.2,1.2v9
			C24.3,24.5,23.8,25.1,23.1,25.1z M15.3,22.6h6.5v-6.5h-6.5V22.6z"/>
	</g>
</g>
</svg>
