<?xml version="1.0" encoding="utf-8"?>
<!-- Generator: Adobe Illustrator 18.1.1, SVG Export Plug-In . SVG Version: 6.00 Build 0)  -->
<svg version="1.1" id="Ebene_1" xmlns="http://www.w3.org/2000/svg" xmlns:xlink="http://www.w3.org/1999/xlink" x="0px" y="0px"
	 viewBox="0 0 24.4 25.4" style="enable-background:new 0 0 24.4 25.4;" xml:space="preserve">
<style type="text/css">
	.st0{clip-path:url(#SVGID_2_);}
	.st1{fill:#868686;}
</style>
<g>
	<defs>
		<rect id="SVGID_1_" x="0.9" y="1.1" width="22.7" height="23.3"/>
	</defs>
	<clipPath id="SVGID_2_">
		<use xlink:href="#SVGID_1_"  style="overflow:visible;"/>
	</clipPath>
	<g class="st0">
		<path class="st1" d="M9.4,11.1h-7c-1.1,0-1.5-0.9-1.5-1.5v-7c0-1.1,0.9-1.5,1.5-1.5h7c1.1,0,1.5,0.9,1.5,1.5v7
			C10.9,10.7,10,11.1,9.4,11.1z M2.4,2.1c-0.2,0-0.5,0.1-0.5,0.5v7c0,0.2,0.1,0.5,0.5,0.5h7c0.2,0,0.5-0.1,0.5-0.5v-7
			c0-0.2-0.1-0.5-0.5-0.5H2.4z"/>
	</g>
	<g class="st0">
		<path class="st1" d="M22.1,11.1h-7c-1.1,0-1.5-0.9-1.5-1.5v-7c0-1.1,0.9-1.5,1.5-1.5h7c1.1,0,1.5,0.9,1.5,1.5v7
			C23.6,10.7,22.7,11.1,22.1,11.1z M15.1,2.1c-0.2,0-0.5,0.1-0.5,0.5v7c0,0.2,0.1,0.5,0.5,0.5h7c0.2,0,0.5-0.1,0.5-0.5v-7
			c0-0.2-0.1-0.5-0.5-0.5H15.1z"/>
	</g>
	<g class="st0">
		<path class="st1" d="M9.4,24.3h-7c-1.1,0-1.5-0.9-1.5-1.5v-7c0-1.1,0.9-1.5,1.5-1.5h7c1.1,0,1.5,0.9,1.5,1.5v7
			C10.9,23.9,10,24.3,9.4,24.3z M2.4,15.3c-0.2,0-0.5,0.1-0.5,0.5v7c0,0.2,0.1,0.5,0.5,0.5h7c0.2,0,0.5-0.1,0.5-0.5v-7
			c0-0.2-0.1-0.5-0.5-0.5H2.4z"/>
	</g>
	<g class="st0">
		<path class="st1" d="M22.1,24.3h-7c-1.1,0-1.5-0.9-1.5-1.5v-7c0-1.1,0.9-1.5,1.5-1.5h7c1.1,0,1.5,0.9,1.5,1.5v7
			C23.6,23.9,22.7,24.3,22.1,24.3z M15.1,15.3c-0.2,0-0.5,0.1-0.5,0.5v7c0,0.2,0.1,0.5,0.5,0.5h7c0.2,0,0.5-0.1,0.5-0.5v-7
			c0-0.2-0.1-0.5-0.5-0.5H15.1z"/>
	</g>
</g>
</svg>
