<?xml version="1.0" encoding="utf-8"?>
<!-- Generator: Adobe Illustrator 18.1.1, SVG Export Plug-In . SVG Version: 6.00 Build 0)  -->
<svg version="1.1" id="Ebene_1" xmlns="http://www.w3.org/2000/svg" xmlns:xlink="http://www.w3.org/1999/xlink" x="0px" y="0px"
	 viewBox="0 0 210 91" style="enable-background:new 0 0 210 91;" xml:space="preserve">
<style type="text/css">
	.st0{clip-path:url(#SVGID_2_);fill:#2C8243;}
	.st1{fill:#2C8243;}
	.st2{fill:#FFFFFF;}
</style>
<g>
	<g>
		<defs>
			<rect id="SVGID_1_" x="33.7" y="11.9" width="142.6" height="67.7"/>
		</defs>
		<clipPath id="SVGID_2_">
			<use xlink:href="#SVGID_1_"  style="overflow:visible;"/>
		</clipPath>
		<polygon class="st0" points="33.7,11.9 101.3,11.9 101.3,79.6 33.7,79.6 33.7,11.9 		"/>
	</g>
	<polygon class="st1" points="108.7,11.9 176.3,11.9 176.3,79.6 108.7,79.6 108.7,11.9 	"/>
	<path class="st2" d="M38.5,51.1h2.3v21.6h6.6v1.7h-8.9V51.1L38.5,51.1z M60.5,69.1c0,0.2,0.1,0.2,0.2,0.2c0.1,0,0.2-0.1,0.2-0.2
		c0.2-1.5,0.5-3.2,0.8-5c0.3-1.8,0.6-3.6,1-5.3c0.3-1.7,0.6-3.3,0.9-4.7c0.3-1.4,0.5-2.4,0.7-3.1h7.5v23.3h-4.5V54.8
		c0-0.1-0.1-0.2-0.2-0.2c-0.1,0-0.1,0.1-0.1,0.2c-0.2,0.9-0.4,1.9-0.6,3.1c-0.2,1.1-0.5,2.5-0.8,4c-0.3,1.5-0.7,3.3-1.1,5.3
		c-0.4,2-0.9,4.4-1.5,7.2h-4.7c-0.6-2.7-1.1-5-1.5-7c-0.4-2-0.8-3.7-1.1-5.2c-0.3-1.5-0.6-2.8-0.8-4c-0.2-1.2-0.5-2.3-0.7-3.4
		c0-0.1-0.1-0.2-0.2-0.2c-0.1,0-0.1,0.1-0.1,0.2v19.6h-4.1V51.1h7.5c0.1,0.5,0.3,1.2,0.4,2c0.2,0.8,0.3,1.7,0.5,2.7
		c0.2,1,0.4,2.1,0.6,3.2c0.2,1.1,0.4,2.3,0.6,3.5c0.2,1.2,0.4,2.3,0.6,3.5C60.2,67.1,60.3,68.1,60.5,69.1L60.5,69.1z M74.6,65.5
		V51.1h8v15.2c0,1.1,0.2,1.8,0.7,2.3c0.5,0.5,1.2,0.7,2,0.7c0.8,0,1.5-0.2,2-0.7c0.5-0.5,0.8-1.2,0.8-2.3V51.1H96v14.4
		c0,1.7-0.3,3.2-0.8,4.4c-0.5,1.2-1.2,2.2-2.2,2.9c-0.9,0.8-2.1,1.3-3.4,1.7c-1.3,0.3-2.8,0.5-4.4,0.5c-1.6,0-3-0.2-4.3-0.5
		c-1.3-0.3-2.4-0.9-3.4-1.7c-0.9-0.8-1.7-1.7-2.2-2.9C74.8,68.7,74.6,67.2,74.6,65.5L74.6,65.5z"/>
	<polygon class="st2" points="113.7,47.1 113.7,42.2 114.6,42.2 114.6,46.4 117,46.4 117,47.1 113.7,47.1 	"/>
	<path class="st2" d="M120.4,47.2c-1.1,0-2.1-0.4-2.1-2.1v-3h0.9v3.1c0,0.8,0.4,1.3,1.1,1.3c0.8,0,1.1-0.5,1.1-1.3v-3.1h0.9v3
		C122.4,46.7,121.4,47.2,120.4,47.2L120.4,47.2z"/>
	<path class="st2" d="M125.8,47.1h-1.5v-4.9h1.5c1.8,0,2.5,1,2.5,2.4C128.4,46.2,127.4,47.1,125.8,47.1L125.8,47.1z M125.8,42.9
		h-0.5v3.5h0.5c1.1,0,1.6-0.5,1.6-1.8C127.4,43.4,126.9,42.9,125.8,42.9L125.8,42.9z"/>
	<polygon class="st2" points="134.8,47.1 133.8,47.1 132.8,43.6 131.9,47.1 130.9,47.1 129.4,42.2 130.4,42.2 131.4,46 132.4,42.6 
		133.4,42.6 134.3,46 135.3,42.2 136.3,42.2 134.8,47.1 	"/>
	<polygon class="st2" points="137.7,42.2 138.6,42.2 138.6,47.1 137.7,47.1 137.7,42.2 	"/>
	<path class="st2" d="M142.7,47.2c-1.5,0-2.4-1-2.4-2.6c0-1.7,1.3-2.5,2.4-2.5c0.8,0,1.3,0.3,1.7,0.6l-0.4,0.7
		c-0.3-0.3-0.6-0.6-1.3-0.6c-0.8,0-1.4,0.7-1.4,1.9c0,1.2,0.6,2,1.5,2c0.5,0,0.8-0.1,0.9-0.2v-1.3h-1.1v-0.7h2v2.4
		C144.1,47,143.6,47.2,142.7,47.2L142.7,47.2z"/>
	<polygon class="st2" points="145.8,44.6 147.8,44.6 147.8,45.2 145.8,45.2 145.8,44.6 	"/>
	<polygon class="st2" points="118.1,56.2 118,52.4 116.7,55.5 115.9,55.5 114.6,52.4 114.4,56.2 113.5,56.2 113.8,51.3 115,51.3 
		116.3,54.5 117.6,51.3 118.8,51.3 119.1,56.2 118.1,56.2 	"/>
	<path class="st2" d="M124.2,56.2l-0.4-1.2h-2l-0.4,1.2h-1l2-5h1l2,5H124.2L124.2,56.2z M122.7,52.2l-0.8,2.2h1.6L122.7,52.2
		L122.7,52.2z"/>
	<polygon class="st2" points="129.7,56.2 128.4,54.2 127,56.2 125.9,56.2 127.8,53.6 126.1,51.3 127.2,51.3 128.4,53.1 129.6,51.3 
		130.7,51.3 129,53.6 130.9,56.2 129.7,56.2 	"/>
	<polygon class="st2" points="132.2,51.3 133.2,51.3 133.2,56.2 132.2,56.2 132.2,51.3 	"/>
	<polygon class="st2" points="139.6,56.2 139.5,52.4 138.2,55.5 137.4,55.5 136.1,52.4 135.9,56.2 135,56.2 135.3,51.3 136.5,51.3 
		137.8,54.5 139.1,51.3 140.3,51.3 140.6,56.2 139.6,56.2 	"/>
	<polygon class="st2" points="142.4,51.3 143.3,51.3 143.3,56.2 142.4,56.2 142.4,51.3 	"/>
	<polygon class="st2" points="148.7,56.2 148.7,55.5 146.2,55.5 146.2,51.3 145.3,51.3 145.3,56.2 148.7,56.2 	"/>
	<polygon class="st2" points="150.3,51.3 151.2,51.3 151.2,56.2 150.3,56.2 150.3,51.3 	"/>
	<path class="st2" d="M156.4,56.2L156,55h-2l-0.4,1.2h-1l2-5h1l2,5H156.4L156.4,56.2z M155,52.2l-0.8,2.2h1.6L155,52.2L155,52.2z"/>
	<polygon class="st2" points="161.8,56.2 159.7,52.5 159.7,56.2 158.8,56.2 158.8,51.3 160,51.3 162.1,54.9 162.1,51.3 163,51.3 
		163,56.2 161.8,56.2 	"/>
	<path class="st2" d="M168.3,54.8c0-0.7-0.5-1.1-1-1.3l-1-0.4c-0.3-0.1-0.6-0.3-0.6-0.7c0-0.3,0.2-0.6,0.8-0.6c0.6,0,1,0.3,1.3,0.6
		l0.4-0.6c-0.4-0.4-1-0.7-1.6-0.7c-0.8,0-1.7,0.5-1.7,1.4c0,0.6,0.4,1,0.9,1.2l1,0.4c0.4,0.2,0.7,0.3,0.7,0.7c0,0.3-0.3,0.7-0.9,0.7
		c-0.6,0-1-0.3-1.4-0.7l-0.4,0.6c0.2,0.3,0.8,0.7,1.8,0.7C167.9,56.3,168.3,55.3,168.3,54.8L168.3,54.8z"/>
	<polygon class="st2" points="169.5,53.7 171.4,53.7 171.4,54.3 169.5,54.3 169.5,53.7 	"/>
	<path class="st2" d="M115.7,65.4c-1.1,0-2.1-0.4-2.1-2.1v-3h0.9v3.1c0,0.8,0.4,1.3,1.1,1.3c0.8,0,1.1-0.5,1.1-1.3v-3.1h0.9v3
		C117.7,64.9,116.7,65.4,115.7,65.4L115.7,65.4z"/>
	<polygon class="st2" points="122.6,65.3 120.5,61.6 120.5,65.3 119.6,65.3 119.6,60.3 120.8,60.3 122.9,64 122.9,60.3 123.8,60.3 
		123.8,65.3 122.6,65.3 	"/>
	<polygon class="st2" points="125.8,60.3 126.7,60.3 126.7,65.3 125.8,65.3 125.8,60.3 	"/>
	<polygon class="st2" points="130.9,65.3 129.9,65.3 127.9,60.3 128.9,60.3 130.4,64.4 131.8,60.3 132.8,60.3 130.9,65.3 	"/>
	<polygon class="st2" points="134.2,65.3 134.2,60.3 137.5,60.3 137.5,61.1 135.1,61.1 135.1,62.4 137.3,62.4 137.3,63.1 
		135.1,63.1 135.1,64.6 137.6,64.6 137.6,65.3 134.2,65.3 	"/>
	<path class="st2" d="M142.1,65.3l-1-1.5c-0.3-0.4-0.5-0.6-0.7-0.6h-0.2v2.1h-0.9v-4.9h1.9c0.9,0,1.7,0.5,1.7,1.4
		c0,0.9-0.8,1.3-1.3,1.3c0.1,0.1,0.3,0.3,0.4,0.4l1.3,1.8H142.1L142.1,65.3z M140.9,61h-0.8v1.4h0.8c0.7,0,0.9-0.3,0.9-0.8
		C141.8,61.4,141.5,61,140.9,61L140.9,61z"/>
	<path class="st2" d="M145.9,65.4c-1,0-1.5-0.5-1.8-0.7l0.4-0.6c0.4,0.4,0.8,0.7,1.4,0.7c0.6,0,0.9-0.4,0.9-0.7
		c0-0.4-0.3-0.6-0.7-0.7l-1-0.4c-0.5-0.2-0.9-0.6-0.9-1.2c0-1,0.9-1.4,1.7-1.4c0.7,0,1.3,0.2,1.6,0.7l-0.4,0.6
		c-0.3-0.3-0.6-0.6-1.3-0.6c-0.5,0-0.8,0.3-0.8,0.6c0,0.4,0.3,0.5,0.6,0.7l1,0.4c0.6,0.2,1,0.6,1,1.3
		C147.8,64.4,147.4,65.4,145.9,65.4L145.9,65.4z"/>
	<polygon class="st2" points="149.5,60.3 150.4,60.3 150.4,65.3 149.5,65.3 149.5,60.3 	"/>
	<polygon class="st2" points="154.4,61.1 154.4,65.3 153.5,65.3 153.5,61.1 151.8,61.1 151.8,60.3 156.1,60.3 156.1,61.1 
		154.4,61.1 	"/>
	<path class="st2" d="M160.7,65.3l-0.4-1.2h-2l-0.4,1.2h-1l2-4.9h1l2,4.9H160.7L160.7,65.3z M158.5,59.9c-0.3,0-0.5-0.2-0.5-0.5
		c0-0.2,0.2-0.5,0.5-0.5c0.3,0,0.5,0.2,0.5,0.5C159,59.7,158.8,59.9,158.5,59.9L158.5,59.9z M159.2,61.3l-0.8,2.2h1.6L159.2,61.3
		L159.2,61.3z M159.9,59.9c-0.3,0-0.5-0.2-0.5-0.5c0-0.2,0.2-0.5,0.5-0.5c0.3,0,0.5,0.2,0.5,0.5C160.4,59.7,160.2,59.9,159.9,59.9
		L159.9,59.9z"/>
	<polygon class="st2" points="165,61.1 165,65.3 164.1,65.3 164.1,61.1 162.4,61.1 162.4,60.3 166.7,60.3 166.7,61.1 165,61.1 	"/>
	<polygon class="st2" points="118.1,74.4 118,70.6 116.7,73.7 115.9,73.7 114.6,70.6 114.4,74.4 113.5,74.4 113.8,69.4 115,69.4 
		116.3,72.7 117.6,69.4 118.8,69.4 119.1,74.4 118.1,74.4 	"/>
	<path class="st2" d="M122.9,74.5c-1.1,0-2.1-0.4-2.1-2.1v-3h0.9v3.1c0,0.8,0.4,1.3,1.1,1.3c0.8,0,1.1-0.5,1.1-1.3v-3.1h0.9v3
		C124.9,74,123.9,74.5,122.9,74.5L122.9,74.5z M122.1,69c-0.3,0-0.5-0.2-0.5-0.5c0-0.2,0.2-0.5,0.5-0.5c0.3,0,0.5,0.2,0.5,0.5
		C122.6,68.8,122.4,69,122.1,69L122.1,69z M123.5,69c-0.3,0-0.5-0.2-0.5-0.5c0-0.2,0.2-0.5,0.5-0.5c0.3,0,0.5,0.2,0.5,0.5
		C124,68.8,123.8,69,123.5,69L123.5,69z"/>
	<polygon class="st2" points="129.8,74.4 127.7,70.7 127.7,74.4 126.8,74.4 126.8,69.4 128,69.4 130.1,73.1 130.1,69.4 131,69.4 
		131,74.4 129.8,74.4 	"/>
	<path class="st2" d="M135.1,74.5c-1.6,0-2.4-1.2-2.4-2.6c0-1.3,0.9-2.5,2.4-2.5c0.7,0,1.3,0.2,1.6,0.6l-0.4,0.7
		c-0.3-0.3-0.6-0.6-1.3-0.6c-0.8,0-1.4,0.8-1.4,1.9c0,1,0.6,1.9,1.4,1.9c0.6,0,1-0.2,1.4-0.6l0.4,0.7
		C136.3,74.3,135.8,74.5,135.1,74.5L135.1,74.5z"/>
	<polygon class="st2" points="141.4,74.4 141.4,72.1 139.2,72.1 139.2,74.4 138.3,74.4 138.3,69.4 139.2,69.4 139.2,71.5 
		141.4,71.5 141.4,69.4 142.3,69.4 142.3,74.4 141.4,74.4 	"/>
	<polygon class="st2" points="144.3,74.4 144.3,69.4 147.6,69.4 147.6,70.2 145.2,70.2 145.2,71.5 147.4,71.5 147.4,72.2 
		145.2,72.2 145.2,73.6 147.7,73.6 147.7,74.4 144.3,74.4 	"/>
	<polygon class="st2" points="152.3,74.4 150.2,70.7 150.2,74.4 149.3,74.4 149.3,69.4 150.5,69.4 152.6,73.1 152.6,69.4 
		153.5,69.4 153.5,74.4 152.3,74.4 	"/>
</g>
</svg>
