<?xml version="1.0" encoding="utf-8"?>
<!-- Generator: Adobe Illustrator 21.0.0, SVG Export Plug-In . SVG Version: 6.00 Build 0)  -->
<svg version="1.1" id="Layer_1" xmlns="http://www.w3.org/2000/svg" xmlns:xlink="http://www.w3.org/1999/xlink" x="0px" y="0px"
	 viewBox="0 0 1200 600" style="enable-background:new 0 0 1200 600;" xml:space="preserve">
<style type="text/css">
	.st0{fill:#006B3F;}
	.st1{fill:#FCD116;}
	.st2{fill:#FFFFFF;}
	.st3{fill:#D41C30;}
	.st4{fill:#006B3F;stroke:#000000;}
	.st5{fill:#006B3F;stroke:#000000;stroke-width:2.5;}
	.st6{fill:#9C4A00;stroke:#000000;stroke-width:0.6573;}
	.st7{fill:#FCD116;stroke:#000000;stroke-width:0.6326;}
	.st8{fill:#9C4A00;stroke:#000000;stroke-width:0.3991;}
	.st9{fill:#9461C9;stroke:#000000;stroke-width:0.5749;}
	.st10{fill:#D41C30;stroke:#000000;}
	.st11{fill:#006B3F;stroke:#000000;stroke-width:1.4635;}
	.st12{fill:#006B3F;stroke:#000000;stroke-width:1.5462;}
	.st13{fill:#006B3F;stroke:#000000;stroke-width:1.56;}
	.st14{fill:#006B3F;stroke:#000000;stroke-width:1.5623;}
	.st15{fill:#006B3F;stroke:#000000;stroke-width:2.5449;}
	.st16{fill:#006B3F;stroke:#000000;stroke-width:0.5749;}
	.st17{fill:#006B3F;stroke:#000000;stroke-width:1.3887;}
	.st18{fill:#006B3F;stroke:#000000;stroke-width:1.6398;}
	.st19{fill:#006B3F;stroke:#000000;stroke-width:2.0966;}
	.st20{fill:#9461C9;stroke:#000000;stroke-width:0.5905;}
	.st21{fill:#9461C9;stroke:#000000;stroke-width:0.6276;}
	.st22{fill:#D41C30;stroke:#000000;stroke-width:2.5;}
	.st23{fill:#FCD116;stroke:#000000;stroke-width:2.5;}
	.st24{fill:#FCD116;stroke:#000000;stroke-width:0.7318;}
</style>
<title>Flag of Dominica</title>
<rect class="st0" width="1200" height="600"/>
<rect x="525" class="st1" width="75" height="600"/>
<rect y="225" class="st1" width="1200" height="75"/>
<rect x="600" class="st2" width="75" height="600"/>
<rect y="300" class="st2" width="1200" height="75"/>
<rect x="575" width="50" height="600"/>
<rect y="275" width="1200" height="50"/>
<g>
	<circle class="st3" cx="0" cy="0" r="150"/>
	<g id="star2">
		<path id="star" class="st4" d="M-4.8-118.4L0-132.1l4.4,13.5l14.7,0.2l-11.6,8.8l5.2,15.1L0-103.8L-12.5-95l4.8-14.6l-11.4-8.6
			C-19-118.2-4.8-118.4-4.8-118.4z"/>
		<g transform="rotate(180)">
			<path id="star_1_" class="st4" d="M4.8,118.4L0,132.1l-4.4-13.5l-14.7-0.2l11.6-8.8l-5.2-15.1L0,103.8L12.5,95l-4.8,14.6
				l11.4,8.6C19,118.2,4.8,118.4,4.8,118.4z"/>
		</g>
	</g>
	<g>
		<g id="star2_1_">
			<path id="star_2_" class="st4" d="M65.7-98.6l12-8.3l-4.4,13.5L85-84.6l-14.6,0.3L65.8-69L61-84l-15.3-0.2l12.5-9l-4.1-13.7
				C54.1-106.8,65.7-98.6,65.7-98.6z"/>
			<g transform="rotate(36)">
				<path id="star_3_" class="st4" d="M-65.7,98.6l-12,8.3l4.4-13.5L-85,84.6l14.6-0.3l4.6-15.3l4.8,15l15.3,0.2l-12.5,9l4.1,13.7
					C-54.1,106.8-65.7,98.6-65.7,98.6z"/>
			</g>
		</g>
		<g>
			<g id="star2_2_">
				<path id="star_4_" class="st4" d="M111.1-41.2l14.5,0.3l-11.5,8.3l4.3,14l-12-8.3l-12.7,9.6l4.9-14.9l-12.3-9.1l15.4,0.1
					l4.7-13.5C106.5-54.6,111.1-41.2,111.1-41.2z"/>
				<g transform="rotate(72)">
					<path id="star_5_" class="st4" d="M-111.1,41.2l-14.5-0.3l11.5-8.3l-4.3-14l12,8.3l12.7-9.6l-4.9,14.9l12.3,9.1l-15.4-0.1
						l-4.7,13.5C-106.5,54.6-111.1,41.2-111.1,41.2z"/>
				</g>
			</g>
			<g>
				<g id="star2_3_">
					<path id="star_6_" class="st4" d="M114.1,32l11.6,8.8l-14.2,0l-4.7,13.9l-4.8-13.8L86,41.3l12.8-9.2l-4.6-14.6l12.4,9.1
						l11.7-8.1C118.3,18.4,114.1,32,114.1,32z"/>
					<g transform="rotate(108)">
						<path id="star_7_" class="st4" d="M-114.1-32l-11.6-8.8l14.2,0l4.7-13.9l4.8,13.8l15.9-0.3l-12.8,9.2l4.6,14.6l-12.4-9.1
							l-11.7,8.1C-118.3-18.4-114.1-32-114.1-32z"/>
					</g>
				</g>
				<g transform="translate(600,300)">
					<g id="star2_4_">
						<path id="star_8_" class="st4" d="M73.5,93l4.2,13.9l-11.5-8.4l-12,8.4l4.2-14l-13.1-9.1L61,84l4.9-14.5l4.7,14.6l14.3,0.3
							C84.9,84.4,73.5,93,73.5,93z"/>
						<g transform="rotate(144)">
							<path id="star_9_" class="st4" d="M-73.5-93l-4.2-13.9l11.5,8.4l12-8.4l-4.2,14l13.1,9.1L-61-84l-4.9,14.5l-4.7-14.6
								l-14.3-0.3C-84.9-84.4-73.5-93-73.5-93z"/>
						</g>
					</g>
					<g>
						<path class="st5" d="M17.4-4.4c4.9-0.5,10.3,18.8,12.1,43.2c1.7,24.3-0.8,44.5-5.8,45C18.8,84.3,13.4,65,11.6,40.6
							S12.5-3.9,17.4-4.4z"/>
						<path class="st5" d="M26.2-4.5C31.4-5,37,14.3,38.8,38.6s-1.1,44.5-6.3,45.1S21.7,64.9,19.9,40.6C18.2,16.2,21-4,26.2-4.5z"/>
						<path class="st5" d="M21.8-6.8c4.2-0.4,9.1,21,10.9,47.9c1.9,26.9,0,49.1-4.1,49.5s-9.1-21-10.9-47.9S17.6-6.4,21.8-6.8z"/>
						<path class="st6" d="M-44.2,62.6c7.7-0.3,4.3-4.4,8.2-6.6c3.9-2.2,9.4-0.7,11,2c1.7,2.7,0.3,5.4,2.5,5.4
							c2.1,0,59.9-2.4,62-0.1c2.1,2.3,2.4,6.8,0.3,8.5c-2.2,1.8-75.2,2.6-77.8,0.7C-40.5,70.7-44.2,63-44.2,62.6z"/>
						<path class="st7" d="M-3.4,68.2c-0.1,5.8,8.4,4.1,8.5,9c-0.3,5.1-14.3,0.3-14.5-9c0.6-9.3,14.4-14,14.5-8.6
							C5.3,63.9-3.2,62.4-3.4,68.2z"/>
						<path class="st7" d="M1.7,68.3c-0.1,5.8,8.4,4.1,8.5,9c-0.3,5.1-14.3,0.3-14.5-9c0.6-9.3,14.4-14,14.5-8.6
							C10.4,64,1.8,62.5,1.7,68.3z"/>
						<path class="st7" d="M7.1,68.1c-0.1,5.8,8.4,4.1,8.5,9c-0.3,5.1-14.3,0.3-14.5-9c0.6-9.3,14.4-14,14.5-8.6
							C15.8,63.8,7.2,62.3,7.1,68.1z"/>
						<path class="st7" d="M12.1,68.1c-0.1,5.8,8.4,4.1,8.5,9c-0.3,5.1-14.3,0.3-14.5-9c0.6-9.3,14.4-14,14.5-8.6
							C20.8,63.9,12.3,62.3,12.1,68.1z"/>
						<path class="st8" d="M36.3,62.4c2.7,0,4.8,2.3,4.8,5c-0.1,2.7-2.3,4.9-5,4.9c-2.7,0-4.8-2.3-4.8-5S33.6,62.4,36.3,62.4z"/>
						<path class="st5" d="M5.8,41.3c2.4-0.4,4.8,3.6,5.3,8.9S10.3,60,7.9,60.4s-4.8-3.6-5.3-8.9S3.5,41.6,5.8,41.3z"/>
						<path class="st5" d="M-1.5,40.7c2.4-0.4,4.8,3.6,5.3,8.9s-0.9,9.8-3.3,10.2s-4.8-3.6-5.3-8.9S-3.9,41.1-1.5,40.7z"/>
						<path class="st5" d="M-6.8,31.3c2.4-0.4,4.8,3.6,5.3,8.9S-2.4,50-4.7,50.4s-4.8-3.6-5.3-8.9C-10.6,36.2-9.2,31.6-6.8,31.3z"/>
						<path class="st5" d="M0.6,29.9c2.3-0.4,4.7,4.1,5.3,9.9s-0.7,10.8-3,11.2s-4.7-4.1-5.3-9.9S-1.7,30.2,0.6,29.9z"/>
						<path class="st5" d="M10.9,30.6c2.3-0.4,4.6,3.8,5.2,9.2S15.3,50,13,50.4s-4.6-3.8-5.2-9.2C7.2,35.7,8.6,31,10.9,30.6z"/>
						<path class="st5" d="M5.3,27.2c2.3-0.4,4.6,3.8,5.2,9.2c0.6,5.5-0.8,10.2-3.1,10.5s-4.6-3.8-5.2-9.2S3,27.6,5.3,27.2z"/>
						<path class="st5" d="M-1.9,22.3c2.3-0.4,4.6,3.8,5.2,9.2S2.5,41.7,0.2,42.1s-4.6-3.8-5.2-9.2S-4.2,22.7-1.9,22.3z"/>
						<path class="st5" d="M-8.5,19.3c2.3-0.4,4.6,3.8,5.2,9.2s-0.8,10.2-3.1,10.5s-4.6-3.8-5.2-9.2C-12.1,24.4-10.8,19.7-8.5,19.3z
							"/>
						<path class="st9" d="M-14.7-52.7c0,0-14.7,12.7-13,47.1c1.8,34.6,32.4,50.9,32.4,50.9s7.8-9.8,6.9-37.6
							C9.3-33-5.1-50.9-5.1-50.9L-14.7-52.7z"/>
						<path class="st5" d="M19,42.4c2.4,0.1,4.1,4.4,3.7,9.7s-2.7,9.5-5.1,9.4s-4.1-4.4-3.7-9.7S16.6,42.3,19,42.4z"/>
						<path class="st5" d="M11.8,40.5c2.4,0.1,4.1,4.4,3.7,9.7s-2.7,9.5-5.1,9.4s-4.1-4.4-3.7-9.7S9.4,40.4,11.8,40.5z"/>
						<path class="st5" d="M8.3,30.3c2.4,0.1,4.1,4.4,3.7,9.7s-2.7,9.5-5.1,9.4S2.9,45,3.3,39.7S5.9,30.2,8.3,30.3z"/>
						<path class="st5" d="M15.8,30.2c2.3,0.1,3.9,4.8,3.4,10.6c-0.4,5.8-2.7,10.5-5,10.5c-2.3-0.1-3.9-4.8-3.4-10.6
							S13.5,30.2,15.8,30.2z"/>
						<path class="st5" d="M25.9,32.8c2.3,0.1,3.9,4.5,3.5,10c-0.4,5.5-2.6,9.8-4.9,9.8c-2.3-0.1-3.9-4.5-3.5-10
							C21.3,37.1,23.6,32.7,25.9,32.8z"/>
						<path class="st5" d="M20.9,28.4c2.3,0.1,3.9,4.5,3.5,10c-0.4,5.5-2.6,9.8-4.9,9.8c-2.3-0.1-3.9-4.5-3.5-10
							S18.6,28.4,20.9,28.4z"/>
						<path class="st5" d="M14.8,22.3c2.3,0.1,3.9,4.5,3.5,10c-0.4,5.5-2.6,9.8-4.9,9.8c-2.3-0.1-3.9-4.5-3.5-10
							S12.5,22.3,14.8,22.3z"/>
						<path class="st5" d="M8.8,18.2c2.3,0.1,3.9,4.5,3.5,10S9.7,38.1,7.4,38C5,38,3.5,33.5,3.9,28S6.5,18.2,8.8,18.2z"/>
						<path class="st10" d="M1.4-28.4C7.8-30.9,19.6-17.3,27.9,2s9.8,36.9,3.4,39.3S13.1,30.2,4.8,10.9S-5-26,1.4-28.4z"/>
						
							<ellipse transform="matrix(1.780210e-02 -0.9998 0.9998 1.780210e-02 35.9167 -21.8544)" class="st11" cx="6.8" cy="-29.2" rx="4.8" ry="5.4"/>
						
							<ellipse transform="matrix(1.780210e-02 -0.9998 0.9998 1.780210e-02 46.6291 -24.4132)" class="st12" cx="10.9" cy="-35.9" rx="4.8" ry="4.8"/>
						
							<ellipse transform="matrix(1.780210e-02 -0.9998 0.9998 1.780210e-02 40.3445 -31.0428)" class="st12" cx="4.4" cy="-36.1" rx="4.8" ry="4.8"/>
						
							<ellipse transform="matrix(1.780210e-02 -0.9998 0.9998 1.780210e-02 46.6864 -34.4505)" class="st13" cx="5.8" cy="-41" rx="4.5" ry="5.1"/>
						
							<ellipse transform="matrix(1.780210e-02 -0.9998 0.9998 1.780210e-02 51.7697 -40.5714)" class="st13" cx="5.2" cy="-46.6" rx="4.5" ry="5.1"/>
						
							<ellipse transform="matrix(1.780210e-02 -0.9998 0.9998 1.780210e-02 38.0331 -41.0047)" class="st12" cx="-1.9" cy="-39.9" rx="4.8" ry="4.8"/>
						
							<ellipse transform="matrix(1.780210e-02 -0.9998 0.9998 1.780210e-02 45.5611 -45.5369)" class="st14" cx="-0.4" cy="-46" rx="4.7" ry="4.8"/>
						
							<ellipse transform="matrix(1.780210e-02 -0.9998 0.9998 1.780210e-02 37.5711 -53.3713)" class="st11" cx="-8.4" cy="-45.8" rx="4.8" ry="5.4"/>
						
							<ellipse transform="matrix(1.780210e-02 -0.9998 0.9998 1.780210e-02 55.2031 -51.2049)" class="st13" cx="1.5" cy="-53.7" rx="4.5" ry="5.1"/>
						
							<ellipse transform="matrix(1.780210e-02 -0.9998 0.9998 1.780210e-02 47.7133 -57.1258)" class="st14" cx="-5.2" cy="-52.8" rx="4.7" ry="4.8"/>
						
							<ellipse transform="matrix(1.780210e-02 -0.9998 0.9998 1.780210e-02 30.3497 -60.1973)" class="st12" cx="-15.5" cy="-45.5" rx="4.8" ry="4.8"/>
						
							<ellipse transform="matrix(1.780210e-02 -0.9998 0.9998 1.780210e-02 35.5511 -62.0072)" class="st14" cx="-13.8" cy="-49.1" rx="4.7" ry="4.8"/>
						
							<ellipse transform="matrix(1.780210e-02 -0.9998 0.9998 1.780210e-02 41.4885 -63.8119)" class="st14" cx="-11.7" cy="-53" rx="4.7" ry="4.8"/>
						<path class="st15" d="M2.1-41c8.2-2.9,22.8,13.4,32.6,36.3S46,39.2,37.8,42.1C29.6,45,15,28.7,5.2,5.8S-6.1-38.1,2.1-41z"/>
						<path class="st5" d="M29-0.8c1.5-0.7,4.5,2.6,6.6,7.3c2.1,4.8,2.6,9.2,1.1,10c-1.5,0.7-4.5-2.6-6.6-7.3S27.5-0.1,29-0.8z"/>
						<path class="st16" d="M31.5,7.8c12.8,15.6,11.2,25.5,9.9,33.9c-4-9.7-6.2-15.7-19-31.3S15.9-16.2,16.7-22
							C18.7-17,18.6-7.8,31.5,7.8z"/>
						<path class="st16" d="M32.6,20.4C45.4,36,43.8,45.9,42.5,54.3c-4-9.7-6.2-15.7-19-31.3S17-3.6,17.9-9.4
							C19.8-4.4,19.8,4.8,32.6,20.4z"/>
						<path class="st16" d="M33,30.5c13.1,15.3,11.7,25.3,10.5,33.7c-4.2-9.6-6.5-15.6-19.7-30.9S16.9,6.9,17.7,1.1
							C19.7,6,19.9,15.2,33,30.5z"/>
						<path class="st17" d="M17.1-22.3c3-0.8,8.5,5.5,12.2,14s4.4,16,1.4,16.8c-3,0.8-8.5-5.5-12.2-14S14.1-21.5,17.1-22.3z"/>
						<path class="st18" d="M13.5-11c2.7-0.5,7.3,4.9,10.2,11.9s3.1,13.1,0.4,13.6C21.4,15,16.9,9.6,13.9,2.6S10.8-10.5,13.5-11z"/>
						<path class="st18" d="M7.7-5.2c2.7-0.4,7.2,5,9.9,12.1s2.8,13.2,0.1,13.6s-7.2-5-9.9-12.1S5-4.8,7.7-5.2z"/>
						<path class="st19" d="M13.2-23.2c2.2-0.4,6,3.5,8.5,8.8s2.8,9.8,0.6,10.2c-2.2,0.4-6-3.5-8.5-8.8S11-22.8,13.2-23.2z"/>
						<path class="st19" d="M8.7-19.5c2.2-0.3,5.8,3.9,7.9,9.2s2.2,10,0,10.2s-5.8-3.9-7.9-9.2S6.5-19.2,8.7-19.5z"/>
						<path class="st16" d="M8.6-15.8C12.4-6.5,13.9,1.8,12,2.8c-1.9,1-6.5-5.7-10.3-15"/>
						<path class="st19" d="M8-30.3c2.2-0.3,5.8,3.9,7.9,9.2s2.2,10,0,10.2c-2.2,0.3-5.8-3.9-7.9-9.2S5.8-30.1,8-30.3z"/>
						<path class="st19" d="M1.9-27.4c2.2-0.2,5.7,4,7.7,9.4S11.6-8,9.4-7.7c-2.2,0.2-5.7-4-7.7-9.4S-0.3-27.1,1.9-27.4z"/>
						<path class="st16" d="M2-28.3c3.7,6.3,5.7,12.1,4.4,13c-1.2,0.9-5.2-3.4-8.9-9.6"/>
						<path class="st16" d="M4.6-32.5c3.7,6.3,5.7,12.1,4.4,13c-1.2,0.9-5.2-3.4-8.9-9.6"/>
						<path class="st16" d="M16-31.6c5.1,8.5,7.9,16.5,6.2,17.8c-1.7,1.3-7.3-4.6-12.4-13.1"/>
						<path class="st16" d="M8.5-36.1c3.7,6.9,5.7,13.3,4.4,14.4c-1.2,1-5.2-3.7-8.9-10.6"/>
						<path class="st20" d="M8.1-46.1c-2.5,2.5-0.1,7.1,2.2,8.8C12.9-35,27.1-20,37.1-32.6C29.1-32.8,14.1-51.6,8.1-46.1z"/>
						<path class="st20" d="M6.4-53.5c-2.5,2.5-0.1,7.1,2.2,8.8c2.5,2.3,16.7,17.3,26.8,4.7C27.3-40.2,12.3-59,6.4-53.5z"/>
						<path class="st20" d="M4.1-60.6c-2.5,2.5-0.1,7.1,2.2,8.8c2.5,2.3,16.7,17.3,26.8,4.7C25.1-47.2,10.1-66.1,4.1-60.6z"/>
						<path class="st20" d="M-0.8-68.7c-2.5,2.5-0.1,7.1,2.2,8.8c2.5,2.3,16.7,17.3,26.8,4.7C20.2-55.4,5.2-74.2-0.8-68.7z"/>
						<path class="st21" d="M-18.3-76.4c5.1-3.8,14.4-4.9,21.7-1.2c6.1,3,16.1,15.1,23.7,17.9c-5.3,1-8.6,0.1-12-1.5
							c-6.7,4.9-9.1,5.6-16,6.6c-9.6,1.4-17.5-1.1-20.3-6.1C-24-65.4-22.7-72.9-18.3-76.4z"/>
						
							<ellipse transform="matrix(1.780209e-02 -0.9998 0.9998 1.780209e-02 61.5349 -75.1796)" class="st22" cx="-7.5" cy="-68.9" rx="2.5" ry="4.4"/>
						
							<ellipse transform="matrix(0.9376 -0.3478 0.3478 0.9376 19.0923 -10.9077)" class="st23" cx="-20.8" cy="-58.6" rx="6.1" ry="3.7"/>
						
							<ellipse transform="matrix(1.780209e-02 -0.9998 0.9998 1.780209e-02 61.4868 -75.5669)" cx="-7.7" cy="-69.1" rx="1.4" ry="1.6"/>
						<path class="st24" d="M-17.1-65.5c0.4,1.9-1,4.6-4.2,5.5c-3.2,1.3-5.6,4.3-7,9.2c-4.9-11.2-1.8-15.9,3.4-17.1
							C-20.5-69.3-17.8-69.1-17.1-65.5z"/>
						
							<ellipse transform="matrix(0.9985 -5.511078e-02 5.511078e-02 0.9985 3.5306 -1.3005)" cx="-21.8" cy="-64.7" rx="1.1" ry="1.1"/>
					</g>
				</g>
			</g>
		</g>
	</g>
</g>
</svg>
