<?xml version="1.0" encoding="utf-8"?>
<!-- Generator: Adobe Illustrator 21.0.0, SVG Export Plug-In . SVG Version: 6.00 Build 0)  -->
<svg version="1.1" id="Layer_1" xmlns="http://www.w3.org/2000/svg" xmlns:xlink="http://www.w3.org/1999/xlink" x="0px" y="0px"
	 viewBox="0 0 500 300" style="enable-background:new 0 0 500 300;" xml:space="preserve">
<style type="text/css">
	.st0{fill:#D21034;}
	.st1{fill:#00209F;}
	.st2{fill:#FFFFFF;}
	.st3{fill:#016A16;stroke:#016A16;stroke-width:0.1826;}
	.st4{fill:#F1B517;stroke:#000000;stroke-width:0.1826;}
	.st5{fill:#FFFFFF;stroke:#000000;stroke-width:0.1826;}
	.st6{fill:#0A328C;stroke:#000000;stroke-width:0.1826;}
	.st7{fill:#D20014;stroke:#000000;stroke-width:0.1826;}
	.st8{fill:#0A328C;stroke:#0A328C;stroke-width:0.1826;}
	.st9{fill:#D20014;stroke:#D20014;stroke-width:0.1826;}
	.st10{fill:#016A16;stroke:#000000;stroke-width:0.1826;}
	.st11{fill:#016A16;stroke:#FFFFFF;stroke-width:0.2373;stroke-linecap:round;}
	.st12{fill:#016A16;stroke:#FFFFFF;stroke-width:0.1811;stroke-linecap:round;}
	.st13{fill:#016A16;stroke:#F1B517;stroke-width:0.1826;}
	.st14{fill:#503200;stroke:#000000;stroke-width:0.1826;}
	.st15{fill:#F1B517;stroke:#000000;stroke-width:0.1826;stroke-linecap:round;}
	.st16{fill:#0A328C;stroke:#0A328C;stroke-width:0.231;}
	.st17{fill:#F1B517;stroke:#000000;stroke-width:0.1869;}
	.st18{fill:#0A328C;stroke:#0A328C;stroke-width:0.1869;}
	.st19{fill:none;stroke:#000000;stroke-width:0.1869;}
	.st20{fill:#FFFFFF;stroke:#FFFFFF;stroke-width:0.1916;}
	.st21{fill:#F1B517;stroke:#000000;stroke-width:0.231;}
	.st22{fill:#D20014;stroke:#F1B517;stroke-width:0.1826;}
</style>
<title>Flag of Haiti</title>
<rect class="st0" width="500" height="300"/>
<rect class="st1" width="500" height="150"/>
<g id="coa">
	<rect x="202.7" y="112.3" class="st2" width="94.6" height="75.3"/>
	<path class="st3" d="M269,166.8l-19.3,0.6l-19.2,0.2c0,0-9.9,3.7-13.9,4.5c-4,0.8-3.5,2.1-6.6,2.8c-2.5,0.6-2.8,0.7-4.2,0.8
		c-0.9,0.1-2,0.7-3,1.5v10.4h94.6v-9.9c-1-0.6-2-0.9-3-1.3c-1.4-0.5-2.3-1-4.8-1.5c-3.1-0.7-2.6-2-6.6-2.8
		C278.8,171.2,269,166.8,269,166.8L269,166.8z"/>
	<g id="flags">
		<g id="flags_half">
			<g>
				<path class="st4" d="M244.5,143.5l1.4,0l2.6,10.7l-0.5,3.4L244.5,143.5L244.5,143.5z"/>
				<path class="st5" d="M243.1,136.3l1,8.3l1-0.1L243.1,136.3L243.1,136.3z"/>
				<path class="st4" d="M245.7,154.6l-4.3-11.5l1.6-0.1l5,14.1L245.7,154.6L245.7,154.6z"/>
				<path class="st5" d="M239.4,136.5l1.8,8h1.4L239.4,136.5z"/>
				<path class="st4" d="M241.9,150.5l-2.5-5.4l1.1-0.2l4.6,9L241.9,150.5L241.9,150.5z"/>
				<path class="st5" d="M236.1,138.8l2.8,7.6h1.4L236.1,138.8z"/>
			</g>
			<g>
				<path class="st6" d="M242.2,151.4l-11.4-12.5c-3.6,2.8-2.9,8-2.9,8l13,10.2L242.2,151.4L242.2,151.4z"/>
				<path class="st7" d="M248.9,158.2l-8.5-8.6c-3.6,0.1-0.7,5.5-0.6,6.2l9,7.7L248.9,158.2L248.9,158.2z"/>
				<path class="st4" d="M248.1,156.8L230.6,138l-0.7,0.5l18.6,20.6L248.1,156.8L248.1,156.8z"/>
				<path class="st4" d="M229.6,136.8l-0.4-0.4l0-0.9l-3.6-2.3l1.6,3.6l1.2,0.2l0.4,0.4L229.6,136.8z"/>
				<path class="st4" d="M227.7,138.1c0.6-0.7,1.3-1.5,2.7-2.2l1,1.4l-2.2,1.8L227.7,138.1z"/>
				<path class="st8" d="M225.8,141.3l0.6,1c0.4-0.1,4-3.5,4-3.5l2.6-0.1l0.8-0.8c-1.9-2.1-3.8,0.3-3.8,0.3L225.8,141.3L225.8,141.3
					z"/>
				<path class="st9" d="M227.9,143c0.1-0.9,1.9-3.2,2.1-3.3c1.3,0.4,2.5,1.1,3.8-1.8c-1.1,1.5-3.5,0-3.5,0l-1,0.8l0,0.4l-3.1,2.8
					L227.9,143L227.9,143z"/>
			</g>
			<g>
				<path class="st6" d="M237.3,154.7l-14.4-11.4c-2.5,2.5-0.4,10.2-0.4,10.2l14,7.6L237.3,154.7L237.3,154.7z"/>
				<path class="st7" d="M249.2,163.9l-11.8-9.5c-4,0.6-0.9,6.5-0.6,7.2l12.5,6.8L249.2,163.9L249.2,163.9z"/>
				<path class="st4" d="M248.7,162l-25.6-19.2l-0.6,0.6l26.8,21L248.7,162L248.7,162z"/>
				<path class="st4" d="M221.9,141.8l-0.5-0.4l-0.1-0.9l-4-1.7l2.2,3.3l1.3,0l0.5,0.4L221.9,141.8L221.9,141.8z"/>
				<path class="st4" d="M220.3,143.4c0.5-0.8,1.1-1.7,2.2-2.6l1.2,1.3l-1.8,2.2L220.3,143.4L220.3,143.4z"/>
				<path class="st8" d="M218.9,146.6l0.2,1.1c0.3-0.2,3.6-3.7,3.6-3.7l2.6-0.5l0.5-0.8c-1.8-2.1-3.7,0.7-3.7,0.7L218.9,146.6
					L218.9,146.6z"/>
				<path class="st9" d="M221,148.5c-0.1-1,1.2-3.9,1.5-4c1.5,0.5,2.9,1.2,3.5-2.1c-0.9,1.6-3.5,0.4-3.5,0.4l-0.9,1l0.1,0.5
					l-2.6,3.4L221,148.5L221,148.5z"/>
			</g>
			<g>
				<path class="st6" d="M236.2,161.7c-0.2,0-18.5-10.4-18.5-10.4c-1.3,2.3-0.1,5.5,0.5,6c0,1.5-0.6,2.3,0.7,5.4
					c0.4,2,1.3,3.9,2.7,5c1.7,6.4,8.2,6.8,10.7,1.6L236.2,161.7L236.2,161.7z"/>
				<path class="st7" d="M248.4,168.5l-12.5-7.4c-4,0.6,0.1,8.1,0.3,8.7l12.1,4.3L248.4,168.5L248.4,168.5z"/>
				<path class="st4" d="M246.2,165.8l-28.3-15.1l-0.5,0.7l29.9,16.6L246.2,165.8L246.2,165.8z"/>
				<path class="st4" d="M216.5,149.9l-0.5-0.3l-0.3-0.9l-4.2-1l2.8,2.9l1.2-0.2l0.5,0.3L216.5,149.9L216.5,149.9z"/>
				<path class="st4" d="M215.2,151.8c0.3-0.9,0.8-1.8,1.8-2.9l1.4,1.1l-1.4,2.4L215.2,151.8L215.2,151.8z"/>
				<path class="st8" d="M214.1,155.2l0.6,1.2c0.3-0.2,3-4.6,3-4.6l2.5-0.8l0.5-1c-2-1.8-3.5,1.3-3.5,1.3L214.1,155.2L214.1,155.2z"
					/>
				<path class="st9" d="M216.8,156.8c-0.2-1,0.5-4.2,0.7-4.3c1.6,0.5,2.9,0.6,3.2-2.6c-0.9,1.5-3.3,1-3.3,1l-0.7,1.1l0.1,0.4
					l-2.1,4L216.8,156.8L216.8,156.8z"/>
			</g>
		</g>
		<g transform="matrix(-1,0,0,1,499.85852,0)">
			<g id="flags_half_1_">
				<g>
					<path class="st4" d="M255.3,143.5l-1.4,0l-2.6,10.7l0.5,3.4L255.3,143.5L255.3,143.5z"/>
					<path class="st5" d="M256.8,136.3l-1,8.3l-1-0.1L256.8,136.3L256.8,136.3z"/>
					<path class="st4" d="M254.1,154.6l4.3-11.5l-1.6-0.1l-5,14.1L254.1,154.6L254.1,154.6z"/>
					<path class="st5" d="M260.4,136.5l-1.8,8h-1.4L260.4,136.5z"/>
					<path class="st4" d="M258,150.5l2.5-5.4l-1.1-0.2l-4.6,9L258,150.5L258,150.5z"/>
					<path class="st5" d="M263.8,138.8l-2.8,7.6h-1.4L263.8,138.8z"/>
				</g>
				<g>
					<path class="st6" d="M257.6,151.4l11.4-12.5c3.6,2.8,2.9,8,2.9,8l-13,10.2L257.6,151.4L257.6,151.4z"/>
					<path class="st7" d="M251,158.2l8.5-8.6c3.6,0.1,0.7,5.5,0.6,6.2l-9,7.7L251,158.2L251,158.2z"/>
					<path class="st4" d="M251.7,156.8l17.5-18.8l0.7,0.5l-18.6,20.6L251.7,156.8L251.7,156.8z"/>
					<path class="st4" d="M270.3,136.8l0.4-0.4l0-0.9l3.6-2.3l-1.6,3.6l-1.2,0.2l-0.4,0.4L270.3,136.8z"/>
					<path class="st4" d="M272.1,138.1c-0.6-0.7-1.3-1.5-2.7-2.2l-1,1.4l2.2,1.8L272.1,138.1z"/>
					<path class="st8" d="M274,141.3l-0.6,1c-0.4-0.1-4-3.5-4-3.5l-2.6-0.1l-0.8-0.8c1.9-2.1,3.8,0.3,3.8,0.3L274,141.3L274,141.3z"
						/>
					<path class="st9" d="M271.9,143c-0.1-0.9-1.9-3.2-2.1-3.3c-1.3,0.4-2.5,1.1-3.8-1.8c1.1,1.5,3.5,0,3.5,0l1,0.8l0,0.4l3.1,2.8
						L271.9,143L271.9,143z"/>
				</g>
				<g>
					<path class="st6" d="M262.6,154.7l14.4-11.4c2.5,2.5,0.4,10.2,0.4,10.2l-14,7.6L262.6,154.7L262.6,154.7z"/>
					<path class="st7" d="M250.7,163.9l11.8-9.5c4,0.6,0.9,6.5,0.6,7.2l-12.5,6.8L250.7,163.9L250.7,163.9z"/>
					<path class="st4" d="M251.2,162l25.6-19.2l0.6,0.6l-26.8,21L251.2,162L251.2,162z"/>
					<path class="st4" d="M277.9,141.8l0.5-0.4l0.1-0.9l4-1.7l-2.2,3.3l-1.3,0l-0.5,0.4L277.9,141.8L277.9,141.8z"/>
					<path class="st4" d="M279.5,143.4c-0.5-0.8-1.1-1.7-2.2-2.6l-1.2,1.3l1.8,2.2L279.5,143.4L279.5,143.4z"/>
					<path class="st8" d="M280.9,146.6l-0.2,1.1c-0.3-0.2-3.6-3.7-3.6-3.7l-2.6-0.5l-0.5-0.8c1.8-2.1,3.7,0.7,3.7,0.7L280.9,146.6
						L280.9,146.6z"/>
					<path class="st9" d="M278.9,148.5c0.1-1-1.2-3.9-1.5-4c-1.5,0.5-2.9,1.2-3.5-2.1c0.9,1.6,3.5,0.4,3.5,0.4l0.9,1l-0.1,0.5
						l2.6,3.4L278.9,148.5L278.9,148.5z"/>
				</g>
				<g>
					<path class="st6" d="M263.6,161.7c0.2,0,18.5-10.4,18.5-10.4c1.3,2.3,0.1,5.5-0.5,6c0,1.5,0.6,2.3-0.7,5.4
						c-0.4,2-1.3,3.9-2.7,5c-1.7,6.4-8.2,6.8-10.7,1.6L263.6,161.7L263.6,161.7z"/>
					<path class="st7" d="M251.5,168.5l12.5-7.4c4,0.6-0.1,8.1-0.3,8.7l-12.1,4.3L251.5,168.5L251.5,168.5z"/>
					<path class="st4" d="M253.6,165.8l28.3-15.1l0.5,0.7l-29.9,16.6L253.6,165.8L253.6,165.8z"/>
					<path class="st4" d="M283.3,149.9l0.5-0.3l0.3-0.9l4.2-1l-2.8,2.9l-1.2-0.2l-0.5,0.3L283.3,149.9L283.3,149.9z"/>
					<path class="st4" d="M284.6,151.8c-0.3-0.9-0.8-1.8-1.8-2.9l-1.4,1.1l1.4,2.4L284.6,151.8L284.6,151.8z"/>
					<path class="st8" d="M285.8,155.2l-0.6,1.2c-0.3-0.2-3-4.6-3-4.6l-2.5-0.8l-0.5-1c2-1.8,3.5,1.3,3.5,1.3L285.8,155.2
						L285.8,155.2z"/>
					<path class="st9" d="M283.1,156.8c0.2-1-0.5-4.2-0.7-4.3c-1.6,0.5-2.9,0.6-3.2-2.6c0.9,1.5,3.3,1,3.3,1l0.7,1.1l-0.1,0.4l2.1,4
						L283.1,156.8L283.1,156.8z"/>
				</g>
			</g>
		</g>
	</g>
	<g id="tree">
		<path class="st3" d="M248.8,125.6l-0.5,9.1h2.9l-0.4-9l3-0.4l-0.3-3.6l-7.5,0.3l0,3.3L248.8,125.6L248.8,125.6z"/>
		<g id="tree_half">
			<path class="st10" d="M249.8,121.9c-7.8-7.8-13.9-4-15.3-2.9c1,0.2,1.8-0.4,2.3-0.5c-0.3,0.4-0.9,1.2-0.9,1.2s2.4-1.1,2.7-1
				c-0.3,0.3-0.7,0.9-0.7,0.9c0.2,0.1,1.5-1.1,1.8-1.1c-0.4,0.5-0.5,1.5-0.5,1.5l1.2-0.5c0.3,0.2-0.1,0.6,0.2,0.6
				c1.9-0.2,4.7,1.8,5.1,2.4"/>
			<path class="st10" d="M247.9,123.3c-0.8-1.9-15.6-5-18.6,0.2c1.2,0.3,2.3-1,2.3-1l-0.1,1.2l2-1.5l-0.7,1.6l1.6-1.3l-0.1,1.3
				l1.9-2.1l-0.3,1.2l1.7-0.7l-0.2,1"/>
			<path class="st10" d="M247.2,123.6c-3.8-2.5-9.7-0.8-9.7-0.8c-3.7,2.1-5.7,1.7-6.2,5.6c0.4-0.1,1.4-1.4,1.4-1.4l0.8,1.5l0.3-2.1
				l0.6,1.7l0.9-2.7l0.2,1.9l1.4-1.9l0.7,0.5l0.6-1.4l0.6,0.9c0,0,1-0.6,1.5-0.2l1.1-1.2l0.3,0.9l0.9-1.1l0.4,0.8l0.9-0.8l-0.1,0.6
				l3.1,0"/>
			<path class="st10" d="M246.4,124.1c-2.6,0-10.2,2.8-12.2,5.8c0.8-0.4,1.3-0.6,1.3-0.6l0.4,1.2l0.5-1.2l0.1,0.9
				c0.3-0.7,0.6-0.8,1.2,0l0.2-1.1l0.3,1.1l0.5-1.2c0,0,0.3,1.3,0.5,1.2c0,0,0.8-2.2,1.2-2.3l0.1,1.4l0.5-1.4l0.5,1l0.1-1.5l0.5,1.1
				c0,0,0.3-1.1,0.7-1.3l0.8,0.7l3.4-2.4"/>
			<path class="st10" d="M246.9,124.7c-3.5,1.3-6.7,6.2-6.4,8.2c1.6-1.9,1.2-1.7,1.9,0.6c0,0,0.3-2,0.5-2.2l0.5,1.4l0.2-1.9l0.5,0
				l-0.1-1.2l0.7,0.5c-0.2-0.7-0.3-0.9,0.4-1.5c0,0-0.9,0.1-0.2-1.5l0.7,0.7c0,0-0.1-0.7,0.1-1l2.5-0.9"/>
			<path class="st10" d="M247.2,125l-1.3,2.5l0.7,0.2l-1.5,1.2l1.3-0.1c0,0-2,0.7-2.2,2.7l2-0.9c0,0-1.7,1.7-1.9,2.8l1.2-1
				c0,0-1.1,1.2-1,3.1l0.9-1c-0.2,2.2-0.1,2.4,0.9,4.1c0,0-0.3-2.6,0-3l2.3,2.3l-1.3-3.3c0,0,1.4,2.1,2.3,1.9l-1.8-2.7l1.7,1.4l-2-3
				l1.8,0.6c0,0-1.3-1.7-1.2-2.7l1.3,1.4c0,0-0.5-1.6-0.3-2l0.6,0.1l-1.3-1.4l0.9-0.2l-0.1-1l0.6-0.2l0-1.1"/>
			<path class="st10" d="M248.6,125.8c-2.2,3-1.1,7.5-2.4,9.9"/>
		</g>
		<g transform="matrix(-1,0,0,1,499.85867,0)">
			<g id="tree_half_1_">
				<path class="st10" d="M250,121.9c7.8-7.8,13.9-4,15.3-2.9c-1,0.2-1.8-0.4-2.3-0.5c0.3,0.4,0.9,1.2,0.9,1.2s-2.4-1.1-2.7-1
					c0.3,0.3,0.7,0.9,0.7,0.9c-0.2,0.1-1.5-1.1-1.8-1.1c0.4,0.5,0.5,1.5,0.5,1.5l-1.2-0.5c-0.3,0.2,0.1,0.6-0.2,0.6
					c-1.9-0.2-4.7,1.8-5.1,2.4"/>
				<path class="st10" d="M252,123.3c0.8-1.9,15.6-5,18.6,0.2c-1.2,0.3-2.3-1-2.3-1l0.1,1.2l-2-1.5l0.7,1.6l-1.6-1.3l0.1,1.3
					l-1.9-2.1l0.3,1.2l-1.7-0.7l0.2,1"/>
				<path class="st10" d="M252.6,123.6c3.8-2.5,9.7-0.8,9.7-0.8c3.7,2.1,5.7,1.7,6.2,5.6c-0.4-0.1-1.4-1.4-1.4-1.4l-0.8,1.5
					l-0.3-2.1l-0.6,1.7l-0.9-2.7l-0.2,1.9l-1.4-1.9l-0.7,0.5l-0.6-1.4l-0.6,0.9c0,0-1-0.6-1.5-0.2l-1.1-1.2l-0.3,0.9l-0.9-1.1
					l-0.4,0.8l-0.9-0.8l0.1,0.6l-3.1,0"/>
				<path class="st10" d="M253.5,124.1c2.6,0,10.2,2.8,12.2,5.8c-0.8-0.4-1.3-0.6-1.3-0.6l-0.4,1.2l-0.5-1.2l-0.1,0.9
					c-0.3-0.7-0.6-0.8-1.2,0l-0.2-1.1l-0.3,1.1l-0.5-1.2c0,0-0.3,1.3-0.5,1.2c0,0-0.8-2.2-1.2-2.3l-0.1,1.4l-0.5-1.4l-0.5,1
					l-0.1-1.5l-0.5,1.1c0,0-0.3-1.1-0.7-1.3l-0.8,0.7l-3.4-2.4"/>
				<path class="st10" d="M253,124.7c3.5,1.3,6.7,6.2,6.4,8.2c-1.6-1.9-1.2-1.7-1.9,0.6c0,0-0.3-2-0.5-2.2l-0.5,1.4l-0.2-1.9l-0.5,0
					l0.1-1.2l-0.7,0.5c0.2-0.7,0.3-0.9-0.4-1.5c0,0,0.9,0.1,0.2-1.5l-0.7,0.7c0,0,0.1-0.7-0.1-1l-2.5-0.9"/>
				<path class="st10" d="M252.6,125l1.3,2.5l-0.7,0.2l1.5,1.2l-1.3-0.1c0,0,2,0.7,2.2,2.7l-2-0.9c0,0,1.7,1.7,1.9,2.8l-1.2-1
					c0,0,1.1,1.2,1,3.1l-0.9-1c0.2,2.2,0.1,2.4-0.9,4.1c0,0,0.3-2.6,0-3l-2.3,2.3l1.3-3.3c0,0-1.4,2.1-2.3,1.9l1.8-2.7l-1.7,1.4l2-3
					l-1.8,0.6c0,0,1.3-1.7,1.2-2.7l-1.3,1.4c0,0,0.5-1.6,0.3-2l-0.6,0.1l1.3-1.4l-0.9-0.2l0.1-1l-0.6-0.2l0-1.1"/>
				<path class="st10" d="M251.3,125.8c2.2,3,1.1,7.5,2.4,9.9"/>
			</g>
		</g>
		<g id="trunk">
			<path class="st4" d="M250.9,166.5c0,0,1.2-9.9,1.2-14.2c0-3.4-0.8-10.8-0.8-10.8h-3.4c0,0-0.5,7.4-0.4,10.8
				c0.1,4.3,1.2,14.3,1.2,14.3L250.9,166.5L250.9,166.5z"/>
			<path class="st4" d="M247.7,142h4l-0.5-2.7h-2.9L247.7,142z"/>
			<path class="st4" d="M247.9,139.8h3.5l-0.7-2.7h-2.2L247.9,139.8z"/>
			<path class="st4" d="M248.2,137.7h2.9l-0.5-2.7h-1.9L248.2,137.7z"/>
			<path class="st4" d="M250.7,134.7h-2.1l-0.2,1h2.4L250.7,134.7z"/>
			<path class="st4" d="M251.1,164.4h-2.6"/>
			<path class="st4" d="M251.3,162.4h-2.9"/>
			<path class="st4" d="M251.7,160.4h-3.7"/>
			<path class="st4" d="M251.9,158.3H248"/>
			<path class="st4" d="M251.9,156.1h-4.1"/>
			<path class="st4" d="M252,154.2h-4.4"/>
			<path class="st4" d="M252.1,152.4h-4.7"/>
			<path class="st4" d="M252,150.2h-4.7"/>
			<path class="st4" d="M251.9,148.1h-4.5"/>
			<path class="st4" d="M251.7,145.9h-4.1"/>
			<path class="st4" d="M251.5,144h-3.7"/>
		</g>
		<g id="cap">
			<path class="st8" d="M249.9,119c-0.7-0.3-2.2-1.3-1.8-1.9l0.7-1.2c1-2.3,0-1.4-0.1-2.1c-0.1-0.7,3.9-0.1,3.9,1.4
				c0,0.4-0.3,0.2-0.3,2.6l-0.8,1.5C251.1,119.3,250.4,119.3,249.9,119z"/>
			<path class="st4" d="M250.4,124.9l-1-0.8l0.3-7.1l1,0.3C250.6,117.3,250.4,124.9,250.4,124.9z"/>
			<path class="st9" d="M251.7,119.2c0.6-0.4,1-1.4,0.7-2.1c-1-1.3-1.7-0.8-3.4-1.3c-0.3,0.4-1.1,1.1-0.9,1.6
				c2.2,1.1,1.4,0.2,2.1,0.3C250.6,117.8,250.8,118.2,251.7,119.2z"/>
		</g>
	</g>
	<g id="items">
		<g id="i1">
			<g transform="matrix(1,0,0,-1,-0.00226132,320.36968)">
				<path id="ip" class="st11" d="M238.5,160.3c-0.3-0.5-1.1-0.9-2-0.9c-0.9,0-1.7,0.4-2,0.9c-0.1-0.1-0.1-0.2-0.1-0.4
					c0-0.7,0.9-1.2,2.1-1.2s2.1,0.5,2.1,1.2C238.6,160,238.6,160.1,238.5,160.3L238.5,160.3z"/>
			</g>
			<path class="st12" d="M238.4,161.8c0,1.3-0.8,2.4-1.8,2.4s-1.8-1.1-1.8-2.4v-1.3h3.6V161.8z"/>
			<ellipse class="st2" cx="236.5" cy="160.1" rx="1.8" ry="0.9"/>
			<path class="st13" d="M236.1,161.1l-0.3-3.3h1.4l-0.2,3.3H236.1L236.1,161.1z"/>
			<path id="ip_1_" class="st11" d="M238.5,160.1c-0.3,0.5-1.1,0.9-2,0.9c-0.9,0-1.7-0.4-2-0.9c-0.1,0.1-0.1,0.2-0.1,0.4
				c0,0.7,0.9,1.2,2.1,1.2s2.1-0.5,2.1-1.2C238.6,160.4,238.6,160.2,238.5,160.1L238.5,160.1z"/>
		</g>
		<g id="items_half">
			<path id="cannon_base" class="st4" d="M246,172.8l-7.1-2.2l-3.1-5.3l-10.9-0.5l0.4,3.9l9.3,1.8l0.9,1.6l10.7,3L246,172.8
				L246,172.8z"/>
			<g id="i2">
				<path class="st14" d="M238.7,174.3l-11.1-16.4l-0.5,0.4l11.1,16.5L238.7,174.3L238.7,174.3z"/>
				<path class="st5" d="M228.6,158.5l-1.2-2c-0.2-0.4-0.6-0.5-1.1-0.2c-0.5,0.3-0.4,0.8-0.2,1.1l1.1,1.9L228.6,158.5L228.6,158.5z"
					/>
			</g>
			<g id="cannon">
				<path class="st4" d="M240,164.1l-22.5-2.3l-0.5,3.3l22.4,2.3L240,164.1L240,164.1z"/>
				<path class="st4" d="M217.1,161l-0.6,4.5h0.9l0.7-4.2L217.1,161z"/>
				<path class="st4" d="M220.8,161.7l-0.3,4.1l0.6,0.1l0.5-3.6L220.8,161.7L220.8,161.7z"/>
				<path class="st4" d="M236.1,163.5l-0.5,3.8l1.1,0l0.4-3.8L236.1,163.5L236.1,163.5z"/>
				<path class="st4" d="M239.4,163.6l-0.8,4.4l1.2,0.2l0.4-2.3c0.1,0.5,0.5,0.8,1,0.8c0.6,0,1.1-0.5,1.1-1s-0.5-1-1.1-1
					c-0.4,0-0.8,0.2-0.9,0.7l0.2-1.7L239.4,163.6L239.4,163.6z"/>
				<path class="st4" d="M231.3,164.3l-3.1,3.5l0.4,0.4l4-2.7L231.3,164.3z"/>
				<path class="st4" d="M224.1,173l3.1-3.5l-0.4-0.4l-4,2.7L224.1,173z"/>
				<path class="st4" d="M232.2,172.1l-3.8-2.9l-0.4,0.3l3,3.8L232.2,172.1z"/>
				<path class="st4" d="M222.9,165.4l3.8,2.8l0.5-0.3l-3-3.8L222.9,165.4z"/>
				<path class="st4" d="M227.1,163.1l0.4,4.6l0.5,0l1.2-4.5L227.1,163.1L227.1,163.1z"/>
				<path class="st4" d="M228.3,174.2l-0.4-4.6l-0.6-0.1l-0.7,4.6L228.3,174.2L228.3,174.2z"/>
				<path class="st4" d="M233.4,168l-4.8,0.5l-0.1,0.5l4.8,0.6L233.4,168L233.4,168z"/>
				<path class="st4" d="M222,169.6l4.7-0.7l0.1-0.4l-4.8-0.5L222,169.6L222,169.6z"/>
				<ellipse class="st4" cx="227.7" cy="168.5" rx="1.3" ry="1.2"/>
				<path class="st15" d="M234.4,168.5c0,3.6-3,6.5-6.7,6.5s-6.7-2.9-6.7-6.5c0-3.6,3-6.5,6.7-6.5C231.4,162,234.4,165,234.4,168.5z
					 M233.1,168.5c0,2.9-2.4,5.2-5.4,5.2s-5.4-2.3-5.4-5.2s2.4-5.2,5.4-5.2S233.1,165.7,233.1,168.5z"/>
				<path class="st4" d="M223.5,165.3l-1.1-0.8"/>
				<path class="st4" d="M231,164.5l0.9-0.9"/>
				<path class="st4" d="M233,172.7l-1.1-0.9"/>
				<path class="st4" d="M223.5,173.7l1-1"/>
			</g>
			<g id="axe">
				<path class="st4" d="M246.2,162.1l1.2,5.9l-0.9,0.5l-1-6.3L246.2,162.1L246.2,162.1z"/>
				<path class="st5" d="M245.6,161.4c-0.5-0.2-1.2,0.2-2.4-1.3c-1.9,1.7-0.1,2,0.2,3.7c0.5,0.2,0.9-1.3,2.3-1.5
					c0.2,0,2.3-0.2,2.3-0.2l-0.5-0.7C247.5,161.3,246,161.4,245.6,161.4L245.6,161.4z"/>
				<path class="st5" d="M246.4,162.5l-0.2-1.8c-0.2-0.6-1-0.1-1,0.3l0.2,1.6L246.4,162.5z"/>
			</g>
			<path id="bugle" class="st4" d="M240.8,167.4l0,1.6c-0.5,0.2-0.5,0.6-0.4,1.2l0,4.8c-0.2,0.3-0.8,0.3-1.1,0.6
				c-0.3,0.2-0.2,0.7,1,1l1,0c1.5-0.3,1.8-0.8,1-1.1c-0.4-0.1-0.9-0.3-1.1-0.6l0-1.1l1,0c0.3,0,0.8-0.7,0.8-1.2l0-2.5
				c0-1.4-1.1-1.6-1.4-1.5l0-1.3L240.8,167.4L240.8,167.4z M242.4,170.1c0-0.4-0.6-0.8-0.8-0.8s-0.7,0.5-0.8,0.9v1
				c0,0.4,0.3,1.6,0.9,1.7c0.3,0,0.6-0.4,0.6-0.8L242.4,170.1L242.4,170.1z"/>
			<g id="i3">
				<path class="st5" d="M234.3,172.3c-0.6-0.3-0.6,1.2-0.6,1.2l1,0c0.4,0.2,0.8,0.8,0.5,1.2c-0.2,0.3-2.2-0.4-2.3,0
					c0.3,1.9,2.9,2.7,3.8,1.8c0.9-0.8,1.1-3-1.8-3.6L234.3,172.3L234.3,172.3z"/>
				<path class="st5" d="M234.9,172.9l-0.3,0.6"/>
			</g>
			<g id="small_flag">
				<path class="st4" d="M214.9,173.1l-1-4"/>
				<path class="st4" d="M216.1,172.8l-1.5-3.2"/>
				<path class="st4" d="M218.7,172l-3.3-1.8"/>
				<path class="st4" d="M220.1,171.6l-6.2-2.7"/>
				<path class="st9" d="M210.2,166c0,0-2.3,0-2.7,0.1c-0.2,0.1,0.6,0.8,0.4,1.1c-0.6,1.1-4.4,0.9-4.7,0.7c-0.5-0.4,3.6-0.8,3.6-1
					c0-0.3-0.6-1.1-0.5-1.7c0.1-0.7,1.8-0.9,1.8-0.9L210.2,166L210.2,166z"/>
				<path class="st14" d="M213.2,168.1l-5.1-4.2c0,0-0.2-0.2-0.4,0c-0.2,0.2,0.1,0.4,0.1,0.4l5.3,4.3L213.2,168.1L213.2,168.1z"/>
				<path class="st4" d="M218.1,172.2c-0.1-0.1-4.2-3.6-4.2-3.6l-0.3-1c0,0-0.6,0.4-0.9,0.6s-0.6,0.8-0.6,0.8l1.1,0.1l3.6,3.3
					L218.1,172.2z"/>
			</g>
			<g id="cannonballs">
				<ellipse class="st4" cx="232.5" cy="177.1" rx="0.7" ry="0.7"/>
				<ellipse class="st4" cx="230.6" cy="175.7" rx="0.7" ry="0.7"/>
				<ellipse class="st4" cx="228.1" cy="176.6" rx="0.7" ry="0.7"/>
				<ellipse class="st4" cx="224.2" cy="177.4" rx="0.7" ry="0.7"/>
				<ellipse class="st4" cx="222.5" cy="177.6" rx="0.7" ry="0.7"/>
				<ellipse class="st4" cx="220.8" cy="177.6" rx="0.7" ry="0.7"/>
				<ellipse class="st4" cx="219.2" cy="177.6" rx="0.7" ry="0.7"/>
				<ellipse class="st4" cx="220" cy="176.3" rx="0.7" ry="0.7"/>
				<ellipse class="st4" cx="221.6" cy="176.4" rx="0.7" ry="0.7"/>
				<ellipse class="st4" cx="223.1" cy="176.2" rx="0.7" ry="0.7"/>
				<ellipse class="st4" cx="222.4" cy="175" rx="0.7" ry="0.7"/>
				<ellipse class="st4" cx="220.8" cy="174.9" rx="0.7" ry="0.7"/>
			</g>
			<path id="chain" class="st4" d="M236.5,178c0-0.3-0.8-0.2-0.8-0.6c0-0.4,1.2-0.1,1.3,0.3c0.7-0.6,0.9-0.2,1.3,0
				c0.6-0.9,1.3-0.8,2-0.2c0.4-0.4,1.4-0.3,1.8,0.2c0.7-0.7,1.3-0.5,1.7,0c0.2-0.3,0.5-0.3,0.7,0c0.4-0.6,1.2-0.4,1.6,0
				c0.3-0.4,0.7-0.1,1.1,0.2c0.3-0.3,0.8-0.2,0.8,0.1c0,0.3-0.6,0.2-0.6,0.5c0,0.3,0.5,0.1,0.5,0.4c0,0.3-0.7,0.4-0.8-0.1
				c-0.2,0.4-1.1,0.3-1.1-0.1c-0.3,0.3-0.9,0.4-1.2-0.1c-0.3,0.2-0.6,0.3-0.8,0c-0.5,0.6-1.4,0.4-1.7-0.2l-0.3,0
				c-0.5,0.7-1.3,0.4-1.5,0c-0.9,0.6-1.4,0.4-1.8,0c-0.5,0.7-1.4,0.6-1.6,0c-0.4,0.3-1.1,0.3-1.1,0
				C235.8,178.2,236.5,178.3,236.5,178L236.5,178z M238.1,178.1c0,0.1-0.2,0.3-0.4,0.3s-0.4-0.1-0.4-0.3s0.2-0.3,0.4-0.3
				S238.1,178,238.1,178.1z M239.9,177.9c0,0.2-0.2,0.3-0.5,0.3c-0.3,0-0.5-0.1-0.5-0.3c0-0.2,0.2-0.3,0.5-0.3
				C239.7,177.6,239.9,177.8,239.9,177.9z M243.5,178.1c0,0.2-0.2,0.3-0.5,0.3s-0.5-0.1-0.5-0.3c0-0.2,0.2-0.3,0.5-0.3
				S243.5,177.9,243.5,178.1z M241.6,178c0,0.2-0.2,0.4-0.5,0.4s-0.5-0.2-0.5-0.4s0.2-0.4,0.5-0.4S241.6,177.8,241.6,178z
				 M245.7,178c0,0.2-0.2,0.4-0.4,0.4s-0.4-0.2-0.4-0.4s0.2-0.4,0.4-0.4S245.7,177.9,245.7,178z M244.4,178.1c0,0.1-0.1,0.2-0.3,0.2
				c-0.1,0-0.3-0.1-0.3-0.2s0.1-0.2,0.3-0.2S244.4,178,244.4,178.1z M246.9,178.2c0,0.2-0.1,0.3-0.3,0.3s-0.3-0.1-0.3-0.3
				c0-0.2,0.1-0.3,0.3-0.3S246.9,178,246.9,178.2z"/>
		</g>
		<g transform="matrix(-1,0,0,1,499.85853,0)">
			<g id="items_half_1_">
				<path id="cannon_base_1_" class="st4" d="M253.8,172.8l7.1-2.2l3.1-5.3l10.9-0.5l-0.4,3.9l-9.3,1.8l-0.9,1.6l-10.7,3
					L253.8,172.8L253.8,172.8z"/>
				<g id="i2_1_">
					<path class="st14" d="M261.2,174.3l11.1-16.4l0.5,0.4l-11.1,16.5L261.2,174.3L261.2,174.3z"/>
					<path class="st5" d="M271.3,158.5l1.2-2c0.2-0.4,0.6-0.5,1.1-0.2c0.5,0.3,0.4,0.8,0.2,1.1l-1.1,1.9L271.3,158.5L271.3,158.5z"
						/>
				</g>
				<g id="cannon_1_">
					<path class="st4" d="M259.9,164.1l22.5-2.3l0.5,3.3l-22.4,2.3L259.9,164.1L259.9,164.1z"/>
					<path class="st4" d="M282.8,161l0.6,4.5h-0.9l-0.7-4.2L282.8,161z"/>
					<path class="st4" d="M279,161.7l0.3,4.1l-0.6,0.1l-0.5-3.6L279,161.7L279,161.7z"/>
					<path class="st4" d="M263.8,163.5l0.5,3.8l-1.1,0l-0.4-3.8L263.8,163.5L263.8,163.5z"/>
					<path class="st4" d="M260.4,163.6l0.8,4.4l-1.2,0.2l-0.4-2.3c-0.1,0.5-0.5,0.8-1,0.8c-0.6,0-1.1-0.5-1.1-1s0.5-1,1.1-1
						c0.4,0,0.8,0.2,0.9,0.7l-0.2-1.7L260.4,163.6L260.4,163.6z"/>
					<path class="st4" d="M268.5,164.3l3.1,3.5l-0.4,0.4l-4-2.7L268.5,164.3z"/>
					<path class="st4" d="M275.7,173l-3.1-3.5l0.4-0.4l4,2.7L275.7,173z"/>
					<path class="st4" d="M267.6,172.1l3.8-2.9l0.4,0.3l-3,3.8L267.6,172.1z"/>
					<path class="st4" d="M276.9,165.4l-3.8,2.8l-0.5-0.3l3-3.8L276.9,165.4z"/>
					<path class="st4" d="M272.8,163.1l-0.4,4.6l-0.5,0l-1.2-4.5L272.8,163.1L272.8,163.1z"/>
					<path class="st4" d="M271.5,174.2l0.4-4.6l0.6-0.1l0.7,4.6L271.5,174.2L271.5,174.2z"/>
					<path class="st4" d="M266.5,168l4.8,0.5l0.1,0.5l-4.8,0.6L266.5,168L266.5,168z"/>
					<path class="st4" d="M277.9,169.6l-4.7-0.7l-0.1-0.4l4.8-0.5L277.9,169.6L277.9,169.6z"/>
					<ellipse class="st4" cx="272.2" cy="168.5" rx="1.3" ry="1.2"/>
					<path class="st15" d="M265.4,168.5c0,3.6,3,6.5,6.7,6.5s6.7-2.9,6.7-6.5c0-3.6-3-6.5-6.7-6.5S265.4,165,265.4,168.5z
						 M266.8,168.5c0,2.9,2.4,5.2,5.4,5.2s5.4-2.3,5.4-5.2s-2.4-5.2-5.4-5.2S266.8,165.7,266.8,168.5z"/>
					<path class="st4" d="M276.4,165.3l1.1-0.8"/>
					<path class="st4" d="M268.8,164.5l-0.9-0.9"/>
					<path class="st4" d="M266.9,172.7l1.1-0.9"/>
					<path class="st4" d="M276.4,173.7l-1-1"/>
				</g>
				<g id="axe_1_">
					<path class="st4" d="M253.7,162.1l-1.2,5.9l0.9,0.5l1-6.3L253.7,162.1L253.7,162.1z"/>
					<path class="st5" d="M254.3,161.4c0.5-0.2,1.2,0.2,2.4-1.3c1.9,1.7,0.1,2-0.2,3.7c-0.5,0.2-0.9-1.3-2.3-1.5
						c-0.2,0-2.3-0.2-2.3-0.2l0.5-0.7C252.4,161.3,253.9,161.4,254.3,161.4L254.3,161.4z"/>
					<path class="st5" d="M253.5,162.5l0.2-1.8c0.2-0.6,1-0.1,1,0.3l-0.2,1.6L253.5,162.5z"/>
				</g>
				<path id="bugle_1_" class="st4" d="M259.1,167.4l0,1.6c0.5,0.2,0.5,0.6,0.4,1.2l0,4.8c0.2,0.3,0.8,0.3,1.1,0.6
					c0.3,0.2,0.2,0.7-1,1l-1,0c-1.5-0.3-1.8-0.8-1-1.1c0.4-0.1,0.9-0.3,1.1-0.6l0-1.1l-1,0c-0.3,0-0.8-0.7-0.8-1.2l0-2.5
					c0-1.4,1.1-1.6,1.4-1.5l0-1.3L259.1,167.4L259.1,167.4z M257.5,170.1c0-0.4,0.6-0.8,0.8-0.8s0.7,0.5,0.8,0.9v1
					c0,0.4-0.3,1.6-0.9,1.7c-0.3,0-0.6-0.4-0.6-0.8L257.5,170.1L257.5,170.1z"/>
				<g id="i3_1_">
					<path class="st5" d="M265.6,172.3c0.6-0.3,0.6,1.2,0.6,1.2l-1,0c-0.4,0.2-0.8,0.8-0.5,1.2c0.2,0.3,2.2-0.4,2.3,0
						c-0.3,1.9-2.9,2.7-3.8,1.8c-0.9-0.8-1.1-3,1.8-3.6L265.6,172.3L265.6,172.3z"/>
					<path class="st5" d="M265,172.9l0.3,0.6"/>
				</g>
				<g id="small_flag_1_">
					<path class="st4" d="M284.9,173.1l1-4"/>
					<path class="st4" d="M283.7,172.8l1.5-3.2"/>
					<path class="st4" d="M281.2,172l3.3-1.8"/>
					<path class="st4" d="M279.8,171.6l6.2-2.7"/>
					<path class="st9" d="M289.6,166c0,0,2.3,0,2.7,0.1c0.2,0.1-0.6,0.8-0.4,1.1c0.6,1.1,4.4,0.9,4.7,0.7c0.5-0.4-3.6-0.8-3.6-1
						c0-0.3,0.6-1.1,0.5-1.7c-0.1-0.7-1.8-0.9-1.8-0.9L289.6,166L289.6,166z"/>
					<path class="st14" d="M286.6,168.1l5.1-4.2c0,0,0.2-0.2,0.4,0c0.2,0.2-0.1,0.4-0.1,0.4l-5.3,4.3L286.6,168.1L286.6,168.1z"/>
					<path class="st4" d="M281.7,172.2c0.1-0.1,4.2-3.6,4.2-3.6l0.3-1c0,0,0.6,0.4,0.9,0.6s0.6,0.8,0.6,0.8l-1.1,0.1l-3.6,3.3
						L281.7,172.2z"/>
				</g>
				<g id="cannonballs_1_">
					<ellipse class="st4" cx="267.3" cy="177.1" rx="0.7" ry="0.7"/>
					<ellipse class="st4" cx="269.2" cy="175.7" rx="0.7" ry="0.7"/>
					<ellipse class="st4" cx="271.8" cy="176.6" rx="0.7" ry="0.7"/>
					<ellipse class="st4" cx="275.7" cy="177.4" rx="0.7" ry="0.7"/>
					<ellipse class="st4" cx="277.4" cy="177.6" rx="0.7" ry="0.7"/>
					<ellipse class="st4" cx="279" cy="177.6" rx="0.7" ry="0.7"/>
					<ellipse class="st4" cx="280.7" cy="177.6" rx="0.7" ry="0.7"/>
					<ellipse class="st4" cx="279.9" cy="176.3" rx="0.7" ry="0.7"/>
					<ellipse class="st4" cx="278.3" cy="176.4" rx="0.7" ry="0.7"/>
					<ellipse class="st4" cx="276.7" cy="176.2" rx="0.7" ry="0.7"/>
					<ellipse class="st4" cx="277.5" cy="175" rx="0.7" ry="0.7"/>
					<ellipse class="st4" cx="279" cy="174.9" rx="0.7" ry="0.7"/>
				</g>
				<path id="chain_1_" class="st4" d="M263.4,178c0-0.3,0.8-0.2,0.8-0.6c0-0.4-1.2-0.1-1.3,0.3c-0.7-0.6-0.9-0.2-1.3,0
					c-0.6-0.9-1.3-0.8-2-0.2c-0.4-0.4-1.4-0.3-1.8,0.2c-0.7-0.7-1.3-0.5-1.7,0c-0.2-0.3-0.5-0.3-0.7,0c-0.4-0.6-1.2-0.4-1.6,0
					c-0.3-0.4-0.7-0.1-1.1,0.2c-0.3-0.3-0.8-0.2-0.8,0.1c0,0.3,0.6,0.2,0.6,0.5c0,0.3-0.5,0.1-0.5,0.4c0,0.3,0.7,0.4,0.8-0.1
					c0.2,0.4,1.1,0.3,1.1-0.1c0.3,0.3,0.9,0.4,1.2-0.1c0.3,0.2,0.6,0.3,0.8,0c0.5,0.6,1.4,0.4,1.7-0.2l0.3,0c0.5,0.7,1.3,0.4,1.5,0
					c0.9,0.6,1.4,0.4,1.8,0c0.5,0.7,1.4,0.6,1.6,0c0.4,0.3,1.1,0.3,1.1,0C264,178.2,263.4,178.3,263.4,178L263.4,178z M261.7,178.1
					c0,0.1,0.2,0.3,0.4,0.3s0.4-0.1,0.4-0.3s-0.2-0.3-0.4-0.3C261.9,177.9,261.7,178,261.7,178.1z M259.9,177.9
					c0,0.2,0.2,0.3,0.5,0.3c0.3,0,0.5-0.1,0.5-0.3c0-0.2-0.2-0.3-0.5-0.3C260.1,177.6,259.9,177.8,259.9,177.9z M256.3,178.1
					c0,0.2,0.2,0.3,0.5,0.3s0.5-0.1,0.5-0.3c0-0.2-0.2-0.3-0.5-0.3S256.3,177.9,256.3,178.1z M258.2,178c0,0.2,0.2,0.4,0.5,0.4
					c0.3,0,0.5-0.2,0.5-0.4s-0.2-0.4-0.5-0.4C258.4,177.6,258.2,177.8,258.2,178z M254.2,178c0,0.2,0.2,0.4,0.4,0.4s0.4-0.2,0.4-0.4
					s-0.2-0.4-0.4-0.4S254.2,177.9,254.2,178z M255.4,178.1c0,0.1,0.1,0.2,0.3,0.2c0.1,0,0.3-0.1,0.3-0.2s-0.1-0.2-0.3-0.2
					S255.4,178,255.4,178.1z M253,178.2c0,0.2,0.1,0.3,0.3,0.3s0.3-0.1,0.3-0.3c0-0.2-0.1-0.3-0.3-0.3S253,178,253,178.2z"/>
			</g>
		</g>
		<g id="drum">
			<path class="st16" d="M249.8,165.7c-2.5,0-4.5,0.9-4.5,2.1c0,0.2,0.1,0.4,0.2,0.6c0.5,0.6,2.3,1.1,4.4,1.1c2,0,3.6-0.4,4.3-1
				c0.2-0.2,0.3-0.4,0.3-0.7C254.4,166.7,252.3,165.7,249.8,165.7L249.8,165.7z"/>
			<path class="st17" d="M254.4,168v7.1c0,0.8-2,1.5-4.6,1.5s-4.6-0.7-4.6-1.5V168c0,0.8,2,1.5,4.6,1.5S254.4,168.8,254.4,168z"/>
			<path class="st9" d="M245.3,168v1.1l2.2,6.8l1.8-5.3l1.9,5.5l1.4-5.2l1.8,3.5v-1.9l-1.7-3.4c-0.2,0.1-0.4,0.1-0.6,0.1l-1,3.8
				l-1.4-3.6c-0.2,0-0.5,0-0.7,0l-1.5,3.6l-1.7-4.4C245.5,168.5,245.3,168.2,245.3,168L245.3,168z"/>
			<path class="st18" d="M254.4,173.7v1.3c0,0.8-2,1.5-4.6,1.5s-4.6-0.7-4.6-1.5v-1.3c0,0.8,2,1.5,4.6,1.5S254.4,174.5,254.4,173.7z
				"/>
			<path class="st17" d="M251.7,175.1c-0.4,0.1-0.8,0.1-1.2,0.1l0,1.3c0.4,0,0.8-0.1,1.2-0.1L251.7,175.1z"/>
			<path class="st17" d="M246.9,174.9l0,1.3c0.4,0.1,0.7,0.2,1.2,0.2v-1.3C247.6,175,247.2,175,246.9,174.9L246.9,174.9z"/>
			<path class="st17" d="M245.3,173.7v1.3c0,0.2,0.2,0.5,0.5,0.7l0-1.3C245.5,174.2,245.3,174,245.3,173.7L245.3,173.7z"/>
			<path class="st17" d="M254.4,173.9L254.4,173.9c-0.1,0.3-0.4,0.5-0.9,0.7l0,1.3c0.5-0.2,0.8-0.5,0.8-0.9L254.4,173.9L254.4,173.9
				z"/>
			<path class="st19" d="M254.4,168v7c0,0.8-2,1.5-4.6,1.5s-4.6-0.7-4.6-1.5v-7"/>
			<path class="st20" d="M253.4,167.5c0,0.5-1.6,0.9-3.5,0.9s-3.5-0.4-3.5-0.9s1.6-0.9,3.5-0.9C251.8,166.6,253.4,167,253.4,167.5z"
				/>
			<path class="st21" d="M248.7,168.2l0.2,1.3c0.3,0,0.6,0,1,0l0.2-1.3L248.7,168.2L248.7,168.2z"/>
			<path class="st21" d="M252.8,167.9l-0.9,0.2l0.1,1.2c0.3-0.1,0.6-0.1,0.9-0.2L252.8,167.9L252.8,167.9z"/>
			<path class="st21" d="M247.4,166c-0.3,0.1-0.5,0.2-0.7,0.3l0.1,0.9l0.6-0.2L247.4,166L247.4,166z"/>
			<path class="st21" d="M249.8,165.6c-0.1,0-0.2,0-0.4,0l0.2,1.2l0.6,0l0.2-1.2C250.3,165.6,250.1,165.6,249.8,165.6L249.8,165.6z"
				/>
			<path class="st21" d="M252.5,166l-0.1,1l0.7,0.2l0.1-1C253,166.2,252.7,166.1,252.5,166L252.5,166z"/>
			<path class="st4" d="M246,168.8l0.2-1.3l-0.9-0.5l0,1.5L246,168.8L246,168.8z"/>
			<path class="st4" d="M254.4,168.5l0-1.3l-0.9,0.3L254.4,168.5L254.4,168.5z"/>
		</g>
		<g id="helmet">
			<path class="st4" d="M263.7,160c0.8-0.1,2.1,1,2.1,2.4c0.1,1.1-1.7,1.1-1.7,1.1c-0.1,0.5-1.1,0.9-1.8,0.9c-0.8,0,0.2-1.4,0.2-1.4
				c-0.5-1.3,0.1-2.7,0.1-2.7L263.7,160L263.7,160z"/>
			<path class="st4" d="M262.5,162.9l0.8,0c0,0,0.1,0.4,0.2,0.4c0.2,0,0.3-0.4,0.3-0.4l1.2,0"/>
			<path class="st22" d="M264.1,160.9c0.7-0.5,0.1-1.5-0.4-1.5l-1.1,0c-0.5,0-1.4,0.6-1.3,1.1c0.1,0.4,0.4,0.6,0.8,0.5
				c0.2,0,0.6-0.6,0.8-0.6C263.3,160.4,263.9,161,264.1,160.9L264.1,160.9z"/>
		</g>
		<path id="anchor" class="st4" d="M214.2,174.9c-0.6,0.1-0.7,0.8-0.5,1.4c-2.7,0.8-5.1,1.7-7.5,2.4c-0.1-0.5,1.2-1.8,1.2-1.8
			c0.3,0.2,0.6,0.9,0.6,0.9c0.1-1.6,1.6-2.6,1.6-2.6c-0.9-0.1-3.7,1-4.1,1.4c0,0,1.1-0.1,1.3,0c0,0-2.1,2.3-2.2,3
			c0.3,0.8,4,1.3,4,1.3c-0.1,0.2-1.1,0.9-1.1,0.9c1.5,0.3,3.7-0.7,4.3-1.4c0,0-1.7-0.1-3.1-1.2c0,0,0.3,0.7,0.1,1c0,0-2.1-0.6-2.3-1
			c0,0,5-1.3,7.4-2c0.1,0.4,0.6,1.2,1.1,1c0.4-0.1,0.3-0.9,0.1-1.4c0.1,0.1,0.3,0.2,0.5,0.2c0.4,0,0.8-0.3,0.8-0.7
			c0-0.4-0.3-0.7-0.8-0.7c-0.3,0-0.6,0.2-0.7,0.5C215,175.7,214.7,174.8,214.2,174.9L214.2,174.9z M216.1,176.4
			c0,0.2-0.2,0.3-0.4,0.3s-0.4-0.2-0.4-0.3s0.2-0.3,0.4-0.3S216.1,176.2,216.1,176.4z"/>
		<g id="i4">
			<path class="st4" d="M293.1,177.9c0.2-0.4-0.2-2.2-0.2-2.2c-0.4,0-0.9,0.7-0.9,0.7c0.5-1.5-0.9-4-0.9-4c0.9,0.2,3.9,3.1,4.1,3.7
				c0,0-1.3-0.5-1.5-0.4c0.2,1.5,1.3,2.2,1.6,3c0,0-1.7,0.4-1.6,1.8l-1.1,0c-0.4-0.5,0.2-1.3,0.2-1.3l-7.7-3.2
				c-0.5-0.2-1.6-0.7-1.5-1.3c0.2-0.6,2,0.3,2.5,0.4L293.1,177.9L293.1,177.9z"/>
			<path class="st4" d="M285.6,176.5l0.9-1.7c0.3-0.4-0.3-0.9-0.8-0.4l-1,1.5C284.2,176.9,285.2,177.1,285.6,176.5L285.6,176.5z"/>
		</g>
	</g>
	<g id="motto">
		<g>
			<path class="st5" d="M231.4,180.4l-0.1-1.8l-2.2,0.1l-0.1,2L231.4,180.4L231.4,180.4z"/>
			<path class="st5" d="M215.2,182.9l-3-1.7c12.2,1.1,14.7-3.1,17.6-3.4c1.8-0.1,2.1,2-1.4,1l0.9,2.2c0,0-8.6,4.9-17.1,2.9
				L215.2,182.9L215.2,182.9z"/>
			<path class="st5" d="M268.2,180.4l0.1-1.8l2.7,0.1l0.1,2L268.2,180.4L268.2,180.4z"/>
			<path class="st5" d="M284.9,182.5l2.8-1.5c-13.9,0.4-10.8-2.3-17.7-3c-1.8-0.2-3.2,2.1,1.4,1l-0.9,2.2l2.2,0
				c4.7,3.1,11.2,3.4,15.4,2.4L284.9,182.5L284.9,182.5z"/>
			<path class="st5" d="M228.4,178.9v3.2c0,0,7.7,2.9,21.5,2.9c13.9,0,21.5-2.9,21.5-2.9v-3.2c0,0-5.8,2.7-21.5,2.7
				C234.3,181.6,228.4,178.9,228.4,178.9z"/>
		</g>
		<path d="M229.6,182.1l0.7-2.3l0.3,0.1l-0.6,2l1.2,0.3l-0.1,0.3L229.6,182.1L229.6,182.1z M231.8,181.1l0-0.5l0.1-0.4l0.3,0.1
			l-0.1,0.4l-0.2,0.4L231.8,181.1L231.8,181.1z M235.1,180.9l0.3,0.1l-0.3,1.4c0,0.2-0.1,0.4-0.2,0.5s-0.2,0.2-0.4,0.3
			c-0.2,0.1-0.4,0.1-0.6,0c-0.2,0-0.4-0.1-0.5-0.2c-0.1-0.1-0.2-0.2-0.2-0.4c0-0.2,0-0.4,0-0.6l0.3-1.4l0.3,0.1l-0.3,1.4
			c0,0.2-0.1,0.4,0,0.5s0.1,0.2,0.2,0.3c0.1,0.1,0.2,0.1,0.3,0.1c0.2,0,0.4,0,0.5-0.1c0.1-0.1,0.2-0.3,0.3-0.6L235.1,180.9
			L235.1,180.9z M235.5,183.4l0.4-2.4l0.3,0.1l1,2.1l0.3-1.9l0.3,0l-0.4,2.4l-0.3-0.1l-1-2.1l-0.3,1.9L235.5,183.4L235.5,183.4z
			 M238,183.8l0.3-2.4l0.3,0l-0.3,2.4L238,183.8z M239,182.8c0-0.4,0.2-0.7,0.4-0.9s0.5-0.3,0.9-0.2c0.2,0,0.4,0.1,0.6,0.2
			s0.3,0.3,0.4,0.5c0.1,0.2,0.1,0.4,0.1,0.7c0,0.2-0.1,0.5-0.2,0.6c-0.1,0.2-0.3,0.3-0.5,0.4c-0.2,0.1-0.4,0.1-0.6,0.1
			c-0.2,0-0.4-0.1-0.6-0.2c-0.2-0.1-0.3-0.3-0.4-0.5C239,183.2,239,183,239,182.8L239,182.8z M239.3,182.8c0,0.3,0,0.5,0.2,0.7
			c0.1,0.2,0.3,0.3,0.6,0.3c0.2,0,0.5,0,0.6-0.2c0.2-0.1,0.3-0.4,0.3-0.7c0-0.2,0-0.4,0-0.5c-0.1-0.2-0.1-0.3-0.3-0.4
			c-0.1-0.1-0.3-0.2-0.4-0.2c-0.2,0-0.4,0-0.6,0.2C239.5,182.2,239.4,182.4,239.3,182.8L239.3,182.8z M241.6,184.2l0.2-2.4l0.3,0
			l1.1,2l0.2-1.9l0.3,0l-0.2,2.4l-0.3,0l-1.1-2l-0.2,1.9L241.6,184.2L241.6,184.2z M245.1,184.5l0.1-2.4l1.7,0.1l0,0.3l-1.3-0.1
			l0,0.7l1.2,0l0,0.3l-1.2,0l0,1.1L245.1,184.5L245.1,184.5z M246.9,184.5l1-2.4l0.4,0l1,2.4l-0.4,0l-0.3-0.7l-1,0l-0.3,0.7
			L246.9,184.5L246.9,184.5z M247.7,183.6l0.8,0l-0.2-0.7c-0.1-0.2-0.1-0.4-0.2-0.5c0,0.2-0.1,0.3-0.1,0.5L247.7,183.6L247.7,183.6z
			 M249.6,184.6l0-2.4l0.3,0l0,2.4L249.6,184.6L249.6,184.6z M251.1,184.6l0-2.1l-0.8,0l0-0.3l2,0l0,0.3l-0.8,0l0,2.1L251.1,184.6
			L251.1,184.6z M253.6,184.5l-0.1-2.4l0.3,0l0.1,2.1l1.2-0.1l0,0.3L253.6,184.5L253.6,184.5z M255.3,184.4l0.8-2.5l0.4,0l1.2,2.3
			l-0.4,0l-0.3-0.7l-1,0.1l-0.2,0.7L255.3,184.4L255.3,184.4z M255.9,183.4l0.8-0.1l-0.3-0.6c-0.1-0.2-0.2-0.4-0.2-0.5
			c0,0.2-0.1,0.3-0.1,0.5L255.9,183.4L255.9,183.4z M258.8,184.2l-0.3-2.4l1.7-0.2l0,0.3l-1.3,0.1l0.1,0.7l1.2-0.1l0,0.3L259,183
			l0.1,1.1L258.8,184.2L258.8,184.2z M260.6,182.8c-0.1-0.4,0-0.7,0.2-1c0.2-0.3,0.5-0.4,0.8-0.5c0.2,0,0.4,0,0.6,0.1
			c0.2,0.1,0.4,0.2,0.5,0.4c0.1,0.2,0.2,0.4,0.2,0.6c0,0.2,0,0.5-0.1,0.7s-0.2,0.4-0.4,0.5s-0.4,0.2-0.6,0.2c-0.2,0-0.4,0-0.6-0.1
			c-0.2-0.1-0.4-0.2-0.5-0.4C260.8,183.2,260.7,183,260.6,182.8L260.6,182.8z M261,182.7c0,0.3,0.2,0.5,0.3,0.6
			c0.2,0.1,0.4,0.2,0.6,0.2c0.2,0,0.4-0.1,0.6-0.3c0.1-0.2,0.2-0.4,0.1-0.7c0-0.2-0.1-0.4-0.2-0.5c-0.1-0.1-0.2-0.2-0.3-0.3
			c-0.1-0.1-0.3-0.1-0.5-0.1c-0.2,0-0.4,0.1-0.6,0.3S260.9,182.4,261,182.7L261,182.7z M263.6,183.6l-0.4-2.4l1.1-0.2
			c0.2,0,0.4,0,0.5,0c0.1,0,0.2,0.1,0.3,0.2c0.1,0.1,0.1,0.2,0.2,0.3c0,0.2,0,0.3-0.1,0.5c-0.1,0.1-0.3,0.2-0.5,0.3
			c0.1,0,0.2,0.1,0.2,0.1c0.1,0.1,0.2,0.2,0.3,0.3l0.5,0.6l-0.4,0.1l-0.4-0.4c-0.1-0.1-0.2-0.2-0.3-0.3c-0.1-0.1-0.1-0.1-0.2-0.1
			s-0.1,0-0.2,0c0,0-0.1,0-0.2,0l-0.4,0.1l0.2,1L263.6,183.6L263.6,183.6z M263.7,182.2l0.7-0.1c0.1,0,0.3-0.1,0.3-0.1
			c0.1,0,0.1-0.1,0.2-0.2c0-0.1,0-0.1,0-0.2c0-0.1-0.1-0.2-0.2-0.3c-0.1-0.1-0.2-0.1-0.4,0l-0.8,0.1L263.7,182.2L263.7,182.2z
			 M267.6,181.9l0.3,0c0,0.3-0.1,0.5-0.2,0.7c-0.1,0.2-0.3,0.3-0.6,0.3c-0.3,0.1-0.5,0.1-0.7,0s-0.3-0.2-0.5-0.4s-0.2-0.4-0.3-0.6
			c-0.1-0.2-0.1-0.5,0-0.7c0.1-0.2,0.2-0.4,0.3-0.5s0.3-0.2,0.6-0.3c0.2-0.1,0.5,0,0.7,0c0.2,0.1,0.3,0.2,0.5,0.4l-0.3,0.1
			c-0.1-0.2-0.2-0.3-0.3-0.3s-0.3-0.1-0.4,0c-0.2,0-0.3,0.1-0.4,0.2c-0.1,0.1-0.2,0.2-0.2,0.4c0,0.2,0,0.3,0,0.5
			c0,0.2,0.1,0.4,0.2,0.5c0.1,0.1,0.2,0.2,0.4,0.3c0.1,0,0.3,0.1,0.4,0c0.2,0,0.3-0.1,0.4-0.2C267.6,182.3,267.6,182.1,267.6,181.9
			L267.6,181.9z M268.5,182.6l-0.7-2.3l1.7-0.5l0.1,0.3l-1.4,0.4l0.2,0.7l1.3-0.4l0.1,0.3l-1.3,0.4l0.2,0.8l1.5-0.4l0.1,0.3
			L268.5,182.6L268.5,182.6z"/>
	</g>
</g>
</svg>
