<?xml version="1.0" encoding="utf-8"?>
<!-- Generator: Adobe Illustrator 21.0.0, SVG Export Plug-In . SVG Version: 6.00 Build 0)  -->
<svg version="1.1" id="Layer_1" xmlns="http://www.w3.org/2000/svg" xmlns:xlink="http://www.w3.org/1999/xlink" x="0px" y="0px"
	 viewBox="0 0 720 504" style="enable-background:new 0 0 720 504;" xml:space="preserve">
<style type="text/css">
	.st0{fill:#009B3A;}
	.st1{fill:#FEDF00;}
	.st2{fill:#002776;}
	.st3{clip-path:url(#SVGID_2_);fill:#FFFFFF;}
	.st4{clip-path:url(#SVGID_4_);}
	.st5{fill:#FFFFFF;}
</style>
<rect x="0" y="0" class="st0" width="720" height="504"/>
<path class="st1" d="M61.2,252L360,442.8L658.8,252L360,61.2L61.2,252z"/>
<circle class="st2" cx="360" cy="252" r="126"/>
<g>
	<defs>
		<circle id="SVGID_1_" cx="360" cy="252" r="126"/>
	</defs>
	<clipPath id="SVGID_2_">
		<use xlink:href="#SVGID_1_"  style="overflow:visible;"/>
	</clipPath>
	<path class="st3" d="M-18,504c0-169,137-306,306-306s306,137,306,306h-18c0-159.1-128.9-288-288-288S0,344.9,0,504H-18z"/>
</g>
<g>
	<g transform="rotate(-7)">
		<path id="O" class="st0" d="M672.5-1254.8c3-0.4,5-3.3,4.6-6.6c-0.4-3.3-3.1-5.7-6.1-5.3c-3,0.4-5,3.3-4.6,6.6
			C666.8-1256.8,669.6-1254.5,672.5-1254.8 M672.3-1257c1.7-0.2,2.9-2.1,2.7-4.1s-1.9-3.6-3.6-3.4c-1.7,0.2-2.9,2.1-2.7,4.1
			C668.9-1258.3,670.5-1256.8,672.3-1257"/>
	</g>
	<g>
		<g id="R">
			<g transform="rotate(-4)">
				<path id="P" class="st0" d="M682.3-1255.9l2.2-0.2l-0.3-4.4l4.8-0.3c2.1-0.1,3.6-1.9,3.5-4c-0.1-2.1-1.9-3.6-4-3.5l-6.8,0.5
					L682.3-1255.9z M684.1-1262.7l4.6-0.3c0.8-0.1,1.5-0.8,1.4-1.6c-0.1-0.8-0.8-1.5-1.6-1.4l-4.6,0.3L684.1-1262.7z"/>
			</g>
			<path class="st0" d="M692.5-1256.6c-0.1-1.7-0.4-5.5-2.9-5.3l-3.2,0.2c3.8-0.3,4,3.5,4.1,5.2"/>
		</g>
		<g transform="rotate(-1)">
			<path id="D" class="st0" d="M697.5-1256.9l5.7-0.1c2.8,0,5.1-2.4,5.1-5.2l0-1.7c0-2.8-2.4-5.1-5.2-5.1l-5.7,0.1L697.5-1256.9z
				 M699.7-1259.1l3.3-0.1c1.8,0,3.2-1.5,3.2-3.3l0-1c0-1.8-1.5-3.2-3.3-3.2l-3.3,0.1L699.7-1259.1z"/>
		</g>
		<g transform="rotate(2)">
			<path id="E" class="st0" d="M712.8-1257l10.8,0.4l0.1-2.2l-8.7-0.3l0.1-3.1l6.9,0.2l0.1-2.1l-6.9-0.2l0.1-2.4l8.2,0.3l0.1-2.2
				l-10.3-0.4L712.8-1257z"/>
		</g>
		<g transform="rotate(5)">
			<path id="M" class="st0" d="M728-1256.4l2,0.2l0.7-8.2l1.7,8.4l1.9,0.2l3.1-8l-0.7,8.2l2,0.2l1-12l-3-0.3l-3.1,8l-1.7-8.4l-3-0.3
				L728-1256.4z"/>
		</g>
		<g transform="rotate(9.75)">
			<path id="e" class="st0" d="M752.8-1253.6l8.9,1.5l0.3-2l-6.8-1.2l0.5-2.7l5.6,1l0.3-2l-5.6-1l0.3-1.9l6.6,1.1l0.3-2l-8.7-1.5
				L752.8-1253.6z"/>
		</g>
		<g transform="rotate(14.5)">
			<path id="P_1_" class="st0" d="M775.6-1249.1l2.2,0.6l1.1-4.3l4.6,1.2c2,0.5,4.1-0.7,4.6-2.7c0.5-2-0.7-4.1-2.7-4.6l-6.6-1.7
				L775.6-1249.1z M779.5-1255l4.5,1.2c0.8,0.2,1.7-0.3,1.9-1.1c0.2-0.8-0.3-1.7-1.1-1.9l-4.5-1.2L779.5-1255z"/>
		</g>
		<g>
			<g id="R_1_">
				<g transform="rotate(17.5)">
					<path id="P_2_" class="st0" d="M790.4-1245.2l2.1,0.7l1.3-4.3l4.6,1.4c2,0.6,4.1-0.5,4.7-2.5c0.6-2-0.5-4.1-2.5-4.7l-6.5-2.1
						L790.4-1245.2z M794.5-1250.9l4.4,1.4c0.8,0.3,1.7-0.2,1.9-1c0.3-0.8-0.2-1.7-1-1.9l-4.4-1.4L794.5-1250.9z"/>
				</g>
				<path class="st0" d="M800.1-1242.1c0.5-1.6,1.6-5.2-0.8-6l-3.1-1c3.6,1.1,2.5,4.7,1.9,6.4"/>
			</g>
			<g transform="rotate(20.5)">
				<path id="O_1_" class="st0" d="M809.9-1238.6c2.8,1,6-0.6,7.2-3.7c1.2-3.1-0.2-6.5-3-7.5s-6,0.6-7.2,3.7
					C805.8-1243,807.1-1239.6,809.9-1238.6 M810.7-1240.7c1.6,0.6,3.6-0.5,4.3-2.4c0.7-2,0-4-1.6-4.6c-1.6-0.6-3.6,0.5-4.3,2.4
					C808.3-1243.4,809.1-1241.3,810.7-1240.7"/>
			</g>
			<g>
				<g id="G">
					<g>
						<defs>
							<path id="SVGID_3_" d="M819.1-1235l4.8-11l9.9,4.3l-4.8,11L819.1-1235z M827.2-1240.3l-0.8,1.9l5,2.2l0.8-1.9L827.2-1240.3z"
								/>
						</defs>
						<clipPath id="SVGID_4_">
							<use xlink:href="#SVGID_3_"  style="overflow:visible;"/>
						</clipPath>
						<g transform="rotate(23.5)" class="st4">
							<path id="O_2_" class="st0" d="M824-1232.9c2.7,1.2,6-0.3,7.3-3.3c1.3-3,0.2-6.5-2.6-7.7c-2.7-1.2-6,0.3-7.3,3.3
								C820.2-1237.5,821.3-1234.1,824-1232.9 M824.9-1234.9c1.6,0.7,3.6-0.3,4.4-2.2c0.8-1.9,0.2-4-1.4-4.7
								c-1.6-0.7-3.6,0.3-4.4,2.2S823.3-1235.6,824.9-1234.9"/>
						</g>
					</g>
					
						<rect x="828.1" y="-1238.6" transform="matrix(0.3987 -0.9171 0.9171 0.3987 1632.2023 16.8557)" class="st0" width="1.7" height="4.5"/>
					
						<rect x="826.4" y="-1234.7" transform="matrix(0.3987 -0.9171 0.9171 0.3987 1630.149 18.7822)" class="st0" width="6" height="1.7"/>
				</g>
				<g transform="translate(-420,1470)">
					<g id="R_2_">
						<g transform="rotate(26.5)">
							<path id="P_3_" class="st0" d="M833-1228.8l2,1l2-4l4.3,2.1c1.9,0.9,4.1,0.2,5.1-1.7c0.9-1.9,0.2-4.1-1.7-5.1l-6.1-3.1
								L833-1228.8z M838-1233.8l4.1,2.1c0.8,0.4,1.7,0.1,2.1-0.7s0.1-1.7-0.7-2.1l-4.1-2.1L838-1233.8z"/>
						</g>
						<path class="st0" d="M842.1-1224.3c0.8-1.5,2.4-4.9,0.1-6.1l-2.9-1.5c3.4,1.7,1.7,5.1,0.9,6.6"/>
					</g>
					<g transform="rotate(29.5)">
						<path id="E_1_" class="st0" d="M846.6-1221.9l9.4,5.3l1.1-1.9l-7.6-4.3l1.5-2.7l6,3.4l1-1.8l-6-3.4l1.2-2.1l7.2,4.1l1.1-1.9
							l-9-5.1L846.6-1221.9z"/>
					</g>
					<g transform="rotate(32.5)">
						<path id="S" class="st0" d="M864.1-1216.1c-0.6,1,0,2.1,1.5,3.1c1.4,0.9,2.4,0.9,2.8,0.2c1.3-2.1-6.3-5.1-3.9-8.7
							c2-3.1,5.5-0.7,6.8,0.1s3.4,3,1.8,5.4l-2.2-1.4c0.7-1.1-0.1-2.1-1.2-2.9c-1.1-0.7-2-1-2.7,0c-1.1,1.7,6.3,4.8,4,8.4
							c-1.7,2.6-4.6,1.5-6.6,0.2c-1.7-1.1-4.1-3.6-2.5-6.1L864.1-1216.1z"/>
					</g>
					<g transform="rotate(35.5)">
						<path id="S_1_" class="st0" d="M877-1207.5c-0.7,1-0.1,2.1,1.3,3.1s2.4,1,2.8,0.4c1.4-2-6-5.4-3.5-8.9c2.2-3,5.5-0.4,6.8,0.5
							c1.3,0.9,3.2,3.1,1.5,5.5l-2.1-1.5c0.7-1,0-2.1-1.1-2.9c-1.1-0.8-2-1.1-2.7-0.1c-1.2,1.6,6.1,5.2,3.6,8.6
							c-1.8,2.5-4.7,1.2-6.6-0.1c-1.6-1.1-4-3.8-2.2-6.2L877-1207.5z"/>
					</g>
					<g transform="rotate(38.5)">
						<path id="O_3_" class="st0" d="M889.2-1193.7c2.3,1.9,5.9,1.3,8-1.3c2.1-2.6,1.8-6.2-0.5-8.1s-5.9-1.3-8,1.3
							C886.6-1199.2,886.8-1195.6,889.2-1193.7 M890.5-1195.5c1.4,1.1,3.5,0.7,4.8-1c1.3-1.6,1.2-3.8-0.1-4.9
							c-1.4-1.1-3.5-0.7-4.8,1C889.1-1198.8,889.2-1196.6,890.5-1195.5"/>
					</g>
				</g>
				<g>
					<g>
						<g>
							<g id="c">
								<path id="t" class="st5" d="M677.1-1246l-1.7,5.1l2.6,0.8"/>
								<g transform="scale(-1,1)">
									<path id="t_1_" class="st5" d="M677.1-1246l1.7,5.1l-2.6,0.8"/>
								</g>
							</g>
							<g>
								<g id="c_1_">
									<path id="t_2_" class="st5" d="M682.3-1242.3h-5.4v2.7"/>
									<g transform="rotate(72)">
										<path id="t_3_" class="st5" d="M682.3-1242.3l-4.4,3.2l-1.6-2.2"/>
									</g>
								</g>
								<g>
									<g id="c_2_">
										<path id="t_4_" class="st5" d="M672-1242.3l4.4,3.2l1.6-2.2"/>
										<g transform="rotate(-72)">
											<path id="t_5_" class="st5" d="M672-1242.3h5.4v2.7"/>
										</g>
									</g>
									<g>
										<g id="c_3_">
											<path id="t_6_" class="st5" d="M680.3-1236.3l-1.7-5.1l-2.6,0.8"/>
											<g transform="rotate(144)">
												<path id="t_7_" class="st5" d="M680.3-1236.3l-4.4-3.2l1.6-2.2"/>
											</g>
										</g>
										<g id="star">
											<g id="c_4_">
												<path id="t_8_" class="st5" d="M674-1236.3l4.4-3.2l-1.6-2.2"/>
												<g id="αCMi" transform="scale(31.5)">
													<path id="t_9_" class="st5" d="M674-1236.3l1.7-5.1l2.6,0.8"/>
												</g>
											</g>
										</g>
										<g>
											<g>
												<g>
													<g id="c_5_">
														<path id="t_10_" class="st5" d="M688.3-1193.1l-1.7,5.1l2.6,0.8"/>
														<g transform="scale(-1,1)">
															<path id="t_11_" class="st5" d="M688.3-1193.1l1.7,5.1l-2.6,0.8"/>
														</g>
													</g>
													<g>
														<g id="c_6_">
															<path id="t_12_" class="st5" d="M693.4-1189.3H688v2.7"/>
															<g transform="rotate(72)">
																<path id="t_13_" class="st5" d="M693.4-1189.3l-4.4,3.2l-1.6-2.2"/>
															</g>
														</g>
														<g>
															<g id="c_7_">
																<path id="t_14_" class="st5" d="M683.2-1189.3l4.4,3.2l1.6-2.2"/>
																<g transform="rotate(-72)">
																	<path id="t_15_" class="st5" d="M683.2-1189.3h5.4v2.7"/>
																</g>
															</g>
															<g>
																<g id="c_8_">
																	<path id="t_16_" class="st5" d="M691.5-1183.3l-1.7-5.1l-2.6,0.8"/>
																	<g transform="rotate(144)">
																		<path id="t_17_" class="st5" d="M691.5-1183.3l-4.4-3.2l1.6-2.2"/>
																	</g>
																</g>
																<g id="star_1_">
																	<g id="c_9_">
																		<path id="t_18_" class="st5" d="M685.1-1183.3l4.4-3.2l-1.6-2.2"/>
																		<g id="αCMa" transform="scale(31.5)">
																			<path id="t_19_" class="st5" d="M685.1-1183.3l1.7-5.1l2.6,0.8"/>
																		</g>
																	</g>
																</g>
																<g>
																	<g>
																		<g>
																			<g id="c_10_">
																				<path id="t_20_" class="st5" d="M672.9-1180.8l-1.4,4.3l2.1,0.7"/>
																				<g transform="scale(-1,1)">
																					<path id="t_21_" class="st5" d="M672.9-1180.8l1.4,4.3l-2.1,0.7"/>
																				</g>
																			</g>
																			<g>
																				<g id="c_11_">
																					<path id="t_22_" class="st5" d="M677.1-1177.7h-4.5v2.2"/>
																					<g transform="rotate(72)">
																						<path id="t_23_" class="st5" d="M677.1-1177.7l-3.6,2.6l-1.3-1.8"/>
																					</g>
																				</g>
																				<g>
																					<g id="c_12_">
																						<path id="t_24_" class="st5" d="M668.6-1177.7l3.6,2.6l1.3-1.8"/>
																						<g transform="rotate(-72)">
																							<path id="t_25_" class="st5" d="M668.6-1177.7h4.5v2.2"/>
																						</g>
																					</g>
																					<g>
																						<g id="c_13_">
																							<path id="t_26_" class="st5" d="M675.5-1172.7l-1.4-4.3l-2.1,0.7"/>
																							<g transform="rotate(144)">
																								<path id="t_27_" class="st5" d="M675.5-1172.7l-3.6-2.6l1.3-1.8"/>
																							</g>
																						</g>
																						<g id="star_2_">
																							<g id="c_14_">
																								<path id="t_28_" class="st5" d="M670.2-1172.7l3.6-2.6l-1.3-1.8"/>
																								<g id="βCMa" transform="scale(26.25)">
																									<path id="t_29_" class="st5" d="M670.2-1172.7l1.4-4.3l2.1,0.7"/>
																								</g>
																							</g>
																						</g>
																						<g>
																							<g>
																								<g>
																									<g id="c_15_">
																										<path id="t_30_" class="st5" d="M700.6-1197.9l-0.8,2.4l1.2,0.4"/>
																										<g transform="scale(-1,1)">
																											<path id="t_31_" class="st5" d="M700.6-1197.9l0.8,2.4l-1.2,0.4"/>
																										</g>
																									</g>
																									<g>
																										<g id="c_16_">
																											<path id="t_32_" class="st5" d="M703.1-1196.2h-2.6v1.3"/>
																											<g transform="rotate(72)">
																												<path id="t_33_" class="st5" d="M703.1-1196.2l-2.1,1.5l-0.8-1"/>
																											</g>
																										</g>
																										<g>
																											<g id="c_17_">
																												<path id="t_34_" class="st5" d="M698.2-1196.2l2.1,1.5l0.8-1"/>
																												<g transform="rotate(-72)">
																													<path id="t_35_" class="st5" d="M698.2-1196.2h2.6v1.3"/>
																												</g>
																											</g>
																											<g transform="rotate(-144)">
																												<g id="c_18_">
																													<path id="t_36_" class="st5" d="M702.1-1193.3l-0.8-2.4l-1.2,0.4"/>
																													<path id="t_37_" class="st5" d="M702.1-1193.3l-2.1-1.5l0.8-1"/>
																												</g>
																												<g id="star4" transform="scale(15)">
																												</g>
																											</g>
																											<g>
																												<g id="star2" transform="scale(26.25)">
																												</g>
																											</g>
																										</g>
																									</g>
																								</g>
																							</g>
																						</g>
																					</g>
																				</g>
																			</g>
																		</g>
																	</g>
																</g>
															</g>
														</g>
													</g>
												</g>
											</g>
										</g>
									</g>
								</g>
							</g>
						</g>
					</g>
				</g>
			</g>
		</g>
	</g>
</g>
</svg>
