<?xml version="1.0" encoding="utf-8"?>
<!-- Generator: Adobe Illustrator 21.0.0, SVG Export Plug-In . SVG Version: 6.00 Build 0)  -->
<svg version="1.1" id="Layer_1" xmlns="http://www.w3.org/2000/svg" xmlns:xlink="http://www.w3.org/1999/xlink" x="0px" y="0px"
	 viewBox="0 0 600 450" style="enable-background:new 0 0 600 450;" xml:space="preserve">
<style type="text/css">
	.st0{fill:#CE1126;}
	.st1{fill:#FCD116;}
	.st2{fill:#FFFFFF;}
</style>
<title>Flag of Papua New Guinea</title>
<rect width="600" height="450"/>
<path class="st0" d="M0,0h600v450L0,0z"/>
<path class="st1" d="M371.5,130.7c-4.4,5.7-14.9-5.8-27.5-6c-12.6-0.3-21.5,12-25.1,16.2c-3.7,4.2-15.4,26.2-15.2,28.5
	s7.3-6.5,9.9-8.1c0.3,3.1-2.9,6.8-2.1,7.9s9.2-6.3,12-6.5c0.8,2.1-1.6,4.2-0.8,7.3c1,1,5.8-5.2,8.9-6.5c0.5,2.4-2.9,6.8-1,9.7
	c1.3,0.3,9.2-8.9,11.8-9.9c2.6-1-1.3,8.6,0,9.4c2.4-1.6,9.7-9.9,12-11c2.4-1-0.3,10.7,0.8,10.7c2.9-2.1,10.2-12,11-13.6
	s-0.8,15.2,7.3,24.1c8.1,8.9,20.4,19.1,21.7,19.1c1.6-2.9-0.5-8.9,0.8-8.6c3.7,3.9,10.5,9.7,12,9.7s-1-6.3,1-6.3
	c4.2,3.9,16.2,19.4,39.8,26.4c-1.6-4.4-5-8.4-5.2-10.5c1.6,0.3,7.1,2.9,8.1,2.6c1-0.3-11.5-15.7-10.7-17.8c2.9-0.3,4.2,1.6,5.2,0.3
	c-1.3-2.1-12.3-14.4-12.3-17.3c0-2.9,3.4,0.5,4.4,0c1-0.5-4.2-11.5-3.1-12.8c1-1.3,12.6,7.1,15.4,7.1c2.9,0,0.8-10.2,2.1-10.7
	c1.3-0.5,11,5.5,13.1,5.5s1.8-4.4,2.6-3.9c0.8,0.5,23.6,23.3,15.7,50c-7.9,19.1-23.6,29.3-46.6,20.9c1.3,2.1,13.6,12.3,27,8.6
	c13.3-3.7,29.6-14.1,27.7-40.3c-1.8-26.2-10.5-29.8-11.8-33.8c-1.3-3.9,2.1,1,5,2.1c2.9,1-0.5-5.5-1.3-8.4c-0.8-2.9,8.6,6,11,6.8
	c2.4,0.8-5.5-21.5-7.9-23c-2.4-1.6,2.4,0.5,3.9,1c1.6,0.5-14.4-24.3-17.8-24.3c-3.4,0,2.9-1.3,4.7-1.3c1.8,0-18.3-16.2-21.7-16.2
	s7.3-4.2,8.4-4.4c1.8,0.3-23.3-13.3-45.8,0.3c-1.3-1,10.6-9.3,11-12.8c0.1-0.9-3.9-2.9-4.2-3.9c-0.3-1,6.3-4.2,6.5-6.5
	c-1.6-2.1-4.4-1.3-6-1.8c-0.4-2,5.5-6.8,5-8.9c-0.4-1.2-4.7-1.6-5.8-0.8s2.7-5.5,2.1-7.3c-0.5-0.8-2.6-0.3-4.7,0.3
	c-1.3-0.3,6.8-11.5,5.2-13.1c-1.6-1.6-23.6,11.5-31.7,26.2c-8.1,14.7-1.8,26.4-2.9,31.4s-2.4,9.9-5.8,9.9c-3.4,0-11.3-5.2-13.9-7.9
	c-2.6-2.6-3.1-4.4-6.8-5.5c-3.7-1-12,2.1-15.2,2.4c-3.1,0.3-15.4-2.4-16.2-1.6c-0.8,0.8,12,5.5,14.9,7.1c2.9,1.6,3.1,3.7,5.2,5
	C358.1,116.9,377.8,122.6,371.5,130.7z M448.2,167.6c6.3,6.3,48.7,34.5,48.7,69.1s-30.9,33.5-39.8,32.5c9.9,8.4,47.6,6.8,47.6-32.5
	c0-34.5-48.7-69.1-55-72.2C443.4,161.4,441.9,161.4,448.2,167.6z"/>
<g>
	<path class="st2" d="M172.1,327l8.9-28.8l8.9,29.1l-23.6-17.8h29.2L172.1,327z"/>
	<path id="sl" class="st2" d="M150.3,139.4L132.4,197l47.1-35h-58.5l47.1,35.7L150.3,139.4z"/>
	<g>
		<path id="sl_1_" class="st2" d="M81.6,227.3l-17.9,57.6l47.1-35H52.3l47.1,35.7L81.6,227.3z"/>
	</g>
	<g>
		<path id="sl_2_" class="st2" d="M218.8,221.1l-17.9,57.6l47.1-35h-58.5l47.1,35.7L218.8,221.1z"/>
	</g>
	<g>
		<path id="sl_3_" class="st2" d="M150.3,346.1l-17.9,57.6l47.1-35h-58.5l47.1,35.7L150.3,346.1z"/>
	</g>
</g>
</svg>
