<?xml version="1.0" encoding="utf-8"?>
<!-- Generator: Adobe Illustrator 21.0.0, SVG Export Plug-In . SVG Version: 6.00 Build 0)  -->
<svg version="1.1" id="Layer_1" xmlns="http://www.w3.org/2000/svg" xmlns:xlink="http://www.w3.org/1999/xlink" x="0px" y="0px"
	 viewBox="0 0 1140 600" style="enable-background:new 0 0 1140 600;" xml:space="preserve">
<style type="text/css">
	.st0{fill:#BF0A30;}
	.st1{stroke:#FFFFFF;stroke-width:10;}
	.st2{fill:#002868;}
	.st3{fill:#FFFFFF;}
</style>
<rect class="st0" width="1140" height="600"/>
<path class="st1" d="M0,81.8h1140 M0,190.9h1140 M0,300h1140 M0,409.1h1140 M0,518.2h1140"/>
<rect class="st2" width="272.7" height="272.7"/>
<g>
	<g id="B">
		<polygon id="A" class="st3" points="7.4,2 5.7,7.2 8.3,8 		"/>
		<g transform="scale(-1,1)">
			<polygon id="A_1_" class="st3" points="7.4,2 9.1,7.2 6.5,8 			"/>
		</g>
	</g>
	<g>
		<g id="B_1_">
			<polygon id="A_2_" class="st3" points="12.6,5.7 7.2,5.7 7.2,8.5 			"/>
			<g transform="rotate(72)">
				<polygon id="A_3_" class="st3" points="12.6,5.7 8.2,8.9 6.6,6.7 				"/>
			</g>
		</g>
		<g>
			<g id="B_2_">
				<polygon id="A_4_" class="st3" points="2.2,5.7 6.6,8.9 8.3,6.7 				"/>
				<g transform="rotate(-72)">
					<polygon id="A_5_" class="st3" points="2.2,5.7 7.7,5.7 7.7,8.5 					"/>
				</g>
			</g>
			<g>
				<g id="B_3_">
					<polygon id="A_6_" class="st3" points="10.6,11.8 8.9,6.6 6.4,7.5 					"/>
					<g transform="rotate(144)">
						<polygon id="A_7_" class="st3" points="10.6,11.8 6.2,8.6 7.8,6.4 						"/>
					</g>
				</g>
				<g transform="translate(25,25) scale(15)">
					<g id="B_4_">
						<polygon id="A_8_" class="st3" points="4.2,11.8 8.6,8.6 7,6.4 						"/>
						<g transform="rotate(-144)">
							<polygon id="A_9_" class="st3" points="4.2,11.8 5.9,6.6 8.5,7.5 							"/>
						</g>
					</g>
				</g>
			</g>
		</g>
	</g>
</g>
</svg>
