<?xml version="1.0" encoding="utf-8"?>
<!-- Generator: Adobe Illustrator 21.0.0, SVG Export Plug-In . SVG Version: 6.00 Build 0)  -->
<svg version="1.1" id="Layer_1" xmlns="http://www.w3.org/2000/svg" xmlns:xlink="http://www.w3.org/1999/xlink" x="0px" y="0px"
	 viewBox="0 0 500 250" style="enable-background:new 0 0 500 250;" xml:space="preserve">
<style type="text/css">
	.st0{fill:#1EB53A;}
	.st1{fill:#0099B5;}
	.st2{fill:#CE1126;}
	.st3{fill:#FFFFFF;}
</style>
<rect class="st0" width="500" height="250"/>
<rect class="st1" width="500" height="125"/>
<rect y="80" class="st2" width="500" height="90"/>
<rect y="85" class="st3" width="500" height="80"/>
<circle class="st3" cx="70" cy="40" r="30"/>
<circle class="st1" cx="80" cy="40" r="30"/>
<g>
	<g>
		<g>
			<g>
				<g id="t">
					<path id="o" class="st3" d="M0-6l-1.9,5.7L1,0.6"/>
					<g transform="scale(-1,1)">
						<path id="o_1_" class="st3" d="M0-6l1.9,5.7L-1,0.6"/>
					</g>
				</g>
				<g id="f">
					<g id="t_1_">
						<path id="o_2_" class="st3" d="M5.7-1.9h-6v3"/>
						<g transform="rotate(72)">
							<path id="o_3_" class="st3" d="M5.7-1.9L0.9,1.7l-1.8-2.4"/>
						</g>
					</g>
				</g>
				<g>
					<g id="t_2_">
						<path id="o_4_" class="st3" d="M-5.7-1.9l4.9,3.5l1.8-2.4"/>
						<g transform="rotate(-72)">
							<path id="o_5_" class="st3" d="M-5.7-1.9h6v3"/>
						</g>
					</g>
					<g>
						<g id="s">
							<g id="t_3_">
								<path id="o_6_" class="st3" d="M3.5,4.9L1.7-0.9l-2.9,0.9"/>
								<g transform="scale(-1,1)">
									<path id="o_7_" class="st3" d="M3.5,4.9l-4.9-3.5l1.8-2.4"/>
								</g>
							</g>
							<g id="f_1_">
								<g id="t_4_">
									<path id="o_8_" class="st3" d="M-3.5,4.9l4.9-3.5l-1.8-2.4"/>
									<g transform="rotate(144)">
										<path id="o_9_" class="st3" d="M-3.5,4.9l1.9-5.7l2.9,0.9"/>
									</g>
								</g>
							</g>
						</g>
						<g>
							<g>
								<g>
									<g id="t_5_">
										<path id="o_10_" class="st3" d="M0-30l-1.9,5.7L1-23.4"/>
										<g transform="scale(-1,1)">
											<path id="o_11_" class="st3" d="M0-30l1.9,5.7L-1-23.4"/>
										</g>
									</g>
									<g id="f_2_">
										<g id="t_6_">
											<path id="o_12_" class="st3" d="M5.7-25.9h-6v3"/>
											<g transform="rotate(72)">
												<path id="o_13_" class="st3" d="M5.7-25.9l-4.9,3.5l-1.8-2.4"/>
											</g>
										</g>
									</g>
									<g>
										<g id="t_7_">
											<path id="o_14_" class="st3" d="M-5.7-25.9l4.9,3.5l1.8-2.4"/>
											<g transform="rotate(-72)">
												<path id="o_15_" class="st3" d="M-5.7-25.9h6v3"/>
											</g>
										</g>
										<g>
											<g id="s_1_">
												<g id="t_8_">
													<path id="o_16_" class="st3" d="M3.5-19.1l-1.9-5.7l-2.9,0.9"/>
													<g transform="scale(-1,1)">
														<path id="o_17_" class="st3" d="M3.5-19.1l-4.9-3.5l1.8-2.4"/>
													</g>
												</g>
												<g id="f_3_">
													<g id="t_9_">
														<path id="o_18_" class="st3" d="M-3.5-19.1l4.9-3.5l-1.8-2.4"/>
														<g transform="rotate(144)">
															<path id="o_19_" class="st3" d="M-3.5-19.1l1.9-5.7l2.9,0.9"/>
														</g>
													</g>
												</g>
											</g>
											<g>
												<g>
													<g>
														<g id="t_10_">
															<path id="o_20_" class="st3" d="M0-54l-1.9,5.7L1-47.4"/>
															<g transform="scale(-1,1)">
																<path id="o_21_" class="st3" d="M0-54l1.9,5.7L-1-47.4"/>
															</g>
														</g>
														<g id="f_4_">
															<g id="t_11_">
																<path id="o_22_" class="st3" d="M5.7-49.9h-6v3"/>
																<g transform="rotate(72)">
																	<path id="o_23_" class="st3" d="M5.7-49.9l-4.9,3.5l-1.8-2.4"/>
																</g>
															</g>
														</g>
														<g>
															<g id="t_12_">
																<path id="o_24_" class="st3" d="M-5.7-49.9l4.9,3.5l1.8-2.4"/>
																<g transform="rotate(-72)">
																	<path id="o_25_" class="st3" d="M-5.7-49.9h6v3"/>
																</g>
															</g>
															<g id="s3">
																<g id="s_2_">
																	<g id="t_13_">
																		<path id="o_26_" class="st3" d="M3.5-43.1l-1.9-5.7l-2.9,0.9"/>
																		<g transform="scale(-1,1)">
																			<path id="o_27_" class="st3" d="M3.5-43.1l-4.9-3.5l1.8-2.4"/>
																		</g>
																	</g>
																	<g id="f_5_">
																		<g id="t_14_">
																			<path id="o_28_" class="st3" d="M-3.5-43.1l4.9-3.5l-1.8-2.4"/>
																			<g transform="rotate(144)">
																				<path id="o_29_" class="st3" d="M-3.5-43.1l1.9-5.7l2.9,0.9"/>
																			</g>
																		</g>
																	</g>
																</g>
															</g>
															<g>
																<g>
																	<g>
																		<g>
																			<g id="t_15_">
																				<path id="o_30_" class="st3" d="M24-6l-1.9,5.7L25,0.6"/>
																				<g transform="scale(-1,1)">
																					<path id="o_31_" class="st3" d="M24-6l1.9,5.7L23,0.6"/>
																				</g>
																			</g>
																			<g id="f_6_">
																				<g id="t_16_">
																					<path id="o_32_" class="st3" d="M29.7-1.9h-6v3"/>
																					<g transform="rotate(72)">
																						<path id="o_33_" class="st3" d="M29.7-1.9l-4.9,3.5l-1.8-2.4"/>
																					</g>
																				</g>
																			</g>
																			<g>
																				<g id="t_17_">
																					<path id="o_34_" class="st3" d="M18.3-1.9l4.9,3.5l1.8-2.4"/>
																					<g transform="rotate(-72)">
																						<path id="o_35_" class="st3" d="M18.3-1.9h6v3"/>
																					</g>
																				</g>
																				<g>
																					<g id="s_3_">
																						<g id="t_18_">
																							<path id="o_36_" class="st3" d="M27.5,4.9l-1.9-5.7l-2.9,0.9"/>
																							<g transform="scale(-1,1)">
																								<path id="o_37_" class="st3" d="M27.5,4.9l-4.9-3.5l1.8-2.4"/>
																							</g>
																						</g>
																						<g id="f_7_">
																							<g id="t_19_">
																								<path id="o_38_" class="st3" d="M20.5,4.9l4.9-3.5l-1.8-2.4"/>
																								<g transform="rotate(144)">
																									<path id="o_39_" class="st3" d="M20.5,4.9l1.9-5.7l2.9,0.9"/>
																								</g>
																							</g>
																						</g>
																					</g>
																					<g>
																						<g>
																							<g>
																								<g id="t_20_">
																									<path id="o_40_" class="st3" d="M24-30l-1.9,5.7l2.9,0.9"/>
																									<g transform="scale(-1,1)">
																										<path id="o_41_" class="st3" d="M24-30l1.9,5.7L23-23.4"/>
																									</g>
																								</g>
																								<g id="f_8_">
																									<g id="t_21_">
																										<path id="o_42_" class="st3" d="M29.7-25.9h-6v3"/>
																										<g transform="rotate(72)">
																											<path id="o_43_" class="st3" d="M29.7-25.9l-4.9,3.5l-1.8-2.4"/>
																										</g>
																									</g>
																								</g>
																								<g>
																									<g id="t_22_">
																										<path id="o_44_" class="st3" d="M18.3-25.9l4.9,3.5l1.8-2.4"/>
																										<g transform="rotate(-72)">
																											<path id="o_45_" class="st3" d="M18.3-25.9h6v3"/>
																										</g>
																									</g>
																									<g>
																										<g id="s_4_">
																											<g id="t_23_">
																												<path id="o_46_" class="st3" d="M27.5-19.1l-1.9-5.7l-2.9,0.9"/>
																												<g transform="scale(-1,1)">
																													<path id="o_47_" class="st3" d="M27.5-19.1l-4.9-3.5l1.8-2.4"/>
																												</g>
																											</g>
																											<g id="f_9_">
																												<g id="t_24_">
																													<path id="o_48_" class="st3" d="M20.5-19.1l4.9-3.5l-1.8-2.4"/>
																													<path id="o_49_" class="st3" d="M20.5-19.1l1.9-5.7l2.9,0.9"/>
																												</g>
																											</g>
																										</g>
																										<g id="t_26_">
																											<g transform="rotate(144)">
																												<g transform="rotate(72)">
																												</g>
																												<g id="t_25_">
																												</g>
																												<g id="f_11_" transform="rotate(-72)">
																												</g>
																											</g>
																										</g>
																										<g>
																											<g>
																												<g transform="rotate(144)">
																												</g>
																												<g id="s_5_">
																												</g>
																												<g id="s_6_">
																												</g>
																											</g>
																											<g>
																												<g transform="rotate(144)">
																												</g>
																												<g id="s_7_">
																												</g>
																												<g id="s_8_">
																												</g>
																											</g>
																										</g>
																									</g>
																								</g>
																							</g>
																						</g>
																					</g>
																				</g>
																			</g>
																		</g>
																	</g>
																</g>
															</g>
														</g>
													</g>
												</g>
											</g>
										</g>
									</g>
								</g>
							</g>
						</g>
					</g>
				</g>
			</g>
		</g>
	</g>
</g>
</svg>
