<?xml version="1.0" encoding="utf-8"?>
<!-- Generator: Adobe Illustrator 21.0.0, SVG Export Plug-In . SVG Version: 6.00 Build 0)  -->
<svg version="1.1" id="Layer_1" xmlns="http://www.w3.org/2000/svg" xmlns:xlink="http://www.w3.org/1999/xlink" x="0px" y="0px"
	 viewBox="0 0 750 450" style="enable-background:new 0 0 750 450;" xml:space="preserve">
<style type="text/css">
	.st0{fill:#E8112D;}
	.st1{fill:#FFEF00;}
	.st2{clip-path:url(#SVGID_2_);}
	.st3{clip-path:url(#SVGID_4_);}
</style>
<rect class="st0" width="750" height="450"/>
<g>
	<g>
		<g id="r4">
			<path id="r1" class="st1" d="M974.8,924c25.2,66-28.8,168,25.2,216c-18-72,42-150,25.2-216C1008.4,858,949.6,858,974.8,924z"/>
			<g transform="rotate(90)">
				<path id="r1_1_" class="st1" d="M676,574.8C610,600,508,546,460,600c72-18,150,42,216,25.2S742,549.6,676,574.8z"/>
			</g>
			<g transform="rotate(180)">
				<path id="r1_2_" class="st1" d="M1025.2,276C1000,210,1054,108,1000,60c18,72-42,150-25.2,216S1050.4,342,1025.2,276z"/>
			</g>
			<g transform="rotate(270)">
				<path id="r1_3_" class="st1" d="M1324,625.2c66-25.2,168,28.8,216-25.2c-72,18-150-42-216-25.2S1258,650.4,1324,625.2z"/>
			</g>
		</g>
		<g>
			<g id="r4_1_">
				<path id="r1_4_" class="st1" d="M875.9,900.4c3.6,70.6-79.3,150.9-42.8,213.2c5.1-74,86.3-129.7,90.7-197.6
					C928.3,848,872.3,829.8,875.9,900.4z"/>
				<g transform="rotate(90)">
					<path id="r1_5_" class="st1" d="M699.6,475.9c-70.6,3.6-150.9-79.3-213.2-42.8c74,5.1,129.7,86.3,197.6,90.7
						C752,528.3,770.2,472.3,699.6,475.9z"/>
				</g>
				<g transform="rotate(180)">
					<path id="r1_6_" class="st1" d="M1124.1,299.6c-3.6-70.6,79.3-150.9,42.8-213.2c-5.1,74-86.3,129.7-90.7,197.6
						S1127.7,370.2,1124.1,299.6z"/>
				</g>
				<g transform="rotate(18)">
					<path id="r1_7_" class="st1" d="M1300.4,724.1c70.6-3.6,150.9,79.3,213.2,42.8c-74-5.1-129.7-86.3-197.6-90.7
						C1248,671.7,1229.8,727.7,1300.4,724.1z"/>
				</g>
			</g>
			<g>
				<g id="r4_2_">
					<path id="r1_8_" class="st1" d="M789.2,847.3c-18.4,68.2-122,119-106.6,189.6c27.8-68.8,122.1-96.7,147.3-159.9
						S807.6,779.1,789.2,847.3z"/>
					<g transform="rotate(90)">
						<path id="r1_9_" class="st1" d="M752.7,389.2c-68.2-18.4-119-122-189.6-106.6c68.8,27.8,96.7,122.1,159.9,147.3
							C786.3,455.1,820.9,407.6,752.7,389.2z"/>
					</g>
					<g transform="rotate(180)">
						<path id="r1_10_" class="st1" d="M1210.8,352.7c18.4-68.2,122-119,106.6-189.6c-27.8,68.8-122.1,96.7-147.3,159.9
							C1144.9,386.3,1192.4,420.9,1210.8,352.7z"/>
					</g>
					<g transform="rotate(36)">
						<path id="r1_11_" class="st1" d="M1247.3,810.8c68.2,18.4,119,122,189.6,106.6c-68.8-27.8-96.7-122.1-159.9-147.3
							S1179.1,792.4,1247.3,810.8z"/>
					</g>
				</g>
				<g>
					<g id="r4_3_">
						<path id="r1_12_" class="st1" d="M723.1,770.1c-38.6,59.2-152.8,75.4-159.9,147.3c47.7-56.9,146-54.2,189.6-106.6
							S761.6,710.9,723.1,770.1z"/>
						<g transform="rotate(90)">
							<path id="r1_13_" class="st1" d="M829.9,323.1c-59.2-38.6-75.4-152.8-147.3-159.9c56.9,47.7,54.2,146,106.6,189.6
								S889.1,361.6,829.9,323.1z"/>
						</g>
						<g transform="rotate(180)">
							<path id="r1_14_" class="st1" d="M1276.9,429.9c38.6-59.2,152.8-75.4,159.9-147.3c-47.7,56.9-146,54.2-189.6,106.6
								C1203.8,441.6,1238.4,489.1,1276.9,429.9z"/>
						</g>
						<g transform="rotate(54)">
							<path id="r1_15_" class="st1" d="M1170.1,876.9c59.2,38.6,75.4,152.8,147.3,159.9c-56.9-47.7-54.2-146-106.6-189.6
								C1158.4,803.8,1110.9,838.4,1170.1,876.9z"/>
						</g>
					</g>
					<g id="r20" transform="scale(0.25)">
						<g id="r4_4_">
							<path id="r1_16_" class="st1" d="M684.1,676.2c-55,44.4-168.7,24.5-197.6,90.7c62.9-39.4,155.6-6.4,213.2-42.8
								S739.1,631.8,684.1,676.2z"/>
							<g transform="rotate(90)">
								<path id="r1_17_" class="st1" d="M923.8,284.1c-44.4-55-24.5-168.7-90.7-197.6c39.4,62.9,6.4,155.6,42.8,213.2
									S968.2,339.1,923.8,284.1z"/>
							</g>
							<g transform="rotate(180)">
								<path id="r1_18_" class="st1" d="M1315.9,523.8c55-44.4,168.7-24.5,197.6-90.7c-62.9,39.4-155.6,6.4-213.2,42.8
									S1260.9,568.2,1315.9,523.8z"/>
							</g>
							<g transform="rotate(72)">
								<path id="r1_19_" class="st1" d="M1076.2,915.9c44.4,55,24.5,168.7,90.7,197.6c-39.4-62.9-6.4-155.6-42.8-213.2
									S1031.8,860.9,1076.2,915.9z"/>
							</g>
						</g>
					</g>
					<g>
						<g>
							<g id="r4_5_">
								<path id="r1_20_" class="st1" d="M3697.7,3664.3c58.3,276.5-218.9,645.7-35.6,869.1c-26.1-295.7,259.8-566.3,234.7-837.6
									S3639.4,3387.8,3697.7,3664.3z"/>
								<g transform="rotate(90)">
									<path id="r1_21_" class="st1" d="M2735.7,2097.7c-276.5,58.3-645.7-218.9-869.1-35.6c295.7-26.1,566.3,259.8,837.6,234.7
										S3012.2,2039.4,2735.7,2097.7z"/>
								</g>
								<g transform="rotate(180)">
									<path id="r1_22_" class="st1" d="M4302.3,1135.7c-58.3-276.5,218.9-645.7,35.6-869.1c26.1,295.7-259.8,566.3-234.7,837.6
										C4128.3,1375.4,4360.6,1412.2,4302.3,1135.7z"/>
								</g>
								<g transform="rotate(270)">
									<path id="r1_23_" class="st1" d="M5264.3,2702.3c276.5-58.3,645.7,218.9,869.1,35.6c-295.7,26.1-566.3-259.8-837.6-234.7
										C5024.6,2528.3,4987.8,2760.6,5264.3,2702.3z"/>
								</g>
							</g>
							<g>
								<g id="r4_6_">
									<path id="r1_24_" class="st1" d="M3321.8,3509c-30,281-407.7,546.5-302.4,815.6c66.6-289.3,422.1-458.3,482.1-724.1
										C3561.4,3334.8,3351.9,3228,3321.8,3509z"/>
									<g transform="rotate(90)">
										<path id="r1_25_" class="st1" d="M2891,1721.8c-281-30-546.5-407.7-815.6-302.4c289.3,66.6,458.3,422.1,724.1,482.1
											C3065.2,1961.4,3172,1751.9,2891,1721.8z"/>
									</g>
									<g transform="rotate(180)">
										<path id="r1_26_" class="st1" d="M4678.2,1291c30-281,407.7-546.5,302.4-815.6c-66.6,289.3-422.1,458.3-482.1,724.1
											C4438.6,1465.2,4648.1,1572,4678.2,1291z"/>
									</g>
									<g transform="rotate(18)">
										<path id="r1_27_" class="st1" d="M5109,3078.2c281,30,546.5,407.7,815.6,302.4c-289.3-66.6-458.3-422.1-724.1-482.1
											C4934.8,2838.6,4828,3048.1,5109,3078.2z"/>
									</g>
								</g>
								<g>
									<g id="r4_7_">
										<path id="r1_28_" class="st1" d="M3012.3,3245.1c-115.4,258-556.6,393.7-539.7,682.2c152.7-254.6,543.1-305.5,682.2-539.7
											S3127.7,2987.2,3012.3,3245.1z"/>
										<g transform="rotate(90)">
											<path id="r1_29_" class="st1" d="M3154.9,1412.3c-258-115.4-393.7-556.6-682.2-539.7
												c254.6,152.7,305.5,543.1,539.7,682.2S3412.8,1527.7,3154.9,1412.3z"/>
										</g>
										<g transform="rotate(180)">
											<path id="r1_30_" class="st1" d="M4987.7,1554.9c115.4-258,556.6-393.7,539.7-682.2
												c-152.7,254.6-543.1,305.5-682.2,539.7C4706,1646.5,4872.3,1812.8,4987.7,1554.9z"/>
										</g>
										<g transform="rotate(36)">
											<path id="r1_31_" class="st1" d="M4845.1,3387.7c258,115.4,393.7,556.6,682.2,539.7
												c-254.6-152.7-305.5-543.1-539.7-682.2C4753.5,3106,4587.2,3272.3,4845.1,3387.7z"/>
										</g>
									</g>
									<g transform="translate(125,75)">
										<g id="r4_8_">
											<path id="r1_32_" class="st1" d="M2799.5,2898.6c-189.5,209.7-651.1,202.4-724.1,482.1
												c223.9-194.9,610.9-122.7,815.6-302.4C3095.7,2898.5,2989,2688.9,2799.5,2898.6z"/>
											<g transform="rotate(90)">
												<path id="r1_33_" class="st1" d="M3501.4,1199.5C3291.8,1010,3299,548.4,3019.4,475.4
													c194.9,223.9,122.7,610.9,302.4,815.6C3501.5,1495.7,3711.1,1389,3501.4,1199.5z"/>
											</g>
											<g transform="rotate(180)">
												<path id="r1_34_" class="st1" d="M5200.5,1901.4c189.5-209.7,651.1-202.4,724.1-482.1
													c-223.9,194.9-610.9,122.7-815.6,302.4C4904.3,1901.5,5011,2111.1,5200.5,1901.4z"/>
											</g>
											<g transform="rotate(54)">
												<path id="r1_35_" class="st1" d="M4498.6,3600.5c209.7,189.5,202.4,651.1,482.1,724.1
													c-194.9-223.9-122.7-610.9-302.4-815.6S4288.9,3411,4498.6,3600.5z"/>
											</g>
										</g>
										<g id="r20_1_" transform="scale(0.25)">
											<g id="r4_9_">
												<path id="r1_36_" class="st1" d="M2704.2,2503.2c-245,140.9-681.7-8.7-837.6,234.7c273.2-116.2,618.9,72.1,869.1-35.6
													S2949.2,2362.3,2704.2,2503.2z"/>
												<g transform="rotate(90)">
													<path id="r1_37_" class="st1" d="M3896.8,1104.2c-140.9-245,8.7-681.7-234.7-837.6c116.2,273.2-72.1,618.9,35.6,869.1
														S4037.7,1349.2,3896.8,1104.2z"/>
												</g>
												<g transform="rotate(180)">
													<path id="r1_38_" class="st1" d="M5295.8,2296.8c245-140.9,681.7,8.7,837.6-234.7c-273.2,116.2-618.9-72.1-869.1,35.6
														S5050.8,2437.7,5295.8,2296.8z"/>
												</g>
												<g transform="rotate(9)">
													<path id="r1_39_" class="st1" d="M4103.2,3695.8c140.9,245-8.7,681.7,234.7,837.6c-116.2-273.2,72.1-618.9-35.6-869.1
														S3962.3,3450.8,4103.2,3695.8z"/>
												</g>
											</g>
										</g>
										<circle class="st0" cx="4000" cy="2400" r="1296"/>
										<circle class="st1" cx="4000" cy="2328" r="1080"/>
										<g>
											<defs>
												<circle id="SVGID_1_" cx="4000" cy="2400" r="75"/>
											</defs>
											<clipPath id="SVGID_2_">
												<use xlink:href="#SVGID_1_"  style="overflow:visible;"/>
											</clipPath>
											<g id="x" class="st2">
												<path class="st0" d="M2893.3,3264c-0.2-1000.9,811.1-1812.4,1811.9-1812.6c1000.9-0.2,1812.4,811.1,1812.6,1811.9
													c0,0.2,0,0.4,0,0.6h14.6c0-961.3-779.2-1740.5-1740.5-1740.5S3051.5,2302.7,3051.5,3264H2893.3z"/>
												<path class="st0" d="M3155.1,3264c0-935.8,758.6-1694.5,1694.5-1694.5S6544.1,2328.2,6544.1,3264h20.3
													c0-899.3-729.1-1628.4-1628.4-1628.4S3307.6,2364.7,3307.6,3264H3155.1z"/>
												<path class="st0" d="M4993.6,1677.5c-876.2,0-1586.5,710.3-1586.5,1586.5s710.3,1586.5,1586.5,1586.5l86.4-59.2
													c-843.5,0-1527.4-683.8-1527.4-1527.3s683.8-1527.4,1527.3-1527.4c0,0,0,0,0.1,0L4993.6,1677.5z"/>
											</g>
										</g>
										<g transform="scale(-1,1)">
											<g>
												<defs>
													<circle id="SVGID_3_" cx="4000" cy="2400" r="75"/>
												</defs>
												<clipPath id="SVGID_4_">
													<use xlink:href="#SVGID_3_"  style="overflow:visible;"/>
												</clipPath>
												<g id="x_1_" class="st3">
													<path class="st0" d="M5106.7,3264c0.2-1000.9-811.1-1812.4-1811.9-1812.6c-1000.9-0.2-1812.4,811.1-1812.6,1811.9
														c0,0.2,0,0.4,0,0.6h-14.7c0-961.3,779.2-1740.5,1740.5-1740.5S4948.5,2302.7,4948.5,3264H5106.7z"/>
													<path class="st0" d="M4844.9,3264c0-935.8-758.6-1694.5-1694.5-1694.5S1455.9,2328.2,1455.9,3264h-20.3
														c0-899.3,729.1-1628.4,1628.4-1628.4S4692.4,2364.7,4692.4,3264H4844.9z"/>
													<path class="st0" d="M3006.4,1677.5c876.2,0,1586.5,710.3,1586.5,1586.5s-710.3,1586.5-1586.5,1586.5l-86.4-59.2
														c843.5,0,1527.4-683.8,1527.4-1527.3s-683.8-1527.4-1527.3-1527.4c0,0,0,0-0.1,0L3006.4,1677.5z"/>
												</g>
											</g>
										</g>
									</g>
								</g>
							</g>
						</g>
					</g>
				</g>
			</g>
		</g>
	</g>
</g>
</svg>
