<?xml version="1.0" encoding="utf-8"?>
<!-- Generator: Adobe Illustrator 21.0.0, SVG Export Plug-In . SVG Version: 6.00 Build 0)  -->
<svg version="1.1" id="Layer_1" xmlns="http://www.w3.org/2000/svg" xmlns:xlink="http://www.w3.org/1999/xlink" x="0px" y="0px"
	 viewBox="0 0 900 600" style="enable-background:new 0 0 900 600;" xml:space="preserve">
<style type="text/css">
	.st0{fill:#006233;}
	.st1{fill:#FFC400;}
</style>
<rect class="st0" width="900" height="600"/>
<circle class="st1" cx="450" cy="225" r="193.8"/>
<circle class="st0" cx="450" cy="175" r="187.5"/>
<g id="c">
	<path id="t" class="st1" d="M450,100l-23.2,71.3l35.7,11.6"/>
	<g transform="scale(-1,1)">
		<path id="t_1_" class="st1" d="M450,100l23.2,71.3l-35.7,11.6"/>
	</g>
</g>
<g>
	<g id="c_1_">
		<path id="t_2_" class="st1" d="M521.3,151.8h-75v37.5"/>
		<g transform="rotate(72)">
			<path id="t_3_" class="st1" d="M521.3,151.8l-60.7,44.1l-22-30.3"/>
		</g>
	</g>
	<g>
		<g id="c_2_">
			<path id="t_4_" class="st1" d="M494.1,235.7l-23.2-71.3l-35.7,11.6"/>
			<g transform="rotate(144)">
				<path id="t_5_" class="st1" d="M494.1,235.7l-60.7-44.1l22-30.3"/>
			</g>
		</g>
		<g>
			<g id="c_3_">
				<path id="t_6_" class="st1" d="M405.9,235.7l60.7-44.1l-22-30.3"/>
				<g transform="rotate(216)">
					<path id="t_7_" class="st1" d="M405.9,235.7l23.2-71.3l35.7,11.6"/>
				</g>
			</g>
			<g>
				<g id="c_4_">
					<path id="t_8_" class="st1" d="M378.7,151.8l60.7,44.1l22-30.3"/>
					<g transform="rotate(288)">
						<path id="t_9_" class="st1" d="M378.7,151.8h75v37.5"/>
					</g>
				</g>
			</g>
		</g>
	</g>
</g>
</svg>
