<?xml version="1.0" encoding="utf-8"?>
<!-- Generator: Adobe Illustrator 21.0.0, SVG Export Plug-In . SVG Version: 6.00 Build 0)  -->
<svg version="1.1" id="Layer_1" xmlns:sodipodi="http://sodipodi.sourceforge.net/DTD/sodipodi-0.dtd"
	 xmlns="http://www.w3.org/2000/svg" xmlns:xlink="http://www.w3.org/1999/xlink" x="0px" y="0px" viewBox="0 0 1000 600"
	 style="enable-background:new 0 0 1000 600;" xml:space="preserve">
<style type="text/css">
	.st0{fill:#002B7F;}
	.st1{fill:#CE1126;}
	.st2{fill:#FFD83D;}
	.st3{fill:#FFD83D;stroke:#000000;stroke-width:1.5;stroke-linecap:round;stroke-linejoin:round;}
	.st4{stroke:#000000;stroke-width:1.5;stroke-linecap:round;stroke-linejoin:round;}
	.st5{fill:#FFD83D;stroke:#000000;stroke-width:2;stroke-linecap:round;stroke-linejoin:round;}
	.st6{fill:none;stroke:#000000;stroke-width:1.5;stroke-linecap:round;stroke-linejoin:round;}
</style>
<rect class="st0" width="1000" height="600"/>
<rect y="300" class="st1" width="1000" height="300"/>
<g>
	<g id="half">
		<path class="st2" d="M216.4,122.3l-1.8,62.5h-63.4c-7.8-15.2-14.2-28.1-14.2-45.5c0-14.6,11.5-26.2,28-26.2
			C182.4,113.1,201.7,119,216.4,122.3z"/>
		<g>
			<path class="st3" d="M144.5,125.2v36.1"/>
			<path class="st3" d="M149.5,121.5v48"/>
			<path class="st3" d="M154.6,119v57.2"/>
			<path class="st3" d="M159.7,117.8v44.9"/>
			<path class="st3" d="M164.8,117.5v45.3"/>
			<path class="st3" d="M169.9,116v46.9"/>
			<path class="st3" d="M175,116v46.9"/>
			<path class="st3" d="M180.1,116.4v46.9"/>
			<path class="st3" d="M185.2,116.9v46.9"/>
			<path class="st3" d="M190.3,119.9v46.9"/>
			<path class="st3" d="M195.4,120.3v52.9"/>
			<path class="st3" d="M200.5,120.3v46.9"/>
			<path class="st3" d="M205.6,120.3v46.9"/>
			<path class="st4" d="M176.4,117.9c10.8,1.8,34.4,12.8,31.7,27.8c-3.8,21.2-16.2,12.7-32.6,9.7l-12.4,4.1
				c-4.4,4.5-11,8.7-15.4,3.2h-7.4v28.7h81.3v-69.4L176.4,117.9z"/>
		</g>
		<circle class="st5" cx="212.8" cy="113" r="4.9"/>
		<circle class="st5" cx="201.7" cy="110.3" r="4.9"/>
		<circle class="st5" cx="190.4" cy="107.5" r="4.9"/>
		<circle class="st5" cx="179.1" cy="105.6" r="4.9"/>
		<circle class="st5" cx="167.8" cy="104.5" r="4.9"/>
		<circle class="st5" cx="156.7" cy="105.1" r="4.9"/>
		<circle class="st5" cx="146.2" cy="108.7" r="4.9"/>
		<circle class="st5" cx="137.3" cy="115.3" r="4.9"/>
		<circle class="st5" cx="131" cy="124.4" r="4.9"/>
		<circle class="st5" cx="127.9" cy="135.2" r="4.9"/>
		<circle class="st5" cx="128" cy="146.3" r="4.9"/>
		<circle class="st5" cx="130.2" cy="157.2" r="4.9"/>
		<path class="st5" d="M215,119.5l-0.5,6.4c-12.3-1.9-29.7-8.7-46-8.7c-15,0-26.7,6-26.7,21.1c0,14.9,6.3,28.5,14.7,42.3l-8.7,4.1
			c-7.8-15.2-14.2-28.1-14.2-45.5c0-14.6,11.5-29,31.2-29C182.4,110.3,200.3,116.2,215,119.5z"/>
	</g>
	<g transform="translate(443.9375) scale(-1,1)">
		<g id="half_1_">
			<path class="st2" d="M227.6,122.3l1.8,62.5h63.4c7.8-15.2,14.2-28.1,14.2-45.5c0-14.6-11.5-26.2-28-26.2
				C261.5,113.1,242.3,119,227.6,122.3z"/>
			<g>
				<path class="st3" d="M299.5,125.2v36.1"/>
				<path class="st3" d="M294.4,121.5v48"/>
				<path class="st3" d="M289.3,119v57.2"/>
				<path class="st3" d="M284.2,117.8v44.9"/>
				<path class="st3" d="M279.1,117.5v45.3"/>
				<path class="st3" d="M274,116v46.9"/>
				<path class="st3" d="M268.9,116v46.9"/>
				<path class="st3" d="M263.8,116.4v46.9"/>
				<path class="st3" d="M258.7,116.9v46.9"/>
				<path class="st3" d="M253.6,119.9v46.9"/>
				<path class="st3" d="M248.5,120.3v52.9"/>
				<path class="st3" d="M243.5,120.3v46.9"/>
				<path class="st3" d="M238.4,120.3v46.9"/>
				<path class="st4" d="M267.5,117.9c-10.8,1.8-34.4,12.8-31.7,27.8c3.8,21.2,16.2,12.7,32.6,9.7l12.4,4.1c4.4,4.5,11,8.7,15.4,3.2
					h7.4v28.7h-81.3v-69.4L267.5,117.9z"/>
			</g>
			<circle class="st5" cx="231.1" cy="113" r="4.9"/>
			<circle class="st5" cx="242.2" cy="110.3" r="4.9"/>
			<circle class="st5" cx="253.5" cy="107.5" r="4.9"/>
			<circle class="st5" cx="264.8" cy="105.6" r="4.9"/>
			<circle class="st5" cx="276.1" cy="104.5" r="4.9"/>
			<circle class="st5" cx="287.2" cy="105.1" r="4.9"/>
			<circle class="st5" cx="297.8" cy="108.7" r="4.9"/>
			<circle class="st5" cx="306.7" cy="115.3" r="4.9"/>
			<circle class="st5" cx="313" cy="124.4" r="4.9"/>
			<circle class="st5" cx="316" cy="135.2" r="4.9"/>
			<circle class="st5" cx="315.9" cy="146.3" r="4.9"/>
			<circle class="st5" cx="313.8" cy="157.2" r="4.9"/>
			<path class="st5" d="M228.9,119.5l0.5,6.4c12.3-1.9,29.7-8.7,46-8.7c15,0,26.7,6,26.7,21.1c0,14.9-6.3,28.5-14.7,42.3l8.7,4.1
				c7.8-15.2,14.2-28.1,14.2-45.5c0-14.6-11.5-29-31.2-29C261.5,110.3,243.6,116.2,228.9,119.5z"/>
		</g>
	</g>
	<path class="st5" d="M222,53.1l-5.2,9.7l5.2,9.6l5.2-9.6L222,53.1z M222,77.5l-5.2,9.6l5.2,9.7l5.2-9.7L222,77.5z"/>
	<path class="st5" d="M203.6,75l8.1,5.2l8.1-5.2l-8.1-5.2L203.6,75z M224.1,75l8.1,5.2l8.1-5.2l-8.1-5.2L224.1,75z"/>
	<circle class="st5" cx="222" cy="75.1" r="3.9"/>
	<circle class="st5" cx="222" cy="100" r="10.5"/>
	<path class="st6" d="M219.3,89.9c0,3.1,0,4.9,0,6.6c-2.5,0.1-5,0.4-7.4,0.8 M232.1,97.3c-2.4-0.4-4.9-0.7-7.4-0.8
		c0-1.7,0-3.5,0-6.6 M211.8,102.6c3.3-0.6,6.7-0.8,10.1-0.8s6.8,0.3,10.1,0.8"/>
	<path class="st5" d="M211.8,117.7c-1,17.1-3,34.5-9.7,47.1l10.8-4.4c3.8-14.3,4.6-32.8,5.7-41.6L211.8,117.7z M232.2,117.7
		l-6.9,1.2c1.1,8.8,1.9,27.3,5.7,41.6l10.8,4.4C235.2,152.2,233.2,134.8,232.2,117.7z"/>
	<path class="st5" d="M222,154.7c-12.9,0-22.4,6.1-23,21.6c-3.2-5.6-16.5-23-29-20.7c-7.4,1.4-14,11.7-12.8,23.4
		c-6.1-17.6-24.1-20.5-37.2-10.1c11.6,9.6,16.8,37.8,26.6,50.1H222h75.4c9.8-12.3,15-40.5,26.7-50.1c-13.1-10.4-31.1-7.5-37.2,10.1
		c1.1-11.8-5.5-22-12.9-23.4c-12.5-2.3-25.8,15.1-28.9,20.7C244.4,160.8,234.9,154.7,222,154.7z"/>
	<g>
		<path class="st4" d="M297.1,219c0,5.6-33.7,11.7-75.1,11.7s-75.1-6.1-75.1-11.7c0-5.6,33.7-8.5,75.1-8.5S297.1,213.4,297.1,219z"
			/>
		<circle class="st3" cx="222" cy="114.4" r="3.5"/>
		<circle class="st3" cx="222" cy="122" r="3.7"/>
		<circle class="st3" cx="222" cy="130.2" r="4.1"/>
		<circle class="st3" cx="222" cy="139.3" r="4.7"/>
		<circle class="st3" cx="222" cy="149.4" r="5.1"/>
		<path d="M219.9,159.2c-0.6,0-1.1,0.5-0.9,1.3c0.2,1,0.4,3,0.6,4.3c0.2,1.5,1.1,1.1,1.3,0c0.2-1.2,0.1-1.9,0.2-4.1
			C221.1,159.7,220.5,159.2,219.9,159.2z M224,159.2c-0.6,0-1.2,0.5-1.1,1.6c0.1,2.2,0,2.9,0.2,4.1c0.2,1.2,1.1,1.5,1.3,0
			c0.2-1.3,0.4-3.3,0.6-4.3C225.1,159.7,224.6,159.2,224,159.2z M216.3,159.8c-0.5,0.1-1,0.6-1,1.1c0.1,1,0.3,2.2,0.4,3.7
			c0.1,1.5,1.2,0.9,1.3,0.1c0.1-0.9,0.2-2.2,0.1-3.9c0-0.6-0.3-0.9-0.7-1C216.5,159.8,216.4,159.8,216.3,159.8z M227.4,159.8
			c-0.3,0-0.6,0.3-0.7,1c-0.1,1.7,0,3,0.1,3.9c0.1,0.9,1.2,1.5,1.3-0.1c0.1-1.5,0.4-2.7,0.4-3.7c0-0.5-0.5-1.1-1-1.1
			C227.6,159.8,227.5,159.8,227.4,159.8z M212,161.5c-0.5,0.1-0.9,0.7-0.8,1.3c0.3,1.3,0.5,2.7,0.5,4c0,1.1,0.9,0.7,1-0.1
			c0.1-0.8,0.2-2.4,0.2-3.9C212.9,161.7,212.4,161.4,212,161.5z M231.7,161.5c-0.3,0.1-0.6,0.5-0.6,1.3c0,1.5,0.1,3.1,0.2,3.9
			c0.1,0.8,1,1.2,1,0.1c0-1.3,0.3-2.7,0.5-4c0.1-0.6-0.3-1.2-0.8-1.3C231.9,161.5,231.8,161.5,231.7,161.5z M172.6,161.7
			c-0.6,0-0.9,0.7-0.6,1.6c0.6,1.3,1.3,2.2,1.9,3.6c0.6,1.3,1.4,0.5,1.1-0.4c-0.3-0.9-0.6-1.9-1.4-3.8
			C173.3,162,172.9,161.7,172.6,161.7z M271.4,161.7c-0.3,0-0.7,0.3-1,1c-0.8,1.9-1.1,2.9-1.4,3.8c-0.3,0.9,0.6,1.7,1.1,0.4
			c0.6-1.4,1.3-2.3,1.9-3.6C272.3,162.4,271.9,161.7,271.4,161.7z M176.6,161.8c-0.4,0.1-0.7,0.6-0.4,1.2c0.5,1.2,1.2,2.5,1.7,3.8
			c0.4,1.2,1.4,0.8,1.1-0.2c-0.3-1.1-0.4-1.7-1.1-3.7C177.5,161.9,177,161.6,176.6,161.8z M267.1,161.8c-0.3,0.1-0.8,0.4-1,1.2
			c-0.7,2-0.8,2.6-1.1,3.7c-0.3,1.1,0.7,1.4,1.1,0.2c0.5-1.3,1.2-2.6,1.7-3.8c0.2-0.6,0-1.1-0.4-1.2
			C267.3,161.7,267.2,161.7,267.1,161.8z M181.6,162.7c-0.5,0.1-0.9,0.9-0.6,1.8c0.4,1.2,1.1,2.4,1.6,3.8s1.5,1.1,1.2,0.2
			c-0.2-0.9-0.5-2.4-1.2-4.6C182.4,163,182,162.6,181.6,162.7z M262.4,162.7c-0.4-0.1-0.9,0.3-1.2,1.2c-0.7,2.2-0.9,3.7-1.2,4.6
			c-0.2,0.9,0.7,1.2,1.2-0.2s1.2-2.5,1.6-3.8C263.3,163.6,262.9,162.8,262.4,162.7z M169.2,163.4c-0.6,0.1-1.1,1-0.7,1.7
			c0.6,1.1,0.9,1.5,1.4,2.7c0.6,1.2,1.2,0.3,0.9-0.5c-0.2-0.8-0.5-1.7-0.8-2.8C169.9,163.6,169.5,163.4,169.2,163.4z M274.8,163.4
			c-0.3,0-0.7,0.2-0.9,1c-0.3,1.1-0.6,2-0.8,2.8s0.4,1.7,0.9,0.5c0.5-1.2,0.9-1.6,1.4-2.7C275.8,164.4,275.3,163.5,274.8,163.4z
			 M207.7,166.2c-0.6,0-1.2,0.8-1,1.5c0.3,1.2,0.8,2.2,1.2,3.7c0.3,1.3,1.3,0.7,1.2-0.2c-0.1-0.9-0.2-2.1-0.6-4
			C208.4,166.5,208.1,166.2,207.7,166.2z M236.2,166.2c-0.4,0-0.7,0.3-0.8,1c-0.4,1.9-0.5,3.1-0.6,4c-0.1,0.9,0.9,1.5,1.2,0.2
			c0.4-1.5,0.9-2.5,1.2-3.7C237.4,167,236.8,166.2,236.2,166.2z M222,167.4c-0.7,0-0.8,1-0.8,1.8c-0.1,2.6-1.1,5.1-2.1,6.3
			c-0.9,1.2-2.3,0.9-3.5,0.2s-2-1.2-3.3-2.2c-1.3-1-2.3-0.4-0.8,1.8c4.6,6.6,9.6,12.2,9.6,22.9c0,1.4,0.2,1.8,0.8,1.8
			s0.9-0.4,0.9-1.8c0-10.7,5-16.4,9.6-22.9c1.6-2.3,0.6-2.8-0.8-1.8c-1.3,1-2.1,1.5-3.3,2.2c-1.2,0.7-2.6,1-3.5-0.2
			c-0.9-1.2-2-3.7-2.1-6.3C222.8,168.4,222.7,167.4,222,167.4z M186.7,165.8c-0.1,0-0.1,0-0.2,0c-0.3,0.1-0.4,0.4-0.3,1
			c0.2,1,0.9,3,1.2,3.9c0.3,0.9,1.4,0.7,1.2-0.5c-0.3-1.3-0.3-1.7-0.6-3.1C187.7,166.3,187.1,165.8,186.7,165.8z M257.2,165.8
			c-0.4,0-1,0.5-1.2,1.3c-0.3,1.4-0.3,1.8-0.6,3.1c-0.3,1.3,0.9,1.5,1.2,0.5c0.3-0.9,1-2.9,1.2-3.9c0.1-0.6-0.1-0.9-0.3-1
			C257.4,165.8,257.3,165.8,257.2,165.8z M165.7,166.2c-0.6,0-1,0.8-0.4,1.8c0.6,1.2,1.7,2.6,2.2,3.4s1.4,0.3,0.8-0.8
			c-0.6-1.1-0.8-2.3-1.5-3.8C166.5,166.4,166.1,166.2,165.7,166.2z M278.2,166.2c-0.3,0-0.8,0.2-1,0.8c-0.7,1.5-0.9,2.7-1.5,3.8
			c-0.6,1.1,0.3,1.6,0.8,0.8s1.6-2.3,2.2-3.4C279.2,167,278.8,166.2,278.2,166.2z M134,169.5c-0.7,0-0.9,1.2-0.2,2
			c0.9,1.2,1.5,1.8,2.6,2.7c0.8,0.7,1.1-0.2,0.7-1c-0.4-0.7-1-1.5-1.8-2.8C134.7,169.8,134.3,169.5,134,169.5z M309.9,169.5
			c-0.3,0-0.7,0.3-1.2,1c-0.8,1.2-1.4,2-1.8,2.8c-0.4,0.7-0.2,1.7,0.7,1c1-0.9,1.7-1.6,2.6-2.7C310.8,170.7,310.6,169.5,309.9,169.5
			z M139.1,170.5c-0.5,0-0.9,0.4-0.5,1.3c0.6,1.3,1.4,2.8,1.9,3.8c0.5,1,2,1.3,1.4-0.2c-0.6-1.5-0.7-2.3-1.3-3.8
			C140.3,170.9,139.6,170.5,139.1,170.5z M304.9,170.5c-0.5,0-1.3,0.4-1.5,1.1c-0.6,1.4-0.7,2.2-1.3,3.8c-0.6,1.5,0.9,1.2,1.4,0.2
			c0.5-1,1.3-2.5,1.9-3.8C305.8,170.9,305.4,170.5,304.9,170.5z M129.3,170.9c-0.8,0-0.8,0.8-0.2,1.3c0.9,0.7,2,1.4,3.1,2.2
			c1.2,1,1.7,0.1,1.1-0.8c-0.7-0.8-1.3-1.7-3-2.5C129.9,170.9,129.6,170.9,129.3,170.9z M314.6,170.9c-0.3,0-0.6,0.1-1,0.3
			c-1.7,0.8-2.3,1.7-3,2.5c-0.7,0.8-0.2,1.7,1.1,0.8c1.1-0.9,2.1-1.6,3.1-2.2C315.5,171.6,315.4,170.9,314.6,170.9z M205,171.6
			c-0.4,0.1-0.8,0.6-0.6,1.2c0.3,1.2,0.7,2.4,0.9,3.6c0.2,1.2,1.6,1.2,1.3,0.1c-0.2-1.1-0.3-2.4-0.7-4c-0.1-0.6-0.4-0.9-0.8-0.9
			C205.1,171.6,205,171.6,205,171.6z M238.8,171.6c-0.3,0-0.6,0.3-0.8,0.9c-0.4,1.6-0.5,2.9-0.7,4c-0.2,1.1,1.1,1,1.3-0.1
			c0.2-1.2,0.6-2.4,0.9-3.6c0.2-0.6-0.2-1.1-0.6-1.2C238.9,171.6,238.8,171.6,238.8,171.6z M174.9,169.6c-0.3,0.1-0.5,0.7-0.3,1.7
			c1.4,5.1,1.8,7.7,1.6,9c-0.2,1.2-0.9,1.4-1.8,1c-0.9-0.4-2-1-2.8-1.6c-0.8-0.6-1.7,0.1-0.5,1.1c6.1,5,10.3,10.7,11.9,17.6
			c0.3,1.4,1.2,1.6,1,0c-1.4-8.7-1.6-15.8,0.4-20.3c0.8-1.7,0-3.3-1.2-0.6c-0.8,1.8-2.2,2.5-3.2,1c-1.1-1.6-3.3-5.8-4-7.7
			c-0.2-0.7-0.6-1-0.8-1.1C175,169.6,174.9,169.6,174.9,169.6z M268.9,169.6c-0.3,0-0.6,0.4-0.8,1.1c-0.7,1.9-2.9,6.1-4,7.7
			c-1.1,1.6-2.4,0.9-3.2-1c-1.2-2.7-2-1.1-1.2,0.6c2.1,4.5,1.8,11.6,0.4,20.3c-0.2,1.6,0.6,1.4,1,0c1.6-6.9,5.8-12.6,11.9-17.6
			c1.2-1,0.3-1.7-0.5-1.1c-0.8,0.6-1.9,1.2-2.8,1.6c-0.9,0.4-1.6,0.2-1.8-1c-0.2-1.2,0.2-3.9,1.6-9c0.3-0.9,0.1-1.6-0.3-1.7
			C269,169.6,269,169.6,268.9,169.6z M144.4,172c-0.5,0-1,0.4-0.8,1.2c0.4,1.3,1.2,2.8,1.5,3.6c0.3,0.8,1.2,0.4,1-0.7
			s-0.2-1.9-0.5-3.1C145.6,172.4,145,172,144.4,172z M299.5,172c-0.5,0-1.2,0.3-1.3,1c-0.2,1.3-0.3,2-0.5,3.1s0.7,1.5,1,0.7
			c0.3-0.8,1.1-2.3,1.5-3.6C300.5,172.4,300,172,299.5,172z M163.2,170.3c-0.6-0.1-0.7,1.5-0.2,2.2c0.7,0.9,1.7,2,2.7,3.2
			c0.8,1,1.3,0.1,0.8-0.7c-0.5-0.8-1.2-1.7-2.6-3.8C163.7,170.6,163.4,170.3,163.2,170.3z M280.7,170.3c-0.2,0-0.5,0.3-0.8,0.8
			c-1.3,2.1-2.1,3-2.6,3.8c-0.5,0.8,0,1.7,0.8,0.7c1-1.2,2-2.3,2.7-3.2C281.4,171.8,281.4,170.2,280.7,170.3z M148.7,174.2
			c-0.4,0-0.7,0.3-0.6,1.1c0.2,1.1,0.6,2,0.8,3.1c0.3,1.1,1,0.9,1-0.1c0-1-0.2-2.1-0.3-3.2C149.6,174.6,149.1,174.3,148.7,174.2z
			 M295.2,174.2c-0.4,0-0.9,0.4-0.9,0.9c-0.2,1.1-0.3,2.2-0.3,3.2c0,1,0.7,1.2,1,0.1c0.3-1.1,0.6-2,0.8-3.1
			C295.9,174.5,295.6,174.2,295.2,174.2z M161.8,175.7c-0.6,0.1-1.2,0.7-0.4,1.6c1.2,1.5,2.4,2.5,2.9,3.1c0.4,0.6,1.6,0.3,0.8-0.8
			c-0.7-1.2-1.8-2.6-2.3-3.5C162.6,175.7,162.2,175.6,161.8,175.7z M281.9,175.7c-0.3,0-0.5,0.2-0.7,0.4c-0.5,0.9-1.6,2.3-2.3,3.5
			c-0.7,1.2,0.4,1.4,0.8,0.8c0.4-0.6,1.7-1.6,2.9-3.1c0.7-0.9,0.2-1.5-0.4-1.6C282,175.6,282,175.6,281.9,175.7z M141.2,179.8
			c-0.5,0-0.7,0.3,0,1.2c1.5,2,3.1,5.1,3.2,6.5c0.1,1.3-0.5,1.3-1.2,1.3c-1.8,0-2.7-1.3-4.4-1.7c-1.7-0.4-1.9,0.5-0.7,1.3
			c6.1,4.4,12.2,9.4,14.6,13.8c1,1.8,2.3,2.5,1.6,0.8c-2.3-5.3-2.8-9.9-2.3-12.6c0.5-2.7,1.2-4.6,1.1-6.2c-0.1-1.6-1-1.5-1.3,0
			c-0.2,1-0.7,2.3-1.1,2.8c-0.3,0.5-1.7,0.8-2.9-0.9c-1.3-1.7-4.5-5-5.5-5.8C141.9,180.1,141.4,179.9,141.2,179.8z M302.8,179.8
			c-0.3,0-0.7,0.2-1.1,0.5c-1.1,0.8-4.3,4.1-5.5,5.8c-1.3,1.7-2.6,1.4-2.9,0.9c-0.3-0.5-0.8-1.8-1.1-2.8c-0.4-1.5-1.3-1.6-1.3,0
			c-0.1,1.6,0.6,3.4,1.1,6.2c0.5,2.7-0.1,7.3-2.3,12.6c-0.7,1.7,0.6,1.1,1.6-0.8c2.4-4.5,8.5-9.4,14.6-13.8c1.2-0.9,0.9-1.7-0.7-1.3
			c-1.7,0.4-2.6,1.7-4.4,1.7c-0.6,0-1.3,0-1.2-1.3c0.1-1.3,1.8-4.4,3.2-6.5C303.4,180.2,303.3,179.8,302.8,179.8z"/>
		<path class="st3" d="M150.1,212.7l1.9,6.2 M154.1,211.5l1.7,6.2 M158.5,210.8l1.2,6.4 M162.5,210l1.3,6.3 M167.6,209.5l1,6.4
			 M173.1,209.5l1.1,6.4 M178.5,207.7l0.8,6.4 M183.5,208l0.8,6.4 M188.4,207.3l0.8,6.4 M193.3,206.8l0.4,6.5 M198.5,206.8l0.4,6.5
			 M203.3,206.5l0.3,6.5 M208.5,206.2l0.3,6.5 M214.5,206l0.3,6.5 M293.8,212.7l-1.9,6.2 M289.8,211.5l-1.7,6.2 M285.5,210.8
			l-1.2,6.4 M281.4,210l-1.3,6.3 M276.3,209.5l-1,6.4 M270.8,209.5l-1.1,6.4 M265.5,207.7l-0.8,6.4 M260.4,208l-0.8,6.4
			 M255.5,207.3l-0.8,6.4 M250.6,206.8l-0.4,6.5 M245.4,206.8l-0.4,6.5 M240.7,206.5l-0.3,6.5 M235.5,206.2l-0.3,6.5 M229.4,206
			l-0.3,6.5 M222,205.6v7.1"/>
	</g>
</g>
</svg>
