<?xml version="1.0" encoding="utf-8"?>
<!-- Generator: Adobe Illustrator 21.0.0, SVG Export Plug-In . SVG Version: 6.00 Build 0)  -->
<svg version="1.1" id="Layer_1" xmlns="http://www.w3.org/2000/svg" xmlns:xlink="http://www.w3.org/1999/xlink" x="0px" y="0px"
	 viewBox="0 0 1600 800" style="enable-background:new 0 0 1600 800;" xml:space="preserve">
<style type="text/css">
	.st0{fill:#024FA2;}
	.st1{fill:#FFFFFF;}
	.st2{fill:#ED1C27;}
</style>
<rect class="st0" width="1600" height="800"/>
<rect y="133.3" class="st1" width="1600" height="533.3"/>
<rect y="155.6" class="st2" width="1600" height="488.9"/>
<circle class="st1" cx="533.3" cy="400" r="177.8"/>
<g>
	<g id="cone">
		<polygon id="triangle" class="st2" points="65.7,27.1 58.9,48.2 69.4,51.6 		"/>
		<g id="use12" transform="scale(-1,1)">
			<polygon id="triangle_1_" class="st2" points="65.7,27.1 72.6,48.2 62,51.6 			"/>
		</g>
	</g>
	<g>
		<g id="cone_1_">
			<polygon id="triangle_2_" class="st2" points="86.9,42.4 64.6,42.4 64.6,53.5 			"/>
			<g id="use14" transform="rotate(72)">
				<polygon id="triangle_3_" class="st2" points="86.9,42.4 68.9,55.5 62.3,46.5 				"/>
			</g>
		</g>
		<g>
			<g id="cone_2_">
				<polygon id="triangle_4_" class="st2" points="44.6,42.4 62.6,55.5 69.1,46.5 				"/>
				<g id="use16" transform="rotate(-72)">
					<polygon id="triangle_5_" class="st2" points="44.6,42.4 66.8,42.4 66.8,53.5 					"/>
				</g>
			</g>
			<g>
				<g id="cone_3_">
					<polygon id="triangle_6_" class="st2" points="78.8,67.3 71.9,46.1 61.3,49.6 					"/>
					<g id="use18" transform="rotate(144)">
						<polygon id="triangle_7_" class="st2" points="78.8,67.3 60.8,54.2 67.3,45.2 						"/>
					</g>
				</g>
				<g id="star" transform="translate(24,18) scale(7.75)">
					<g id="cone_4_">
						<polygon id="triangle_8_" class="st2" points="52.7,67.3 70.6,54.2 64.1,45.2 						"/>
						<g id="use20" transform="rotate(-144)">
							<polygon id="triangle_9_" class="st2" points="52.7,67.3 59.5,46.1 70.1,49.6 							"/>
						</g>
					</g>
				</g>
			</g>
		</g>
	</g>
</g>
</svg>
