<?xml version="1.0" encoding="utf-8"?>
<!-- Generator: Adobe Illustrator 21.0.0, SVG Export Plug-In . SVG Version: 6.00 Build 0)  -->
<svg version="1.1" id="Layer_1" xmlns="http://www.w3.org/2000/svg" xmlns:xlink="http://www.w3.org/1999/xlink" x="0px" y="0px"
	 viewBox="0 0 900 600" style="enable-background:new 0 0 900 600;" xml:space="preserve">
<style type="text/css">
	.st0{fill:#ED0000;}
	.st1{stroke:#FFFFFF;stroke-width:6;}
	.st2{fill:#0050F0;}
	.st3{fill:#FFFFFF;}
</style>
<rect class="st0" width="900" height="600"/>
<path class="st1" d="M0,180h900 M0,420h900"/>
<path class="st2" d="M0,0l519.6,300L0,600V0z"/>
<comment>the star is in the center of gravity of the triangle, so the x-pos is irrational (tan(30 deg) * 15)</comment>
<g>
	<g id="cone">
		<polygon id="triangle" class="st3" points="32.9,37 26.7,56 36.2,59.1 		"/>
		<g transform="scale(-1,1)">
			<polygon id="triangle_1_" class="st3" points="32.9,37 39.1,56 29.6,59.1 			"/>
		</g>
	</g>
	<g>
		<g id="cone_1_">
			<polygon id="triangle_2_" class="st3" points="51.9,50.8 31.9,50.8 31.9,60.8 			"/>
			<g transform="rotate(72)">
				<polygon id="triangle_3_" class="st3" points="51.9,50.8 35.7,62.6 29.9,54.5 				"/>
			</g>
		</g>
		<g>
			<g id="cone_2_">
				<polygon id="triangle_4_" class="st3" points="13.9,50.8 30.1,62.6 35.9,54.5 				"/>
				<g transform="rotate(-72)">
					<polygon id="triangle_5_" class="st3" points="13.9,50.8 33.9,50.8 33.9,60.8 					"/>
				</g>
			</g>
			<g>
				<g id="cone_3_">
					<polygon id="triangle_6_" class="st3" points="44.7,73.2 38.5,54.2 29,57.2 					"/>
					<g transform="rotate(144)">
						<polygon id="triangle_7_" class="st3" points="44.7,73.2 28.5,61.4 34.4,53.3 						"/>
					</g>
				</g>
				<g transform="translate(8.6602540378443864676372317075294,15) scale(5)">
					<g id="cone_4_">
						<polygon id="triangle_8_" class="st3" points="21.2,73.2 37.3,61.4 31.5,53.3 						"/>
						<g transform="rotate(-144)">
							<polygon id="triangle_9_" class="st3" points="21.2,73.2 27.3,54.2 36.8,57.2 							"/>
						</g>
					</g>
				</g>
			</g>
		</g>
	</g>
</g>
</svg>
