<?xml version="1.0" encoding="utf-8"?>
<!-- Generator: Adobe Illustrator 21.0.0, SVG Export Plug-In . SVG Version: 6.00 Build 0)  -->
<svg version="1.1" id="Layer_1" xmlns="http://www.w3.org/2000/svg" xmlns:xlink="http://www.w3.org/1999/xlink" x="0px" y="0px"
	 viewBox="0 0 900 600" style="enable-background:new 0 0 900 600;" xml:space="preserve">
<style type="text/css">
	.st0{fill:#CE1126;}
	.st1{fill:#339E35;}
</style>
<title>Flag of Malawi</title>
<rect width="900" height="600"/>
<g>
	<circle class="st0" cx="450" cy="228" r="129"/>
	<rect y="200" class="st0" width="900" height="200"/>
	<g>
		<g>
			<g>
				<g id="r2">
					<path id="r" class="st0" d="M450,24c-4.4,0-6,6.6-6,13c0,16,2,24,6,47c4.1-23,6-31.2,6-47C456,30.4,454,24,450,24"/>
					<g transform="rotate(5)">
						<path id="r_1_" class="st0" d="M467.8,24.8c-4.4-0.4-6.6,6.1-7.1,12.4c-1.4,15.9-0.1,24.1,1.9,47.3
							c6.1-22.6,8.7-30.6,10.1-46.3C473.2,31.7,471.8,25.1,467.8,24.8"/>
					</g>
				</g>
				<g id="r4">
					<g id="r2_1_">
						<path id="r_2_" class="st0" d="M485.4,27.1c-4.3-0.8-7.1,5.5-8.2,11.8c-2.8,15.8-2.2,24-2.3,47.3c8-21.9,11.3-29.7,14.1-45.2
							C490.2,34.4,489.4,27.8,485.4,27.1"/>
						<g transform="rotate(10)">
							<path id="r_3_" class="st0" d="M502.8,31c-4.3-1.1-7.5,4.8-9.2,11c-4.1,15.5-4.3,23.7-6.4,47c9.9-21.2,13.9-28.6,18-43.8
								C506.9,38.7,506.7,32,502.8,31"/>
						</g>
					</g>
				</g>
				<g>
					<g id="r8">
						<g id="r2_2_">
							<path id="r_4_" class="st0" d="M519.8,36.3c-4.1-1.5-7.9,4.1-10.1,10.2c-5.5,15-6.3,23.2-10.4,46.2
								C511,72.5,515.6,65.4,521,50.6C523.2,44.4,523.5,37.7,519.8,36.3"/>
							<g transform="rotate(5)">
								<path id="r_5_" class="st0" d="M536.2,43.1c-4-1.9-8.2,3.4-10.9,9.2c-6.8,14.5-8.3,22.6-14.4,45.1
									c13.4-19.1,18.6-25.7,25.3-40.1C538.9,51.4,539.8,44.8,536.2,43.1"/>
							</g>
						</g>
						<g id="r4_1_">
							<g id="r2_3_">
								<path id="r_6_" class="st0" d="M552,51.3c-3.8-2.2-8.5,2.7-11.7,8.3c-8,13.9-10.3,21.8-18.3,43.7c15-17.9,20.8-24,28.7-37.7
									C554,59.9,555.5,53.3,552,51.3"/>
								<g transform="rotate(20)">
									<path id="r_7_" class="st0" d="M567,60.9c-3.6-2.5-8.7,2-12.4,7.2c-9.2,13.1-12.1,20.8-22,41.9
										c16.5-16.5,22.8-22.1,31.9-35.1C568.3,69.6,570.3,63.2,567,60.9"/>
								</g>
							</g>
						</g>
					</g>
					<g>
						<g>
							<g>
								<g id="r2_4_">
									<path id="r_8_" class="st0" d="M581.1,71.7c-3.4-2.8-8.8,1.2-13,6.1c-10.3,12.3-13.9,19.7-25.6,39.9
										c17.9-15,24.7-20,34.8-32.1C581.6,80.5,584.2,74.3,581.1,71.7"/>
									<g transform="rotate(5)">
										<path id="r_9_" class="st0" d="M594.2,83.8c-3.1-3.1-8.9,0.4-13.4,4.9c-11.3,11.3-15.6,18.4-29,37.5
											c19.1-13.4,26.3-17.8,37.5-29C594,92.5,597.1,86.6,594.2,83.8"/>
									</g>
								</g>
								<g id="r4_2_">
									<g id="r2_5_">
										<path id="r_10_" class="st0" d="M606.3,96.9c-2.8-3.4-8.9-0.4-13.8,3.8c-12.3,10.3-17.1,17-32.1,34.8
											c20.2-11.7,27.8-15.5,39.9-25.6C605.2,105.6,608.8,99.9,606.3,96.9"/>
										<g transform="rotate(10)">
											<path id="r_11_" class="st0" d="M617.1,111c-2.5-3.6-8.8-1.1-14.1,2.5c-13.1,9.2-18.5,15.4-35.1,31.9
												c21.2-9.9,29-13,41.9-22C615.3,119.6,619.4,114.3,617.1,111"/>
										</g>
									</g>
								</g>
								<g id="r16">
									<g id="r8_1_">
										<g id="r2_6_">
											<path id="r_12_" class="st0" d="M626.7,126c-2.2-3.8-8.7-1.9-14.3,1.3c-13.9,8-19.8,13.7-37.7,28.7
												c22-8,30-10.4,43.7-18.3C624.1,134.4,628.7,129.5,626.7,126"/>
											<g transform="rotate(5)">
												<path id="r_13_" class="st0" d="M634.9,141.8c-1.9-4-8.5-2.6-14.3,0.1c-14.5,6.8-20.9,12-40.1,25.3
													c22.6-6,30.8-7.7,45.1-14.4C631.6,149.9,636.6,145.4,634.9,141.8"/>
											</g>
										</g>
										<g id="r4_3_">
											<g id="r2_7_">
												<path id="r_14_" class="st0" d="M641.7,158.2c-1.5-4.1-8.3-3.4-14.3-1.2c-15,5.5-21.9,10.1-42.1,21.7
													c23-4,31.4-5,46.2-10.4C637.7,166.1,643.1,162,641.7,158.2"/>
												<g transform="rotate(40)">
													<path id="r_15_" class="st0" d="M647,175.2c-1.1-4.3-7.9-4.1-14.1-2.4c-15.5,4.1-22.7,8.1-43.8,18
														c23.3-2,31.7-2.3,47-6.4C642.4,182.7,648.1,179.1,647,175.2"/>
												</g>
											</g>
										</g>
									</g>
								</g>
								<g>
									<g>
										<g>
											<g>
												<g id="r2_8_">
													<path id="r_16_" class="st0" d="M249.1,192.6c-0.8,4.3,5.5,7.1,11.8,8.2c15.8,2.8,24,2.2,47.3,2.3
														c-21.9-8-29.7-11.3-45.2-14.1C256.4,187.8,249.8,188.6,249.1,192.6"/>
													<g transform="rotate(5)">
														<path id="r_17_" class="st0" d="M253,175.2c-1.1,4.3,4.8,7.5,11,9.2c15.5,4.1,23.7,4.3,47,6.4
															c-21.2-9.9-28.6-13.9-43.8-18C260.7,171.1,254,171.3,253,175.2"/>
													</g>
												</g>
												<g id="r4_4_">
													<g id="r2_9_">
														<path id="r_18_" class="st0" d="M258.3,158.2c-1.5,4.1,4.1,7.9,10.2,10.1c15,5.5,23.2,6.3,46.2,10.4
															c-20.2-11.7-27.3-16.3-42.1-21.7C266.4,154.8,259.7,154.5,258.3,158.2"/>
														<g transform="rotate(10)">
															<path id="r_19_" class="st0" d="M265.1,141.8c-1.9,4,3.4,8.2,9.2,10.9c14.5,6.8,22.6,8.3,45.1,14.4
																c-19.1-13.4-25.7-18.6-40.1-25.3C273.4,139.1,266.8,138.2,265.1,141.8"/>
														</g>
													</g>
												</g>
												<g>
													<g id="r8_2_">
														<g id="r2_10_">
															<path id="r_20_" class="st0" d="M273.3,126c-2.2,3.8,2.7,8.5,8.3,11.7c13.9,8,21.8,10.3,43.7,18.3
																c-17.9-15-24-20.8-37.7-28.7C281.9,124,275.3,122.5,273.3,126"/>
															<g transform="rotate(5)">
																<path id="r_21_" class="st0" d="M282.9,111c-2.5,3.6,2,8.7,7.2,12.4c13.1,9.2,20.8,12.1,41.9,22
																	c-16.5-16.5-22.1-22.8-35.1-31.9C291.6,109.7,285.2,107.7,282.9,111"/>
															</g>
														</g>
														<g id="r4_5_">
															<g id="r2_11_">
																<path id="r_22_" class="st0" d="M293.7,96.9c-2.8,3.4,1.2,8.8,6.1,13c12.3,10.3,19.7,13.9,39.9,25.6
																	c-15-17.9-20-24.7-32.1-34.8C302.5,96.4,296.3,93.8,293.7,96.9"/>
																<g transform="rotate(20)">
																	<path id="r_23_" class="st0" d="M305.8,83.8c-3.1,3.1,0.4,8.9,4.9,13.4c11.3,11.3,18.4,15.6,37.5,29
																		c-13.4-19.1-17.8-26.3-29-37.5C314.5,84,308.6,80.9,305.8,83.8"/>
																</g>
															</g>
														</g>
													</g>
													<g>
														<g>
															<g>
																<g id="r2_12_">
																	<path id="r_24_" class="st0" d="M318.9,71.7c-3.4,2.8-0.4,8.9,3.8,13.8c10.3,12.3,17,17.1,34.8,32.1
																		c-11.7-20.2-15.5-27.8-25.6-39.9C327.6,72.8,321.9,69.2,318.9,71.7"/>
																	<g transform="rotate(5)">
																		<path id="r_25_" class="st0" d="M333,60.9c-3.6,2.5-1.1,8.8,2.5,14.1c9.2,13.1,15.4,18.5,31.9,35.1
																			c-9.9-21.2-13-29-22-41.9C341.6,62.7,336.3,58.6,333,60.9"/>
																	</g>
																</g>
																<g id="r4_6_">
																	<g id="r2_13_">
																		<path id="r_26_" class="st0" d="M348,51.3c-3.8,2.2-1.9,8.7,1.3,14.3c8,13.9,13.7,19.8,28.7,37.7
																			c-8-22-10.4-30-18.3-43.7C356.4,53.9,351.5,49.3,348,51.3"/>
																		<g transform="rotate(10)">
																			<path id="r_27_" class="st0" d="M363.8,43.1c-4,1.9-2.6,8.5,0.1,14.3c6.8,14.5,12,20.9,25.3,40.1
																				c-6-22.6-7.7-30.8-14.4-45.1C371.9,46.4,367.4,41.4,363.8,43.1"/>
																		</g>
																	</g>
																</g>
																<g id="r16_1_">
																	<g id="r8_3_">
																		<g id="r2_14_">
																			<path id="r_28_" class="st0" d="M380.2,36.3c-4.1,1.5-3.4,8.3-1.2,14.3c5.5,15,10.1,21.9,21.7,42.1
																				c-4-23-5-31.4-10.4-46.2C388.1,40.3,384,34.9,380.2,36.3"/>
																			<g transform="rotate(5)">
																				<path id="r_29_" class="st0" d="M397.2,31c-4.3,1.1-4.1,7.9-2.4,14.1c4.1,15.5,8.1,22.7,18,43.8
																					c-2-23.3-2.3-31.7-6.4-47C404.7,35.6,401.1,29.9,397.2,31"/>
																			</g>
																		</g>
																		<g id="r4_7_">
																			<g id="r2_15_">
																				<path id="r_30_" class="st0" d="M414.6,27.1c-4.3,0.8-4.8,7.5-3.7,13.8c2.8,15.8,6.1,23.3,14.1,45.2
																					c0-23.4,0.5-31.8-2.3-47.3C421.6,32.4,418.5,26.4,414.6,27.1"/>
																				<g transform="rotate(-80)">
																					<path id="r_31_" class="st0" d="M432.2,24.8c-4.4,0.4-5.4,7.1-4.8,13.5c1.4,15.9,4.1,23.7,10.1,46.3
																						c2.1-23.3,3.3-31.6,1.9-47.3C438.8,30.6,436.2,24.4,432.2,24.8"/>
																				</g>
																			</g>
																		</g>
																	</g>
																</g>
															</g>
															<rect y="185" width="900" height="15"/>
															<rect y="400" class="st1" width="900" height="200"/>
														</g>
													</g>
												</g>
											</g>
										</g>
									</g>
								</g>
							</g>
						</g>
					</g>
				</g>
			</g>
		</g>
	</g>
</g>
</svg>
