<?xml version="1.0" encoding="utf-8"?>
<!-- Generator: Adobe Illustrator 21.0.0, SVG Export Plug-In . SVG Version: 6.00 Build 0)  -->
<svg version="1.1" id="Layer_1" xmlns="http://www.w3.org/2000/svg" xmlns:xlink="http://www.w3.org/1999/xlink" x="0px" y="0px"
	 viewBox="0 0 840 600" style="enable-background:new 0 0 840 600;" xml:space="preserve">
<style type="text/css">
	.st0{fill:#244AA5;}
	.st1{fill:#D0A650;}
	.st2{fill:#FFFFFF;}
</style>
<title>Flag of Kosovo</title>
<rect class="st0" width="840" height="600"/>
<path class="st1" d="M332.1,284.6c0,0,1.6-1,2.1-1.2c0.6-0.1,2.6-0.8,2.6-0.8s1.3-0.7,2-0.7c0.7,0,2.1,0.8,2.6,1.4
	c0.4,0.7,2.7,1.8,2.7,1.8s1.6,0.5,1.9,0s1-0.9,1.7-0.9c0.7,0,0.8-0.7,0.8-1.2s0.3-1.2,0.8-1.8c0.6-0.7,1.7-1,1.7-1s1.6-0.7,1.7-1.6
	s1.7-1.6,2.6-1.7c0.8-0.1,0-0.5,2.3-0.3c2.3,0.3,2.6-0.5,2.7-1.2c0.2-0.7,0-1.3,1.4-1.2c1.4,0.1,2.1,0.1,2.1-0.7
	c0-0.8,1.3-1.2-1-1.8c-2.3-0.7-2.1-0.1-2.3-1.2c-0.2-1,0-0.9-1.6-1c-1.6-0.1-0.7-0.9-0.8-1.7c-0.2-0.8-0.6-1.2-0.8-1.7
	c-0.3-0.5-1.1-0.5-1.1-1.3c0-0.8-0.2-1.2-1-1.2c-0.8,0-1.1,0-1.1-0.8c0-0.8,0.2-1.4,1-1.4s1.3-0.7,1.1-1.4c-0.2-0.8-0.2-2.5-0.2-2.5
	l1.1-1.3c0,0,3.4-2.8,3.7-3.3c0.3-0.5,1.4-0.9,2,0.1c0.6,1.1,0.8,1.3,1.3,1.8c0.4,0.5,1.7,0.1,2-0.4c0.3-0.5,0.4-2.4,1.2-3.5
	c0.8-1,1.3-1.5,1.5-2.4s0.6-1.5,1.5-1.5c0.9,0,1.5-1.2,1.5-1.9c0-0.7,0.4-1.4,1.5-1.5s1.7-0.8,2.1,0.2s0.8,1,1.5,1.4
	c0.8,0.3,1.9,0.8,2.4,0.3c0.6-0.5,0.8-1.4,1.7-0.8c0.8,0.5,1.4,0,1.6-1s0.4-2.4,0.4-2.4s0.2-0.7,1.5-0.7s0.4-0.8,1.1-1.4
	c0.8-0.5,0.8-1,1.7-0.7c0.9,0.4,2.4-0.4,1.7-1.3c-0.8-0.8-2.4-2.2-1.5-3.3c0.9-1,1.3-2.7,0.4-2.9c-0.9-0.2-2.2,0.2-2.4-0.8
	c-0.2-1-0.6-1.7,0.6-1.9c1.1-0.2,3-0.2,3.5-0.7c0.6-0.5,2.4-0.8,2.4-2.4c0-1.5,0.6-1.7,0.8-2.6s0.2-2.6-0.6-3.5
	c-0.8-0.8-1.9-2.1-2.1-2.6c-0.2-0.5-0.9-1.4-2.1-1.7c-1.1-0.3-2.1-0.5-2.1-1.4s0.8,0.2,0.8-2.1c0-2.2-1.5-2.6-1.5-2.6l-2.2-1.4
	c0,0-4-1.1-5-1.1c-1.1,0-2.3-1.1-1.1-1.8s1.5-2,1.1-2.9c-0.5-1-0.8-1.7-2.4-2.1c-1.7-0.4-2.1-0.8-1.4-1.8s0.9-1.7,1.8-1
	c0.9,0.7,2.4,1,3.6,0.4c1.2-0.6,1.7-1,2.3-0.4c0.6,0.6,1.4,1.1,2.3,0.3c0.9-0.8,2.6-1,3.3-0.6c0.8,0.4,2.6,0.3,3.2,0
	c0.6-0.3,1.8-1.3,1.8-1.8s0.8-1.5,1.5-2s1.7-1.8,2.4-1.8c0.8,0,1.1-0.8,1.1-1.4s0.6-1.7,0.8-2.1c0.2-0.4,1.7-1,2.7-0.1
	c1.1,0.8,2.4,1.1,2.4,1.1s1.5,0.3,2.3,0c0.8-0.3,1.8-0.6,2.9,0.1c1.1,0.7,2.6,0.7,2.6,0.7s0.3-1.1,0.3-1.7s0.3-1.5-0.3-2
	c-0.6-0.4-1.4-1-0.2-1.8s1.2-0.7,2.4-0.7s2,0.1,2.9,0.1s2.4,0.8,2.4,1.7c0,0.8,0.6,1.4,1.4,1.8c0.8,0.4,1.7,0.8,1.4,1.5
	c-0.3,0.7-0.3,1.3,0.6,1.1s1.2,0.4,1.2,1.1s0.3,1.1,1.2,1.4s1.4,0.8,1.4,1.5s-0.2,1.1,0.2,1.8c0.3,0.7,1.2,1.8,1.2,1.8s1.7,2-0.5,1
	c-2.1-1-2.6-1.4-3.3-1.3c-0.8,0.1-1.2,0.6-1.2,0.6s-1.1,0.3-1.8,0.3c-0.8,0-1.5,1.5-0.3,1.8c1.2,0.3,1.7,0.6,1.7,1.5
	s-0.5,0.7-1.1,1.4s-1.1,0.3-2.1,0.3s-1.4,0.8-1.4,1.7s0.5,0.7,0.9,1.4c0.5,0.7,1.2,0.8,2,0.1s1.4-1.1,1.8,0.1c0.5,1.3,1.1,1.3,2,1.3
	c0.9,0,1.2,0,2-0.4c0.8-0.4,1.7,0,1.8,1.1c0.2,1.1,0.9,1.3,1.7,1.7c0.8,0.4,1.2,0.7,1.4,1.4s0.6,1,1.4,0.6s2-0.7,2.4-0.1
	c0.5,0.6,1.2,1.7,1.2,1.7l0.2,1.4l2.9,1c0,0,0.3,0.7,0.3,1.3s0.5,0.8,1.2,0.7c0.8-0.1,2.1,0,2.1,0s1.1-0.4,1.1-1.3s0.5-1.1,1.2-1.1
	c0.8,0,2.4,0.6,2.9-0.3c0.5-0.8,1.8-1.1,2.9-0.7s3.8,1.5,3.8,1.5s-0.3,0.1,0.6,1.5c0.9,1.4,2.6,1.4,2.6,1.4s0.2,1.3,0.5,1.8
	c0.3,0.6,1.7,0.8,2.4,0.3c0.8-0.6,1.8-1.3,2.7-1.3s1.5,0,1.5-0.6s-0.9-1-0.9-1.8c0-0.8,0.9-0.8,1.1-1.7c0.2-0.8,1.1,0,1.7,0.4
	c0.6,0.4,1.4,1.1,1.4,1.7c0,0.6,1.2,2.5,2,2.8s2.7,0.4,3.3-0.3s2.1-1,2,0.7c-0.2,1.7-0.5,1.8,0.6,2.4s1.2,2.5,0.3,3.1
	c-0.9,0.6-1.2,0.7-1.2,1.7c0,1-0.3,2.1,0.5,2.7c0.8,0.6,1.2,1,1.2,1.5s0.9,3.1,0.9,3.1s0.5,2.5,0.3,3.1c-0.2,0.6-0.5,1.5,0.9,1.4
	c1.4-0.1,1.7-0.1,1.7,1c0,1.1,0.5,1.5-0.3,2c-0.8,0.4-1.2,1.8-0.5,2.1c0.8,0.3,1.4,0.7,1.5,1.3s1.4,1.5,2.1,1c0.8-0.6,0.9-0.8,1.5-1
	c0.6-0.1,1.1-0.6,0.5-1.3c-0.6-0.7-0.8-1.4-0.2-1.8c0.6-0.4,0.9-1.8,0.9-1.8s0.9-1.3,2,0c1.1,1.3,1.2,0.8,2,0.8
	c0.8,0,1.1,0.7,1.1,1.4s1.5,0.6,1.5,1.7c0,1.1,0.3,3.8,0.3,3.8s0,1.5,0.9,2.1s0.8,0.7,0.3,1.4c-0.5,0.7-0.3,1.8-0.3,2.4
	s0.3,0.8-0.5,1.4c-0.8,0.6-1.1,1.3-0.6,2.1s0.3,1.4,1.5,2.4c1.2,1,1.1,1.4,1.1,2.1c0,0.7,1.2,1.7,1.2,2.4s0.9,1.5,1.7,1.7
	c0.8,0.1,1.7,1.4,1.7,2.1s0.2,2.5,0.2,2.5s-0.2,0.4,0.8,0.4s1.5,1,1.8-0.1c0.3-1.1,1.2-1.3,1.8-1.5c0.6-0.3,1.8-0.8,2.4-0.4
	c0.6,0.4,1.4,0.4,2,0.4s3.5,0.1,3.5,0.1s0.8-0.1,1.2,1c0.5,1.1,1.8,2.4,1.1,2.9s-0.8,1.7,0.2,1.7c0.9,0,1.8,0,1.8,0.7
	c0,0.7,0.2,1.3,0.9,0.8c0.8-0.4,1.2-0.6,1.5,0c0.3,0.6,0.9,0.6,1.7,1c0.8,0.4,1.1,0.1,1.5-0.4c0.5-0.6,2.3-1.1,2.3-1.1
	s2.4-0.6,3.3-0.3c0.9,0.3,2.1,0.8,2.1,0.8s0.6,1.4,0.3,2.2c-0.3,0.8-0.6,0.7-0.3,2c0.3,1.3-0.3,1.4-0.9,1.3c-0.6-0.1-1.2-0.1-1.2,1
	s-0.6,1.4-0.6,2.4c0,1,0,0.8-0.6,1.3c-0.6,0.4-0.8,1.1,0.2,1.3c0.9,0.1,0.6,1.1,0.6,1.7c0,0.6-0.2,1.8-0.2,1.8s0.2,0.7-0.9,0.7
	c-1.1,0-2-0.1-2.1,0.6c-0.2,0.7-1.4,1.8-0.3,2.5c1.1,0.7,0.8,1.1,0.2,1.4c-0.6,0.3-1.1,1.7,0.2,2.1c1.2,0.4,1.1,0.8,0.3,1.4
	c-0.8,0.6-2.3,1-2.3,1.8c0,0.8-0.3,0.8-1.2,1c-0.9,0.1-1.4,1.3-0.3,2.7c1.1,1.4,1.4,1.1,2.1,1.1s0.8-1.1,0.8-1.1s2.6,0.1,3.3,0.1
	s1.8,0,2.4-0.4c0.6-0.4,2.3-1.1,2.3,0.1c0,1.3,0.3,1.1,1.1,1.7c0.8,0.6,0.9,0.1,1.5,1c0.6,0.8,0.8,0.1,1.2-0.8c0.5-1,1.4-2,2.1-0.8
	c0.8,1.1,0.8,0.8,1.7,0.8s1.2,0.4,1.2,1.1c0,0.7,0.9,0.7,2,0.6c1.1-0.1,1.2,0.6,1.7,1.3s0.6,0.6,1.2,0.6c0.6,0,1.2,0,1.7-0.6
	c0.5-0.6,1.1-1.3,1.7-0.4c0.6,0.8,1.8,0.7,2.1-0.3c0.3-1,1.7-1.8,2.4-0.7c0.8,1.1,1.4,1.1,2.1,1.3c0.8,0.1,1.8,0.1,2.3,0.8
	c0.5,0.7,2,1.8,0.9,2.7c-1.1,0.8-2.3,2-1.4,2.2c0.9,0.3,1.5,0.6,2.1,1.3c0.6,0.7,2.6,1,3.5,1.1c0.9,0.1,1.7,0.3,2.7-0.6
	c1.1-0.8,2.1-0.8,2,0.3c-0.2,1.1,0.5,2.4,0.5,2.4s0.8,1.8,0.8,2.5c0,0.7-0.2,0.8,1.2,1.7c1.4,0.8,1.2,1.4,2.3,0.6
	c1.1-0.8,1.4-1.3,1.4-2c0-0.7,0-2.2,0-2.2s1.5-0.3,2.1-0.7s3-1.7,3.6-1.1c0.6,0.6,1.4,0.4,2,0.1c0.6-0.3,1.8-0.3,2.4-0.3
	c0.6,0,1.7,0.1,2.9-0.8c1.2-1,1.2-0.7,2,0c0.8,0.7,0.8,1.5,0.3,2.1s0,1.8,1.1,1.8c1.1,0,1.4,0.6,1.4,1.3c0,0.7,0.2,1.7,0.3,2.2
	c0.2,0.6,0.2,0.8,1.8,1.3c1.7,0.4,1.4,1.4,1.7,2.1c0.3,0.7,0.3,1.3-0.6,1.3c-0.9,0-1.2,0.4-1.4,1.1c-0.2,0.7-1.5,1-1.5,1l-1.4-0.3
	c0,0-0.9,0-1.4,0.6c-0.5,0.6-1.4,1.7-0.8,2.7c0.6,1,0.6,1.5,0,2c-0.6,0.4-0.9,2.5-1.5,2.1c-0.6-0.4-1.4,0.1-2,0.4
	c-0.6,0.3-0.5,2.2,0.8,2.9c1.2,0.7,1.5,1.7,1.5,1.7l1.4,2.1c0,0-0.5,0.4-0.8,1.1c-0.3,0.7-1.2,2.1-0.3,2.4c0.9,0.3,0.5,1.8-0.5,1.8
	s-2-0.4-2.1,0.7s-0.6,0.8-1.5,0.7c-0.9-0.1-3.2-0.7-3.8,0.4c-0.6,1.1-0.8,1.5-1.8,1.4c-1.1-0.1-0.6,1.7-0.3,2.4
	c0.3,0.7,1.4,1.7,1.4,1.7s0.9,0.7,0.9,2.1s-0.6,1.3-1.2,0.3c-0.6-1-1.8-0.8-2,0.3c-0.2,1.1-0.3,2.8-1.4,2.8c-1.1,0-1.5,0.3-2,0.8
	c-0.5,0.6-1.2,1.5-1.2,2.1c0,0.6-0.2,1.1-0.9,1.3c-0.8,0.1-0.9,1.7-0.9,1.7s-1.8,0.3-2,1c-0.2,0.7,0.2,1.8-1.4,2
	c-1.5,0.1-2.4,1.1-2.9,1.8c-0.5,0.7-0.6,1.3,0,2c0.6,0.7,1.1,2.9,1.8,3.4c0.8,0.4,1.4,0.6,1.2,1.7c-0.2,1.1-1.1,2,0.2,2
	s2,0.3,1.5,1.3c-0.5,1-0.5,1.1-1.4,1.5c-0.9,0.4-1.4,0.4-1.4,1.5s0.3,1.1-0.5,1.5s-0.8,1-0.8,1.8s-0.3,0.6-1.2,1.5
	c-0.9,1-2.1,1-2.9,0.7c-0.8-0.3-0.9-0.3-1.1-1.1c-0.2-0.8-1.5-0.8-2.3-0.7c-0.8,0.1-1.8,1-1.8,1s-1.4,0.8-0.8,1.5
	c0.6,0.7,0.3,1.8-0.8,1.7c-1.1-0.1-3.5,1.1-4.3-0.1s-2.9-2.1-3.2-0.4c-0.3,1.7,0.9,1.5,0.8,3.2c-0.2,1.7-0.5,1.7-1.1,2.2
	c-0.6,0.6-0.6,1-0.8,1.7c-0.2,0.7-0.3,2.2,0.8,2.8c1.1,0.6,1.5,2.1,1.5,2.9c0,0.8,0,1.7,1.1,1.7c1.1,0,2-0.1,2.1-1.1
	c0.2-1,2.3-1.5,2.4,0.4c0.2,2,0.2,2.9,0.9,3.8s1.4,2,2,2.4c0.6,0.4,1.6,4,1.6,4c-1.5,0.3-1.9,2.2-2.8,2.6c-0.5,0.2-1.1,0-1.6,0.4
	c-0.4,0.3-0.4,0.8-0.9,1.1c-1.1,0.5-0.9-1.2-2.2-0.6c-1.2,0.6-1.3,2-3.1,1.4c-0.9-0.3-1.5-3.9-1.7-4.7c-0.2-0.5-1.1-2-1.4-2.4
	c-1-1.5-3.1,0-3.7-0.5c-1-0.7-0.6-1.9-2.1-2c-3.2-0.2-0.9,1.9-2.2,2.4c-2.5,0.9-2.5-2.4-4.4-0.9c-0.7,0.6,1.1,0.9,0.7,1.9
	c-0.4,0.8-2.2,2-2.1,3c0.2,1.3,1.6,1.7,2,2.8c1.1,2.9-0.8,4.9-3.6,2.6c-1.6-1.3-1.9-3.6-4.4-3.4c-0.6,0-0.8,0.6-1.3,0.7
	c-0.6,0-1-0.5-1.6-0.4c-0.9,0.3-0.1,0.9-0.3,1.5c0,0-1.2,1-1.4,1.3c-0.7,0.9-0.5,1.7-1.4,2.5c-0.8,0.6-1.5,0.2-2.4,1.2
	c-1,1-1,2.5-2.2,3.5c-0.6,0.5-1-1.5-1.8-0.2c-0.1,0.2-0.2,0.4-0.3,0.5c-0.2,0.4-0.2,0.6,0,1c1.6,3.1-1.7,4.2-2.8,6.4
	c-0.5,0.9,0.8,1.8,0.3,2.4c-0.3,0.5-1.8,2-1.9,2.3c-0.1,0.3-0.3,1-0.5,1.3c-0.3,0.3-1.2,0.1-1.3,0.6c-0.1,0.5,1,0.9,1.2,1.2
	c0.3,0.4-0.2,0.9,0,1c1.7,1.7,0.7,1.2,1.6,2.7c0.1,0.2,0.6-0.2,0.8,0.4c0.2,0.5-0.4,0.5-0.2,1.1c0,0.2,1.3,1.8,1.3,1.8
	c0.1,0.5-2.3,1.6-2.9,1.6c-1.4,0,1.3-3-1.1-3c-1,0-1.1,2.3-1.4,2.6c-0.1,0.1-1.1,0-1.3,0c-1.5,0-2.5,1.9-3.1,2.1
	c-0.4,0.1-1.2-0.2-1.9-0.1c-0.6,0.1-1.3,0.7-1.9,0.7c-0.4,0-0.6-0.2-0.9-0.4c-0.7-0.4-1.9-0.6-2.7-0.8c-0.4-0.1-1.2,0.5-1.5,0.4
	c-0.5-0.3,0.3-1.2-0.8-1.8c-0.2-0.1-1-2.1-1-2.2c0.4-1.3,0.8-2.8,0.6-4.2c-0.2-1.4-2.5-2.7-3.1-3.8c-0.5-0.9-0.9-3.2-1.7-3.8
	c-0.9-0.6-1.8-1.9-2.3-2.8c-0.2-0.3,0.3-0.8,0-1.3c-0.4-0.5-1.1-0.7-1.3-1.4c-0.2-0.6,0-2.4-0.6-2.8c-0.7-0.4-5.4-1-6.5-1.1
	c-0.6,0-1.1,0-1.5-0.5c-0.2-0.2-0.5-0.9-0.6-0.9c-0.5,0-1,0.2-1.4,0.2c-0.3,0-0.9-0.2-1.2,0c-1.5,1-1.9,2.3-3.3,3.4
	c-1.4,1.1-3,1-4.5,2.3c-0.9,0.8-1.5,2.7-2.4,3.6c-0.4,0.4-1,0-1.1,0.2c-0.8,0.9-1.8,1.5-2.6,2.4c-0.2,0.2-0.1,0.5-0.3,0.7l-1.6,0.4
	c-0.4,0.1-1.2,0-1.6,0.1c-0.8,0.2-0.7,1-3.3,1.6c-0.2,0-0.5,0.2-0.7,0.3c-0.3,0.2-0.5,0.5-0.8,0.7c-0.2,0.1-0.8-0.1-1.1-0.1
	c-0.6,0.1-1,0.7-1.6,0.7c-1.4,0.2-3.6-0.6-4.6-0.2c-0.6,0.2-2.4,2.2-3.1,2.5c-0.4,0.1-0.7,0-1.2-0.2c-0.2,0.3-0.8,2.4-1,2.9
	c0,0-2.9,2.5-3.2,2.8c-0.4,0.4-0.5,0.9-1,1.3c-0.3,0.3-0.8,0.6-1.3,0.6c-0.6,0-1.5-0.5-2.1-0.6c-1.1-0.2-4.4-0.3-5.4-0.1
	c-1,0.2-0.7,3.1-3.3,3.4c-1.5,0.2-2.9,0.5-4.4,0.6c-0.2,0-1.1-0.6-2-0.4c-0.3,0.1-1.4,1.2-1.4,1.6v0.6c0,0.1,0.3,0.5,0.3,0.5
	c-0.6,0.7-1.9,1.7-2.3,2.5c-0.1,0.2-0.3,0.5-0.5,0.6c-0.3,0.2-2.1,0.9-2.2,1.2c-0.4,1.1,1.2,2,1.1,2.5c-0.5,1.4-2.3,2.7-2.8,3.9
	c-0.2,0.5,0.6,2.3,0.6,2.9c-0.2,1.6-0.8,3.7-0.7,5.4c0,0.3,0.2,2,0.3,2.1c0.2,0.3,0.6,0.5,0.9,0.8s2.3,4.2,2.4,4.6
	c0.4,2.9-3.8,1.9-1.4,4.8c0.4,0.5,0.7,0.9,1.1,1.3c0.5,0.5,3.6,2.8,3.7,3c0.1,0.4-2.5,0.8-3,1.3c-1.2,1.2-2.2,3.4-3.4,4.6
	c-0.7,0.8-1.4-0.1-2.3,1.7c-0.3,0.7,0,2.2-0.4,2.6c-0.6,0.6-1.1-0.2-1.7,0.1c-0.3,0.1-0.4,0.9-0.7,1.1c-0.7,0.6-6.8,3.8-7.3,3.5
	c-0.3-0.1-0.6-1.2-0.7-1.5c-0.1-0.3-0.5-1.1-0.8-1.4c-1.6-1.3-4-1.6-5.5,0c-0.4,0.4-0.4,1.1-0.9,1.5c-0.8,0.7-1.8,1.3-2.6,2
	c-0.2,0.1-0.6,0.7-0.8,0.6c-0.6-0.1-2.1-1.8-2.5-2.2c-0.7-0.8-2.7-2.7-2.9-3.6c0-3.1-2.4-6.4-3.5-9.4l1.5,0c1.7-1.2,1.2-4,4.3-2.9
	c0.4-0.5,0.3-1.1,1.1-1.5c0.3-0.1,0.8-0.3,0.9-0.5c1-1.6,2.2-7.6,1.2-9.1c-0.9-1.4-1.9-1.3-2.7-3.6c-0.2-0.6,0.2-1.4,0-2.1
	c-0.2-0.6-1.2-3.9-1.3-4.1c-0.2-0.3-0.8-0.6-0.9-0.8c0-0.3-0.3-3.9-0.2-4.2c-1-2.8-4.5-4.6-4.7-4.9c-0.4-0.7-0.8-1.5-1.3-2.3
	c-0.5-0.9-0.5-1.3-0.8-2.2c-0.1-0.4-0.7-0.7-0.7-1.1c-0.1-0.7,2-2.3,1.9-3.6c0-0.4-1.3-1.7-1.1-2.4c0.3-0.7,1.6-2.4,1.6-3.2
	c-0.1-1.1-2.1-3.4-2.4-4.6c-0.1-0.6,0.8-1,0.6-1.4c-0.3-0.5-2.4-2.4-2.7-3c-0.3-0.4,0.8-1,0-1.8c-0.7-0.7-0.1-0.5-0.3-1
	c-0.2-0.7-1-1.3-1.3-2c-0.3-0.6-2.1-7.2-2.1-7.6c-0.3-0.5-0.8-0.8-1.1-1.3c-0.3-0.5-0.4-1.3-0.6-1.7c0,0-2.1-0.6-2.4-1.2
	c-0.3-0.5-0.4-2.1-0.9-2.9c-0.3-0.4-0.7-0.3-1-0.6c-0.3-0.2-0.2-0.6-0.4-0.8c-0.6-0.8-1.8-0.1-2.7-3.1c-1.1-0.8-2.1-1.4-3.1-2.4
	c-0.2-0.2-0.3-0.4-0.5-0.5c-0.8-0.3-1.9-0.4-2.5-1c-0.4,0-2.4-0.1-2.6-0.2c-0.2-0.1-0.5-1-0.6-1c-1.1-0.2-2.8-0.1-3.7-0.9
	c-0.7-0.6-0.9-3.7-2.2-3.3c-0.2-0.1-0.3-0.1-0.5-0.1c-0.8-1.1-3.7-1.2-4.9-1.9c-0.3-0.2-1.4,0-1.4-0.4c0.3-0.6,0.2-1.1,0.2-1.7
	c-0.6-0.6-1.1-1.4-1.5-1.8c-1.1-0.2-0.7-0.3-1.4-0.8c-1.9-0.1-2.1,0.2-3.3,1.3c-0.3,0.3-0.9,0.3-1.3,0.6c-0.6,0.4-0.8,1.5-1.7,1
	c-0.3-0.2-0.5-0.5-0.7-0.7c-0.5-0.5-0.8-0.2-1.1-1c-1.6-0.8-5.9,2.1-6.9,0c-0.7-0.4-1.3,0.1-1.9-0.5c-0.3-0.3,0.8-3.8-2.3-5.2
	c0.7-0.6,1.5-0.9,2.2-1.5c0.2-0.4,0-1,0-1.4c0-0.6,0.4-1.8,0.3-2.2c-0.1-0.4-0.6-0.8-0.7-1.3c-0.2-0.5,0-1.1-0.2-1.6
	c-0.2-0.1-0.8-0.5-1-0.5c-0.8-0.7-1.7-1.1-2.3-1.9c-0.2-0.2-0.3-0.5-0.5-0.6c-0.6-0.4-2.4-1-2.4-1.9c0-0.3,0.4-0.3,0.5-0.6
	c0.1-0.4,0-0.8,0.3-1.1c0.9-1.2,2.8-0.7,2.5-2.9c-0.2-1-0.8-1.8-1-2.9c-0.3-0.2-0.4-0.7-0.7-0.9c-1.9-0.2-1.6-2.1-2.3-2.6
	c-2-1.4-3.6-0.5-1.3-3.2c0.3-0.9-1.9-2.3-2.4-2.8c-0.8-0.8-0.4-2.4-0.7-3.2c-0.2-0.4-1.5-1.2-1.9-1.8c-0.1-0.2-0.5-1.1-0.6-1.2
	l0-0.3c0.4-0.3,0.2-0.9,0.1-1.4c-0.3-0.2-0.8-0.2-1-0.3c-1.8-1.6-4-2.4-6.4-3.3c-0.6-0.2-0.5-0.8-1-1c-0.5-0.2-3.7-1.6-3.9-1.6
	c-0.4-0.1-0.6-1.5-0.9-2c-0.2-0.4-1.1-1.2-1.1-1.2c0.1-1.3-0.8-1.5-1.8-2.2c0.1-0.2-0.1-0.6-0.1-0.8c0-0.2,0.7-2.5,0.8-2.8
	c0.2-0.5,0.8-0.9,0.7-1.5c-0.2-0.9-0.3-2.2-0.6-3c-1-2.7-2.2-2.4-1.6-6c0.2-0.7-0.1-1.2,0.5-1.8c-0.1,0,0.3-0.4,0.3-0.5
	c0.3-0.3,1.3-0.8,1.5-1.1c0.6-0.8,0.9-2.5,1.6-3.1c0.5-0.4,2.1-1.2,2.3-1.6c0.2-0.3,0.6-1.2,0.4-1.5c-0.5-0.3-1.1-0.2-1.6-0.2
	c-0.2,0-0.9-0.5-1.4-0.6c-0.2-0.2-0.4-0.4-0.4-0.6l-0.2-0.2c-0.6-0.1-1.3-0.5-1.8-0.6c-0.7-0.3-1.6-0.3-2.3-0.7
	c-1.2-0.7-2.6-2.6-3.8-2.9c-1.6-0.4-2.6,0.1-4.1,0.2c-1,0.1-1-0.5-1.8-0.8c-1.1-0.3-0.3,0.6-2.7-0.2c-0.3-0.2,0.2-1.1,0.2-1.4
	c-0.4-0.1-0.8,0.1-1.3,0c-2-0.5-1.3-2.3-1.8-3.5c-0.2-0.3-1.1-0.2-1.4-0.2c-0.1,0-0.2-0.2-0.1-0.3l0.2-0.1c0.3-0.5-0.9-1.9-0.8-2
	c0.1-0.4,2.5-0.8,2.9-0.8c0.1-0.3-0.2-0.6-0.3-0.9c-0.1-0.7,0.4-1.6,0.6-2.2l-0.1-0.2c-0.7-0.4-0.9-0.9-1.5-1.4
	c0-0.3,0.5-0.5,0.5-0.8c1.2-3.3,3-0.7,4.6-3.7c0.2-0.3,0.6-1,0.8-1.5l0.3-0.1c0.3,0.1,0.7,0.3,1,0.2c0.2-0.3,0.7-0.4,1.1-0.5
	l0.6,0.1c3-0.6,2.3-1.7,4-2.9c0.5-0.3,1.8-0.5,2.4-0.7c0.6,0.3,1.6,1.3,2.8,1.8c0.9,0.4,3.9,1,4.4,1.3c0.6,0.4,0.8,1.2,1.3,1.5
	c1.7,0.9,0.7-0.6,2.4-0.3c1.7,0.3,3,1.7,4.6,2.4c0.3,0.1,0.9,0,1.2-0.1c0.5-0.1,3.2-0.6,3.4-0.5c0.3,0.1,0.8,0.4,1.1,0.5
	c0.4,0.1,0.7-0.7,1-0.7c1.1,0.2,1.2,0.6,2.7,0.5c0.1,0,0.8-4.3,1.5-4.5c0.4-0.1,1.6,1,1.9,1.1c0.6,0.1,0-0.9-0.1-0.9
	c-0.2-0.3-0.9-3-0.9-3.2c0-0.1,0.8,0.2,1.1,0.1c0.8-0.3,2-0.5,2.6-1.2c0.1-0.1,1.4-1.9,1.4-2c0.1-0.3-0.3-1.1-0.2-1.3
	c0.2-0.2,0.9-0.5,1.3-0.8c0.5-0.5,0.6-1.3,1.3-1.7c2.7-0.2,3.6-2.3,6.1-2.6c0.2,0,0.7-0.1,0.8-0.1l0.5,0.8c0.2,0.2,1.8,1.2,2.1,1.1
	c0.2,0,0.3-0.4,0.6-0.5c0.5,0.1,1.9-0.8,2-1.2c0-0.1-0.3-0.5-0.2-0.8c0.1-0.2,1.8-1.5,2.1-1.6c0.6,0,1.3-0.1,1.8,0.1
	c0.3,0.1,0.4,0.7,0.8,0.7c0.4,0,1.2-0.1,1.5-0.1C331.4,285.3,331.6,284.6,332.1,284.6L332.1,284.6z"/>
<g id="h">
	<g>
		<path id="star" class="st2" d="M461.8,85.8L483,151l-55.4-40.2h68.5L440.7,151L461.8,85.8z"/>
	</g>
	<g>
		<path id="star_1_" class="st2" d="M544.2,100.4l21.2,65.1L510,125.2h68.5l-55.4,40.2L544.2,100.4z"/>
	</g>
	<g>
		<path id="star_2_" class="st2" d="M622.9,129l21.2,65.1l-55.4-40.2h68.5l-55.4,40.2L622.9,129z"/>
	</g>
</g>
<g>
	<g id="h_1_">
		<g>
			<path id="star_3_" class="st2" d="M378.2,85.8L357,151l55.4-40.2h-68.5l55.4,40.2L378.2,85.8z"/>
		</g>
		<g>
			<path id="star_4_" class="st2" d="M295.8,100.4l-21.2,65.1l55.4-40.2h-68.5l55.4,40.2L295.8,100.4z"/>
		</g>
		<g transform="scale(-1,1)">
			<path id="star_5_" class="st2" d="M217.1,129L196,194.1l55.4-40.2h-68.5l55.4,40.2L217.1,129z"/>
		</g>
	</g>
</g>
</svg>
