<?xml version="1.0" encoding="utf-8"?>
<!-- Generator: Adobe Illustrator 21.0.0, SVG Export Plug-In . SVG Version: 6.00 Build 0)  -->
<svg version="1.1" id="Layer_1" xmlns="http://www.w3.org/2000/svg" xmlns:xlink="http://www.w3.org/1999/xlink" x="0px" y="0px"
	 viewBox="0 0 1416 1000" style="enable-background:new 0 0 1416 1000;" xml:space="preserve">
<style type="text/css">
	.st0{fill:#0F204B;}
	.st1{fill:#FFB612;}
</style>
<title>Flag of Alaska</title>
<rect class="st0" width="1416" height="1000"/>
<g>
	<g>
		<g id="cone">
			<polygon id="triangle" class="st1" points="1158,130 1141.9,179.5 1166.7,187.5 			"/>
			<g transform="scale(-1,1)">
				<polygon id="triangle_1_" class="st1" points="1158,130 1174.1,179.5 1149.3,187.5 				"/>
			</g>
		</g>
		<g>
			<g id="cone_1_">
				<polygon id="triangle_2_" class="st1" points="1207.5,165.9 1155.5,165.9 1155.5,191.9 				"/>
				<g transform="rotate(72)">
					<polygon id="triangle_3_" class="st1" points="1207.5,165.9 1165.4,196.5 1150.1,175.5 					"/>
				</g>
			</g>
			<g>
				<g id="cone_2_">
					<polygon id="triangle_4_" class="st1" points="1108.5,165.9 1150.6,196.5 1165.9,175.5 					"/>
					<g transform="rotate(-72)">
						<polygon id="triangle_5_" class="st1" points="1108.5,165.9 1160.5,165.9 1160.5,191.9 						"/>
					</g>
				</g>
				<g>
					<g id="cone_3_">
						<polygon id="triangle_6_" class="st1" points="1188.6,224.1 1172.5,174.6 1147.8,182.6 						"/>
						<g transform="rotate(144)">
							<polygon id="triangle_7_" class="st1" points="1188.6,224.1 1146.5,193.5 1161.8,172.5 							"/>
						</g>
					</g>
					<g id="star5">
						<g id="cone_4_">
							<polygon id="triangle_8_" class="st1" points="1127.4,224.1 1169.5,193.5 1154.2,172.5 							"/>
							<g transform="translate(1158,182)scale(52)">
								<polygon id="triangle_9_" class="st1" points="1127.4,224.1 1143.5,174.6 1168.2,182.6 								"/>
							</g>
						</g>
					</g>
					<g>
						<g>
							<g id="cone_5_">
								<polygon id="triangle_10_" class="st1" points="229,365 219.4,394.5 234.2,399.3 								"/>
								<g transform="scale(-1,1)">
									<polygon id="triangle_11_" class="st1" points="229,365 238.6,394.5 223.8,399.3 									"/>
								</g>
							</g>
							<g>
								<g id="cone_6_">
									<polygon id="triangle_12_" class="st1" points="258.5,386.4 227.5,386.4 227.5,401.9 									"/>
									<g transform="rotate(72)">
										<polygon id="triangle_13_" class="st1" points="258.5,386.4 233.4,404.6 224.3,392.1 										"/>
									</g>
								</g>
								<g>
									<g id="cone_7_">
										<polygon id="triangle_14_" class="st1" points="199.5,386.4 224.6,404.6 233.7,392.1 										"/>
										<g transform="rotate(-72)">
											<polygon id="triangle_15_" class="st1" points="199.5,386.4 230.5,386.4 230.5,401.9 											"/>
										</g>
									</g>
									<g>
										<g id="cone_8_">
											<polygon id="triangle_16_" class="st1" points="247.2,421.1 237.6,391.6 222.9,396.4 											"/>
											<g transform="rotate(144)">
												<polygon id="triangle_17_" class="st1" points="247.2,421.1 222.1,402.9 231.3,390.3 												"/>
											</g>
										</g>
										<g id="star5_1_">
											<g id="cone_9_">
												<polygon id="triangle_18_" class="st1" points="210.8,421.1 235.9,402.9 226.7,390.3 												"/>
												<g id="star" transform="translate(229,396)scale(31)">
													<polygon id="triangle_19_" class="st1" points="210.8,421.1 220.4,391.6 235.1,396.4 													"/>
												</g>
											</g>
										</g>
										<g>
											<g>
												<g>
													<g id="cone_10_">
														<polygon id="triangle_20_" class="st1" points="396,427 386.4,456.5 401.2,461.3 														"/>
														<g transform="scale(-1,1)">
															<polygon id="triangle_21_" class="st1" points="396,427 405.6,456.5 390.8,461.3 															"/>
														</g>
													</g>
													<g>
														<g id="cone_11_">
															<polygon id="triangle_22_" class="st1" points="425.5,448.4 394.5,448.4 394.5,463.9 															"/>
															<g transform="rotate(72)">
																<polygon id="triangle_23_" class="st1" points="425.5,448.4 400.4,466.6 391.3,454.1 																"/>
															</g>
														</g>
														<g>
															<g id="cone_12_">
																<polygon id="triangle_24_" class="st1" points="366.5,448.4 391.6,466.6 400.7,454.1 																"/>
																<g transform="rotate(-72)">
																	<polygon id="triangle_25_" class="st1" points="366.5,448.4 397.5,448.4 397.5,463.9 																	"/>
																</g>
															</g>
															<g>
																<g id="cone_13_">
																	<polygon id="triangle_26_" class="st1" points="414.2,483.1 404.6,453.6 389.9,458.4 																	"/>
																	<g transform="rotate(144)">
																		<polygon id="triangle_27_" class="st1" points="414.2,483.1 389.1,464.9 398.3,452.3 																		"/>
																	</g>
																</g>
																<g id="star5_2_">
																	<g id="cone_14_">
																		<polygon id="triangle_28_" class="st1" points="377.8,483.1 402.9,464.9 393.7,452.3 																		"/>
																		<g id="star_1_" transform="translate(229,396)scale(31)">
																			<polygon id="triangle_29_" class="st1" points="377.8,483.1 387.4,453.6 402.1,458.4 																			"/>
																		</g>
																	</g>
																</g>
																<g>
																	<g>
																		<g>
																			<g id="cone_15_">
																				<polygon id="triangle_30_" class="st1" points="479,516 469.4,545.5 484.2,550.3 																				"/>
																				<g transform="scale(-1,1)">
																					<polygon id="triangle_31_" class="st1" points="479,516 488.6,545.5 473.8,550.3 																					"/>
																				</g>
																			</g>
																			<g>
																				<g id="cone_16_">
																					<polygon id="triangle_32_" class="st1" points="508.5,537.4 477.5,537.4 477.5,552.9 																					"/>
																					<g transform="rotate(72)">
																						<polygon id="triangle_33_" class="st1" points="508.5,537.4 483.4,555.6 474.3,543.1 																						
																							"/>
																					</g>
																				</g>
																				<g>
																					<g id="cone_17_">
																						<polygon id="triangle_34_" class="st1" points="449.5,537.4 474.6,555.6 483.7,543.1 																						
																							"/>
																						<g transform="rotate(-72)">
																							<polygon id="triangle_35_" class="st1" points="449.5,537.4 480.5,537.4 480.5,552.9 
																																															"/>
																						</g>
																					</g>
																					<g>
																						<g id="cone_18_">
																							<polygon id="triangle_36_" class="st1" points="497.2,572.1 487.6,542.6 472.9,547.4 
																																															"/>
																							<g transform="rotate(144)">
																								<polygon id="triangle_37_" class="st1" points="497.2,572.1 472.1,553.9 481.3,541.3 
																																																	"/>
																							</g>
																						</g>
																						<g id="star5_3_">
																							<g id="cone_19_">
																								<polygon id="triangle_38_" class="st1" points="460.8,572.1 485.9,553.9 476.7,541.3 
																																																	"/>
																								<g id="star_2_" transform="translate(229,396)scale(31)">
																									<polygon id="triangle_39_" class="st1" points="460.8,572.1 470.4,542.6 485.1,547.4 
																																																			"/>
																								</g>
																							</g>
																						</g>
																						<g>
																							<g>
																								<g>
																									<g id="cone_20_">
																										<polygon id="triangle_40_" class="st1" points="563,609 553.4,638.5 568.2,643.3 
																																																					"/>
																										<g transform="scale(-1,1)">
																											<polygon id="triangle_41_" class="st1" points="563,609 572.6,638.5 557.8,643.3 
																																																							"/>
																										</g>
																									</g>
																									<g>
																										<g id="cone_21_">
																											<polygon id="triangle_42_" class="st1" points="592.5,630.4 561.5,630.4 561.5,645.9 
																																																							"/>
																											<g transform="rotate(72)">
																												<polygon id="triangle_43_" class="st1" points="592.5,630.4 567.4,648.6 558.3,636.1 
																																																									"/>
																											</g>
																										</g>
																										<g>
																											<g id="cone_22_">
																												<polygon id="triangle_44_" class="st1" points="533.5,630.4 558.6,648.6 567.7,636.1 
																																																									"/>
																												<g transform="rotate(-72)">
																													<polygon id="triangle_45_" class="st1" points="533.5,630.4 564.5,630.4 564.5,645.9 
																																																											"/>
																												</g>
																											</g>
																											<g transform="rotate(-144)">
																												<g id="cone_23_">
																													<polygon id="triangle_46_" class="st1" points="581.2,665.1 571.6,635.6 556.9,640.4 
																																																											"/>
																													<polygon id="triangle_47_" class="st1" points="581.2,665.1 556.1,646.9 565.3,634.3 
																																																											"/>
																												</g>
																												<g id="star_3_" transform="translate(229,396)scale(31)">
																												</g>
																											</g>
																											<g>
																												<g id="star_4_" transform="translate(229,396)scale(31)">
																												</g>
																											</g>
																										</g>
																									</g>
																								</g>
																							</g>
																						</g>
																					</g>
																				</g>
																			</g>
																		</g>
																	</g>
																</g>
															</g>
														</g>
													</g>
												</g>
											</g>
										</g>
									</g>
								</g>
							</g>
						</g>
					</g>
				</g>
			</g>
		</g>
	</g>
</g>
</svg>
