<?xml version="1.0" encoding="utf-8"?>
<!-- Generator: Adobe Illustrator 21.0.0, SVG Export Plug-In . SVG Version: 6.00 Build 0)  -->
<svg version="1.1" id="Layer_1" xmlns="http://www.w3.org/2000/svg" xmlns:xlink="http://www.w3.org/1999/xlink" x="0px" y="0px"
	 viewBox="0 0 800 400" style="enable-background:new 0 0 800 400;" xml:space="preserve">
<style type="text/css">
	.st0{fill:#002395;}
	.st1{fill:#FECB00;}
	.st2{fill:#FFFFFF;}
</style>
<rect class="st0" width="800" height="400"/>
<path class="st1" d="M212,0h400v400L212,0z"/>
<g id="g">
	<path id="s" class="st2" d="M117.7,26.2L140-42.5l22.3,68.7l-58.5-42.5h72.3L117.7,26.2z"/>
	<g>
		<path id="s_1_" class="st2" d="M167.7,76.2L190,7.5l22.3,68.7l-58.5-42.5h72.3L167.7,76.2z"/>
	</g>
	<g>
		<path id="s_2_" class="st2" d="M217.7,126.2L240,57.5l22.3,68.7l-58.5-42.5h72.3L217.7,126.2z"/>
	</g>
</g>
<g>
	<g id="g_1_">
		<path id="s_3_" class="st2" d="M267.7,176.2l22.3-68.7l22.3,68.7l-58.5-42.5h72.3L267.7,176.2z"/>
		<g>
			<path id="s_4_" class="st2" d="M317.7,226.2l22.3-68.7l22.3,68.7l-58.5-42.5h72.3L317.7,226.2z"/>
		</g>
		<g>
			<path id="s_5_" class="st2" d="M367.7,276.2l22.3-68.7l22.3,68.7l-58.5-42.5h72.3L367.7,276.2z"/>
		</g>
	</g>
	<g>
		<g id="g_2_">
			<path id="s_6_" class="st2" d="M417.7,326.2l22.3-68.7l22.3,68.7l-58.5-42.5h72.3L417.7,326.2z"/>
			<g>
				<path id="s_7_" class="st2" d="M467.7,376.2l22.3-68.7l22.3,68.7l-58.5-42.5h72.3L467.7,376.2z"/>
			</g>
			<g>
				<path id="s_8_" class="st2" d="M517.7,426.2l22.3-68.7l22.3,68.7l-58.5-42.5h72.3L517.7,426.2z"/>
			</g>
		</g>
	</g>
</g>
</svg>
