<?xml version="1.0" encoding="utf-8"?>
<!-- Generator: Adobe Illustrator 21.0.0, SVG Export Plug-In . SVG Version: 6.00 Build 0)  -->
<svg version="1.1" id="Layer_1" xmlns="http://www.w3.org/2000/svg" xmlns:xlink="http://www.w3.org/1999/xlink" x="0px" y="0px"
	 viewBox="0 0 1080 720" style="enable-background:new 0 0 1080 720;" xml:space="preserve">
<style type="text/css">
	.st0{fill:#20603D;}
	.st1{fill:#FAD201;}
	.st2{fill:#00A1DE;}
	.st3{fill:#E5BE01;}
	.st4{fill:#E5BE01;stroke:#00A1DE;stroke-width:3.4;}
</style>
<rect class="st0" width="1080" height="720"/>
<rect class="st1" width="1080" height="540"/>
<rect class="st2" width="1080" height="360"/>
<g>
	<g id="h">
		<path id="q" class="st3" d="M116.1,0L35.7,4.7L112.1,30L33.3,13.8L100.5,58l-72-36.1l53.5,60.2L21.9,28.6l36.1,72L13.8,33.3
			L30,112.1L4.7,35.7L0,116.1L-1-1L116.1,0z"/>
		<g transform="scale(1,-1)">
			<path id="q_1_" class="st3" d="M116.1,0L35.7-4.7L112.1-30L33.3-13.8L100.5-58l-72,36.1l53.5-60.2L21.9-28.6l36.1-72L13.8-33.3
				L30-112.1L4.7-35.7L0-116.1L-1,1L116.1,0z"/>
		</g>
	</g>
	<g transform="translate(886.5,188.1)">
		<g id="h_1_">
			<path id="q_2_" class="st3" d="M-116.1,0l80.4,4.7L-112.1,30l78.9-16.3L-100.5,58l72-36.1l-53.5,60.2l60.2-53.5l-36.1,72
				l44.3-67.3L-30,112.1l25.3-76.5L0,116.1L1-1L-116.1,0z"/>
			<g transform="scale(-1,1)">
				<path id="q_3_" class="st3" d="M-116.1,0l80.4-4.7L-112.1-30l78.9,16.3L-100.5-58l72,36.1l-53.5-60.2l60.2,53.5l-36.1-72
					l44.3,67.3L-30-112.1l25.3,76.5L0-116.1L1,1L-116.1,0z"/>
			</g>
		</g>
		<circle class="st4" cx="0" cy="0" r="34.3"/>
	</g>
</g>
</svg>
