<?xml version="1.0" encoding="utf-8"?>
<!-- Generator: Adobe Illustrator 21.0.0, SVG Export Plug-In . SVG Version: 6.00 Build 0)  -->
<svg version="1.1" id="Layer_1" xmlns="http://www.w3.org/2000/svg" xmlns:xlink="http://www.w3.org/1999/xlink" x="0px" y="0px"
	 viewBox="0 0 900 600" style="enable-background:new 0 0 900 600;" xml:space="preserve">
<style type="text/css">
	.st0{fill:#28AE66;}
	.st1{fill:#FFFFFF;}
	.st2{fill:#CA3745;}
	.st3{fill:#383739;}
	.st4{fill:#FAAE29;}
</style>
<rect class="st0" width="900" height="600"/>
<g>
	<path id="crescent" class="st1" d="M446.8,66.5c26.6,11.4,45.2,37.9,45.2,68.6c0,41.2-33.4,74.7-74.7,74.7
		c-18.5,0-35.3-6.7-48.4-17.8c8.1,3.5,16.9,5.5,26.2,6c41.2,1.8,76-30.1,77.8-71.3C474.1,102.7,463.7,81,446.8,66.5L446.8,66.5z"/>
	<path id="star" class="st1" d="M375.6,121.4l8.5-26l-22.1,16.1h27.4l-22.1-16.1L375.6,121.4z"/>
	<g>
		<path id="star_1_" class="st1" d="M375.6,83l8.5-26l-22.1,16.1h27.4L367.2,57L375.6,83z"/>
	</g>
	<g>
		<path id="star_2_" class="st1" d="M413.6,102.7l8.5-26l-22.1,16.1h27.4l-22.1-16.1L413.6,102.7z"/>
	</g>
	<g>
		<path id="star_3_" class="st1" d="M337.7,140.1l8.5-26L324,130.2h27.4l-22.1-16.1L337.7,140.1z"/>
	</g>
	<g>
		<path id="star_4_" class="st1" d="M375.6,159.8l8.5-26l-22.1,16.1h27.4l-22.1-16.1L375.6,159.8z"/>
	</g>
</g>
<g>
	<rect x="108" class="st2" width="162" height="600"/>
	<g id="ornm5">
		<g id="ornm">
			<path class="st3" d="M108-39.6v5.9l9.1,8.5l-3.1,2.9l6.5,6l-2.9,2.6v-3.8h-5.6v4.5l12.6,11.8h6.4l0.7-4.1h-3.7l4-3.7L142,0
				l-10,9.1l-4-3.7h3.7L131,1.2h-6.4L112.1,13v4.5h5.6v-3.8l2.9,2.6l-6.5,6l3.1,2.9l-9.1,8.5v5.9l15.4-14.4l-3.1-2.9l6.5-6l-5.6-5.2
				l3.7-3.4l7.1,6.6L147.6,0L132-14.3l-7.1,6.6l-3.7-3.4l5.6-5.2l-6.5-6l3.1-2.9L108-39.6L108-39.6z M108-11.1v22.1l3.6-3.7V3.1h3.8
				l3.1-3.1l-3.1-3.1h-3.8v-4.3L108-11.1L108-11.1z M134.3-3.2l-0.5,3l0.5,3.1l3.3-3.1L134.3-3.2z"/>
			<path class="st4" d="M108-39v4.7l9.7,9.1l-3.1,2.9l6.5,6l-3.9,3.7v-4.4h-4.7v3.9l12.3,11.5h5.7l0.6-3.3H127l5.1-4.8L142.6,0
				L132,9.7L127,5h4.2l-0.6-3.3h-5.7l-12.3,11.5v3.9h4.7v-4.4l3.9,3.7l-6.5,6l3.1,2.9l-9.7,9.1V39l14.8-13.7l-3.1-2.9l6.5-6
				l-5.6-5.2l4.3-4l7.1,6.6L146.9,0L132-13.7l-7.1,6.6l-4.3-4l5.6-5.2l-6.5-6l3.1-2.9L108-39L108-39z M108-10.4v20.9l3.2-3.2V2.6
				h4.1l2.6-2.6l-2.6-2.6h-4.1v-4.6L108-10.4L108-10.4z M134.6-2.4l-0.4,2.2l0.4,2.2l2.3-2.2L134.6-2.4z"/>
		</g>
		<g>
			<g id="ornm_1_">
				<path class="st3" d="M108,69.6v5.9l9.1,8.5l-3.1,2.9l6.5,6l-2.9,2.6v-3.8h-5.6v4.5l12.6,11.8h6.4l0.7-4.1h-3.7l4-3.7l10,9.1
					l-10,9.1l-4-3.7h3.7l-0.7-4.2h-6.4l-12.6,11.8v4.5h5.6v-3.8l2.9,2.6l-6.5,6l3.1,2.9l-9.1,8.5v5.9l15.4-14.4l-3.1-2.9l6.5-6
					l-5.6-5.2l3.7-3.4l7.1,6.6l15.6-14.3L132,94.9l-7.1,6.6l-3.7-3.4l5.6-5.2l-6.5-6l3.1-2.9L108,69.6L108,69.6z M108,98.1v22.1
					l3.6-3.7v-4.3h3.8l3.1-3.1l-3.1-3.1h-3.8v-4.3L108,98.1L108,98.1z M134.3,106l-0.5,3l0.5,3.1l3.3-3.1L134.3,106z"/>
				<path class="st4" d="M108,70.2v4.7l9.7,9.1l-3.1,2.9l6.5,6l-3.9,3.7v-4.4h-4.7v3.9l12.3,11.5h5.7l0.6-3.3H127l5.1-4.8l10.6,9.7
					l-10.6,9.7l-5.1-4.7h4.2l-0.6-3.3h-5.7l-12.3,11.5v3.9h4.7v-4.4l3.9,3.7l-6.5,6l3.1,2.9l-9.7,9.1v4.7l14.8-13.7l-3.1-2.9l6.5-6
					l-5.6-5.2l4.3-4l7.1,6.6l14.9-13.7L132,95.5l-7.1,6.6l-4.3-4l5.6-5.2l-6.5-6l3.1-2.9L108,70.2L108,70.2z M108,98.8v20.9l3.2-3.2
					v-4.6h4.1l2.6-2.6l-2.6-2.6h-4.1V102L108,98.8L108,98.8z M134.6,106.8l-0.4,2.2l0.4,2.2l2.3-2.2L134.6,106.8z"/>
			</g>
		</g>
		<g>
			<g id="ornm_2_">
				<path class="st3" d="M108,182.4v5.9l9.1,8.5l-3.1,2.9l6.5,6l-2.9,2.6v-3.8h-5.6v4.5l12.6,11.8h6.4l0.7-4.1h-3.7l4-3.7l10,9.1
					l-10,9.1l-4-3.7h3.7l-0.7-4.2h-6.4L112.1,235v4.5h5.6v-3.8l2.9,2.6l-6.5,6l3.1,2.9l-9.1,8.5v5.9l15.4-14.4l-3.1-2.9l6.5-6
					l-5.6-5.2l3.7-3.4l7.1,6.6l15.6-14.3L132,207.7l-7.1,6.6l-3.7-3.4l5.6-5.2l-6.5-6l3.1-2.9L108,182.4L108,182.4z M108,210.9v22.1
					l3.6-3.7v-4.3h3.8l3.1-3.1l-3.1-3.1h-3.8v-4.3L108,210.9L108,210.9z M134.3,218.8l-0.5,3l0.5,3.1l3.3-3.1L134.3,218.8z"/>
				<path class="st4" d="M108,183v4.7l9.7,9.1l-3.1,2.9l6.5,6l-3.9,3.7v-4.4h-4.7v3.9l12.3,11.5h5.7l0.6-3.3H127l5.1-4.8l10.6,9.7
					l-10.6,9.7L127,227h4.2l-0.6-3.3h-5.7l-12.3,11.5v3.9h4.7v-4.4l3.9,3.7l-6.5,6l3.1,2.9l-9.7,9.1v4.7l14.8-13.7l-3.1-2.9l6.5-6
					l-5.6-5.2l4.3-4l7.1,6.6l14.9-13.7L132,208.3l-7.1,6.6l-4.3-4l5.6-5.2l-6.5-6l3.1-2.9L108,183L108,183z M108,211.6v20.9l3.2-3.2
					v-4.6h4.1l2.6-2.6l-2.6-2.6h-4.1v-4.6L108,211.6L108,211.6z M134.6,219.6l-0.4,2.2l0.4,2.2l2.3-2.2L134.6,219.6z"/>
			</g>
		</g>
		<g>
			<g id="ornm_3_">
				<path class="st3" d="M108,295.2v5.9l9.1,8.5l-3.1,2.9l6.5,6l-2.9,2.6v-3.8h-5.6v4.5l12.6,11.8h6.4l0.7-4.1h-3.7l4-3.7l10,9.1
					l-10,9.1l-4-3.7h3.7L131,336h-6.4l-12.6,11.8v4.5h5.6v-3.8l2.9,2.6l-6.5,6l3.1,2.9l-9.1,8.5v5.9l15.4-14.4l-3.1-2.9l6.5-6
					l-5.6-5.2l3.7-3.4l7.1,6.6l15.6-14.3L132,320.5l-7.1,6.6l-3.7-3.4l5.6-5.2l-6.5-6l3.1-2.9L108,295.2L108,295.2z M108,323.7v22.1
					l3.6-3.7v-4.3h3.8l3.1-3.1l-3.1-3.1h-3.8v-4.3L108,323.7L108,323.7z M134.3,331.6l-0.5,3l0.5,3.1l3.3-3.1L134.3,331.6z"/>
				<path class="st4" d="M108,295.8v4.7l9.7,9.1l-3.1,2.9l6.5,6l-3.9,3.7v-4.4h-4.7v3.9l12.3,11.5h5.7l0.6-3.3H127l5.1-4.8l10.6,9.7
					l-10.6,9.7l-5.1-4.7h4.2l-0.6-3.3h-5.7l-12.3,11.5v3.9h4.7v-4.4l3.9,3.7l-6.5,6l3.1,2.9l-9.7,9.1v4.7l14.8-13.7l-3.1-2.9l6.5-6
					l-5.6-5.2l4.3-4l7.1,6.6l14.9-13.7L132,321.1l-7.1,6.6l-4.3-4l5.6-5.2l-6.5-6l3.1-2.9L108,295.8L108,295.8z M108,324.4v20.9
					l3.2-3.2v-4.6h4.1l2.6-2.6l-2.6-2.6h-4.1v-4.6L108,324.4L108,324.4z M134.6,332.4l-0.4,2.2l0.4,2.2l2.3-2.2L134.6,332.4z"/>
			</g>
		</g>
		<g>
			<g id="ornm_4_">
				<path class="st3" d="M108,408v5.9l9.1,8.5l-3.1,2.9l6.5,6l-2.9,2.6v-3.8h-5.6v4.5l12.6,11.8h6.4l0.7-4.1h-3.7l4-3.7l10,9.1
					l-10,9.1l-4-3.7h3.7l-0.7-4.2h-6.4l-12.6,11.8v4.5h5.6v-3.8l2.9,2.6l-6.5,6l3.1,2.9l-9.1,8.5v5.9l15.4-14.4l-3.1-2.9l6.5-6
					l-5.6-5.2l3.7-3.4l7.1,6.6l15.6-14.3L132,433.3l-7.1,6.6l-3.7-3.4l5.6-5.2l-6.5-6l3.1-2.9L108,408L108,408z M108,436.5v22.1
					l3.6-3.7v-4.3h3.8l3.1-3.1l-3.1-3.1h-3.8v-4.3L108,436.5L108,436.5z M134.3,444.4l-0.5,3l0.5,3.1l3.3-3.1L134.3,444.4z"/>
				<path class="st4" d="M108,408.6v4.7l9.7,9.1l-3.1,2.9l6.5,6l-3.9,3.7v-4.4h-4.7v3.9l12.3,11.5h5.7l0.6-3.3H127l5.1-4.8l10.6,9.7
					l-10.6,9.7l-5.1-4.7h4.2l-0.6-3.3h-5.7l-12.3,11.5v3.9h4.7v-4.4l3.9,3.7l-6.5,6l3.1,2.9l-9.7,9.1v4.7l14.8-13.7l-3.1-2.9l6.5-6
					l-5.6-5.2l4.3-4l7.1,6.6l14.9-13.7L132,433.9l-7.1,6.6l-4.3-4l5.6-5.2l-6.5-6l3.1-2.9L108,408.6L108,408.6z M108,437.2V458
					l3.2-3.2v-4.6h4.1l2.6-2.6l-2.6-2.6h-4.1v-4.6L108,437.2L108,437.2z M134.6,445.2l-0.4,2.2l0.4,2.2l2.3-2.2L134.6,445.2z"/>
			</g>
		</g>
	</g>
	<g>
		<g id="ornm5_1_">
			<g id="ornm_5_">
				<path class="st3" d="M270-39.6v5.9l-9.1,8.5l3.1,2.9l-6.5,6l2.9,2.6v-3.8h5.6v4.5L253.3-1.2H247l-0.7-4.1h3.7l-4-3.7L236,0
					l10,9.1l4-3.7h-3.7l0.7-4.2h6.4L265.9,13v4.5h-5.6v-3.8l-2.9,2.6l6.5,6l-3.1,2.9l9.1,8.5v5.9l-15.4-14.4l3.1-2.9l-6.5-6l5.6-5.2
					L253,7.7l-7.1,6.6L230.4,0L246-14.3l7.1,6.6l3.7-3.4l-5.6-5.2l6.5-6l-3.1-2.9L270-39.6L270-39.6z M270-11.1v22.1l-3.6-3.7V3.1
					h-3.8L259.5,0l3.1-3.1h3.8v-4.3L270-11.1L270-11.1z M243.7-3.2l0.5,3l-0.5,3.1l-3.3-3.1L243.7-3.2z"/>
				<path class="st4" d="M270-39v4.7l-9.7,9.1l3.1,2.9l-6.5,6l3.9,3.7v-4.4h4.7v3.9L253.1-1.6h-5.7l-0.6-3.3h4.2L246-9.7L235.4,0
					L246,9.7L251,5h-4.2l0.6-3.3h5.7l12.3,11.5v3.9h-4.7v-4.4l-3.9,3.7l6.5,6l-3.1,2.9l9.7,9.1V39l-14.8-13.7l3.1-2.9l-6.5-6
					l5.6-5.2l-4.3-4l-7.1,6.6L231.1,0L246-13.7l7.1,6.6l4.3-4l-5.6-5.2l6.5-6l-3.1-2.9L270-39L270-39z M270-10.4v20.9l-3.2-3.2V2.6
					h-4.1L260.1,0l2.6-2.6h4.1v-4.6L270-10.4L270-10.4z M243.4-2.4l0.4,2.2L243.4,2l-2.3-2.2L243.4-2.4z"/>
			</g>
			<g>
				<g id="ornm_6_">
					<path class="st3" d="M270,69.6v5.9l-9.1,8.5l3.1,2.9l-6.5,6l2.9,2.6v-3.8h5.6v4.5L253.3,108H247l-0.7-4.1h3.7l-4-3.7l-10,9.1
						l10,9.1l4-3.7h-3.7l0.7-4.2h6.4l12.6,11.8v4.5h-5.6v-3.8l-2.9,2.6l6.5,6l-3.1,2.9l9.1,8.5v5.9l-15.4-14.4l3.1-2.9l-6.5-6
						l5.6-5.2l-3.7-3.4l-7.1,6.6l-15.6-14.3L246,94.9l7.1,6.6l3.7-3.4l-5.6-5.2l6.5-6l-3.1-2.9L270,69.6L270,69.6z M270,98.1v22.1
						l-3.6-3.7v-4.3h-3.8l-3.1-3.1l3.1-3.1h3.8v-4.3L270,98.1L270,98.1z M243.7,106l0.5,3l-0.5,3.1l-3.3-3.1L243.7,106z"/>
					<path class="st4" d="M270,70.2v4.7l-9.7,9.1l3.1,2.9l-6.5,6l3.9,3.7v-4.4h4.7v3.9l-12.3,11.5h-5.7l-0.6-3.3h4.2l-5.1-4.8
						l-10.6,9.7l10.6,9.7l5.1-4.7h-4.2l0.6-3.3h5.7l12.3,11.5v3.9h-4.7v-4.4l-3.9,3.7l6.5,6l-3.1,2.9l9.7,9.1v4.7l-14.8-13.7
						l3.1-2.9l-6.5-6l5.6-5.2l-4.3-4l-7.1,6.6l-14.9-13.7L246,95.5l7.1,6.6l4.3-4l-5.6-5.2l6.5-6l-3.1-2.9L270,70.2L270,70.2z
						 M270,98.8v20.9l-3.2-3.2v-4.6h-4.1l-2.6-2.6l2.6-2.6h4.1V102L270,98.8L270,98.8z M243.4,106.8l0.4,2.2l-0.4,2.2l-2.3-2.2
						L243.4,106.8z"/>
				</g>
			</g>
			<g>
				<g id="ornm_7_">
					<path class="st3" d="M270,182.4v5.9l-9.1,8.5l3.1,2.9l-6.5,6l2.9,2.6v-3.8h5.6v4.5l-12.6,11.8H247l-0.7-4.1h3.7l-4-3.7l-10,9.1
						l10,9.1l4-3.7h-3.7l0.7-4.2h6.4l12.6,11.8v4.5h-5.6v-3.8l-2.9,2.6l6.5,6l-3.1,2.9l9.1,8.5v5.9l-15.4-14.4l3.1-2.9l-6.5-6
						l5.6-5.2l-3.7-3.4l-7.1,6.6L230.4,222l15.6-14.3l7.1,6.6l3.7-3.4l-5.6-5.2l6.5-6l-3.1-2.9L270,182.4L270,182.4z M270,210.9
						v22.1l-3.6-3.7v-4.3h-3.8l-3.1-3.1l3.1-3.1h3.8v-4.3L270,210.9L270,210.9z M243.7,218.8l0.5,3l-0.5,3.1l-3.3-3.1L243.7,218.8z"
						/>
					<path class="st4" d="M270,183v4.7l-9.7,9.1l3.1,2.9l-6.5,6l3.9,3.7v-4.4h4.7v3.9l-12.3,11.5h-5.7l-0.6-3.3h4.2l-5.1-4.8
						l-10.6,9.7l10.6,9.7l5.1-4.7h-4.2l0.6-3.3h5.7l12.3,11.5v3.9h-4.7v-4.4l-3.9,3.7l6.5,6l-3.1,2.9l9.7,9.1v4.7l-14.8-13.7
						l3.1-2.9l-6.5-6l5.6-5.2l-4.3-4l-7.1,6.6L231.1,222l14.9-13.7l7.1,6.6l4.3-4l-5.6-5.2l6.5-6l-3.1-2.9L270,183L270,183z
						 M270,211.6v20.9l-3.2-3.2v-4.6h-4.1l-2.6-2.6l2.6-2.6h4.1v-4.6L270,211.6L270,211.6z M243.4,219.6l0.4,2.2l-0.4,2.2l-2.3-2.2
						L243.4,219.6z"/>
				</g>
			</g>
			<g>
				<g id="ornm_8_">
					<path class="st3" d="M270,295.2v5.9l-9.1,8.5l3.1,2.9l-6.5,6l2.9,2.6v-3.8h5.6v4.5l-12.6,11.8H247l-0.7-4.1h3.7l-4-3.7l-10,9.1
						l10,9.1l4-3.7h-3.7l0.7-4.2h6.4l12.6,11.8v4.5h-5.6v-3.8l-2.9,2.6l6.5,6l-3.1,2.9l9.1,8.5v5.9l-15.4-14.4l3.1-2.9l-6.5-6
						l5.6-5.2l-3.7-3.4l-7.1,6.6l-15.6-14.3l15.6-14.3l7.1,6.6l3.7-3.4l-5.6-5.2l6.5-6l-3.1-2.9L270,295.2L270,295.2z M270,323.7
						v22.1l-3.6-3.7v-4.3h-3.8l-3.1-3.1l3.1-3.1h3.8v-4.3L270,323.7L270,323.7z M243.7,331.6l0.5,3l-0.5,3.1l-3.3-3.1L243.7,331.6z"
						/>
					<path class="st4" d="M270,295.8v4.7l-9.7,9.1l3.1,2.9l-6.5,6l3.9,3.7v-4.4h4.7v3.9l-12.3,11.5h-5.7l-0.6-3.3h4.2l-5.1-4.8
						l-10.6,9.7l10.6,9.7l5.1-4.7h-4.2l0.6-3.3h5.7l12.3,11.5v3.9h-4.7v-4.4l-3.9,3.7l6.5,6l-3.1,2.9l9.7,9.1v4.7l-14.8-13.7
						l3.1-2.9l-6.5-6l5.6-5.2l-4.3-4l-7.1,6.6l-14.9-13.7l14.9-13.7l7.1,6.6l4.3-4l-5.6-5.2l6.5-6l-3.1-2.9L270,295.8L270,295.8z
						 M270,324.4v20.9l-3.2-3.2v-4.6h-4.1l-2.6-2.6l2.6-2.6h4.1v-4.6L270,324.4L270,324.4z M243.4,332.4l0.4,2.2l-0.4,2.2l-2.3-2.2
						L243.4,332.4z"/>
				</g>
			</g>
			<g transform="matrix(-1,0,0,1,377.99597,0)">
				<g id="ornm_9_">
					<path class="st3" d="M270,408v5.9l-9.1,8.5l3.1,2.9l-6.5,6l2.9,2.6v-3.8h5.6v4.5l-12.6,11.8H247l-0.7-4.1h3.7l-4-3.7l-10,9.1
						l10,9.1l4-3.7h-3.7l0.7-4.2h6.4l12.6,11.8v4.5h-5.6v-3.8l-2.9,2.6l6.5,6l-3.1,2.9l9.1,8.5v5.9l-15.4-14.4l3.1-2.9l-6.5-6
						l5.6-5.2l-3.7-3.4l-7.1,6.6l-15.6-14.3l15.6-14.3l7.1,6.6l3.7-3.4l-5.6-5.2l6.5-6l-3.1-2.9L270,408L270,408z M270,436.5v22.1
						l-3.6-3.7v-4.3h-3.8l-3.1-3.1l3.1-3.1h3.8v-4.3L270,436.5L270,436.5z M243.7,444.4l0.5,3l-0.5,3.1l-3.3-3.1L243.7,444.4z"/>
					<path class="st4" d="M270,408.6v4.7l-9.7,9.1l3.1,2.9l-6.5,6l3.9,3.7v-4.4h4.7v3.9L253.1,446h-5.7l-0.6-3.3h4.2l-5.1-4.8
						l-10.6,9.7l10.6,9.7l5.1-4.7h-4.2l0.6-3.3h5.7l12.3,11.5v3.9h-4.7v-4.4l-3.9,3.7l6.5,6l-3.1,2.9l9.7,9.1v4.7l-14.8-13.7
						l3.1-2.9l-6.5-6l5.6-5.2l-4.3-4l-7.1,6.6l-14.9-13.7l14.9-13.7l7.1,6.6l4.3-4l-5.6-5.2l6.5-6l-3.1-2.9L270,408.6L270,408.6z
						 M270,437.2V458l-3.2-3.2v-4.6h-4.1l-2.6-2.6l2.6-2.6h4.1v-4.6L270,437.2L270,437.2z M243.4,445.2l0.4,2.2l-0.4,2.2l-2.3-2.2
						L243.4,445.2z"/>
				</g>
			</g>
		</g>
		<path id="branch" class="st4" d="M121.1,530.8c0.8,3.4,3.5,6,4.2,9.5c1.3-3.7,2.5-6.8,1.6-10.8c-0.6-2.9-3.1-4.9-3.3-7.9
			C120.9,524,120.3,527.4,121.1,530.8L121.1,530.8z M120.5,545.1c2.2,3.1,5.4,5.4,8.8,7c-0.7-2.7,0.6-4.7,2-6.9
			c1.7-2.6,2.5-5.1,1.1-8.1c-0.6,1.5-1.5,2.8-2.5,4.1c-1.5,2.1-2.5,3.9-2.7,6.5c-1.7-1.3-2.5-3.2-3.4-5.1c-1.4-2.7-3.7-4.9-6.3-6.4
			C118.1,539.4,118.6,542.6,120.5,545.1L120.5,545.1z M133,554.3c-0.5,1.7-0.9,3.4-0.8,5.2c-1.5-1.6-3.4-2.8-5.2-4.1
			c-2.4-1.9-5.2-3.3-7.1-5.8c0.3,3.6,1.8,6.6,4.8,8.8c3.1,2.3,6.9,3.6,9.9,6c-0.5-3.3,0.8-5.9,1.8-9c0.9-2.9,0-5.8-1.9-8
			C134.5,549.9,133.7,552,133,554.3L133,554.3z M140,565.4c0.6,2.5,2.4,4.5,3.7,6.8c-3.3-1-6.2-2.8-9.2-4.5
			c-3.6-1.9-7.4-3.2-10.6-5.7c1.6,5.9,5.6,9.4,11.4,11.1c4,1.2,7.3,0.6,12.1,2.5c-0.6-3.3-1.5-6.8-3.1-9.7c-1.2-2.1-2.5-4.2-3.3-6.6
			C140,561.3,139.5,563.2,140,565.4L140,565.4z M152.2,574.5c1.1,1.9,2.6,3.6,4.5,4.9c-4.7,0.3-8.5-2.7-13-2.8
			c-2.8-0.1-5.5,0.8-8.4,0.5c3.4,2.3,7,4.3,11.1,4.9c5.4,0.7,10.4-0.7,16.3-0.1c-2.8-2-4.2-4.6-5.9-7.4c-2.3-3.5-4.4-6-8.8-6.6
			C149.8,569.7,150.8,572.2,152.2,574.5L152.2,574.5z M168.8,582.2c-8.3,1.4-16.2,3.2-24.6,3.3c9.4,3.3,18.3,3.9,27.7,0.5
			c5.1-1.8,8.9-2.8,12.7-2.5c5.6,0.4,12.4,2.6,19.9,10.5l2.9-2.4C196.7,582.1,182.6,579.9,168.8,582.2L168.8,582.2z"/>
		<g transform="matrix(-1,0,0,1,378.03633,0)">
			<path id="branch_1_" class="st4" d="M256.9,530.8c-0.8,3.4-3.5,6-4.2,9.5c-1.3-3.7-2.5-6.8-1.6-10.8c0.6-2.9,3.1-4.9,3.3-7.9
				C257.1,524,257.7,527.4,256.9,530.8L256.9,530.8z M257.6,545.1c-2.2,3.1-5.4,5.4-8.8,7c0.7-2.7-0.6-4.7-2-6.9
				c-1.7-2.6-2.5-5.1-1.1-8.1c0.6,1.5,1.5,2.8,2.5,4.1c1.5,2.1,2.5,3.9,2.7,6.5c1.7-1.3,2.5-3.2,3.4-5.1c1.4-2.7,3.7-4.9,6.3-6.4
				C260,539.4,259.4,542.6,257.6,545.1L257.6,545.1z M245,554.3c0.5,1.7,0.9,3.4,0.8,5.2c1.5-1.6,3.4-2.8,5.2-4.1
				c2.4-1.9,5.2-3.3,7.1-5.8c-0.3,3.6-1.8,6.6-4.8,8.8c-3.1,2.3-6.9,3.6-9.9,6c0.5-3.3-0.8-5.9-1.8-9c-0.9-2.9,0-5.8,1.9-8
				C243.5,549.9,244.3,552,245,554.3L245,554.3z M238,565.4c-0.6,2.5-2.4,4.5-3.7,6.8c3.3-1,6.2-2.8,9.2-4.5
				c3.6-1.9,7.4-3.2,10.6-5.7c-1.6,5.9-5.6,9.4-11.4,11.1c-4,1.2-7.3,0.6-12.1,2.5c0.6-3.3,1.5-6.8,3.1-9.7c1.2-2.1,2.5-4.2,3.3-6.6
				C238.1,561.3,238.6,563.2,238,565.4L238,565.4z M225.9,574.5c-1.1,1.9-2.6,3.6-4.5,4.9c4.7,0.3,8.5-2.7,13-2.8
				c2.8-0.1,5.5,0.8,8.4,0.5c-3.4,2.3-7,4.3-11.1,4.9c-5.4,0.7-10.4-0.7-16.3-0.1c2.8-2,4.2-4.6,5.9-7.4c2.3-3.5,4.4-6,8.8-6.6
				C228.2,569.7,227.2,572.2,225.9,574.5L225.9,574.5z M209.2,582.2c8.3,1.4,16.2,3.2,24.6,3.3c-9.4,3.3-18.3,3.9-27.7,0.5
				c-5.1-1.8-8.9-2.8-12.7-2.5c-5.6,0.4-12.4,2.6-19.9,10.5l-2.9-2.4C181.3,582.1,195.4,579.9,209.2,582.2L209.2,582.2z"/>
		</g>
		<g>
			<path class="st3" d="M128.3,70.3l-13-8V43.2l13-8V25.2l12.3-7.4h9.8L169,7.3h40l18.6,10.5h9.8l12.3,7.4v10.1l13,8l0,19.1l-13,8
				v10.1l-12.3,7.4h-9.8L209,98.3h-40l-18.6-10.5h-9.8l-12.3-7.4L128.3,70.3z"/>
			<path class="st0" d="M169.1,7.7l-18.6,10.5h-9.7l-12,7.2v10.1l-13,7.9v18.6l13,7.9v10.2l11.9,7.2h9.8l18.6,10.5h39.8l18.6-10.5
				h9.8l12-7.2V70.1l13-7.9V43.5l-13-7.9V25.4l-12-7.2h-9.8L208.9,7.7C208.9,7.7,169.1,7.7,169.1,7.7z M170.2,11.6h37.7l18.6,10.5
				h9.7l9.1,5.5v10.1l13,7.9V60l-13,7.9v10.1l-9.1,5.5h-9.7L207.8,94h-37.7l-18.6-10.5h-9.7l-9.1-5.5V68l-13-7.9V45.6l13-7.9V27.5
				l9.1-5.5h9.7C151.5,22.1,170.2,11.6,170.2,11.6z"/>
			<path class="st4" d="M188.8,53V12h-18.5l-18.6,10.5h-9.7l-8.8,5.3v10.1l-13,8v6.7l69.1,0v41h18.5l18.6-10.5h9.7l8.8-5.3V67.7
				l13-8V53L188.8,53z"/>
			<path class="st1" d="M120.1,53l0,6.7l13,8v10.1l8.8,5.3h9.7l18.6,10.5h18.5v-41l69.1,0v-6.7l-13-8V27.8l-8.8-5.3h-9.7L207.7,12
				h-18.5v41L120.1,53z"/>
			<g id="carp1h">
				<g id="carp1q">
					<path class="st3" d="M148.4,26.3l-3.2-3l-3.2,2l3.2,3l-4.1,2.5h9l7.7,7.3l2.5-2.6l-7.5-7.1v-4.8L148.4,26.3z"/>
					<path class="st3" d="M163.6,25l-3.2-3l-3.2,2l3.2,3l-4.1,2.5h9l7.7,7.3l2.5-2.6l-7.5-7.1v-4.8L163.6,25z"/>
					<path class="st3" d="M147.3,34.8l-3.2-3l-3.2,2l3.2,3l-4.1,2.5h9l7.7,7.3l2.5-2.6l-7.5-7.1v-4.8L147.3,34.8z"/>
					<path class="st3" d="M189,11.6h-8.1l-4.2,4.1h-8.3l-6.1,3.2l1.4,3.5l5.4-2.9h2.4l8.3,9.6l9.1-5.5L189,11.6z"/>
					<path class="st2" d="M145.2,23.8l2.9,2.7l-2.4,1.5l-2.9-2.7L145.2,23.8z M152.4,24.3v4.2l7.3,6.9l-1.9,2l-7.5-7.1h-7.6
						L152.4,24.3L152.4,24.3z"/>
					<path class="st2" d="M160.3,22.5l2.9,2.7l-2.4,1.5l-2.9-2.7L160.3,22.5z M167.5,23v4.2l7.3,6.9l-1.9,2l-7.5-7.1h-7.6L167.5,23
						L167.5,23z"/>
					<path class="st2" d="M144.1,32.4l2.9,2.7l-2.4,1.5l-2.9-2.7L144.1,32.4z M151.3,32.9v4.2l7.3,6.9l-1.9,2l-7.5-7.1h-7.6
						L151.3,32.9L151.3,32.9z"/>
					<path class="st2" d="M188.8,12h-7.7l-4.2,4.1h-8.3l-5.7,2.9l1.1,2.7l5.1-2.7h2.7l8.2,9.5l8.8-5.4L188.8,12z"/>
				</g>
				<g transform="matrix(1,0,0,-1,0,105.62254)">
					<g id="carp1q_1_">
						<path class="st3" d="M148.4,79.3l-3.2,3l-3.2-2l3.2-3l-4.1-2.5h9l7.7-7.3l2.5,2.6l-7.5,7.1v4.8L148.4,79.3z"/>
						<path class="st3" d="M163.6,80.7l-3.2,3l-3.2-2l3.2-3l-4.1-2.5h9l7.7-7.3l2.5,2.6l-7.5,7.1v4.8L163.6,80.7z"/>
						<path class="st3" d="M147.3,70.8l-3.2,3l-3.2-2l3.2-3l-4.1-2.5h9l7.7-7.3l2.5,2.6l-7.5,7.1v4.8L147.3,70.8z"/>
						<path class="st3" d="M189,94h-8.1l-4.2-4.1h-8.3l-6.1-3.2l1.4-3.5l5.4,2.9h2.4l8.3-9.6l9.1,5.5L189,94z"/>
						<path class="st2" d="M145.2,81.8l2.9-2.7l-2.4-1.5l-2.9,2.7L145.2,81.8z M152.4,81.3v-4.2l7.3-6.9l-1.9-2l-7.5,7.1h-7.6
							L152.4,81.3L152.4,81.3z"/>
						<path class="st2" d="M160.3,83.1l2.9-2.7l-2.4-1.5l-2.9,2.7L160.3,83.1z M167.5,82.6v-4.2l7.3-6.9l-1.9-2l-7.5,7.1h-7.6
							L167.5,82.6L167.5,82.6z"/>
						<path class="st2" d="M144.1,73.2l2.9-2.7l-2.4-1.5l-2.9,2.7L144.1,73.2z M151.3,72.7v-4.2l7.3-6.9l-1.9-2l-7.5,7.1h-7.6
							L151.3,72.7L151.3,72.7z"/>
						<path class="st2" d="M188.8,93.6h-7.7l-4.2-4.1h-8.3l-5.7-2.9l1.1-2.7l5.1,2.7h2.7l8.2-9.5l8.8,5.4L188.8,93.6z"/>
					</g>
				</g>
				<path class="st3" d="M143.1,39.7l-3.9-1.4l-0.1,0.1l-5,3.5v0.9l-8,10.1l8,10.1v0.9l5.1,3.5l3.9-1.4l-2.4-1.6v-3l0.9-1.1h4.2
					V45.4h-4.2l-0.9-1.1v-3L143.1,39.7z"/>
				<path class="st2" d="M134.5,42l4.7-3.3l2.9,1.1l-1.8,1.2v3.4l1.2,1.4h4v14.1h-4l-1.2,1.4v3.4l1.8,1.2l-2.9,1.1l-4.7-3.3l0-0.9
					l-7.9-9.9l7.9-9.9L134.5,42z"/>
			</g>
			<g id="carp1">
				<g id="carp1h_1_">
					<g id="carp1q_2_">
						<path class="st3" d="M229.5,26.3l3.2-3l3.2,2l-3.2,3l4.1,2.5h-9l-7.7,7.3l-2.5-2.6l7.5-7.1v-4.8L229.5,26.3z"/>
						<path class="st3" d="M214.4,25l3.2-3l3.2,2l-3.2,3l4.1,2.5h-9l-7.7,7.3l-2.5-2.6l7.5-7.1v-4.8L214.4,25z"/>
						<path class="st3" d="M230.7,34.8l3.2-3l3.2,2l-3.2,3l4.1,2.5h-9l-7.7,7.3l-2.5-2.6l7.5-7.1v-4.8L230.7,34.8z"/>
						<path class="st3" d="M189,11.6h8.1l4.2,4.1h8.3l6.1,3.2l-1.4,3.5l-5.4-2.9h-2.4l-8.3,9.6l-9.1-5.5L189,11.6z"/>
						<path class="st2" d="M232.8,23.8l-2.9,2.7l2.4,1.5l2.9-2.7L232.8,23.8z M225.6,24.3v4.2l-7.3,6.9l1.9,2l7.5-7.1h7.6
							L225.6,24.3L225.6,24.3z"/>
						<path class="st2" d="M217.7,22.5l-2.9,2.7l2.4,1.5l2.9-2.7L217.7,22.5z M210.5,23v4.2l-7.3,6.9l1.9,2l7.5-7.1h7.6L210.5,23
							L210.5,23z"/>
						<path class="st2" d="M233.9,32.4l-2.9,2.7l2.4,1.5l2.9-2.7L233.9,32.4z M226.7,32.9v4.2l-7.3,6.9l1.9,2l7.5-7.1h7.6
							L226.7,32.9L226.7,32.9z"/>
						<path class="st2" d="M189.2,12h7.7l4.2,4.1h8.3l5.7,2.9l-1.1,2.7l-5.1-2.7h-2.7l-8.2,9.5l-8.8-5.4L189.2,12z"/>
					</g>
					<g transform="matrix(-1,0,0,1,377.99368,0)">
						<g id="carp1q_3_">
							<path class="st3" d="M229.5,79.3l3.2,3l3.2-2l-3.2-3l4.1-2.5h-9l-7.7-7.3l-2.5,2.6l7.5,7.1v4.8L229.5,79.3z"/>
							<path class="st3" d="M214.4,80.7l3.2,3l3.2-2l-3.2-3l4.1-2.5h-9l-7.7-7.3l-2.5,2.6l7.5,7.1v4.8L214.4,80.7z"/>
							<path class="st3" d="M230.7,70.8l3.2,3l3.2-2l-3.2-3l4.1-2.5h-9l-7.7-7.3l-2.5,2.6l7.5,7.1v4.8L230.7,70.8z"/>
							<path class="st3" d="M189,94h8.1l4.2-4.1h8.3l6.1-3.2l-1.4-3.5l-5.4,2.9h-2.4l-8.3-9.6l-9.1,5.5L189,94z"/>
							<path class="st2" d="M232.8,81.8l-2.9-2.7l2.4-1.5l2.9,2.7L232.8,81.8z M225.6,81.3v-4.2l-7.3-6.9l1.9-2l7.5,7.1h7.6
								L225.6,81.3L225.6,81.3z"/>
							<path class="st2" d="M217.7,83.1l-2.9-2.7l2.4-1.5l2.9,2.7L217.7,83.1z M210.5,82.6v-4.2l-7.3-6.9l1.9-2l7.5,7.1h7.6
								L210.5,82.6L210.5,82.6z"/>
							<path class="st2" d="M233.9,73.2l-2.9-2.7l2.4-1.5l2.9,2.7L233.9,73.2z M226.7,72.7v-4.2l-7.3-6.9l1.9-2l7.5,7.1h7.6
								L226.7,72.7L226.7,72.7z"/>
							<path class="st2" d="M189.2,93.6h7.7l4.2-4.1h8.3l5.7-2.9l-1.1-2.7l-5.1,2.7h-2.7l-8.2-9.5l-8.8,5.4L189.2,93.6z"/>
						</g>
					</g>
					<path class="st3" d="M234.9,39.7l3.9-1.4l0.1,0.1l5,3.5v0.9l8,10.1l-8,10.1v0.9l-5.1,3.5l-3.9-1.4l2.4-1.6v-3l-0.9-1.1h-4.2
						V45.4h4.2l0.9-1.1v-3L234.9,39.7z"/>
					<path class="st2" d="M243.4,42l-4.7-3.3l-2.9,1.1l1.8,1.2v3.4l-1.2,1.4h-4v14.1h4l1.2,1.4v3.4l-1.8,1.2l2.9,1.1l4.7-3.3l0-0.9
						l7.9-9.9l-7.9-9.9L243.4,42z"/>
				</g>
				<path class="st3" d="M136.2,61.3l-2.2-1.9v-0.9l-4.7-5.7l4.7-5.7v-0.9l2.2-1.9l3.9,3.2l-2.3,0l3.3,3.4h7.6l6-4.7V33.9h15
					l17.4-10.7v-2.8l-2.7-1.8h-0.8l-2.9,1.9l-0.4,1.4l-2.3-3.1l4.4-3.7h0.7l5-3.6h1.9l5,3.6h0.7l4.4,3.7l-2.3,3.1l-0.4-1.4l-2.9-1.9
					h-0.8l-2.7,1.8v2.8l17.4,10.7h15v12.3l6,4.7h7.6l3.3-3.4l-2.3,0l3.9-3.2l2.2,1.9v0.9l4.7,5.7l-4.7,5.7v0.9l-2.2,1.9l-3.9-3.2
					l2.3,0l-3.3-3.4h-7.6l-6,4.7v12.3h-15l-17.4,10.7v2.8l2.7,1.8h0.8l2.9-1.9l0.4-1.4l2.3,3.1l-4.4,3.7h-0.7l-5,3.6h-1.9l-5-3.6
					h-0.7l-4.4-3.7l2.3-3.1l0.4,1.4l2.9,1.9h0.8l2.7-1.8v-2.8l-17.4-10.7h-15V59.4l-6-4.7h-7.6l-3.3,3.4l2.3,0L136.2,61.3z"/>
				<path class="st4" d="M189.2,87.3l1.9,1.5l-1.9,1.5V87.3L189.2,87.3z M183.2,90L183.2,90l5,3.6h0.6v-2.8l-2.6-2l2.6-2v-5.3
					L170.2,70h-13.7V58.6l-7.1-5.5h-10.7l-2.7,3l-2.7-3l-3.2,0l4.4,5.3v0.9l1.7,1.5l2.8-2.2l-1.6,0V58l3.6-3.7h8l6.3,4.9v12.1h14.7
					l17.7,10.8v3.3l-3,2h-1.1l-3.1-2.1l-0.2-0.8l-1.5,2.1l4,3.3H183.2L183.2,90z M136,50.2l2.1,2.4h-4.2L136,50.2z M188.8,15.4
					l-1.9,1.5l1.9,1.5V15.4z M239.9,53l2.1,2.4l2.1-2.4H239.9L239.9,53z M194.8,15.7l-5-3.6h-0.6v2.8l2.6,2l-2.6,2v5.3l18.6,11.4
					h13.7V47l7.1,5.5h10.7l2.7-3l2.7,3h3.2l-4.4-5.3v-0.9l-1.7-1.5l-2.8,2.2l1.6,0v0.5l-3.6,3.7h-8l-6.3-4.9V34.3h-14.7l-17.7-10.8
					v-3.3l3-2h1.1l3.1,2.1l0.2,0.8l1.5-2.1l-4-3.3L194.8,15.7L194.8,15.7z"/>
				<path class="st1" d="M188.8,90.2l-1.9-1.5l1.9-1.5V90.2z M138.1,53l-2.1,2.4l-2.1-2.4H138.1z M194.8,90L194.8,90l-5,3.6h-0.6
					v-0.7v-2.1l2.6-2l-2.6-2v-5.3L207.8,70h13.7V58.6l7.1-5.5h10.7l2.7,3l2.7-3l3.2,0l-4.4,5.3v0.9l-1.7,1.5l-2.8-2.2l1.6,0V58
					l-3.6-3.7h-8l-6.3,4.9v12.1h-14.7l-17.7,10.8v3.3l3,2h1.1l3.1-2.1l0.2-0.8l1.5,2.1l-4,3.3H194.8L194.8,90z M242,50.2l-2.1,2.4
					h4.2L242,50.2z M183.2,15.7l5-3.6h0.6v2.8l-2.6,2l2.6,2l0,5.3l-18.6,11.4h-13.7V47l-7.1,5.5h-10.7l-2.7-3l-2.7,3h-3.2l4.4-5.3
					v-0.9l1.7-1.5l2.8,2.2l-1.6,0v0.5l3.6,3.7h8l6.3-4.9V34.3h14.7l17.7-10.8v-3.3l-3-2h-1.1l-3.1,2.1l-0.2,0.8l-1.5-2.1l4-3.3
					C182.6,15.7,183.2,15.7,183.2,15.7z M189.2,18.3l1.9-1.5l-1.9-1.5V18.3z"/>
				<path class="st0" d="M188.8,53V24.7L170.3,36h-13.4v11.2l-6.8,5.3l39.2,0v28.3l18.5-11.3h13.4V58.4l6.8-5.3L188.8,53z"/>
				<path class="st2" d="M150.1,53l6.8,5.3v11.2h13.4l18.5,11.3V52.6l39.2,0l-6.8-5.3V36h-13.4l-18.5-11.3V53L150.1,53z"/>
				<path class="st3" d="M169.1,39.1l-3.2-3l-3.2,2l3.2,3l-4.1,2.5h9l7.7,7.3l2.5-2.6l-7.5-7.1v-4.8L169.1,39.1z"/>
				<path class="st3" d="M208.9,66.6l3.2,3l3.2-2l-3.2-3l4.1-2.5h-9l-7.7-7.3l-2.5,2.6l7.5,7.1v4.8L208.9,66.6z"/>
				<path class="st3" d="M169.1,66.6l-3.2,3l-3.2-2l3.2-3l-4.1-2.5h9l7.7-7.3l2.5,2.6l-7.5,7.1v4.8L169.1,66.6z"/>
				<path class="st3" d="M208.9,39.1l3.2-3l3.2,2l-3.2,3l4.1,2.5h-9l-7.7,7.3l-2.5-2.6l7.5-7.1v-4.8L208.9,39.1z"/>
				<path class="st2" d="M212.1,69l-2.9-2.7l2.4-1.5l2.9,2.7L212.1,69z M204.9,68.5v-4.2l-7.3-6.9l1.9-2l7.5,7.1h7.6L204.9,68.5
					L204.9,68.5z M165.9,36.6l2.9,2.7l-2.4,1.5l-2.9-2.7L165.9,36.6z M173.1,37.1v4.2l7.3,6.9l-1.9,2l-7.5-7.1h-7.6L173.1,37.1
					L173.1,37.1z"/>
				<path class="st0" d="M212.1,36.6l-2.9,2.7l2.4,1.5l2.9-2.7L212.1,36.6z M204.9,37.1v4.2l-7.3,6.9l1.9,2l7.5-7.1h7.6L204.9,37.1
					L204.9,37.1z M165.9,69l2.9-2.7l-2.4-1.5l-2.9,2.7L165.9,69z M173.1,68.5v-4.2l7.3-6.9l-1.9-2l-7.5,7.1h-7.6L173.1,68.5
					L173.1,68.5z"/>
				<path class="st3" d="M208.9,52.8L189,66l-19.9-13.2L189,39.6L208.9,52.8z"/>
				<path class="st1" d="M188.8,40.2l-18.6,12.4h37.5l-18.6-12.4v25.2L207.8,53h-37.5l18.6,12.4V40.2z"/>
				<path class="st3" d="M194.3,57.4V61h-10.6v-3.6h-6.9v-9.1h6.9v-3.6h10.6v3.6h6.9v9.1H194.3z"/>
				<path class="st2" d="M184.1,45v3.6h-6.9v3.9h11.5V45L184.1,45L184.1,45z M189.2,52.6h11.5v-3.9h-6.9V45h-4.7L189.2,52.6
					L189.2,52.6z M177.2,53v3.9h6.9v3.6h4.7V53L177.2,53L177.2,53z M189.2,60.6h4.7v-3.6h6.9V53h-11.5V60.6L189.2,60.6z"/>
			</g>
			<g id="carpets">
				<path class="st3" d="M222.9,203.6v-5.8h16v-5.8h16v-52.7h-16v-5.8h-16v-5.8h-16v-5.8h-35.8v5.8h-16v5.8h-16v5.8h-16v52.7h16v5.8
					h16v5.8h16v5.8h35.8v-5.8H222.9z"/>
				<path class="st2" d="M171.6,122.2v5.8h-16v5.8h-16v5.8h-16v51.9h16v5.8h16v5.8h16v5.8h34.9v-5.8h16v-5.8h16v-5.8h16v-51.9h-16
					v-5.8h-16V128h-16v-5.8H171.6L171.6,122.2z M175.8,126.4h26.4v5.8h16v5.8h16v5.8h16v43.4h-16v5.8h-16v5.8h-16v5.8h-26.4v-5.8
					h-16v-5.8h-16v-5.8h-16v-43.4h16v-5.8h16v-5.8h16V126.4z"/>
				<path class="st2" d="M160.2,198.5v-5.8h-16v-5.8h-16v-42.5h16v-5.8h16v-5.8h16v-5.8h25.6v5.8h16v5.8h16v5.8h16v42.5h-16v5.8h-16
					v5.8h-16v5.8h-25.6v-5.8H160.2z"/>
				<path class="st3" d="M163.9,137l-4.1-3.1v6l-4,2.5l0-3.8l-3.8,3.4l-3.8-3.4l0,3.8l-4.4-2.8v5.6l-3.6,2.6l0-3.4l-4.2,3.1
					l-4.2-3.1l0,3.4l-4-2.9v16.9h-4.7v7.7h4.7v16.9l4-2.9l0,3.4l4.2-3.1l4.2,3.1l0-3.4l3.6,2.6v5.6l4.4-2.8l0,3.8l3.8-3.4l3.8,3.4
					l0-3.8l4,2.5v6l4.1-3.1l0,4.2l4.1-3.6l4.1,3.6l0-4.2l3.7,2.8v6.4l5.6-5.1v5.9l7.7-4.9l7.7,4.9v-5.9l5.6,5.1V197l3.7-2.8l0,4.2
					l4.1-3.6l4.1,3.6l0-4.2l4.1,3.1v-6l4-2.5l0,3.8l3.8-3.4l3.8,3.4l0-3.8l4.4,2.8V186l3.6-2.6l0,3.4l4.2-3.1l4.2,3.1l0-3.4l4,2.9
					v-16.9h4.7v-7.7h-4.7v-16.9l-4,2.9l0-3.4l-4.2,3.1l-4.2-3.1l0,3.4l-3.6-2.6v-5.6l-4.4,2.8l0-3.8l-3.8,3.4l-3.8-3.4l0,3.8l-4-2.5
					v-6l-4.1,3.1l0-4.2l-4.1,3.6l-4.1-3.6l0,4.2l-3.7-2.8v-6.4l-5.6,5.1v-5.9l-7.7,4.9l-7.7-4.9v5.9l-5.6-5.1v6.4l-3.7,2.8l0-4.2
					l-4.1,3.6l-4.1-3.6L163.9,137z"/>
				<g>
					<path class="st0" d="M132.2,148.6l0-3.4l3.8,2.7l0.1-0.1l3.7-2.7l0,3.4l4-2.9v39.8l-4-2.9l0,3.4l-3.8-2.7l-3.8,2.7l0-3.4
						l-4,2.9V169h-4.7v-6.8h4.7v-16.5L132.2,148.6z"/>
					<path class="st0" d="M164.4,133.8l3.6,3.2l3.6-3.2l0,4.1l4.1-3.1v61.7l-4.1-3.1l0,4.1l-3.6-3.2l-3.6,3.2l0-4.1l-4.1,3.1v-61.7
						l4.1,3.1L164.4,133.8z"/>
					<path class="st0" d="M213.6,133.8L210,137l-3.6-3.2l0,4.1l-4.1-3.1v61.7l4.1-3.1l0,4.1l3.6-3.2l3.6,3.2l0-4.1l4.1,3.1v-61.7
						l-4.1,3.1L213.6,133.8z"/>
					<path class="st0" d="M245.8,148.6l0-3.4l-3.8,2.7l-0.1-0.1l-3.7-2.7l0,3.4l-4-2.9v39.8l4-2.9l0,3.4l3.8-2.7l3.8,2.7l0-3.4
						l4,2.9V169h4.7v-6.8h-4.7v-16.5L245.8,148.6z"/>
				</g>
				<g>
					<path class="st4" d="M148.6,139.6l3.4,3l3.4-3l0,3.6l4.4-2.8v50.4l-4.4-2.8l0,3.6l-3.4-3l-3.4,3l0-3.6l-4.4,2.8v-50.4l4.4,2.8
						L148.6,139.6z"/>
					<path class="st4" d="M181.7,133.8l-5.6-5.1v73.7l5.6-5.1v6.1l7.2-4.7h0h0l7.2,4.7v-6.1l5.6,5.1v-73.7l-5.6,5.1v-6.1l-7.2,4.7h0
						h0l-7.2-4.7V133.8z"/>
					<path class="st4" d="M229.4,139.6l-3.4,3l-3.4-3l0,3.6l-4.4-2.8v50.4l4.4-2.8l0,3.6l3.4-3l3.4,3l0-3.6l4.4,2.8v-50.4l-4.4,2.8
						L229.4,139.6z"/>
				</g>
				<g id="carp2h">
					<g id="carp2q">
						<path class="st3" d="M134.3,158.4c0.5,0.5,1.1,0.7,1.7,0.7c0.7,0,1.2-0.2,1.7-0.7c1.5-1.5,1.6-4.3,1.6-6.3
							c0,0-1.8,1.9-2.1,2.2c-0.2-0.4-1.2-2.1-1.2-2.1s-1,1.7-1.2,2.1c-0.3-0.3-2.1-2.2-2.1-2.2C132.7,154.1,132.8,156.8,134.3,158.4
							L134.3,158.4z"/>
						<path class="st3" d="M151,154.1l-1.3-1.3v-2.5l-2.9,2.7l5.3,5.3l5.3-5.3l-2.9-2.7v2.5l-1.3,1.3v-4.5l2.3-1.9l-3.3-2.8
							l-3.3,2.8l2.3,1.9L151,154.1z"/>
						<path class="st3" d="M167,149l-1.3-1.3v-2.5l-2.9,2.7l5.3,5.3l5.3-5.3l-2.9-2.7v2.5L169,149v-4.5l2.3-1.9l-3.3-2.8l-3.3,2.8
							l2.3,1.9V149z"/>
						<path class="st1" d="M136,153c0.3,0.5,1.1,1.9,1.1,1.9s1.2-1.3,1.7-1.8c-0.1,2.2-0.6,4-1.4,4.9c-0.4,0.4-0.9,0.6-1.4,0.6
							c-0.5,0-1-0.2-1.4-0.6c-0.9-0.9-1.4-2.6-1.4-4.9c0.5,0.5,1.7,1.8,1.7,1.8C135.3,154.3,135.6,153.7,136,153L136,153z"/>
						<path class="st1" d="M168.6,144.3v5.7l2.1-2.1v-1.7l1.9,1.8l-4.6,4.6l-4.6-4.6l1.9-1.8v1.7l2.1,2.1v-5.7l-2-1.7l2.6-2.3
							l2.6,2.3L168.6,144.3z"/>
						<path class="st2" d="M152.6,149.4v5.7l2.1-2.1v-1.7l1.9,1.8l-4.6,4.6l-4.6-4.6l1.9-1.8v1.7l2.1,2.1v-5.7l-2-1.7l2.6-2.3
							l2.6,2.3L152.6,149.4z"/>
					</g>
					<g transform="matrix(-1,0,0,1,377.9958,0)">
						<g id="carp2q_1_">
							<path class="st3" d="M243.7,158.4c-0.5,0.5-1.1,0.7-1.7,0.7c-0.7,0-1.2-0.2-1.7-0.7c-1.5-1.5-1.6-4.3-1.6-6.3
								c0,0,1.8,1.9,2.1,2.2c0.2-0.4,1.2-2.1,1.2-2.1s1,1.7,1.2,2.1c0.3-0.3,2.1-2.2,2.1-2.2C245.3,154.1,245.2,156.8,243.7,158.4
								L243.7,158.4z"/>
							<path class="st3" d="M227,154.1l1.3-1.3v-2.5l2.9,2.7l-5.3,5.3l-5.3-5.3l2.9-2.7v2.5l1.3,1.3v-4.5l-2.3-1.9l3.3-2.8l3.3,2.8
								l-2.3,1.9L227,154.1z"/>
							<path class="st3" d="M211,149l1.3-1.3v-2.5l2.9,2.7l-5.3,5.3l-5.3-5.3l2.9-2.7v2.5l1.3,1.3v-4.5l-2.3-1.9l3.3-2.8l3.3,2.8
								l-2.3,1.9V149z"/>
							<path class="st1" d="M242,153c-0.3,0.5-1.1,1.9-1.1,1.9s-1.2-1.3-1.7-1.8c0.1,2.2,0.6,4,1.4,4.9c0.4,0.4,0.9,0.6,1.4,0.6
								c0.5,0,1-0.2,1.4-0.6c0.9-0.9,1.4-2.6,1.4-4.9c-0.5,0.5-1.7,1.8-1.7,1.8C242.7,154.3,242.4,153.7,242,153L242,153z"/>
							<path class="st1" d="M209.4,144.3v5.7l-2.1-2.1v-1.7l-1.9,1.8l4.6,4.6l4.6-4.6l-1.9-1.8v1.7l-2.1,2.1v-5.7l2-1.7l-2.6-2.3
								l-2.6,2.3L209.4,144.3z"/>
							<path class="st2" d="M225.4,149.4v5.7l-2.1-2.1v-1.7l-1.9,1.8l4.6,4.6l4.6-4.6l-1.9-1.8v1.7l-2.1,2.1v-5.7l2-1.7l-2.6-2.3
								l-2.6,2.3L225.4,149.4z"/>
						</g>
					</g>
					<path class="st3" d="M195.3,150.9l-1.7-2.4l4.4-4.1l-4.1-3.4v2.4l-1.7,1.5v-4.3l3.9-2.9l-7-5.2l-7,5.2l3.9,2.9v4.3l-1.7-1.5
						v-2.4l-4.1,3.4l4.4,4.1l-1.7,2.4H195.3z"/>
					<path class="st2" d="M183.6,150.5l1.5-2l-4.3-4l3-2.5v1.7l2.6,2.2v-5.5l-3.6-2.6l6.3-4.6l6.3,4.6l-3.6,2.6v5.5l2.6-2.2V142
						l3,2.5l-4.3,4l1.5,2H183.6z"/>
					<path class="st3" d="M185.8,137.8l3.2,2.4l3.2-2.4l-3.2-2.4l-0.1,0.1L185.8,137.8z"/>
					<path class="st0" d="M189,135.9c0.2,0.2,2.1,1.6,2.5,1.8c-0.4,0.3-2.3,1.7-2.5,1.8c-0.2-0.2-2.1-1.6-2.5-1.8
						C186.9,137.5,188.8,136.1,189,135.9z"/>
				</g>
				<g id="carp2">
					<g id="carp2h_1_">
						<g id="carp2q_2_">
							<path class="st3" d="M134.3,172.9c0.5-0.5,1.1-0.7,1.7-0.7c0.7,0,1.2,0.2,1.7,0.7c1.5,1.5,1.6,4.3,1.6,6.3
								c0,0-1.8-1.9-2.1-2.2c-0.2,0.4-1.2,2.1-1.2,2.1s-1-1.7-1.2-2.1c-0.3,0.3-2.1,2.2-2.1,2.2
								C132.7,177.1,132.8,174.4,134.3,172.9L134.3,172.9z"/>
							<path class="st3" d="M151,177.1l-1.3,1.3v2.5l-2.9-2.7l5.3-5.3l5.3,5.3l-2.9,2.7v-2.5l-1.3-1.3v4.5l2.3,1.9l-3.3,2.8
								l-3.3-2.8l2.3-1.9L151,177.1z"/>
							<path class="st3" d="M167,182.2l-1.3,1.3v2.5l-2.9-2.7l5.3-5.3l5.3,5.3l-2.9,2.7v-2.5l-1.3-1.3v4.5l2.3,1.9l-3.3,2.8
								l-3.3-2.8l2.3-1.9V182.2z"/>
							<path class="st1" d="M136,178.2c0.3-0.5,1.1-1.9,1.1-1.9s1.2,1.3,1.7,1.8c-0.1-2.2-0.6-4-1.4-4.9c-0.4-0.4-0.9-0.6-1.4-0.6
								c-0.5,0-1,0.2-1.4,0.6c-0.9,0.9-1.4,2.6-1.4,4.9c0.5-0.5,1.7-1.8,1.7-1.8C135.3,176.9,135.6,177.5,136,178.2L136,178.2z"/>
							<path class="st1" d="M168.6,186.9v-5.7l2.1,2.1v1.7l1.9-1.8l-4.6-4.6l-4.6,4.6l1.9,1.8v-1.7l2.1-2.1v5.7l-2,1.7l2.6,2.3
								l2.6-2.3L168.6,186.9z"/>
							<path class="st2" d="M152.6,181.8v-5.7l2.1,2.1v1.7l1.9-1.8l-4.6-4.6l-4.6,4.6l1.9,1.8v-1.7l2.1-2.1v5.7l-2,1.7l2.6,2.3
								l2.6-2.3L152.6,181.8z"/>
						</g>
						<g transform="matrix(1,0,0,-1,0,331.21644)">
							<g id="carp2q_3_">
								<path class="st3" d="M243.7,172.9c-0.5-0.5-1.1-0.7-1.7-0.7c-0.7,0-1.2,0.2-1.7,0.7c-1.5,1.5-1.6,4.3-1.6,6.3
									c0,0,1.8-1.9,2.1-2.2c0.2,0.4,1.2,2.1,1.2,2.1s1-1.7,1.2-2.1c0.3,0.3,2.1,2.2,2.1,2.2C245.3,177.1,245.2,174.4,243.7,172.9
									L243.7,172.9z"/>
								<path class="st3" d="M227,177.1l1.3,1.3v2.5l2.9-2.7L226,173l-5.3,5.3l2.9,2.7v-2.5l1.3-1.3v4.5l-2.3,1.9l3.3,2.8l3.3-2.8
									l-2.3-1.9L227,177.1z"/>
								<path class="st3" d="M211,182.2l1.3,1.3v2.5l2.9-2.7L210,178l-5.3,5.3l2.9,2.7v-2.5l1.3-1.3v4.5l-2.3,1.9l3.3,2.8l3.3-2.8
									l-2.3-1.9V182.2z"/>
								<path class="st1" d="M242,178.2c-0.3-0.5-1.1-1.9-1.1-1.9s-1.2,1.3-1.7,1.8c0.1-2.2,0.6-4,1.4-4.9c0.4-0.4,0.9-0.6,1.4-0.6
									c0.5,0,1,0.2,1.4,0.6c0.9,0.9,1.4,2.6,1.4,4.9c-0.5-0.5-1.7-1.8-1.7-1.8C242.7,176.9,242.4,177.5,242,178.2L242,178.2z"/>
								<path class="st1" d="M209.4,186.9v-5.7l-2.1,2.1v1.7l-1.9-1.8l4.6-4.6l4.6,4.6l-1.9,1.8v-1.7l-2.1-2.1v5.7l2,1.7l-2.6,2.3
									l-2.6-2.3L209.4,186.9z"/>
								<path class="st2" d="M225.4,181.8v-5.7l-2.1,2.1v1.7l-1.9-1.8l4.6-4.6l4.6,4.6l-1.9,1.8v-1.7l-2.1-2.1v5.7l2,1.7l-2.6,2.3
									l-2.6-2.3L225.4,181.8z"/>
							</g>
						</g>
						<path class="st3" d="M195.3,180.3l-1.7,2.4l4.4,4.1l-4.1,3.4v-2.4l-1.7-1.5v4.3l3.9,2.9l-7,5.2l-7-5.2l3.9-2.9v-4.3l-1.7,1.5
							v2.4l-4.1-3.4l4.4-4.1l-1.7-2.4H195.3z"/>
						<path class="st2" d="M183.6,180.7l1.5,2l-4.3,4l3,2.5v-1.7l2.6-2.2v5.5l-3.6,2.6l6.3,4.6l6.3-4.6l-3.6-2.6v-5.5l2.6,2.2v1.7
							l3-2.5l-4.3-4l1.5-2H183.6z"/>
						<path class="st3" d="M185.8,193.4l3.2-2.4l3.2,2.4l-3.2,2.4l-0.1-0.1L185.8,193.4z"/>
						<path class="st0" d="M189,195.3c0.2-0.2,2.1-1.6,2.5-1.8c-0.4-0.3-2.3-1.7-2.5-1.8c-0.2,0.2-2.1,1.6-2.5,1.8
							C186.9,193.7,188.8,195.1,189,195.3z"/>
					</g>
					<path class="st3" d="M245.9,163.1h-7v-2.8h-21.5l-15-9.8h-0.1h-26.7l-15,9.8h-21.5v2.8h-7v4.9h7v2.8h21.5l15,9.8h26.8l15-9.8
						h21.5v-2.8h7V163.1z"/>
					<path class="st2" d="M175.7,151l-15,9.8h-21.2v2.8h-7v4.1h7v2.8h21.2l15,9.9h26.5l14.9-9.9h21.2v-2.8h7v-4.1h-7v-2.8h-21.2
						l-14.9-9.8H175.7z M176.1,152.4h25.8l13.7,9v1.4h15.3v5.7h-15.3v1.4l-13.7,9h-25.8l-13.7-9v-1.4H147v-5.7h15.4v-1.4
						L176.1,152.4z"/>
					<path class="st2" d="M201.8,152.8l13.4,8.8v1.6h15.3v4.9h-15.3v1.6l-13.4,8.8h-25.6l-13.4-8.8V168h-15.3v-4.9h15.3v-1.6
						l13.4-8.8H201.8z"/>
					<g>
						<path class="st3" d="M169.6,170.6l5.8,4.3l3.8-2.9l-2.2-1.7l-1.6,1.2l-1.4-1l21.8-16.4h-4.4L169.6,170.6z M182.2,177h4.4
							l21.8-16.4l-5.8-4.3l-3.8,2.9l2.2,1.7l1.6-1.2l1.4,1L182.2,177z M191.4,177h4.4L174,160.6l1.4-1l1.6,1.2l2.2-1.7l-3.8-2.9
							l-5.8,4.3L191.4,177z M204,170.6l-1.4,1l-1.6-1.2l-2.2,1.7l3.8,2.9l5.8-4.3l-21.8-16.4h-4.4L204,170.6z"/>
						<path class="st3" d="M165.2,165.6l3.9,2.6l3.9-2.6l-3.9-2.6L165.2,165.6z"/>
						<path class="st3" d="M185.1,165.6l3.9,2.6l3.9-2.6L189,163L185.1,165.6z"/>
						<path class="st3" d="M212.8,165.6l-3.9,2.6l-3.9-2.6l3.9-2.6L212.8,165.6z"/>
						<path class="st4" d="M207.7,170.6l-5.1,3.8l-3.1-2.3l1.5-1.1l1.6,1.2l2.1-1.6l-21.2-15.9h3L207.7,170.6z M194.5,176.6h-3
							l-21.2-15.9l5.1-3.8l3.1,2.3l-1.5,1.1l-1.6-1.2l-2.1,1.6L194.5,176.6z M186.5,176.6h-3l21.2-15.9l-2.1-1.6l-1.6,1.2l-1.5-1.1
							l3.1-2.3l5.1,3.8L186.5,176.6z M191.5,154.6h3l-21.2,15.9l2.1,1.6l1.6-1.2l1.5,1.1l-3.1,2.3l-5.1-3.8L191.5,154.6z"/>
						<path class="st0" d="M169.1,163.5l3.1,2.1l-3.1,2.1l-3.1-2.1L169.1,163.5z"/>
						<path class="st0" d="M189,163.5l3.1,2.1l-3.1,2.1l-3.1-2.1L189,163.5z"/>
						<path class="st0" d="M208.9,163.5l-3.1,2.1l3.1,2.1l3.1-2.1L208.9,163.5z"/>
					</g>
				</g>
				<g id="carp3">
					<g>
						<path class="st3" d="M120.5,274.2l-1.5,2.2l2.7,2.1l-2.7,2.1l1.5,2.2l3.2,0.4l3.1-2.4l7.7,4.9v-4.1l-4.8-3.1l4.8-3.1v-4.1
							l-7.7,4.9l-3.1-2.4L120.5,274.2z"/>
						<path class="st3" d="M120.5,260.1l-1.5,2.2l2.7,2.1l-2.7,2.1l1.5,2.2l3.2,0.4l3.1-2.4l7.7,4.9v-4.1l-4.8-3.1l4.8-3.1v-4.1
							l-7.7,4.9l-3.1-2.4L120.5,260.1z"/>
						<path class="st3" d="M120.5,296.7l-1.5-2.2l2.7-2.1l-2.7-2.1l1.5-2.2l3.2-0.4l3.1,2.4l7.7-4.9v4.1l-4.8,3.1l4.8,3.1v4.1
							l-7.7-4.9l-3.1,2.4L120.5,296.7z"/>
						<path class="st3" d="M257.5,274.2l1.5,2.2l-2.7,2.1l2.7,2.1l-1.5,2.2l-3.2,0.4l-3.1-2.4l-7.7,4.9v-4.1l4.8-3.1l-4.8-3.1v-4.1
							l7.7,4.9l3.1-2.4L257.5,274.2z"/>
						<path class="st3" d="M257.5,260.1l1.5,2.2l-2.7,2.1l2.7,2.1l-1.5,2.2l-3.2,0.4l-3.1-2.4l-7.7,4.9v-4.1l4.8-3.1l-4.8-3.1v-4.1
							l7.7,4.9l3.1-2.4L257.5,260.1z"/>
						<path class="st3" d="M257.5,296.7l1.5-2.2l-2.7-2.1l2.7-2.1l-1.5-2.2l-3.2-0.4l-3.1,2.4l-7.7-4.9v4.1l4.8,3.1l-4.8,3.1v4.1
							l7.7-4.9l3.1,2.4L257.5,296.7z"/>
						<path class="st3" d="M226.7,235.7v5.9h4.3v2.6h4.2v-4.7h-3.7v-3.7H226.7z"/>
						<path class="st3" d="M239.3,245v5.9h4.3v2.6h4.2v-4.7H244V245H239.3L239.3,245z"/>
						<path class="st3" d="M151.3,235.7v5.9H147v2.6h-4.2v-4.7h3.7v-3.7H151.3z"/>
						<path class="st3" d="M226.7,321.1v-5.9h4.3v-2.6h4.2v4.7h-3.7v3.7H226.7z"/>
						<path class="st3" d="M151.3,321.1v-5.9H147v-2.6h-4.2v4.7h3.7v3.7H151.3z"/>
						<path class="st3" d="M239.3,311.8V306h4.3v-2.6h4.2v4.7H244v3.7H239.3L239.3,311.8z"/>
						<path class="st3" d="M138.7,245v5.9h-4.3v2.6h-4.2v-4.7h3.7V245H138.7L138.7,245z"/>
						<path class="st3" d="M138.7,311.8V306h-4.3v-2.6h-4.2v4.7h3.7v3.7H138.7L138.7,311.8z"/>
						<path class="st3" d="M204.8,235.6c-0.3-0.3-3.3-3.2-3.3-3.2l-3.2,3c0,0,2.5,2.4,2.8,2.7l-3.6,3.5h5.3l1.9-1.9l1.9,1.9h5.3
							l-3.6-3.5c0.3-0.3,2.8-2.7,2.8-2.7l-3.2-3C206.9,233.5,205.8,234.5,204.8,235.6L204.8,235.6z"/>
						<path class="st3" d="M189,235.6c-0.3-0.3-3.3-3.2-3.3-3.2l-3.2,3c0,0,2.5,2.4,2.8,2.7l-3.6,3.5h5.3l1.9-1.9l1.9,1.9h5.3
							l-3.6-3.5c0.3-0.3,2.8-2.7,2.8-2.7l-3.2-3C191.2,233.5,190.1,234.5,189,235.6L189,235.6z"/>
						<path class="st3" d="M173.2,235.6c0.3-0.3,3.3-3.2,3.3-3.2l3.2,3c0,0-2.5,2.4-2.8,2.7l3.6,3.5h-5.3l-1.9-1.9l-1.9,1.9H166
							l3.6-3.5c-0.3-0.3-2.8-2.7-2.8-2.7l3.2-3C171.1,233.5,172.2,234.5,173.2,235.6L173.2,235.6z"/>
						<path class="st3" d="M204.8,321.2c-0.3,0.3-3.3,3.2-3.3,3.2l-3.2-3c0,0,2.5-2.4,2.8-2.7l-3.6-3.5h5.3l1.9,1.9l1.9-1.9h5.3
							l-3.6,3.5c0.3,0.3,2.8,2.7,2.8,2.7l-3.2,3C206.9,323.3,205.8,322.3,204.8,321.2L204.8,321.2z"/>
						<path class="st3" d="M189,321.2c-0.3,0.3-3.3,3.2-3.3,3.2l-3.2-3c0,0,2.5-2.4,2.8-2.7l-3.6-3.5h5.3l1.9,1.9l1.9-1.9h5.3
							l-3.6,3.5c0.3,0.3,2.8,2.7,2.8,2.7l-3.2,3C191.2,323.3,190.1,322.3,189,321.2L189,321.2z"/>
						<path class="st3" d="M173.2,321.2c0.3,0.3,3.3,3.2,3.3,3.2l3.2-3c0,0-2.5-2.4-2.8-2.7l3.6-3.5h-5.3l-1.9,1.9l-1.9-1.9H166
							l3.6,3.5c-0.3,0.3-2.8,2.7-2.8,2.7l3.2,3C171.1,323.3,172.2,322.3,173.2,321.2L173.2,321.2z"/>
					</g>
					<g>
						<path class="st0" d="M134,281.7v3l-7.3-4.6l-3.2,2.5l-2.8-0.3l-1.2-1.7l2.9-2.2l-2.9-2.2l1.2-1.7l2.8-0.3l3.2,2.5l7.3-4.6v3
							l-5.2,3.3L134,281.7z"/>
						<path class="st0" d="M134,267.6v3l-7.3-4.6l-3.2,2.5l-2.8-0.3l-1.2-1.7l2.9-2.2l-2.9-2.2l1.2-1.7l2.8-0.3l3.2,2.5l7.3-4.6v3
							l-5.2,3.3L134,267.6z"/>
						<path class="st0" d="M134,289.2v-3l-7.3,4.6l-3.2-2.5l-2.8,0.3l-1.2,1.7l2.9,2.2l-2.9,2.2l1.2,1.7l2.8,0.3l3.2-2.5l7.3,4.6v-3
							l-5.2-3.3L134,289.2z"/>
						<path class="st0" d="M244,281.7v3l7.3-4.6l3.2,2.5l2.8-0.3l1.2-1.7l-2.9-2.2l2.9-2.2l-1.2-1.7l-2.8-0.3l-3.2,2.5l-7.3-4.6v3
							l5.2,3.3L244,281.7z"/>
						<path class="st0" d="M244,267.6v3l7.3-4.6l3.2,2.5l2.8-0.3l1.2-1.7l-2.9-2.2l2.9-2.2l-1.2-1.7l-2.8-0.3l-3.2,2.5L244,258v3
							l5.2,3.3L244,267.6z"/>
						<path class="st0" d="M244,289.2v-3l7.3,4.6l3.2-2.5l2.8,0.3l1.2,1.7l-2.9,2.2l2.9,2.2l-1.2,1.7l-2.8,0.3l-3.2-2.5l-7.3,4.6v-3
							l5.2-3.3L244,289.2z"/>
						<path class="st0" d="M231,236.2v3.7h3.7v3.9h-3.3v-2.6h-4.3v-5L231,236.2L231,236.2z"/>
						<path class="st0" d="M243.6,245.4v3.7h3.7v3.9H244v-2.6h-4.3v-5H243.6z"/>
						<path class="st0" d="M147,236.2v3.7h-3.7v3.9h3.3v-2.6h4.3v-5L147,236.2L147,236.2z"/>
						<path class="st0" d="M231,320.7v-3.7h3.7v-3.9h-3.3v2.6h-4.3v5L231,320.7L231,320.7z"/>
						<path class="st0" d="M147,320.7v-3.7h-3.7v-3.9h3.3v2.6h4.3v5L147,320.7L147,320.7z"/>
						<path class="st0" d="M243.6,311.4v-3.7h3.7v-3.9H244v2.6h-4.3v5L243.6,311.4L243.6,311.4z"/>
						<path class="st0" d="M134.4,245.4v3.7h-3.7v3.9h3.3v-2.6h4.3v-5H134.4z"/>
						<path class="st0" d="M134.4,311.4v-3.7h-3.7v-3.9h3.3v2.6h4.3v5L134.4,311.4L134.4,311.4z"/>
						<path class="st0" d="M201.5,233c0.3,0.3,3.3,3.2,3.3,3.2s3-2.9,3.3-3.2c0.3,0.2,2.3,2.1,2.6,2.4c-0.3,0.3-2.8,2.7-2.8,2.7
							l3.2,3.1h-4.1l-2.1-2l-2.1,2h-4.1l3.2-3.1c0,0-2.5-2.4-2.8-2.7C199.2,235.1,201.2,233.3,201.5,233L201.5,233z"/>
						<path class="st0" d="M185.7,233c0.3,0.3,3.3,3.2,3.3,3.2s3-2.9,3.3-3.2c0.3,0.2,2.3,2.1,2.6,2.4c-0.3,0.3-2.8,2.7-2.8,2.7
							l3.2,3.1h-4.1l-2.1-2l-2.1,2h-4.1l3.2-3.1c0,0-2.5-2.4-2.8-2.7C183.5,235.1,185.5,233.3,185.7,233z"/>
						<path class="st0" d="M176.5,233c-0.3,0.3-3.3,3.2-3.3,3.2s-3-2.9-3.3-3.2c-0.3,0.2-2.3,2.1-2.6,2.4c0.3,0.3,2.8,2.7,2.8,2.7
							l-3.2,3.1h4.1l2.1-2l2.1,2h4.1l-3.2-3.1c0,0,2.5-2.4,2.8-2.7C178.8,235.1,176.8,233.3,176.5,233z"/>
						<path class="st0" d="M201.5,323.8c0.3-0.3,3.3-3.2,3.3-3.2s3,2.9,3.3,3.2c0.3-0.2,2.3-2.1,2.6-2.4c-0.3-0.3-2.8-2.7-2.8-2.7
							l3.2-3.1h-4.1l-2.1,2l-2.1-2h-4.1l3.2,3.1c0,0-2.5,2.4-2.8,2.7C199.2,321.7,201.2,323.6,201.5,323.8L201.5,323.8z"/>
						<path class="st0" d="M185.7,323.8c0.3-0.3,3.3-3.2,3.3-3.2s3,2.9,3.3,3.2c0.3-0.2,2.3-2.1,2.6-2.4c-0.3-0.3-2.8-2.7-2.8-2.7
							l3.2-3.1h-4.1l-2.1,2l-2.1-2h-4.1l3.2,3.1c0,0-2.5,2.4-2.8,2.7C183.5,321.7,185.5,323.6,185.7,323.8z"/>
						<path class="st0" d="M176.5,323.8c-0.3-0.3-3.3-3.2-3.3-3.2s-3,2.9-3.3,3.2c-0.3-0.2-2.3-2.1-2.6-2.4c0.3-0.3,2.8-2.7,2.8-2.7
							l-3.2-3.1h4.1l2.1,2l2.1-2h4.1l-3.2,3.1c0,0,2.5,2.4,2.8,2.7C178.8,321.7,176.8,323.6,176.5,323.8z"/>
					</g>
					<path class="st3" d="M146.6,306.4v9.2h84.8v-9.2H244v-56h-12.6v-9.2h-84.8v9.2H134v56H146.6z"/>
					<path class="st2" d="M147,241.6v9.2h-12.6V306H147v9.2h84V306h12.6v-55.2H231v-9.2L147,241.6L147,241.6z M152.4,245.1h73.1v8.9
						l3,2.2H240v44.3h-11.4l-3,2.2v9h-73.1v-8.9l-3-2.2H138v-44.3h11.4l3.1-2.2L152.4,245.1L152.4,245.1z"/>
					<path class="st2" d="M152.9,245.6v8.2l11-8.2H152.9z M214.1,245.6l11,8.2v-8.2H214.1z M138.5,256.7v7.6l10.4-7.6H138.5
						L138.5,256.7z M229.1,256.7l10.4,7.7v-7.7H229.1z M239.6,292.4l-10.4,7.7h10.4V292.4z M138.5,292.5v7.7h10.4L138.5,292.5z
						 M152.9,303.1v8.1h11L152.9,303.1z M225.1,303.1l-11,8.1h11V303.1z"/>
					<path class="st0" d="M213.4,245.6c0.1,0.1,26,19.2,26.2,19.3v27c-0.2,0.1-26.1,19.3-26.2,19.3h-48.8
						c-0.1-0.1-26-19.2-26.2-19.3v-27c0.2-0.1,26.1-19.3,26.2-19.3H213.4L213.4,245.6z"/>
					<path class="st3" d="M144.7,295l-3-3.5l2.8-3.3l-2.8-3.3l2.8-3.3l-2.8-3.3l2.8-3.3l-2.8-3.3l2.8-3.3l-2.8-3.3l3-3.5h88.7l3,3.5
						l-2.8,3.3l2.8,3.3l-2.8,3.3l2.8,3.3l-2.8,3.3l2.8,3.3l-2.8,3.3l2.8,3.3l-3,3.5H144.7z M205.6,249.8l-3.5-3l-3.3,2.8l-3.3-2.8
						l-3.3,2.8l-3.3-2.8l-3.3,2.8l-3.3-2.8l-3.3,2.8l-3.3-2.8l-3.5,3V307l3.5,3l3.3-2.8l3.3,2.8l3.3-2.8l3.3,2.8l3.3-2.8l3.3,2.8
						l3.3-2.8l3.3,2.8l3.5-3V249.8z"/>
					<g>
						<path class="st4" d="M198.6,250l-3.1-2.6l-3.1,2.6v56.8l3.1,2.6l3.1-2.6V250z"/>
						<path class="st4" d="M185.5,250l-3.1-2.6l-3.1,2.6v56.8l3.1,2.6l3.1-2.6V250z"/>
						<path class="st4" d="M144.9,294.6l-2.6-3.1l2.6-3.1h88.3l2.6,3.1l-2.6,3.1H144.9z"/>
						<path class="st4" d="M233.1,275.3l2.6,3.1l-2.6,3.1h-88.3l-2.6-3.1l2.6-3.1H233.1z"/>
						<path class="st4" d="M233.1,268.4l2.6-3.1l-2.6-3.1h-88.3l-2.6,3.1l2.6,3.1H233.1z"/>
					</g>
					<g>
						<path class="st2" d="M205.2,250l-3.1-2.6l-3.1,2.6v56.8l3.1,2.6l3.1-2.6L205.2,250z"/>
						<path class="st2" d="M178.9,250l-3.1-2.6l-3.1,2.6v56.8l3.1,2.6l3.1-2.6V250z"/>
						<path class="st2" d="M144.9,288l-2.6-3.1l2.6-3.1h88.3l2.6,3.1l-2.6,3.1H144.9z"/>
						<path class="st2" d="M144.9,274.9l-2.6-3.1l2.6-3.1h88.3l2.6,3.1l-2.6,3.1H144.9z"/>
						<path class="st2" d="M192.1,306.8l-3.1,2.6l-3.1-2.6V250l3.1-2.6l3.1,2.6V306.8z"/>
					</g>
					<path class="st3" d="M218.6,251.1h-59.5v4.7h-7.6V301h7.6v4.7h59.7V301h7.6v-45.2h-7.6v-4.7H218.6z"/>
					<path class="st2" d="M159.6,251.5v4.7H152v44.3h7.6v4.7h6.3l-12.4-10.4V262l12.4-10.4L159.6,251.5L159.6,251.5z M212.2,251.5
						l12.4,10.4v32.9l-12.4,10.4h6.2v-4.7h7.6v-44.3h-7.6v-4.7L212.2,251.5L212.2,251.5z"/>
					<g>
						<path class="st0" d="M166.5,251.5c-0.1,0.1-12.6,10.5-12.7,10.6v32.5c0.2,0.1,12.6,10.5,12.7,10.6h45
							c0.1-0.1,12.5-10.5,12.7-10.6v-32.5c-0.2-0.1-12.5-10.5-12.7-10.6L166.5,251.5z M167.2,253.3h43.6l11.5,9.7v30.8l-11.5,9.6
							h-43.6l-11.5-9.6V263L167.2,253.3z"/>
						<path class="st0" d="M178.7,294.3l2,0.8l0.4,2.3l-2.5,2.2l3.6,3.5h-3.4l-2.5-2.4l-2.5,2.4h-3.4l3.6-3.5l-2.5-2.2l0.4-2.3
							l2-0.8l2.5,2l0.1-0.1L178.7,294.3z"/>
						<path class="st0" d="M191.5,294.3l2,0.8l0.4,2.3l-2.5,2.2l3.6,3.5h-3.4l-2.5-2.4l-2.5,2.4h-3.4l3.6-3.5l-2.5-2.2l0.4-2.3
							l2-0.8l2.5,2l0.1-0.1L191.5,294.3z"/>
						<path class="st0" d="M199.3,294.3l-2,0.8l-0.4,2.3l2.5,2.2l-3.6,3.5h3.4l2.5-2.4l2.5,2.4h3.4l-3.6-3.5l2.5-2.2l-0.4-2.3
							l-2-0.8l-2.5,2l-0.1-0.1L199.3,294.3z"/>
						<path class="st0" d="M178.7,262.5l2-0.8l0.4-2.3l-2.5-2.2l3.6-3.5h-3.4l-2.5,2.4l-2.5-2.4h-3.4l3.6,3.5l-2.5,2.2l0.4,2.3
							l2,0.8l2.5-2l0.1,0.1L178.7,262.5z"/>
						<path class="st0" d="M191.5,262.5l2-0.8l0.4-2.3l-2.5-2.2l3.6-3.5h-3.4l-2.5,2.4l-2.5-2.4h-3.4l3.6,3.5l-2.5,2.2l0.4,2.3
							l2,0.8l2.5-2l0.1,0.1L191.5,262.5z"/>
						<path class="st0" d="M199.3,262.5l-2-0.8l-0.4-2.3l2.5-2.2l-3.6-3.5h3.4l2.5,2.4l2.5-2.4h3.4l-3.6,3.5l2.5,2.2l-0.4,2.3
							l-2,0.8l-2.5-2l-0.1,0.1L199.3,262.5z"/>
						<path class="st0" d="M221.9,266.2l-1.9,1.6l1.9,1.6v2.7l-3-2.5c0,0-2,1.8-2.2,2c-0.2,0-2.1-0.3-2.3-0.3
							c-0.1-0.2-0.7-1.3-0.8-1.5c0.2-0.2,2-2,2-2s-1.8-1.8-2-2c0.1-0.2,0.7-1.3,0.8-1.5c0.2,0,2.1-0.3,2.3-0.3c0.1,0.1,2.2,2,2.2,2
							l3-2.5V266.2z"/>
						<path class="st0" d="M221.9,276.8l-1.9,1.6l1.9,1.6v2.7l-3-2.5c0,0-2,1.8-2.2,1.9c-0.2,0-2.1-0.3-2.3-0.3
							c-0.1-0.2-0.7-1.3-0.8-1.5c0.2-0.2,2-2,2-2s-1.8-1.8-2-2c0.1-0.2,0.7-1.3,0.8-1.5c0.2,0,2.1-0.3,2.3-0.3c0.1,0.1,2.2,2,2.2,2
							l3-2.5V276.8L221.9,276.8z"/>
						<path class="st0" d="M221.9,290.6L220,289l1.9-1.6v-2.7l-3,2.5c0,0-2-1.8-2.2-2c-0.2,0-2.1,0.3-2.3,0.3
							c-0.1,0.2-0.7,1.3-0.8,1.5c0.2,0.2,2,2,2,2s-1.8,1.8-2,2c0.1,0.2,0.7,1.3,0.8,1.5c0.2,0,2.1,0.3,2.3,0.3
							c0.1-0.1,2.2-1.9,2.2-1.9l3,2.5V290.6z"/>
						<path class="st0" d="M156.1,266.2l1.9,1.6l-1.9,1.6v2.7l3-2.5c0,0,2,1.8,2.2,2c0.2,0,2.1-0.3,2.3-0.3c0.1-0.2,0.7-1.3,0.8-1.5
							c-0.2-0.2-2-2-2-2s1.8-1.8,2-2c-0.1-0.2-0.7-1.3-0.8-1.5c-0.2,0-2.1-0.3-2.3-0.3c-0.1,0.1-2.2,2-2.2,2l-3-2.5V266.2z"/>
						<path class="st0" d="M156.1,276.8l1.9,1.6l-1.9,1.6v2.7l3-2.5c0,0,2,1.8,2.2,1.9c0.2,0,2.1-0.3,2.3-0.3
							c0.1-0.2,0.7-1.3,0.8-1.5c-0.2-0.2-2-2-2-2s1.8-1.8,2-2c-0.1-0.2-0.7-1.3-0.8-1.5c-0.2,0-2.1-0.3-2.3-0.3
							c-0.1,0.1-2.2,2-2.2,2l-3-2.5V276.8L156.1,276.8z"/>
						<path class="st0" d="M156.1,290.6l1.9-1.6l-1.9-1.6v-2.7l3,2.5c0,0,2-1.8,2.2-2c0.2,0,2.1,0.3,2.3,0.3
							c0.1,0.2,0.7,1.3,0.8,1.5c-0.2,0.2-2,2-2,2s1.8,1.8,2,2c-0.1,0.2-0.7,1.3-0.8,1.5c-0.2,0-2.1,0.3-2.3,0.3
							c-0.1-0.1-2.2-1.9-2.2-1.9l-3,2.5V290.6z"/>
					</g>
					<path class="st2" d="M167.3,253.8c-0.1,0.1-10.6,8.9-11.1,9.3c0.9,0.8,1.9,1.6,2.8,2.4c0.2-0.2,2.1-1.9,2.1-1.9l2.7,0.4l1.1,2
						c0,0-1.6,1.6-1.9,1.9c0.3,0.3,1.9,1.9,1.9,1.9l-1.1,2l-2.7,0.3c0,0-1.8-1.6-2.1-1.8l-3,2.5v0.8c1,0.8,2,1.7,3,2.5
						c0.2-0.2,2.1-1.8,2.1-1.8l2.7,0.3l1.1,2c0,0-1.6,1.6-1.9,1.9c0.3,0.3,1.9,1.9,1.9,1.9l-1.1,2l-2.7,0.3c0,0-1.8-1.6-2.1-1.9
						l-3,2.5v0.9l3,2.5c0.2-0.2,2.1-1.9,2.1-1.9l2.7,0.4l1.1,2c0,0-1.6,1.6-1.9,1.9c0.3,0.3,1.9,1.9,1.9,1.9l-1.1,2l-2.7,0.4
						c0,0-1.8-1.6-2.1-1.9c-0.9,0.8-1.9,1.6-2.8,2.3c0.5,0.4,11,9.2,11.1,9.3h2.4l3.5-3.4l-2.3-2l0.4-2.8l2.4-1l2.4,1.9l2.4-1.9
						l2.4,1l0.5,2.8l-2.3,2l3.4,3.3l3.4-3.3l-2.3-2l0.4-2.8l2.4-1l2.4,1.9l2.4-1.9l2.4,1l0.4,2.8l-2.3,2l3.4,3.3l3.4-3.3l-2.3-2
						l0.4-2.8l2.4-1l2.4,1.9l2.4-1.9l2.4,1l0.4,2.8l-2.3,2l3.5,3.4h2.4c0.1-0.1,10.6-8.9,11.1-9.3c-0.9-0.8-1.9-1.6-2.8-2.3
						c-0.2,0.2-2,1.9-2,1.9l-2.7-0.4l-1.1-2c0,0,1.6-1.6,1.9-1.9c-0.3-0.3-1.9-1.9-1.9-1.9l1.1-2l2.7-0.4c0,0,1.8,1.6,2,1.9l3-2.5
						v-0.9l-3-2.5c-0.2,0.2-2,1.9-2,1.9l-2.7-0.3l-1.1-2c0,0,1.6-1.6,1.9-1.9c-0.3-0.3-1.9-1.9-1.9-1.9l1.1-2l2.7-0.3
						c0,0,1.8,1.6,2,1.8c1-0.8,2-1.6,3-2.4v-1l-3-2.4c-0.2,0.2-2,1.8-2,1.8l-2.7-0.3l-1.1-2c0,0,1.6-1.6,1.9-1.9
						c-0.3-0.3-1.9-1.9-1.9-1.9l1.1-2l2.7-0.4c0,0,1.8,1.6,2,1.9c0.9-0.8,1.9-1.5,2.9-2.3c-0.4-0.3-11-9.2-11.1-9.3h-2.4l-3.5,3.4
						l2.3,2l-0.4,2.8l-2.4,1.1l-2.4-1.9l-2.4,1.9l-2.4-1.1l-0.4-2.8l2.3-2l-3.4-3.3l-3.4,3.3l2.3,2l-0.4,2.8l-2.4,1.1l-2.4-1.9
						l-2.4,1.9l-2.4-1.1l-0.4-2.8l2.3-2l-3.4-3.3l-3.4,3.3l2.3,2L181,262l-2.4,1.1l-2.4-1.9l-2.4,1.9l-2.4-1.1l-0.4-2.8l2.3-2
						l-3.6-3.4L167.3,253.8z M156.1,277.3v2.2l1.3-1.1L156.1,277.3z"/>
					<g>
						<path class="st1" d="M176.3,301.3l-1.9,1.7h3.7L176.3,301.3z"/>
						<path class="st1" d="M189,301.3l-1.8,1.7h3.7L189,301.3z"/>
						<path class="st1" d="M201.7,301.3l-1.9,1.7h3.7L201.7,301.3L201.7,301.3z"/>
						<path class="st1" d="M174.4,253.8l1.9,1.8l1.9-1.8H174.4z"/>
						<path class="st1" d="M187.1,253.8l1.9,1.8l1.9-1.8H187.1z"/>
						<path class="st1" d="M199.9,253.8l1.9,1.8l1.9-1.8H199.9L199.9,253.8z"/>
						<path class="st1" d="M221.9,266.7l-1.3,1.1l1.3,1V266.7z"/>
						<path class="st1" d="M221.9,277.3l-1.3,1.1l1.3,1.1V277.3z"/>
						<path class="st1" d="M221.9,288l-1.3,1.1l1.3,1.1V288z"/>
						<path class="st1" d="M156.1,266.7v2.2l1.3-1.1L156.1,266.7z"/>
						<path class="st1" d="M156.1,277.3v2.2l1.3-1.1L156.1,277.3z"/>
						<path class="st1" d="M156.1,287.9v2.2l1.3-1.1L156.1,287.9z"/>
					</g>
					<g>
						<path class="st3" d="M199.9,274.9v-3.8h-3.8v-4.2h-14.1v4.2h-3.8v3.8h-5.3v7.1h5.3v3.8h3.8v4.2h14.1v-4.2h3.8V282h5.3v-7.1
							H199.9z"/>
						<path class="st4" d="M188.8,267.3v4.3l-6.1,3.5v3.1h-9.5v-2.9h5.3v-3.8h3.8v-4.2H188.8z"/>
						<path class="st4" d="M189.2,289.5v-4.3l6.1-3.5v-3.1h9.5v2.9h-5.3v3.8h-3.8v4.2L189.2,289.5z"/>
						<path class="st1" d="M195.3,278.2v-3.1l-6.1-3.5v-4.3h6.4v4.2h3.8v3.8h5.3v2.9H195.3z"/>
						<path class="st1" d="M173.2,278.6h9.5v3.1l6.1,3.5v4.3h-6.4v-4.2h-3.8v-3.8h-5.3L173.2,278.6z"/>
						<path class="st2" d="M183.1,278.6v2.9l5.6,3.2v-6.1H183.1z"/>
						<path class="st0" d="M188.8,272.1l-5.6,3.2v2.9h5.6V272.1z"/>
						<path class="st2" d="M194.9,278.2v-2.9l-5.6-3.2v6.1H194.9z"/>
						<path class="st0" d="M189.2,284.7l5.6-3.2v-2.9h-5.6V284.7z"/>
					</g>
				</g>
				<g id="carp4">
					<path class="st3" d="M137.6,353.7v11.7h-11.2v10.6h-11.3v30.3h11.3V417h11.2v11.7h40.6l7.1,4.3L182,435h-14.5l-1.2-1.4h13.1
						l-3.7-3.7h-18.8l8.5,8.9H183l6-3.6l6,3.6h17.6l8.5-8.9h-18.8l-3.7,3.7h13.1l-1.2,1.4H196l-3.4-2.1l7.1-4.3h40.6V417h11.2v-10.6
						h11.3v-30.3h-11.3v-10.6h-11.2v-11.7h-40.6l-7.1-4.3l3.4-2.1h14.5l1.2,1.4h-13.1l3.7,3.7h18.8l-8.5-8.9H195l-6,3.6l-6-3.6
						h-17.6l-8.5,8.9h18.8l3.7-3.7h-13.1l1.2-1.4H182l3.4,2.1l-7.1,4.3H137.6z"/>
					<path class="st2" d="M199.6,428.2h40.3v-11.7h11.1v-10.6h11.3v-29.4h-11.3v-10.6h-11.1v-11.7h-40.3l-16.7-10.1h-17.3l-7.7,8
						h17.6l2.9-2.9h-13.1l2-2.3h14.8l19,11.4h34.6v11.7h11.2v10.6h11.3v21h-11.3v10.6h-11.2V424h-34.6l-19,11.4h-14.8l-2-2.2h13.1
						l-2.9-2.9h-17.6l7.7,8h17.3L199.6,428.2z M176.9,424h-34.6v-11.7h-11.1v-10.6h-11.3v-21h11.3v-10.6h11.1v-11.7h34.6l19-11.4
						h14.8l2,2.3h-13l2.9,2.9h17.6l-7.7-8h-17.3l-16.7,10.1h-40.3v11.7h-11.2v10.6h-11.3v29.4h11.3v10.6h11.2v11.7h40.3l16.7,10.1
						h17.3l7.7-8h-17.6l-2.9,2.9h13l-2,2.2h-14.8L176.9,424z"/>
					<path class="st4" d="M189,351.6l-12,7.2h-34.3v11.7h-11.1v10.6h-11.3v20.1h11.3v10.6h11.1v11.7H177l12,7.2l12-7.2h34.3v-11.7
						h11.2v-10.6h11.3v-20.1h-11.3v-10.6h-11.2v-11.7H201L189,351.6z M189,354.6l11.3,6.8h32.5V373H244v10.6h11.3v15.1H244v10.6
						h-11.2v11.7h-32.5l-11.3,6.8l-11.2-6.8h-32.5v-11.7h-11.2v-10.6h-11.3v-15.1h11.3V373h11.2v-11.7h32.5L189,354.6z"/>
					<path class="st0" d="M232.3,409v11.7h-32.2l-11.1,6.7l-11.1-6.7h-32.2V409h-11.2v-10.6h-11.3v-14.2h11.3v-10.6h11.2v-11.7h32.1
						h0.1L189,355l11.1,6.7h32.2v11.7h11.2v10.6h11.3v14.2h-11.3V409H232.3z"/>
					<g>
						<path class="st3" d="M149.9,404.8v11.3h17.7l-17.7-11.7V404.8z"/>
						<path class="st3" d="M149.9,377.6v-11.3h17.7L149.9,378V377.6z"/>
						<path class="st3" d="M228.1,404.8v11.3h-17.7l17.7-11.7V404.8z"/>
						<path class="st3" d="M228.1,377.6v-11.3h-17.7l17.7,11.7V377.6z"/>
						<path class="st2" d="M150.3,405.2l15.8,10.5h-15.8V405.2z"/>
						<path class="st2" d="M150.3,377.2c0.6-0.4,14.8-9.8,15.8-10.5h-15.8V377.2z"/>
						<path class="st2" d="M227.7,405.2c-0.6,0.4-14.8,9.8-15.8,10.5h15.8V405.2z"/>
						<path class="st2" d="M227.7,377.2c-0.6-0.4-14.8-9.8-15.8-10.5h15.8V377.2z"/>
					</g>
					<g id="carp4y">
						<path class="st3" d="M172.4,388.1v-5.8h-2l-9.5-5.9l-0.1,0.1l-9.4,5.9h-2v5.8h-4.5v6.2h4.5v5.8h2l9.5,5.9l9.5-5.9h2v-5.8h6.8
							v-6.2L172.4,388.1z"/>
						<path class="st2" d="M161,376.9l8.7,5.4h-17.3L161,376.9L161,376.9z M169.7,400.1l-8.7,5.4l-8.7-5.4H169.7L169.7,400.1z"/>
						<path class="st2" d="M167.6,388.5v5.4h-10.8v-5.4H167.6z"/>
						<g>
							<path class="st4" d="M172,394.3v5.4h-10.8v-5.4H172z"/>
							<path class="st4" d="M160.8,394.3v5.4H150v-5.4H160.8z"/>
							<path class="st4" d="M178.8,388.5v5.4H168v-5.4H178.8z"/>
							<path class="st4" d="M156.3,388.5v5.4h-10.8v-5.4H156.3z"/>
							<path class="st4" d="M172,382.7v5.4h-10.8v-5.4H172z"/>
							<path class="st4" d="M160.8,382.7v5.4H150v-5.4H160.8z"/>
						</g>
						<g>
							<path class="st3" d="M153.3,389.7v3h-4.9v-3H153.3z"/>
							<path class="st3" d="M157.8,383.9v3h-4.9v-3H157.8z"/>
							<path class="st3" d="M169,383.9v3h-4.9v-3H169z"/>
							<path class="st3" d="M164.6,389.7v3h-4.9v-3H164.6z"/>
							<path class="st3" d="M175.8,389.7v3H171v-3H175.8z"/>
							<path class="st3" d="M169,395.5v3h-4.9v-3H169z"/>
							<path class="st3" d="M157.8,395.5v3h-4.9v-3H157.8z"/>
						</g>
						<g>
							<path class="st1" d="M152.9,390.2H149v2.1h3.9V390.2z"/>
							<path class="st1" d="M157.3,384.4h-3.9v2.1h3.9V384.4z"/>
							<path class="st1" d="M168.6,384.4h-3.9v2.1h3.9V384.4z"/>
							<path class="st1" d="M164.1,390.2h-3.9v2.1h3.9V390.2z"/>
							<path class="st1" d="M175.4,390.2h-3.9v2.1h3.9V390.2z"/>
							<path class="st1" d="M168.6,396h-3.9v2.1h3.9V396z"/>
							<path class="st1" d="M157.3,396h-3.9v2.1h3.9V396z"/>
						</g>
					</g>
					<g transform="matrix(-1,0,0,1,377.99506,0)">
						<g id="carp4y_1_">
							<path class="st3" d="M205.6,388.1v-5.8h2l9.5-5.9l0.1,0.1l9.4,5.9h2v5.8h4.5v6.2h-4.5v5.8h-2L217,406l-9.5-5.9h-2v-5.8h-6.8
								v-6.2L205.6,388.1z"/>
							<path class="st2" d="M217,376.9l-8.7,5.4h17.3L217,376.9L217,376.9z M208.3,400.1l8.7,5.4l8.7-5.4H208.3L208.3,400.1z"/>
							<path class="st2" d="M210.4,388.5v5.4h10.8v-5.4H210.4z"/>
							<g>
								<path class="st4" d="M206,394.3v5.4h10.8v-5.4H206z"/>
								<path class="st4" d="M217.2,394.3v5.4H228v-5.4H217.2z"/>
								<path class="st4" d="M199.2,388.5v5.4H210v-5.4H199.2z"/>
								<path class="st4" d="M221.7,388.5v5.4h10.8v-5.4H221.7z"/>
								<path class="st4" d="M206,382.7v5.4h10.8v-5.4H206z"/>
								<path class="st4" d="M217.2,382.7v5.4H228v-5.4H217.2z"/>
							</g>
							<g>
								<path class="st3" d="M224.6,389.7v3h4.9v-3H224.6z"/>
								<path class="st3" d="M220.2,383.9v3h4.9v-3H220.2z"/>
								<path class="st3" d="M209,383.9v3h4.9v-3H209z"/>
								<path class="st3" d="M213.4,389.7v3h4.9v-3H213.4z"/>
								<path class="st3" d="M202.2,389.7v3h4.9v-3H202.2z"/>
								<path class="st3" d="M209,395.5v3h4.9v-3H209z"/>
								<path class="st3" d="M220.2,395.5v3h4.9v-3H220.2z"/>
							</g>
							<g>
								<path class="st1" d="M225.1,390.2h3.9v2.1h-3.9V390.2z"/>
								<path class="st1" d="M220.6,384.4h3.9v2.1h-3.9V384.4z"/>
								<path class="st1" d="M209.4,384.4h3.9v2.1h-3.9V384.4z"/>
								<path class="st1" d="M213.9,390.2h3.9v2.1h-3.9V390.2z"/>
								<path class="st1" d="M202.6,390.2h3.9v2.1h-3.9V390.2z"/>
								<path class="st1" d="M209.4,396h3.9v2.1h-3.9V396z"/>
								<path class="st1" d="M220.6,396h3.9v2.1h-3.9V396z"/>
							</g>
						</g>
					</g>
					<g id="carp4r">
						<path class="st3" d="M200.4,378.4v5.8h-2l-9.5,5.9l-0.1-0.1l-9.4-5.9h-2v-5.8h-5.6v-6.2h5.6v-5.8h2l9.5-5.9l9.5,5.9h2v5.8h5.6
							v6.2H200.4z"/>
						<path class="st4" d="M189,389.6l8.7-5.4h-17.3L189,389.6L189,389.6z M197.7,366.4L189,361l-8.7,5.4H197.7L197.7,366.4z"/>
						<g>
							<path class="st2" d="M200,372.2v-5.4h-10.8v5.4H200z"/>
							<path class="st2" d="M188.8,372.2v-5.4H178v5.4H188.8z"/>
							<path class="st2" d="M205.6,378v-5.4h-10.8v5.4H205.6z"/>
							<path class="st2" d="M194.4,378v-5.4h-10.8v5.4H194.4z"/>
							<path class="st2" d="M183.2,378v-5.4h-10.8v5.4H183.2z"/>
							<path class="st2" d="M200,383.8v-5.4h-10.8v5.4H200z"/>
							<path class="st2" d="M188.8,383.8v-5.4H178v5.4H188.8z"/>
						</g>
						<g>
							<path class="st3" d="M185.8,368v3H181v-3H185.8z"/>
							<path class="st3" d="M197,368v3h-4.9v-3H197z"/>
							<path class="st3" d="M180.2,373.8v3h-4.9v-3H180.2z"/>
							<path class="st3" d="M191.4,373.8v3h-4.9v-3H191.4z"/>
							<path class="st3" d="M202.7,373.8v3h-4.9v-3H202.7z"/>
							<path class="st3" d="M185.8,379.6v3H181v-3H185.8z"/>
							<path class="st3" d="M197,379.6v3h-4.9v-3H197z"/>
						</g>
						<g>
							<path class="st1" d="M185.4,368.5h-3.9v2.1h3.9V368.5z"/>
							<path class="st1" d="M196.6,368.5h-3.9v2.1h3.9V368.5z"/>
							<path class="st1" d="M179.7,374.3h-3.9v2.1h3.9V374.3z"/>
							<path class="st1" d="M191,374.3H187v2.1h3.9V374.3z"/>
							<path class="st1" d="M202.2,374.3h-3.9v2.1h3.9V374.3z"/>
							<path class="st1" d="M185.4,380.1h-3.9v2.1h3.9V380.1z"/>
							<path class="st1" d="M196.6,380.1h-3.9v2.1h3.9V380.1z"/>
						</g>
					</g>
					<g>
						<g id="carp4r_1_">
							<path class="st3" d="M200.4,410.2v5.8h-2l-9.5,5.9l-0.1-0.1l-9.4-5.9h-2v-5.8h-5.6V404h5.6v-5.8h2l9.5-5.9l9.5,5.9h2v5.8h5.6
								v6.2H200.4z"/>
							<path class="st4" d="M189,421.4l8.7-5.4h-17.3L189,421.4L189,421.4z M197.7,398.2l-8.7-5.4l-8.7,5.4H197.7L197.7,398.2z"/>
							<g>
								<path class="st2" d="M200,404v-5.4h-10.8v5.4H200z"/>
								<path class="st2" d="M188.8,404v-5.4H178v5.4H188.8z"/>
								<path class="st2" d="M205.6,409.8v-5.4h-10.8v5.4H205.6z"/>
								<path class="st2" d="M194.4,409.8v-5.4h-10.8v5.4H194.4z"/>
								<path class="st2" d="M183.2,409.8v-5.4h-10.8v5.4H183.2z"/>
								<path class="st2" d="M200,415.6v-5.4h-10.8v5.4H200z"/>
								<path class="st2" d="M188.8,415.6v-5.4H178v5.4H188.8z"/>
							</g>
							<g>
								<path class="st3" d="M185.8,399.8v3H181v-3H185.8z"/>
								<path class="st3" d="M197,399.8v3h-4.9v-3H197z"/>
								<path class="st3" d="M180.2,405.6v3h-4.9v-3H180.2z"/>
								<path class="st3" d="M191.4,405.6v3h-4.9v-3H191.4z"/>
								<path class="st3" d="M202.7,405.6v3h-4.9v-3H202.7z"/>
								<path class="st3" d="M185.8,411.4v3H181v-3H185.8z"/>
								<path class="st3" d="M197,411.4v3h-4.9v-3H197z"/>
							</g>
							<g>
								<path class="st1" d="M185.4,400.3h-3.9v2.1h3.9V400.3z"/>
								<path class="st1" d="M196.6,400.3h-3.9v2.1h3.9V400.3z"/>
								<path class="st1" d="M179.7,406.1h-3.9v2.1h3.9V406.1z"/>
								<path class="st1" d="M191,406.1H187v2.1h3.9V406.1z"/>
								<path class="st1" d="M202.2,406.1h-3.9v2.1h3.9V406.1z"/>
								<path class="st1" d="M185.4,411.9h-3.9v2.1h3.9V411.9z"/>
								<path class="st1" d="M196.6,411.9h-3.9v2.1h3.9V411.9z"/>
							</g>
						</g>
					</g>
				</g>
				<g id="carp5">
					<path class="st3" d="M127.7,479.4l42.1-22.6h0.1h38.5l42.1,22.6v37.3l-42.1,22.6h-38.5l-42.1-22.6L127.7,479.4z"/>
					<path class="st0" d="M169.9,457.2l-41.7,22.5v36.8l41.7,22.5h38.3l41.7-22.5v-36.8l-41.7-22.5H169.9z M170.6,460.2h36.8
						l39.5,21.2v33.2l-39.5,21.2h-36.8l-39.5-21.2v-33.2L170.6,460.2z"/>
					<path class="st4" d="M189.2,497.8v37.6h18.1l39.2-21.1v-16.1l-57.7,0v-37.6h-18.1l-39.2,21.1v16.1L189.2,497.8z"/>
					<path class="st1" d="M188.8,497.8v37.6h-18.1l-39.2-21.1v-16.1l57.7,0v-37.6h18.1l39.2,21.1v16.1L188.8,497.8z"/>
					<path class="st3" d="M192.5,533.3v-10.9l-3.5,2.2l-3.5-2.2v10.9h-10.9l7.4-5.4v-7.7l-11.3-7.1h-7.9V483h7.9l11.3-7.1v-7.7
						l-7.4-5.4h0.7h10.3v10.9l3.5-2.2l3.5,2.2v-10.9h10.9l-7.4,5.4v7.7l11.3,7.1h7.9V513h-7.9l-11.3,7.1v7.7l7.4,5.4H192.5z"/>
					<path class="st4" d="M193,463.1v11.2l-3.8-2.4v3.2l17.2,11h5.7v11.7h2.7v-14.4h-7.6l-11.5-7.3v-8.2l6.5-4.8H193z M163.2,498.2
						v14.4h7.5l11.6,7.4v8.2l-6.5,4.8h9.2v-11.2l3.7,2.4v-3.3l-17.2-10.9h-5.6v-11.7L163.2,498.2L163.2,498.2z"/>
					<path class="st1" d="M175.8,463.1l6.5,4.8v8.2l-11.6,7.3h-7.5v14.4h2.7v-11.7h5.6l17.2-10.9V472l-3.7,2.4v-11.2L175.8,463.1
						L175.8,463.1z M212.1,498.2v11.7h-5.7l-17.2,10.9v3.3l3.8-2.4v11.2h9.2l-6.5-4.8V520l11.5-7.4h7.6v-14.4L212.1,498.2
						L212.1,498.2z"/>
					<path class="st2" d="M166.4,509.5h5.3l17.3,11l17.3-11h5.3v-22.9h-5.3h-0.1l-17.3-11l-17.3,11h-5.3L166.4,509.5z"/>
					<path class="st3" d="M201,503.4h3.7v-1.7h-2.8v-3.2h5.9v8.1h-5.7l0,5.5h-11.7v-7.9h5.2v3.2h-2v1.6h5.4v-3l-22-13.4h-3.7v1.7
						h2.8v3.2h-5.9v-8.1h5.7v-5.5h0.2h11.5v7.9h-5.2v-3.2h2V487H179v3L201,503.4z M199,490.1v-3h-5.4v1.6h2v3.2h-5.2v-7.9h11.7v5.5
						h5.7v8.1h-5.9v-3.2h2.8v-1.7H201l-22,13.4v3h5.4v-1.6h-2v-3.2h5.2v7.9h-11.7v-5.5h-5.7v-8.1h5.9v3.2h-2.8v1.7h3.7L199,490.1z"
						/>
					<path class="st1" d="M199.4,505.7v3.7h-6.3V507h2v-2.3h-4.3v7.1h10.9v-5.5h5.7v-7.2h-5.1v2.3h2.8v2.6h-4.2l-22.3-13.6v-3.7h6.3
						v2.4h-2v2.3h4.3v-7.1h-10.9v5.5h-5.7v7.2h5.1v-2.3h-2.8v-2.6h4.2L199.4,505.7z M200.9,492.1h4.2v2.6h-2.8v2.3h5.1v-7.2h-5.7
						v-5.5h-10.9v7.1h4.3V489h-2v-2.4h6.3v3.7l-22.3,13.6h-4.2v-2.6h2.8v-2.3h-5.1v7.2h5.7v5.5h10.9v-7.1h-4.3v2.3h2v2.4h-6.3v-3.7
						L200.9,492.1z"/>
					<g>
						<path class="st3" d="M238,499.9v11.8h-5v-4.2h-5v4.2h-5v-11.8h5v4.2h5v-4.2H238z"/>
						<path class="st3" d="M220.1,515.5v11.8h-5v-4.2h-5v4.2h-5v-11.8h5v4.2h5v-4.2H220.1z"/>
						<path class="st3" d="M238,496.1v-11.8h-5v4.2h-5v-4.2h-5v11.8h5V492h5v4.2H238z"/>
						<path class="st3" d="M140,499.9v11.8h5v-4.2h5v4.2h5v-11.8h-5v4.2h-5v-4.2H140z"/>
						<path class="st3" d="M140,496.1v-11.8h5v4.2h5v-4.2h5v11.8h-5V492h-5v4.2H140z"/>
						<path class="st3" d="M220.1,480.5v-11.8h-5v4.2h-5v-4.2h-5v11.8h5v-4.2h5v4.2H220.1z"/>
						<path class="st3" d="M157.9,515.5v11.8h5v-4.2h5v4.2h5v-11.8h-5v4.2h-5v-4.2H157.9z"/>
						<path class="st3" d="M157.9,480.5v-11.8h5v4.2h5v-4.2h5v11.8h-5v-4.2h-5v4.2H157.9z"/>
						<path class="st3" d="M223.1,472.3v8.9h16.6L223.1,472.3z"/>
						<path class="st3" d="M154.9,523.7v-8.9h-16.6L154.9,523.7z"/>
						<path class="st3" d="M154.9,472.3v8.9h-16.6L154.9,472.3z"/>
						<path class="st3" d="M223.1,523.7v-8.9h16.6L223.1,523.7z"/>
					</g>
					<g>
						<path class="st2" d="M233.5,507.1v4.2h4.1v-10.9h-4.1v4.2h-5.9v-4.2h-4.1v10.9h4.1v-4.2H233.5z"/>
						<path class="st2" d="M215.6,522.7v4.2h4.1v-10.9h-4.1v4.2h-5.9v-4.2h-4.1v10.9h4.1v-4.2H215.6z"/>
						<path class="st2" d="M233.5,488.9v-4.2h4.1v10.9h-4.1v-4.2h-5.9v4.2h-4.1v-10.9h4.1v4.2H233.5z"/>
						<path class="st2" d="M144.5,507.1v4.2h-4.1v-10.9h4.1v4.2h5.9v-4.2h4.1v10.9h-4.1v-4.2H144.5z"/>
						<path class="st2" d="M144.5,488.9v-4.2h-4.1v10.9h4.1v-4.2h5.9v4.2h4.1v-10.9h-4.1v4.2H144.5z"/>
						<path class="st2" d="M215.6,473.3v-4.2h4.1v10.9h-4.1v-4.2h-5.9v4.2h-4.1v-10.9h4.1v4.2H215.6z"/>
						<path class="st2" d="M162.4,522.7v4.2h-4.1v-10.9h4.1v4.2h5.9v-4.2h4.1v10.9h-4.1v-4.2H162.4z"/>
						<path class="st2" d="M162.4,473.3v-4.2h-4.1v10.9h4.1v-4.2h5.9v4.2h4.1v-10.9h-4.1v4.2H162.4z"/>
					</g>
					<path class="st4" d="M223.6,473v7.8H238L223.6,473z M140,515.3l14.5,7.8v-7.8H140L140,515.3z"/>
					<path class="st1" d="M154.4,473l-14.5,7.8h14.5V473z M223.6,515.3v7.8l14.5-7.8H223.6z"/>
				</g>
			</g>
		</g>
	</g>
</g>
</svg>
