<?xml version="1.0" encoding="utf-8"?>
<!-- Generator: Adobe Illustrator 21.0.0, SVG Export Plug-In . SVG Version: 6.00 Build 0)  -->
<svg version="1.1" id="Layer_1" xmlns="http://www.w3.org/2000/svg" xmlns:xlink="http://www.w3.org/1999/xlink" x="0px" y="0px"
	 viewBox="0 0 900 450" style="enable-background:new 0 0 900 450;" xml:space="preserve">
<style type="text/css">
	.st0{fill:#0038A8;}
	.st1{fill:#CE1126;}
	.st2{fill:#FFFFFF;}
	.st3{fill:#FCD116;}
</style>
<title>Flag of the Philippines</title>
<desc>
	Coding according to the official &quot;description and specification of the FILIPINO flag&quot; in Executive Order No. 23 from 1936
	</desc>
<rect class="st0" width="900" height="450"/>
<rect y="225" class="st1" width="900" height="225"/>
<path class="st2" d="M389.7,225L0,450V0"/>
<g>
	<circle class="st3" cx="112" cy="180" r="45"/>
	<g>
		<g>
			<g id="h">
				<path class="st3" d="M17,180l5.8,5.8L112,180l-89.2-5.8L17,180z"/>
				<path id="g" class="st3" d="M27,191.2l4.8,4.8l80.2-16L27,191.2z"/>
				<g transform="scale(1,-1)">
					<path id="g_1_" class="st3" d="M27,168.8l4.8-4.8l80.2,16L27,168.8z"/>
				</g>
			</g>
			<g id="i">
				<g id="h_1_">
					<path class="st3" d="M44.8,112.8v8.3L112,180l-58.9-67.2H44.8z"/>
					<path id="g_2_" class="st3" d="M44,127.8l0,6.7l68,45.4L44,127.8z"/>
					<g transform="rotate(45)">
						<path id="g_3_" class="st3" d="M59.8,112h6.7l45.4,68L59.8,112z"/>
					</g>
				</g>
			</g>
			<g>
				<g id="j">
					<g id="h_2_">
						<path class="st3" d="M112,85l-5.8,5.8L112,180l5.8-89.2L112,85z"/>
						<path id="g_4_" class="st3" d="M100.8,95L96,99.8l16,80.2L100.8,95z"/>
						<g transform="scale(1,-1)">
							<path id="g_5_" class="st3" d="M123.2,95l4.8,4.8L112,180L123.2,95z"/>
						</g>
					</g>
					<g id="i_1_">
						<g id="h_3_">
							<path class="st3" d="M179.2,112.8h-8.3L112,180l67.2-58.9V112.8z"/>
							<path id="g_6_" class="st3" d="M164.2,112h-6.7L112,180L164.2,112z"/>
							<g transform="rotate(90)">
								<path id="g_7_" class="st3" d="M180,127.8v6.7L112,180L180,127.8z"/>
							</g>
						</g>
					</g>
				</g>
				<g>
					<g>
						<g>
							<g id="h_4_">
								<path class="st3" d="M207,180l-5.8-5.8L112,180l89.2,5.8L207,180z"/>
								<path id="g_8_" class="st3" d="M197,168.8l-4.8-4.8L112,180L197,168.8z"/>
								<g transform="scale(1,-1)">
									<path id="g_9_" class="st3" d="M197,191.2l-4.8,4.8L112,180L197,191.2z"/>
								</g>
							</g>
							<g id="i_2_">
								<g id="h_5_">
									<path class="st3" d="M179.2,247.2v-8.3L112,180l58.9,67.2H179.2z"/>
									<path id="g_10_" class="st3" d="M180,232.2v-6.7L112,180L180,232.2z"/>
									<g transform="rotate(45)">
										<path id="g_11_" class="st3" d="M164.2,248h-6.7L112,180L164.2,248z"/>
									</g>
								</g>
							</g>
							<g>
								<g id="j_1_">
									<g id="h_6_">
										<path class="st3" d="M112,275l5.8-5.8L112,180l-5.8,89.2L112,275z"/>
										<path id="g_12_" class="st3" d="M123.2,265l4.8-4.8L112,180L123.2,265z"/>
										<g transform="scale(1,-1)">
											<path id="g_13_" class="st3" d="M100.8,265l-4.8-4.8l16-80.2L100.8,265z"/>
										</g>
									</g>
									<g id="i_3_">
										<g id="h_7_">
											<path class="st3" d="M44.8,247.2h8.3L112,180l-67.2,58.9V247.2z"/>
											<path id="g_14_" class="st3" d="M59.8,248h6.7l45.4-68L59.8,248z"/>
											<g transform="rotate(180)">
												<path id="g_15_" class="st3" d="M44,232.2l0-6.7l68-45.4L44,232.2z"/>
											</g>
										</g>
									</g>
								</g>
								<g>
									<g id="s" transform="translate(37.961524,0)">
										<path id="t" class="st3" d="M280.8,180l-16.9,5.9l-0.4,17.9l-10.8-14.3l-17.1,5.2l10.2-14.7H280.8z"/>
										<g transform="scale(1,-1)">
											<path id="t_1_" class="st3" d="M280.8,180l-16.9-5.9l-0.4-17.9l-10.8,14.3l-17.1-5.2l10.2,14.7H280.8z"/>
										</g>
									</g>
									<g transform="translate(28,45)">
										<g id="s_1_" transform="translate(37.961524,0)">
											<path id="t_2_" class="st3" d="M-41.4,366l3.4-17.6l-15.3-9.3l17.8-2.2l4.1-17.4l7.6,16.2L-41.4,366z"/>
											<g transform="rotate(120)">
												<path id="t_3_" class="st3" d="M-41.4,366l13.5-11.7l15.7,8.6l-6.9-16.5l13.1-12.2l-17.8,1.5L-41.4,366z"/>
											</g>
										</g>
										<g transform="translate(-2.019238)">
											<g id="s_2_" transform="translate(37.961524,0)">
												<path id="t_4_" class="st3" d="M-41.4-6l13.5,11.7L-12.2-3l-6.9,16.5l13.1,12.2l-17.8-1.5L-41.4-6z"/>
												<g transform="rotate(-120)">
													<path id="t_5_" class="st3" d="M-41.4-6l3.4,17.6l-15.3,9.3l17.8,2.2l4.1,17.4l7.6-16.2L-41.4-6z"/>
												</g>
											</g>
										</g>
									</g>
								</g>
							</g>
						</g>
					</g>
				</g>
			</g>
		</g>
	</g>
</g>
</svg>
