<?xml version="1.0" encoding="utf-8"?>
<!-- Generator: Adobe Illustrator 21.0.0, SVG Export Plug-In . SVG Version: 6.00 Build 0)  -->
<svg version="1.1" id="Layer_1" xmlns="http://www.w3.org/2000/svg" xmlns:xlink="http://www.w3.org/1999/xlink" x="0px" y="0px"
	 viewBox="0 0 1800 900" style="enable-background:new 0 0 1800 900;" xml:space="preserve">
<style type="text/css">
	.st0{fill:#CC092F;}
	.st1{fill:#FFD200;}
	.st2{fill:#0046AE;}
	.st3{fill:#F5D402;}
	.st4{fill:#B07F55;}
	.st5{fill:#D10429;}
	.st6{fill:#097754;}
	.st7{fill:#0B45BB;}
</style>
<rect class="st0" width="1800" height="900"/>
<rect class="st1" width="1200" height="900"/>
<rect class="st2" width="600" height="900"/>
<g>
	<g>
		<path d="M847.7,183.2c-3.2,0-6,0.8-7.7,2.1c2.6,0.8,4.5,3.2,4.5,6.1v7.4h-7.4c-2.9,0-5.3-1.9-6.1-4.5c-1.3,1.6-2.1,4.5-2.1,7.7
			c0,3.2,0.8,6,2.1,7.7c0.8-2.6,3.2-4.5,6.1-4.5h7.4v35.7c0,2.8-1.8,5.1-4.2,6c3.5,0.5,6.6,5.2,7.4,7.8c0.8-2.6,3.9-7.4,7.4-7.8
			c-2.5-0.8-4.3-3.2-4.3-6v-35.7h7.4c2.9,0,5.3,1.9,6.1,4.5c1.3-1.6,2.1-4.5,2.1-7.7c0-3.2-0.8-6-2.1-7.7c-0.8,2.6-3.2,4.5-6.1,4.5
			h-7.4v-7.4c0-2.9,1.9-5.3,4.5-6.1C853.7,184.1,850.9,183.2,847.7,183.2L847.7,183.2z"/>
		<path class="st3" d="M847.7,184.8c-1.7,0-3.2,0.3-4.4,0.7c1.7,1.4,2.8,3.5,2.8,5.9v7.4c0,0.1,0,0.2-0.1,0.3v1.2h-1.2
			c-0.1,0-0.2,0.1-0.3,0.1h-7.4c-2.4,0-4.4-1.1-5.9-2.7c-0.4,1.3-0.8,2.7-0.8,4.4c0,1.7,0.3,3.2,0.7,4.4c1.4-1.7,3.5-2.8,5.9-2.8h9
			c0,0.2-0.1,0.3-0.1,0.5v0.8c0,0.1,0.1,0.2,0.1,0.3v35.7c0,2.3-1.2,4.1-2.8,5.6c1.1,0.7,2.1,1.6,2.9,2.6c0.7,0.9,1,1.8,1.5,2.7
			c0.5-0.9,0.8-1.8,1.5-2.7c0.8-1,1.8-1.8,2.9-2.5c-1.6-1.4-2.8-3.3-2.8-5.6v-37.2h1.2c0.1,0,0.2-0.1,0.3-0.1h7.4
			c2.4,0,4.4,1.1,5.9,2.7c0.4-1.3,0.8-2.7,0.8-4.4c0-1.7-0.3-3.2-0.7-4.4c-1.4,1.7-3.5,2.8-5.9,2.8h-7.4c-0.1,0-0.2,0-0.3-0.1h-1.2
			v-1.2c0-0.1-0.1-0.2-0.1-0.3v-7.4c0-2.4,1.1-4.4,2.7-5.9C850.8,185.1,849.4,184.8,847.7,184.8"/>
		<path d="M940.6,314c-4.5-3.2-8.3-6.9-10.9-11.1c-6.4-10.2-9.1-22.8-9.1-35.5c0-5.4,6-11.5,6-15.8c0-6.6-0.6-10.5-0.6-10.5
			c2.1,0.3,5.9,4.1,5.9,4.1s-0.1-10.9-3.6-12.8c0,0,1.4-1.4,6.5-1.6c-1.4-3.6-8.4-8-8.4-8c0.4-0.6,1-1.2,1.8-1.6
			c1.8-1,4.2-1.6,6.1-2c-2-0.4-4.4-1.1-6.9-1.9c-5.8-1.9-12.7-4.7-19.1-7.8c-11.7-5.6-20.7-6-25.6-6c-3.6,0-8.8,0.1-11.9,2.2
			c-2.8,1.9-2.6,4.3-3.6,5.2c-2.3,2-6.3,1.9-8.2,1.9c-12.4,0-12.9,13.3-12.9,13.3s3.2-4.8,8.8-4.8c9.4,0,16.4,5.1,16.4,7
			c0,0.8-1,0.9-1,0.9c-6.1,0-15.3-3.5-20.2-3.7v2.4c10.9,3.8,22,9.2,22,32.9c0,14.9-1.8,30.2-9.3,42.2c-2.6,4.2-6.4,7.9-11,11.1
			l44.4,8L940.6,314z"/>
		<g id="eagle_half">
			<path d="M896.2,304l-44.4,10c-2-0.6-11.5-3.6-18.2-7.3c-11.7-6.5-17.8-13-31.7-13.7v-10.6c0-5.7,2-10.8,2-16.2
				c-5.9-1.6-22.2-21.5-37.2-30.4c-22.1,14.3-39.3,37.9-39.3,48.7c0,0,0.7,232.5,0,313.5c0,4.7-2.8,11.3-2.8,11.3
				c8.1-3.4,22.9-23.7,26-31.4v3.7c12.2-5.6,21.1-20.2,25.1-27.7c0.1,1.1,0.3,3.8,0.3,3.8c10.9-9.6,24.8-66,24.8-66l23.1,22.7
				c0,0-8.4,17-11.6,20c0,0,2.2,0.3,4.7,0.3c-1.5,2.2-13.1,18.9-16.8,25.2c-3.4,5.9-5.8,3.3-11.1,3.3c-4.3,0-14.2,6.9-15.8,9.7
				c-1.7,2.9-3,6.5-3,9.5c0,3.2,3.4,7.7,3.4,7.7c0.4-1.6,1-2.1,1-2.1s9,11.2,10.3,12.7c1,1.1,5.6,1.9,7.3,0.4
				c4.1-3.7,8-6.3,11.6-11.6c1.9-2.8,2-5.9,4.1-8.9c7.2-9.9,21.4-28.8,24.7-33.1c0.2,1.2,0.4,2.2,0.6,3.4
				c3.7-7.5,21.5-21.7,21.5-21.7l18.6,8.5c0,0-34.7,79.7-65.5,92c0,0,13.4,5.7,29.8,14.2c2.4,1.2,4.9,2.6,7.4,3.9
				c2.1-2.5,4.3-5.3,6.4-8.1c9.8-13.2,19.5-28.4,19.5-28.4c0.7,4-4.5,16.2-13.3,31.3c-1.7,3-3.5,6.1-5.5,9.2
				c2.2,1.3,4.4,2.6,6.7,3.9c16.3,9.8,31.6,21.1,37.3,31.4l4-10l-4-10v-350l2-5L896.2,304z"/>
			<g>
				<path class="st4" d="M896.2,667.2c-5.7-6.2-17.8-13.9-31.3-20.9c16.3-29.3,24.4-75.7,20.6-84.9c0,0-6.7,24-14.9,37.7
					c-7.6,12.7-16.9,27-26,37.5c-7.4-3.2-14.6-5.8-20.8-7.7c27.1-20.8,54.7-89.7,54.7-89.7L850,526c0,0-10.7,12.5-14.2,14.8
					c0,0-1.5-6.2-2.4-8.4c0,0-4.1,3.1-6.3,3.2c0,0-0.7-4.2-1.2-7c-2.8,1.9-7.5,1.5-7.5,1.5c4.1-2,9-13.9,9-13.9l-27.3-36.3
					c0,0-9.6,46.1-20.5,55.6V336.9l8.7,8l13.1-12.2v-9.3l-11.6,10.9v-28.1c1.8-2.6,2.9-4.6,3.8-6.2c1.9,3.3,8,13.3,15.1,19.5
					c1.2-4.8,8.9-9.3,8.9-9.3s2.8,7.5,7,9.4c1.5-2.6,10.4-8.4,10.4-8.4s-7.6,1.2-10.7,4c-2.6-0.6-3.3-11.1-3.3-11.1
					s-11.2,5.5-13.2,9.4c-2.1-0.6-5.5-9-6.8-12.4c2-0.2,4.7-0.5,8.3-0.5c3.2,0,7.3,1.5,11.6,3.5c4.7,2.2,9.6,5,14,7
					c5.6,2.5,14.2,3.1,16.6,3.2c-2.8,2-6,3.8-9.4,5.5c0,0,13.4-0.1,22.8-4.8c3.4-2.2,6.8-4.3,9.8-6.9c-1.3,3.6-3.3,7.8-6.5,11.5
					c13.8-1.2,20.7-9.1,22.7-11.7c0.9,2.4,2.6,6.2,5.1,9.5h5v340L896.2,667.2z"/>
				<path class="st4" d="M794.2,267.3l0.3,6.3v18.7c-5-1.7-11.3-10-14.4-14.3v-2.6c0-2.4,1.4-4.2,2.5-5.1l-3-1.1
					c-1.2,1.3-2.4,3.3-2.4,5.8v1.5l-9,9.7l-8.9-13.4v-3.3c0-2.2,1.7-4.7,3.1-6.3l-3-1.1c-1.5,1.9-3.1,4.6-3.1,7v2.7
					c-2.1,2.2-10.2,10.5-10.2,10.5s-4.1-8.7-5.2-11.1c6.2-8.6,16.3-18.2,25.7-25.1C766.8,246,787.3,264.9,794.2,267.3L794.2,267.3z"
					/>
				<path class="st4" d="M742.1,285.4v15.4l-7.2,6.7v-22.9c0-2.2,0.9-4.8,2.5-7.7L742.1,285.4z"/>
				<path class="st4" d="M764.4,291.4v9.5l-8.2,7.7v-29.8L764.4,291.4z"/>
				<path class="st4" d="M753.3,308.6l-8.2-7.7v-11.2l8.2-8.7V308.6z"/>
				<path class="st4" d="M790.9,297c-1.9,2.7-6.9,9.3-12.3,12.2v-26.2C779.8,285.1,785.5,294.3,790.9,297z"/>
				<path class="st4" d="M775.7,284.4v24.2l-8.2-7.7v-8.5L775.7,284.4z"/>
				<path class="st4" d="M742.1,310.1v24.1l-7.2-6.7v-10.7L742.1,310.1z"/>
				<path class="st4" d="M753.3,317.9v8.7l-8.2,7.7v-24L753.3,317.9z"/>
				<path class="st4" d="M764.4,310.2v24l-8.2-7.7v-8.5L764.4,310.2z"/>
				<path class="st4" d="M775.7,317.9v8.5l-8.2,7.7v-24L775.7,317.9z"/>
				<path class="st4" d="M786.8,334.3l-8.2-7.7v-8c2.8-1.7,5.7-4.9,8.2-8.3L786.8,334.3z"/>
				<path class="st4" d="M765.9,344.9l8.7-8.1v198.6c0,0,0.6,9.9,1,16.3c-3.9,3.9-18.4,18.6-18.4,18.6V336.8L765.9,344.9z"/>
				<path class="st4" d="M752.3,562.9c0,6.4-11.7,21.3-17.3,24.7V336.9l8.6,8l8.7-8.1V562.9z"/>
			</g>
			<g>
				<path class="st5" d="M824.5,541.4l6.3-4.4c0,0,0.4,2.1,1,5c-2.7,3.7-18.3,25-26.1,35.4c-1.9,2.6-3.5,9.2-3.5,9.2
					s-2.8-1.3-2.8-3.7c0-2.4,0.3-5.2,0.3-5.2s-2.1,2.4-5.7,2.4c0-2.9,5.6-6.1,5.8-10.2c-4.3,3.2-8,1.5-13,3.1
					c-5.4,1.7-6.9,3.9-8.5,3.8c-1-0.1-1.9-1.7-1.5-2.8c0.6-1.8,7.3-6.7,12-7.6c1.1-0.2,9.9,1.9,11.7-0.8
					c7.3-11.3,19.1-29.5,20.3-31.3c0.8-0.2,1.4-0.4,2-0.7C822.8,533.6,822.7,539.4,824.5,541.4L824.5,541.4z"/>
				<path class="st5" d="M783.7,576.5c0.4,0.4,0.3,1-0.1,1.3l-2.9,2.5c-0.4,0.3-1,0.3-1.3-0.2c-0.4-0.4-0.3-1,0.1-1.3l2.9-2.5
					c0.2-0.2,0.4-0.2,0.7-0.2C783.3,576.1,783.5,576.2,783.7,576.5L783.7,576.5z"/>
				<path class="st5" d="M788.1,579.5c0.9,1,0.8,2.4-0.1,3.2l-7,6.1c-0.9,0.8-2.4,0.6-3.2-0.4c-0.9-1-0.8-2.4,0.1-3.2l7-6
					c0.3-0.3,0.8-0.5,1.2-0.5C786.8,578.5,787.5,578.9,788.1,579.5z"/>
				<path class="st5" d="M792.1,584.2c0.9,1,0.8,2.4-0.1,3.2l-7,6.1c-0.9,0.8-2.3,0.6-3.2-0.4c-0.9-1-0.8-2.4,0.1-3.2l7-6
					c0.3-0.3,0.8-0.5,1.2-0.5C790.7,583.3,791.5,583.6,792.1,584.2L792.1,584.2z"/>
				<path class="st5" d="M794.5,587.9c0.7-0.1,1.5,0.2,2,0.8c0.9,1,0.8,2.4-0.1,3.2l-7,6c-0.9,0.8-2.3,0.6-3.2-0.4s-0.9-2.4,0.1-3.2
					l7-6.1C793.6,588.1,794,588,794.5,587.9L794.5,587.9z"/>
			</g>
		</g>
		<g transform="matrix(-1,0,0,1,1792.404,0)">
			<g id="eagle_half_1_">
				<path d="M896.2,304l44.4,10c2-0.6,11.5-3.6,18.2-7.3c11.7-6.5,17.8-13,31.7-13.7v-10.6c0-5.7-2-10.8-2-16.2
					c5.9-1.6,22.2-21.5,37.2-30.4c22.1,14.3,39.3,37.9,39.3,48.7c0,0-0.7,232.5,0,313.5c0,4.7,2.8,11.3,2.8,11.3
					c-8.1-3.4-22.9-23.7-26-31.4v3.7c-12.2-5.6-21.1-20.2-25.1-27.7c-0.1,1.1-0.3,3.8-0.3,3.8c-10.9-9.6-24.8-66-24.8-66l-23.1,22.7
					c0,0,8.4,17,11.6,20c0,0-2.2,0.3-4.7,0.3c1.5,2.2,13.1,18.9,16.8,25.2c3.4,5.9,5.8,3.3,11.1,3.3c4.3,0,14.2,6.9,15.8,9.7
					c1.7,2.9,3,6.5,3,9.5c0,3.2-3.4,7.7-3.4,7.7c-0.4-1.6-1-2.1-1-2.1s-9,11.2-10.3,12.7c-1,1.1-5.6,1.9-7.3,0.4
					c-4.1-3.7-8-6.3-11.6-11.6c-1.9-2.8-2-5.9-4.1-8.9c-7.2-9.9-21.4-28.8-24.7-33.1c-0.2,1.2-0.4,2.2-0.6,3.4
					c-3.7-7.5-21.5-21.7-21.5-21.7l-18.6,8.5c0,0,34.7,79.7,65.5,92c0,0-13.4,5.7-29.8,14.2c-2.4,1.2-4.9,2.6-7.4,3.9
					c-2.1-2.5-4.3-5.3-6.4-8.1c-9.8-13.2-19.5-28.4-19.5-28.4c-0.7,4,4.5,16.2,13.3,31.3c1.7,3,3.5,6.1,5.5,9.2
					c-2.2,1.3-4.4,2.6-6.7,3.9c-16.3,9.8-31.6,21.1-37.3,31.4l-4-10l4-10v-350l-2-5L896.2,304z"/>
				<g>
					<path class="st4" d="M896.2,667.2c5.7-6.2,17.8-13.9,31.3-20.9c-16.3-29.3-24.4-75.7-20.6-84.9c0,0,6.7,24,14.9,37.7
						c7.6,12.7,16.9,27,26,37.5c7.4-3.2,14.6-5.8,20.8-7.7c-27.1-20.8-54.7-89.7-54.7-89.7l28.6-13.3c0,0,10.7,12.5,14.2,14.8
						c0,0,1.5-6.2,2.4-8.4c0,0,4.1,3.1,6.3,3.2c0,0,0.7-4.2,1.2-7c2.8,1.9,7.5,1.5,7.5,1.5c-4.1-2-9-13.9-9-13.9l27.3-36.3
						c0,0,9.6,46.1,20.5,55.6V336.9l-8.7,8L991,332.7v-9.3l11.6,10.9v-28.1c-1.8-2.6-2.9-4.6-3.8-6.2c-1.9,3.3-8,13.3-15.1,19.5
						c-1.2-4.8-8.9-9.3-8.9-9.3s-2.8,7.5-7,9.4c-1.5-2.6-10.4-8.4-10.4-8.4s7.6,1.2,10.7,4c2.6-0.6,3.3-11.1,3.3-11.1
						s11.2,5.5,13.2,9.4c2.1-0.6,5.5-9,6.8-12.4c-2-0.2-4.7-0.5-8.3-0.5c-3.2,0-7.3,1.5-11.6,3.5c-4.7,2.2-9.6,5-14,7
						c-5.6,2.5-14.2,3.1-16.6,3.2c2.8,2,6,3.8,9.4,5.5c0,0-13.4-0.1-22.8-4.8c-3.4-2.2-6.8-4.3-9.8-6.9c1.3,3.6,3.3,7.8,6.5,11.5
						c-13.8-1.2-20.7-9.1-22.7-11.7c-0.9,2.4-2.6,6.2-5.1,9.5h-5v340L896.2,667.2z"/>
					<path class="st4" d="M998.2,267.3l-0.3,6.3v18.7c5-1.7,11.3-10,14.4-14.3v-2.6c0-2.4-1.4-4.2-2.5-5.1l3-1.1
						c1.2,1.3,2.4,3.3,2.4,5.8v1.5l9,9.7l8.9-13.4v-3.3c0-2.2-1.7-4.7-3.1-6.3l3-1.1c1.5,1.9,3.1,4.6,3.1,7v2.7
						c2.1,2.2,10.2,10.5,10.2,10.5s4.1-8.7,5.2-11.1c-6.2-8.6-16.3-18.2-25.7-25.1C1025.6,246,1005.1,264.9,998.2,267.3L998.2,267.3
						z"/>
					<path class="st4" d="M1050.3,285.4v15.4l7.2,6.7v-22.9c0-2.2-0.9-4.8-2.5-7.7L1050.3,285.4z"/>
					<path class="st4" d="M1028,291.4v9.5l8.2,7.7v-29.8L1028,291.4z"/>
					<path class="st4" d="M1039.1,308.6l8.2-7.7v-11.2l-8.2-8.7V308.6z"/>
					<path class="st4" d="M1001.5,297c1.9,2.7,6.9,9.3,12.3,12.2v-26.2C1012.6,285.1,1006.9,294.3,1001.5,297z"/>
					<path class="st4" d="M1016.7,284.4v24.2l8.2-7.7v-8.5L1016.7,284.4z"/>
					<path class="st4" d="M1050.3,310.1v24.1l7.2-6.7v-10.7L1050.3,310.1z"/>
					<path class="st4" d="M1039.1,317.9v8.7l8.2,7.7v-24L1039.1,317.9z"/>
					<path class="st4" d="M1028,310.2v24l8.2-7.7v-8.5L1028,310.2z"/>
					<path class="st4" d="M1016.8,317.9v8.5l8.2,7.7v-24L1016.8,317.9z"/>
					<path class="st4" d="M1005.6,334.3l8.2-7.7v-8c-2.8-1.7-5.7-4.9-8.2-8.3L1005.6,334.3z"/>
					<path class="st4" d="M1026.5,344.9l-8.7-8.1v198.6c0,0-0.6,9.9-1,16.3c3.9,3.9,18.4,18.6,18.4,18.6V336.8L1026.5,344.9z"/>
					<path class="st4" d="M1040.2,562.9c0,6.4,11.7,21.3,17.3,24.7V336.9l-8.6,8l-8.7-8.1V562.9z"/>
				</g>
				<g>
					<path class="st5" d="M967.9,541.4l-6.3-4.4c0,0-0.4,2.1-1,5c2.7,3.7,18.3,25,26.1,35.4c1.9,2.6,3.5,9.2,3.5,9.2
						s2.8-1.3,2.8-3.7c0-2.4-0.3-5.2-0.3-5.2s2.1,2.4,5.7,2.4c0-2.9-5.6-6.1-5.8-10.2c4.3,3.2,8,1.5,13,3.1c5.4,1.7,6.9,3.9,8.5,3.8
						c1-0.1,1.9-1.7,1.5-2.8c-0.6-1.8-7.3-6.7-12-7.6c-1.1-0.2-9.9,1.9-11.7-0.8c-7.3-11.3-19.1-29.5-20.3-31.3
						c-0.8-0.2-1.4-0.4-2-0.7C969.6,533.6,969.7,539.4,967.9,541.4L967.9,541.4z"/>
					<path class="st5" d="M1008.7,576.5c-0.4,0.4-0.3,1,0.1,1.3l2.9,2.5c0.4,0.3,1,0.3,1.3-0.2c0.4-0.4,0.3-1-0.1-1.3l-2.9-2.5
						c-0.2-0.2-0.4-0.2-0.7-0.2C1009.1,576.1,1008.9,576.2,1008.7,576.5L1008.7,576.5z"/>
					<path class="st5" d="M1004.3,579.5c-0.9,1-0.8,2.4,0.1,3.2l7,6.1c0.9,0.8,2.4,0.6,3.2-0.4c0.9-1,0.8-2.4-0.1-3.2l-7-6
						c-0.3-0.3-0.8-0.5-1.2-0.5C1005.6,578.5,1004.9,578.9,1004.3,579.5z"/>
					<path class="st5" d="M1000.3,584.2c-0.9,1-0.8,2.4,0.1,3.2l7,6.1c0.9,0.8,2.3,0.6,3.2-0.4c0.9-1,0.8-2.4-0.1-3.2l-7-6
						c-0.3-0.3-0.8-0.5-1.2-0.5C1001.7,583.3,1000.9,583.6,1000.3,584.2L1000.3,584.2z"/>
					<path class="st5" d="M997.9,587.9c-0.7-0.1-1.5,0.2-2,0.8c-0.9,1-0.8,2.4,0.1,3.2l7,6c0.9,0.8,2.3,0.6,3.2-0.4s0.9-2.4-0.1-3.2
						l-7-6.1C998.8,588.1,998.4,588,997.9,587.9L997.9,587.9z"/>
				</g>
			</g>
		</g>
		<path class="st4" d="M885.9,206.6c11.5,0,19.5,5.2,30.4,10c2.8,1.3,5.5,2.3,7.8,3.1c-1.5,1.3-2.6,2.6-2.9,3.7c0,0,4.9,0.9,7.1,5
			c0,0-4.6,0.5-5.4,3.2c2.6,0.2,5.2,3.5,5.2,6.6l-6.6-2c0,0,1.6,7.4,1.6,15.4c0,4.1-5.9,8.9-5.9,15.8c0,21.7,5.5,30.1,9.4,36.8
			c1.5,2.6,2.8,5.7,5.3,7.9c-11.2-6-19.6-13.4-19.6-20.4v-26.3h-2.9v26.3c0,5,1.2,7.4,1.2,7.4c1.8,5.6,5.3,14.2,7.5,17.6
			c-10.3-5.6-15.6-12.6-15.6-15.2v-36.1h-2.9v36.6l0.6,2.5c-1.3,1.9-2.9,4.1-4,4.9c-1.1-0.8-2.7-3-3.9-4.9l0.6-2.5v-36.6h-2.9v36.1
			c0,2.6-5.2,9.6-15.6,15.2c2.2-3.5,5.8-12,7.5-17.6c0,0,1.2-2.3,1.2-7.4v-26.3h-2.9v26.3c0,6.9-8.3,14.4-19.5,20.4
			c2.5-2.3,3.8-5.3,5.3-7.9c4.3-7.3,9.5-16.7,9.5-43.3c0-10-1.5-16.8-4-21.5c-0.8-1.6-1.8-5.7,4.1-5.7c3.1,0,10.2,5.5,10.2,5.5
			s-0.3-4.4-3.9-6.9c-0.6-0.4-1.6-1.7-1.6-2.9c0-0.9,1.6-3.1,2.8-3.7c0.8-0.4-12.2-2.6-12.2-8.5c0-1.2,0.8-2,3.5-2
			c3.5,0,9.3,4.2,14.4,4.2c3.8,0,5.3-0.9,9.2-0.9c4.7,0,14.6,9,18,8.7c-3.8-2.4-9.9-11.4-19.1-11.4c-3.2,0-6.1,0.7-9.1,0.7
			c-3.8,0-7.6-3.5-11.8-3.5c-2.8,0-5.9,0.2-6.3-0.6c-0.8-1.3-0.1-2,0.7-3c1.4-2,5.4-2.5,9.3-2.7c1.2,0,2.3-0.1,3.4-0.1
			C884.1,206.6,885.1,206.6,885.9,206.6L885.9,206.6z"/>
		<path class="st0" d="M848.7,220.7c0,0,2.4-4.6,8.5-4.6c2.6,0,11-0.2,11-0.2c1.1,2.9,6.2,7.8,6.2,12.9c0,0-5.2-9.4-19.7-9.4
			C851.1,219.4,848.7,220.7,848.7,220.7L848.7,220.7z"/>
		<path class="st5" d="M872.3,230.6c0,0-3.1,3.3-3.8,5c-3.1-1.2-8.4-6.7-8.4-6.7S864.7,231.6,872.3,230.6L872.3,230.6z"/>
		<path d="M867.4,222c0,0-3.6-1.1-3.6-2.3c0-1.5,1.7-1.5,2.8-0.3C867.4,220.1,867.4,222,867.4,222L867.4,222z"/>
		<ellipse cx="882.8" cy="222.1" rx="5.1" ry="4"/>
		<circle class="st3" cx="882.8" cy="222.1" r="3.6"/>
		<circle cx="882.8" cy="222.1" r="1.5"/>
	</g>
	<g>
		<g>
			<polygon points="801.4,592 817.6,600.8 813.6,618.8 797.4,610 			"/>
			<path d="M725.9,418.7l-5.8,2.7L786,565.8h7L725.9,418.7z M803.7,589.1l-4.8,4.9l3,6.6l5.8-2.7L803.7,589.1z"/>
			<path d="M746.4,532.6c0,0,5.6,11.5,9.8,13c-2.2-0.6-9.3,2-9.3,2s12.5,11.2,23.1,11.9c9,0.6,13.4-3.9,13.4-3.9l-1.8-9.5
				c0,0-5.5-6.6-14.3-9.7C758.4,533.4,746.4,532.6,746.4,532.6L746.4,532.6z"/>
			<path d="M788.3,512c0,0-7.7,6.6-9.8,14.2c-2.1,7.6,1.4,16.2,1.4,16.2l6.4,12c0,0,8.9-4.8,12.7-11.9c3.8-7.1,2.4-16.7,2.4-16.7
				s-7.1,2.6-8,3.8C795,521.8,788.3,512,788.3,512L788.3,512z"/>
			<path d="M763.6,509c0,0-8.7,2.9-17.2,2.4c-8.1-0.5-14.8-7.3-14.8-7.3s6.7-4.5,10-3.9c-3.6-1.3-8.9-10.4-8.9-10.4
				s7.5-2.3,14.1,0.2c6.6,2.5,12.4,9.8,12.4,9.8L763.6,509L763.6,509z"/>
			<path d="M766.6,466.4c0,0,4.4,9,3.3,12.2c1.4-2.1,6.5-5.3,6.5-5.3s3.1,14.6,0.1,23.7c-3,9-12,12.5-12,12.5l-9.9-19.3
				c0,0-1.5-7.2,1.6-12.8C759.4,471.5,766.6,466.4,766.6,466.4L766.6,466.4z"/>
			<path d="M709.9,442.5c0,0,9.4-1,18.1,2.6c7.2,3,9.4,8.4,9.4,8.4l3.6,9.5c0,0-10.3,3.8-18.4,0.9c-8.1-2.9-14.1-12.7-14.1-12.7
				s5.7-2.1,7.8-1.3C713.1,448.5,709.9,442.5,709.9,442.5L709.9,442.5L709.9,442.5z"/>
			<path d="M739.5,424.8c0,0,4.1,5.3,4.3,11.4c1.1-3.2,6.3-6.8,6.3-6.8s5.3,12.9,4.1,22c-1.2,9.1-8.8,14.5-8.8,14.5l-9.5-18.1
				c0,0-3.1-7.4-2.2-13.2C734.6,428.9,739.5,424.8,739.5,424.8L739.5,424.8z"/>
			<path d="M706.9,390.2c0,0-1.7,9.9,1.2,15.5c2.6,5.1,4.3,6.2,4.3,6.2c-5-3.3-12.4-3.6-12.4-3.6s2.7,10.7,9,15.6s16.2,3.7,16.2,3.7
				s6.5-8.6,6-17.9c-0.4-9.3-7.8-19.2-7.8-19.2s-2.9,6-3.2,10.5C718.3,396.5,706.9,390.2,706.9,390.2L706.9,390.2z"/>
			<path d="M783.9,555.3l0.3,3.5c5.9,0.1,6.8-0.5,8.3,1.3c1,1.2,3.4,2.3,5.8,1.2c2.4-1.1,3.5-4,2.4-6.4s-3.3-2.9-5.5-2.5
				c-1.3,0.3-2.2,1.3-3.3,1.9C789.6,555.5,783.9,555.3,783.9,555.3L783.9,555.3z"/>
			<path d="M783.3,552.6l2.9,2.1c-3.1,5-4,5.4-3.3,7.7c0.5,1.5,0.2,4.1-2,5.6c-2.2,1.5-5.2,0.8-6.7-1.4c-1.5-2.2-0.7-4.4,0.8-6
				c0.9-1,2.3-1.2,3.4-1.8C780.5,557.6,783.3,552.6,783.3,552.6L783.3,552.6z"/>
			<path d="M763.5,510.6l0.3,3.5c5.9,0.1,6.8-0.5,8.3,1.3c1,1.2,3.4,2.3,5.8,1.2c2.4-1.1,3.5-4,2.4-6.4c-1.1-2.4-3.3-2.9-5.5-2.5
				c-1.3,0.3-2.2,1.3-3.3,1.9C769.2,510.8,763.4,510.6,763.5,510.6L763.5,510.6z"/>
			<path d="M764.6,511.8l2.5,2.5c-3.8,4.5-4.8,4.8-4.4,7.1c0.3,1.6-0.5,4.1-2.9,5.2c-2.4,1.1-5.3,0-6.4-2.4c-1.1-2.4,0-4.4,1.7-5.8
				c1.1-0.8,2.4-0.8,3.6-1.3C761,516.3,764.6,511.8,764.6,511.8L764.6,511.8z"/>
			<path d="M743.7,468.7l0.3,3.5c5.9,0.1,6.8-0.5,8.3,1.3c1,1.2,3.4,2.3,5.8,1.2c2.4-1.1,3.5-4,2.4-6.4c-1.1-2.4-3.3-2.9-5.5-2.5
				c-1.3,0.3-2.2,1.3-3.3,1.9C749.4,468.9,743.7,468.7,743.7,468.7L743.7,468.7z"/>
			<path d="M745.3,468l2.5,2.5c-3.8,4.5-4.8,4.8-4.4,7.1c0.3,1.6-0.5,4.1-2.9,5.2c-2.4,1.1-5.3,0-6.4-2.4c-1.1-2.4,0-4.4,1.7-5.8
				c1.1-0.8,2.4-0.8,3.6-1.3C741.7,472.5,745.3,468,745.3,468L745.3,468z"/>
			<path d="M722.6,424.5l0.3,3.5c5.9,0.1,6.8-0.5,8.3,1.3c1,1.2,3.4,2.3,5.8,1.2c2.4-1.1,3.5-4,2.4-6.4s-3.3-2.9-5.5-2.5
				c-1.3,0.3-2.2,1.3-3.3,1.9C728.4,424.7,722.6,424.5,722.6,424.5L722.6,424.5z"/>
			<path d="M724.2,423.8l2.5,2.5c-3.8,4.5-4.8,4.8-4.4,7.1c0.3,1.6-0.5,4.1-2.9,5.2c-2.4,1.1-5.3,0-6.4-2.4c-1.1-2.4,0-4.4,1.7-5.8
				c1.1-0.8,2.4-0.8,3.6-1.3C720.6,428.3,724.2,423.8,724.2,423.8L724.2,423.8z"/>
		</g>
		<g>
			<polygon class="st3" points="803.7,597.1 813.8,602.5 811.3,613.7 801.3,608.2 			"/>
			<path class="st3" d="M759.7,500.1c-2.1,0.9-5.2-8.3-7.5-13.3c-2.4-5.2-7.1-13.1-5.8-13.7c1.5-0.7,3.5,3.5,5.9,8.8
				C754.7,487.1,761.7,499.3,759.7,500.1L759.7,500.1z"/>
			<path class="st3" d="M738.1,451.8c-2.1,0.9-4.4-5.1-6.7-10.2c-2.4-5.2-4.6-8.8-3.3-9.4c1.5-0.7,3.7,3.8,5.6,8.1
				C735.6,444.4,740.1,451,738.1,451.8L738.1,451.8z"/>
			<path class="st3" d="M788.1,561.3c-1.7,0.4-8.9-14.7-14.7-27.4c-5.8-12.8-10.2-23.1-8.8-23.7c1.5-0.7,6.2,11.4,12,24.2
				C782.5,547.1,789.4,561,788.1,561.3L788.1,561.3z"/>
		</g>
		<g>
			<path class="st6" d="M709.8,396.2c0,0-0.3,7.2,2.1,11.3c2.4,4.1,7.7,5.7,7.7,5.7s0.3-7.2-2.1-11.3
				C715.1,397.8,709.8,396.2,709.8,396.2z"/>
			<path class="st6" d="M704.8,412.5c0,0,6.3,0.4,9.9,3.1c3.6,2.8,5,8.5,5,8.5s-4.1,0.4-7.8-2.3C708.3,419,704.8,412.5,704.8,412.5z
				"/>
			<path class="st6" d="M724.4,397.9c0,0-2.1,4.8-1.8,9.9c0.2,5.1,3.2,10.9,3.2,10.9s2.7-6.2,2.5-11.3
				C728,402.3,725.1,399.4,724.4,397.9L724.4,397.9z"/>
			<path class="st6" d="M713.9,444.3c0,0,3.1,4.3,7.8,6.6c4.7,2.3,11.8,2.4,11.8,2.4s-3.5-4.6-8.2-6.9
				C720.5,444.1,713.9,444.3,713.9,444.3L713.9,444.3z"/>
			<path class="st6" d="M715.4,454.3c0,0,2.3,4.4,6.4,6.3c4.1,1.9,12.6,1.7,12.6,1.7s-3.2-4.1-7.4-6
				C722.9,454.4,715.4,454.3,715.4,454.3L715.4,454.3z"/>
			<path class="st6" d="M739.2,430.7c0,0-2.5,4.1-2.3,8.7c0.2,4.5,3.2,9.5,3.2,9.5s2.1-5.7,1.9-10.2
				C741.8,434.1,739.2,430.7,739.2,430.7L739.2,430.7z"/>
			<path class="st6" d="M748.4,436.5c0,0-4.3,5.7-4.9,11.6c-0.6,5.9,2.4,11.9,2.4,11.9s5.2-5.2,5.8-11.1
				C752.3,443.1,748.4,436.5,748.4,436.5L748.4,436.5z"/>
			<path class="st6" d="M736.6,490.9c0,0,0.5,2.1,2.3,4.4c1.8,2.3,4.8,4.6,4.8,4.6s2.9-0.9,6.6-0.2c3.7,0.8,8.5,4.1,8.5,4.1
				s-5.2-7.8-10.7-10.9C742.7,489.9,736.6,490.9,736.6,490.9L736.6,490.9z"/>
			<path class="st6" d="M736,504.4c0,0,6.8-2.9,12.4-2.2c5.6,0.7,10.6,5.2,10.6,5.2s-7.6,2.6-13.2,1.9
				C740.3,508.5,736,504.4,736,504.4L736,504.4z"/>
			<path class="st6" d="M764.8,472.8c0,0-6,6.4-6.5,11.9c-0.5,5.5,4.9,10.7,4.9,10.7s-0.3-3.5,0.7-5.9c0.9-2.3,2.9-4.8,2.9-4.8
				s0.8-2.8,0.5-5.1C766.7,476.3,764.8,472.8,764.8,472.8L764.8,472.8z"/>
			<path class="st6" d="M773.4,480.2c0,0-5.7,5.7-7.2,11.9c-1.5,6.1,1.2,12.7,1.2,12.7s5.1-4.1,6.6-10.2
				C775.5,488.4,773.4,480.2,773.4,480.2L773.4,480.2z"/>
			<path class="st6" d="M787.6,517.1c0,0,2.6,5.4,3.2,9.8c0.7,4.5,0,6,0,6s-2.7,2.6-3.8,4.1c-1.5,2-1.8,5.6-1.8,5.6
				s-5.3-7.9-4.5-13.7C781.5,523.2,787.6,517.1,787.6,517.1L787.6,517.1z"/>
			<path class="st6" d="M798.8,529.5c0,0-6.8,4.5-9.5,9.1c-2.7,4.6-1.3,9.3-1.3,9.3s4.9-0.4,7.6-5
				C798.2,538.3,798.8,529.5,798.8,529.5L798.8,529.5z"/>
			<path class="st6" d="M754,548.5c0,0,9.8-0.3,15.8,1.2c6,1.5,8.2,4.7,8.2,4.7s-6.8,3.2-12.8,1.7C759.2,554.7,754,548.5,754,548.5
				L754,548.5z"/>
			<path class="st6" d="M752.3,536.9c0,0,4.4,6.9,10.2,9.4c7.9,3.4,17,1.8,17,1.8s-5-6.1-11.8-8.8
				C760.9,536.6,752.3,536.9,752.3,536.9L752.3,536.9z"/>
		</g>
		<path d="M1088.7,401.9l1.3,2.7c0,0-2.1,0.7-3,2.6c-0.9,1.8,0.6,4.5,0.6,4.5s-10.8-0.9-12.5,0.2c-1.5,1,0.6,8.5-0.4,14.8
			c-1.4,8.8-4.9,8.1-5,9.8c-0.1,1.7,1.3,4.2,1.3,4.2s-2,0.6-2.5,1.5c-0.7,1.4,0.5,3.9-0.4,5.5c-4.7,9.2-11.6,22.8-16.2,31.8
			c-0.6,1.3-2.4,1.7-3.2,3.4c-0.8,1.6-0.2,3.8-0.2,3.8s-3,0.2-4.1,2.3c-1.1,2.2-0.5,5.2-0.5,5.2s-1.9,0.2-2.9,2.1
			c-1,2,0.7,3,0.3,3.9c-6.2,12.1-13.4,26.4-17.9,35.1c-1.6,3.2-7.3,3.8-10.7,10.3c-3.2,6.3,1.4,11,1.4,11s-4.8,0.4-6,2.9
			c-1.3,2.5-0.3,6.4,3.2,8.1c3.4,1.8,7.2,0.3,8.5-2.2c1.3-2.5-1.3-6.6-1.3-6.6s6.5,0.9,9.7-5.4c3.3-6.5,0.5-11.4,2.2-14.6
			c4.4-8.7,11.7-23,17.9-35.1c0.4-0.9,2.3-0.1,3.3-2.1c0.9-1.9,0-3.5,0-3.5s2.8-1.2,3.9-3.4c1.1-2.1-0.6-4.7-0.6-4.7s2.2-0.8,3-2.4
			c0.9-1.7,0.2-3.4,0.9-4.6c4.6-9,11.5-22.6,16.2-31.8c0.8-1.7,3.6-2.2,4.2-3.6c0.4-0.8-0.3-2.9-0.3-2.9s3-0.3,4.2-1.4
			c1.3-1.1-1.3-3.5,5-9.8c4.5-4.5,11.8-7.2,11.7-9c-0.1-2-7.2-10.2-7.2-10.2s3-0.3,3.9-2.1c0.9-1.8,0.3-4,0.3-4l3-0.5l0-14.1
			L1088.7,401.9z M990.6,598c-0.4,0.9-0.5,2.1,0,3.1c0,0-3.6-1.1-4.8-0.5c-1.2,0.6,0,17.5,0,17.5s14.3-9,14.1-10.3
			c-0.2-1.4-3.2-3.6-3.2-3.6c1.2-0.2,2.1-0.9,2.5-1.8c0.5-0.9,0.5-3.6-2.7-5.2c-1.2-0.6-2.3-0.8-3.2-0.7
			C991.8,596.6,990.9,597.4,990.6,598L990.6,598z"/>
		<g>
			<path class="st3" d="M1091.3,402.5l6.8,3.4l-0.1-8.1L1091.3,402.5z"/>
			<path class="st3" d="M1088.7,407.4c-0.9,1.7,0,3.9,1.9,4.9c1.9,1,4.1,0.4,5-1.3c0.9-1.7,0-3.9-1.9-4.9c-0.7-0.4-1.5-0.5-2.2-0.5
				C1090.3,405.7,1089.3,406.4,1088.7,407.4L1088.7,407.4z"/>
			<path class="st3" d="M1077.1,413.6c-0.7,0.5,0.3,6.5,0.1,11.7c-0.2,4.9-1.8,6.3-2.6,7.9c-0.8,1.5-3.6,3.4-3.6,3.4l2.4,2.4
				c0,0,1.5-2.4,3.9-7.1c2.8-5.6,2.8-15.7,3.6-16.2c0.7-0.5,6.7-1.9,6.7-1.9c0,0-5.4-0.3-8.4-0.3
				C1078,413.5,1077.3,413.5,1077.1,413.6z"/>
			<path class="st3" d="M1077.7,441.7c0,0,0.8-2.2,3.5-7.6c3.3-6.5,10.4-11.2,10.5-12.4c0.2-1.2-2.5-6.9-2.5-6.9s-6.2,1.2-7.1,2
				c-0.9,0.8-0.5,9.3-3.8,15.8c-2.7,5.4-4.1,7.4-4.1,7.4L1077.7,441.7z"/>
			<path class="st3" d="M1093.7,422.2c0.1,1-8.2,6.9-11,12.4c-2.4,4.7-3.4,7.4-3.4,7.4l3.3,0.5c0,0-0.2-3.4,0.6-4.9
				c0.9-1.7,1.1-3.7,4.9-6.8c4.1-3.2,9.6-6,9.5-6.9c0-0.8-6.1-8.3-6.1-8.3S1093.6,421.4,1093.7,422.2L1093.7,422.2z"/>
			<path class="st3" d="M1069.6,458.7c4.9-9.7,6.4-10.3,7.1-11.6c0.7-1.3,0.5-3.1-1.7-4.2c-0.8-0.4-1.5-0.5-2.1-0.5
				c-1,0.1-1.8,0.8-2.2,1.6c-0.6,1.2-0.3,2.9-5.2,12.5l-11.2,22c0,0-1.2,2.2,1,3.3c2.2,1.1,3.2-1.1,3.2-1.1L1069.6,458.7z"/>
			<path class="st3" d="M1049.8,483.9c-0.6,1.2,0.4,3,2.4,3.9c1.9,1,4,0.8,4.6-0.4c0.6-1.2-0.5-3-2.4-3.9c-1-0.5-1.9-0.7-2.8-0.6
				C1050.7,483,1050.1,483.3,1049.8,483.9z"/>
			<path class="st3" d="M1045.6,490.2c-0.8,1.6,0.4,3.8,2.8,5c2.3,1.2,4.8,0.9,5.6-0.7c0.8-1.6-0.4-3.8-2.8-5
				c-0.9-0.4-1.7-0.7-2.6-0.7C1047.3,488.7,1046.1,489.2,1045.6,490.2L1045.6,490.2z"/>
			<path class="st3" d="M1043,497.1c-0.6,1.2,0.4,3,2.4,3.9c1.9,1,4,0.8,4.6-0.4c0.6-1.2-0.4-3-2.4-3.9c-1-0.5-2-0.7-2.8-0.6
				C1044,496.2,1043.3,496.5,1043,497.1L1043,497.1z"/>
			<path class="st3" d="M1041.3,503.8c0,0-12.4,24.5-16.8,33.1c-1.4,2.8-7.3,4.5-9.6,9c-2.3,4.6-0.7,8.8,2.4,10.4
				c3,1.5,7.5,0.4,9.8-4.1c2.3-4.5,0.2-10.4,1.6-13.1c4.4-8.6,16.8-33.1,16.8-33.1s1.2-2.2-1-3.3c-0.6-0.3-1-0.3-1.4-0.3
				C1041.9,502.5,1041.3,503.8,1041.3,503.8z"/>
			<path class="st3" d="M1009.8,560.6c-0.9,1.8,0.1,4.3,2.4,5.4c2.3,1.2,4.9,0.6,5.8-1.2c0.9-1.8-0.2-4.3-2.5-5.4
				c-0.9-0.4-1.7-0.6-2.6-0.6C1011.7,558.8,1010.4,559.5,1009.8,560.6L1009.8,560.6z"/>
			<path class="st3" d="M993.3,598.1c-0.7,0-1.3,0.2-1.5,0.7c-0.5,0.9,0.5,2.4,2.2,3.3c1.7,0.9,3.5,0.8,3.9-0.2
				c0.5-0.9-0.5-2.4-2.2-3.3C994.8,598.2,994,598,993.3,598.1L993.3,598.1z"/>
			<path class="st3" d="M987.4,602.7v12.1l9.8-7.1c0,0-1.3-2.4-4.2-3.8C990.1,602.4,987.4,602.7,987.4,602.7L987.4,602.7z"/>
		</g>
	</g>
	<g>
		<path class="st3" d="M993.6,333.6c0-6.6,8.7-13.2,8.7-13.2H790.1c0,0,8.7,6.5,8.7,13.2v158c0,4.2,1.3,6.9,3.3,9.5
			c2,2.9,6.4,6.8,10.9,9.7c13.9,9.1,37.2,18.6,54.9,26.6c14.7,6.7,20.7,9.4,28.3,18.8c7.6-9.5,13.7-12.2,28.4-18.8
			c17.6-8,40.9-17.6,54.9-26.6c4.5-2.9,8.9-6.9,10.9-9.7c2-2.6,3.3-5.4,3.3-9.5L993.6,333.6z"/>
		<path class="st5" d="M803.8,423v-89.4c0-5.1-2.6-8.1-2.6-8.1h189.9c0,0-2.6,3.1-2.6,8.1l0.1,89.4l-92.4,28L803.8,423z"/>
		<path class="st7" d="M988.7,423l-57.2-1.1h-70.4l-57.2,1.1v68.6c0,3.4,3.6,11.5,24.2,21.8c34.1,17,60.3,24.9,68.2,34.6
			c7.9-9.7,34.1-17.6,68.2-34.6c20.6-10.3,24.2-18.4,24.2-21.8L988.7,423z"/>
		<g>
			<path d="M930.1,419.4c0,0,33-8.3,33-43.6c0-27.6-33.1-41.2-34-47.8c-3.2,11.4,11.1,27.1,11.1,45.7c0,24.1-17.8,25.2-17.8,25.2
				c-4.2,0-5.8,3-7.5,3c-3.5-0.4-5.1-4.8-8.6-4.8c-3.2,0-5.7,5-10,5c-4.3,0-6.7-5-10-5c-3.5,0-5.1,4.4-8.6,4.8c-1.6,0-3.3-3-7.5-3
				c0,0-17.8-1.2-17.8-25.2c0-18.6,14.3-34.3,11.1-45.7c-0.9,6.6-34,20.2-34,47.8c0,35.3,33,43.6,33,43.6l-9.4,17.1
				c0,0,13.6,0.7,20.9,6.9c8.7,7.4,7.9,23.2,7.9,34.7c0,9-1.1,18.6-5.8,22.5c-6.2,5.3-10.4,5.7-10.4,11.9c0,5.2,4,6.2,10.4,9.6
				c8.3,4.4,7.9,10.2,20.2,10.2c12.3,0,12-5.9,20.3-10.2c6.5-3.4,10.4-4.5,10.4-9.6c0-6.2-4.2-6.6-10.4-11.9
				c-4.6-3.9-5.8-13.5-5.8-22.5c0-11.5-0.8-27.3,7.9-34.7c7.2-6.2,20.9-6.9,20.9-6.9L930.1,419.4z"/>
			<path d="M896.2,330.4l-5.7,16.3l-15.6-7.4l7.4,15.6l-16.3,5.8l16.3,5.8l-7.4,15.6l15.6-7.4l5.7,16.3l5.8-16.3l15.6,7.4l-7.4-15.6
				l16.3-5.8l-16.3-5.8l7.4-15.6l-15.6,7.4L896.2,330.4z"/>
			<path d="M861,421.9c0,0-20.4-5-28-15.1c-13.3,12-29.2,16.1-29.2,16.1s16.6,7.5,29.2,17C838.9,431.7,861,421.9,861,421.9
				L861,421.9z"/>
			<path d="M931.4,421.9c0,0,22.2,9.8,28,18.1c12.6-9.5,29.2-17,29.2-17s-15.9-4.2-29.2-16.1C951.8,416.9,931.4,421.9,931.4,421.9
				L931.4,421.9z"/>
			<path d="M869.4,443.6l-7.9,7.9l7.9,7.9l7.9-7.9L869.4,443.6z"/>
			<path d="M923.1,443.6l-7.9,7.9l7.9,7.9l7.9-7.9L923.1,443.6z"/>
			<path d="M867.4,489.9c0,10-1,15.3-1,15.3s11.2-3.3,13.4-14.6c1-5.3,2.2-24.9-3.2-28.3l-14.6-2.9
				C863.7,463.4,867.4,475.5,867.4,489.9L867.4,489.9z"/>
			<path d="M915.8,462.3c-5.4,3.3-4.2,22.9-3.2,28.3c2.2,11.3,13.4,14.6,13.4,14.6s-1-5.3-1-15.3c0-14.5,3.7-26.6,5.3-30.5
				L915.8,462.3z"/>
			<path d="M833,462.9c-5,1.3-8.1,6.4-6.8,11.4c0.2,0.8,0.5,1.5,0.9,2.1c-0.7-0.2-1.5-0.4-2.3-0.5c-0.3,0-0.7,0-1,0
				c-4.8,0.2-8.7,3.9-9.1,8.8c-0.4,5.2,3.6,9.6,8.8,10c0.8,0.1,1.5,0,2.3-0.1c-0.4,0.6-0.8,1.3-1.1,2c-1.9,4.8,0.4,10.4,5.2,12.3
				c4.8,1.9,10.3-0.5,12.2-5.3c0.3-0.7,0.5-1.5,0.6-2.2c0.4,0.6,1,1.2,1.6,1.7c4,3.3,9.9,2.8,13.3-1.2c3.3-4,2.8-9.9-1.2-13.2
				c-0.6-0.5-1.3-0.9-1.9-1.2c0.7-0.2,1.4-0.6,2.1-1c4.4-2.8,5.7-8.6,3-13c-1.9-3-5.2-4.6-8.5-4.4c-1.5,0.1-3,0.6-4.4,1.4
				c-0.7,0.4-1.3,0.9-1.8,1.4c0-0.8-0.1-1.5-0.3-2.3c-1.1-4.4-5.2-7.3-9.5-7.1C834.3,462.7,833.6,462.8,833,462.9L833,462.9z"/>
			<path d="M932.8,490.2c1,9.6,8.8,17.6,18.4,19.9c-1.6-2.7-2.7-5.7-3.1-8.9c-1.2-11.4,7.6-20.6,19.6-20.6c1.9,0,3.7,0.2,5.5,0.7
				c-4.2-6.9-12.2-11.8-20.9-11.8C940.4,469.6,931.6,478.9,932.8,490.2z"/>
		</g>
		<g>
			<path class="st1" d="M847.6,373.7c0,18.1,9.7,28.8,22.6,28.8c2.5,0,5.2,3.3,7.5,3.3c3.8,0,6.3-4.2,8.6-4.2c2.9,0,4.9,4.6,10,4.6
				c5.1,0,7.1-4.6,10-4.6c2.3,0,4.8,4.2,8.6,4.2c2.3,0,5-3.3,7.5-3.3c12.9,0,22.6-10.7,22.6-28.8c0-14.8-12.4-32.8-11.1-35.7
				c0,0,24.2,17.4,24.2,37.8c0,33-33.4,41.1-33.4,41.1l7.5,16.9c0,0-10.4,1.6-16.7,6.7c-8.4,6.8-8.5,25.2-8.5,37.6
				c0,14.6,0.5,20.9,5.8,24.8c5.6,4.2,9.8,5.1,9.8,9.4c0,3.7-4.3,5.2-10,7.7c-6.4,2.8-7.1,7.7-16.3,7.7c-9.3,0-9.9-4.9-16.3-7.7
				c-5.6-2.5-10-4-10-7.7c0-4.3,4.2-5.2,9.8-9.4c5.3-4,5.8-10.2,5.8-24.8c0-12.4-0.1-30.8-8.5-37.6c-6.3-5.1-16.7-6.7-16.7-6.7
				l7.5-16.9c0,0-33.4-8.1-33.4-41.1c0-20.5,24.2-37.8,24.2-37.8C860,340.9,847.6,358.9,847.6,373.7L847.6,373.7z M883.6,509.8
				c-6.6,0-10.8,1.4-10.8,3.4c0,2,4.2,3.3,10.8,3.3c1.8,0,3.7-1,3.7-3.3S885.3,509.8,883.6,509.8L883.6,509.8z M908.9,509.8
				c-1.8,0-3.7,1.1-3.7,3.4c0,2.3,2,3.3,3.7,3.3c6.6,0,10.8-1.3,10.8-3.3C919.7,511.2,915.5,509.8,908.9,509.8L908.9,509.8z"/>
			<path class="st1" d="M896.3,341.4l3.7,10.4l9.9-4.8l-4.7,10l10.3,3.7l-10.3,3.7l4.7,9.9l-9.9-4.7l-3.7,10.3l-3.7-10.3l-9.9,4.7
				l4.7-9.9l-10.3-3.7l10.3-3.7l-4.7-10l9.9,4.8L896.3,341.4L896.3,341.4z"/>
			<path class="st1" d="M850.1,422.5c0,0-17.1,12.7-17.1,12.7l-0.2,0.3l-0.4-0.3l-18.9-11.9c0,0,12.1-4.2,19.2-11.4
				C839.5,419.6,850.1,422.5,850.1,422.5L850.1,422.5z"/>
			<path class="st1" d="M978.9,423.3c0,0-12.6,6.3-18.9,11.9l-0.4,0.3l-0.2-0.3c-6-6.9-17.1-12.7-17.1-12.7s10.7-2.9,17.4-10.6
				C966.9,419.1,978.9,423.3,978.9,423.3z"/>
			<path class="st1" d="M869.4,447.4l4.1,4.1l-4.1,4.2l-4.2-4.2L869.4,447.4z"/>
			<path class="st1" d="M923.1,447.4l4.2,4.1l-4.2,4.2l-4.1-4.2L923.1,447.4z"/>
			<path class="st1" d="M875,465.5c2.9,4,2.4,10.5,2.4,19.5c0,9.1-6.8,12.5-6.8,12.5c0-21.8-2.2-27-3.4-33.6L875,465.5z"/>
			<path class="st1" d="M925.3,463.9c-1.2,6.6-3.4,11.8-3.4,33.6c0,0-6.8-3.5-6.8-12.5c0-9-0.5-15.5,2.4-19.5L925.3,463.9
				L925.3,463.9z"/>
			<path id="leaf" class="st1" d="M842.8,472.1c0.2,0.8,0.2,1.6,0.2,2.4c-0.1,0.7-0.2,1.2-0.5,1.8c-1.1-0.4-2.4-0.6-3.6-0.6
				c-3.2,0-6,1.4-7.9,3.6c-0.5-0.5-1-1-1.3-1.5c-0.4-0.6-0.8-1.4-1-2.1c-1-3.9,1.4-7.9,5.3-8.9c0.5-0.1,1-0.2,1.5-0.2
				C838.9,466.5,842,468.7,842.8,472.1L842.8,472.1z"/>
			<g transform="rotate(72,838.89,486.468)">
				<path id="leaf_1_" class="st1" d="M853.7,485.8c-0.7,0.4-1.5,0.7-2.2,0.9c-0.6,0.1-1.3,0.2-1.9,0.1c0-1.2-0.1-2.4-0.5-3.6
					c-1-3-3.2-5.3-5.9-6.4c0.3-0.6,0.6-1.2,1-1.7c0.5-0.6,1.1-1.2,1.7-1.6c3.4-2.1,7.9-1.1,10.1,2.3c0.3,0.4,0.5,0.9,0.7,1.3
					C857.9,480.2,856.7,483.9,853.7,485.8L853.7,485.8z"/>
			</g>
			<g transform="rotate(144,838.89,486.468)">
				<path id="leaf_2_" class="st1" d="M844.1,500.4c-0.6-0.5-1.1-1.2-1.5-1.9c-0.3-0.6-0.5-1.1-0.7-1.8c1.2-0.3,2.3-0.9,3.3-1.6
					c2.6-1.9,4-4.6,4.3-7.6c0.7,0.1,1.3,0.2,2,0.5c0.7,0.3,1.4,0.6,2.1,1.2c3.1,2.6,3.5,7.2,0.9,10.3c-0.3,0.4-0.7,0.7-1.1,1
					C850.7,502.6,846.8,502.7,844.1,500.4L844.1,500.4z"/>
			</g>
			<g transform="rotate(216,838.89,486.468)">
				<path id="leaf_3_" class="st1" d="M827.3,495.8c0.3-0.8,0.8-1.4,1.3-2c0.4-0.5,0.9-0.9,1.5-1.2c0.7,1,1.5,1.9,2.6,2.6
					c2.6,1.9,5.7,2.4,8.5,1.8c0.1,0.7,0.2,1.3,0.2,2c0,0.8-0.2,1.6-0.5,2.3c-1.5,3.7-5.8,5.5-9.5,4c-0.5-0.2-0.9-0.4-1.3-0.7
					C827.2,502.7,826,499,827.3,495.8L827.3,495.8z"/>
			</g>
			<g transform="rotate(288,838.89,486.468)">
				<path id="leaf_4_" class="st1" d="M826.5,478.3c0.8,0.1,1.6,0.3,2.3,0.6c0.6,0.3,1.1,0.6,1.6,1c-0.7,0.9-1.3,2.1-1.7,3.3
					c-1,3-0.5,6.1,1,8.7c-0.6,0.3-1.2,0.6-1.9,0.8c-0.7,0.2-1.5,0.3-2.3,0.3c-4-0.3-7.1-3.8-6.8-7.8c0-0.5,0.1-1,0.3-1.5
					C819.8,480.3,822.9,478,826.5,478.3L826.5,478.3z"/>
			</g>
			<circle class="st1" cx="838.9" cy="486.5" r="7.1"/>
			<path class="st1" d="M962.9,476.9c-11.7,2.3-20.2,12.6-18.9,24.7c-3.7-3.1-6.5-7.3-7-11.9c-1-9,5.6-15.9,15.4-15.9
				C956.2,473.9,959.8,475,962.9,476.9L962.9,476.9z"/>
		</g>
	</g>
</g>
</svg>
