<?xml version="1.0" encoding="utf-8"?>
<!-- Generator: Adobe Illustrator 21.0.0, SVG Export Plug-In . SVG Version: 6.00 Build 0)  -->
<svg version="1.1" id="Layer_1" xmlns="http://www.w3.org/2000/svg" xmlns:xlink="http://www.w3.org/1999/xlink" x="0px" y="0px"
	 viewBox="0 0 411 274" style="enable-background:new 0 0 411 274;" xml:space="preserve">
<style type="text/css">
	.st0{fill:#FFFFFF;}
	.st1{fill:#CE1126;}
	.st2{fill:#007A3D;}
</style>
<path class="st0" d="M0,86.4h411v101.3H0L0,86.4z"/>
<path class="st1" d="M0,0h411v91.3H0V0z"/>
<path d="M0,182.7h411V274H0V182.7z"/>
<path class="st2" d="M246,120.2c-0.6-0.3-1.2-0.8-1.4-1.1c-0.3-0.4-0.1-0.5,1.2-0.1c2.3,0.6,3.8,0.4,5.3-0.9l1.3-1.1l1.5,0.8
	c0.8,0.4,1.7,0.7,2,0.7c0.7-0.2,2.1-1.9,2-2.6c-0.1-0.8,0.6-0.6,0.9,0.3c0.6,1.6-0.3,3.5-1.9,3.9c-0.8,0.2-1.5,0.1-2.7-0.3
	c-1.4-0.5-1.7-0.5-2.4,0.1C250.3,121.1,248.1,121.2,246,120.2L246,120.2z"/>
<path class="st2" d="M251.8,114.9c-0.6-0.7-1.2-3.4-1-4.1c0.2-0.6,0.4-0.7,0.9-0.5c0.9,0.3,1.1,0.9,1,3.1
	C252.5,115.1,252.3,115.6,251.8,114.9z"/>
<path class="st2" d="M184.2,113c-0.2,1.3,2.3,4.6,3.5,5.2c-0.8,0.3-1.7,0.2-2.4,0.6c-3.9,3.9-18.4,18-21,21.4
	c7.8,0.2,16.4-0.1,23.8-0.4c0-5.3,5-5.6,8.4-7.5c1.7,2.7,6.1,2.5,6.6,6.6c0,4.9,0,12.3,0,17.6c-22.1,0-44.6,0-66.6,0
	c-1.2,5.2-5.8,9.1-12.4,7.5c2-2.1,5.4-2.8,6.6-5.7c1-6.4-2-10.3-4-13.9c3.3-1.2,3.8-1.5,7.1-3.7c-2.3,7.1,6.1,6.3,12.4,6.2
	c0.2-2.4,0.1-5.3-1.8-5.6c2.4-0.9,2.8-1.2,6.6-4.4c0,2.9,0,6.7,0,9.6c14.9,0,30.9-0.1,46.1-0.1c0-3,0.8-7.8-1.6-7.8
	c-2.3,0-0.1,6.2-1.9,6.2s-23.7,0-35.6,0c0-1.3,0-4.1,0-6.1c1.5-1.5,1.3-1.4,11.6-11.7C170.7,125.7,177.9,119.1,184.2,113L184.2,113z
	"/>
<path class="st2" d="M273.3,112.7c2.5,1.3,4.5,3.2,7.5,4c-0.4,1.3-1.5,1.8-1.8,3.1c0,9,0,17.9,0,26.9c3.4,0.8,4.1-1.2,5.7-2.2
	c0.4,4.3,3.2,8.5,3.1,11.9c-4.9,0-9.7,0-14.6,0C273.3,141.9,273.3,127.3,273.3,112.7L273.3,112.7z"/>
<path class="st2" d="M253.9,127.1c0,0,5.3-4.5,5.3-4.6c0,7.6,0,15.8,0,23.5l3.8,0c0-8.9-0.1-18-0.1-26.3c1.5-1.5,4.6-3.8,5.3-5.4
	c0,16,0,29.5,0,42.1c-10.7,0-30.8,0-33.4,0c-0.5-8.7-0.6-17.8,9.6-15.8c0-1.5,0-2.4,0-3.6c-0.3-0.6-0.9,0.1-1-0.6
	c1.6-1.6,2.2-2,6.5-5.9c0,4.6,0.1,15.5,0.1,15.5c1.1,0,3.2,0,3.9,0C253.9,146,253.9,127.7,253.9,127.1L253.9,127.1z M241.3,145.8
	c0.7,1.1,3.2,1.1,3-0.8C244,143.5,240.8,144.1,241.3,145.8z"/>
<circle class="st2" cx="144.5" cy="161.4" r="2"/>
<path class="st2" d="M207.5,112.8c2.5,1.3,4.5,3.2,7.5,4c-0.4,1.3-1.5,1.8-1.8,3.1c0,9,0,17.9,0,26.9c3.4,0.7,4.1-1.2,5.7-2.2
	c0.4,4.3,3.2,8.5,3.1,11.9c-4.9,0-9.7,0-14.6,0C207.5,141.9,207.5,127.3,207.5,112.8L207.5,112.8z"/>
</svg>
