<?xml version="1.0" encoding="utf-8"?>
<!-- Generator: Adobe Illustrator 21.0.0, SVG Export Plug-In . SVG Version: 6.00 Build 0)  -->
<svg version="1.1" id="Layer_1" xmlns="http://www.w3.org/2000/svg" xmlns:xlink="http://www.w3.org/1999/xlink" x="0px" y="0px"
	 viewBox="0 0 900 600" style="enable-background:new 0 0 900 600;" xml:space="preserve">
<style type="text/css">
	.st0{fill:#EE1C25;}
	.st1{fill:#0B4EA2;}
	.st2{fill:#FFFFFF;}
</style>
<title>Flag of Slovakia</title>
<rect class="st0" width="900" height="600"/>
<rect class="st1" width="900" height="400"/>
<rect class="st2" width="900" height="200"/>
<g>
	<path class="st2" d="M316.3,463.5c-53.8-25.9-130.7-77.3-130.7-179c0-101.7,4.9-148,4.9-148h125.8h125.9c0,0,4.9,46.3,4.9,148
		C447,386.2,370,437.6,316.3,463.5z"/>
	<path class="st0" d="M316.3,450c-49.3-23.8-119.9-70.9-119.9-164.3c0-93.3,4.5-135.7,4.5-135.7h115.5h115.5c0,0,4.5,42.4,4.5,135.7
		C436.2,379.1,365.6,426.2,316.3,450L316.3,450z"/>
	<path class="st2" d="M326.8,261.3c13.4,0.2,39.4,0.7,62.6-7c0,0-0.6,8.3-0.6,18c0,9.7,0.6,18,0.6,18c-21.3-7.1-47.6-7.3-62.6-7.1
		v51.5h-21.1v-51.5c-15.1-0.2-41.3,0-62.6,7.1c0,0,0.6-8.3,0.6-18c0-9.7-0.6-18-0.6-18c23.2,7.8,49.3,7.2,62.6,7v-32.4
		c-12.2-0.1-29.7,0.5-49.6,7.1c0,0,0.6-8.3,0.6-18c0-9.7-0.6-18-0.6-18c19.8,6.6,37.3,7.2,49.5,7.1c-0.6-20.5-6.6-46.3-6.6-46.3
		s12.3,1,17.2,1c4.9,0,17.2-1,17.2-1s-6,25.8-6.6,46.3c12.2,0.1,29.7-0.5,49.5-7.1c0,0-0.6,8.3-0.6,18c0,9.7,0.6,18,0.6,18
		c-19.8-6.6-37.4-7.2-49.6-7.1L326.8,261.3L326.8,261.3z"/>
	<path class="st1" d="M316.2,329.1c-24.8,0-38.2,34.5-38.2,34.5s-7.4-16.3-27.7-16.3c-13.7,0-23.8,12.2-30.2,23.5
		c25,39.7,64.8,64.2,96.1,79.3c31.3-15.1,71.1-39.6,96.1-79.3c-6.4-11.3-16.5-23.5-30.2-23.5c-20.3,0-27.7,16.3-27.7,16.3
		S341.1,329.1,316.2,329.1L316.2,329.1z"/>
</g>
</svg>
