<?xml version="1.0" encoding="utf-8"?>
<!-- Generator: Adobe Illustrator 21.0.0, SVG Export Plug-In . SVG Version: 6.00 Build 0)  -->
<svg version="1.1" id="Layer_1" xmlns="http://www.w3.org/2000/svg" xmlns:xlink="http://www.w3.org/1999/xlink" x="0px" y="0px"
	 viewBox="0 0 640 320" style="enable-background:new 0 0 640 320;" xml:space="preserve">
<style type="text/css">
	.st0{fill:#D3AE3B;}
	.st1{fill:#C40308;}
	.st2{fill:#B96B29;}
	.st3{fill:#D4AF3A;}
	.st4{fill:#1D5E91;}
	.st5{fill:#6D8C3E;}
	.st6{fill:#C52126;}
</style>
<rect class="st0" width="640" height="320"/>
<rect x="16" y="16" class="st1" width="608" height="288"/>
<g>
	<path class="st2" d="M389.6,157.4c1.9-0.5,8.4-2.4,13-6.2c4.6-3.7,5.5-6.7,5.9-8.3c0.4-1.6,0.5-2.9-0.7-2c-1.2,0.9-4.7,3.7-7.2,5.1
		c-2.4,1.3-4.7,2-6,2.4c-1.3,0.4-2.4,0.6-1.1,0.1c1.3-0.5,5.4-2,8.6-5.2c3.2-3.2,5.7-8,5.8-10.9c0.1-2.9-0.2-2.7-1.1-2
		c-0.9,0.7-4.3,4.9-6.2,6.5c-1.9,1.6-4.9,3.7-6.5,4.6c-1.5,0.9-3.7,1.9-0.7-0.2c3-2,8.7-6.9,11-13.1c2.3-6.3,1.9-9.9,1.8-10.6
		c-0.1-0.6-0.6-1.9-1.1-0.7c-0.5,1.2-4.3,8.7-7.4,12c-3,3.3-2.3,2.6-3,3.2c-0.7,0.5-1.8,1.5-0.4-0.4c1.5-1.8,4.5-6.1,6.1-10.3
		c1.6-4.2,2-8.4,2-10.8c0.1-2.4-1-5.8-1.5-6.8c-0.5-1-0.9-1.7-1.1-0.6c-0.2,1.2-2.6,8.6-3.9,12.2c-1.3,3.6-3.9,7.7-4.5,8.5
		c-0.5,0.8-1.9,2.4-0.4-0.3c1.5-2.7,4.3-10.8,4.7-18.4c0.4-7.6-0.7-11.8-1.7-13.9c-1-2.1-2-2.8-2-2.8s0.2,5.2-1.4,12.7
		c-1.6,7.5-3.8,11.4-3.8,11.4s-1,1.1-0.3-0.7c0.4-1.2,1.4-3.9,1.8-8.4c0.4-4.7,0.5-10.1-0.9-14.7c-1.5-5-4.1-7.5-4.1-7.5
		c-0.7,7.1-0.6,16.3-3.2,23.8c-0.5-0.4-1.1-1.2-1.4,0.4c-0.5,2.5-1.4,7.1-4.7,12.9c-3.2,5.9-4.5,6.6-4.5,6.6s-0.6-1.4-1-2.2
		c-0.4-0.8-0.7-1.2-1.2-0.1c-0.5,1.1-2.3,5.2-6.3,9.7c-3.9,4.5-6.1,6.8-6,10.2c0.1,3.4,1.9,5.1,4.3,6.7c2.4,1.6,2.8,2.4,2.4,4.2
		c-0.4,1.9-2.5,2.5-4.4,2.6c-1.9,0.1-4.2-0.1-5,0.4c-0.8,0.5-0.9,1.7-1.7,2.5c-0.8,0.8-1.2,1.3-2,1.4c-0.3,0-0.5,0.1-0.7,0.1
		c-0.2-9,3.3-13,3.3-13l-9.7-11.4c-0.5,0.2-1,0.5-1.5,0.7c-0.1-0.1-0.2-0.3-0.3-0.4c-1.3-1.7-1.7-3.1-1.7-5.2c0.5,0,1.5,0.4,2.3,0.2
		c0.9-0.2,0.2-1.1,0-1.9c-0.3-0.8-0.5-3.8-0.4-4.9c0.2-1.1,0.3-1.5,0.3-1.5s1.4,1.5,2.3,1.5c0.9,0,0.8-0.9,0.9-1.9
		c0.2-1.5,0.9-3.3,2-4.3c0,0,1.5,1.1,3.3,1.1c1.8,0,4.1-0.5,6-2.3c1.9-1.8,1.9-2.3,1.9-2.3s3.5,1.2,6.2,1.4c2.7,0.1,5.6-0.3,6.9-3.1
		c1.4-2.8-0.4-5.4-0.7-5.9c-0.3-0.4-1.2-0.8-1.2,0s0,2.9-1.6,4c-1.6,1.1-2.9,1-4.5,0.5c-1.5-0.5-3.7-1.1-6.2-0.8
		c-2.2,0.3-2.5,0.5-2.6,0.5c0.1-0.1,2.1-2.2,4.1-2.8c2-0.6,3.2,0.2,3.9,1s1.2,2.1,1.8,0.2c0.5-1.9,0.2-4-0.7-5.4
		c-0.9-1.4-2.8-2.3-4.8-2c-2,0.2-2.7,0.5-2.7,0.5s-1-2.9-3.6-3.4c-3.1-0.6-6.6,0.5-9.3,2c0,0-2.1,0.5-4.3-0.1
		c-1.4-0.4-2.8-1.3-3.6-1.8c0.2-0.8,0.7-2.4,0.7-2.4s0.6-0.2,1.3-0.4c0.6-0.2,0.5-0.5,0.6-1c0.1-0.5-1.2-1.5-1.2-1.5
		s-0.2-1.6,1.9-2.7c2.1-1.1,1.9-0.9,1.9-0.9s1.2,0.2,1.8-0.1c0.5-0.4,0.5-0.6,0.5-0.6s0.9-0.3,1.3-0.9c0.3-0.6,0.4-1.4,0.2-2
		c-0.2-0.7-0.6-0.8-0.2-1.1c0.3-0.3,0.7-1.1,0.7-1.6c0-0.5,0-0.7,0-0.7s0.7-0.3,0.7-1.4c0-1.1-0.6-1.5-1-1.6
		c-0.3-0.1-0.6-0.1-0.6-0.1s-0.1-0.7-0.6-1.5c-0.6-0.9-0.9-1.3-0.9-1.3s0.4-0.3,0.2-1s-0.7-1.2-1.2-1.3c-0.5-0.2-1,0-1,0
		s-1.7-1-2.5-1.4c-0.8-0.4-1-0.5-1-0.5s0-0.7-0.3-1.1s-0.9-0.5-1.3-0.5s-0.7,0.2-0.7,0.2s-2.8-0.7-4-0.9c-1.2-0.2-1.2-0.3-1.2-0.3
		s-2.5-1.2-3.5-1.4c-1-0.2-1.3-0.3-1.3-0.3s1-1.2,1.1-2.7c0.1-1.4-0.9-2.8-1.9-3.4c-0.6-0.3-0.9-0.4-1.1-0.5l0-1l1.9,0.2l0.2-3
		l-1.8,0.2l0.3-1.8l-3.9,0l0.3,1.8l-1.9-0.1l0.2,3l2-0.3l-0.2,1.1c0,0-0.7,0.1-1.3,0.6c-1,0.6-1.9,1.8-1.8,3.2
		c0.1,1.4,0.9,2.7,0.9,2.7s-0.3,0.1-1.2,0.3c-1,0.2-3.5,1.4-3.5,1.4s-0.1,0.1-1.2,0.3c-1.2,0.2-4,0.9-4,0.9s-0.4-0.2-0.7-0.2
		c-0.3,0-1,0.2-1.3,0.5c-0.3,0.4-0.3,1.1-0.3,1.1s-0.2,0.1-1,0.5c-0.8,0.4-2.5,1.4-2.5,1.4s-0.5-0.2-1,0c-0.5,0.2-1,0.6-1.2,1.3
		s0.2,1,0.2,1s-0.4,0.4-0.9,1.3c-0.6,0.9-0.6,1.5-0.6,1.5s-0.2,0-0.6,0.1c-0.3,0.1-0.9,0.5-1,1.6c0,1.1,0.7,1.4,0.7,1.4s0,0.1,0,0.7
		c0,0.5,0.3,1.3,0.7,1.6c0.3,0.3,0,0.4-0.2,1.1c-0.3,0.7-0.2,1.5,0.2,2c0.3,0.6,1.3,0.9,1.3,0.9s0,0.2,0.5,0.6
		c0.5,0.4,1.8,0.1,1.8,0.1s-0.2-0.2,1.9,0.9s1.9,2.7,1.9,2.7s-1.3,0.9-1.2,1.5c0.1,0.5-0.1,0.8,0.6,1c0.6,0.2,1.3,0.4,1.3,0.4
		s0.5,1.5,0.7,2.4c-0.8,0.5-2.2,1.4-3.6,1.8c-2.2,0.6-4.3,0.1-4.3,0.1c-2.7-1.5-6.1-2.7-9.3-2c-2.6,0.5-3.6,3.4-3.6,3.4
		s-0.7-0.3-2.7-0.5c-2-0.2-3.9,0.7-4.8,2c-0.9,1.4-1.2,3.5-0.7,5.4c0.5,1.9,1.1,0.6,1.8-0.2c0.7-0.8,1.9-1.6,3.9-1
		c2,0.6,4,2.7,4.1,2.8c0,0-0.3-0.2-2.6-0.5c-2.5-0.4-4.6,0.3-6.2,0.8s-2.8,0.5-4.5-0.5c-1.6-1.1-1.6-3.2-1.6-4s-0.9-0.4-1.2,0
		s-2.1,3.1-0.7,5.9s4.2,3.3,6.9,3.1c2.7-0.1,6.2-1.4,6.2-1.4s0,0.4,1.9,2.3c1.9,1.8,4.3,2.3,6,2.3s3.3-1.1,3.3-1.1
		c1.1,1,1.8,2.9,2,4.3c0.1,1,0,1.9,0.9,1.9c0.9,0,2.3-1.5,2.3-1.5s0.1,0.4,0.3,1.5s-0.1,4-0.4,4.9c-0.3,0.8-0.9,1.7,0,1.9
		c0.9,0.2,1.9-0.2,2.3-0.2c0,2.1-0.4,3.5-1.7,5.2c-0.1,0.1-0.2,0.3-0.3,0.4c-0.5-0.2-1-0.4-1.4-0.7l-9.7,11.4c0,0,3.5,4,3.3,13.1
		v-0.1c-0.2,0-0.4,0-0.7-0.1c-0.8-0.1-1.1-0.6-2-1.4c-0.8-0.8-0.9-2-1.7-2.5s-3.2-0.3-5-0.4c-1.9-0.1-4-0.7-4.4-2.6
		c-0.4-1.9,0.1-2.7,2.4-4.2c2.4-1.6,4.2-3.3,4.3-6.7c0.1-3.4-2.1-5.6-6-10.2c-3.9-4.5-5.7-8.7-6.3-9.7s-0.8-0.7-1.2,0.1
		c-0.4,0.8-1,2.2-1,2.2s-1.3-0.8-4.5-6.6c-3.2-5.9-4.2-10.5-4.7-12.9c-0.3-1.6-0.9-0.8-1.4-0.4c-2.6-7.5-2.5-16.7-3.2-23.8
		c0,0-2.6,2.5-4.1,7.5c-1.4,4.6-1.3,9.9-0.9,14.7c0.4,4.5,1.3,7.2,1.8,8.4c0.7,1.8-0.3,0.7-0.3,0.7s-2.3-3.9-3.8-11.4
		c-1.6-7.5-1.4-12.7-1.4-12.7s-0.9,0.7-2,2.8c-1.1,2.1-2.1,6.3-1.7,13.9c0.4,7.6,3.2,15.7,4.7,18.4c1.5,2.7,0.1,1.1-0.4,0.3
		c-0.5-0.8-3.2-4.9-4.5-8.5c-1.3-3.6-3.7-11.1-3.9-12.2c-0.2-1.2-0.6-0.4-1.1,0.6c-0.5,1-1.5,4.4-1.5,6.8c0.1,2.4,0.5,6.6,2,10.8
		c1.6,4.2,4.6,8.5,6.1,10.3c1.5,1.8,0.3,0.9-0.4,0.4s0.1,0.1-3-3.2s-6.8-10.8-7.4-12c-0.5-1.2-1.1,0.1-1.1,0.7
		c-0.1,0.6-0.5,4.3,1.8,10.6c2.3,6.3,8,11.1,11,13.1c3,2,0.8,1.1-0.7,0.2c-1.5-0.9-4.6-3-6.5-4.6c-1.9-1.6-5.3-5.7-6.2-6.5
		c-0.9-0.7-1.2-0.9-1.1,2s2.6,7.7,5.8,10.9c3.2,3.2,7.3,4.7,8.6,5.2c1.3,0.5,0.2,0.3-1.1-0.1c-1.3-0.4-3.6-1-6-2.4
		c-2.4-1.3-6-4.1-7.2-5.1c-1.2-0.9-1,0.3-0.7,2c0.4,1.6,1.3,4.6,5.9,8.3c4.6,3.7,11.1,5.6,13,6.2c1.9,0.5,0.6,0.5,0.6,0.5
		s-0.7-0.1-4.5-1c-3.8-0.8-9.6-3.9-11.1-4.8c-1.6-1-1.8-1.3-1.6,0.7c0.2,2.1,2.4,6.5,5.9,8.5s9.8,3.1,11.5,3.2
		c1.6,0.1,1.2,0.3,0.5,0.4c-0.7,0.1-2.6,0.1-5.5-0.3c-2.4-0.3-6.1-1.5-7.3-1.9c-0.1-0.5-0.3-1-0.3-1.4c-0.1-0.8-0.6-0.7-0.8-0.5
		c-0.3,0.2-0.4,0.3-1.3,0.8c-0.9,0.4-0.9-0.1-0.9-0.3c0-0.3-0.2-1.4-0.2-2c0-0.6-0.3-0.6-0.8-0.4c-0.4,0.2-2.4,1-3.1,1.3
		c-0.7,0.3-0.1,0.9,0.3,1.6c0.4,0.7,1,1.7,1,1.7s-1.8,0.5-2.4,0.6c-0.6,0.1-0.4,0.6-0.3,1c0.1,0.4,1,2.4,1.3,3s0.8,0.2,0.8,0.2
		l1.8-1.1l0.6,2.4c0,0-0.8,0.2-1.8,0.8c-0.9,0.6-0.7,1.5,0.4,1.8c1.1,0.3,2.4,0.9,3.8,3.5c1.4,2.6,1.8,7.3,2.7,14.6
		c0.9,7.4,5.6,11.1,6.2,11.6s0.3,0.8,0.3,0.8s-0.6,0.9-0.4,2.4c0.3,1.4,1.5,2.3,2.2,2.5c0.6,0.2,0.5,0.9,0.5,0.9s-0.3,1.6,0,4.4
		c0.3,2.9,2.7,6.1,3.3,6.7c0.6,0.6,0.7,0.8,0.6,1.1c-0.1,0.2-0.5,0-1.3,0.6c-0.8,0.6-1.7,1.4-2.2,2.5c-0.6,1-0.4,1.6-0.2,3
		c0.2,1.4,2.2,2.6,2.2,2.6s-0.4,0.1-0.5,1.1c-0.1,1,0.6,2.2,1.6,2.9c0.9,0.7,2.7,1.1,2.7,1.1s0.1,0.9,0.2,1.5c0.1,0.6,1.2,1.2,2,1.6
		c0.7,0.4,2.2,0.2,2.8-0.1c0.6-0.3,1,0,1.4,0.6c0.4,0.6,0.2,2.9,0.2,3.8c0,0.9-0.6,1.9-0.2,2.4c0.3,0.5,1.2,0.1,2.1-0.4
		c0.9-0.5,1.1-0.1,1.9,0.4c0.8,0.5,2,1,2.4,0.9c0.3,0,0.2-0.9,0.2-1.6s0.1-2.3,0.4-2.5c0.2-0.1,1.5-0.2,2.6-0.7
		c0.5-0.2,1.1-0.4,1.2-0.9c0-0.5-0.6-0.5-2.2-1.3c-1.5-0.8-1.8-1.3-2.8-1.9c-1-0.6-0.5-0.9-0.5-1.2c0-0.3,0.5-0.6,0.6-1
		s0.1-1.2,0.1-1.2s0.8-0.8,1.2-1.2c0.4-0.4,0.8-1.1,1.3-1.5s1.3-2.4,1.8-3.1c0.5-0.6,1.7-1.3,2.4-2.2c0.7-0.9,2.5-2.3,3.6-3
		c1.1-0.7,3.9-2,3.9-2s0,1.7,0.7,2.5c0.7,0.8,1.7-0.6,5-3c3.3-2.3,5.8-3.2,5.8-3.2s0.7,1.1,1.6,2.2c0.9,1.1,1.7,0,5.7-5.6
		c3.2-4.4,7.3-8.4,9-9.9c0.3,0.1,0.6,0.3,0.9,0.4c-0.1,0.2-0.2,0.5-0.2,0.7c-0.4,1.2-1,1.9-1.8,3.5c-0.8,1.6-2,2-3.4,4.1
		c-1.4,2.2-1.6,3.6-1.7,5.8c-0.1,2.2,1.1,2.7,1.1,2.7s-2,2-2.6,3.5c-0.6,1.5-0.9,4.5-0.9,4.5s-0.3,0.1-1.1,1.7
		c-0.7,1.5-2.1,1.7-4,3.7c-1.9,1.9-4.1,2.8-5.1,3.4c-1,0.6-0.7,1.2-0.5,2c0.3,0.8,1.7,1.6,3.3,2.2c1.6,0.6,2.2,0.4,3.3,0.3
		c1.1,0,0.2,0.8-0.2,1.3c-0.5,0.5-1.1,2.1-1,3.9c0.1,1.8,1.4,1.4,3.1,1.1c1.7-0.3,3.6-1.1,3.6-1.1s0,0-0.2,0.5
		c-0.2,0.5-0.3,0.9-0.3,2.3c0,1.4,0.2,2.1,0.6,2.5c0.4,0.4,1.2-0.4,1.8-0.6c0.6-0.2,1.6-0.8,3.1-1.1c1.5-0.3,2-1,2-1
		s-0.4,0.5-0.5,1.5c-0.1,1,0,2.5,0.2,3.4c0.2,0.9,0.9,1.9,1.9,2.9c1,0.9,1.2,0.5,2-0.6c0.7-1.2,2.3-2.6,2.3-2.6s0.1,0.4,1.1,3.6
		c1,3.3,4.3,6,4.3,6s3.3-2.7,4.3-6c1-3.3,1.1-3.6,1.1-3.6s1.5,1.5,2.3,2.6c0.7,1.1,1,1.6,2,0.6c1-0.9,1.7-2,1.9-2.9
		c0.2-0.9,0.3-2.4,0.2-3.4c-0.1-1-0.5-1.5-0.5-1.5s0.6,0.6,2,1c1.5,0.3,2.5,0.9,3.1,1.1c0.6,0.2,1.4,1,1.8,0.6
		c0.4-0.4,0.6-1.1,0.6-2.5c0-1.4-0.1-1.8-0.3-2.3c-0.2-0.5-0.2-0.5-0.2-0.5s1.9,0.8,3.6,1.1s3,0.7,3.1-1.1c0.1-1.8-0.5-3.4-1-3.9
		c-0.5-0.5-1.3-1.3-0.2-1.3c1.1,0,1.7,0.3,3.3-0.3c1.6-0.6,3-1.4,3.3-2.2c0.3-0.8,0.6-1.4-0.5-2c-1-0.6-3.2-1.4-5.1-3.4
		c-1.9-1.9-3.3-2.2-4-3.7c-0.7-1.5-1.1-1.7-1.1-1.7s-0.3-3-0.9-4.5c-0.6-1.5-2.6-3.5-2.6-3.5s1.2-0.5,1.1-2.7
		c-0.1-2.2-0.3-3.7-1.7-5.8c-1.4-2.2-2.6-2.5-3.4-4.1c-0.8-1.6-1.4-2.3-1.7-3.5c-0.1-0.2-0.2-0.5-0.2-0.7c0.4-0.2,0.8-0.4,1.2-0.5
		c1.6,1.5,5.8,5.5,9,9.9c4,5.6,4.8,6.7,5.7,5.6c0.9-1.1,1.6-2.2,1.6-2.2s2.5,0.8,5.8,3.1c3.3,2.3,4.3,3.8,5,3
		c0.4-0.4,0.5-1.2,0.5-1.7c0,0,1.9,0.6,4,1.3c1.3,0.5,2.7,1,3.8,1.5c2.8,1.2,3.1,1.8,5.4,3.6s5.5,1.6,8.5,0.7c3-0.9,11.2-3.6,14.4-5
		c3.3-1.4,5.6-2.6,5.9-3.3c0.3-0.7,0.7-2.5,0.7-3.1c0-0.7-0.7-1.6-1-1.8c-0.2-0.2-0.1-0.7-0.1-1.1c0.1-0.4-0.1-1.6-0.6-2.2
		c-0.5-0.6-0.4-0.8-0.4-2.3c0.1-3.4-2.2-7.6-5.6-8.9c0,0-0.1-0.4-0.4-0.6c-0.3-0.2-0.7-0.4-0.7-0.4s0.1-1.9,0-2.3
		c0-0.4,0.2-0.4,0.4-0.3c0.2,0.1,0.6,0.6,1.1,0.7c0.5,0.1,0.9-0.3,1-0.9c0.1-0.6,0.6-1.9,0.8-2.5c0.2-0.6,0-0.7-0.3-0.8
		c-0.3-0.1-1.1-0.2-1.5-0.3c-0.4-0.1-0.4-0.1-0.3-0.3c0.1-0.2,0.2-0.5,0.7-1.3c0.5-0.8,0-0.8-0.4-1c-0.5-0.2-2.7-0.8-3.2-0.9
		c-0.6-0.1-0.7,0.4-0.7,0.7c0,0.3,0,1.4,0,1.8s-0.4,0.3-0.6,0.2c-0.2-0.1-0.8-0.4-1.2-0.8c-0.4-0.3-0.7,0-0.9,0.4
		c-0.2,0.5-0.7,2.3-0.8,2.9c-0.2,0.6-0.1,1,0.1,1.1c0.2,0.1,1.3,0,1.9,0c0.6,0,0.3,0.4,0.3,0.4s-0.7,1.1-0.9,1.6
		c-0.2,0.4-0.6,0.5-1.1,0.5s-1.4,0-1.4,0s-3.5,0.1-6.1,2.1c-2.6,1.9-3.3,3.5-3.7,4.4c-0.4,0.9-0.9,0.7-1.3,1.1
		c-0.4,0.3-1.5,1.5-1.5,2.3c0,0.7,0.3,1.1-0.9,1.9c-1.1,0.7-2.1,3.9-0.5,5.6c1.5,1.7,2.1,3.3,2.6,4.1c0.5,0.8,0,1.1-0.4,1.1
		c-0.4,0-1.2-0.7-1.9-1.2c-0.7-0.5-4.2-3.3-5.7-4.4c-1.5-1.1-0.4-1-0.4-1s0.4,0,1.3-0.3c0.9-0.4,1-0.8,0.1-1.1
		c-0.9-0.3-2.6-1.3-3-1.7c-0.5-0.5-0.7-1,0.2-1.4c0.9-0.5,2.8-1.7,1.3-2.1c-1.5-0.4-3.3-0.7-4.8-1.2c-1.5-0.4-1.6-0.8-1.6-0.8l1-1.4
		c0,0,0.8-1.1-0.1-1.3s-3.1-0.4-5.2-1.3c-4.1-1.8-6.6-4.7-7.5-8.4l0.1-0.1c0.8,1.5,2.5,4.3,5.2,4.4c3.6,0.1,4.1-1,3.2-2.2
		s-1.8-2.3-2-2.6c-0.2-0.4-0.3-0.8,0.7,0.1s2.8,3.9,8.3,3.6c5.5-0.4,5.5-1.4,5.5-1.7c0-1.1-1.1-1.2-1.8-1.9
		c-0.3-0.3-0.6-0.8,0.6-0.4s3.8,0.9,7.5,0.1c1.5-0.3,5.3-2,5.7-4c0,0-2.5-0.1-4.2-0.9c-1.7-0.7-2.7-1.3-0.9-1
		c1.8,0.4,5.4,1.1,8.5,0.1c1.8-0.6,4.2-2.1,4.2-4.8c0,0-3.4-0.7-4.6-1.2c-1.2-0.4-1.6-0.8-1.6-0.8s4.8,1.5,9.2-0.7
		c4.4-2.2,4.6-5.3,4.6-6s-0.1-0.9-0.1-0.9s-4,1-7,1c-3,0-3.9-0.3-3.9-0.3s8.3-0.2,12.5-2.8c4.2-2.6,4.4-7.6,4.4-7.6s-4.8,1.7-7.7,2
		c-3,0.3-4.8,0.3-5.5,0.3c-0.7-0.1-1.2-0.3,0.5-0.4c1.6-0.1,8-1.1,11.5-3.2c3.5-2.1,5.7-6.5,5.9-8.5c0.2-2.1,0-1.7-1.6-0.7
		c-1.6,1-7.3,4-11.1,4.8c-3.8,0.8-4.5,1-4.5,1s-1.5-0.1,0.4-0.6L389.6,157.4z M239.5,167c-0.4,0.2-1.7,1-1.7,1s-0.7-1.4-0.8-1.8
		c-0.2-0.4-0.1-0.6,0.1-0.6c0.2,0,0.9-0.2,1.5-0.3c0.1,0,0.2,0,0.2,0C239,165.8,239.3,166.4,239.5,167
		C239.6,167,239.6,167,239.5,167L239.5,167z M290.7,196.9c-1,1.9-3.8,3.9-5.8,4.8s-4.3,1.2-5.2,1.3c-0.9,0.1-0.1,1.3-0.1,1.3l1,1.4
		c0,0-0.1,0.4-1.6,0.8c-1.5,0.4-3.3,0.7-4.8,1.2c-1.5,0.4,0.4,1.7,1.3,2.1c0.9,0.5,0.6,1,0.2,1.4c-0.5,0.5-2.2,1.4-3,1.7
		s-0.7,0.7,0.1,1.1c0.9,0.4,3.3,0.8,3.3,0.8s0,0.1-1.5,1.2c-1.5,1.1-4.1,1.9-5.8,1.9c-1.7,0.1-4.4,0.2-7.8,0
		c-3.4-0.2-3.8-0.2-3.8-0.2s-0.1-1.1-0.4-2.8c-0.2-1.7-1.3-4.1-2-5.2c-0.8-1.1-2.4-3.3-2.4-3.3s0-0.5,0.2-1s0-1.1-0.4-2.2
		c-0.4-1-2.4-2.6-2.4-2.6s-0.1-1.1-0.1-2.2c0-1-0.7-5.1-1.4-7c-0.6-1.9-3.8-7-5.2-9.4c-1.4-2.4-2.3-6-2.7-8.7
		c-0.4-2.8-0.3-3.7-0.1-4.4c0.1-0.3,0.2-0.6,0.3-0.9c0.6,0.8,1.4,1.5,2.3,2.1c4.2,2.6,12.5,2.8,12.5,2.8s-0.9,0.3-3.9,0.3s-7-1-7-1
		s-0.1,0.2-0.1,0.9s0.2,3.8,4.6,6c4.4,2.2,9.2,0.7,9.2,0.7s-0.4,0.3-1.6,0.8c-1.2,0.4-4.6,1.2-4.6,1.2c0,2.7,2.4,4.2,4.2,4.8
		c3.1,1.1,6.6,0.3,8.5-0.1c1.8-0.4,0.8,0.2-0.9,1c-1.7,0.7-4.2,0.9-4.2,0.9c0.4,2,4.2,3.7,5.7,4c3.7,0.8,6.4,0.3,7.5-0.1
		s0.9,0.1,0.6,0.4c-0.7,0.7-1.8,0.8-1.8,1.9c0,0.3,0,1.4,5.5,1.7s7.3-2.7,8.3-3.6c1-0.9,0.9-0.4,0.7-0.1c-0.2,0.4-1.2,1.4-2,2.6
		c-0.8,1.2-0.4,2.3,3.2,2.2c2.7-0.1,4.5-2.9,5.2-4.4l0,0.1c0,0.1,0.1,0.1,0.1,0.2C292,194.3,291.4,195.7,290.7,196.9L290.7,196.9z
		 M335,78.2c-0.5-0.9-0.8-1.4-0.8-1.4s2.1,1,3.3,2.4c1.2,1.4,1.2,2.1,1.4,2.8c0.2,0.7,0,1.9-0.2,3.1c-0.2,1.2-0.2,1.9,0.1,2.3
		c0.2,0.4,0.4,0.6,0.4,0.6s-0.9,0.2-1.8,0.6c-0.9,0.3-2,0.7-2.6,0.1c-0.6-0.5-0.8-0.9-0.4-1.2c0.4-0.3,1.9-0.8,2-3.3
		C336.7,81.7,335.5,79.1,335,78.2L335,78.2z M323.7,85c0.5-1.2,0.7-2.3,0.3-4.8c-0.3-2.1-0.7-3.8-0.8-6c0,0,1.5,0.3,3.7,2.3
		c2.2,2,2.7,4.1,2.7,5.1c0,1-0.5,2.2-0.6,3.2c-0.1,1,0.3,1.8,0.3,1.8s-0.8,0.3-1.5,0.8c-0.7,0.5-1.2,0.8-2.3,0.8
		c-1.1-0.1-1.8-0.6-2.4-0.9S322,87,322,87S323.2,86.2,323.7,85L323.7,85z M313,76.5c2.2-2,3.7-2.3,3.7-2.3c-0.1,2.2-0.5,4-0.8,6
		c-0.4,2.5-0.2,3.6,0.3,4.8c0.5,1.2,1.8,1.9,1.8,1.9s-0.4,0.1-1.1,0.4c-0.6,0.3-1.3,0.8-2.4,0.9c-1.1,0.1-1.6-0.3-2.3-0.8
		c-0.7-0.5-1.5-0.8-1.5-0.8s0.4-0.9,0.3-1.8c-0.1-1-0.6-2.2-0.6-3.2C310.3,80.6,310.8,78.6,313,76.5L313,76.5z M305.1,88.7
		c-0.6,0.5-1.8,0.2-2.6-0.1c-0.9-0.3-1.8-0.6-1.8-0.6s0.2-0.2,0.4-0.6c0.2-0.4,0.2-1.1,0.1-2.3c-0.2-1.2-0.4-2.4-0.2-3.1
		c0.2-0.7,0.2-1.4,1.4-2.8c1.2-1.4,3.3-2.4,3.3-2.4s-0.3,0.4-0.8,1.4c-0.5,0.9-1.7,3.5-1.5,6c0.2,2.5,1.6,2.9,2,3.3
		C305.9,87.9,305.7,88.2,305.1,88.7L305.1,88.7z M334.3,109.8c-2.2,1.2-3.4,0.9-3.3,1.8c0.1,0.9,2,1.5,2,1.5s-2,2.1-3.5,3.1
		c-1.5,1-3.4,1.6-3.4,1.6s-0.6,0.1-0.3,1.1c0.4,1,1,1.6,1.5,1.9c0.5,0.3,0.8,0.4,0.8,0.4s-2.7,2.9-3.9,3.8s-1.9,1.2-2.8,1.6
		c-1,0.4-0.5,2-0.3,2.7c0.2,0.7,1.1,1.7,1.5,1.8c0.5,0.1,0.7,0.5,0,1.5c-0.5,0.7-2,2.7-2.7,3.7l0,0c-0.7-1.1-2.3-3-2.8-3.7
		c-0.6-1-0.4-1.3,0-1.5s1.3-1.1,1.5-1.8c0.2-0.7,0.7-2.3-0.3-2.7c-1-0.4-1.6-0.7-2.8-1.6c-1.2-0.9-3.9-3.8-3.9-3.8s0.3-0.1,0.8-0.4
		c0.5-0.3,1.1-0.9,1.5-1.9c0.4-1-0.3-1.1-0.3-1.1s-1.8-0.6-3.4-1.6c-1.5-1-3.5-3.1-3.5-3.1s1.9-0.7,2-1.5c0.1-0.9-1.1-0.6-3.3-1.8
		s-2.9-2.7-2.9-2.7s2.5-0.8,3.7-3.4c0.4-0.9,0.5-1.7,0.5-2.4l0.1,0c4,1.3,8.7,1.8,12.9,1.8c4.2,0,8.9-0.5,12.9-1.8l0.1,0
		c0,0.7,0.1,1.5,0.5,2.4c1.2,2.5,3.8,3.4,3.8,3.4S336.5,108.6,334.3,109.8L334.3,109.8z"/>
	<g>
		<path class="st3" d="M347.5,158.5c0-6.8,3.1-11.1,3.1-11.1l-8.5-9.7c-8.1,3.1-15.5,3.3-22.1,0c-6.6,3.4-14,3.2-22.1,0l-8.5,9.7
			c0,0,3.1,4.3,3.1,11.1c0,6.8-1.3,11.8-2.1,15.1c-0.8,3.3-1.4,9.4,0.3,13.8c1.8,4.4,3.6,8.2,11.2,11.4s11.5,4.8,14.1,7
			c2.6,2.2,3.9,3.9,3.9,3.9s1.3-1.8,3.9-3.9c2.6-2.2,6.6-3.8,14.1-7c7.5-3.2,9.4-7,11.2-11.4c1.8-4.4,1.1-10.5,0.3-13.8
			C348.8,170.3,347.5,165.3,347.5,158.5L347.5,158.5z"/>
		<path class="st2" d="M344.8,161.3c-1.1-6.5,2.7-12.2,2.7-12.2l-7.3-8.5c-5.6,3.1-13.4,2.7-20.2-0.4c-6.8,3.1-14.6,3.5-20.2,0.4
			l-7.3,8.5c0,0,3.7,5.7,2.7,12.2c-1.1,6.5-3.4,16.7-2.8,20.9c0.6,4.2,3.5,9,6.6,11.6s7.5,4.7,10.7,5.8c3.2,1.1,6.3,3.4,7.8,4.5
			c1.5,1.1,2.5,2.1,2.5,2.1s1-1,2.5-2.1s4.6-3.4,7.8-4.5c3.2-1.1,7.7-3.3,10.7-5.8c3-2.5,6-7.4,6.6-11.6
			C348.2,178,345.9,167.8,344.8,161.3L344.8,161.3z"/>
		<path class="st4" d="M344.1,162.1c-1.1-7,2.1-12.6,2.1-12.6l-6.6-7.3c-5.5,2.8-12.3,2.1-19.6-0.4c-7.3,2.5-14.1,3.3-19.6,0.4
			l-6.6,7.3c0,0,3.2,5.6,2.1,12.6s-2.7,14.9-2.4,19.6c0,0.3,0.1,0.6,0.1,1h6c0,0,0.3-0.4,1-0.7c0.7-0.3,0.9-0.5,0.9-0.5
			s0.1-1.2,0.9-1.5c0.7-0.3,1-0.3,1.3-0.3s0.5-0.1,0.9-0.4c0.3-0.3,1.3-1.2,1.7-2.4s0.7-1.7,0.7-2.5c0-0.8,0.3-2.1,0.3-2.1
			s-0.2-0.4-0.8-0.2c-0.6,0.2-0.7-0.4-0.8-1c-0.1-0.6,0-1.8,0.3-2.4s0.5-0.8,0.5-0.8l-0.3-1c0,0-3.8,0.8-4.5-2.2
			c-0.7-3-0.8-4.4-0.9-4.7c-0.1-0.3-0.2-0.5-0.7-0.4c-0.5,0-1.6-0.3-2.3-1.8c-0.8-1.5-0.8-2.2-0.6-2.8c0.2-0.6,0.6-0.4,0.8-0.2
			c0.1,0.2,1.1,1.7,1.6,1.2c0.4-0.4,0.2-0.4-0.4-1.6s-0.4-1.5-0.3-2.1c0.1-0.6-0.2-1.3-0.2-1.7c0-0.3,0.3-0.6,0.7-0.4
			c0.3,0.2,0.7,0.4,0.8,0.6c0.2,0.2,0.2,0.5,0.5,0.3s0.1-1.2,0.1-1.6c0-0.4,0.4-0.6,0.9-0.3c0.5,0.3,0.8,0.8,0.8,1.2
			c0,0.4,0,0.7,0.2,0.7s0.4-0.6,0.4-1c0-0.4,0.3-1,0.6-0.5c0.3,0.5,0.5,1.2,0.3,1.9c-0.1,0.7,0.1,0.4-0.1,1.6
			c-0.3,1.3-0.4,1.8-0.3,2.8c0,1,0.1,1.5,0.5,2.7c0.5,1.2,0.9,2.5,1.7,2.6c0.9,0,1.1,0,1.1,0s1-1.9,1.7-2.4c0.8-0.4,1.8-0.5,2.6-0.6
			c0.8-0.1,1.1-0.3,1.1-0.5s-0.3-0.3-1.2-0.4c-0.9-0.1-1.7-0.4-1.7-1c0-0.7,0.2-1.3-0.4-1.3c-0.6,0-2.1-0.5-2.6-1.5
			c-0.5-1-0.4-1.2-0.3-1.7c0.1-0.5,0.8-1.6,1.2-0.6s0.7,1.1,1.1,1.4c0.4,0.2,0.9,0.3,0.6-0.4c-0.3-0.7-0.4-1.1-0.3-1.6
			c0.1-0.5,0.4-0.7,0.8-0.8c0.4-0.1,1.6-0.5,2.3-0.6c0.6-0.1,0.7-0.2,0.7-0.2s0.1-0.4,0.9-0.7s1.4-0.3,2-0.3c0.6,0,1,0.1,1.8-0.3
			c0.8-0.4,1.4-0.4,1.9-0.4c0.5,0,0.9,0.2,1.3,0.5c0.4,0.3,0.3,0.6,0.3,1c0,0.4,0.1,0.5,0.6,0.5c0.5,0,1,0,1.5,0.2
			c0.5,0.2,1.2,0.5,0.8,1c-0.4,0.5-0.5,1.1-0.8,1.1c-0.3,0-0.3,0.3-0.4,0.5c-0.1,0.2-0.2,0.3,0.1,0.5c0.3,0.2,0.3,0.4,0.8,0.8
			c0.4,0.4,1.1,0.9,0.4,1.5c-0.7,0.7-1.8,1.2-1.8,1.2s-0.7,0.3,0.1,0.8c0.8,0.4,1.1,1.4,1.4,1.5c0.3,0.2,0.6,0.4,0.8,0.5
			c0.2,0.1,0.2,0.7,0.2,0.7s-0.4,0.3-1,0.5c-0.6,0.2-1.2,0.5-1.7,0.5c-0.5,0-0.8,0-0.6,0.5c0.2,0.5,0.6,1,0.7,1.3
			c0.1,0.3,0.2,0.8,0.2,0.8s0.9,0.2,1.7,0.2c0.8,0,1.1,0,2.9-0.2c1.7-0.2,2.2-0.3,3.9-0.1c1.7,0.2,1.9,0.1,2.4,0.3
			c0.4,0.2,0.9,0.4,0.9,0.4s2.4,0,3.7-0.3c1.3-0.3,1.6-1.1,1.4-1.6c-0.2-0.4-0.2-1.1-2.4-1.4c-2.3-0.3-3.2-0.2-5-0.5
			c-1.8-0.3-4.6-1.3-5.1-3.5c-0.5-2.3,1.3-3.2,2.2-3.7c0.9-0.4,2.9-1.1,3.8-1.5c0.9-0.4,2.6-0.8,4.4-0.5c1.8,0.3,2.8,0.7,3.5,0.3
			c0.7-0.4,1.3-0.1,1.1,0.5c-0.1,0.6-0.8,1.9-2.8,2.5c-2,0.6-4.4,0.7-5.7,0.3c-1.3-0.4-2.3-0.9-3.1-0.6c-0.8,0.3-1.7,1.3-0.8,2.4
			c0.9,1.2,5.2,1.5,6.4,1.7c1.2,0.1,5.5-0.2,6.7,2c1.2,2.2,0.3,4.6-1.2,5.1c-1.5,0.5-2.7,0.9-3.8,1s-1.1,0.2-1.1,0.2
			s0.5,1.1,0.5,1.6c0,0.5-0.1,1.4,0.5,1.7c0.5,0.4,1.3,0.6,2.2,0.5c0.9-0.1,2,0.5,2.1,1.4c0.1,0.8,0.3,2,0.4,3.6c0.1,1.7,0,3,0,3
			s-0.1,0.6-0.3,1.2c-0.2,0.6-1.4,2.9-1.4,2.9h6.4c0-0.3,0.1-0.7,0.1-1C346.7,176.9,345.1,169,344.1,162.1L344.1,162.1z"/>
		<path class="st5" d="M294.4,185.7c1.2,3.6,3.8,7.2,7.7,9.5c5.5,3.3,7.8,2.8,12.9,6.2c5.1,3.3,4.8,3.9,4.9,3.9s-0.2-0.6,4.9-3.9
			c5.1-3.3,7.5-2.9,12.9-6.2c3.9-2.4,6.5-6,7.7-9.5H294.4L294.4,185.7z"/>
		<path class="st3" d="M298.9,158.1c0.6,0.6,1,0.8,1.9,0.7c0.9-0.1,1.1,0.6,1.3,1.3c0.2,0.7,0.2,2.4,0.8,3.9
			c0.6,1.5,2.8,1.6,2.8,1.6c0.1-0.7,0.3-1.7,0.6-2.6c0.1-0.1,0.3-0.8-0.4-0.8s-0.7-0.3-1.2-1c-0.5-0.7-1.4-2.7-1.6-4
			c-0.2-1.3,0.2-3.1,0.4-3.8c0.2-0.7,0.2-1.1,0-1.3c-0.2-0.1-0.7,0-0.7,0s0.2,0.6,0,0.7c-0.2,0.1-0.4-0.3-0.6-0.7
			c-0.2-0.4-0.3-0.4-0.6-0.3c-0.3,0-0.3,0.3-0.1,0.6c0.2,0.3,0.1,0.9,0.1,0.9s-0.7-0.5-1-0.6c-0.3-0.1-0.9,0.1-1,0.5
			c-0.1,0.4,0.2,1.3,0.8,1.8c0.6,0.5,0.6,1.5,0.4,2c-0.2,0.5-1,0.4-1.2,0.2c-0.2-0.2-0.6-0.3-0.8,0
			C298.5,157.4,298.3,157.5,298.9,158.1L298.9,158.1z"/>
		<path class="st3" d="M298.5,156.5c0,0-0.3-0.3-0.5-0.4c-0.1-0.2-0.4-0.5-0.4-0.5s-0.1,0.2-0.1,0.5s0.4,0.8,0.4,0.8L298.5,156.5
			L298.5,156.5z"/>
		<path class="st3" d="M299.8,152.2c0.3-0.1,0.5-0.2,0.3-0.5c-0.2-0.3-0.4-0.6-0.6-0.7c-0.2-0.1-0.4,0-0.4,0s0.2,0.6,0.3,0.9
			C299.5,152.2,299.6,152.3,299.8,152.2L299.8,152.2z"/>
		<path class="st3" d="M301.4,150.9c0,0.3,0,0.4,0.3,0.3c0.2-0.1,0.3-0.5,0.2-0.7c-0.1-0.2-0.4-0.4-0.4-0.4l-0.2-0.1
			C301.3,149.9,301.5,150.6,301.4,150.9L301.4,150.9z"/>
		<path class="st3" d="M303.7,151.3c0-0.3-0.1-0.6-0.1-0.6s0,0.4-0.2,0.6c-0.2,0.2-0.1,0.2,0,0.3
			C303.7,151.8,303.7,151.6,303.7,151.3L303.7,151.3z"/>
		<path class="st3" d="M307.4,166.9c0.5,1.1,1.6-0.6,2.6-1.9c1-1.3,1-0.3,0.9,0.8c-0.1,1.1,0.3,2.2,0.7,3c0.4,0.7,0.8,0.3,0.9-0.2
			c0.2-0.5,0.3-1.6,0.7-2.1s0.7-0.1,0.7,0.4s0.6,1.5,1.1,2.1c0.5,0.6,0.8-0.2,0.9-0.9s0.4-1.9,0.5-2.3c0.1-0.5,0.6-0.1,0.6-0.1
			s0.4,0.4,1,1c0.7,0.7,0.8-0.4,0.8-0.9c0.1-0.5-0.1-1.7,0.1-1.9c0.2-0.2,0.8,0.2,1.7,0.7c0.9,0.5,0.9-0.4,0.8-0.9
			c-0.1-0.5-0.6-1.6-1.4-2.2c-0.7-0.6-0.8-1.4-0.6-1.7c0.2-0.3,1.1,0,1.7-0.1c0.6-0.1,0.8-0.1,1.3-0.2c0.4-0.1,0.4-0.5,0.4-0.5
			s-0.3-0.5-0.9-1c-0.6-0.5-0.9-0.9-1.7-1.1c-0.7-0.2-1.7,0-1.7,0s0,0-0.1-0.2c-0.1-0.2-0.3-0.2-0.5,0c-0.1,0.2-0.5,0.5-0.8,0.7
			c-0.3,0.2-0.5,0.4-0.6,0.3c-0.2-0.1,0.1-0.4,0.1-0.4s0.4-0.3,0.7-1c0.3-0.7,0.5-1.4,0.2-1.7c-0.3-0.3-1,0-1.5,0
			c-0.4,0-0.7,0.1-0.7-0.1c0-0.2,0.4-0.1,0.9-0.2c0.5-0.1,0.8-0.7,1-1.2s0.3-0.5,0.6-0.1c0.3,0.3,0.6,0.2,0.7,0
			c0.1-0.2,0.3-0.7,0.7-1.3c0.3-0.5,0.6-1.3,0.2-1.7c-0.4-0.5-1.3-0.4-1.7-0.1c-0.4,0.3-0.6,0.6-0.7,1.4c-0.1,0.8-0.3,0.3-0.3,0.1
			s-0.3-0.6-0.2-0.9c0.1-0.3,0-0.7,0-0.7s-0.1-0.7-0.8-0.8s-1.6,0-2.3,0.2s-0.6,0.8-0.6,0.8s-0.6,0-1.2,0.1
			c-0.6,0.1-1.3,0.3-1.8,0.5c-0.6,0.1-0.8,0.2-0.8,0.5c0,0.3,0.1,0.7,0.1,0.7s0.5,0,0.7,0.1c0.2,0.1,0.1,0.4-0.2,0.5
			c-0.3,0.1-0.4,0.1-0.4,0.5c0,0.4,0.1,0.4,0.4,0.4s0.9,0,1.6,0.3c0.7,0.3,0.9,0.9,0.8,1.3c-0.1,0.4-1,0.8-1.5,0.8s-0.6,0.1-0.6,0.4
			c0,0.3,0.6,0.3,0.6,0.3s0.6,0,1.7,0.2c1.2,0.1,1.3,0.4,1.8,0.8c0.5,0.5,0.1,0.6-0.1,0.7c-0.2,0.1-0.6,0.5-1,0.6
			c-0.4,0.1-0.6,0.4-1,0.5c-0.3,0.1-1.2,0-2.8,0.7c-1.6,0.6-2.2,2.7-2.2,2.7s0.2-0.1,0.9-0.5c0.7-0.4,1.6-0.8,2.5-1.3
			c0.8-0.5,0.8,0.2,0.4,1c-0.4,0.7,0.4,0.6,0.6,0.4c0.2-0.2,0.6-0.4,1.4-0.8c0.8-0.4,0.5,0.2,0.5,0.2s-0.2,0.5-0.3,1.6
			c-0.1,1.2,1.1,0.1,1.7-0.7s0.8,0,0.4,0.8c-0.4,0.8-1.2,1.5-1.7,1.5c-0.5,0-0.8-0.5-0.8-0.8s0.1-1.1-0.1-1.3
			c-0.3-0.2-1.1,0-1.7,0.4c-0.6,0.4-0.7,0.1-0.9-0.2c-0.1-0.3,0.2-0.4,0.1-0.6c-0.1-0.2-0.5,0-0.7,0.1c-0.2,0.1-0.8,0.4-1.9,1
			c-1.1,0.6-1,0.9-1,1.7S306.9,165.9,307.4,166.9L307.4,166.9z"/>
		<path class="st3" d="M317.8,149.4c0.2-0.1,0.6-0.3,0.6-0.3s0.5-0.1,1-0.2c0.5-0.1,0.4-0.3,0.3-0.6c-0.1-0.2-0.3-0.3-0.9-0.3
			c-0.6,0-1,0.3-1.4,0.5c-0.4,0.1-0.8,0.2-0.8,0.2s0.1,0.1,0.3,0.4C317.2,149.6,317.6,149.6,317.8,149.4L317.8,149.4z"/>
		<path class="st3" d="M320.3,151.9c0.2,0,0.5-0.1,0.5-0.1s0.5-0.2,0.9-0.4c0.4-0.1,0.6-0.2,0.8-0.7c0.2-0.5-0.3-0.5-1-0.7
			c-0.7-0.2-1.1,0.1-1.2,0.3c-0.1,0.3-0.1,0.6-0.4,1.1C319.8,152,320.1,151.9,320.3,151.9L320.3,151.9z"/>
		<path class="st3" d="M320.1,152.6c-0.7,0-1.5,1.1-1.8,1.2s-0.1,0.4-0.1,0.4s0.2,0.4,0.3,0.8c0.1,0.4,0.1,1.1,0.1,1.1s0.1,0,0.5,0
			c0.4,0,0.7-0.2,1.1-0.5s0.7-0.4,1.3-0.5c0.6-0.1,0.8-0.2,1.4-0.5c0.6-0.3-0.3-0.9-1-1.4C321.2,152.7,320.8,152.6,320.1,152.6
			L320.1,152.6z"/>
		<path class="st3" d="M310.8,155c0.6-0.1,0.8-0.3,0.8-0.6s-0.3-0.6-1-0.6c-1.7,0.2-3.4-0.5-3.7-2.2c0,0-0.6,1.1,0.5,2.3
			C308.5,155.1,310.3,155.1,310.8,155L310.8,155z"/>
		<path class="st3" d="M304.9,182.3c0.1,0.2,0.2,0.2,0.3,0.3h2.7c0.5-0.1,0.5-0.5,0.5-0.8c0-0.3,0.3-1.3,0.7-3.1
			c0.4-1.8,1-3,1.3-3.7s-0.3-0.9-0.4-1.4c-0.2-0.4-0.5-1.2-0.6-1.6c-0.1-0.4-0.7-0.3-1.1-0.3s-0.4,0.6-0.4,1.1
			c-0.1,0.5-0.3,2.1-0.6,3.4c-0.3,1.3-1.8,3.1-2.2,3.5c-0.4,0.4-0.8,0.6-1.1,0.6s-0.9,0-1.2,0.2c-0.3,0.2-0.6,0.7-0.7,1.1
			c0,0.4,0.6,0.6,0.6,0.6s0.5-0.3,0.7-0.5c0.2-0.2,0.6-0.3,1-0.4c0.4-0.1,0.5,0.1,0.3,0.3C304.5,181.7,304.6,181.7,304.9,182.3
			L304.9,182.3z"/>
		<path class="st3" d="M300.8,182.2c-0.2,0.1-0.3,0.3-0.4,0.4h1.7c0-0.1-0.1-0.3-0.2-0.4C301.7,181.9,301.2,182,300.8,182.2z"/>
		<path class="st3" d="M303.2,182.1c-0.2,0.1-0.5,0.3-0.6,0.5h1.9c0.1-0.2,0.1-0.4-0.1-0.6C303.9,181.7,303.5,182,303.2,182.1
			L303.2,182.1z"/>
		<path class="st3" d="M319.4,181.4c-0.2,0-0.4,0.2-0.7,0.4c-0.3,0.2-0.4,0.5-0.4,0.8c0,0,0,0.1,0,0.1h0.8c0,0,0.1-0.1,0.1-0.1
			c0-0.2,0.1-0.4,0.4-0.7C319.9,181.5,319.6,181.4,319.4,181.4L319.4,181.4z"/>
		<path class="st3" d="M321,182.2c0-0.2-0.1-0.5-0.3-0.5s-0.5,0.3-0.7,0.5c-0.1,0.1-0.2,0.2-0.3,0.3h1.2
			C320.9,182.5,321,182.3,321,182.2L321,182.2z"/>
		<path class="st3" d="M328.2,173.6c0.6-0.4,0.5-0.5,0.5-1c0-0.4,0-0.6-0.2-0.7c-0.2-0.2-1.1-0.5-1.9-0.5s-2.3,0.2-2.8,0.6
			c-0.6,0.4-0.8,1.8-0.8,2.5s0.1,0.8,0.3,0.8s0.5-0.5,0.5-0.5s0.7,1,1.2,1.7c0.5,0.7,0.2,0.9,0,1.5c-0.2,0.5-0.9,1.9-1.5,2.2
			c-0.6,0.3-1,0-1.7-0.1c-0.7-0.1-1.1,0.1-1.5,0.5s0,0.7,0.2,0.7c0.2,0,0.6,0,0.9,0.3c0.2,0.2,0.1,0.8,0,1.1h3.5
			c0.6-0.3,1-1.1,1.2-1.5c0.2-0.5,0.9-1.2,1.3-1.5c0.4-0.3,0.4-0.6,0.4-1.3s-0.2-1.2-0.5-1.7c-0.3-0.5-0.5-1.3-0.4-1.7
			C326.8,174.4,327.6,174,328.2,173.6L328.2,173.6z"/>
		<path class="st3" d="M322.5,164.9c0.3,0.6,0.2,0.7-0.3,0.8c-0.5,0.1-1,0.2-1.8,0.1c-0.8-0.1-0.8,0-0.8,0.4c0,0.4-0.1,1.2-0.5,1.8
			c-0.5,0.6-1,0.4-1.4,0.1s-0.5-0.2-0.7,0.3s-0.4,0.7-0.7,1.4c-0.4,0.6-0.6,0.7-0.9,0.6s-0.5-0.5-0.8-0.5s-0.7-0.5-1.1-1.2
			c-0.4-0.6-0.6,0.1-0.8,0.6c-0.3,0.5-0.5,0.9-1,0.9c-0.5-0.1-1.1-1-1.3-1.6c-0.3-0.6-0.5-1.1-0.9-1.1c-0.4,0-1.1,0.9-1.6,1.2
			c-0.5,0.2-0.6,0.2-0.8-0.1c-0.2-0.3-0.5,0.1-0.8,0.8c-0.3,0.7,0,1.3,0.4,1.5c0.4,0.2,1.2-0.4,1.7-0.7c0.5-0.3,0.8-0.3,1.3-0.3
			c0.5,0,0.5,0.9,0.7,2.2c0.2,1.3,1,1.5,1,1.5s0.3,0.2,0.8-0.8c0.6-1,0.6-2,1.2-2c0.6,0,0.6,0.1,1.2,0.9c0.6,0.8,1,1.4,1.4,0.8
			c0.3-0.6,0.6-1.4,1-1.7c0.4-0.3,0.7-0.4,0.3,0.2c-0.4,0.6-0.6,1.2,0.2,0.9s3.8-1.5,5.1-1.7c0,0,1.4-0.2,3.1-0.3
			c1.7-0.1,2.1-0.2,2.7-0.2c0.6,0,0.7-0.1,0.7-0.5c0-0.4-0.3-0.3-1.5-0.3c-1.2,0-2,0.2-2.9,0.3c-0.8,0.1-1.2,0.1-1.1-0.1
			c0.2-0.2,0.4-0.4,1.4-0.5c1-0.2,3-0.3,4-0.3c1,0,0.7,0.3,0.6,1c-0.1,0.7,0.1,1.7,0.2,2.4c0.1,0.6,0.1,0.8,0.6,1.7s2.5,1.5,3.1,1.8
			c0.6,0.3,0.5,0,0.5-0.5c0-0.5,0.4-0.5,0.9-0.2c0.5,0.3,1.3,0.5,1.9,0.7c0.6,0.1,0.7,0.3,0.7,0.6s0.1,1,0.1,1.6
			c0.1,0.6,0,0.8-0.2,1.2s-1.4,1.5-1.4,1.5s-0.5,0-1.6,0.3c-1.1,0.3-1.4,0.8-1.5,1.2s0.2,0.6,0.2,0.7c0,0.1,0,0.3,0,0.5h0.2
			c0.1-0.2,0.2-0.3,0.4-0.6c0.4-0.5,1.3-0.6,1.9-0.3c0.4,0.2,0.4,0.6,0.4,0.9h2.4c0.3-0.6,1.1-2.1,1.3-2.6c0.3-0.6,0.4-0.9,0.4-1.7
			s0.1-3.9,0-4.1c-0.2-0.2,0-0.7,0-1.6c0-0.9,0-1.5-1.6-1.7c-1.6-0.2-2.1-0.8-2.6-1.4c-0.5-0.5-0.4-1.8-0.8-3.3
			c-0.4-1.5-1.5-1.7-3.4-2.1c-1.9-0.4-3.3-0.4-4.7-0.3s-3.1,0.3-4.1,0.2C322,164.1,322.2,164.4,322.5,164.9L322.5,164.9z"/>
		<path class="st3" d="M331.5,182.3c-0.2,0.1-0.3,0.2-0.3,0.3h1.6c0-0.1,0-0.3-0.2-0.5C332.4,181.8,332,182,331.5,182.3L331.5,182.3
			z"/>
		<path class="st3" d="M334.5,182.2c-0.3,0.1-0.4,0.3-0.5,0.5h1.7c0-0.1,0-0.1,0-0.2C335.5,182.2,335,181.9,334.5,182.2L334.5,182.2
			z"/>
		<path class="st3" d="M293.8,183.2c0.1,0.5,0.2,1,0.4,1.6h51.8c0.1-0.5,0.3-1,0.4-1.6H293.8L293.8,183.2z"/>
		<path class="st3" d="M328.6,158.4c1.6,1.1,6.8,1.1,9.3,1.6c2.4,0.5,2.3,2.4,1.5,3.3c-0.7,1-4.2,1.1-4.8,1.2
			c0.3,0.2,0.8,0.9,0.8,0.9s0.4,0,1.4-0.1c1-0.1,2.8-0.3,4.1-1.4c1.2-1,1.1-2.7,0.1-3.8c-1.1-1.1-2.9-1.2-4.7-1.4
			c-1.8-0.2-3.3-0.3-5.3-0.7c-2.1-0.3-3.1-1.2-3.1-2.4c0-1.2,1.1-1.8,1.9-2.1c0.8-0.2,2.1-0.6,3.2-0.1c1.1,0.4,2.5,0.5,4.8,0.2
			c2.3-0.3,2.8-1.9,2.8-1.9s-0.3,0.1-1.4,0.2c-1.1,0-2-0.5-4.1-0.5c-2.1,0-2.8,0.7-3.8,1.1c-1,0.3-3.6,0.6-4.4,2.3
			C326.1,156.6,327,157.4,328.6,158.4L328.6,158.4z"/>
		<ellipse class="st2" cx="315" cy="150.6" rx="1" ry="1"/>
		<path class="st2" d="M336,152.3c-1.3-0.1-3,0.2-3,0.2s0.3,0.3,0.7,0.2c0.4,0,1.2-0.1,2.5,0.2c1.3,0.2,2.2-0.4,2.2-0.4
			S337.3,152.4,336,152.3L336,152.3z"/>
		<path class="st4" d="M323.7,176.4c-0.3-0.5-0.4-0.5-0.8-0.1c-0.4,0.3-0.7-0.8-0.8-1.4c0-0.7,0.3-2.8,0.3-2.8s-1.8,0.4-2.7,0.7
			c-0.9,0.3-1.9,0.4-2.6,0.6s-1.2,0.4-1.6,0.3c-0.4-0.1-1.3-0.1-1.9-0.1s-0.6,0.1-1.3,0.8c-0.7,0.7-0.9,1-1.4,2.3
			c-0.5,1.3-0.7,2.4-0.9,4c-0.1,1-0.3,1.7-0.4,2.1h8.1c0.1-0.3,0.2-0.6,0.3-0.8c0.2-0.5,0.7-0.8,1-0.9s0.6-0.1,0.7-0.5
			c0.1-0.4,0.6-0.7,1-0.9s1.2-0.1,1.8,0.1c0.7,0.2,0.9-0.3,1.1-0.5c0.2-0.3,0.3-0.6,0.6-1.1c0.4-0.5,0.1-0.9,0.1-0.9
			S324,176.9,323.7,176.4L323.7,176.4z"/>
		<path class="st4" d="M336.8,176.6c-0.1-0.5-0.1-0.5-0.3-0.6c-0.3-0.1-0.7-0.1-1.1-0.3c-0.4-0.2-0.4,0.9-0.4,0.9s-1,0.1-2,0
			c-1.1-0.1-2.4-1.1-2.8-1.4c-0.4-0.3-0.9-1-0.9-1s-0.3,0.3-0.7,0.5s-0.5,0.9-0.6,1.6c-0.1,0.7,0.8,1.5,0.8,2.2
			c0.1,0.7-0.7,2-1.1,2.6c-0.3,0.4-0.6,1.2-0.8,1.7h3.9c0.1-0.2,0.2-0.5,0.4-0.7c0.4-0.4,1.1-0.5,1.1-0.5s0-0.2,0.1-0.5
			c0.1-0.4,0.6-0.8,1.5-1.2c1-0.4,2.1-0.4,2.1-0.4s0.5-0.4,0.8-0.9C337.1,177.9,336.9,177.1,336.8,176.6L336.8,176.6z"/>
	</g>
	<g>
		<path class="st3" d="M304.1,219.8c0.7,0.2,2.1-0.3,2.8-1.1c0.7-0.8,0.9-2.1,1.4-2.8c0.5-0.7,0.8-1.3,0.8-1.3s-0.1,1.2-0.7,2.8
			c-0.6,1.5-0.7,3.6-0.6,4.5c0.3,1.8,1.5,2.1,2.1,1.8c0.5-0.2,1.3-1,2-2.2c0.2-0.4,0.4-0.9,0.6-1.3c0.5-0.9,0.9-2.3,1.1-2.3
			c0.5,0.1,0.2,1.1,0,1.8c-0.3,1.4-1,3.4-1.1,4.6s0.1,3.4,1.3,3.5c1.2,0.1,1.8-1,2.5-3.5c0.7-2.5,0.8-3.3,1.1-3.3
			c0.3,0,0.3,1.7,0.3,2.4c0,0.3,0,0.9,0.1,1.6c0.2,1.3,0.6,2.9,1,3.3c0.6,0.5,1.1,0.4,1.1,0.4s0.5,0.1,1.1-0.4
			c0.6-0.5,1.1-4.2,1.1-4.9s0-2.4,0.3-2.4c0.3,0,0.4,0.8,1.1,3.3c0.7,2.5,1.3,3.6,2.5,3.5c1.2-0.1,1.4-2.3,1.3-3.5s-0.7-3.2-1.1-4.6
			c-0.3-1.4,0.1-1.3,1.1,0.5c0.3,0.5,0.6,1.2,0.9,1.7c0.6,1,1.3,1.6,1.7,1.8c0.7,0.2,1.8,0,2.1-1.8c0.3-1.8-1.1-7-1.1-7
			s0.1,0.1,0.6,0.9c0.5,0.7,0.7,2,1.4,2.8c0.7,0.8,2,1.4,2.8,1.1s0.8-1.6,0.3-4c-0.5-2.4-2.7-3.8-4.3-5.7c-1.4-1.8-2.5-4.9-2.7-5.4
			c-2,1-3.7,2.1-5.2,3.7c-3.2,3.4-3.9,4.2-3.9,4.2s-0.7-0.8-3.9-4.2c-1.6-1.6-3.3-2.7-5.3-3.7c-0.2,0.4-1.5,3.4-3,5.2
			c-0.7,0.9-1.7,1.6-2.4,2.4c-0.8,1-1.3,2.2-1.6,3.5C303.3,218.1,303.4,219.5,304.1,219.8L304.1,219.8z"/>
		<path class="st3" d="M304.1,228c0.9-0.8,1.4-1.3,1.4-1.3s0.7-0.6,0.5,0.5c-0.2,1.1-0.5,3.3-0.3,4.3c0.2,1,0.3,1.8,1.5,1.1
			c1.2-0.7,1.5-1.1,2.1-1.7c0.6-0.6,1.2-0.9,1,0.1c-0.1,0.9-0.6,2.4-0.4,4.3c0.2,1.9,1.1,2.2,2.4,0.6c1.2-1.6,2-3.1,2.3-3.9
			c0.4-0.8,1.1-1.5,1.1,0c0,3.2,0.7,7.8,4.3,9.1c3.5-1.2,4.3-5.9,4.3-9.1c0-1.5,0.7-0.8,1.1,0c0.4,0.8,1.1,2.3,2.3,3.9
			c1.2,1.6,2.2,1.3,2.4-0.6c0.2-1.9-0.2-3.3-0.4-4.3s0.5-0.7,1-0.1c0.6,0.6,0.9,1,2.1,1.7c1.2,0.7,1.3-0.1,1.5-1.1
			c0.2-1-0.1-3.2-0.3-4.3c-0.2-1.1,0.5-0.5,0.5-0.5s0.5,0.5,1.4,1.3c0.9,0.8,2.2,0.9,2.2,0.9s0.6-3.4-0.8-5.4s-1.9-2.7-1.9-2.7
			s-0.8,0-1.4-0.3c-0.6-0.2-1.2-0.7-1.2-0.7s0,1,0,1.4v0.5c0,0,1.7,1.6,2.1,2.1c0.4,0.5,1.2,1.3,0,0.5c-1.2-0.8-2.1-1.6-2.1-1.6
			s-0.2,1.7-0.7,2.1c-0.5,0.4-1.2,0.5-1.5,0.4c-0.3-0.1-0.3-0.1-0.3-0.1l-0.1,0.7c0,0,1.1,2,1.2,2.8c0.1,0.8-0.1,0.7-0.6-0.3
			c-0.5-1-1.4-2.3-1.9-3.1s-1.1-1.2-1-0.3c0.1,0.9-0.3,2.6-0.6,3.2c-0.3,0.6-0.5,0.8-0.5,0.8s0.7,2.3,0.7,2.7c0.1,0.4,0,0.9-0.3,0.4
			c-0.4-0.5-1.4-2.8-1.4-2.8s-1.4-0.1-1.8-0.5s-1-1.9-1-1.9s-0.6,2-1,2.6c-0.5,0.6-1.6,1.3-1.6,1.3s-0.1,3.4-0.2,4
			c-0.1,0.6-0.1,0.9-0.4,0.9c-0.3,0-0.3-0.3-0.4-0.9c-0.1-0.6-0.2-4-0.2-4s-1.1-0.6-1.6-1.3c-0.5-0.6-1-2.6-1-2.6s-0.6,1.5-1,1.9
			c-0.4,0.4-1.8,0.5-1.8,0.5s-1.1,2.3-1.4,2.8c-0.4,0.5-0.4,0.1-0.3-0.4s0.7-2.7,0.7-2.7s-0.2-0.2-0.5-0.8c-0.3-0.6-0.7-2.3-0.6-3.2
			c0.1-0.9-0.6-0.4-1,0.3s-1.4,2-1.9,3.1c-0.5,1-0.7,1.1-0.6,0.3s1.2-2.8,1.2-2.8l-0.1-0.7l-0.3,0.1c-0.3,0.1-1,0.1-1.5-0.4
			c-0.5-0.4-0.7-2.1-0.7-2.1s-1,0.8-2.1,1.6c-1.2,0.8-0.4,0,0-0.5c0.4-0.5,2.1-2.1,2.1-2.1s0-0.1,0-0.5v-1.4c0,0-0.6,0.4-1.2,0.7
			c-0.6,0.2-1.4,0.3-1.4,0.3s-0.5,0.7-1.9,2.7c-1.4,2-0.8,5.4-0.8,5.4S303.1,228.8,304.1,228L304.1,228z"/>
		<path class="st3" d="M321.2,250.3c-0.9-1.1-1.2-1.6-1.2-1.6s-0.3,0.5-1.2,1.6c-0.9,1.1-3,2.7-3,2.7s0.2,2.8,1.2,4.3
			c0.9,1.3,1.7,2.4,3,3.3c1.3-0.9,2.2-2,3-3.3c1-1.5,1.2-4.3,1.2-4.3S322.1,251.4,321.2,250.3L321.2,250.3z"/>
		<path class="st2" d="M319.6,253.7c0.1,0.6,0,2.3,0.4,2.3s0.3-1.6,0.4-2.3c0.1-0.6,0.1-2.2,0.1-2.2h-1.1
			C319.5,251.5,319.5,253.1,319.6,253.7L319.6,253.7z"/>
		<path class="st3" d="M320,100.9c-3.8,0.1-8.2-0.5-10.6-1.4c-0.9,0.2-1.7,0.4-2.6,0.6c4,1.5,7.4,2.1,13.2,2.2
			c5.9-0.1,9.2-0.6,13.2-2.2c-0.9-0.2-1.7-0.4-2.6-0.6C328.2,100.4,323.7,100.9,320,100.9L320,100.9z"/>
		<path class="st3" d="M333.7,97.7c-0.3-0.2-2-1.5-2.5-1.7c-0.4-0.2-0.1-0.8,0-1.1c0.1-0.2,2-0.8,3.1-1.1c1.1-0.3,0.9-0.5,0.9-0.5
			s-0.6-0.7-4.5-1.1c-3.9-0.4-10.7-0.3-10.7-0.3s-6.8-0.1-10.7,0.3c-3.9,0.4-4.5,1.1-4.5,1.1s-0.2,0.2,0.9,0.5
			c1.1,0.3,3,0.8,3.1,1.1c0.1,0.2,0.4,0.8,0,1.1c-0.4,0.2-2.2,1.4-2.5,1.7c-0.3,0.2-0.3,0.6,0.1,0.7c0.5,0,0.5,0,1.8-0.2
			c4-0.8,7.7-1,11.7-1.1c4,0.1,7.7,0.3,11.7,1.1c1.3,0.3,1.3,0.3,1.8,0.2C334,98.4,334,98,333.7,97.7L333.7,97.7z"/>
		<path class="st3" d="M329.3,99.4c-2.7-0.3-4.3-0.7-9.3-0.6c-4.9,0-6.6,0.3-9.3,0.6c1.7,0.7,4.4,1,9.3,1
			C324.9,100.4,327.6,100,329.3,99.4L329.3,99.4z"/>
		<polygon class="st3" points="319.2,62.9 321.2,62.7 321,61 323.2,61.3 323.3,59.5 321,59.7 321.4,57.8 318.9,57.8 319.3,59.7 
			317.1,59.5 317.1,61.3 319.3,61 		"/>
		<path class="st3" d="M323.6,65.8h-2.7v-2.3c-0.3-0.1-0.5-0.1-0.8-0.1c-0.2,0-0.5,0-0.7,0.1v2.3h-2.8c-0.1,0.3-0.1,0.6-0.1,0.9
			c0,0.1,0,0.3,0,0.4h7.3c0-0.1,0-0.3,0-0.4C323.7,66.4,323.7,66.1,323.6,65.8L323.6,65.8z"/>
		<path class="st4" d="M320.1,70c1.6,0,3-1,3.5-2.3h-7C317.1,69.1,318.5,70,320.1,70L320.1,70z"/>
		<path class="st4" d="M321.6,63.6v1.6h1.8C323,64.5,322.4,64,321.6,63.6L321.6,63.6z"/>
		<path class="st4" d="M318.6,63.6c-0.8,0.3-1.4,0.9-1.8,1.6h1.8C318.6,65.2,318.6,63.6,318.6,63.6z"/>
		<path class="st2" d="M322.2,93.3c-0.7-0.3-2.2-1-2.2-1s-1.4,0.7-2.2,1.1c-0.8,0.4-0.7,0.3-0.9,0.8s0,0.8,0.4,0.9
			c0.3,0.2,2.8,1.4,2.8,1.4s2.4-1.1,3-1.4c0.6-0.3,0.5-0.6,0.3-1C323.2,93.8,322.9,93.6,322.2,93.3L322.2,93.3z"/>
		<polygon class="st3" points="317.6,94 320,95.2 322.4,94 320,92.9 		"/>
		<path class="st3" d="M320,84.6c0,0-0.2,0.8-0.5,1.2c-0.3,0.4-0.5,0.7-0.4,1.1c0.1,0.4,0.6,0.7,0.9,0.7c0.3,0,0.8-0.3,0.9-0.7
			c0.1-0.4-0.1-0.8-0.4-1.1C320.2,85.5,320,84.6,320,84.6L320,84.6z"/>
		<circle class="st3" cx="320" cy="88.6" r="0.5"/>
		<path class="st3" d="M318.4,86.2c0,0,0.8-0.9,1.1-1.4c0.3-0.5,0.5-1,0.5-1s0.2,0.5,0.5,1c0.3,0.5,1.1,1.4,1.1,1.4s1.1-0.6,1.7-2.7
			c0.6-2.1-0.1-4.3-0.4-6.7s-0.5-6.5-0.5-6.5c-0.8,0.5-1.6,0.7-2.4,0.7c-0.8,0-1.5-0.2-2.4-0.7c0,0-0.2,4.1-0.5,6.5
			c-0.3,2.4-1.1,4.6-0.4,6.7C317.3,85.7,318.4,86.2,318.4,86.2L318.4,86.2z"/>
		<ellipse class="st2" cx="320" cy="81.5" rx="1.9" ry="1.8"/>
		<ellipse class="st2" cx="320" cy="77.2" rx="1.8" ry="1.8"/>
		<ellipse class="st2" cx="320" cy="73.1" rx="1.7" ry="1.7"/>
		<ellipse class="st3" cx="320" cy="81.2" rx="1" ry="1"/>
		<ellipse class="st3" cx="320" cy="76.9" rx="1" ry="0.9"/>
		<ellipse class="st3" cx="320" cy="72.8" rx="0.8" ry="0.8"/>
		<path class="st2" d="M319.9,224c0.1,0,0.1-0.3,0.2-0.8c0-0.6,0.1-1.9,0.2-2.7c0.1-0.8-0.2-0.7-0.4-0.7c-0.2,0-0.3,0.6-0.3,1
			c0,0.3,0.1,2.3,0.1,2.8S319.8,224,319.9,224L319.9,224z"/>
	</g>
	<g id="g4017">
		<path class="st3" d="M300.3,239.4c0.8-0.5,1.6-1.1,3.5-2.4c1.9-1.3,2.6-2.7,2.6-2.7h-0.7c-0.4,0-0.7-0.5-0.7-1
			c0-0.5,0-1.5,0.1-2.8c0.1-1.2-0.2-2.2-0.2-2.2s-0.8,0.8-2,1.4c-1.2,0.6-1.7,0.3-1.7,0.3l-0.3-1.2c0,0-0.5,1.1-1.3,2.4
			c-0.8,1.3-2.8,2.8-4.3,3.9c-1.5,1.1-3.1,2.3-4.3,2.7c-1.2,0.4-0.5,1-0.5,1s1.2,1.2,4.3,1.8S299.4,239.9,300.3,239.4L300.3,239.4z"
			/>
		<path class="st3" d="M311.2,238.2c-1.1-0.1-1.8-0.5-2-1.7c-0.1-0.8,0.1-3.8,0.1-3.8s-0.4,0.3-0.8,0.8c-0.4,0.5-1.4,0.6-1.4,0.6
			s-0.1,0.4-0.6,1.1c-0.4,0.7-1,1.5-2,2.2c-1.1,0.7-2.3,1.5-3.1,2.1c-0.8,0.7-1.8,1.5-2.8,2.1c-1.1,0.6-2,1.5-2.4,3.1
			c-0.4,1.6-0.1,2.1,1.1,2c1.2-0.1,1.4,0,3.4-0.5c2-0.5,4.8-2.7,6.9-4.1C309.7,240.8,311.2,238.2,311.2,238.2L311.2,238.2z"/>
		<path class="st3" d="M316.7,240c0,0-0.8-1.1-1.1-2.3c-0.3-1.2-0.9-3.6-0.9-3.6s-0.3,0.8-1,2.2c-0.7,1.4-1.8,1.8-1.8,1.8
			s-0.1,0.6-1,1.8c-1,1.2-2.4,2.3-3.8,3.2c-1.4,0.8-3.3,2-4.3,3.4c-1,1.4-1.1,2.9-0.6,3.6c0.5,0.6,1.1-0.1,2.1-0.6s3.7-0.9,7.4-2.9
			C315.5,244.6,316.7,240,316.7,240L316.7,240z"/>
		<path class="st3" d="M318.3,248.4c1-1.5,1.2-5.3,1.2-5.3s-0.4-0.3-0.9-0.7c-0.5-0.4-1.5-1.9-1.5-1.9s-0.6,1.3-1.3,2.5
			c-0.7,1.2-1,1.6-2.4,2.9c-1.4,1.3-3.3,2.6-4.1,3.9c-0.8,1.4-0.4,4.1,0.2,5.1c0.5,0.9,1.3,0.6,2.1-0.1c0.8-0.8,1-1,2.4-2.1
			S317.3,250,318.3,248.4L318.3,248.4z"/>
		<path class="st2" d="M306,216.9c0.6-1.1,1.2-2.5,1.7-3.2c0.5-0.7,0.9-1.5,0.9-1.5s-1.3,1.2-1.9,2.1c-0.5,0.9-0.9,1.7-1.1,2.6
			C305.3,217.9,305.4,218,306,216.9z"/>
		<path class="st2" d="M311.3,217.9c0.2-0.7,0.3-1.2,0.3-1.2s0.2-0.7,0.1-0.8c-0.1,0-0.7,0.4-1.1,1.7c-0.4,1.2-1,3-0.8,3.1
			C310,220.7,311.1,218.6,311.3,217.9L311.3,217.9z"/>
		<path class="st2" d="M315.5,221.2c0.2-0.5,0.2-0.6,0.2-0.6s0.4-1.4,0.4-1.7c0-0.3-0.1-0.6-0.5,0.1c-0.4,0.7-0.4,1.4-0.5,1.7
			c-0.1,0.3-0.5,1.4-0.4,1.5C315,222.4,315.3,221.8,315.5,221.2L315.5,221.2z"/>
		<path class="st2" d="M302.5,234l-0.6-0.3c0,0-0.3,0.5-0.8,1c-0.5,0.5-1,0.7-1.4,1.2c-0.4,0.5-0.9,1.1-1.8,1.5s-1.2,0.6-1,0.7
			c0.2,0.1,0.8-0.2,0.8-0.2s0.3,0,1.3-0.6s1.3-1,2-1.5S302.5,234,302.5,234z"/>
		<path class="st2" d="M307,239.4c0.4-0.4,0.8-0.7,0.6-0.9c-0.2-0.2-0.5-0.2-0.9,0.1c-0.4,0.3-1.4,1.3-1.9,1.7
			c-0.5,0.4-0.9,0.7-1.3,1c-0.5,0.4-1.5,0.9-2,1.2c-0.5,0.3,0,0.3,0,0.3s0.4-0.2,0.8-0.3c0.4-0.1,1.6-0.7,1.6-0.7s0.5-0.2,1.1-0.7
			C305.7,240.7,306.6,239.8,307,239.4L307,239.4z"/>
		<path class="st2" d="M312.3,243c0.3-0.7,0-0.5-0.6-0.3c-0.6,0.2-1.8,1.6-2.6,2.1s-1.3,0.7-2,1c-0.6,0.3-0.6,0.5-0.6,0.6
			c0,0.1,0.3,0.1,0.5,0c0.3-0.1,1.1-0.6,1.1-0.6s0.4-0.1,0.7-0.1c0.3,0,0.8-0.4,1.6-1C311.3,244.1,311.9,243.7,312.3,243L312.3,243z
			"/>
		<path class="st2" d="M314.7,247.9c-0.9,0.6-2.5,1.8-2.9,2.7c-0.4,0.8-0.7,1.4-0.6,1.6c0.1,0.1,0.6-0.1,0.8-0.5
			c0.2-0.3,0.6-0.8,0.6-0.8s1.6-1.6,2.2-1.9s1.5-1.4,1.8-2c0.2-0.6,0.1-1,0.1-1S315.6,247.3,314.7,247.9L314.7,247.9z"/>
		<path class="st6" d="M290,113.3c-0.8-0.5-3.1-1.5-5.6-1.7c-2.4-0.2-4.3,0.2-6.3,0.7c-1.4,0.4-2.6,0.4-3.8,0.1
			c-1.7-0.5-3.1-2-3.5-4c0,0-1.6,2.1,0,4.3c0.8,1.1,1.8,1.7,2.9,2c3.4,0.7,6.7-1.4,9.6-1.6c2.7-0.2,4.9,1.5,4.9,1.5s0.6,0.5,1.5,0
			C290.6,114.2,290.8,113.8,290,113.3z"/>
		<path class="st3" d="M280.2,211.7c0,0-0.3,0-0.8-0.1c-0.5-0.1-1.5-0.4-1.8-0.5c-0.3-0.1-0.8-0.2-1.1,0.2c-0.3,0.3-2.7,1.8-2.7,1.8
			h4C279.3,213,280.2,211.7,280.2,211.7L280.2,211.7z"/>
		<path class="st3" d="M291.6,211v-0.4l-0.5-1.2c0,0-0.6,0.4-1.2,1c-0.8,0.8-1.6,2-2,2.5c-0.7,0.9-1.6,1.7-0.8,0.3
			c0.8-1.4,1.1-2,1.7-2.9c0.6-0.9,1.1-1.3,1.1-1.4c-0.1-0.1-0.6-0.1-2.3-0.4c-1.7-0.2-2.7-0.9-3.5-1.3c-0.8-0.5-2.2-1.2-2.2-1.2
			s-2.9,1.2-4,1.5s-1.7,0.4-0.7,0.9c1.1,0.5,1.9,0.7,2.5,1c0.5,0.3,2.1,0.8,3.1,0.8c1,0,2.6,0,2,0.7c-0.6,0.7-1.4,2-2.1,3.9
			c-0.7,2-0.7,3.7-0.7,4.6s0.1,1.7,0.1,1.7s1.2-1.3,4.4-3.3c3.2-2,4.4-2.7,5-2.9c0.6-0.3,0.9-0.3,0.8-1
			C291.9,213.2,291.6,211.3,291.6,211L291.6,211z"/>
		<path class="st3" d="M303.7,201.3c-0.2-0.1-0.4-0.2-0.6-0.3c-0.1,0-0.1,0-0.1,0.1c-0.4,0.2-2.3,1.5-3.1,2.8
			c-0.8,1.3-1.6,1.4-0.7,0c0.9-1.4,1.5-2.2,2.2-2.8c0.3-0.2,0.5-0.4,0.7-0.6c-1.6-0.8-3.3-1.7-4.9-2.8c-0.2,0.4-0.6,1.2-1.1,1.7
			c-0.7,0.7-2.2,1.3-2.2,1.3s1.2-1.2,1.6-2.2c0.3-0.6,0.4-1.2,0.5-1.6c-1.1-0.9-2.2-1.9-3.2-3.1c-0.2,0.8-0.8,2.8-2.8,4.9
			c-2.5,2.8-7.5,4.2-7.5,4.2s-1.8,0.2-0.3,0.6s2.4,1,5.2,0.5c2.8-0.5,2.9-0.6,3.3-0.7c0.4-0.1,1.4,0,0,0.5c-1.4,0.5-4.6,1-5.8,0.9
			c-1.2-0.1-2.9-0.4-1.2,0.6s2.5,1.3,3.6,1.3c1.1,0,1.5,0.3,2.6,0.3c1,0,1.3-0.2,2.1-0.3c0.7-0.1,1.2,0.1,1.2,0.4c0,0.3-1,1.1-1,3.2
			c0,2.1,0.2,3.4,0.4,4c0.2,0.6,0.6,1.6,0.9,2.1c0.3,0.6,0.4,1.1,0.7-0.1c0.3-1.2,1-2.9,1.2-4.1c0.3-1.2,0.4-1.2,0.5-1.8
			c0.1-0.6,0.7-1,0.4,0s-0.6,2.5-0.9,3.4c-0.2,1-0.7,2.8,0.1,1.3c0.9-1.4,4.3-5.2,4.8-5.9s1-1.3,1.4-1.9c0.4-0.6,1.6-1.3,2.1-2.1
			c0.5-0.7,2-2.2,2.6-2.7C305.8,202.2,304.8,201.8,303.7,201.3L303.7,201.3z"/>
		<path class="st3" d="M257.4,115.2c0.1,2.1,2.4,6,3.7,8.1c1.3,2.1,1.6,2.9,1.4,3.1c-0.2,0.1-0.8-0.9-1.5-1.9
			c-0.7-0.9-2.1-3.1-3.3-4.8s-2.9-5.6-3.1-5.9c-0.2-0.4-0.3-0.6-0.9-0.1c-0.6,0.4-1.7,4.8-0.4,7.7c1.3,2.9,3.3,5.1,4.2,6.1
			c0.8,1,2,2.6,1.8,2.8c-0.2,0.1-0.5-0.3-1.5-1.3s-2.7-2.9-3.8-4.2c-0.9-1.1-2.1-3.3-2.6-4.1c-0.2-0.3-0.4-0.2-0.5-0.1
			c-0.4,0.4-1,1.2-0.7,3.6c0.4,3.3,2.1,5.1,3.6,6.8c1.5,1.7,3,3,2.8,3.3s-1.8-1.2-2.9-2.2c-1.1-1-3.7-3.6-4.3-4.3
			c-0.6-0.7-1.4-0.4-1.4,2.5s3.2,5.7,4.5,7.2c1.3,1.6,2.9,2.5,2.8,2.8c-0.1,0.3-1.4-0.5-2.3-1.1c-0.8-0.6-4-2.6-4.6-3.1
			c-0.6-0.4-0.9,0.4-0.1,3.1c0.8,2.7,3.1,4.8,4.5,5.8c1.4,1,3.6,2.2,3.5,2.5c-0.1,0.3-1.1-0.1-2.4-0.7c-1.3-0.6-2.9-1.2-4-1.5
			c-1.1-0.3-1.1,0.5-1.1,0.5s-0.2,2.3,1.4,4.1s3.5,2.5,5.3,2.9c1.8,0.3,2.1,0.4,2,0.7c0,0.3-0.2,0.3-0.6,0.3s-2.1,0.2-3.6,0.2
			s-2.3,0.4-2.3,1s0,1.6,2.2,3.1c2.3,1.5,4.8,1.7,5.9,2c1.1,0.2,1.1,0.3,0.9,0.6c-0.2,0.3-0.7,0.3-2.4,0.4c-1.7,0.2-2.7,0.8-2.9,1.3
			c-0.2,0.4,0.1,1.8,1.5,2.7c1.4,0.9,3.2,1.3,5.8,1.1c2.7-0.2,3.3-0.2,3.4,0.2c0.1,0.4-0.8,0.6-2.1,0.8c-1.3,0.2-2.4,0.2-3.1,0.8
			c-0.8,0.6-0.2,1.9,1.1,2.9s4.5,0.9,5.8,0.8s3.4-0.6,3.5-0.2s-1,0.9-2.4,1.4c-1.4,0.5-1.8,0.8-2.1,1.4c-0.3,0.6,0,1.1,1.6,1.7
			c1.6,0.6,4.1,0.6,5.3,0c1.2-0.6,1.9-0.8,2.1-0.6c0.2,0.2,0,0.4-0.3,0.8c-0.3,0.3-1.3,1.2-2.7,1.5s-1.5,0.4-2,1.5
			c-0.5,1.1,0.8,2,3.3,2.1c2.5,0.1,5.8-0.9,6.9-1.5c1.1-0.6,1.5-0.8,1.6-0.5c0.2,0.2,0.1,0.4-0.4,0.8c-0.5,0.4-2.2,1.6-3.1,1.8
			c-0.8,0.2-0.9,0.8-0.9,1.4c0,0.6-0.2,1.7,2,2.3c2.2,0.5,4.9,0.1,7.3-1.6c0.8-0.5,1.2-1,1.5-1.4c-0.2-2.3-0.1-3.8,0.2-5.3
			c-0.5-0.1-1.4-0.2-2.3-0.6c-1.3-0.5-1.9-1.8-2.2-2.5c-0.3-0.7-0.8-0.7-1.3-0.5c-0.5,0.2-1.1,0.4-1.8,0.4s-2.4-0.4-3.5-1.8
			c-1.2-1.4-0.9-2.7-1-3.4c0-0.7-1.1-0.2-1.6-0.2c-0.5,0-2.1-0.2-3.5-1.2c-1.4-1-1.4-2.3-1.6-2.9c-0.1-0.5-0.7-0.9-1.2-1.1
			c-0.4-0.2-1.2-0.4-2.1-1.2c-1-0.8-1.3-2.4-1.4-2.9c0-0.5-0.6-0.6-2.6-1.6s-1.8-3.2-1.7-4c0.1-0.9,1-1.6,1-1.9
			c0-0.3-0.7-0.4-1.3-0.8c-0.7-0.4-2.4-1.1-2.4-3.6c0-2.5,1.6-2.8,1.6-2.8s-0.3-0.1-1-0.5c-0.7-0.4-2.5-1.7-2.5-3.1
			c0-1.5,0.7-2.1,1.2-2.5c0.5-0.4,1.8-0.7,1.8-0.7s-0.8-0.5-1.2-1.7c-0.4-1.2-0.5-2.6,0.4-3.6c0.8-1,2.3-1,3-1s1.4,0.4,1.7,0.2
			c0.3-0.2,0.3-0.4,0-1c-0.3-0.6-0.3-2-0.1-2.5c0.2-0.5,0.3-1.5,2.2-2.1c1.9-0.6,3.9,0.7,4.5,1s0.4-0.5,0.4-1.1
			c0-0.6-1.3-2.2-2.8-4.4c-1.5-2.2-2.1-3.4-3.8-6.8s-2.7-7.8-2.9-8.9c-0.2-1.1-0.7-0.6-0.7-0.6s-0.4,0.2-1.5,2.8
			C257.5,110.8,257.3,113.2,257.4,115.2L257.4,115.2z"/>
		<path class="st3" d="M291,160.9c-1.1-0.1-2.6-0.7-3.8-2.4c-1.1-1.7-2.9-2.1-5.9-2c-3,0.1-4.4-1.4-5.1-3.5
			c-0.7-2.1,0.1-4.4,3.2-5.9s4.4-3.2,4.5-5.8c0.1-2.6-3-5.8-6.2-9.4s-5.6-8.7-5.6-8.7s-0.9,1.2-0.9,2.4s0.5,2.5,0,2.8
			c-0.5,0.3-0.6-0.5-2.5-1.3c-1.8-0.8-3.3-0.9-4.5,0.4s0,3.6,1,4.7c1,1.1,1.9,1.9,1.6,2.3s-1.8-0.6-2.4-1s-1.7-1.7-3.5-1.5
			s-2.4,0.7-2.6,2.2c-0.2,1.5,1.6,2.8,2.8,3.4c1.1,0.6,1.6,1.1,1.3,1.3c-0.3,0.2-0.6,0-1.1-0.2c-0.5-0.2-2-0.3-2.9,0
			c-0.9,0.3-2.4,1.6-1,3.2c1.4,1.6,4.3,2.1,4.8,2.2c0.6,0.1,0.9-0.1,0.9,0.4c0.1,0.5-1.2,0.5-2.8,0.5s-2,1.6-1.8,2.7
			s2.8,2.4,4.3,2.6c1.4,0.2,2,0,2.1,0.4c0.1,0.4-0.2,0.6-1,0.8c-0.8,0.2-2.4,0.4-2.6,1.7c-0.3,1.3-0.3,1.8,0.9,2.9
			c1.2,1.1,3.2,0.9,3.7,0.8c0.6-0.1,1.3-0.7,1.8-0.2c0.6,0.6-0.5,1-1.5,1.7c-1,0.7-0.9,2,0.7,2.9c1.7,0.9,3.3,0.6,4,0.3
			s1.6-1.3,2.1-0.6c0.5,0.7-1.4,0.9-2.2,1.9c-0.8,1-0.5,2.6,1.1,3.6c1.6,1,4.3,0.3,4.7-0.1c0.5-0.4,1-0.6,1.4-0.2
			c0.3,0.3-0.2,1.3-0.5,2.1c-0.3,0.8-1,3.2,1.4,4.1c2.4,0.9,4.6-1.2,5-1.6c0.4-0.4,0.8-0.5,1.1-0.3c0.3,0.2,0.2,0.5-0.1,0.9
			c-0.3,0.4-0.9,2.1,0.8,3.3c1.2,0.8,2.5,0.8,3.2,0.6c0.4-1.3,0.8-2.8,1.3-4.8H290c-0.2,0-0.3,0.3-0.3,0.5s0.1,0.3-0.1,0.3
			c-0.2,0-0.2,0.1-0.5,0.3c-0.3,0.2-0.6,0.5-0.7,0.3c-0.2-0.1,0.6-0.5,0.8-0.8c0.2-0.3,0.6-0.6,0.6-0.9c0-0.3,0.2-0.4,0.6-0.8
			c0.1-0.1,0.2-0.2,0.3-0.4c0.3-1.3,0.5-2.9,0.8-4.8c0.2-1.3,0.3-2.5,0.3-3.6L291,160.9L291,160.9z"/>
		<path class="st3" d="M241.9,125.1c2.6,5.2,6.2,8.1,6.2,8.1s-0.5-1.3-0.7-2.2c-0.2-0.9,0-1.9,0-1.9s-0.9-1.2-2.6-3.8
			s-2.6-6.4-2.6-6.4s1.6,3.8,2.8,5.9c1.2,2,2.6,3.7,2.6,3.7s0.5-1.8,0.8-1.9c0.4-0.1,0.6,0.2,0.9,0.6c0.3,0.4,0.6,0.4,0.6,0.4
			s-0.4-0.9-1.1-1.9c-0.3-0.5-0.7-1-1-1.4c-1-1.5-3-4.4-4.1-7.3c-1.1-2.9-3.4-10.1-3.8-12.2c-0.4-2.1-0.8-1-1.2,0.6
			c-0.4,1.6-1,3.8-0.6,7.1S239.3,119.9,241.9,125.1L241.9,125.1z"/>
		<path class="st3" d="M245.2,139.1c1,0.7,2.4,1.7,2.4,1.7s-0.2-0.5-0.4-1.1s-0.2-1.9-0.2-1.9s-1.1-1-1.9-1.7
			c-0.8-0.7-1.8-1.6-3.7-4c-1.9-2.4-0.4-1,1.2,0.8s4.6,4.2,4.6,4.2s0,0,0-0.6c0-0.5,0.2-0.9,0.5-1.3c0.3-0.4,0.1-0.4-1.6-1.7
			c-1.7-1.3-6.1-6.3-8-9.3c-1.8-3-3.8-7-3.8-7s-1,5.9,2.7,12.5C240.7,136.2,244.3,138.4,245.2,139.1z"/>
		<path class="st3" d="M264.2,176.6c2-0.8,1.4-2.7,1.4-2.8s-1.2,0.4-2.3,0.8c-1.1,0.4-3.9,1.2-5,1.3c-1.1,0-1.1-0.1-1.1-0.3
			c0-0.2,0.8,0,2.4-0.3c1.6-0.3,4.3-1.7,4.8-2.1c0.5-0.3,0.4-0.4-0.3-0.5c-0.7-0.1-1.3-0.4-1.6-0.6c-0.3-0.2-1,0.1-2.8,0.5
			c-1.8,0.4-5.5,1.1-8.4,1.1s-5.5-0.5-6-0.6c-0.4-0.1-0.9,0.2,0.4,2.5c1.4,2.3,6.2,3.6,9.6,3.5C258.9,179.2,262.3,177.4,264.2,176.6
			L264.2,176.6z"/>
		<path class="st3" d="M255.3,171.8c3.5,0,4.8-1,4.8-1s0-0.2-0.5-0.9c-0.5-0.7-0.4-1.9-0.4-1.9s-0.8,0.1-2.3,0.4
			c-1.4,0.2-3.1,0.4-5,0.1s-1.1-0.5,0.4-0.4c1.5,0.2,4.3-0.4,5.2-0.7c0.9-0.3,0.5-0.6-0.1-0.8c-0.6-0.2-2.3-1.3-2.3-1.3
			s-4.2,0.5-8.1,0.1c-3.9-0.4-6.4-1.4-7.2-1.6s-0.8,0.2-0.8,0.2s-0.2,0.4,1.1,2.5c1.4,2.1,4,3.5,6.2,4.2
			C248.8,171.4,251.8,171.8,255.3,171.8L255.3,171.8z"/>
		<path class="st3" d="M254.4,163.7c0,0-0.1-0.2-0.4-0.9c-0.2-0.7,0.4-1.2,0.4-1.2s-0.8-0.2-3.4-0.6c-2.6-0.3-2.7-0.5-4.3-0.9
			c-1.6-0.4-2.6-0.8-2.6-1s0.5,0.1,1.5,0.4c0.9,0.4,4.9,0.8,6.6,1c1.7,0.2,2.6,0.4,2.9,0.2c0.3-0.2,1.3-0.4,1.3-0.4
			s-0.7-0.2-1.6-0.4c-0.9-0.1-1.7-0.5-2.1-0.9c-0.5-0.3-0.6-0.4-2.7-0.6c-2.1-0.2-3.8-0.9-7.6-2.3c-3.8-1.4-6.6-3-7.4-3.7
			c-0.8-0.6-0.7-0.2-0.5,0.6c0.2,0.8,0.2,1.8,2.1,4c1.9,2.2,2.9,3.2,7.7,5C249,163.9,254.4,163.7,254.4,163.7L254.4,163.7z"/>
		<path class="st3" d="M240.2,151.9c4.3,3,9.3,4.1,10.3,4.2c0.2-0.3-0.3-1.3,0-1.9c0.3-0.7,0.7-0.7,1.8-0.8c1-0.1,0.4-0.3,0.1-0.3
			s-0.3,0-2-0.5c-1.7-0.4-3.4-0.7-5.8-1.6c-2.4-0.9-3.1-1.5-3-1.7c0.1-0.2,1.1,0.6,3.3,1.4c2.2,0.8,4.7,1.1,6.1,1.4
			c1.4,0.3,0.2-0.3-0.5-0.7c-0.6-0.4-1.6-1.8-1.6-1.8s-1.5-0.3-4-1c-2.5-0.8-4.6-1.6-6.7-2.8c-0.7-0.4-1.4-0.9-2.2-1.5
			c-1.4-1-2.9-2.1-3.4-2.5c-0.9-0.6-0.6-0.1-0.5,0.3s0.7,2.2,2,4.1C235.5,148.4,235.9,148.9,240.2,151.9z"/>
		<path class="st3" d="M239.5,143.5c4.2,3.3,7.8,4.4,8.4,4.6c0.6,0.3,0.6-0.1,0.4-0.4c-0.1-0.4-0.2-1.5-0.2-1.5s-1.5-0.9-3.2-1.8
			c-1.7-1-3.5-2.3-4.8-3.1c-1.2-0.9-0.5-0.8-0.1-0.5c0.4,0.3,2.1,1.3,3.8,2.4c1.7,1.1,4.3,2.6,4.3,2.6s0.1-0.6,0.4-0.9
			s1.2-0.3,1.2-0.3s-0.4-0.4-0.7-0.9c-0.3-0.4-1.6-0.9-3.2-1.6c-1.6-0.7-4.4-2.8-6.4-4.5c-2.1-1.7-6.1-6.1-6.3-6.4
			c-0.3-0.4-0.4-0.3-0.5,0.1c0,0.4-0.2,0.7,0.3,2.7C233.4,136,235.3,140.2,239.5,143.5z"/>
		<path class="st3" d="M254.3,112c0.5,1,1,1.7,1.4,2.4c0.6,1,0.9,1.6,0.9,1.6s0.1-0.3,0-0.9s-0.2-1.4,0-2.4c0.1-0.5,0.2-1,0.2-1.5
			c0-0.5-0.2-1-0.3-1.3c-0.1-0.6-0.7-3-1-4.7c-0.3-1.7-0.6-4.2-0.6-6.4c0-2.2,0.3-1.1,0.3,0s0.1,2.7,0.4,5.2
			c0.3,2.5,1.4,6.3,1.4,6.3s0.1-0.6,0.4-1.4s0.8-1.8,1.2-2.8c0.4-1,0.3-1.2,0.3-1.2s-1.5-7.1-1.9-10.4c-0.4-3.3-1-12.1-1-12.1
			c-2.2,2.2-3.8,7.9-4.1,13.3c-0.2,4.1,0.4,7.8,0.6,9.4C253,108,253.5,110.4,254.3,112L254.3,112z"/>
		<path class="st3" d="M249.6,123.2c0.1-1.6,0.4-2.8,1.5-3.2c0,0-0.9-1.6-1.7-3.9c-0.5-1.6-1-3.6-1.2-5.1c-0.6-3.8-1-7.7,0.1-1.3
			c1.1,6.4,2.5,8.6,2.5,8.6l1.6,2.7c-0.2-1.2-0.3-2-0.2-3.3s0.2-3,0.6-4.4c0,0-2-4-3.2-8.7s-2-9.1-2-11.6c-0.1-2.5-0.2-3.4-0.2-3.4
			s-2,1.5-2.7,9.3c-0.7,7.7,1.4,15.2,2.4,18C248,119.7,249.6,123.2,249.6,123.2L249.6,123.2z"/>
		<path class="st3" d="M271.7,182.2c0,0-0.3-0.2-1.3-0.8c-1-0.6-0.7-2.4-0.7-2.4s-0.3,0.2-1,0.7c-0.7,0.5-1.5,1-2.5,1.4
			s-1.4,0.6-2,0.8c-0.6,0.2-0.4-0.1,0.1-0.4c0.5-0.3,0.7-0.4,2-1c1.3-0.5,3.8-2.8,3.8-2.8s-0.6-0.1-1.7-0.1s-2.4-0.6-2.4-0.6
			s-1.1,1-5.3,2.8c-4.3,1.8-7.9,2.3-7.9,2.3s0.4,2.2,2.5,2.9c1.7,0.7,4,1.2,8.6,0.1C268.6,184.2,271.7,182.2,271.7,182.2
			L271.7,182.2z"/>
		<path class="st3" d="M277.3,186.6c0.4-1.8-0.7-3.1-0.7-3.1s-0.2,0.1-0.9,0.7c-0.6,0.6-1.6,1.7-3.4,2.6s-2.4,0.8-0.7-0.1
			s4.3-3.6,4.3-3.6l-0.7-0.3c-0.7-0.3-1.8,0.2-6.6,3.1c-4.8,2.9-7.6,3-7.6,3s2.1,2.6,8,2.4C274.9,191.2,277,188.4,277.3,186.6
			L277.3,186.6z"/>
		<path class="st3" d="M288.3,184.5c0,0-0.6,0.9-1.5,1.5s-3.2,0.9-3.2,0.9s-0.1,0.3-0.5,0.8c-0.4,0.6-1.4,2-2.5,2.7
			c-1,0.7-2.6,1.2-2.7,1s0.9-0.6,1.9-1.2c1-0.6,1.9-1.7,2.6-2.5c0.7-0.8-0.3-0.6-0.3-0.6s-1.2,0-2.3-0.1c-1.1-0.1-0.9,0-1.2,0.5
			s-0.8,1-1.6,2c-1,1.2-2,2.2-2.9,3.4c-0.6,0.8-0.2,1-0.2,1s0.3,0.5,2.9,0.8c1.6,0.2,3.3,0,5.2-1.1c1.1-0.7,2.3-1.7,3.5-3
			C288.5,187.3,288.3,184.5,288.3,184.5L288.3,184.5z"/>
		<path class="st3" d="M289.7,191.5c-0.6,0.8-1,1.2-1,1.2s0.4-1.4,0.8-2c0.2-0.3,0.4-0.7,0.6-0.9c-0.4-1-0.8-2-1-3.1
			c-0.3,0.9-1.2,3.6-2.3,5.4c-1.3,2.1-2.5,2.9-1.8,3.5c0.8,0.6,2.3,0.7,4-0.1c1.6-0.8,2.1-2.2,2.3-3.3c-0.3-0.4-0.6-0.9-0.8-1.4
			C290.4,190.8,290.1,191.1,289.7,191.5L289.7,191.5z"/>
		<ellipse class="st3" cx="289.3" cy="105.8" rx="1.2" ry="1.1"/>
		<path class="st3" d="M286.8,103.7c1.1,0,1.7-0.5,2.9-0.4c1.4,0.1,3.3,1,5.7,2.2c1.8,0.8,4.2,1.2,6.5,0.6c0.6-0.2,1.3-0.5,1.9-0.9
			c2.8-1.6,2.1-4.8,2.1-4.8c-2.1,1.5-4.7,2.3-7.1,2.2c0,0,0.2,0.1,0.6,0.6c0.4,0.4,1.2,0.9,0.9,1.1c-0.2,0.2-1.3-0.8-2.1-1.4
			c-0.9-0.6-2.1-1.5-4.3-2.2c-2.2-0.6-4.7-0.7-6.3,0.2c-1.6,0.9-1.8,2.1-1.6,2.5C286.2,103.6,286.5,103.7,286.8,103.7z"/>
		<path class="st3" d="M317.6,126.8c-0.5-0.1-1.4-0.3-2.5-1.3c-1.1-1.1-3.9-4.1-4.2-4.6c-0.3-0.6-0.2-1.1,0.6-1.4
			c0.8-0.3,1.3-1.3,1.3-1.3s-1.7-0.6-2.8-1.5c-1.1-0.8-3.8-3.2-4.2-3.8s-0.2-0.7,0.4-0.9c0.5-0.2,0.7-0.6,0.7-0.6s-1.2-0.8-2.4-1.7
			c-1.1-0.9-2.7-2.4-2.7-2.4c-1.7,0.7-4.4,0.4-5.9,0.1c-2.6-0.5-4.4-1.5-4.4-1.5s-0.1,0.4-0.4,1.2c-0.3,0.8-1.5,1.2-2.7,0.5
			c-1.2-0.8-0.9-2.5-0.9-2.5s-1-0.6-2.9-1.3s-3.6-0.8-5.2-0.1c-1.6,0.7-2.4,2.9-2.4,4.6c0,1.7,0.9,1,1.1,0.7
			c0.2-0.2,0.5-1.4,2.6-1.7c2-0.3,3.8,0.6,6.1,2.5c2.3,1.9,2.8,2,3.9,3.2c1.1,1.2,0.2,1.8-1.7,2.5s-4.5-0.6-4.6-0.6
			c-0.4,0.2,0.8,1.9,2.5,2.6c1.7,0.7,3.9,0.2,5.5-0.4c1.1-0.5,1.4,0,1.7,0.4c1.9,2,2.3,3.8,2.7,6c0.9-0.3,1.6-1.2,1.7-2
			c0.1-0.4,0.2-1.2,0.8-0.6c0.6,0.6,1.1,3.9,1.1,5.4s-0.5,3.5-0.5,3.5l0.5,0c0.3,0,0.8-0.4,1.6-0.8c0.7-0.4,0.8,0,0.8,0.9
			s0.3,2.4,1.4,5.2s2.7,3.7,2.7,3.7s0.3-0.6,0.6-1.6c0.3-1.1,0.5-3.3,0.5-5.1s-0.5-5.9-0.5-5.9s2.3,2.8,4.7,3.5
			c2.4,0.7,4.8,0.3,5.8-0.9C319.1,127.4,318.1,126.9,317.6,126.8L317.6,126.8z"/>
		<path class="st3" d="M302,134c0,0-0.7,1.6-1.1,2.2s-0.6,0.7-0.6,0.7s0.7,0.6,1.8,0.9c1.1,0.3,2,0.5,2,0.5s-1.2-1.6-1.6-2.8
			C302.1,134.4,302,134,302,134L302,134z"/>
		<path class="st3" d="M316.3,133.1c-0.4-0.9-0.6-1.4-0.6-1.4c-1.5,0.3-4.2-0.4-5.4-1.1c0,0,1.1,2.2,2.2,3c1.1,0.8,1.2,0.8,1.2,0.8
			s-1.1,0.2-2.6-1.3c-1.5-1.4-2.1-3.1-2.1-3.1s0.3,3.9-0.3,6.2s-0.7,2.7-0.7,2.7s3.1,0.5,6.6-0.4c3.5-1,3.7-1.3,3.7-1.3
			s0.4-0.1-0.1-0.8C317.7,135.7,316.6,134,316.3,133.1L316.3,133.1z"/>
		<path class="st2" d="M310,124.6c-1.1-1.2-1.2-1.5-1.2-1.5s-0.4,0.4-0.1,0.9c0.3,0.5,1.8,1.9,2.9,2.4c1,0.6,2.1,0.8,2.1,0.8
			l-0.1-0.2C313.7,127,311.1,125.9,310,124.6z"/>
		<path class="st2" d="M305.8,132.7c0,0-0.3-4.8-0.3-5.6s-0.5-0.5-0.5-0.5l-0.5,0.2c0,0,0.9,6.2,1,7.1c0.1,0.8,0.5,0.7,0.7,0.7
			C305.9,134.4,305.8,132.9,305.8,132.7L305.8,132.7z"/>
		<path class="st2" d="M299.2,111.7c-0.4-0.4-1.3-0.7-0.4,0.3c0.9,1,2,2.1,2.3,3.1c0.3,1,0.5,2.2,0,1.9c-0.6-0.3-1-0.3-1.5-0.8
			c-0.6-0.5-1.7-1.3-2.2-1.4c-0.5-0.1-1.3,0-0.6,0.7c0.7,0.7,1.4,1.4,2.6,2.3c1.3,0.9,2,1.3,2.6,1.8c0.7,0.5,1.3,0.9,1.3,0.9
			s-0.6-3.9-1.7-5.7S299.6,112.1,299.2,111.7z"/>
		<path class="st2" d="M277.9,177.9c-0.8,0.6-1.9,0.9-1.9,0.9s-0.5,0-0.5,0.2s0.6,0,1.2-0.1c0.6-0.1,1.4-0.7,1.7-0.9
			c0.3-0.2,0.7-0.5,0.6-0.9C279,176.6,278.7,177.3,277.9,177.9L277.9,177.9z"/>
		<path class="st2" d="M284.8,181.6c-0.2,0.2-1.5,1.2-1.5,1.2s-0.4,0.3-0.9,0.4c-0.4,0.2-0.6,0.4-0.6,0.4s0.1,0.1,0.6,0
			c0.5-0.1,1.9-1.1,2.3-1.5c0.4-0.4,0.6-0.5,0.5-0.7C285,181.3,285,181.4,284.8,181.6L284.8,181.6z"/>
		<path class="st2" d="M256.9,131.9c0.2,0.3,0.5,0.7,0.7,0.6c0.1-0.1,0-0.3-0.4-0.7c-0.3-0.4-0.5-0.6-0.5-0.6s-0.5-0.7-0.7-1
			c-0.3-0.3-0.7-0.4-0.2,0.2C256.3,131.1,256.6,131.6,256.9,131.9z"/>
		<path class="st2" d="M254.8,136.6c0.3,0.3,0.6,0.5,0.9,0.9s0.6,0.7,0.8,0.6c0.2-0.2-0.5-0.6-0.8-1c-0.3-0.4-0.6-0.6-0.9-0.9
			s-0.9-0.6-0.9-0.6S254.4,136.3,254.8,136.6L254.8,136.6z"/>
		<path class="st2" d="M255.5,144.1c0.5,0.6,1.3,0.7,1.4,0.5c0.1-0.2-0.1-0.4-0.5-0.6c-0.4-0.2-1.2-0.7-1.5-0.9
			c-0.4-0.2-0.7-0.5-1-0.8c-0.2-0.2-0.5-0.5-0.6-0.4c-0.1,0.1,0.7,1,1,1.1C254.6,143.1,255,143.5,255.5,144.1L255.5,144.1z"/>
		<path class="st2" d="M257.1,150.1c0-0.2,0.1-0.3-0.4-0.4c-0.4,0-1.1-0.1-1.1-0.1s-0.9-0.3-0.9-0.2c-0.1,0.2,0.7,0.5,1.1,0.6
			c0.3,0.1,0.7,0.2,0.9,0.3C256.9,150.4,257.1,150.3,257.1,150.1L257.1,150.1z"/>
		<path class="st2" d="M257.7,156.6c-0.9,0-1.7-0.2-1.8-0.1s0.4,0.4,0.9,0.5c0.5,0.2,1.4,0.2,2,0.2s0.7-0.1,0.7-0.4
			C259.5,156.6,258.7,156.6,257.7,156.6z"/>
		<path class="st2" d="M265.1,163.8c-0.1-0.1-0.5,0-1,0.1c-0.5,0.1-1.4,0.3-1.9,0.3s-1.6-0.1-1.6-0.1l-0.6,0.1c0,0.1,0.8,0.1,2,0.2
			c1.2,0.1,1.9-0.1,2.5-0.2C265,164.2,265.2,163.9,265.1,163.8L265.1,163.8z"/>
		<path class="st2" d="M268.1,168.9c-0.6,0.2-1,0.3-1.4,0.3c-0.4,0-1.5,0.2-1.5,0.2s-0.5,0.1-0.4,0.2c0.1,0.2,0.2,0,0.7-0.1
			c0.4-0.1,0.8,0,1.5,0c0.8,0,1.2-0.2,1.7-0.3c0.5-0.1,1-0.3,0.7-0.6C269.2,168.3,268.7,168.6,268.1,168.9L268.1,168.9z"/>
		<path class="st2" d="M274,172.7c-0.3,0.3-1.6,1.2-1.6,1.2s-0.2,0.2-0.7,0.4s-0.5,0.4-0.4,0.5s0.4-0.2,0.7-0.3s1.2-0.7,1.7-1.1
			c0.5-0.4,1.1-0.7,1-1C274.5,172.2,274.4,172.4,274,172.7L274,172.7z"/>
		<path class="st2" d="M264.2,122.9c0,0,0.1,0.3,1.1,1.5c1,1.3,0.5,0.1,0.2-0.3c-0.3-0.3-1.8-2.4-2.3-3c-0.5-0.6-0.6-0.3-0.3,0.1
			C263.2,121.6,264.2,122.9,264.2,122.9z"/>
		<path class="st2" d="M262,129.4c0.1-0.1-0.2-0.3-0.8-1c-0.6-0.7-1.8-2.2-1.8-2.2s-0.3-0.7-0.4-0.6c-0.1,0.1,0.4,1.2,0.9,1.6
			c0.5,0.5,1.1,1.4,1.4,1.8S261.9,129.6,262,129.4L262,129.4z"/>
		<path class="st2" d="M264.9,141.7c0-0.4-1.2-0.3-1.7-0.4c-0.5-0.1-1.5-0.3-1.5-0.3s-1.1-0.2-1.1-0.1c0,0.1,0.2,0.3,0.8,0.4
			c0.6,0.1,1.5,0.4,2.2,0.5S264.9,142.1,264.9,141.7L264.9,141.7z"/>
		<path class="st2" d="M262,135.1c0.8,0.6,1.3,0.9,1.7,1.1c0.4,0.2,0.7,0.5,0.9,0.3c0.2-0.3-0.2-0.4-0.8-0.7c-0.7-0.3-1-0.5-1-0.5
			s-0.4-0.2-0.7-0.4C261.8,134.7,261.3,134.5,262,135.1L262,135.1z"/>
		<path class="st2" d="M268.6,130.7c-0.5-0.4-0.9-0.6-0.9-0.6s-0.6-0.5-0.7-0.4c-0.1,0.2,0.7,0.7,1,1.1c0.4,0.3,1,1.3,1.4,1.1
			C269.8,131.7,269.1,131.1,268.6,130.7z"/>
		<path class="st2" d="M264.3,147.9c0,0-0.6,0.2-1.1,0.3s-0.4,0.3,0.3,0.3s1.1-0.2,1.8-0.3c0.7-0.1,1-0.2,0.9-0.5
			c-0.1-0.2-0.5-0.2-0.8-0.1S264.3,147.9,264.3,147.9z"/>
		<path class="st2" d="M265.5,154.1c-0.1,0.1,0.5,0,0.9-0.1c0.4-0.1,1.2-0.6,1.7-0.7c0.5-0.1,0.5-0.2,0.5-0.5c0-0.3-0.5-0.1-1.1,0.1
			c-0.6,0.2-1.4,0.8-1.4,0.8S265.5,153.9,265.5,154.1L265.5,154.1z"/>
		<path class="st2" d="M273.5,157.8c0.6-0.3,0.7-0.6,0.5-0.7c-0.2-0.2-0.4-0.1-0.8,0.2c-0.4,0.4-1.3,1-1.3,1s-0.4,0.2-0.8,0.3
			s-0.7,0.4-0.6,0.6c0.1,0.2,0.8,0,1.2-0.3C272,158.6,272.9,158.2,273.5,157.8L273.5,157.8z"/>
		<path class="st2" d="M277.2,162.8c0.2-0.2,0.9-0.4,1.2-0.6c0.3-0.2,0.5-0.9,0.2-1s-0.4,0.3-0.9,0.7c-0.5,0.4-2.3,1.6-2.3,1.6
			l-0.5,0.2c-0.5,0.2-0.3,0.3,0.1,0.3c0.4-0.1,0.7-0.1,1.2-0.4C276.8,163.1,277,163,277.2,162.8z"/>
		<path class="st2" d="M282.8,167.5c0.5-0.2,1.2-0.8,1.5-1.1c0.3-0.3,0.7-0.7,0.5-0.9c-0.2-0.2-0.5,0.1-0.9,0.4
			c-0.4,0.4-1.4,1.4-1.4,1.4s-0.1,0-0.7,0.5c-0.6,0.4,0,0.4,0.2,0.2C282.2,167.8,282.4,167.7,282.8,167.5L282.8,167.5z"/>
		<polygon class="st3" points="305.6,96.6 307.8,95 305.2,94.3 303.5,95.7 		"/>
		<ellipse class="st2" cx="312.8" cy="94.7" rx="2.1" ry="2.1"/>
		<ellipse class="st3" cx="312.8" cy="94.3" rx="1.3" ry="1.2"/>
		<path class="st3" d="M308.3,87.6c0.6,0.2,1.3,0.1,1.3,0.1s0.2-1-0.3-1.4c-0.5-0.5-1-0.8-1.3-1.1c-0.3-0.3-0.4-0.4-0.4-0.4
			s0,0.8,0,1.3C307.5,86.6,307.7,87.4,308.3,87.6L308.3,87.6z"/>
		<ellipse class="st3" cx="309.4" cy="88.7" rx="0.4" ry="0.4"/>
		<path class="st3" d="M306.5,88.2c-0.2,0.2-0.5,0.6-0.5,0.6s0.4,0,0.8,0.3c0.4,0.3,0.8,0.5,1.2,0.4c0.4-0.1,0.6-0.5,0.5-0.7
			c-0.1-0.3-0.3-0.6-1-0.8C306.9,87.7,306.7,88,306.5,88.2z"/>
		<path class="st3" d="M308,90.8c-1.3,0.1-3.1-1.4-3.1-1.4c-0.2,1.2-0.9,1.8-2,2l0.1,0.1c0,0,1.1,0.5,2.3,0.7c0.6,0.1,1.1,0,1.7-0.1
			c0.7-0.1,1.6-0.4,2-0.6c0.8-0.5,0.6-1.8,0.6-1.8S309.4,90.6,308,90.8L308,90.8z"/>
		<path class="st3" d="M302.8,89.4c-0.6-0.2-1.4-0.6-1.7-0.6c-0.3,0-0.8-0.1-0.8,0.5c0.1,0.6,0.7,1,1.4,1c0.6,0,1-0.2,1.3-0.4
			C303.4,89.7,303.3,89.6,302.8,89.4z"/>
		<path class="st3" d="M298.5,87.1c-0.6-0.4-1.1-0.6-1.1-0.6s-0.4,1-0.2,1.7c0.2,0.6,0.7,0.8,1.3,0.8c0.6,0,1.4-0.3,1.2-0.7
			C299.4,87.9,299.1,87.5,298.5,87.1z"/>
		<ellipse class="st3" cx="299.1" cy="90" rx="0.5" ry="0.3"/>
		<path class="st3" d="M300.4,84.9c-0.4-1.8-0.3-3.7,1.4-6.2c1.7-2.5,4.6-3.5,4.6-3.5s0.1-0.2,1-1.2c0.9-1,2.8-2.2,2.8-2.2
			s-2.2,0.5-3.5,0.9c0,0,0,0,0,0.1c0,0.9-0.7,1.5-1.5,1.5c-0.3,0-0.6-0.1-0.9-0.3c-0.7,0.1-2.9,1.5-3.5,2c0.1,0.2,0.2,0.5,0.2,0.8
			c0,0.8-0.7,1.5-1.5,1.5c-0.2,0-0.5-0.1-0.7-0.2c-0.1,0.1-0.1,0.2-0.2,0.3c-0.5,0.9-0.8,1.7-1.1,2.5c0.4,0.3,0.6,0.8,0.6,1.3
			c0,0.8-0.6,1.5-1.3,1.5c0,0.5,0,0.8,0,1c0.1,0.5,0.2,0.8,1.1,1.1c0.9,0.2,2.1,1.8,2.1,1.8C300.2,87.8,300.8,86.6,300.4,84.9
			L300.4,84.9z"/>
		<path class="st3" d="M305.7,73.5c0.3-0.3,0.4-0.7,0.1-0.9c-0.2-0.2-0.7-0.2-1,0.1c-0.3,0.3-0.4,0.7-0.1,0.9
			C305,73.8,305.4,73.8,305.7,73.5z"/>
		<path class="st3" d="M300.1,77.3c0.4-0.3,0.4-0.8,0.1-1.1c-0.3-0.3-0.8-0.2-1.2,0.1c-0.4,0.3-0.4,0.8-0.1,1.1
			C299.2,77.7,299.7,77.6,300.1,77.3z"/>
		<ellipse class="st3" cx="296.7" cy="82.1" rx="0.9" ry="0.9"/>
		<path class="st3" d="M315.5,70c-0.5,0.1-1.3,0.4-2.5,1h0c0.9,0,1.5,0.6,1.5,1.3c0,0.7-0.8,1.5-1.7,1.5s-1.5-0.8-1.5-1.5
			c0-0.2,0-0.3,0.1-0.5c-0.4,0.2-0.8,0.5-1.2,0.8c-2.8,1.9-3.4,2.8-4.8,5.3c-1.4,2.6-1.9,5.4-1.3,7c0.6,1.6,2.8,2,2.8,2
			s-0.2-0.2-0.3-0.6c0-0.3,0.1-0.5,0.2-1.1c0.1-0.6,0-1.4,0-1.4s0.5-0.1,0.8,0.3c0.3,0.3,0.7,0.7,1,1.1c0.3,0.3,1,1,1,1
			s0.4-0.6,0.4-1.4c0-0.7-0.5-1.6-0.6-2.9s0.6-3.6,1.9-5.4c1.3-1.7,3.7-3.3,4.4-3.6c0.7-0.3,0.8-0.9,0.9-1.2c0-0.3,0.1-0.5,0.2-1.3
			C317,69.8,316.3,69.9,315.5,70L315.5,70z"/>
		<path class="st3" d="M312.8,73c0.5,0,0.9-0.4,0.9-0.8c0-0.4-0.4-0.7-0.9-0.7c-0.5,0-0.9,0.3-0.9,0.7S312.3,73,312.8,73z"/>
		<path class="st3" d="M316.9,89.2c0.7,0.3,1.4,0.1,1.8-0.1c0.4-0.2,0.5-0.8,0.1-1.2c-0.4-0.3-1-0.3-1.4-0.1
			c-0.4,0.2-1.3,0.8-1.3,0.8S316.2,89,316.9,89.2z"/>
		<path class="st3" d="M319,90c-0.2,0.4-0.4,0.6-1.2,0.6s-1.5,0-2-0.5c-0.5-0.5-0.8-1.2-0.8-1.2l-0.8,0c0,0-0.3,1.2-0.6,1.5
			c-0.4,0.3-1.7,0.4-2.2,0s-1.1-0.9-1.2-0.9s0,0.5,0.6,1c0.6,0.5,1,0.8,1.9,0.8h5.3c0,0,1.1,0.1,1.4-0.6c0.3-0.6,0.3-1.1,0.2-1.2
			C319.4,89.4,319.3,89.6,319,90L319,90z"/>
		<path class="st3" d="M311,89.1c0.8,0.4,1.2,0.2,1.5-0.2c0.3-0.4,0.3-0.5,0.3-0.5s-0.8-0.3-1.1-0.5c-0.4-0.2-0.6-0.4-1-0.4
			c-0.4,0-0.4,0.1-0.4,0.1S310.2,88.7,311,89.1L311,89.1z"/>
		<ellipse class="st2" cx="307.1" cy="81.2" rx="1.8" ry="1.8"/>
		<path class="st2" d="M310.2,75.1c-0.7-0.5-1.8-0.3-2.3,0.4c-0.6,0.7-0.5,1.7,0.2,2.2c0.7,0.5,1.8,0.3,2.3-0.4
			C311,76.6,310.9,75.6,310.2,75.1z"/>
		<ellipse class="st3" cx="307" cy="81" rx="1" ry="1"/>
		<path class="st3" d="M309.5,75.3c-0.5-0.1-1,0.1-1.3,0.5c-0.2,0.4,0,0.8,0.6,1C309.9,77,310.5,75.6,309.5,75.3L309.5,75.3z"/>
	</g>
	<g>
		<path class="st3" d="M282.3,212.7c0,0-2.7,1.3-3.6,1.5c-0.9,0.2-1.1,0.2-1.1,0.2s-1.9,1.7-3.2,2.5c-1.4,0.8-3.1,1.5-4.7,1.6
			c-2.1,0.2-8,0.2-10.7,0.1s-4.3,0.5-5.4,1.8c-1.1,1.3-1.4,3.1,0,4.5s3,0.7,3.6-0.2c0.5-0.9,0.3-2,0-2.5c-0.2-0.5,0.5-0.7,1.2-0.7
			c0.7,0,2,0.1,3.1,0.2c1.1,0.2,3.1,0.8,4,1.3c0.9,0.5,0.4,0.5-0.2,0.4s-1.3-0.3-2.3-0.7c-1.1-0.4-2-0.6-2.6-0.6
			c-0.7,0-0.4,0.3-0.3,0.6c0.1,0.2,0.5,0.8,0.6,1.1c0.1,0.3-0.2,1.3-0.2,1.3l0.3,0.6c0,0,0.4-0.6,0.5-1c0.1-0.3,0-1,0.1-1.3
			s0.7-0.3,1.1,0.2c0.4,0.5,0.9,1.1,1.2,2.4c0.2,1.3-0.2,2.2-0.2,2.2s0.5,0.4,0.6,0.7c0.1,0.3-0.1,1.5-0.1,1.5s0.4,0.2,0.7-0.5
			c0.3-0.7,0.7-1.9,0.8-2.4c0.1-0.4,0.4-1.2,0.9-0.6s0.9,1.3,1,1.7c0.1,0.4,0.1,0.7,0.1,0.7s1.2-1.2,1.6-1.8s1.2-1.7,2.4-2.6
			c1.1-0.9,3.1-2.8,4.1-3.5c1-0.6,3.4-2,4.2-2.4s0.9-0.5,1-1.8c0.1-1.3,0.8-2.5,1.1-3.4C282.3,213,282.3,212.7,282.3,212.7
			L282.3,212.7z"/>
		<path class="st3" d="M238.5,163.5c0-0.2-0.5-1-0.6-1.4c-0.1-0.4-0.5-0.2-0.5-0.2s-0.9,0.5-1.5,0.7s-0.7-0.1-0.8-0.4
			c-0.1-0.3-0.2-1.4-0.3-2.1c-0.1-0.7-0.3-0.7-0.5-0.6c-0.3,0.1-1.1,0.4-1.6,0.6c-0.6,0.2-0.4,0.5-0.2,0.8c0.2,0.3,0.8,1.6,1.1,2.1
			c0.3,0.5,0,0.7-0.3,0.8c-0.3,0.2-0.8,0.2-1.5,0.4s-0.6,0.4-0.6,0.6c0.1,0.2,0.5,1.1,0.8,1.6c0.2,0.4,0.5,0.1,0.5,0.1
			s0.7-0.6,1.3-0.9c0.6-0.3,0.6-0.2,0.8,0.2c0.2,0.4,0.8,2.8,1,3.2c0.1,0.4,0.4,0.4,0.7,0.3c0.3-0.1,0.7-0.2,1.1-0.3
			c0.4-0.1,0.5-0.8,0.5-0.8s-1.3-2.4-1.7-3c-0.4-0.6,0-0.7,0.3-0.8c0.3,0,1-0.2,1.7-0.3C238.7,164.1,238.5,163.7,238.5,163.5
			L238.5,163.5z"/>
		<path class="st3" d="M253.4,227.9c-0.1-0.6,0-1.1-0.4-1.6c-0.4-0.4-1-1.3-1.2-2c-0.2-0.7,0.2-1,0.1-1.4c-0.1-0.4-0.6-0.4-1.1,0
			c-0.5,0.4-1.2,0.8-1.2,2.1c0,1.3,0.5,2.8,2.2,3.3C253.5,228.9,253.5,228.5,253.4,227.9L253.4,227.9z"/>
		<path class="st3" d="M255.1,227.3c0,0-0.4-0.2-0.5,0.1s-0.1,0.5,0.3,1.2s0.8,0.9,1.3,1.2c0.5,0.3,0.2-0.3,0.1-0.5
			c-0.1-0.2,0-0.5-0.1-0.6c-0.1-0.2-0.2-0.4-0.2-0.9C256,227.3,255.1,227.3,255.1,227.3L255.1,227.3z"/>
		<path class="st3" d="M257.3,233.3c0.3-0.5,0.6-0.6,1.4-1s2.3-0.6,2.8-0.6c0.5,0,1.6-1,1.5-2c-0.2-1-0.9-1.4-1.5-1.5
			s-1.2-0.1-1.4,0.2c-0.2,0.3-0.6,0.7-1.3,0.9s-0.8,0.5-1.2,0.6c-0.4,0.1-0.1,0.4-0.5,0.7c-0.4,0.3-0.9,0-1.4-0.2
			c-0.6-0.2-0.6-0.3-1.2-0.3c-0.6,0-2.3-0.1-2.3-0.1s-0.1,0-0.4,0c-0.4,0-0.4,0.1-0.6,0.5c-0.2,0.4,0,1.4,0.4,1.9
			c0.4,0.5,1.7,0.7,2.6,1c0.9,0.3,1.3,0.4,2,0.5C256.9,234,257,233.8,257.3,233.3L257.3,233.3z"/>
		<path class="st3" d="M265.5,234.1c0.7-0.5,0.3-1.3,0.1-1.8c-0.2-0.5-1.1-0.6-1.6-0.6s-0.8,0-1,0.2c-0.3,0.2-0.6,0.6-1.4,0.8
			c-0.7,0.2-1.3,0.5-2.3,0.9c-1,0.4-1.3,1.1-1.7,1.3c-0.4,0.3-1.3,0-1.3,0s-0.6-0.2-0.8,0c-0.2,0.2,0,0.5,0.4,0.9
			c0.4,0.4,1.2,0.4,2,0.7c0.9,0.3,1,0.1,1.4-0.2c0.3-0.2,0.6-0.7,1.2-1.1c0.6-0.4,1.9-0.4,2.5-0.5
			C263.6,234.8,264.8,234.6,265.5,234.1L265.5,234.1z"/>
		<path class="st3" d="M265.5,231.1c0.3,0.3,0.6,0.6,0.9,0.2c0.3-0.4,0.7-1.3,0.4-1.9c-0.3-0.5-0.7-1-0.7-1s-0.5,1.5-0.7,1.9
			C265.1,230.8,265.2,230.8,265.5,231.1L265.5,231.1z"/>
		<path class="st3" d="M262.7,226.4c0-0.9-0.6-1.9-0.6-1.9s-0.2,0.8-0.6,1.5c-0.4,0.7-0.7,1.1-0.7,1.1s0.9,0.2,1.2,0.2
			S262.7,227.3,262.7,226.4L262.7,226.4z"/>
		<path class="st3" d="M257.7,228.3c0.9-0.2,1.4-0.6,1.8-0.9s0.6-1.2,0.4-1.7c-0.3-0.5-0.9-1-1.2-1h-0.5c0,0-0.3,0.9-0.6,1.3
			c-0.4,0.4-0.8,0.7-0.8,1.3C256.9,227.9,256.8,228.5,257.7,228.3L257.7,228.3z"/>
		<path class="st3" d="M259.6,224c0-0.4-0.1-0.9-0.4-1.2c-0.3-0.3-0.5-0.5-0.5-0.5s-0.1,0.7-0.1,1c-0.1,0.4-0.1,0.4-0.1,0.4
			s0.3,0.3,0.5,0.4C259.2,224.3,259.6,224.5,259.6,224L259.6,224z"/>
		<path class="st3" d="M248.1,200.2l0.6-4c-0.5-4-2.5-7.7-4.2-10.3c-1.6-2.6-3.3-6.6-4.1-8.8c-0.7-2.2-1.2-5.1-1.2-6.7
			c0-1.6,0.7-2.3,0.7-2.3s0.3-0.4,0-0.7c-0.3-0.3-0.7,0-1.1,0.4s-0.9,1.2-1,1.7c-0.2,0.6-0.2,0.8-0.2,0.8s-0.8-0.2-2.2-0.1
			c-1.3,0.1-2,0.2-2,0.5c0,0.3,0.2,0.5,1.1,0.9c1,0.4,1.6,0.6,2.1,1.2c0.5,0.6,1.7,3.5,2.1,4.9c0.4,1.4,1.2,5.2,1.5,8.1
			s1.3,6.6,2.7,9.6C243.4,196.5,246,201.2,248.1,200.2L248.1,200.2z"/>
		<path class="st3" d="M250.5,207.2c-0.9,0.5-0.9,4.2-0.5,6.2c0.4,1.9,2.3,4.4,2.9,5c0.6,0.6,0.7,0.6,1,0.5c0.3-0.2,0.4-0.2,0.4-0.2
			s0.8-0.3,1.4-0.7c0.6-0.5,0.4-1.7,0.3-2.7c-0.1-1.1-0.9-3.2-2.4-5.6C252.2,207.2,251.4,206.7,250.5,207.2L250.5,207.2z"/>
		<path class="st3" d="M251.5,204.2c0-1.2-1.1-2.1-2.3-2.1c-0.6,0-1.1,0.1-1.4,0.4c-1.2,1.1-0.5,3.9,1.3,3.9c0.6,0,1.4-0.1,1.9-0.6
			C251.4,205.4,251.5,204.8,251.5,204.2L251.5,204.2z"/>
		<path class="st3" d="M269.2,239.3c-0.5-0.1-0.8-0.3-1.5-0.8c-0.7-0.5-1.9-1.5-2.1-2c-0.2-0.5-0.2-0.5-0.9-0.3
			c-0.7,0.2-1.7,0.2-2.4,0.2c-0.7,0,0.1,0.9,0.6,1.6c0.5,0.8,0.3,3.4,0.3,3.4s0,0.2-0.1,0.6c-0.1,0.4,0,0.6,0.2,0.7
			c0.2,0.1,0.3-0.1,0.8-0.7c0.5-0.6,1.5-2.2,1.5-2.2s0.1,0,0.9,0.2s2.1,0.1,2.8-0.1C270,239.9,269.7,239.4,269.2,239.3L269.2,239.3z
			"/>
		<path class="st3" d="M266.1,241.3c-0.3-0.1-0.5-0.1-0.7,0.1c-0.2,0.2-0.3,0.7-0.4,0.9c-0.1,0.2-0.1,0.4,0.1,0.6
			c0.2,0.2,0.5,0.4,0.5,0.4s0.3,0.3,0.6,0.5c0.3,0.1,0.3-0.3,0.3-0.6c0-0.3,0.2-0.9,0.2-1.3S266.5,241.4,266.1,241.3L266.1,241.3z"
			/>
		<path class="st4" d="M396.6,216.1c-0.8-0.2-1.2-0.5-1.2-0.5s-0.4,0-0.6,0.5c-0.3,0.5-1.4,1.2-1.4,1.2s-1.5,0.4-1.7,1.4
			c-0.2,1,0.5,1.4,1.2,1.3c0.7-0.1,2.5-0.5,3.2-1.4c0.8-0.9,0.9-1.4,1-1.8C397.4,216.4,397.4,216.3,396.6,216.1L396.6,216.1z"/>
		<path class="st4" d="M399,207.9c-0.5-2.3-2-5.2-4.9-6.6c0,0-1.1,3.8-1.4,5c-0.3,1.2-0.3,1.2,0.6,1.4c0.9,0.2,3.9,0.9,4.5,1
			S399.3,209.4,399,207.9L399,207.9z"/>
		<path class="st4" d="M385.3,205.7c0.7,0.1,0.6-0.2,0.8-1.1c0.2-0.9,1.4-5.5,1.4-5.5s-3-0.1-5.7,1.2c-2.6,1.3-3.8,3.6-3.8,3.6
			s0.7,0.3,2.5,0.7C382.4,205,384.6,205.6,385.3,205.7L385.3,205.7z"/>
		<path class="st4" d="M378.3,212c-1.1-0.2-1.5-0.3-1.5-0.3s0.7,2.6,1.8,4c1.1,1.4,2.4,2.2,4.7,2.2c2.3,0,4.1-1.2,4.3-2.2
			c0.3-1,0.8-1.8,0.8-1.8s-4.2-0.6-5.9-1C380.7,212.5,379.3,212.2,378.3,212L378.3,212z"/>
		<path class="st3" d="M377.5,210.3c1,0.2,9.6,1.9,10.3,2c0.7,0.2,1.3,0.3,1.5,0.1c0.2-0.2,0.3-0.3,1.1-0.6c0.8-0.3,0.7-1,0.7-1
			s0.2-0.7,0.3-1.4c0.1-0.7,0.5-1,1.3-0.1c0.8,0.9,1,2.2,1.2,3.4c0.2,1.2,2.1,1.6,2.9,1.7c0.8,0.1,1.1-0.1,1.6-0.8
			c0.4-0.7,0.7-2.2,0.8-3.1c0.1-0.9,0-0.8-0.9-1.1c-1-0.2-5.4-1.2-6.2-1.4c-0.8-0.2-0.6-0.7-0.5-1.3s1.9-6.2,1.9-6.2
			c-1.2-0.8-3-1.2-5.1-1.5c0,0-1.3,5.7-1.5,6.6c-0.2,0.9-0.8,0.9-1.7,0.7c-0.9-0.2-7.5-1.7-7.5-1.7s0,0-0.5,1.2
			c-0.5,1.2-0.8,2.7-0.8,3.5S376.5,210.1,377.5,210.3L377.5,210.3z"/>
		<path class="st3" d="M400.2,215.5c-0.9-0.6-1.5-0.7-2,0.3c-0.5,1.1-0.5,2.6-1.6,3.7c-1.1,1.1-2.8,2.3-4.4,2.1
			c-1.6-0.1-2.5-0.5-2.1-2.3c0.4-1.8,2.8-2.4,3.4-3.4s0.4-2.1-0.4-2.8c-0.8-0.7-2.1-0.9-2.4-0.6c-0.3,0.2-1.3,1.1-1.8,2.4
			c-0.5,1.4-0.8,2.5-1.9,3.4c-1.1,0.9-3.8,1.8-6,1.3c-2.1-0.5-2.9-1.1-3.7-3.2c-0.8-2.1-1.8-5.6-2.2-6c-0.4-0.4-1-0.7-1.9,0
			c-0.9,0.6-1,1.6-1.1,2.4c-0.1,0.8,0,1.6,0.9,2.8c0.9,1.1,1.9,2.2,2.2,3.4c0.3,1.1,1.4,2.9-0.1,3c-1.5,0.1-2.1,0.1-3.2-1
			c-1.1-1.1-5.4-4-6.6-5c-1.2-1-1.7-1.3-1.7-1.3c-2,0-4-0.9-6-2.2c0,0,1.1,2.9,1.4,4.1c0.2,1.1,0.2,1.7,0.2,1.7s4.4,2.2,6.1,3.1
			c1.7,0.8,5.2,2.8,6.9,3.9c1.7,1,3.1,2.6,6.1,2c3-0.6,9-2.4,11-3c1.9-0.6,7.3-1.9,9.3-3.3s2.2-1.3,2.5-2.7
			C401.4,216.9,401.1,216.1,400.2,215.5L400.2,215.5z"/>
		<path class="st3" d="M388.7,194.9c0.3,0,0.5-0.1,1.5-0.2c1-0.1,0.6,0.8,0.5,1.2c-0.2,0.4-0.5,1.1-0.9,1.8
			c-0.4,0.7,0.1,0.8,0.4,0.9c0.3,0.1,0.7,0.2,1.5,0.4c0.8,0.2,0.7-0.4,0.7-0.7c0-0.3,0.1-1.9,0.2-2.5c0.1-0.6,0.6-0.4,0.8-0.3
			s0.7,0.4,1.1,0.6c0.4,0.2,0.6,0,0.7-0.3s0.3-0.7,0.5-1.3c0.2-0.6-0.2-0.5-0.6-0.5c-0.4,0-1,0-1.6,0c-0.7,0-0.2-0.7-0.2-0.7
			s0.5-0.8,0.9-1.4c0.4-0.6,0.2-0.7-0.1-0.8c-0.4-0.1-1.5-0.4-1.9-0.5c-0.3-0.1-0.5,0-0.5,0.2s0,1.4,0,1.8c0,0.4,0,0.7-0.6,0.7
			c-0.6,0-0.9-0.3-1.4-0.8c-0.5-0.5-0.7-0.3-0.7-0.1c0,0.2-0.4,1.7-0.5,2.1C388.1,195,388.4,195,388.7,194.9L388.7,194.9z"/>
		<path class="st3" d="M391.9,209.4c0,0,0,1.2-0.2,1.6c-0.1,0.4-0.4,1,0.1,1.2c0.5,0.2,0.9,0.4,1.2,0.3c0.3-0.1,0.2-0.6,0-1.1
			c-0.2-0.5-0.4-1.1-0.8-1.5C391.9,209.4,391.9,209.4,391.9,209.4L391.9,209.4z"/>
		<path class="st3" d="M398.9,214c0.2,0.4,0.5,0.4,0.7,0.5c0.2,0.1,0.6,0.1,0.6-0.4s0.1-1-0.3-1.5c-0.4-0.5-0.5-0.8-0.8-0.1
			C399,213.3,398.8,213.7,398.9,214L398.9,214z"/>
		<path class="st3" d="M374.5,209.4c0.2,0,1,0.3,1,0.3s0-1.1,0.2-1.9c0.2-0.8,0.5-1.3,0.2-1.3s-0.4,0.2-0.6,0.6
			c-0.2,0.3-0.8,0.4-1,1.3C374,209.3,374.3,209.3,374.5,209.4L374.5,209.4z"/>
		<circle class="st2" cx="379.3" cy="207.4" r="1.6"/>
		<circle class="st2" cx="383.6" cy="208.5" r="1.6"/>
		<circle class="st2" cx="396.4" cy="211.2" r="1.6"/>
		<circle class="st2" cx="388" cy="209.6" r="1.6"/>
		<circle class="st2" cx="389.2" cy="205.7" r="1.6"/>
		<circle class="st2" cx="390.3" cy="201.9" r="1.6"/>
		<circle class="st3" cx="379.4" cy="207.3" r="0.8"/>
		<circle class="st3" cx="383.8" cy="208.4" r="0.8"/>
		<circle class="st3" cx="396.5" cy="211.1" r="0.8"/>
		<circle class="st3" cx="388.2" cy="209.4" r="0.8"/>
		<circle class="st3" cx="389.3" cy="205.6" r="0.8"/>
		<circle class="st3" cx="390.4" cy="201.8" r="0.8"/>
	</g>
	<g transform="matrix(-1,0,0,1,639.96566,0)">
		<g id="g4017_1_">
			<path class="st3" d="M339.7,239.4c-0.8-0.5-1.6-1.1-3.5-2.4c-1.9-1.3-2.6-2.7-2.6-2.7h0.7c0.4,0,0.7-0.5,0.7-1
				c0-0.5,0-1.5-0.1-2.8c-0.1-1.2,0.2-2.2,0.2-2.2s0.8,0.8,2,1.4c1.2,0.6,1.7,0.3,1.7,0.3l0.3-1.2c0,0,0.5,1.1,1.3,2.4
				c0.8,1.3,2.8,2.8,4.3,3.9c1.5,1.1,3.1,2.3,4.3,2.7c1.2,0.4,0.5,1,0.5,1s-1.2,1.2-4.3,1.8S340.5,239.9,339.7,239.4L339.7,239.4z"
				/>
			<path class="st3" d="M328.8,238.2c1.1-0.1,1.8-0.5,2-1.7c0.1-0.8-0.1-3.8-0.1-3.8s0.4,0.3,0.8,0.8c0.4,0.5,1.4,0.6,1.4,0.6
				s0.1,0.4,0.6,1.1c0.4,0.7,1,1.5,2,2.2c1.1,0.7,2.3,1.5,3.1,2.1c0.8,0.7,1.8,1.5,2.8,2.1c1.1,0.6,2,1.5,2.4,3.1
				c0.4,1.6,0.1,2.1-1.1,2c-1.2-0.1-1.4,0-3.4-0.5c-2-0.5-4.8-2.7-6.9-4.1C330.3,240.8,328.8,238.2,328.8,238.2L328.8,238.2z"/>
			<path class="st3" d="M323.3,240c0,0,0.8-1.1,1.1-2.3c0.3-1.2,0.9-3.6,0.9-3.6s0.3,0.8,1,2.2c0.7,1.4,1.8,1.8,1.8,1.8
				s0.1,0.6,1,1.8c1,1.2,2.4,2.3,3.8,3.2c1.4,0.8,3.3,2,4.3,3.4c1,1.4,1.1,2.9,0.6,3.6c-0.5,0.6-1.1-0.1-2.1-0.6s-3.7-0.9-7.4-2.9
				C324.5,244.6,323.3,240,323.3,240L323.3,240z"/>
			<path class="st3" d="M321.6,248.4c-1-1.5-1.2-5.3-1.2-5.3s0.4-0.3,0.9-0.7c0.5-0.4,1.5-1.9,1.5-1.9s0.6,1.3,1.3,2.5
				c0.7,1.2,1,1.6,2.4,2.9c1.4,1.3,3.3,2.6,4.1,3.9c0.8,1.4,0.4,4.1-0.2,5.1c-0.5,0.9-1.3,0.6-2.1-0.1c-0.8-0.8-1-1-2.4-2.1
				S322.7,250,321.6,248.4L321.6,248.4z"/>
			<path class="st2" d="M334,216.9c-0.6-1.1-1.2-2.5-1.7-3.2c-0.5-0.7-0.9-1.5-0.9-1.5s1.3,1.2,1.9,2.1c0.5,0.9,0.9,1.7,1.1,2.6
				C334.7,217.9,334.5,218,334,216.9z"/>
			<path class="st2" d="M328.7,217.9c-0.2-0.7-0.3-1.2-0.3-1.2s-0.2-0.7-0.1-0.8c0.1,0,0.7,0.4,1.1,1.7c0.4,1.2,1,3,0.8,3.1
				C330,220.7,328.9,218.6,328.7,217.9L328.7,217.9z"/>
			<path class="st2" d="M324.5,221.2c-0.2-0.5-0.2-0.6-0.2-0.6s-0.4-1.4-0.4-1.7c0-0.3,0.1-0.6,0.5,0.1c0.4,0.7,0.4,1.4,0.5,1.7
				c0.1,0.3,0.5,1.4,0.4,1.5C325,222.4,324.7,221.8,324.5,221.2L324.5,221.2z"/>
			<path class="st2" d="M337.5,234l0.6-0.3c0,0,0.3,0.5,0.8,1c0.5,0.5,1,0.7,1.4,1.2c0.4,0.5,0.9,1.1,1.8,1.5s1.2,0.6,1,0.7
				c-0.2,0.1-0.8-0.2-0.8-0.2s-0.3,0-1.3-0.6s-1.3-1-2-1.5S337.5,234,337.5,234z"/>
			<path class="st2" d="M332.9,239.4c-0.4-0.4-0.8-0.7-0.6-0.9c0.2-0.2,0.5-0.2,0.9,0.1c0.4,0.3,1.4,1.3,1.9,1.7
				c0.5,0.4,0.9,0.7,1.3,1c0.5,0.4,1.5,0.9,2,1.2c0.5,0.3,0,0.3,0,0.3s-0.4-0.2-0.8-0.3c-0.4-0.1-1.6-0.7-1.6-0.7s-0.5-0.2-1.1-0.7
				C334.3,240.7,333.3,239.8,332.9,239.4L332.9,239.4z"/>
			<path class="st2" d="M327.7,243c-0.3-0.7,0-0.5,0.6-0.3c0.6,0.2,1.8,1.6,2.6,2.1s1.3,0.7,2,1c0.6,0.3,0.6,0.5,0.6,0.6
				c0,0.1-0.3,0.1-0.5,0c-0.3-0.1-1.1-0.6-1.1-0.6s-0.4-0.1-0.7-0.1c-0.3,0-0.8-0.4-1.6-1C328.7,244.1,328,243.7,327.7,243
				L327.7,243z"/>
			<path class="st2" d="M325.3,247.9c0.9,0.6,2.5,1.8,2.9,2.7c0.4,0.8,0.7,1.4,0.6,1.6c-0.1,0.1-0.6-0.1-0.8-0.5
				c-0.2-0.3-0.6-0.8-0.6-0.8s-1.6-1.6-2.2-1.9s-1.5-1.4-1.8-2c-0.2-0.6-0.1-1-0.1-1S324.3,247.3,325.3,247.9L325.3,247.9z"/>
			<path class="st6" d="M350,113.3c0.8-0.5,3.1-1.5,5.6-1.7c2.4-0.2,4.3,0.2,6.3,0.7c1.4,0.4,2.6,0.4,3.8,0.1c1.7-0.5,3.1-2,3.5-4
				c0,0,1.6,2.1,0,4.3c-0.8,1.1-1.8,1.7-2.9,2c-3.4,0.7-6.7-1.4-9.6-1.6c-2.7-0.2-4.9,1.5-4.9,1.5s-0.6,0.5-1.5,0
				C349.4,114.2,349.1,113.8,350,113.3z"/>
			<path class="st3" d="M359.8,211.7c0,0,0.3,0,0.8-0.1c0.5-0.1,1.5-0.4,1.8-0.5c0.3-0.1,0.8-0.2,1.1,0.2c0.3,0.3,2.7,1.8,2.7,1.8
				h-4C360.7,213,359.8,211.7,359.8,211.7L359.8,211.7z"/>
			<path class="st3" d="M348.4,211v-0.4l0.5-1.2c0,0,0.6,0.4,1.2,1c0.8,0.8,1.6,2,2,2.5c0.7,0.9,1.6,1.7,0.8,0.3
				c-0.8-1.4-1.1-2-1.7-2.9c-0.6-0.9-1.1-1.3-1.1-1.4c0.1-0.1,0.6-0.1,2.3-0.4c1.7-0.2,2.7-0.9,3.5-1.3c0.8-0.5,2.2-1.2,2.2-1.2
				s2.9,1.2,4,1.5s1.7,0.4,0.7,0.9c-1.1,0.5-1.9,0.7-2.5,1c-0.5,0.3-2.1,0.8-3.1,0.8c-1,0-2.6,0-2,0.7c0.6,0.7,1.4,2,2.1,3.9
				c0.7,2,0.7,3.7,0.7,4.6s-0.1,1.7-0.1,1.7s-1.2-1.3-4.4-3.3c-3.2-2-4.4-2.7-5-2.9c-0.6-0.3-0.9-0.3-0.8-1
				C348.1,213.2,348.4,211.3,348.4,211L348.4,211z"/>
			<path class="st3" d="M336.2,201.3c0.2-0.1,0.4-0.2,0.6-0.3c0.1,0,0.1,0,0.1,0.1c0.4,0.2,2.3,1.5,3.1,2.8c0.8,1.3,1.6,1.4,0.7,0
				c-0.9-1.4-1.5-2.2-2.2-2.8c-0.3-0.2-0.5-0.4-0.7-0.6c1.6-0.8,3.3-1.7,4.9-2.8c0.2,0.4,0.6,1.2,1.1,1.7c0.7,0.7,2.2,1.3,2.2,1.3
				s-1.2-1.2-1.6-2.2c-0.3-0.6-0.4-1.2-0.5-1.6c1.1-0.9,2.2-1.9,3.2-3.1c0.2,0.8,0.8,2.8,2.8,4.9c2.5,2.8,7.5,4.2,7.5,4.2
				s1.8,0.2,0.3,0.6s-2.4,1-5.2,0.5c-2.8-0.5-2.9-0.6-3.3-0.7c-0.4-0.1-1.4,0,0,0.5c1.4,0.5,4.6,1,5.8,0.9c1.2-0.1,2.9-0.4,1.2,0.6
				s-2.5,1.3-3.6,1.3c-1.1,0-1.5,0.3-2.6,0.3c-1,0-1.3-0.2-2.1-0.3c-0.7-0.1-1.2,0.1-1.2,0.4c0,0.3,1,1.1,1,3.2c0,2.1-0.2,3.4-0.4,4
				c-0.2,0.6-0.6,1.6-0.9,2.1c-0.3,0.6-0.4,1.1-0.7-0.1c-0.3-1.2-1-2.9-1.2-4.1c-0.3-1.2-0.4-1.2-0.5-1.8c-0.1-0.6-0.7-1-0.4,0
				s0.6,2.5,0.9,3.4c0.2,1,0.7,2.8-0.1,1.3c-0.9-1.4-4.3-5.2-4.8-5.9s-1-1.3-1.4-1.9c-0.4-0.6-1.6-1.3-2.1-2.1
				c-0.5-0.7-2-2.2-2.6-2.7C334.2,202.2,335.2,201.8,336.2,201.3L336.2,201.3z"/>
			<path class="st3" d="M382.6,115.2c-0.1,2.1-2.4,6-3.7,8.1c-1.3,2.1-1.6,2.9-1.4,3.1c0.2,0.1,0.8-0.9,1.5-1.9
				c0.7-0.9,2.1-3.1,3.3-4.8s2.9-5.6,3.1-5.9c0.2-0.4,0.3-0.6,0.9-0.1c0.6,0.4,1.7,4.8,0.4,7.7c-1.3,2.9-3.3,5.1-4.2,6.1
				c-0.8,1-2,2.6-1.8,2.8c0.2,0.1,0.5-0.3,1.5-1.3s2.7-2.9,3.8-4.2c0.9-1.1,2.1-3.3,2.6-4.1c0.2-0.3,0.4-0.2,0.5-0.1
				c0.4,0.4,1,1.2,0.7,3.6c-0.4,3.3-2.1,5.1-3.6,6.8c-1.5,1.7-3,3-2.8,3.3s1.8-1.2,2.9-2.2c1.1-1,3.7-3.6,4.3-4.3
				c0.6-0.7,1.4-0.4,1.4,2.5s-3.2,5.7-4.5,7.2c-1.3,1.6-2.9,2.5-2.8,2.8c0.1,0.3,1.4-0.5,2.3-1.1c0.8-0.6,4-2.6,4.6-3.1
				c0.6-0.4,0.9,0.4,0.1,3.1c-0.8,2.7-3.1,4.8-4.5,5.8c-1.4,1-3.6,2.2-3.5,2.5c0.1,0.3,1.1-0.1,2.4-0.7c1.3-0.6,2.9-1.2,4-1.5
				c1.1-0.3,1.1,0.5,1.1,0.5s0.2,2.3-1.4,4.1s-3.5,2.5-5.3,2.9c-1.8,0.3-2.1,0.4-2,0.7c0,0.3,0.2,0.3,0.6,0.3s2.1,0.2,3.6,0.2
				s2.3,0.4,2.3,1s0,1.6-2.2,3.1c-2.3,1.5-4.8,1.7-5.9,2c-1.1,0.2-1.1,0.3-0.9,0.6c0.2,0.3,0.7,0.3,2.4,0.4c1.7,0.2,2.7,0.8,2.9,1.3
				c0.2,0.4-0.1,1.8-1.5,2.7c-1.4,0.9-3.2,1.3-5.8,1.1c-2.7-0.2-3.3-0.2-3.4,0.2c-0.1,0.4,0.8,0.6,2.1,0.8c1.3,0.2,2.4,0.2,3.1,0.8
				c0.8,0.6,0.2,1.9-1.1,2.9s-4.5,0.9-5.8,0.8s-3.4-0.6-3.5-0.2s1,0.9,2.4,1.4c1.4,0.5,1.8,0.8,2.1,1.4c0.3,0.6,0,1.1-1.6,1.7
				c-1.6,0.6-4.1,0.6-5.3,0c-1.2-0.6-1.9-0.8-2.1-0.6c-0.2,0.2,0,0.4,0.3,0.8c0.3,0.3,1.3,1.2,2.7,1.5s1.5,0.4,2,1.5
				c0.5,1.1-0.8,2-3.3,2.1c-2.5,0.1-5.8-0.9-6.9-1.5c-1.1-0.6-1.5-0.8-1.6-0.5c-0.2,0.2-0.1,0.4,0.4,0.8c0.5,0.4,2.2,1.6,3.1,1.8
				c0.8,0.2,0.9,0.8,0.9,1.4c0,0.6,0.2,1.7-2,2.3c-2.2,0.5-4.9,0.1-7.3-1.6c-0.8-0.5-1.2-1-1.5-1.4c0.2-2.3,0.1-3.8-0.2-5.3
				c0.5-0.1,1.4-0.2,2.3-0.6c1.3-0.5,1.9-1.8,2.2-2.5c0.3-0.7,0.8-0.7,1.3-0.5c0.5,0.2,1.1,0.4,1.8,0.4s2.4-0.4,3.5-1.8
				c1.2-1.4,0.9-2.7,1-3.4c0-0.7,1.1-0.2,1.6-0.2c0.5,0,2.1-0.2,3.5-1.2c1.4-1,1.4-2.3,1.6-2.9c0.1-0.5,0.7-0.9,1.2-1.1
				c0.4-0.2,1.2-0.4,2.1-1.2c1-0.8,1.3-2.4,1.4-2.9c0-0.5,0.6-0.6,2.6-1.6s1.8-3.2,1.7-4c-0.1-0.9-1-1.6-1-1.9
				c0-0.3,0.7-0.4,1.3-0.8c0.7-0.4,2.4-1.1,2.4-3.6c0-2.5-1.6-2.8-1.6-2.8s0.3-0.1,1-0.5c0.7-0.4,2.5-1.7,2.5-3.1
				c0-1.5-0.7-2.1-1.2-2.5c-0.5-0.4-1.8-0.7-1.8-0.7s0.8-0.5,1.2-1.7c0.4-1.2,0.5-2.6-0.4-3.6c-0.8-1-2.3-1-3-1s-1.4,0.4-1.7,0.2
				c-0.3-0.2-0.3-0.4,0-1c0.3-0.6,0.3-2,0.1-2.5c-0.2-0.5-0.3-1.5-2.2-2.1c-1.9-0.6-3.9,0.7-4.5,1s-0.4-0.5-0.4-1.1
				c0-0.6,1.3-2.2,2.8-4.4c1.5-2.2,2.1-3.4,3.8-6.8s2.7-7.8,2.9-8.9c0.2-1.1,0.7-0.6,0.7-0.6s0.4,0.2,1.5,2.8
				C382.5,110.8,382.7,113.2,382.6,115.2L382.6,115.2z"/>
			<path class="st3" d="M348.9,160.9c1.1-0.1,2.6-0.7,3.8-2.4c1.1-1.7,2.9-2.1,5.9-2c3,0.1,4.4-1.4,5.1-3.5c0.7-2.1-0.1-4.4-3.2-5.9
				s-4.4-3.2-4.5-5.8c-0.1-2.6,3-5.8,6.2-9.4s5.6-8.7,5.6-8.7s0.9,1.2,0.9,2.4s-0.5,2.5,0,2.8c0.5,0.3,0.6-0.5,2.5-1.3
				c1.8-0.8,3.3-0.9,4.5,0.4s0,3.6-1,4.7c-1,1.1-1.9,1.9-1.6,2.3s1.8-0.6,2.4-1s1.7-1.7,3.5-1.5s2.4,0.7,2.6,2.2
				c0.2,1.5-1.6,2.8-2.8,3.4c-1.1,0.6-1.6,1.1-1.3,1.3c0.3,0.2,0.6,0,1.1-0.2c0.5-0.2,2-0.3,2.9,0c0.9,0.3,2.4,1.6,1,3.2
				c-1.4,1.6-4.3,2.1-4.8,2.2c-0.6,0.1-0.9-0.1-0.9,0.4c-0.1,0.5,1.2,0.5,2.8,0.5s2,1.6,1.8,2.7s-2.8,2.4-4.3,2.6
				c-1.4,0.2-2,0-2.1,0.4c-0.1,0.4,0.2,0.6,1,0.8c0.8,0.2,2.4,0.4,2.6,1.7c0.3,1.3,0.3,1.8-0.9,2.9c-1.2,1.1-3.2,0.9-3.7,0.8
				c-0.6-0.1-1.3-0.7-1.8-0.2c-0.6,0.6,0.5,1,1.5,1.7c1,0.7,0.9,2-0.7,2.9c-1.7,0.9-3.3,0.6-4,0.3s-1.6-1.3-2.1-0.6
				c-0.5,0.7,1.4,0.9,2.2,1.9c0.8,1,0.5,2.6-1.1,3.6c-1.6,1-4.3,0.3-4.7-0.1c-0.5-0.4-1-0.6-1.4-0.2c-0.3,0.3,0.2,1.3,0.5,2.1
				c0.3,0.8,1,3.2-1.4,4.1c-2.4,0.9-4.6-1.2-5-1.6c-0.4-0.4-0.8-0.5-1.1-0.3c-0.3,0.2-0.2,0.5,0.1,0.9c0.3,0.4,0.9,2.1-0.8,3.3
				c-1.2,0.8-2.5,0.8-3.2,0.6c-0.4-1.3-0.8-2.8-1.3-4.8h0.4c0.2,0,0.3,0.3,0.3,0.5s-0.1,0.3,0.1,0.3c0.2,0,0.2,0.1,0.5,0.3
				c0.3,0.2,0.6,0.5,0.7,0.3c0.2-0.1-0.6-0.5-0.8-0.8c-0.2-0.3-0.6-0.6-0.6-0.9c0-0.3-0.2-0.4-0.6-0.8c-0.1-0.1-0.2-0.2-0.3-0.4
				c-0.3-1.3-0.5-2.9-0.8-4.8c-0.2-1.3-0.3-2.5-0.3-3.6L348.9,160.9L348.9,160.9z"/>
			<path class="st3" d="M398.1,125.1c-2.6,5.2-6.2,8.1-6.2,8.1s0.5-1.3,0.7-2.2c0.2-0.9,0-1.9,0-1.9s0.9-1.2,2.6-3.8
				c1.7-2.6,2.6-6.4,2.6-6.4s-1.6,3.8-2.8,5.9c-1.2,2-2.6,3.7-2.6,3.7s-0.5-1.8-0.8-1.9c-0.4-0.1-0.6,0.2-0.9,0.6
				c-0.3,0.4-0.6,0.4-0.6,0.4s0.4-0.9,1.1-1.9c0.3-0.5,0.7-1,1-1.4c1-1.5,3-4.4,4.1-7.3c1.1-2.9,3.4-10.1,3.8-12.2
				c0.4-2.1,0.8-1,1.2,0.6c0.4,1.6,1,3.8,0.6,7.1S400.6,119.9,398.1,125.1L398.1,125.1z"/>
			<path class="st3" d="M394.7,139.1c-1,0.7-2.4,1.7-2.4,1.7s0.2-0.5,0.4-1.1s0.2-1.9,0.2-1.9s1.1-1,1.9-1.7c0.8-0.7,1.8-1.6,3.7-4
				c2-2.4,0.4-1-1.2,0.8c-1.6,1.7-4.6,4.2-4.6,4.2s0,0,0-0.6c0-0.5-0.2-0.9-0.5-1.3c-0.3-0.4-0.1-0.4,1.6-1.7c1.7-1.3,6.1-6.3,8-9.3
				c1.8-3,3.8-7,3.8-7s1,5.9-2.7,12.5C399.3,136.2,395.7,138.4,394.7,139.1z"/>
			<path class="st3" d="M375.7,176.6c-2-0.8-1.4-2.7-1.4-2.8s1.2,0.4,2.3,0.8c1.1,0.4,3.9,1.2,5,1.3c1.1,0,1.1-0.1,1.1-0.3
				c0-0.2-0.8,0-2.4-0.3c-1.6-0.3-4.3-1.7-4.8-2.1c-0.5-0.3-0.4-0.4,0.3-0.5c0.7-0.1,1.3-0.4,1.6-0.6c0.3-0.2,1,0.1,2.8,0.5
				c1.8,0.4,5.5,1.1,8.4,1.1s5.5-0.5,6-0.6c0.4-0.1,0.9,0.2-0.4,2.5c-1.4,2.3-6.2,3.6-9.6,3.5C381.1,179.2,377.7,177.4,375.7,176.6
				L375.7,176.6z"/>
			<path class="st3" d="M384.7,171.8c-3.5,0-4.8-1-4.8-1s0-0.2,0.5-0.9c0.5-0.7,0.4-1.9,0.4-1.9s0.8,0.1,2.3,0.4
				c1.4,0.2,3.1,0.4,5,0.1s1.1-0.5-0.4-0.4c-1.5,0.2-4.3-0.4-5.2-0.7c-0.9-0.3-0.5-0.6,0.1-0.8c0.6-0.2,2.3-1.3,2.3-1.3
				s4.2,0.5,8.1,0.1c3.9-0.4,6.4-1.4,7.2-1.6s0.8,0.2,0.8,0.2s0.2,0.4-1.1,2.5c-1.4,2.1-4,3.5-6.2,4.2
				C391.2,171.4,388.1,171.8,384.7,171.8L384.7,171.8z"/>
			<path class="st3" d="M385.5,163.7c0,0,0.1-0.2,0.4-0.9c0.2-0.7-0.4-1.2-0.4-1.2s0.8-0.2,3.4-0.6c2.6-0.3,2.7-0.5,4.3-0.9
				c1.6-0.4,2.6-0.8,2.6-1s-0.5,0.1-1.5,0.4c-0.9,0.4-4.9,0.8-6.6,1c-1.7,0.2-2.6,0.4-2.9,0.2c-0.3-0.2-1.3-0.4-1.3-0.4
				s0.7-0.2,1.6-0.4c0.9-0.1,1.7-0.5,2.1-0.9c0.5-0.3,0.6-0.4,2.7-0.6c2.1-0.2,3.8-0.9,7.6-2.3c3.8-1.4,6.6-3,7.4-3.7
				c0.8-0.6,0.7-0.2,0.5,0.6c-0.2,0.8-0.2,1.8-2.1,4c-1.9,2.2-2.9,3.2-7.7,5C391,163.9,385.5,163.7,385.5,163.7L385.5,163.7z"/>
			<path class="st3" d="M399.8,151.9c-4.3,3-9.3,4.1-10.3,4.2c-0.2-0.3,0.3-1.3,0-1.9c-0.3-0.7-0.7-0.7-1.8-0.8
				c-1-0.1-0.4-0.3-0.1-0.3c0.2,0,0.3,0,2-0.5c1.7-0.4,3.4-0.7,5.8-1.6c2.4-0.9,3.1-1.5,3-1.7c-0.1-0.2-1.1,0.6-3.3,1.4
				c-2.2,0.8-4.7,1.1-6.1,1.4c-1.4,0.3-0.2-0.3,0.5-0.7c0.6-0.4,1.6-1.8,1.6-1.8s1.5-0.3,4-1c2.5-0.8,4.6-1.6,6.7-2.8
				c0.7-0.4,1.4-0.9,2.2-1.5c1.4-1,2.9-2.1,3.4-2.5c0.9-0.6,0.6-0.1,0.5,0.3s-0.7,2.2-2,4.1C404.5,148.4,404.1,148.9,399.8,151.9z"
				/>
			<path class="st3" d="M400.5,143.5c-4.2,3.3-7.8,4.4-8.4,4.6c-0.6,0.3-0.6-0.1-0.4-0.4c0.1-0.4,0.2-1.5,0.2-1.5s1.5-0.9,3.2-1.8
				c1.7-1,3.5-2.3,4.8-3.1c1.2-0.9,0.5-0.8,0.1-0.5c-0.4,0.3-2.1,1.3-3.8,2.4c-1.7,1.1-4.3,2.6-4.3,2.6s-0.1-0.6-0.4-0.9
				s-1.2-0.3-1.2-0.3s0.4-0.4,0.7-0.9c0.3-0.4,1.6-0.9,3.2-1.6c1.6-0.7,4.4-2.8,6.4-4.5c2.1-1.7,6.1-6.1,6.3-6.4
				c0.3-0.4,0.4-0.3,0.5,0.1c0,0.4,0.2,0.7-0.3,2.7C406.6,136,404.7,140.2,400.5,143.5z"/>
			<path class="st3" d="M385.6,112c-0.5,1-1,1.7-1.4,2.4c-0.6,1-0.9,1.6-0.9,1.6s-0.1-0.3,0-0.9s0.2-1.4,0-2.4
				c-0.1-0.5-0.2-1-0.2-1.5c0-0.5,0.2-1,0.3-1.3c0.1-0.6,0.7-3,1-4.7c0.3-1.7,0.6-4.2,0.6-6.4c0-2.2-0.3-1.1-0.3,0s-0.1,2.7-0.4,5.2
				c-0.3,2.5-1.4,6.3-1.4,6.3s-0.1-0.6-0.4-1.4s-0.8-1.8-1.2-2.8c-0.4-1-0.3-1.2-0.3-1.2s1.5-7.1,1.9-10.4c0.4-3.3,1-12.1,1-12.1
				c2.2,2.2,3.8,7.9,4.1,13.3c0.2,4.1-0.4,7.8-0.6,9.4C386.9,108,386.4,110.4,385.6,112L385.6,112z"/>
			<path class="st3" d="M390.4,123.2c-0.1-1.6-0.4-2.8-1.5-3.2c0,0,0.9-1.6,1.7-3.9c0.5-1.6,1-3.6,1.2-5.1c0.6-3.8,1-7.7-0.1-1.3
				c-1.1,6.4-2.5,8.6-2.5,8.6l-1.6,2.7c0.2-1.2,0.3-2,0.2-3.3c-0.1-1.3-0.2-3-0.6-4.4c0,0,2-4,3.2-8.7s2-9.1,2-11.6
				c0.1-2.5,0.2-3.4,0.2-3.4s2,1.5,2.7,9.3c0.7,7.7-1.4,15.2-2.4,18C391.9,119.7,390.4,123.2,390.4,123.2L390.4,123.2z"/>
			<path class="st3" d="M368.3,182.2c0,0,0.3-0.2,1.3-0.8c1-0.6,0.7-2.4,0.7-2.4s0.3,0.2,1,0.7c0.7,0.5,1.5,1,2.5,1.4s1.4,0.6,2,0.8
				c0.6,0.2,0.4-0.1-0.1-0.4c-0.5-0.3-0.7-0.4-2-1c-1.3-0.5-3.8-2.8-3.8-2.8s0.6-0.1,1.7-0.1s2.4-0.6,2.4-0.6s1.1,1,5.3,2.8
				c4.3,1.8,7.9,2.3,7.9,2.3s-0.4,2.2-2.5,2.9c-1.7,0.7-4,1.2-8.6,0.1C371.4,184.2,368.3,182.2,368.3,182.2L368.3,182.2z"/>
			<path class="st3" d="M362.6,186.6c-0.4-1.8,0.7-3.1,0.7-3.1s0.2,0.1,0.9,0.7c0.6,0.6,1.6,1.7,3.4,2.6s2.4,0.8,0.7-0.1
				s-4.3-3.6-4.3-3.6l0.7-0.3c0.7-0.3,1.8,0.2,6.6,3.1c4.8,2.9,7.6,3,7.6,3s-2.1,2.6-8,2.4C365.1,191.2,363,188.4,362.6,186.6
				L362.6,186.6z"/>
			<path class="st3" d="M351.6,184.5c0,0,0.6,0.9,1.5,1.5s3.2,0.9,3.2,0.9s0.1,0.3,0.5,0.8c0.4,0.6,1.4,2,2.5,2.7
				c1,0.7,2.6,1.2,2.7,1s-0.9-0.6-1.9-1.2c-1-0.6-1.9-1.7-2.6-2.5c-0.7-0.8,0.3-0.6,0.3-0.6s1.2,0,2.3-0.1c1.1-0.1,0.9,0,1.2,0.5
				s0.8,1,1.6,2c1,1.2,2,2.2,2.9,3.4c0.6,0.8,0.2,1,0.2,1s-0.3,0.5-2.9,0.8c-1.6,0.2-3.3,0-5.2-1.1c-1.1-0.7-2.3-1.7-3.5-3
				C351.5,187.3,351.6,184.5,351.6,184.5L351.6,184.5z"/>
			<path class="st3" d="M350.2,191.5c0.6,0.8,1,1.2,1,1.2s-0.4-1.4-0.8-2c-0.2-0.3-0.4-0.7-0.6-0.9c0.4-1,0.8-2,1-3.1
				c0.3,0.9,1.2,3.6,2.3,5.4c1.3,2.1,2.5,2.9,1.8,3.5c-0.8,0.6-2.3,0.7-4-0.1c-1.6-0.8-2.1-2.2-2.3-3.3c0.3-0.4,0.6-0.9,0.8-1.4
				C349.6,190.8,349.9,191.1,350.2,191.5L350.2,191.5z"/>
			<ellipse class="st3" cx="350.6" cy="105.8" rx="1.2" ry="1.1"/>
			<path class="st3" d="M353.1,103.7c-1.1,0-1.7-0.5-2.9-0.4c-1.4,0.1-3.3,1-5.7,2.2c-1.8,0.8-4.2,1.2-6.5,0.6
				c-0.6-0.2-1.3-0.5-1.9-0.9c-2.8-1.6-2.1-4.8-2.1-4.8c2.1,1.5,4.7,2.3,7.1,2.2c0,0-0.2,0.1-0.6,0.6c-0.4,0.4-1.2,0.9-0.9,1.1
				c0.2,0.2,1.3-0.8,2.1-1.4c0.9-0.6,2.1-1.5,4.3-2.2c2.2-0.6,4.7-0.7,6.3,0.2c1.6,0.9,1.8,2.1,1.6,2.5
				C353.8,103.6,353.5,103.7,353.1,103.7z"/>
			<path class="st3" d="M322.3,126.8c0.5-0.1,1.4-0.3,2.5-1.3c1.1-1.1,3.9-4.1,4.2-4.6c0.3-0.6,0.2-1.1-0.6-1.4
				c-0.8-0.3-1.3-1.3-1.3-1.3s1.7-0.6,2.8-1.5c1.1-0.8,3.8-3.2,4.2-3.8s0.2-0.7-0.4-0.9c-0.5-0.2-0.7-0.6-0.7-0.6s1.2-0.8,2.4-1.7
				c1.1-0.9,2.7-2.4,2.7-2.4c1.7,0.7,4.4,0.4,5.9,0.1c2.6-0.5,4.4-1.5,4.4-1.5s0.1,0.4,0.4,1.2c0.3,0.8,1.5,1.2,2.7,0.5
				c1.2-0.8,0.9-2.5,0.9-2.5s1-0.6,2.9-1.3s3.6-0.8,5.2-0.1c1.6,0.7,2.4,2.9,2.4,4.6c0,1.7-0.9,1-1.1,0.7c-0.2-0.2-0.5-1.4-2.6-1.7
				c-2-0.3-3.8,0.6-6.1,2.5c-2.3,1.9-2.8,2-3.9,3.2c-1.1,1.2-0.2,1.8,1.7,2.5s4.5-0.6,4.6-0.6c0.4,0.2-0.8,1.9-2.5,2.6
				c-1.7,0.7-3.9,0.2-5.5-0.4c-1.1-0.5-1.4,0-1.7,0.4c-1.9,2-2.3,3.8-2.7,6c-0.9-0.3-1.6-1.2-1.7-2c-0.1-0.4-0.2-1.2-0.8-0.6
				c-0.6,0.6-1.1,3.9-1.1,5.4s0.5,3.5,0.5,3.5l-0.5,0c-0.3,0-0.8-0.4-1.6-0.8c-0.7-0.4-0.8,0-0.8,0.9s-0.3,2.4-1.4,5.2
				s-2.7,3.7-2.7,3.7s-0.3-0.6-0.6-1.6c-0.3-1.1-0.5-3.3-0.5-5.1s0.5-5.9,0.5-5.9s-2.3,2.8-4.7,3.5c-2.4,0.7-4.8,0.3-5.8-0.9
				C320.9,127.4,321.8,126.9,322.3,126.8L322.3,126.8z"/>
			<path class="st3" d="M338,134c0,0,0.7,1.6,1.1,2.2s0.6,0.7,0.6,0.7s-0.7,0.6-1.8,0.9c-1.1,0.3-2,0.5-2,0.5s1.2-1.6,1.6-2.8
				C337.9,134.4,338,134,338,134L338,134z"/>
			<path class="st3" d="M323.7,133.1c0.4-0.9,0.6-1.4,0.6-1.4c1.5,0.3,4.2-0.4,5.4-1.1c0,0-1.1,2.2-2.2,3c-1.1,0.8-1.2,0.8-1.2,0.8
				s1.1,0.2,2.6-1.3c1.5-1.4,2.1-3.1,2.1-3.1s-0.3,3.9,0.3,6.2s0.7,2.7,0.7,2.7s-3.1,0.5-6.6-0.4c-3.5-1-3.7-1.3-3.7-1.3
				s-0.4-0.1,0.1-0.8C322.3,135.7,323.3,134,323.7,133.1L323.7,133.1z"/>
			<path class="st2" d="M330,124.6c1.1-1.2,1.2-1.5,1.2-1.5s0.4,0.4,0.1,0.9c-0.3,0.5-1.8,1.9-2.9,2.4c-1,0.6-2.1,0.8-2.1,0.8
				l0.1-0.2C326.3,127,328.9,125.9,330,124.6z"/>
			<path class="st2" d="M334.2,132.7c0,0,0.3-4.8,0.3-5.6s0.5-0.5,0.5-0.5l0.5,0.2c0,0-0.9,6.2-1,7.1c-0.1,0.8-0.5,0.7-0.7,0.7
				C334.1,134.4,334.2,132.9,334.2,132.7L334.2,132.7z"/>
			<path class="st2" d="M340.7,111.7c0.4-0.4,1.3-0.7,0.4,0.3c-0.9,1-2,2.1-2.3,3.1c-0.3,1-0.5,2.2,0,1.9c0.6-0.3,1-0.3,1.5-0.8
				c0.6-0.5,1.7-1.3,2.2-1.4c0.5-0.1,1.3,0,0.6,0.7c-0.7,0.7-1.4,1.4-2.6,2.3c-1.3,0.9-2,1.3-2.6,1.8c-0.7,0.5-1.3,0.9-1.3,0.9
				s0.6-3.9,1.7-5.7S340.3,112.1,340.7,111.7z"/>
			<path class="st2" d="M362.1,177.9c0.8,0.6,1.9,0.9,1.9,0.9s0.5,0,0.5,0.2s-0.6,0-1.2-0.1c-0.6-0.1-1.4-0.7-1.7-0.9
				c-0.3-0.2-0.7-0.5-0.6-0.9C361,176.6,361.3,177.3,362.1,177.9L362.1,177.9z"/>
			<path class="st2" d="M355.2,181.6c0.2,0.2,1.5,1.2,1.5,1.2s0.4,0.3,0.9,0.4c0.4,0.2,0.6,0.4,0.6,0.4s-0.1,0.1-0.6,0
				c-0.5-0.1-1.9-1.1-2.3-1.5c-0.4-0.4-0.6-0.5-0.5-0.7C354.9,181.3,355,181.4,355.2,181.6L355.2,181.6z"/>
			<path class="st2" d="M383.1,131.9c-0.2,0.3-0.5,0.7-0.7,0.6c-0.1-0.1,0-0.3,0.4-0.7c0.3-0.4,0.5-0.6,0.5-0.6s0.5-0.7,0.7-1
				c0.3-0.3,0.7-0.4,0.2,0.2C383.7,131.1,383.3,131.6,383.1,131.9z"/>
			<path class="st2" d="M385.2,136.6c-0.3,0.3-0.6,0.5-0.9,0.9c-0.3,0.4-0.6,0.7-0.8,0.6c-0.2-0.2,0.5-0.6,0.8-1
				c0.3-0.4,0.5-0.6,0.9-0.9s0.9-0.6,0.9-0.6S385.5,136.3,385.2,136.6L385.2,136.6z"/>
			<path class="st2" d="M384.4,144.1c-0.5,0.6-1.3,0.7-1.4,0.5c-0.1-0.2,0.1-0.4,0.5-0.6c0.4-0.2,1.2-0.7,1.5-0.9
				c0.4-0.2,0.7-0.5,1-0.8c0.2-0.2,0.5-0.5,0.6-0.4c0.1,0.1-0.7,1-1,1.1C385.4,143.1,385,143.5,384.4,144.1L384.4,144.1z"/>
			<path class="st2" d="M382.9,150.1c0-0.2-0.1-0.3,0.4-0.4c0.4,0,1.1-0.1,1.1-0.1s0.9-0.3,0.9-0.2c0.1,0.2-0.7,0.5-1.1,0.6
				c-0.3,0.1-0.7,0.2-0.9,0.3C383.1,150.4,382.9,150.3,382.9,150.1L382.9,150.1z"/>
			<path class="st2" d="M382.2,156.6c0.9,0,1.7-0.2,1.8-0.1s-0.4,0.4-0.9,0.5c-0.5,0.2-1.4,0.2-2,0.2s-0.7-0.1-0.7-0.4
				C380.5,156.6,381.3,156.6,382.2,156.6z"/>
			<path class="st2" d="M374.9,163.8c0.1-0.1,0.5,0,1,0.1c0.5,0.1,1.4,0.3,1.9,0.3s1.6-0.1,1.6-0.1l0.6,0.1c0,0.1-0.8,0.1-2,0.2
				c-1.2,0.1-1.9-0.1-2.5-0.2C374.9,164.2,374.7,163.9,374.9,163.8L374.9,163.8z"/>
			<path class="st2" d="M371.8,168.9c0.6,0.2,1,0.3,1.4,0.3c0.4,0,1.5,0.2,1.5,0.2s0.5,0.1,0.4,0.2c-0.1,0.2-0.2,0-0.7-0.1
				c-0.4-0.1-0.8,0-1.5,0c-0.8,0-1.2-0.2-1.7-0.3c-0.5-0.1-1-0.3-0.7-0.6C370.8,168.3,371.3,168.6,371.8,168.9L371.8,168.9z"/>
			<path class="st2" d="M365.9,172.7c0.3,0.3,1.6,1.2,1.6,1.2s0.2,0.2,0.7,0.4s0.5,0.4,0.4,0.5s-0.4-0.2-0.7-0.3s-1.2-0.7-1.7-1.1
				c-0.5-0.4-1.1-0.7-1-1C365.5,172.2,365.6,172.4,365.9,172.7L365.9,172.7z"/>
			<path class="st2" d="M375.8,122.9c0,0-0.1,0.3-1.1,1.5c-1,1.3-0.5,0.1-0.2-0.3c0.3-0.3,1.8-2.4,2.3-3c0.5-0.6,0.6-0.3,0.3,0.1
				C376.8,121.6,375.8,122.9,375.8,122.9z"/>
			<path class="st2" d="M377.9,129.4c-0.1-0.1,0.2-0.3,0.8-1c0.6-0.7,1.8-2.2,1.8-2.2s0.3-0.7,0.4-0.6c0.1,0.1-0.4,1.2-0.9,1.6
				c-0.5,0.5-1.1,1.4-1.4,1.8S378.1,129.6,377.9,129.4L377.9,129.4z"/>
			<path class="st2" d="M375.1,141.7c0-0.4,1.2-0.3,1.7-0.4c0.5-0.1,1.5-0.3,1.5-0.3s1.1-0.2,1.1-0.1c0,0.1-0.2,0.3-0.8,0.4
				c-0.6,0.1-1.5,0.4-2.2,0.5S375.1,142.1,375.1,141.7L375.1,141.7z"/>
			<path class="st2" d="M377.9,135.1c-0.8,0.6-1.3,0.9-1.7,1.1c-0.4,0.2-0.7,0.5-0.9,0.3c-0.2-0.3,0.2-0.4,0.8-0.7
				c0.7-0.3,1-0.5,1-0.5s0.4-0.2,0.7-0.4C378.1,134.7,378.7,134.5,377.9,135.1L377.9,135.1z"/>
			<path class="st2" d="M371.3,130.7c0.5-0.4,0.9-0.6,0.9-0.6s0.6-0.5,0.7-0.4c0.1,0.2-0.7,0.7-1,1.1c-0.4,0.3-1,1.3-1.4,1.1
				C370.2,131.7,370.9,131.1,371.3,130.7z"/>
			<path class="st2" d="M375.6,147.9c0,0,0.6,0.2,1.1,0.3s0.4,0.3-0.3,0.3s-1.1-0.2-1.8-0.3c-0.7-0.1-1-0.2-0.9-0.5
				c0.1-0.2,0.5-0.2,0.8-0.1S375.6,147.9,375.6,147.9z"/>
			<path class="st2" d="M374.5,154.1c0.1,0.1-0.5,0-0.9-0.1c-0.4-0.1-1.2-0.6-1.7-0.7c-0.5-0.1-0.5-0.2-0.5-0.5
				c0-0.3,0.5-0.1,1.1,0.1c0.6,0.2,1.4,0.8,1.4,0.8S374.4,153.9,374.5,154.1L374.5,154.1z"/>
			<path class="st2" d="M366.5,157.8c-0.6-0.3-0.7-0.6-0.5-0.7c0.2-0.2,0.4-0.1,0.8,0.2c0.4,0.4,1.3,1,1.3,1s0.4,0.2,0.8,0.3
				s0.7,0.4,0.6,0.6c-0.1,0.2-0.8,0-1.2-0.3C368,158.6,367,158.2,366.5,157.8L366.5,157.8z"/>
			<path class="st2" d="M362.7,162.8c-0.2-0.2-0.9-0.4-1.2-0.6c-0.3-0.2-0.5-0.9-0.2-1s0.4,0.3,0.9,0.7c0.5,0.4,2.3,1.6,2.3,1.6
				l0.5,0.2c0.5,0.2,0.3,0.3-0.1,0.3c-0.4-0.1-0.7-0.1-1.2-0.4C363.2,163.1,362.9,163,362.7,162.8z"/>
			<path class="st2" d="M357.1,167.5c-0.5-0.2-1.2-0.8-1.5-1.1c-0.3-0.3-0.7-0.7-0.5-0.9c0.2-0.2,0.5,0.1,0.9,0.4
				c0.4,0.4,1.4,1.4,1.4,1.4s0.1,0,0.7,0.5c0.6,0.4,0,0.4-0.2,0.2C357.7,167.8,357.6,167.7,357.1,167.5L357.1,167.5z"/>
			<polygon class="st3" points="334.4,96.6 332.1,95 334.8,94.3 336.5,95.7 			"/>
			<ellipse class="st2" cx="327.2" cy="94.7" rx="2.1" ry="2.1"/>
			<ellipse class="st3" cx="327.2" cy="94.3" rx="1.3" ry="1.2"/>
			<path class="st3" d="M331.7,87.6c-0.6,0.2-1.3,0.1-1.3,0.1s-0.2-1,0.3-1.4c0.5-0.5,1-0.8,1.3-1.1c0.3-0.3,0.4-0.4,0.4-0.4
				s0,0.8,0,1.3C332.5,86.6,332.2,87.4,331.7,87.6L331.7,87.6z"/>
			<ellipse class="st3" cx="330.5" cy="88.7" rx="0.4" ry="0.4"/>
			<path class="st3" d="M333.5,88.2c0.2,0.2,0.5,0.6,0.5,0.6s-0.4,0-0.8,0.3c-0.4,0.3-0.8,0.5-1.2,0.4c-0.4-0.1-0.6-0.5-0.5-0.7
				c0.1-0.3,0.3-0.6,1-0.8C333.1,87.7,333.3,88,333.5,88.2z"/>
			<path class="st3" d="M332,90.8c1.3,0.1,3.1-1.4,3.1-1.4c0.2,1.2,0.9,1.8,2,2l-0.1,0.1c0,0-1.1,0.5-2.3,0.7
				c-0.6,0.1-1.1,0-1.7-0.1c-0.7-0.1-1.6-0.4-2-0.6c-0.8-0.5-0.6-1.8-0.6-1.8S330.6,90.6,332,90.8L332,90.8z"/>
			<path class="st3" d="M337.2,89.4c0.6-0.2,1.4-0.6,1.7-0.6c0.3,0,0.8-0.1,0.8,0.5c-0.1,0.6-0.7,1-1.4,1c-0.6,0-1-0.2-1.3-0.4
				C336.6,89.7,336.7,89.6,337.2,89.4z"/>
			<path class="st3" d="M341.4,87.1c0.6-0.4,1.1-0.6,1.1-0.6s0.4,1,0.2,1.7c-0.2,0.6-0.7,0.8-1.3,0.8c-0.6,0-1.4-0.3-1.2-0.7
				C340.5,87.9,340.8,87.5,341.4,87.1z"/>
			<ellipse class="st3" cx="340.9" cy="90" rx="0.5" ry="0.3"/>
			<path class="st3" d="M339.6,84.9c0.4-1.8,0.3-3.7-1.4-6.2c-1.7-2.5-4.6-3.5-4.6-3.5s-0.1-0.2-1-1.2c-0.9-1-2.8-2.2-2.8-2.2
				s2.2,0.5,3.5,0.9c0,0,0,0,0,0.1c0,0.9,0.7,1.5,1.5,1.5c0.3,0,0.6-0.1,0.9-0.3c0.7,0.1,2.9,1.5,3.5,2c-0.1,0.2-0.2,0.5-0.2,0.8
				c0,0.8,0.7,1.5,1.5,1.5c0.2,0,0.5-0.1,0.7-0.2c0.1,0.1,0.1,0.2,0.2,0.3c0.5,0.9,0.8,1.7,1.1,2.5c-0.4,0.3-0.6,0.8-0.6,1.3
				c0,0.8,0.6,1.5,1.3,1.5c0,0.5,0,0.8,0,1c-0.1,0.5-0.2,0.8-1.1,1.1c-0.9,0.2-2.1,1.8-2.1,1.8C339.8,87.8,339.1,86.6,339.6,84.9
				L339.6,84.9z"/>
			<path class="st3" d="M334.2,73.5c-0.3-0.3-0.4-0.7-0.1-0.9c0.2-0.2,0.7-0.2,1,0.1c0.3,0.3,0.4,0.7,0.1,0.9
				C335,73.8,334.5,73.8,334.2,73.5z"/>
			<path class="st3" d="M339.9,77.3c-0.4-0.3-0.4-0.8-0.1-1.1c0.3-0.3,0.8-0.2,1.2,0.1c0.4,0.3,0.4,0.8,0.1,1.1
				C340.7,77.7,340.2,77.6,339.9,77.3z"/>
			<ellipse class="st3" cx="343.2" cy="82.1" rx="0.9" ry="0.9"/>
			<path class="st3" d="M324.4,70c0.5,0.1,1.3,0.4,2.5,1h0c-0.9,0-1.5,0.6-1.5,1.3c0,0.7,0.8,1.5,1.7,1.5s1.5-0.8,1.5-1.5
				c0-0.2,0-0.3-0.1-0.5c0.4,0.2,0.8,0.5,1.2,0.8c2.8,1.9,3.4,2.8,4.8,5.3c1.4,2.6,1.9,5.4,1.3,7c-0.6,1.6-2.8,2-2.8,2
				s0.2-0.2,0.3-0.6c0-0.3-0.1-0.5-0.2-1.1c-0.1-0.6,0-1.4,0-1.4s-0.5-0.1-0.8,0.3c-0.3,0.3-0.7,0.7-1,1.1c-0.3,0.3-1,1-1,1
				s-0.4-0.6-0.4-1.4c0-0.7,0.5-1.6,0.6-2.9s-0.6-3.6-1.9-5.4c-1.3-1.7-3.7-3.3-4.4-3.6c-0.7-0.3-0.8-0.9-0.9-1.2
				c0-0.3-0.1-0.5-0.2-1.3C323,69.8,323.7,69.9,324.4,70L324.4,70z"/>
			<path class="st3" d="M327.2,73c-0.5,0-0.9-0.4-0.9-0.8c0-0.4,0.4-0.7,0.9-0.7c0.5,0,0.9,0.3,0.9,0.7S327.7,73,327.2,73z"/>
			<path class="st3" d="M323.1,89.2c-0.7,0.3-1.4,0.1-1.8-0.1c-0.4-0.2-0.5-0.8-0.1-1.2c0.4-0.3,1-0.3,1.4-0.1
				c0.4,0.2,1.3,0.8,1.3,0.8S323.7,89,323.1,89.2z"/>
			<path class="st3" d="M320.9,90c0.2,0.4,0.4,0.6,1.2,0.6s1.5,0,2-0.5c0.5-0.5,0.8-1.2,0.8-1.2l0.8,0c0,0,0.3,1.2,0.6,1.5
				c0.4,0.3,1.7,0.4,2.2,0s1.1-0.9,1.2-0.9s0,0.5-0.6,1c-0.6,0.5-1,0.8-1.9,0.8H322c0,0-1.1,0.1-1.4-0.6c-0.3-0.6-0.3-1.1-0.2-1.2
				C320.6,89.4,320.7,89.6,320.9,90L320.9,90z"/>
			<path class="st3" d="M329,89.1c-0.8,0.4-1.2,0.2-1.5-0.2c-0.3-0.4-0.3-0.5-0.3-0.5s0.8-0.3,1.1-0.5c0.4-0.2,0.6-0.4,1-0.4
				c0.4,0,0.4,0.1,0.4,0.1S329.8,88.7,329,89.1L329,89.1z"/>
			<ellipse class="st2" cx="332.9" cy="81.2" rx="1.8" ry="1.8"/>
			<path class="st2" d="M329.8,75.1c0.7-0.5,1.8-0.3,2.3,0.4c0.6,0.7,0.5,1.7-0.2,2.2c-0.7,0.5-1.8,0.3-2.3-0.4
				C329,76.6,329.1,75.6,329.8,75.1z"/>
			<ellipse class="st3" cx="332.9" cy="81" rx="1" ry="1"/>
			<path class="st3" d="M330.5,75.3c0.5-0.1,1,0.1,1.3,0.5c0.2,0.4,0,0.8-0.6,1C330,77,329.5,75.6,330.5,75.3L330.5,75.3z"/>
		</g>
	</g>
</g>
</svg>
