<?xml version="1.0" encoding="utf-8"?>
<!-- Generator: Adobe Illustrator 21.0.0, SVG Export Plug-In . SVG Version: 6.00 Build 0)  -->
<svg version="1.1"
	 id="svg2" xmlns:cc="http://creativecommons.org/ns#" xmlns:dc="http://purl.org/dc/elements/1.1/" xmlns:rdf="http://www.w3.org/1999/02/22-rdf-syntax-ns#" xmlns:svg="http://www.w3.org/2000/svg"
	 xmlns="http://www.w3.org/2000/svg" xmlns:xlink="http://www.w3.org/1999/xlink" x="0px" y="0px" viewBox="0 0 600 330"
	 style="enable-background:new 0 0 600 330;" xml:space="preserve">
<style type="text/css">
	.st0{fill:#0038A8;}
	.st1{fill:#FFFFFF;}
	.st2{fill:#D52B1E;}
	.st3{fill:#FFFFFF;stroke:#000000;stroke-width:1.8429;stroke-miterlimit:10;}
	.st4{fill:#009B3A;stroke:#000000;stroke-width:0.4926;}
	.st5{fill:none;stroke:#000000;stroke-width:0.7372;stroke-miterlimit:10;}
	.st6{fill:#FEDF00;stroke:#000000;stroke-width:0.3013;}
	.st7{fill:#009B3A;stroke:#000000;stroke-width:0.3766;}
	.st8{fill:#009B3A;stroke:#000000;stroke-width:0.3013;}
	.st9{fill:#009B3A;stroke:#000000;stroke-width:0.397;}
	.st10{fill:#009B3A;stroke:#000000;stroke-width:0.4198;}
	.st11{fill:#009B3A;stroke:#000000;stroke-width:0.4289;}
	.st12{fill:#009B3A;stroke:#000000;stroke-width:0.4138;}
	.st13{fill:#009B3A;stroke:#000000;stroke-width:0.492;}
	.st14{fill:#009B3A;stroke:#000000;stroke-width:0.4191;}
	.st15{fill:#009B3A;stroke:#000000;stroke-width:0.322;}
	.st16{fill:#009B3A;stroke:#000000;stroke-width:0.418;}
	.st17{fill:#009B3A;stroke:#000000;stroke-width:0.385;}
</style>
<rect id="rect4" class="st0" width="600" height="330"/>
<rect id="rect6" class="st1" width="600" height="220"/>
<rect id="rect8" class="st2" width="600" height="110"/>
<path id="path2542" class="st3" d="M341.8,165c0,23.1-18.7,41.8-41.8,41.8c-23.1,0-41.8-18.7-41.8-41.8c0-23.1,18.7-41.8,41.8-41.8
	C323.1,123.2,341.8,141.9,341.8,165z"/>
<path id="path2618" class="st4" d="M320.2,158.5c-1,0-1,1.1-1,1.1s0-0.3,0,0c0,0.4,0.2,1.3,0.9,1.4c0.8,0.1,1.1-0.9,1.1-1.3
	C321.2,159.5,321.1,158.5,320.2,158.5"/>
<g id="g4938" transform="matrix(1.0000826,0,0,1.0085097,97.058443,-0.91805934)">
	<path id="path2462" d="M176.7,181.1l-0.4-0.6c0-0.1-0.1-0.2-0.3-0.3c-0.1-0.1-0.2-0.1-0.3-0.1c-0.1,0-0.2,0-0.3,0.1
		c-0.1,0.1-0.2,0.2-0.2,0.3c0,0.1,0,0.3,0.2,0.6l0.4,0.6L176.7,181.1z M180.2,180.9l-4.5,2.7l-1.4-2.3c-0.3-0.4-0.4-0.8-0.5-1.1
		c-0.1-0.3,0-0.5,0.1-0.8c0.1-0.3,0.3-0.5,0.6-0.7c0.2-0.1,0.5-0.2,0.7-0.2c0.3,0,0.5,0.1,0.7,0.2c0.1,0.1,0.3,0.2,0.5,0.4
		c0-0.2-0.1-0.3-0.1-0.5c0-0.1,0-0.2,0.1-0.4c0.1-0.2,0.1-0.3,0.2-0.4l0.9-1.5l0.9,1.6l-0.9,1.6c-0.1,0.2-0.2,0.3-0.2,0.5
		c0,0.1,0,0.3,0.1,0.4l0.1,0.1l1.8-1.1L180.2,180.9z"/>
	<path id="path2466" d="M172.2,177.2l-1.4-4.1l1.1-0.4l0.9,2.6l0.8-0.3l-0.8-2.4l1-0.3l0.8,2.4l1-0.3l-0.9-2.7l1.1-0.4l1.4,4.2
		L172.2,177.2z"/>
	<path id="path2470" d="M172.4,168.8l-0.1-0.4c0-0.3-0.1-0.5-0.2-0.6c-0.1-0.1-0.3-0.2-0.4-0.1c-0.2,0-0.3,0.1-0.4,0.2
		c-0.1,0.1-0.1,0.3-0.1,0.6l0,0.5L172.4,168.8z M170.3,170.7L170,168c-0.1-0.6,0-1,0.3-1.4c0.2-0.3,0.6-0.5,1.1-0.6
		c0.5-0.1,1,0,1.3,0.3c0.3,0.3,0.5,0.8,0.6,1.4l0.1,0.9l1.9-0.2l0.2,1.6L170.3,170.7z"/>
	<path id="path2474" d="M170.1,160.5l0.2-1.6l3.1,0.3c0.3,0,0.6,0.1,0.9,0.2c0.3,0.1,0.5,0.3,0.7,0.5c0.2,0.2,0.3,0.5,0.4,0.7
		c0.1,0.3,0.1,0.7,0.1,1.1c0,0.2-0.1,0.5-0.1,0.8c-0.1,0.3-0.2,0.5-0.3,0.7c-0.1,0.2-0.3,0.4-0.5,0.5c-0.2,0.1-0.4,0.2-0.6,0.3
		c-0.3,0.1-0.6,0.1-0.9,0.1l-3.1-0.3l0.2-1.6l3.2,0.3c0.3,0,0.5,0,0.7-0.2c0.2-0.1,0.3-0.3,0.3-0.6c0-0.3,0-0.5-0.2-0.7
		c-0.1-0.2-0.4-0.3-0.6-0.3L170.1,160.5z"/>
	<path id="path2478" d="M175.4,156.1l0.3-0.8c0.1-0.3,0.1-0.5,0.1-0.6c-0.1-0.1-0.2-0.2-0.3-0.3c-0.2-0.1-0.3,0-0.4,0
		c-0.1,0.1-0.2,0.2-0.3,0.5l-0.3,0.8L175.4,156.1z M173.4,155.4l0.2-0.7c0.1-0.2,0.1-0.4,0-0.5c0-0.1-0.1-0.2-0.3-0.3
		c-0.1-0.1-0.3,0-0.4,0c-0.1,0.1-0.2,0.2-0.3,0.4l-0.2,0.7L173.4,155.4z M170.9,156.3l1-2.9c0.2-0.5,0.4-0.8,0.8-1
		c0.3-0.2,0.7-0.2,1-0.1c0.3,0.1,0.5,0.3,0.7,0.5c0.1,0.2,0.1,0.4,0.1,0.6c0.2-0.3,0.4-0.5,0.7-0.6c0.3-0.1,0.6-0.1,0.9,0
		c0.3,0.1,0.5,0.2,0.6,0.4c0.2,0.2,0.3,0.4,0.3,0.7c0,0.2,0,0.4,0,0.6c-0.1,0.4-0.1,0.6-0.2,0.7l-0.9,2.6L170.9,156.3z"/>
	<path id="path2482" d="M173.6,149.5l0.9-1.4l3.4,2l1.3-2.2l1.1,0.7l-2.2,3.5L173.6,149.5z"/>
	<path id="path2486" d="M177.1,144.4l1.1-1.2l4,3.4l-1.1,1.2L177.1,144.4z"/>
	<path id="path2490" d="M184.5,141.6l1.4-0.6c0.2,0.4,0.3,0.7,0.3,1.1c0,0.3-0.1,0.7-0.2,1c-0.2,0.3-0.4,0.6-0.8,0.9
		c-0.4,0.4-0.9,0.6-1.2,0.7c-0.4,0.1-0.8,0.1-1.3-0.1c-0.5-0.2-0.9-0.5-1.3-1c-0.6-0.7-0.8-1.3-0.8-2c0.1-0.7,0.4-1.2,1.1-1.8
		c0.5-0.4,1-0.6,1.5-0.7c0.5,0,1,0.1,1.4,0.4l-0.9,1.2c-0.1-0.1-0.3-0.1-0.4-0.2c-0.1,0-0.3,0-0.4,0c-0.1,0-0.3,0.1-0.4,0.2
		c-0.3,0.2-0.4,0.5-0.4,0.9c0,0.3,0.2,0.6,0.5,0.9c0.4,0.4,0.7,0.7,1,0.7c0.3,0.1,0.5,0,0.8-0.2c0.2-0.2,0.4-0.4,0.4-0.6
		C184.7,142.1,184.6,141.9,184.5,141.6"/>
	<path id="path2494" d="M189.8,138.4l-1.4-1.4l0.3,1.9L189.8,138.4z M190.6,139.3l-1.7,0.8l0.2,0.9l-1.5,0.7l-0.6-5.6l1.6-0.8
		l4.2,3.8l-1.5,0.8L190.6,139.3z"/>
	<path id="path2498" d="M197.1,133.8l0.4,2.8l0.4-0.1c0.3,0,0.6-0.1,0.7-0.2c0.1-0.1,0.2-0.2,0.3-0.4c0.1-0.2,0.1-0.5,0-0.9
		c-0.1-0.5-0.2-0.9-0.4-1.1c-0.2-0.2-0.5-0.2-0.9-0.2L197.1,133.8z M195.3,132.9l2.4-0.3c0.5-0.1,0.9-0.1,1.2,0
		c0.3,0.1,0.6,0.2,0.8,0.4c0.2,0.2,0.4,0.5,0.5,0.8c0.1,0.3,0.2,0.6,0.3,1c0.1,0.5,0.1,1,0,1.3c-0.1,0.3-0.2,0.6-0.4,0.9
		c-0.2,0.2-0.4,0.4-0.7,0.5c-0.3,0.2-0.7,0.2-0.9,0.3l-2.4,0.3L195.3,132.9z"/>
</g>
<path id="path2502" d="M299.5,132.1l4.4,0.3l-0.1,1.1l-2.7-0.2l-0.1,0.8l2.5,0.2l-0.1,1.1l-2.5-0.2l-0.1,1l2.8,0.2l-0.1,1.2
	l-4.4-0.3L299.5,132.1z"/>
<path id="path2506" d="M306.3,132.7l1.6,0.4l-1.1,3.8l2.5,0.7l-0.4,1.2l-4-1.1L306.3,132.7z"/>
<path id="path2510" d="M315.2,138.5l0.3,0.2c0.3,0.2,0.5,0.2,0.6,0.2c0.2,0,0.3-0.1,0.4-0.2c0.1-0.1,0.1-0.3,0.1-0.4
	c0-0.2-0.2-0.3-0.4-0.5l-0.4-0.3L315.2,138.5z M315.1,135.8l2.3,1.5c0.5,0.3,0.8,0.7,0.9,1.1c0.1,0.4,0,0.8-0.3,1.2
	c-0.3,0.4-0.7,0.7-1.1,0.8c-0.4,0.1-0.9-0.1-1.5-0.4l-0.7-0.5l-1.1,1.6l-1.4-0.9L315.1,135.8z"/>
<path id="path2514" d="M320.8,143.8l0.9-1.8L320,143L320.8,143.8z M320.2,144.9l-1.3-1.3l-0.8,0.4l-1.2-1.2l2.4-1.1l2.7-1.2l1.3,1.2
	l-2.3,5.2l-1.2-1.2L320.2,144.9z"/>
<path id="path2518" d="M325.1,147.2l0.4,0.6c0,0.1,0.1,0.2,0.3,0.3c0.1,0.1,0.2,0.1,0.3,0.1c0.1,0,0.2,0,0.3-0.1
	c0.1-0.1,0.2-0.2,0.2-0.3c0-0.1-0.1-0.3-0.2-0.6l-0.4-0.6L325.1,147.2z M321.6,147.5l4.5-2.8l1.5,2.3c0.3,0.4,0.4,0.8,0.5,1
	c0.1,0.3,0,0.5-0.1,0.8c-0.1,0.3-0.3,0.5-0.6,0.7c-0.3,0.2-0.5,0.3-0.7,0.3c-0.2,0-0.5,0-0.7-0.1c-0.1-0.1-0.3-0.2-0.5-0.4
	c0,0.2,0.1,0.4,0.1,0.5c0,0.1,0,0.2-0.1,0.4c-0.1,0.2-0.1,0.3-0.2,0.4l-0.9,1.5l-1-1.6l0.9-1.6c0.1-0.2,0.2-0.4,0.2-0.5
	c0-0.1,0-0.3-0.1-0.4l-0.1-0.1l-1.8,1.2L321.6,147.5z"/>
<path id="path2522" d="M327.9,154.6l1.6-1.2l-2,0.1L327.9,154.6z M326.9,155.3l-0.6-1.7l-0.9,0.1l-0.6-1.6l5.6,0.1l0.6,1.7l-4.3,3.7
	l-0.6-1.6L326.9,155.3z"/>
<path id="path2526" d="M329.4,160.9l1.1-0.1l0.3,2.5l-2.2,0.3c-0.4-0.4-0.7-0.8-0.8-1.2c-0.2-0.4-0.3-0.8-0.3-1.3
	c-0.1-0.6,0-1.1,0.1-1.6c0.2-0.4,0.4-0.8,0.8-1c0.4-0.3,0.9-0.4,1.4-0.5c0.6-0.1,1.1,0,1.5,0.2c0.5,0.2,0.8,0.5,1.1,0.9
	c0.2,0.3,0.4,0.8,0.4,1.4c0.1,0.6,0.1,1,0,1.3c-0.1,0.3-0.2,0.6-0.4,0.8c-0.2,0.2-0.4,0.4-0.8,0.5l-0.5-1.5c0.2-0.1,0.3-0.2,0.4-0.4
	c0.1-0.2,0.1-0.4,0.1-0.6c-0.1-0.4-0.2-0.6-0.5-0.8c-0.3-0.2-0.7-0.2-1.2-0.2c-0.6,0.1-1,0.2-1.2,0.5c-0.2,0.2-0.3,0.6-0.2,0.9
	c0,0.2,0.1,0.3,0.1,0.5c0.1,0.2,0.2,0.3,0.3,0.5l0.5-0.1L329.4,160.9z"/>
<path id="path2530" d="M332.8,168.9l-0.2,1.6l-3.1-0.4c-0.3,0-0.6-0.1-0.9-0.2c-0.3-0.1-0.5-0.3-0.7-0.5c-0.2-0.2-0.3-0.5-0.4-0.7
	c-0.1-0.3-0.1-0.7,0-1.2c0-0.3,0.1-0.5,0.1-0.8c0.1-0.3,0.2-0.5,0.3-0.7c0.1-0.2,0.3-0.4,0.5-0.5c0.2-0.1,0.4-0.2,0.7-0.3
	c0.3-0.1,0.6-0.1,0.9,0l3.1,0.4l-0.2,1.6l-3.2-0.4c-0.3,0-0.5,0-0.7,0.2c-0.2,0.1-0.3,0.4-0.3,0.6c0,0.3,0,0.5,0.2,0.7
	c0.1,0.2,0.4,0.3,0.6,0.3L332.8,168.9z"/>
<path id="path2534" d="M327.9,174.9l2,0.1l-1.6-1.2L327.9,174.9z M326.7,174.8l0.6-1.8l-0.7-0.5l0.5-1.6l4.3,3.6l-0.6,1.7l-5.6,0.1
	l0.6-1.6L326.7,174.8z"/>
<path id="path2538" d="M329.6,179.7l-0.9,1.6l-2.1,0l1,1.8l-0.9,1.5l-1.6-3.3l-1.9-1.1l0.8-1.4l1.9,1.1L329.6,179.7z"/>
<path id="path2546" class="st5" d="M335,165c0,19.3-15.7,35-35,35c-19.3,0-35-15.7-35-35c0-19.3,15.7-35,35-35
	C319.3,130,335,145.7,335,165z"/>
<path id="path2550" class="st5" d="M326.1,164.9c0,14.4-11.7,26.1-26.1,26.1s-26.1-11.7-26.1-26.1c0-14.4,11.7-26,26.1-26
	S326.1,150.5,326.1,164.9z"/>
<path id="path2554" class="st6" d="M300,155.5l2.2,6.3l6.6,0.1l-5.3,4l1.9,6.3l-5.5-3.8l-5.5,3.8l1.9-6.3l-5.3-4l6.6-0.1L300,155.5z
	"/>
<path id="path2562" class="st7" d="M312,182.9c-0.2,0.2-1.1,0.3-1.3,0.3c-0.2,0-1.2,0-1.6,0.1c-0.2,0-0.6,0.1-0.9,0.1
	C306.4,183.1,311.4,183.1,312,182.9 M307,181.4c0.1-0.2,0.8-1.6,1-2c0.2-0.4,0.7-1.4,1.1-1.9c0.2-0.2,0.8-0.9,0.9-0.6
	c-1.1,0.9-1.9,2.6-2.4,3.7C307.5,180.7,307.2,181.3,307,181.4c-0.1,0.3-0.1,0.6-0.3,0.6c-0.2,0-0.1,0.1-0.1,0.1
	S306.9,181.6,307,181.4z M314.2,182.4c0,0-0.9-0.1-1.4-0.3c-0.5-0.2-1.4-0.3-2.2-0.3c-0.8,0-1.5,0.2-2.1,0.5
	c-0.6,0.2-1.4,0.2-1.4,0.2s-0.5,0.1-0.2,0c0.2-0.1,0.9-0.6,0.9-0.6l0.5-0.6c0.1,0,2.4-3,2.2-3.8c0.4-0.6,0.8-1.7,0.6-1.8
	c-0.1-0.1-1.8,0.5-2.2,0.9c-0.4,0.4-0.7,1.2-0.9,1.6c-0.1,0.4-0.8,0.8-0.8,0.8c-0.5,0.4-0.9,1.6-1.1,2.6c-0.2,1-2.6,1.5-2.6,1.5
	s-0.7,0.3-0.1,0.4c0.1,0,0.4,0.5,0.6,0.5c0.3,0,1.8-0.6,2-0.6c0.3,0.1,0.9,0.2,1.5,0.4c0.6,0.2,1,0.3,1.4,0.1c0.4-0.1,1-0.1,1.4,0
	c0.4,0.1,0.9,0.1,1.2,0c0.3-0.1,1.1-0.5,1.1-0.5s0.8-0.4,1.3-0.6C314.5,182.5,314.2,182.4,314.2,182.4"/>
<path id="path2558" class="st8" d="M307.7,185.4c0,0-3.3-1.7-3.5-1.8c-0.1,0-1.5-0.8-2.2-1c-0.5-0.2-1.1-0.2-1.3-0.2
	c-0.5,0-1.4,0.3-1.4,0.3l0.8,0.3c0,0,0.8,0.4,1.2,0.6c0.5,0.3,0.6,0.6,0.6,0.6l3,1.3l0.6,0.4C305.4,186,306,185.3,307.7,185.4"/>
<path id="path2566" class="st9" d="M311,178.4c1-0.9,1.6-2.3,2.4-3c0.1,0.1,0.1,0.3,0,0.6c-0.2,0.3-0.4,0.4-0.5,0.5
	c-0.2,0.2-0.7,0.7-0.8,0.9c-0.1,0.2-0.3,0.6-0.7,0.9c-0.5,0.3-0.3,0.7-0.4,0.9c0,0.2-0.7,0.7-1.1,1.3c-0.1,0.6-0.1,0.4-0.5,0.6
	C310.1,180.1,310.5,179.4,311,178.4 M308.7,181.4c-0.1,0.1-2.1,1.3-1.5,1.1c0.6-0.2,2.6-0.9,3.1-1.1c0.7-0.3,1.1-0.9,1.6-1.4
	c0.5-0.5,2.1-2,2.4-2.6c0.3-0.6,0.5-1.4-0.6-3.3c0,0-0.2,0.4-0.6,0.7c-0.4,0.4-1,0.8-1,0.8l-0.7,0.6
	C311.4,176.3,309,180.7,308.7,181.4"/>
<path id="path2570" class="st7" d="M317.1,179.8c0,0-1.3-0.1-1.4-0.1c-0.1,0-0.9-0.1-1.9-0.1c-1,0-1.4,0.4-1.7,0.7
	c-0.3,0.3-1.1,1.1-1.1,1.1l0.4,0c1.1-0.8,1.9-0.5,2.2-0.5c0.3,0,0.8,0,1.8-0.4c1.1-0.4,1,0,0.9,0c-0.1,0-0.8,0.3-1.6,0.3
	c-0.8,0-1.5,0.2-1.8,0.2c-0.3,0-2.6,0.6-2.6,0.6s2.5,0.1,2.8,0.2c0.3,0.1,0.7,0.1,1-0.1c1-0.4,1.4-0.5,1.8-0.6
	c0.4-0.1,0.9-0.3,0.9-0.3s0.3-0.2,0.5-0.6C317.4,179.7,317.1,179.8,317.1,179.8"/>
<path id="path2574" class="st7" d="M318.3,172.9c0.2-0.4,0.6-1.3,1-1.7c0.3-0.2,0.7-0.3,0.9-0.4c0.1,0,0.8-0.1-0.1,0.2
	c-0.4,0.1-0.9,0.3-1.1,0.7c-0.3,0.9-0.6,1.6-1.2,2.2c-0.4,0.5-0.7,1-0.7,1l-0.5,0.2C317.5,174.6,317.9,173.6,318.3,172.9z
	 M322.4,172.4c-0.5,0.2-0.7,0.3-0.7,0.3c-1.1,0.3-1.5,1-2,1.6c-0.2,0.3-0.6,0.5-1.7,1c-1,0.4-1.8,1.1-1.9,1.1c0,0-0.3,0.1-0.3,0.2
	c0,0.1,0.3,0,0.3,0s2.1-0.3,3-0.9c0.6-0.4,0.9-0.6,1.4-1.5c0.2-0.4,0.5-1.1,0.5-0.6c0,1.2-1.8,2.3-2.6,2.7c-0.4,0.2-1,0.3-1.8,0.4
	c-0.7,0.1-1.2,0.1-1.1-0.1c0.1-0.2,0.2-0.3,0.4-0.5c0.4-0.4,1.2-0.6,1.8-0.9c0.7-0.3,1.4-0.8,1.8-1.2c0.4-0.4,0.5-0.6,0.6-0.9
	c0.3-0.9,0.3-1.5,0.5-1.8c0.9-1.1,1-1.5,1.1-2c0-0.1-0.5,0.3-0.7,0.4c-0.5,0.3-0.7,0.3-1.7,0.5c-1,0.3-1,0.9-1.1,1.2
	c0,0.1-0.5,0.6-0.7,0.7c-0.2,0.1-0.7,0.8-0.9,1.2c-0.1,0.3-0.4,0.5-0.6,0.5c-0.2,0,0.4-2.2,0.5-2.6c0.1-0.4,0.2-1,0.2-1.3
	c0-0.2,0-0.8-0.4-0.9c-0.4-0.1-0.4-0.6-0.4-0.6c-0.9,0.8-0.4,2.2-0.3,3.1c0.1,0.8-0.2,2.4-0.2,2.4c0.9,0.4,0.2,1.5-0.1,1.8
	c-0.3,0.4-0.9,0.4-1.1,0.7c-0.3,0.3-2.2,3-2.2,3l2.4-0.7c0,0,0.2,0-0.1-0.2c-0.4-0.3,0.1-1.2,0.4-1.5c0.6-0.5,1.4-0.1,1.4-0.1
	s1.1,0.2,2.4-0.4c1.1-0.4,1.6-1.2,2.1-1.7c0.3-0.3,0.8-1.3,1.2-1.8C322.2,173,322.6,172.4,322.4,172.4"/>
<path id="path2582" class="st10" d="M315.7,178.8c0.2-0.1,0.2-0.1,0.5-0.5c0.3-0.4,0-1-0.5-0.9c-0.2,0-0.5,0-1,0.6
	c-0.5,0.7,0.2,0.9,0.5,0.9C315.4,178.9,315.5,178.9,315.7,178.8"/>
<path id="path2586" class="st11" d="M314.5,174.7c-0.3,0.5-0.5,1.1-0.2,1.3c0.1,0,0.3,0.2,0.5,0.2c0.2,0,0.7-0.2,1-0.7
	c0.3-0.4,0.5-0.9-0.1-1.2C315.1,174,314.7,174.3,314.5,174.7"/>
<path id="path2590" class="st7" d="M316.3,168.3c0,0,0-0.1-0.2-0.3c-0.3-0.3-0.7-0.9-0.7-0.9c-0.6,0.4-0.9,1.1-0.9,1.4
	c0,0.3,0.1,0.9,0,1.6c0,0.2-0.1,0.5-0.4,1.3c-0.3,0.8,0,1.5,0.1,1.8c0.1,0.3,0.3,1.1,0.3,1.1s0.3-0.2,0.3-0.2c0.1,0,0.4,0,0.4,0
	s0.4-0.7,0.4-1.1c0-0.3,0-0.8-0.2-1.5c-0.2-1.1-0.2-1.4,0-2C315.7,168.7,316.3,168.3,316.3,168.3"/>
<path id="path2594" class="st12" d="M317.2,169.4c0,0,0.4-0.1,0.6-0.4c0.2-0.4,0.2-0.8,0.2-0.8c-0.6-1.1-1.3-0.2-1.3-0.2
	C315.9,169.3,317.2,169.4,317.2,169.4"/>
<path id="path2598" class="st13" d="M319.2,167.3c-0.9,0-1.3,1.6-1.3,1.6s-0.1,0.4-0.6,0.7c-0.5,0.3-0.2,0.7-0.2,1.5
	c0,0.8-0.5,2.1-0.5,2.1l-0.2,0.5c0,0,0,0.3,0.3-0.3c0.5-1,1.1-0.8,1.3-1.9c0.1-0.8,1.5-1.1,1.5-1.1l-0.4-0.1
	c-1.4-0.7,0.1-2.4,0.3-2.7C319.8,167.3,320,167.3,319.2,167.3"/>
<path id="path2602" class="st14" d="M318.9,169.2c-0.4,0.8,0.7,0.9,1,0.7c0.1-0.1,0.3-0.3,0.3-0.3c0.4-0.6,0-1.1-0.2-1.1
	C319.8,168.3,319.3,168.3,318.9,169.2"/>
<path id="path2606" class="st7" d="M316.8,165.9c0.3,0.5,1.1,2.1,1.3,2c0.1-0.1,0-0.4,0-0.4s0-0.4-0.2-0.9c-0.1-0.5-0.1-1.1-0.4-1.5
	c-0.3-0.4-0.9-0.9-1.1-1.5c-0.2-0.6-0.1-1.9,0-2c0-0.1,0.1,0,0-0.2c-0.1-0.2-1.2-0.7-1.2-0.7s0.1,0.4,0,1.1c0,0.2-0.1,0.4-0.1,0.7
	c0,0.3,0.1,0.7,0.6,1.5C316.3,164.9,316.6,165.4,316.8,165.9"/>
<path id="path2610" class="st7" d="M323,158.7c0,0-0.3,0.5-0.4,0.6c-0.1,0.1-1.8,1.5-1.9,1.6c-0.1,0.1-1,0.3-1.8,2.5
	c-0.8,2.1-0.5,4.2-0.5,4.2l0.4,0l0.1-0.2c0,0,0.1-0.7,0.2-1.3c0.1-0.5,0.7-1.3,1.1-1.8c0.4-0.5,0.7-1.3,0.7-1.3
	c0.4-0.9,0.7-1.7,1.1-2.3c0,0.8-2.8,5.4-3.1,6.9l0.8-0.1c0.7-0.6,1.6-1.9,2.2-2.8c0.6-0.8,0.9-2.1,1-2.7
	C323,161.4,323,158.7,323,158.7"/>
<path id="path2614" class="st7" d="M317.3,159.2c-0.4-0.4-0.8-0.5-0.8-0.5s0.1,0.8,0.1,1.3c0,0.5,0,1.3,0,1.7c0,0.4-0.2,1.1,0.1,1.8
	c0.3,0.7,0.7,1,0.9,1.5c0.2,0.4,0.6,2.6,0.6,2.6s-0.2-3,0-3.8c0.1-0.8,0.2-2.1,0-2.7C318,160.4,317.7,159.6,317.3,159.2"/>
<path id="path2626" class="st7" d="M319.3,156.3c0.1-0.3,0.4-0.8,0.6-1.6c0-0.3,0.1-0.9,0.1-1.3c0-0.3-0.1-0.7,0-0.7
	c0.1,0,0,0.1,0.1,0.5c0,0.1-0.1,0.5-0.1,1c0,0.4,0,0.7-0.2,1.2c-0.1,0.5,0,1-0.1,1.1c-0.1,0.1-0.4,0.7-0.4,0.7s-0.2,0.4-0.1,0.8
	c0,0.4,0,0.8,0,0.8s0.2-0.4,0.6-0.4c0,0,0.1-0.7,0.1-0.9c0-0.2,0.3-1.6,0.4-2c0.2-0.6,0.3-1.7,0-3c-0.1-0.3-0.1-1.4-0.1-1.4
	s-0.4,0.3-0.6,1.5c-0.1,0.4,0.1,1.4,0,2.4c0,0.6-0.6,3-0.7,3.1"/>
<path id="path2630" class="st7" d="M319.3,156.3C319.2,156.4,319.2,156.4,319.3,156.3C319.2,156.4,319.3,156.4,319.3,156.3"/>
<path id="path2634" class="st7" d="M317.7,150.2c0.2,0,0.2,0.2,0.2,0.4c0,0.2,0,0.5,0,0.6c0,0.1,0.1,0.6,0.2,0.8
	c0.1,0.3,0.2,0.4,0.2,0.9c0,0.3-0.4,0.7-0.3,1.3c0.1,0.3,0.3,0.6,0.4,0.9c0.1,0.2,0,0.6,0.1,1c0,0.4,0.2,0.6,0.2,0.6
	s-0.2,0.5-0.3-0.1c-0.1-0.6-0.1-0.9-0.2-1.2c-0.2-0.5-0.4-1.3-0.1-2c0.1-0.1,0.1-0.4,0.1-0.7c0-0.3-0.2-0.8-0.2-1.1
	c0-0.2,0-0.8,0-0.9 M316.6,153.4c0.1,0.4,0.2,0.6,0.6,1.4c0.1,0.3,0.4,0.9,0.5,1.1c0.1,0.2,0.1,0.5,0.1,0.5c0,0.1,0,0.6,0,0.6v0.2
	c0,0-1.1-0.7-1.6-1c-0.5-0.4-1.1-0.9-1.4-1.2c-0.4-0.3-1.4-1.5-1.4-2.4l-0.5-0.4c0,0-0.3,2.1,1.3,3.4c0.5,0.4,1,0.8,2.1,1.3
	c1.1,0.5,0.9,1,1.4,1.9c0.4,1,0.7,1.5,0.8,1.8c0,0.3-0.1,4.4-0.1,4.4l0,0.4c0,0,1-3.8,1.5-4.3c0,0-1-0.1-0.9-1.6l-0.2-1
	c0,0-0.2-1.2,0.2-1.9c0,0,0.4-1.3,0.3-2.5c-0.1-0.7-0.1-0.9-0.2-1.6c-0.1-1-0.5-2.5-0.6-2.7c-0.1-0.5-0.2-0.6-0.4-1
	c0-0.1-0.1-0.6-0.3-0.6c-0.1,0-0.2,0.6-0.2,0.6s-0.2,0.7-0.2,0.9c-0.1,0.5-0.4,1-0.6,2.2c0,0.2,0,0.8-0.1,0.9
	C316.6,152.9,316.6,153.3,316.6,153.4"/>
<path id="path2638" class="st7" d="M317.5,158.6c0,0-0.2-0.4-0.3-0.6c-0.3-0.4-0.8-0.7-2.1-1.4c-1.3-0.6-1.6-1.7-2.3-2.1
	c-0.3-0.2-0.9-0.3-0.9-0.3s0.6,0.8,0.7,1.1c0.2,0.4,0.2,0.6,0.9,1.3c0.7,0.7,1.6,0.9,2.1,1.1C316.4,157.9,317.5,158.6,317.5,158.6"
	/>
<path id="path2642" class="st7" d="M313.4,152.5c0,0.1,0.4,1.2,1.1,2.1c1.1,1.4,3.1,2.3,3.1,2.3c-0.2-0.8-0.5-1.8-0.8-2.3
	C315.9,153.2,313.4,152.4,313.4,152.5C313.4,152.4,313.3,152.4,313.4,152.5"/>
<path id="path2646" class="st7" d="M316.4,153.1c0.6-1.2-1.1-2.4-1.6-3.2c0.2-0.1,0.4,0.2,0.6,0.5c0.3,0.4,1,1.4,1,1.4l0.2-1.1
	l-2-1.8c0,0.3-0.6,0.5-0.6,0.5C313.7,151,316.4,153.1,316.4,153.1"/>
<path id="path2650" class="st7" d="M312.9,150.3c-0.5,0.2-0.6,0.2-0.6,0.2l0.3,0.7l0.2,0.2c0,0,0.6,0.9,1,1c0.2,0.1,0.7,0.2,1.3,0.4
	c0.7,0.3,1.9,1.3,1.9,1.3s-1.9-2.2-2.7-3.8l-0.3-0.9l-0.7,0C313.2,149.4,313.4,150.1,312.9,150.3"/>
<path id="path2654" class="st7" d="M305.6,148.9c0.2,0.2,0.6,0.5,1.1,0.8c0.4,0.3,1.7,1,2.6,1.2c0.2,0,1.4,0.2,1.4,0.2
	c0-0.5,0.6-0.6,0.6-0.6l-1.6-0.2c-1.3-0.1-2.3-0.7-3.1-1.5c1.1,0.6,2.6,1.6,3.8,1.6c5-0.5-1.5-0.6-2.1-1c-0.6-0.4-1.1-1-1.1-1
	l-1.5-0.1C305.6,148.3,304.9,148.2,305.6,148.9"/>
<path id="path2658" class="st7" d="M311.6,151.8c0.3,0,0.6-0.1,0.6-0.4c0.1-0.4-0.1-0.7-0.6-0.8c-0.3-0.1-0.7-0.1-0.9,0.4
	c-0.2,0.5,0.5,0.8,0.5,0.8S311.4,151.8,311.6,151.8"/>
<path id="path2662" class="st7" d="M312.1,148.9c-0.4,0-0.6,0.3-0.5,1c0.1,0.7,1.2,0.4,1.2,0.4l0.2-0.1c0,0,0.1-0.1,0.1-0.7
	C313,149,312.6,148.9,312.1,148.9"/>
<path id="path2666" class="st7" d="M313.8,149.4L313.8,149.4C313.8,149.4,313.8,149.4,313.8,149.4"/>
<path id="path2670" class="st7" d="M313.8,149.4c0,0,0,0,0.2-0.1c0.2-0.1,0.4-0.6,0.4-0.6c0.1-0.7-0.4-0.9-0.4-0.9
	c-0.9-0.2-0.9,0.6-0.9,0.6C312.9,149.4,313.7,149.4,313.8,149.4"/>
<path id="path2674" class="st7" d="M310,146c0,0.3,0.5,0.8,0.6,0.9c0.1,0.1,0.7,0.7,0.9,1c0.2,0.3,0.9,1.5,0.9,1.5s0.1,0,0.2-0.1
	c0.1-0.2-0.4-1.7-0.5-1.8c-0.2-0.5-0.5-0.8-0.9-1.2c-0.1-0.1-0.4-0.4-0.7-0.8c0.6,0.8,2.1,2.9,2.6,3.9c0,0-0.1-1-0.1-1.6
	c-0.2-1.6-0.6-2.1-0.7-2.3c-0.2-0.4-0.8-0.9-1.3-1c-0.4-0.2-0.9-0.4-1.5-0.5c-0.6-0.2-0.1,0.3,0.1,0.8
	C309.8,145.2,310,145.7,310,146"/>
<path id="path2678" class="st7" d="M307.9,148.7c0.6,0.5,0.8,0.8,2,1c1.2,0.2,1.3,0.1,1.3,0.1s0.6-0.3,0.3-0.5
	c-1.7-0.8-3.3-1.6-4.2-2.7c0,0,0.1-0.1,0.7,0.5c0.3,0.3,0.6,0.5,0.8,0.7c0.6,0.4,0.9,0.6,1.5,0.9c0.3,0.2,1.2,0.4,1.2,0.4
	s0.1-0.3,0.2-0.3c0.1,0-0.1-0.4-0.8-1c-0.6-0.5-1-1.1-1-1.1s-0.8-0.2-1.8-0.3c-0.7-0.1-2-1.1-2-0.8c0,0.3,0.2,1.1,0.5,1.7
	C307,147.6,307.4,148.2,307.9,148.7"/>
<path id="path2686" class="st8" d="M298.3,183.4c-0.5,0.1-4.3,1.6-4.3,1.6l-1.1,0.4c1.5-0.3,2.6,0.4,2.6,0.4l4.2-2
	c0,0,0-0.1-0.1-0.1C299.5,183.7,298.8,183.3,298.3,183.4"/>
<path id="path2690" class="st15" d="M292.8,185.6c0,0-0.1,0.1,0,0.2c0.2,0.1,0.2,0.2,1.1,0.3c1,0.1,1.6-0.1,1.8-0.3
	C295.9,185.5,293.3,185.1,292.8,185.6"/>
<path id="path2694" class="st16" d="M286.8,172l-0.2-1.2c0,0-0.2-3.2-0.6-3.8c-0.1-0.1,0-0.5-0.3-0.5c-0.4,0-0.4,1-0.5,1.9
	c-0.7,4.8,3.1,8.4,3.1,8.4L286.8,172z"/>
<path id="path2698" class="st17" d="M305.5,186c0,0-0.4-0.1-0.1-0.4c0.2-0.3,1-0.5,1.1-0.5c0.1,0,0.5,0,0.8,0.1
	c0.3,0.1,0.7,0.3,0.6,0.5c-0.1,0.2-0.5,0.4-1.1,0.4c-0.5,0-0.7,0-0.9-0.1C305.7,186.1,305.5,186,305.5,186"/>
<path id="path2682" class="st8" d="M301.4,183.8c0,0-1.3-0.6-2.5-1.2c-1.6-0.8-3.6-1.9-4.9-3.9c-1.7-2.5-3.2-3.8-3.5-4.1
	c-0.4-0.3-0.4-0.4-0.6-0.2c-0.1,0.2,0,0.3,0.1,0.5c0.4,0.6,1.2,1.6,1.5,2.2c0.5,1,1.6,2.1,1.6,2.8c0,0.1-0.3-0.1-0.3-0.1
	s-2.6-0.9-3.6-4c-0.8-2.3-0.4-2.9-0.6-4.1c-0.3-2-0.4-2.2-1.4-4.4c0-0.1-0.6-1-0.7-0.8c-0.1,0.3,0.1,1.3,0.1,1.3l0.1,1.2
	c0,0-0.1,2.6-0.1,2.7s-0.6,1.8,2.1,4.5c0,0,0,0.5-0.3,0.1c-0.3-0.3-2.2-1.8-2.8-4.3c-0.6-2.5-0.7-5-0.2-6c0.4-0.9,1.3-3.2,0.9-5.2
	c0-0.2-0.1-0.8-0.2-0.7c-0.1,0.1-0.3,1.1-0.5,1.4c-0.2,0.5-0.5,1-0.6,1.3c-0.2,0.6-1.1,1.4-1,3c0.2,1.8,0.3,2.1,0.6,2.8
	c0.1,0.2,0.3,0.8,0.1,0.9c-0.1,0.1-0.5-0.7-0.5-0.7s-1.7-3.4-0.7-6.2c1.1-2.8,3.8-5.4,3.8-5.4s2.2-1.8,2.7-2.3
	c0.2-0.2,0.1-0.3,0.1-0.3c-0.6,0.1-4.8,1-6.3,6.1c0,0-0.1,0.2-0.2,0.2c-0.1-0.1,0-0.3,0-0.3s0.9-3.6,3.6-5.2
	c2.9-1.8,2.5-1.5,3.5-2.1c0.6-0.4,1.1-0.9,1.8-2c0.1-0.1,0.3-0.8,0.3-0.9c0-0.1-0.2,0-0.2,0.2c0,0-0.8,1.3-2,1.7
	c-1.2,0.4-2.2-0.2-3.4,1.2c-1.2,1.4-2.2,3.3-2.2,3.3s-0.3,0.5-0.4,0.5c-0.1,0,0.1-0.5,0.1-0.5s1.6-3.5,3-4.2c1.3-0.7,2.5-1.4,3.2-2
	c0.9-0.7,2.5-2.5,3-3.1c0.1-0.1,1-1,1.1-1.3c0.1-0.2,0.4-0.4,0.3-0.4c-0.1-0.1-0.9,0.3-0.9,0.3s-4.3,1.2-7.1,5.3
	c-0.1,0.2-0.4,0.6-0.6,0.7c-0.3,0.3-0.4,0.8-0.4,0.8c-0.2-0.1,1.5-2.3,1.5-2.3l0.3-1.4c0,0,0.5-2.1,1.6-3.5c0.1-0.1,0.7-0.8,0.8-0.9
	c0.2-0.2-0.4,0.2-0.3,0.1c0,0-4.1,2.9-4.1,6.6c0,0.7-0.4,1.3-1,2.1c-0.7,1-0.9,1.5-1.2,2.9c-0.2,1-0.4,1.8-0.4,1.8s0,0.5-0.1,0.5
	c-0.2,0-0.1-0.5-0.1-0.5s0.4-2.7,0.7-3.6c0.3-0.8,0.5-1.4,0.5-1.4s-0.2-2.1,0.3-3.2c0.4-1,1.4-2.3,1.5-2.6c0.1-0.1,0.5-1.1,0.6-2.1
	c0-0.1-0.1,0-0.3,0.4c-0.4,1-0.8,1.3-1.6,2.2c0,0-1.9,1.4-2.6,5.4c0,0,0,1.5-0.3,3.9c-0.2,1.7,0,3.4,0.2,4.3
	c0.1,0.6,0.4,0.6,0.2,0.7c-0.1,0,0.1,0-0.2-0.4c-0.3-0.5-0.5-1.4-0.5-2.5c0-2.1,0.2-3.8,0.2-3.8s0.1-3.4-1.3-5
	c-0.1-0.1,0.2,0.7,0.4,1.5c0.2,1-0.1,2.3-0.2,2.8c-0.1,0.5-1,2.8-0.7,4.9c0,0,0.8,3.6,1.8,5.3c0,0,0.6,0.7,0.1,0
	c-0.6-0.7-1.7-3.5-1.8-3.7c-0.1-0.2-0.9-2-1.7-2.7c-0.4-0.4-1.5-1-1.5-1s-0.6-0.5-0.1,0.2c0.4,0.5,0.8,1.3,1.1,1.7
	c0.6,0.9,1,1.8,1.3,2.4c0.4,0.8,1.2,3.2,1.2,3.2l0.6,1.5c0,0,0.9,0.5,1.4,1.1c0.4,0.5,1.3,1.5,2,3.3c0.3,0.8,1,1.6,1,1.6
	s-0.1,0.3-0.7-0.7c-0.6-1-1.1-2.9-2.5-4.3c-1-1.1-3.8-2.2-3.8-2.2s1.8,3.1,2.2,3.6c0.7,0.9,1.8,2.1,2.1,2.4c0.3,0.3,1.9,2.4,2.2,2.7
	c0.4,0.5,0.6,0.7,0.8,0.9c0.4,0.5,1.7,1.3,1.8,1.5c0,0.1,0,0-0.1-0.1c-0.6-0.3-1.3-0.9-2-1.3c-0.7-0.5-3.4-1.6-5.3-4.2
	c-0.4-0.8-0.6-1.1-0.8-1c-0.2,0.1,1.2,5,4.3,6.5c0,0,3.3,1.5,4.1,1.9c0.4,0.2,1.2,0.6,1.6,0.9c0.2,0.2-0.2,0.2-0.2,0.2
	c-1.8-0.1-4.3-0.4-5.9-1.3c0,0-0.7-0.5-0.1,0.2c0.4,0.5,1.3,1.8,2.9,2.5c1.6,0.7,3.9,1.1,4.8,1.2c0.8,0,3.8,0.1,4.4,0.2
	c0.6,0.2,1.5,0.8,2.1,1c0.5,0.2,2,0.7,2,0.7s0.4,0.2,0.7,0.3c0.3,0.1,1.4,0.1,1.5-0.1C301.8,184.1,301.4,183.8,301.4,183.8"/>
<path id="path2622" class="st7" d="M320.7,158.5c0.3,0.1,0.5,1.1,0.5,1.1s0-0.6,0-0.9c0-0.3-0.1-1.4-0.1-1.4l-0.3,0.2
	c-0.4,0.3-0.6,0.8-0.6,0.8S320.4,158.4,320.7,158.5"/>
</svg>
