<?xml version="1.0" encoding="utf-8"?>
<!-- Generator: Adobe Illustrator 21.0.0, SVG Export Plug-In . SVG Version: 6.00 Build 0)  -->
<svg version="1.1" id="Layer_1" xmlns="http://www.w3.org/2000/svg" xmlns:xlink="http://www.w3.org/1999/xlink" x="0px" y="0px"
	 viewBox="0 0 600 300" style="enable-background:new 0 0 600 300;" xml:space="preserve">
<style type="text/css">
	.st0{fill:#00AFCA;}
	.st1{fill:#FEC50C;}
	.st2{fill:#FEC50C;stroke:#00AFCA;stroke-width:0.3813;}
</style>
<title>Flag of Kazakhstan</title>
<rect class="st0" width="600" height="300"/>
<g>
	<circle class="st1" cx="-756.3" cy="-294" r="40.4"/>
	<g>
		<g id="r4">
			<path id="r" class="st1" d="M-756.3-339.9c2.4,0,3.3-1.5,3.3-3.3c0-2.4-3.3-13.8-3.3-13.8s-3.3,11.4-3.3,13.8
				C-759.6-341.4-758.7-339.9-756.3-339.9z"/>
			<g transform="rotate(90)">
				<path id="r_1_" class="st1" d="M-710.5-294c0,2.4,1.5,3.3,3.3,3.3c2.4,0,13.8-3.3,13.8-3.3s-11.4-3.3-13.8-3.3
					C-708.9-297.3-710.5-296.4-710.5-294z"/>
			</g>
			<g transform="rotate(180)">
				<path id="r_2_" class="st1" d="M-756.3-248.1c-2.4,0-3.3,1.5-3.3,3.3c0,2.4,3.3,13.8,3.3,13.8s3.3-11.4,3.3-13.8
					C-753-246.6-753.9-248.1-756.3-248.1z"/>
			</g>
			<g transform="rotate(270)">
				<path id="r_3_" class="st1" d="M-802.2-294c0-2.4-1.5-3.3-3.3-3.3c-2.4,0-13.8,3.3-13.8,3.3s11.4,3.3,13.8,3.3
					C-803.7-290.7-802.2-291.6-802.2-294z"/>
			</g>
		</g>
		<g>
			<g id="r4_1_">
				<path id="r_4_" class="st1" d="M-738.8-336.4c2.2,0.9,3.6-0.2,4.3-1.8c0.9-2.2,2.2-14,2.2-14s-7.4,9.3-8.3,11.5
					C-741.2-339.1-741-337.3-738.8-336.4z"/>
				<g transform="rotate(90)">
					<path id="r_5_" class="st1" d="M-714-276.4c-0.9,2.2,0.2,3.6,1.8,4.3c2.2,0.9,14,2.2,14,2.2s-9.3-7.4-11.5-8.3
						C-711.3-278.9-713-278.7-714-276.4z"/>
				</g>
				<g transform="rotate(180)">
					<path id="r_6_" class="st1" d="M-773.9-251.6c-2.2-0.9-3.6,0.2-4.3,1.8c-0.9,2.2-2.2,14-2.2,14s7.4-9.3,8.3-11.5
						C-771.4-248.9-771.7-250.7-773.9-251.6z"/>
				</g>
				<g transform="rotate(22.5)">
					<path id="r_7_" class="st1" d="M-798.7-311.6c0.9-2.2-0.2-3.6-1.8-4.3c-2.2-0.9-14-2.2-14-2.2s9.3,7.4,11.5,8.3
						C-801.4-309.1-799.6-309.3-798.7-311.6z"/>
				</g>
			</g>
			<g>
				<g id="r4_2_">
					<path id="r_8_" class="st1" d="M-723.9-326.4c1.7,1.7,3.4,1.3,4.7,0c1.7-1.7,7.4-12.1,7.4-12.1s-10.4,5.7-12.1,7.4
						C-725.1-329.9-725.6-328.1-723.9-326.4z"/>
					<g transform="rotate(90)">
						<path id="r_9_" class="st1" d="M-723.9-261.6c-1.7,1.7-1.3,3.4,0,4.7c1.7,1.7,12.1,7.4,12.1,7.4s-5.7-10.4-7.4-12.1
							C-720.5-262.8-722.2-263.3-723.9-261.6z"/>
					</g>
					<g transform="rotate(180)">
						<path id="r_10_" class="st1" d="M-788.8-261.6c-1.7-1.7-3.4-1.3-4.7,0c-1.7,1.7-7.4,12.1-7.4,12.1s10.4-5.7,12.1-7.4
							C-787.5-258.1-787.1-259.9-788.8-261.6z"/>
					</g>
					<g transform="rotate(45)">
						<path id="r_11_" class="st1" d="M-788.8-326.4c1.7-1.7,1.3-3.4,0-4.7c-1.7-1.7-12.1-7.4-12.1-7.4s5.7,10.4,7.4,12.1
							C-792.2-325.2-790.5-324.7-788.8-326.4z"/>
					</g>
				</g>
				<g id="r16">
					<g id="r4_3_">
						<path id="r_12_" class="st1" d="M-714-311.6c0.9,2.2,2.7,2.5,4.3,1.8c2.2-0.9,11.5-8.3,11.5-8.3s-11.8,1.3-14,2.2
							C-713.8-315.2-714.9-313.8-714-311.6z"/>
						<g transform="rotate(90)">
							<path id="r_13_" class="st1" d="M-738.8-251.6c-2.2,0.9-2.5,2.7-1.8,4.3c0.9,2.2,8.3,11.5,8.3,11.5s-1.3-11.8-2.2-14
								C-735.1-251.5-736.6-252.5-738.8-251.6z"/>
						</g>
						<g transform="rotate(180)">
							<path id="r_14_" class="st1" d="M-798.7-276.4c-0.9-2.2-2.7-2.5-4.3-1.8c-2.2,0.9-11.5,8.3-11.5,8.3s11.8-1.3,14-2.2
								C-798.9-272.8-797.8-274.2-798.7-276.4z"/>
						</g>
						<g transform="rotate(67.5)">
							<path id="r_15_" class="st1" d="M-773.9-336.4c2.2-0.9,2.5-2.7,1.8-4.3c-0.9-2.2-8.3-11.5-8.3-11.5s1.3,11.8,2.2,14
								C-777.5-336.5-776.1-335.5-773.9-336.4z"/>
						</g>
					</g>
				</g>
				<g>
					<g>
						<g id="r4_4_">
							<path id="r_16_" class="st1" d="M-747.4-339c2.4,0.4,3.5-0.9,3.9-2.6c0.5-2.4-0.5-14.2-0.5-14.2s-5.5,10.6-5.9,12.9
								C-750.3-341.1-749.7-339.5-747.4-339z"/>
							<g transform="rotate(90)">
								<path id="r_17_" class="st1" d="M-711.3-285.1c-0.4,2.4,0.9,3.5,2.6,3.9c2.4,0.5,14.2-0.5,14.2-0.5s-10.6-5.5-12.9-5.9
									C-709.2-288-710.9-287.4-711.3-285.1z"/>
							</g>
							<g transform="rotate(180)">
								<path id="r_18_" class="st1" d="M-765.3-249c-2.4-0.4-3.5,0.9-3.9,2.6c-0.5,2.4,0.5,14.2,0.5,14.2s5.5-10.6,5.9-12.9
									C-762.3-246.9-762.9-248.5-765.3-249z"/>
							</g>
							<g transform="rotate(270)">
								<path id="r_19_" class="st1" d="M-801.3-302.9c0.4-2.4-0.9-3.5-2.6-3.9c-2.4-0.5-14.2,0.5-14.2,0.5s10.6,5.5,12.9,5.9
									C-803.5-300-801.8-300.6-801.3-302.9z"/>
							</g>
						</g>
						<g>
							<g id="r4_5_">
								<path id="r_20_" class="st1" d="M-730.8-332.1c2,1.3,3.6,0.6,4.6-0.9c1.3-2,4.9-13.3,4.9-13.3s-9.1,7.7-10.4,9.7
									C-732.7-335.2-732.8-333.5-730.8-332.1z"/>
								<g transform="rotate(90)">
									<path id="r_21_" class="st1" d="M-718.2-268.5c-1.3,2-0.6,3.6,0.9,4.6c2,1.3,13.3,4.9,13.3,4.9s-7.7-9.1-9.7-10.4
										C-715.1-270.4-716.9-270.5-718.2-268.5z"/>
								</g>
								<g transform="rotate(180)">
									<path id="r_22_" class="st1" d="M-781.8-255.9c-2-1.3-3.6-0.6-4.6,0.9c-1.3,2-4.9,13.3-4.9,13.3s9.1-7.7,10.4-9.7
										C-779.9-252.8-779.8-254.5-781.8-255.9z"/>
								</g>
								<g transform="rotate(22.5)">
									<path id="r_23_" class="st1" d="M-794.5-319.5c1.3-2,0.6-3.6-0.9-4.6c-2-1.3-13.3-4.9-13.3-4.9s7.7,9.1,9.7,10.4
										C-797.6-317.6-795.8-317.5-794.5-319.5z"/>
								</g>
							</g>
							<g id="sun" transform="translate(1080.4716,420)">
								<g id="r4_6_">
									<path id="r_24_" class="st1" d="M-718.2-319.5c1.4,2,3.1,1.9,4.6,0.9c2-1.3,9.7-10.4,9.7-10.4s-11.3,3.6-13.3,4.9
										C-718.8-323.1-719.5-321.5-718.2-319.5z"/>
									<g transform="rotate(90)">
										<path id="r_25_" class="st1" d="M-730.8-255.9c-2,1.4-1.9,3.1-0.9,4.6c1.3,2,10.4,9.7,10.4,9.7s-3.6-11.3-4.9-13.3
											C-727.3-256.4-728.9-257.2-730.8-255.9z"/>
									</g>
									<g transform="rotate(180)">
										<path id="r_26_" class="st1" d="M-794.5-268.5c-1.4-2-3.1-1.9-4.6-0.9c-2,1.3-9.7,10.4-9.7,10.4s11.3-3.6,13.3-4.9
											C-793.9-264.9-793.1-266.5-794.5-268.5z"/>
									</g>
									<g transform="rotate(45)">
										<path id="r_27_" class="st1" d="M-781.8-332.1c2-1.4,1.9-3.1,0.9-4.6c-1.3-2-10.4-9.7-10.4-9.7s3.6,11.3,4.9,13.3
											C-785.4-331.6-783.8-330.8-781.8-332.1z"/>
									</g>
								</g>
								<g id="r16_1_">
									<g id="r4_7_">
										<path id="r_28_" class="st1" d="M-711.3-302.9c0.5,2.3,2.1,2.9,3.9,2.6c2.4-0.5,12.9-5.9,12.9-5.9s-11.9-1-14.2-0.5
											C-710.5-306.5-711.8-305.3-711.3-302.9z"/>
										<g transform="rotate(90)">
											<path id="r_29_" class="st1" d="M-747.4-249c-2.3,0.5-2.9,2.1-2.6,3.9c0.5,2.4,5.9,12.9,5.9,12.9s1-11.9,0.5-14.2
												C-743.8-248.2-745-249.5-747.4-249z"/>
										</g>
										<g transform="rotate(180)">
											<path id="r_30_" class="st1" d="M-801.3-285.1c-0.5-2.3-2.1-2.9-3.9-2.6c-2.4,0.5-12.9,5.9-12.9,5.9s11.9,1,14.2,0.5
												C-802.2-281.5-800.9-282.7-801.3-285.1z"/>
										</g>
										<g transform="rotate(11.25)">
											<path id="r_31_" class="st1" d="M-765.3-339c2.3-0.5,2.9-2.1,2.6-3.9c-0.5-2.4-5.9-12.9-5.9-12.9s-1,11.9-0.5,14.2
												C-768.8-339.8-767.6-338.5-765.3-339z"/>
										</g>
									</g>
								</g>
							</g>
							<g id="bird">
								<path class="st1" d="M-763.5-206.6c-1.1,0.1-2.1,0.2-3.2,0.5c-1.4,0.2-2.8,0.7-4.2,0.9l-0.6,0.1l-0.9,0.1
									c0.1,0.3,0.1,0.5,0.1,0.8c0,0.3,0,0.5-0.1,0.8c-0.1,0.2-0.2,0.5-0.4,0.6c-0.2,0.2-0.4,0.4-0.7,0.5c-0.2,0.1-0.5,0.2-0.8,0.2
									c-0.3,0-0.5,0-0.8-0.1c-0.3-0.1-0.5-0.3-0.8-0.5c-0.3,0.1-0.6,0.1-0.8,0.1c-0.3,0-0.5,0-0.8,0c-0.3-0.1-0.6-0.2-0.8-0.3
									c-0.3-0.1-0.5-0.2-0.8-0.4c-1,0.6-2.2,1.2-2.8,2.2c-0.4,0.5-0.4,1-0.5,1.6c0,0.7,0.1,1.4,0.4,2.1c0.1,0.2,0.2-0.7,0.5-0.8
									c0.6-0.5,1.3-0.8,2-1c0.6-0.3,0.5,0,0.3,0.5c-0.1,0.2-0.4,1.2,0.1,0.7c2-0.9,4.3-1.1,6.5-1.2c3.2-0.3,6.4-0.4,9.6-0.4
									c3,0,6,0.1,9,0.2c1.4,0,2.9,0.4,4.3,0.1c0.3-0.1,0.9-0.1,1.1-0.3c-0.6-0.4-1.4-0.4-2.1-0.5h-5.7c-1.6-0.2-3.2-0.2-4.8-0.8
									c-0.4-0.2-0.8-0.5-1.2-0.1c-0.6,0.2-1.2,0.3-1.8,0.4c-1,0.1-2.1-0.1-3.1-0.5c0.7-1,1.5-1.8,2.3-2.7
									c-0.6-0.1-1.2-0.2-1.8-0.4C-765.6-204.9-764.6-205.8-763.5-206.6L-763.5-206.6z"/>
								<path class="st1" d="M-716.8-196.2c-2.2,1.3-3.8-1-5.6-1.7c-1.3,0.7-1.4,3.1-2.6,4.2c-1.5,1.7-3.2-0.5-3.1-2.1
									c-1.7,1.5-2.6,4.8-5.4,4.3c-1.3-1.1-2.3-3.4-3.3-0.8c-0.8,1.3-3,3.1-4.2,1.2c-0.4-1.7-1.2-3.7-2.1-1
									c-0.6,1.9-2.7,3.3-4.6,2.5c-1.1-0.9,0.9-4.1-0.5-3.9c-2,1.3-3.2,4.7-6.1,4.4c-1.1-1.2,0.7-3.3-0.5-4.7
									c-1.4,1.8-3,4.5-5.5,4.7c-1.2-1,0-3.8-0.7-4.2c-2.5,1.5-5.2,4.2-8.4,3.4c1.2-4.8,6.4-6.4,10.8-6.8
									c7.5-0.9,15.4,0.8,22.7-1.9c1.2-0.7,4-1.7,3-3.4c-0.9-1.3,2.3-0.8,2.6-2.3c-0.2-1.9,1.5-1.7,3.1-1.8
									c7.3-0.3,14.5,1.2,21.8,1.5c0.6,3.6-3.4,6-6.6,4.9c-1.5,0.2-3.8-3.5-3.3-0.8C-715.7-199-715.5-197.1-716.8-196.2
									 M-779-203.5c1.7,1.5,2.9-0.3,4.5-1c5.3-1.8,9.9-5,14.5-8.2c2.8-2.3,5.2-5.3,8.9-6c7.2-2.2,14.9-1.9,22.2-3.9
									c5.5-7.6,14.9-10.3,22.8-14.6c1.8-0.5,2.5-2,3-3.6c3-4.7,7.1-9,12-11.8c2.3-1.3,5-2,7.6-1.4c-0.2,3.1-2,5.8-4.1,8
									c1.8,0,3.3-1.1,5-1.1c0.6,3.2-2.8,4.8-4.6,6.8c1,0.2,4.9,0.5,2.8,1.5c-2.7,1.9-5.8,3.2-8.3,5.3c2.3,0.4,2.6,0.9,0.2,1.7
									c-1.3,0.9-3.7,1.2-3.9,2.8c1.7,1.1-0.8,2.1-1.8,2.5c-1.9,0.4-3.8,1.2-1.4,2.7c-0.9,1.4-3,1.7-4.6,1.6
									c0.5,1.6,1.2,3.4-0.9,4.1c-4.7,3.5-10.2,6.1-16.1,6.7c7.4,0.6,14.9-0.8,21.2-4.8c0.8-1,5.2-2,2.7-2.9
									c-1.1-0.5-3.6-1-3.8-1.9c3.4-2.1,7.7-1.4,11.4-2.6c0.1-1.2-2.8-0.9-3.9-1.1c-2.6-0.2-2.4-0.9,0.1-1.1c3.1-0.8,6.7-1,9.3-3
									c-2.1-1-4.8-0.1-7.1-0.9c3.9-1.7,8.4-1.9,11.9-4.4c1.6-1.8-2-1.2-3.1-1.2c-2.1,0.4-3.1-0.7-0.7-1.5
									c4.2-3.1,9.4-5.1,12.4-9.5c0.7-1,1.6-4-0.6-2.9c-2.9,1-5.5,4.2-8.8,3.2c6.5-5.1,12.7-10.8,17.2-17.8c0.2-2-2.9-2.2-3.8-0.7
									c-4.2,4-8,8.8-13.3,11.3c5.1-5,9.4-10.8,13.1-16.9c0.8-1.8,2.9-4,1.8-6c-1.9-1.5-4.2-0.1-5.2,1.7c-3.3,4.3-5.7,9.2-9.9,12.7
									c3.7-7,7.5-14.4,7.6-22.5c0-1.7-0.3-4.1-2.6-3.8c-1.8,0.3-1.4,3-2.1,4.4c-1.6,5.5-2.4,11.5-5.7,16.3
									c0.7-4.5,2.1-9.1,1.1-13.7c-0.5-2-3.7-1.2-3.3,0.8c-3.9,19.8-17.2,37-34.5,47c-7.9,4.5-16.8,7.4-25.8,8.7
									c-2.4,0.5-5.1,0.2-7.4,1c-5.6,4.3-9,11.5-16.1,13.8c-3.2,1.6-7.3,1.9-9.6,4.9C-779-204.3-779-203.9-779-203.5"/>
								<path class="st1" d="M-757.7-223.5c-1.1,1.9-1.7,4.1-3,5.8c-4.1-3.7-10-3.6-15.1-3.8c-4.3-0.2-8.9-0.6-12.2-3.7
									c-3.5-2.8-6.3-6.5-10.2-8.8c-3.5-1-7.1-2.2-9.9-4.6c-6.1-4.9-9.5-12.3-15.5-17.4c-1.1-1.1-2.5-2-3.7-2.9
									c-1.2,0.3-0.7,2.9-2.1,1.6c-0.8-0.6-2.8-0.6-3,0.2c1.8,2.4,3.6,5.1,3.9,8.2c-1.2,0.1-3.4-0.3-4,0.2c1.6,2.5,3.7,4.6,6.1,6.4
									c-1.1,0.2-3.4,0.1-3.8,0.5c2.4,1.9,4.9,3.9,8,4.4c0.6,0.8-0.9,2.5,0.4,3.2c0.8,0.3,3.3,0.8,1.5,1.7
									c-1.2,0.8-0.7,2.7,0.8,2.6c1,0.5,3.1,0.6,3.3,1.5c-0.9,0.9-3.5,1.9-1.2,2.7c2.1,1.2,4.5,1.9,6.9,2c-1.2,1-2.7,1.6-3.9,2.6
									c5.6,3.3,11.7,5.4,17.8,7.5c2.4,0.8,4.9,1.6,7.4,2c-7.3-0.4-14.4-2.6-21-5.5c-3.5-1.5-6.9-3-10.5-4.3c1.6-0.8,3.3-1,5-1.7
									c-3.3-0.7-7-0.9-9.9-2.7c0.4-0.8,2.2-0.8,3.1-1.2c1.8-0.4,2.9-0.9,0.4-1.1c-2.5-0.7-5.4-0.4-7.6-1.9c0.1-0.9,2.5-0.6,3.4-1
									c1.2-0.2,2.5-0.4,3.5-1.2c-3.9-1.6-9-0.5-12.1-3.9c-0.7-1.3,2.2-0.3,3-0.5c2.1,0,4.3,0.7,6.3-0.2
									c-5.7-2.5-11.8-4.8-16.1-9.4c-0.5-0.7-1.9-2.8-0.8-3c3.4,0.4,5.8,4.1,9.4,3.6c0.5-0.6-2.1-1.7-2.7-2.6
									c-5.3-4.5-10.4-9.4-14-15.3c-0.3-2,2.8-2.3,3.7-0.7c4,3.9,7.7,8.4,12.7,11c1.8,0.9-1-1-1.4-1.7c-4.6-5.4-9-11.1-12.3-17.4
									c-0.6-1.1-1.5-3.2,0.2-3.8c1.7-0.9,3.5,0.3,4.3,1.8c3.4,4.3,5.9,9.4,10.1,13c-3.6-7-7.5-14.4-7.6-22.4
									c0.1-1.6,0.2-3.9,2.3-3.9c1.8-0.3,1.5,2,2.1,3.1c1.8,5.9,2.5,12.3,6,17.6c-0.8-4.4-1.9-8.9-1.2-13.4c0.2-1.5,1.8-1.9,2.9-1
									c0.9,2.1,1.1,4.8,1.8,7c4.5,15.5,14.7,29,27.9,38.2c10.9,7.5,23.8,11.9,37,12.7C-760.1-223.6-758.9-223.6-757.7-223.5"/>
								<circle class="st1" cx="-774.5" cy="-203.7" r="0.7"/>
								<circle class="st2" cx="-774.5" cy="-203.8" r="0.3"/>
							</g>
							<g>
								<g>
									<g id="oq">
										<path class="st1" d="M-1044.5-398.1c0,0-2.9-2.4-3.9-1.2c-1.6,2,4.8,11.7,4.8,15.1c0,5.6-3.8,7.2-8.4,8
											c-3.1,0.5-8.2-0.2-8.2-0.2c1-1.3,1.6-1.7,3.2-1.8c-1.8-0.9-3.6-2.9-3.6-6.1c0-4.8,2-6.8,2-12.3c0-3-2.5-6.9-2.5-6.9
											c4.4,0.4,6.6,4.5,5.3,7.8c0.7,0.1,1.3-0.1,1.9-0.6c0.3,0.9-0.2,1.9-0.9,2.8c0.5,0.3,0.9,0.1,1.8-0.1
											c-0.1,0.9-0.6,1.9-2,2.8c3.9-1,6.4,1.7,6.4,4.6c0,2.2-1.5,3.7-3,3.7c-0.5,0-1.2-0.2-1.6-0.5c-0.3,0.6-0.1,1.4,0.2,2
											c-1.1-0.3-1.8-0.9-1.3-2.3c-0.8-0.1-1.5-0.4-2-0.9c0.5-0.6,1.2-0.9,2-0.9c-0.6-1.3,0.1-2,1.1-2.5c0,0-0.6,2.5,1,2.5
											c0.7,0,1.4-0.2,1.4-1.3c0-0.9-0.8-2.2-2.7-2.1s-3.4,1.3-3.4,4.3c0,2.8,2.2,4.1,5.2,4.2c2.7,0.1,4.7-1.4,4.7-4.1
											c0-3.6-5.3-11.9-5.3-15.2c0-2.4,2.2-3.8,4.3-3.8c2.8,0,5.1,2.7,5.1,2.7L-1044.5-398.1L-1044.5-398.1z"/>
										<path id="op" class="st1" d="M-1043.9-332.4c0,6.1-5.5,9.2-9.7,9.2c-5.8,0-8.9-3.5-8.9-8c0-2.6,0.5-4.2,1.7-6.6
											c0,0,9.5-19.8,13.2-27.5c0.5-1,0.6-2,0.6-3.6c0-2.5-2.4-4.5-4.9-4.5c-2.3-0.1-4.8,2.1-4.8,4.6c0,3,1.6,4.4,3.2,4.4
											c2,0,2.8-0.8,2.8-2.2c0-1-0.5-1.4-1.1-1.4c-1.7,0-1.2,2.3-1.2,2.3c-0.8-0.2-1.5-1-1.1-2.1c-0.6-0.1-1.2-0.5-1.7-1
											c0.5-0.4,1-0.8,1.7-0.9c-0.4-1.3,0.1-2,1.3-2.2c-0.2,0.5-0.2,1-0.2,1.4c1.8-0.5,4.6,0.3,4.6,3.4c0,3.1-2.2,5.7-6.2,5.1
											c1,0.5,1.5,1.4,1.6,2.5c-0.7-0.3-1.6-0.3-1.6-0.3c0.5,0.8,1.1,1.6,1.1,3.2c-0.8-0.3-1.4-1-2.4-0.6c1.5,3-0.3,7.1-5.1,8
											c1.7-2,2.6-4.2,2.6-6.4c0-7-2-8.2-2-13.1c0-2.1,1.1-4.3,3.1-5.8v0.1c-1.4-0.4-2.3-1-2.8-2c3.2-0.9,7.7-0.9,10.2,0.1
											c2.8,0.3,4.8,2.5,5.4,3.6c0.6,1.1,1.7,5.1,0,8.7c-1.9,3.9-10.7,22.7-13.5,28.6c-0.6,1.2-0.9,2.6-0.9,4
											c0,3.6,3.3,4.9,5.2,4.9c2.2,0,4.5-1.7,4.5-3.8c0-1.4-0.7-2.2-1.8-2.2c-2.5,0-2.4,2.2-1.9,3.5c-1.6-0.7-2.5-2-2.2-3.3
											c-0.9-0.1-1.7-0.5-2.5-1.4c0.6-0.8,1.4-1.4,2.5-1.4c-0.5-2.1,0.9-3,2.2-3.4c-0.4,1.5-0.7,3.3,1.9,3.3
											c1.9,0,3.4,0.3,4.2,1.6c0.1-1.6,0.2-8.1,0.2-8.1c0.1-2.4-3.3-2.4-5.4-1.6c0.8-2.8,2.5-4.3,6.3-3.9
											c-0.9-0.4-1.9-1.3-1.9-2.9c0-2.3,1.8-4.8,3.1-5.5L-1043.9-332.4L-1043.9-332.4z"/>
										<g transform="matrix(1,0,0,-1,0,645.08)">
											<path id="op_1_" class="st1" d="M-1043.9-314.1c0-6.1-5.5-9.2-9.7-9.2c-5.8,0-8.9,3.5-8.9,8c0,2.6,0.5,4.2,1.7,6.6
												c0,0,9.5,19.8,13.2,27.5c0.5,1,0.6,2,0.6,3.6c0,2.5-2.4,4.5-4.9,4.5c-2.3,0.1-4.8-2.1-4.8-4.6c0-3,1.6-4.4,3.2-4.4
												c2,0,2.8,0.8,2.8,2.2c0,1-0.5,1.4-1.1,1.4c-1.7,0-1.2-2.3-1.2-2.3c-0.8,0.2-1.5,1-1.1,2.1c-0.6,0.1-1.2,0.5-1.7,1
												c0.5,0.4,1,0.8,1.7,0.9c-0.4,1.3,0.1,2,1.3,2.2c-0.2-0.5-0.2-1-0.2-1.4c1.8,0.5,4.6-0.3,4.6-3.4c0-3.1-2.2-5.7-6.2-5.1
												c1-0.5,1.5-1.4,1.6-2.5c-0.7,0.3-1.6,0.3-1.6,0.3c0.5-0.8,1.1-1.6,1.1-3.2c-0.8,0.3-1.4,1-2.4,0.6c1.5-3-0.3-7.1-5.1-8
												c1.7,2,2.6,4.2,2.6,6.4c0,7-2,8.2-2,13.1c0,2.1,1.1,4.3,3.1,5.8v-0.1c-1.4,0.4-2.3,1-2.8,2c3.2,0.9,7.7,0.9,10.2-0.1
												c2.8-0.3,4.8-2.5,5.4-3.6c0.6-1.1,1.7-5.1,0-8.7c-1.9-3.9-10.7-22.7-13.5-28.6c-0.6-1.2-0.9-2.6-0.9-4
												c0-3.6,3.3-4.9,5.2-4.9c2.2,0,4.5,1.7,4.5,3.8c0,1.4-0.7,2.2-1.8,2.2c-2.5,0-2.4-2.2-1.9-3.5c-1.6,0.7-2.5,2-2.2,3.3
												c-0.9,0.1-1.7,0.5-2.5,1.4c0.6,0.8,1.4,1.4,2.5,1.4c-0.5,2.1,0.9,3,2.2,3.4c-0.4-1.5-0.7-3.3,1.9-3.3
												c1.9,0,3.4-0.3,4.2-1.6c0.1,1.6,0.2,8.1,0.2,8.1c0.1,2.4-3.3,2.4-5.4,1.6c0.8,2.8,2.5,4.3,6.3,3.9
												c-0.9,0.4-1.9,1.3-1.9,2.9c0,2.3,1.8,4.8,3.1,5.5L-1043.9-314.1L-1043.9-314.1z"/>
										</g>
									</g>
									<g id="oh">
										<g id="oq_1_">
											<path class="st1" d="M-1044.5-398.1c0,0,2.9-2.4,3.9-1.2c1.6,2-4.8,11.7-4.8,15.1c0,5.6,3.8,7.2,8.4,8
												c3.1,0.5,8.2-0.2,8.2-0.2c-1-1.3-1.6-1.7-3.2-1.8c1.8-0.9,3.6-2.9,3.6-6.1c0-4.8-2-6.8-2-12.3c0-3,2.5-6.9,2.5-6.9
												c-4.4,0.4-6.6,4.5-5.3,7.8c-0.7,0.1-1.3-0.1-1.9-0.6c-0.3,0.9,0.2,1.9,0.9,2.8c-0.5,0.3-0.9,0.1-1.8-0.1
												c0.1,0.9,0.6,1.9,2,2.8c-3.9-1-6.4,1.7-6.4,4.6c0,2.2,1.5,3.7,3,3.7c0.5,0,1.2-0.2,1.6-0.5c0.3,0.6,0.1,1.4-0.2,2
												c1.1-0.3,1.8-0.9,1.3-2.3c0.8-0.1,1.5-0.4,2-0.9c-0.5-0.6-1.2-0.9-2-0.9c0.6-1.3-0.1-2-1.1-2.5c0,0,0.6,2.5-1,2.5
												c-0.7,0-1.4-0.2-1.4-1.3c0-0.9,0.8-2.2,2.7-2.1s3.4,1.3,3.4,4.3c0,2.8-2.2,4.1-5.2,4.2c-2.7,0.1-4.7-1.4-4.7-4.1
												c0-3.6,5.3-11.9,5.3-15.2c0-2.4-2.2-3.8-4.3-3.8c-2.8,0-5.1,2.7-5.1,2.7L-1044.5-398.1L-1044.5-398.1z"/>
											<path id="op_2_" class="st1" d="M-1045.1-332.4c0,6.1,5.5,9.2,9.7,9.2c5.8,0,8.9-3.5,8.9-8c0-2.6-0.5-4.2-1.7-6.6
												c0,0-9.5-19.8-13.2-27.5c-0.5-1-0.6-2-0.6-3.6c0-2.5,2.4-4.5,4.9-4.5c2.3-0.1,4.8,2.1,4.8,4.6c0,3-1.6,4.4-3.2,4.4
												c-2,0-2.8-0.8-2.8-2.2c0-1,0.5-1.4,1.1-1.4c1.7,0,1.2,2.3,1.2,2.3c0.8-0.2,1.5-1,1.1-2.1c0.6-0.1,1.2-0.5,1.7-1
												c-0.5-0.4-1-0.8-1.7-0.9c0.4-1.3-0.1-2-1.3-2.2c0.2,0.5,0.2,1,0.2,1.4c-1.8-0.5-4.6,0.3-4.6,3.4c0,3.1,2.2,5.7,6.2,5.1
												c-1,0.5-1.5,1.4-1.6,2.5c0.7-0.3,1.6-0.3,1.6-0.3c-0.5,0.8-1.1,1.6-1.1,3.2c0.8-0.3,1.4-1,2.4-0.6c-1.5,3,0.3,7.1,5.1,8
												c-1.7-2-2.6-4.2-2.6-6.4c0-7,2-8.2,2-13.1c0-2.1-1.1-4.3-3.1-5.8v0.1c1.4-0.4,2.3-1,2.8-2c-3.2-0.9-7.7-0.9-10.2,0.1
												c-2.8,0.3-4.8,2.5-5.4,3.6c-0.6,1.1-1.7,5.1,0,8.7c1.9,3.9,10.7,22.7,13.5,28.6c0.6,1.2,0.9,2.6,0.9,4
												c0,3.6-3.3,4.9-5.2,4.9c-2.2,0-4.5-1.7-4.5-3.8c0-1.4,0.7-2.2,1.8-2.2c2.5,0,2.4,2.2,1.9,3.5c1.6-0.7,2.5-2,2.2-3.3
												c0.9-0.1,1.7-0.5,2.5-1.4c-0.6-0.8-1.4-1.4-2.5-1.4c0.5-2.1-0.9-3-2.2-3.4c0.4,1.5,0.7,3.3-1.9,3.3
												c-1.9,0-3.4,0.3-4.2,1.6c-0.1-1.6-0.2-8.1-0.2-8.1c-0.1-2.4,3.3-2.4,5.4-1.6c-0.8-2.8-2.5-4.3-6.3-3.9
												c0.9-0.4,1.9-1.3,1.9-2.9c0-2.3-1.8-4.8-3.1-5.5L-1045.1-332.4L-1045.1-332.4z"/>
											<g transform="matrix(-1,0,0,1,240,0)">
												<path id="op_3_" class="st1" d="M-1045.1-314.1c0-6.1,5.5-9.2,9.7-9.2c5.8,0,8.9,3.5,8.9,8c0,2.6-0.5,4.2-1.7,6.6
													c0,0-9.5,19.8-13.2,27.5c-0.5,1-0.6,2-0.6,3.6c0,2.5,2.4,4.5,4.9,4.5c2.3,0.1,4.8-2.1,4.8-4.6c0-3-1.6-4.4-3.2-4.4
													c-2,0-2.8,0.8-2.8,2.2c0,1,0.5,1.4,1.1,1.4c1.7,0,1.2-2.3,1.2-2.3c0.8,0.2,1.5,1,1.1,2.1c0.6,0.1,1.2,0.5,1.7,1
													c-0.5,0.4-1,0.8-1.7,0.9c0.4,1.3-0.1,2-1.3,2.2c0.2-0.5,0.2-1,0.2-1.4c-1.8,0.5-4.6-0.3-4.6-3.4c0-3.1,2.2-5.7,6.2-5.1
													c-1-0.5-1.5-1.4-1.6-2.5c0.7,0.3,1.6,0.3,1.6,0.3c-0.5-0.8-1.1-1.6-1.1-3.2c0.8,0.3,1.4,1,2.4,0.6c-1.5-3,0.3-7.1,5.1-8
													c-1.7,2-2.6,4.2-2.6,6.4c0,7,2,8.2,2,13.1c0,2.1-1.1,4.3-3.1,5.8v-0.1c1.4,0.4,2.3,1,2.8,2c-3.2,0.9-7.7,0.9-10.2-0.1
													c-2.8-0.3-4.8-2.5-5.4-3.6c-0.6-1.1-1.7-5.1,0-8.7c1.9-3.9,10.7-22.7,13.5-28.6c0.6-1.2,0.9-2.6,0.9-4
													c0-3.6-3.3-4.9-5.2-4.9c-2.2,0-4.5,1.7-4.5,3.8c0,1.4,0.7,2.2,1.8,2.2c2.5,0,2.4-2.2,1.9-3.5c1.6,0.7,2.5,2,2.2,3.3
													c0.9,0.1,1.7,0.5,2.5,1.4c-0.6,0.8-1.4,1.4-2.5,1.4c0.5,2.1-0.9,3-2.2,3.4c0.4-1.5,0.7-3.3-1.9-3.3
													c-1.9,0-3.4-0.3-4.2-1.6c-0.1,1.6-0.2,8.1-0.2,8.1c-0.1,2.4,3.3,2.4,5.4,1.6c-0.8,2.8-2.5,4.3-6.3,3.9
													c0.9,0.4,1.9,1.3,1.9,2.9c0,2.3-1.8,4.8-3.1,5.5L-1045.1-314.1L-1045.1-314.1z"/>
											</g>
										</g>
									</g>
									<g>
										<g id="ornament">
											<g id="oq_2_">
												<path class="st1" d="M-1044.5-141.9c0,0-2.9,2.4-3.9,1.2c-1.6-2,4.8-11.7,4.8-15.1c0-5.6-3.8-7.2-8.4-8
													c-3.1-0.5-8.2,0.2-8.2,0.2c1,1.3,1.6,1.7,3.2,1.8c-1.8,0.9-3.6,2.9-3.6,6.1c0,4.8,2,6.8,2,12.3c0,3-2.5,6.9-2.5,6.9
													c4.4-0.4,6.6-4.5,5.3-7.8c0.7-0.1,1.3,0.1,1.9,0.6c0.3-0.9-0.2-1.9-0.9-2.8c0.5-0.3,0.9-0.1,1.8,0.1
													c-0.1-0.9-0.6-1.9-2-2.8c3.9,1,6.4-1.7,6.4-4.6c0-2.2-1.5-3.7-3-3.7c-0.5,0-1.2,0.2-1.6,0.5c-0.3-0.6-0.1-1.4,0.2-2
													c-1.1,0.3-1.8,0.9-1.3,2.3c-0.8,0.1-1.5,0.4-2,0.9c0.5,0.6,1.2,0.9,2,0.9c-0.6,1.3,0.1,2,1.1,2.5c0,0-0.6-2.5,1-2.5
													c0.7,0,1.4,0.2,1.4,1.3c0,0.9-0.8,2.2-2.7,2.1c-1.9-0.1-3.4-1.3-3.4-4.3c0-2.8,2.2-4.1,5.2-4.2c2.7-0.1,4.7,1.4,4.7,4.1
													c0,3.6-5.3,11.9-5.3,15.2c0,2.4,2.2,3.8,4.3,3.8c2.8,0,5.1-2.7,5.1-2.7L-1044.5-141.9L-1044.5-141.9z"/>
												<path id="op_4_" class="st1" d="M-1043.9-207.6c0-6.1-5.5-9.2-9.7-9.2c-5.8,0-8.9,3.5-8.9,8c0,2.6,0.5,4.2,1.7,6.6
													c0,0,9.5,19.8,13.2,27.5c0.5,1,0.6,2,0.6,3.6c0,2.5-2.4,4.5-4.9,4.5c-2.3,0.1-4.8-2.1-4.8-4.6c0-3,1.6-4.4,3.2-4.4
													c2,0,2.8,0.8,2.8,2.2c0,1-0.5,1.4-1.1,1.4c-1.7,0-1.2-2.3-1.2-2.3c-0.8,0.2-1.5,1-1.1,2.1c-0.6,0.1-1.2,0.5-1.7,1
													c0.5,0.4,1,0.8,1.7,0.9c-0.4,1.3,0.1,2,1.3,2.2c-0.2-0.5-0.2-1-0.2-1.4c1.8,0.5,4.6-0.3,4.6-3.4c0-3.1-2.2-5.7-6.2-5.1
													c1-0.5,1.5-1.4,1.6-2.5c-0.7,0.3-1.6,0.3-1.6,0.3c0.5-0.8,1.1-1.6,1.1-3.2c-0.8,0.3-1.4,1-2.4,0.6c1.5-3-0.3-7.1-5.1-8
													c1.7,2,2.6,4.2,2.6,6.4c0,7-2,8.2-2,13.1c0,2.1,1.1,4.3,3.1,5.8v-0.1c-1.4,0.4-2.3,1-2.8,2c3.2,0.9,7.7,0.9,10.2-0.1
													c2.8-0.3,4.8-2.5,5.4-3.6c0.6-1.1,1.7-5.1,0-8.7c-1.9-3.9-10.7-22.7-13.5-28.6c-0.6-1.2-0.9-2.6-0.9-4
													c0-3.6,3.3-4.9,5.2-4.9c2.2,0,4.5,1.7,4.5,3.8c0,1.4-0.7,2.2-1.8,2.2c-2.5,0-2.4-2.2-1.9-3.5c-1.6,0.7-2.5,2-2.2,3.3
													c-0.9,0.1-1.7,0.5-2.5,1.4c0.6,0.8,1.4,1.4,2.5,1.4c-0.5,2.1,0.9,3,2.2,3.4c-0.4-1.5-0.7-3.3,1.9-3.3
													c1.9,0,3.4-0.3,4.2-1.6c0.1,1.6,0.2,8.1,0.2,8.1c0.1,2.4-3.3,2.4-5.4,1.6c0.8,2.8,2.5,4.3,6.3,3.9
													c-0.9,0.4-1.9,1.3-1.9,2.9c0,2.3,1.8,4.8,3.1,5.5L-1043.9-207.6L-1043.9-207.6z"/>
												<g transform="matrix(1,0,0,-1,0,645.08)">
													<path id="op_5_" class="st1" d="M-1043.9-225.9c0,6.1-5.5,9.2-9.7,9.2c-5.8,0-8.9-3.5-8.9-8c0-2.6,0.5-4.2,1.7-6.6
														c0,0,9.5-19.8,13.2-27.5c0.5-1,0.6-2,0.6-3.6c0-2.5-2.4-4.5-4.9-4.5c-2.3-0.1-4.8,2.1-4.8,4.6c0,3,1.6,4.4,3.2,4.4
														c2,0,2.8-0.8,2.8-2.2c0-1-0.5-1.4-1.1-1.4c-1.7,0-1.2,2.3-1.2,2.3c-0.8-0.2-1.5-1-1.1-2.1c-0.6-0.1-1.2-0.5-1.7-1
														c0.5-0.4,1-0.8,1.7-0.9c-0.4-1.3,0.1-2,1.3-2.2c-0.2,0.5-0.2,1-0.2,1.4c1.8-0.5,4.6,0.3,4.6,3.4c0,3.1-2.2,5.7-6.2,5.1
														c1,0.5,1.5,1.4,1.6,2.5c-0.7-0.3-1.6-0.3-1.6-0.3c0.5,0.8,1.1,1.6,1.1,3.2c-0.8-0.3-1.4-1-2.4-0.6c1.5,3-0.3,7.1-5.1,8
														c1.7-2,2.6-4.2,2.6-6.4c0-7-2-8.2-2-13.1c0-2.1,1.1-4.3,3.1-5.8v0.1c-1.4-0.4-2.3-1-2.8-2c3.2-0.9,7.7-0.9,10.2,0.1
														c2.8,0.3,4.8,2.5,5.4,3.6c0.6,1.1,1.7,5.1,0,8.7c-1.9,3.9-10.7,22.7-13.5,28.6c-0.6,1.2-0.9,2.6-0.9,4
														c0,3.6,3.3,4.9,5.2,4.9c2.2,0,4.5-1.7,4.5-3.8c0-1.4-0.7-2.2-1.8-2.2c-2.5,0-2.4,2.2-1.9,3.5c-1.6-0.7-2.5-2-2.2-3.3
														c-0.9-0.1-1.7-0.5-2.5-1.4c0.6-0.8,1.4-1.4,2.5-1.4c-0.5-2.1,0.9-3,2.2-3.4c-0.4,1.5-0.7,3.3,1.9,3.3
														c1.9,0,3.4,0.3,4.2,1.6c0.1-1.6,0.2-8.1,0.2-8.1c0.1-2.4-3.3-2.4-5.4-1.6c0.8-2.8,2.5-4.3,6.3-3.9
														c-0.9-0.4-1.9-1.3-1.9-2.9c0-2.3,1.8-4.8,3.1-5.5L-1043.9-225.9L-1043.9-225.9z"/>
												</g>
											</g>
											<g id="oh_1_">
												<g id="oq_3_">
													<path class="st1" d="M-1044.5-141.9c0,0,2.9,2.4,3.9,1.2c1.6-2-4.8-11.7-4.8-15.1c0-5.6,3.8-7.2,8.4-8
														c3.1-0.5,8.2,0.2,8.2,0.2c-1,1.3-1.6,1.7-3.2,1.8c1.8,0.9,3.6,2.9,3.6,6.1c0,4.8-2,6.8-2,12.3c0,3,2.5,6.9,2.5,6.9
														c-4.4-0.4-6.6-4.5-5.3-7.8c-0.7-0.1-1.3,0.1-1.9,0.6c-0.3-0.9,0.2-1.9,0.9-2.8c-0.5-0.3-0.9-0.1-1.8,0.1
														c0.1-0.9,0.6-1.9,2-2.8c-3.9,1-6.4-1.7-6.4-4.6c0-2.2,1.5-3.7,3-3.7c0.5,0,1.2,0.2,1.6,0.5c0.3-0.6,0.1-1.4-0.2-2
														c1.1,0.3,1.8,0.9,1.3,2.3c0.8,0.1,1.5,0.4,2,0.9c-0.5,0.6-1.2,0.9-2,0.9c0.6,1.3-0.1,2-1.1,2.5c0,0,0.6-2.5-1-2.5
														c-0.7,0-1.4,0.2-1.4,1.3c0,0.9,0.8,2.2,2.7,2.1c1.9-0.1,3.4-1.3,3.4-4.3c0-2.8-2.2-4.1-5.2-4.2
														c-2.7-0.1-4.7,1.4-4.7,4.1c0,3.6,5.3,11.9,5.3,15.2c0,2.4-2.2,3.8-4.3,3.8c-2.8,0-5.1-2.7-5.1-2.7L-1044.5-141.9
														L-1044.5-141.9z"/>
													<path id="op_6_" class="st1" d="M-1045.1-207.6c0-6.1,5.5-9.2,9.7-9.2c5.8,0,8.9,3.5,8.9,8c0,2.6-0.5,4.2-1.7,6.6
														c0,0-9.5,19.8-13.2,27.5c-0.5,1-0.6,2-0.6,3.6c0,2.5,2.4,4.5,4.9,4.5c2.3,0.1,4.8-2.1,4.8-4.6c0-3-1.6-4.4-3.2-4.4
														c-2,0-2.8,0.8-2.8,2.2c0,1,0.5,1.4,1.1,1.4c1.7,0,1.2-2.3,1.2-2.3c0.8,0.2,1.5,1,1.1,2.1c0.6,0.1,1.2,0.5,1.7,1
														c-0.5,0.4-1,0.8-1.7,0.9c0.4,1.3-0.1,2-1.3,2.2c0.2-0.5,0.2-1,0.2-1.4c-1.8,0.5-4.6-0.3-4.6-3.4c0-3.1,2.2-5.7,6.2-5.1
														c-1-0.5-1.5-1.4-1.6-2.5c0.7,0.3,1.6,0.3,1.6,0.3c-0.5-0.8-1.1-1.6-1.1-3.2c0.8,0.3,1.4,1,2.4,0.6
														c-1.5-3,0.3-7.1,5.1-8c-1.7,2-2.6,4.2-2.6,6.4c0,7,2,8.2,2,13.1c0,2.1-1.1,4.3-3.1,5.8v-0.1c1.4,0.4,2.3,1,2.8,2
														c-3.2,0.9-7.7,0.9-10.2-0.1c-2.8-0.3-4.8-2.5-5.4-3.6c-0.6-1.1-1.7-5.1,0-8.7c1.9-3.9,10.7-22.7,13.5-28.6
														c0.6-1.2,0.9-2.6,0.9-4c0-3.6-3.3-4.9-5.2-4.9c-2.2,0-4.5,1.7-4.5,3.8c0,1.4,0.7,2.2,1.8,2.2c2.5,0,2.4-2.2,1.9-3.5
														c1.6,0.7,2.5,2,2.2,3.3c0.9,0.1,1.7,0.5,2.5,1.4c-0.6,0.8-1.4,1.4-2.5,1.4c0.5,2.1-0.9,3-2.2,3.4
														c0.4-1.5,0.7-3.3-1.9-3.3c-1.9,0-3.4-0.3-4.2-1.6c-0.1,1.6-0.2,8.1-0.2,8.1c-0.1,2.4,3.3,2.4,5.4,1.6
														c-0.8,2.8-2.5,4.3-6.3,3.9c0.9,0.4,1.9,1.3,1.9,2.9c0,2.3-1.8,4.8-3.1,5.5L-1045.1-207.6L-1045.1-207.6z"/>
													<g transform="matrix(1,0,0,-1,0,1000)">
														<path id="op_7_" class="st1" d="M-1045.1-225.9c0,6.1,5.5,9.2,9.7,9.2c5.8,0,8.9-3.5,8.9-8c0-2.6-0.5-4.2-1.7-6.6
															c0,0-9.5-19.8-13.2-27.5c-0.5-1-0.6-2-0.6-3.6c0-2.5,2.4-4.5,4.9-4.5c2.3-0.1,4.8,2.1,4.8,4.6c0,3-1.6,4.4-3.2,4.4
															c-2,0-2.8-0.8-2.8-2.2c0-1,0.5-1.4,1.1-1.4c1.7,0,1.2,2.3,1.2,2.3c0.8-0.2,1.5-1,1.1-2.1c0.6-0.1,1.2-0.5,1.7-1
															c-0.5-0.4-1-0.8-1.7-0.9c0.4-1.3-0.1-2-1.3-2.2c0.2,0.5,0.2,1,0.2,1.4c-1.8-0.5-4.6,0.3-4.6,3.4
															c0,3.1,2.2,5.7,6.2,5.1c-1,0.5-1.5,1.4-1.6,2.5c0.7-0.3,1.6-0.3,1.6-0.3c-0.5,0.8-1.1,1.6-1.1,3.2
															c0.8-0.3,1.4-1,2.4-0.6c-1.5,3,0.3,7.1,5.1,8c-1.7-2-2.6-4.2-2.6-6.4c0-7,2-8.2,2-13.1c0-2.1-1.1-4.3-3.1-5.8v0.1
															c1.4-0.4,2.3-1,2.8-2c-3.2-0.9-7.7-0.9-10.2,0.1c-2.8,0.3-4.8,2.5-5.4,3.6c-0.6,1.1-1.7,5.1,0,8.7
															c1.9,3.9,10.7,22.7,13.5,28.6c0.6,1.2,0.9,2.6,0.9,4c0,3.6-3.3,4.9-5.2,4.9c-2.2,0-4.5-1.7-4.5-3.8
															c0-1.4,0.7-2.2,1.8-2.2c2.5,0,2.4,2.2,1.9,3.5c1.6-0.7,2.5-2,2.2-3.3c0.9-0.1,1.7-0.5,2.5-1.4
															c-0.6-0.8-1.4-1.4-2.5-1.4c0.5-2.1-0.9-3-2.2-3.4c0.4,1.5,0.7,3.3-1.9,3.3c-1.9,0-3.4,0.3-4.2,1.6
															c-0.1-1.6-0.2-8.1-0.2-8.1c-0.1-2.4,3.3-2.4,5.4-1.6c-0.8-2.8-2.5-4.3-6.3-3.9c0.9-0.4,1.9-1.3,1.9-2.9
															c0-2.3-1.8-4.8-3.1-5.5L-1045.1-225.9L-1045.1-225.9z"/>
													</g>
												</g>
											</g>
										</g>
									</g>
								</g>
							</g>
						</g>
					</g>
				</g>
			</g>
		</g>
	</g>
</g>
</svg>
