<?xml version="1.0" encoding="utf-8"?>
<!-- Generator: Adobe Illustrator 21.0.0, SVG Export Plug-In . SVG Version: 6.00 Build 0)  -->
<svg version="1.1" id="Layer_1" xmlns="http://www.w3.org/2000/svg" xmlns:xlink="http://www.w3.org/1999/xlink" x="0px" y="0px"
	 viewBox="0 0 1200 600" style="enable-background:new 0 0 1200 600;" xml:space="preserve">
<style type="text/css">
	.st0{fill:#006600;}
	.st1{fill:#FFFFFF;}
	.st2{fill:#CC0000;}
	.st3{fill:#F8C300;}
	.st4{fill:none;stroke:#F8C300;stroke-width:16;}
</style>
<rect class="st0" width="1200" height="600"/>
<rect class="st1" width="1200" height="428.6"/>
<rect class="st2" width="1200" height="171.4"/>
<g>
	<path class="st3" d="M576,292c3-5.1,9.5-6.9,14.6-3.9c3.2,1.9,5.2,5.2,5.3,8.9v42.9h8.1v-42.9c0.2-5.9,5.1-10.6,11-10.4
		c3.7,0.1,7.1,2.1,8.9,5.3c4.4-13.3-2.8-27.6-16-32s-27.6,2.8-32,16C574.3,281.3,574.3,286.9,576,292"/>
	<path class="st1" d="M581.7,280.8c7.2-1.5,14.6,1.8,18.3,8.2c3.7-6.4,11-9.7,18.3-8.2c-1.4-10.1-10.7-17.1-20.8-15.7
		C589.3,266.2,582.9,272.7,581.7,280.8"/>
	<path id="w" class="st3" d="M596,322.8c-1.6,17.9-17.4,31.1-35.4,29.5c-7.2-0.7-14.1-3.7-19.4-8.7c-6.9,17.4-26.6,25.8-44,18.9
		c-2.6-1-5-2.3-7.2-4c3.1,31.2,49.9,24.8,53.4-5.5c14.7,25.8,47,18.4,56.5-13.2L596,322.8z"/>
	<g transform="translate(700,0) scale(-1,1) translate(-700,0)">
		<path id="w_1_" class="st3" d="M604,322.8c1.6,17.9,17.4,31.1,35.4,29.5c7.2-0.7,14.1-3.7,19.4-8.7c6.9,17.4,26.6,25.8,44,18.9
			c2.6-1,5-2.3,7.2-4c-3.1,31.2-49.9,24.8-53.4-5.5c-14.7,25.8-47,18.4-56.5-13.2L604,322.8z"/>
	</g>
	<path id="r" class="st3" d="M564.7,378.3c-6.5,14.1-19.6,16.5-31,5.1c0,0,4.6-3.2,9.5-4.1c-0.9-3.9,1-9.3,3.6-12.3
		c2.8,1.9,6.7,5.7,7.7,10.2C561.4,376.3,564.7,378.3,564.7,378.3L564.7,378.3z"/>
	<g transform="rotate(9.37, 700,804)">
		<path id="r_1_" class="st3" d="M615.8,376.7c-8.7,12.8-22,13.1-31.4,0c0,0,5.1-2.5,10-2.5c-0.3-4,2.5-9.1,5.6-11.5
			c2.4,2.3,5.7,6.7,5.9,11.3C612.9,374.2,615.8,376.7,615.8,376.7L615.8,376.7z"/>
	</g>
	<g transform="rotate(18.74, 700,804)">
		<path id="r_2_" class="st3" d="M666.5,383.4c-10.7,11.3-23.9,9.4-31-5.1c0,0,5.4-1.6,10.3-0.9c0.4-4,3.9-8.5,7.4-10.5
			c2,2.7,4.5,7.6,4,12.1C664,380.5,666.5,383.4,666.5,383.4L666.5,383.4z"/>
	</g>
	<path class="st4" d="M516.9,409.7c54.3-16.1,112-16.1,166.3,0"/>
	<g>
		<g transform="translate(0,-140)">
			<polygon id="s" class="st3" points="-100,-55.7 -87.4,-16.9 -120.4,-40.9 -79.6,-40.9 -112.6,-16.9 			"/>
		</g>
		<g id="h">
			<g transform="rotate(-30) translate(0,-140) rotate(30)">
				<polygon id="s_1_" class="st3" points="-160,-179.6 -147.4,-140.9 -180.4,-164.8 -139.6,-164.8 -172.6,-140.9 				"/>
			</g>
			<g transform="rotate(-60) translate(0,-140) rotate(60)">
				<polygon id="s_2_" class="st3" points="-203.9,-135.7 -191.3,-96.9 -224.3,-120.9 -183.5,-120.9 -216.5,-96.9 				"/>
			</g>
			<g transform="rotate(-90) translate(0,-140) rotate(90)">
				<polygon id="s_3_" class="st3" points="-220,-75.7 -207.4,-36.9 -240.4,-60.9 -199.6,-60.9 -232.6,-36.9 				"/>
			</g>
		</g>
		<g transform="translate(700,380)">
			<g id="h_1_">
				<g transform="rotate(-30) translate(0,-140) rotate(30)">
					<polygon id="s_4_" class="st3" points="-40,-179.6 -52.6,-140.9 -19.6,-164.8 -60.4,-164.8 -27.4,-140.9 					"/>
				</g>
				<g transform="rotate(-60) translate(0,-140) rotate(60)">
					<polygon id="s_5_" class="st3" points="3.9,-135.7 -8.7,-96.9 24.3,-120.9 -16.5,-120.9 16.5,-96.9 					"/>
				</g>
				<g transform="scale(-1,1)">
					<polygon id="s_6_" class="st3" points="20,-75.7 7.4,-36.9 40.4,-60.9 -0.4,-60.9 32.6,-36.9 					"/>
				</g>
			</g>
		</g>
	</g>
</g>
</svg>
