<?xml version="1.0" encoding="utf-8"?>
<!-- Generator: Adobe Illustrator 21.0.0, SVG Export Plug-In . SVG Version: 6.00 Build 0)  -->
<svg version="1.1" id="Layer_1" xmlns="http://www.w3.org/2000/svg" xmlns:xlink="http://www.w3.org/1999/xlink" x="0px" y="0px"
	 viewBox="0 0 500 500" style="enable-background:new 0 0 500 500;" xml:space="preserve">
<style type="text/css">
	.st0{fill:#FFFFFF;}
	.st1{fill:#FFE000;}
	.st2{fill:#FFFFFF;stroke:#000000;stroke-width:3.205;stroke-linecap:round;stroke-linejoin:round;}
	.st3{fill:#CE9D09;stroke:#000000;stroke-width:3.205;stroke-linecap:round;stroke-linejoin:round;}
	.st4{fill:none;stroke:#000000;stroke-width:3.205;stroke-linecap:round;stroke-linejoin:round;}
	.st5{fill:#CCCCCC;stroke:#000000;stroke-width:3.205;stroke-linejoin:round;}
	.st6{fill:none;stroke:#000000;stroke-width:3.205;stroke-linejoin:round;}
	.st7{fill:#FFFFFF;stroke:#000000;stroke-width:3.205;stroke-linejoin:round;}
	.st8{fill:#CE9D09;stroke:#000000;stroke-width:3.205;stroke-linejoin:round;}
	.st9{fill:#FA0204;stroke:#000000;stroke-width:3.205;stroke-linejoin:round;}
</style>
<title>Flag of Vatican City</title>
<rect class="st0" width="500" height="500"/>
<rect class="st1" width="250" height="500"/>
<g id="coa">
	<g id="tiara">
		<g id="band">
			<path class="st2" d="M356.2,198.1l3.2,0.8l5.1,0.8l2.4,0.3l-0.4,10c0,0-0.6,6.6-1.5,9.8c-0.7,2.3-3.2,6.6-3.2,6.6l-1.5,2.3
				l-9.1-7.9c0,0,1.5-2.2,2.1-3.4c0.7-1.5,1.5-4.8,1.5-4.8l0.9-5.2l0.5-6.6L356.2,198.1z M344.8,228.4l8.3,7.2c0,0-1.7,1.5-2.7,1.9
				c-2,0.9-4.2,1.5-6.3,1.5c-1.5,0-3.1-0.6-4.5-1.2c-3.1-1.4-6.6-2.9-8.6-5.7c-0.7-1-1-2.3-1-3.5c0-1.4,1.3-4,1.3-4s0.5,1.7,1,2.4
				c0.9,1.1,2.2,1.9,3.5,2.5c1,0.5,2,0.8,3.1,0.9c1.4,0.1,2.8-0.1,4.1-0.6C343.7,229.3,344.8,228.4,344.8,228.4L344.8,228.4z"/>
			<path class="st2" d="M331.7,175.5c0,0,0.7,1.3,0.9,2c0.3,1.2,0.6,2.5,0.6,3.7c0,1.3-0.3,2.5-0.6,3.7c-0.5,1.8-1.3,3.6-2.1,5.3
				c-0.5,1.1-1.2,2.1-1.7,3.1c-0.8,1.7-1.4,3.6-2.1,5.4c-0.6,1.5-1.4,2.9-1.8,4.5c-0.6,2-0.9,4.2-1.2,6.3c-0.2,1.8-0.4,3.7-0.5,5.5
				c0,2.2,0.1,4.4,0.5,6.5c0.4,2.1,1,4.2,1.9,6.2c0.8,1.6,1.8,3,3,4.3c1,1.1,2.1,2,3.4,2.7c1.1,0.7,2.4,1.1,3.6,1.5
				c1.7,0.7,5.1,1.9,5.1,1.9s-4.7-2.3-6.3-4.3c-1.4-1.6-2.1-3.7-2.6-5.8c-0.5-2.4-0.5-4.9-0.2-7.3c0.3-2.6,1-5.2,1.8-7.7
				c0.8-2.6,2-5.2,3.1-7.7c0.8-1.8,1.7-3.6,2.4-5.5c0.9-2.2,1.8-4.4,2.5-6.6c0.4-1.4,1-2.7,1.1-4.2c0.1-1.6-0.1-3.1-0.4-4.7
				c-0.5-2.1-1.1-4.3-2.4-6.1c-0.8-1.1-1.8-2-3-2.6c-1.1-0.6-2.5-1.1-3.8-0.8C332.4,174.9,331.7,175.5,331.7,175.5L331.7,175.5z"/>
			<path class="st2" d="M342.3,189.1c0,0,0.9-3.6,1-5.4c0.1-1.6,0-3.2-0.1-4.7c-0.2-1.7-0.3-3.6-1-5.2c-0.7-1.7-1.8-3.2-3.1-4.5
				c-1.3-1.2-2.9-2.3-4.5-2.9c-1.8-0.7-3.7-0.9-5.6-1c-1.6-0.1-3.2,0-4.9,0.2c-0.9,0.1-1.9,0.3-2.8,0.6c-0.8,0.3-2.3,1.1-2.3,1.1
				l6,9.8c0,0,1.9-1.1,2.9-1.4c1.1-0.3,2.3-0.3,3.4-0.2c1.2,0.1,2.3,0.2,3.4,0.6c1.3,0.6,2.5,1.6,3.5,2.7c1.2,1.3,2.3,2.8,3,4.4
				c0.6,1.5,0.7,3.2,0.9,4.8C342.3,188.4,342.3,189.1,342.3,189.1L342.3,189.1z"/>
			<path class="st3" d="M343.4,181.3c0,0-1.1-3.3-2.1-4.7c-1.2-1.6-2.7-3.1-4.5-4c-1.9-0.9-6.2-1.2-6.2-1.2l2.3,4.2l-4-0.1l-2.1-3.5
				l-3.8,1.7l-1.9-3.1l4.1-1.9l-1.9-3l4.1-0.4l1.8,2.9c0,0,3.2,0,4.7,0.3c1,0.2,2.1,0.6,3,1.1c0.9,0.5,1.7,1.1,2.5,1.8
				c0.9,0.8,1.7,1.8,2.4,2.8c0.6,1,1.3,3.3,1.3,3.3L343.4,181.3z"/>
			<path class="st3" d="M316.3,169l6.4,9.3 M319.1,167.4l-3,1.8l-2.9,2.2l6.2,9.4l2.7-2.1l2.8-1.6L319.1,167.4z"/>
			<path class="st3" d="M330.8,207.2l3.6-7.4l3.8,1.5l1.6-3.8l-3.8-1.8l2-4.3l-2.8-1.3l-2.1,4.1l-3.8-1.6l-1.7,4l3.7,1.6l-3.4,7.3
				L330.8,207.2z"/>
			<path class="st3" d="M359.4,205l3.6-0.1v4.2l3.5,0.2l-0.6,4.3l-3.3-0.2c0,0-0.5,2.5-1,3.7c-0.5,1.2-1.9,3.5-1.9,3.5l-3.9-1
				c0,0,1.4-2.2,1.9-3.4c0.5-1.1,1.1-3.3,1.1-3.3l-4-0.5l0.7-4l3.6,0.3L359.4,205z"/>
		</g>
		<g transform="matrix(-1,0,0,1,3717.75,0)">
			<g id="band_1_">
				<path class="st2" d="M387.3,198.1l-3.2,0.8l-5.1,0.8l-2.4,0.3l0.4,10c0,0,0.6,6.6,1.5,9.8c0.7,2.3,3.2,6.6,3.2,6.6l1.5,2.3
					l9.1-7.9c0,0-1.5-2.2-2.1-3.4c-0.7-1.5-1.5-4.8-1.5-4.8l-0.9-5.2l-0.5-6.6L387.3,198.1z M398.7,228.4l-8.3,7.2
					c0,0,1.7,1.5,2.7,1.9c2,0.9,4.2,1.5,6.3,1.5c1.5,0,3.1-0.6,4.5-1.2c3.1-1.4,6.6-2.9,8.6-5.7c0.7-1,1-2.3,1-3.5
					c0-1.4-1.3-4-1.3-4s-0.5,1.7-1,2.4c-0.9,1.1-2.2,1.9-3.5,2.5c-1,0.5-2,0.8-3.1,0.9c-1.4,0.1-2.8-0.1-4.1-0.6
					C399.8,229.3,398.7,228.4,398.7,228.4L398.7,228.4z"/>
				<path class="st2" d="M411.8,175.5c0,0-0.7,1.3-0.9,2c-0.3,1.2-0.6,2.5-0.6,3.7c0,1.3,0.3,2.5,0.6,3.7c0.5,1.8,1.3,3.6,2.1,5.3
					c0.5,1.1,1.2,2.1,1.7,3.1c0.8,1.7,1.4,3.6,2.1,5.4c0.6,1.5,1.4,2.9,1.8,4.5c0.6,2,0.9,4.2,1.2,6.3c0.2,1.8,0.4,3.7,0.5,5.5
					c0,2.2-0.1,4.4-0.5,6.5c-0.4,2.1-1,4.2-1.9,6.2c-0.8,1.6-1.8,3-3,4.3c-1,1.1-2.1,2-3.4,2.7c-1.1,0.7-2.4,1.1-3.6,1.5
					c-1.7,0.7-5.1,1.9-5.1,1.9s4.7-2.3,6.3-4.3c1.4-1.6,2.1-3.7,2.6-5.8c0.5-2.4,0.5-4.9,0.2-7.3c-0.3-2.6-1-5.2-1.8-7.7
					c-0.8-2.6-2-5.2-3.1-7.7c-0.8-1.8-1.7-3.6-2.4-5.5c-0.9-2.2-1.8-4.4-2.5-6.6c-0.4-1.4-1-2.7-1.1-4.2c-0.1-1.6,0.1-3.1,0.4-4.7
					c0.5-2.1,1.1-4.3,2.4-6.1c0.8-1.1,1.8-2,3-2.6c1.1-0.6,2.5-1.1,3.8-0.8C411.2,174.9,411.8,175.5,411.8,175.5L411.8,175.5z"/>
				<path class="st2" d="M401.2,189.1c0,0-0.9-3.6-1-5.4c-0.1-1.6,0-3.2,0.1-4.7c0.2-1.7,0.3-3.6,1-5.2c0.7-1.7,1.8-3.2,3.1-4.5
					c1.3-1.2,2.9-2.3,4.5-2.9c1.8-0.7,3.7-0.9,5.6-1c1.6-0.1,3.2,0,4.9,0.2c0.9,0.1,1.9,0.3,2.8,0.6c0.8,0.3,2.3,1.1,2.3,1.1l-6,9.8
					c0,0-1.9-1.1-2.9-1.4c-1.1-0.3-2.3-0.3-3.4-0.2c-1.2,0.1-2.3,0.2-3.4,0.6c-1.3,0.6-2.5,1.6-3.5,2.7c-1.2,1.3-2.3,2.8-3,4.4
					c-0.6,1.5-0.7,3.2-0.9,4.8C401.3,188.4,401.2,189.1,401.2,189.1L401.2,189.1z"/>
				<path class="st3" d="M400.1,181.3c0,0,1.1-3.3,2.1-4.7c1.2-1.6,2.7-3.1,4.5-4c1.9-0.9,6.2-1.2,6.2-1.2l-2.3,4.2l4-0.1l2.1-3.5
					l3.8,1.7l1.9-3.1l-4.1-1.9l1.9-3l-4.1-0.4l-1.8,2.9c0,0-3.2,0-4.7,0.3c-1,0.2-2.1,0.6-3,1.1c-0.9,0.5-1.7,1.1-2.5,1.8
					c-0.9,0.8-1.7,1.8-2.4,2.8c-0.6,1-1.3,3.3-1.3,3.3L400.1,181.3z"/>
				<path class="st3" d="M427.2,169l-6.4,9.3 M424.4,167.4l3,1.8l2.9,2.2l-6.2,9.4l-2.7-2.1l-2.8-1.6L424.4,167.4z"/>
				<path class="st3" d="M412.8,207.2l-3.6-7.4l-3.8,1.5l-1.6-3.8l3.8-1.8l-2-4.3l2.8-1.3l2.1,4.1l3.8-1.6l1.7,4l-3.7,1.6l3.4,7.3
					L412.8,207.2z"/>
				<path class="st3" d="M384.2,205l-3.6-0.1v4.2l-3.5,0.2l0.6,4.3l3.3-0.2c0,0,0.5,2.5,1,3.7c0.5,1.2,1.9,3.5,1.9,3.5l3.9-1
					c0,0-1.4-2.2-1.9-3.4c-0.5-1.1-1.1-3.3-1.1-3.3l4-0.5l-0.7-4l-3.6,0.3L384.2,205z"/>
			</g>
		</g>
		<path class="st2" d="M351.3,147.1l-5.5,5.9l3.4,10.2l1.9,7.2l-5.5,5.2l10.1,14.2l-3.5,4c-0.4,0.5-0.5,1.1-0.4,1.7
			c0.1,0.5,0.3,1.1,0.7,1.5c0.9,0.8,2.3,1,3.5,1.3c4.2,1.1,8.6,1.6,12.9,1.9c0.9,0.1,2.8,0,2.8,0s1.9,0.1,2.8,0
			c4.3-0.3,8.7-0.8,12.9-1.9c1.2-0.3,2.6-0.5,3.5-1.3c0.4-0.4,0.7-0.9,0.7-1.5c0.1-0.6-0.1-1.3-0.4-1.7l-3.3-7.2l10.4-11.1l-4-3.6
			l-0.1-8.7l3.4-10.2l-5.1-5.1l-4.6-12.3c0,0-1-3.4-1.8-5c-0.5-0.9-1.2-1.8-1.8-2.6c-0.8-1-1.6-2-2.6-2.8c-0.9-0.7-1.9-1.3-2.9-1.8
			c-1.1-0.6-2.2-1.2-3.4-1.5c-1.2-0.3-3.8-0.3-3.8-0.3s-2.6,0-3.8,0.3c-1.2,0.3-2.3,0.9-3.4,1.5c-1,0.5-2,1.1-2.9,1.8
			c-1,0.8-1.8,1.8-2.6,2.8c-0.7,0.8-1.3,1.6-1.8,2.6c-0.8,1.6-1.8,5-1.8,5L351.3,147.1z"/>
		<path class="st3" d="M392.7,186.6c0,0-0.6-0.6-1-0.8c-0.7-0.5-1.6-0.9-2.4-1.2c-1.1-0.4-2.3-0.7-3.5-0.9c-1.3-0.3-2.7-0.6-4-0.8
			c-1.6-0.2-3.2-0.3-4.8-0.3c-1.7,0-5.2,0.2-5.2,0.2s-3.4-0.3-5.2-0.2c-1.6,0-3.2,0.1-4.8,0.3c-1.4,0.2-2.7,0.5-4,0.8
			c-1.2,0.3-2.4,0.5-3.5,0.9c-0.8,0.3-1.6,0.7-2.4,1.2c-0.4,0.2-1,0.8-1,0.8 M394.6,178.1c0,0-1-1.1-1.7-1.2c-0.4-0.1-0.9,0-1.3,0.3
			c-0.5,0.3-0.8,0.9-0.9,1.5c-0.1,0.5-0.1,1.1,0.1,1.6c0.2,0.4,0.4,0.9,0.8,1c1,0.4,3.1-0.4,3.1-0.4L394.6,178.1z M395.7,177.4
			c1.2,0,1.6,0.6,1.9,1.3 M348.9,178.1l-0.1,2.8c0,0,2.1,0.8,3.1,0.4c0.4-0.2,0.7-0.6,0.8-1c0.2-0.5,0.2-1.1,0.1-1.6
			c-0.1-0.6-0.5-1.1-0.9-1.5c-0.4-0.3-0.9-0.4-1.3-0.3C349.9,177,348.9,178.1,348.9,178.1L348.9,178.1z M347.9,177.4
			c-1.2,0-1.6,0.6-1.9,1.3 M385.6,178.9l-1.7-0.2 M357.9,178.9l1.7-0.2 M374.8,178.9c-0.6-0.1-1.5-0.8-1.5-0.8 M368.7,178.9
			c0.6-0.1,1.5-0.8,1.5-0.8 M398.4,174.2c0,0-0.8,0.7-1.5,0.8l-0.2,0.1c0,0-0.4,1.1-0.7,1.6c-0.3,0.5-1.3,1.2-1.3,1.2s-1-0.8-1.5-1
			c-0.4-0.1-0.8-0.1-1.2,0c-0.4,0.2-0.7,0.5-0.9,0.9c-0.3,0.4-0.5,0.9-0.5,1.4c0,0.6,0.8,1.6,0.8,1.6l-0.5,0.9l-0.7,0.5
			c-1.3-0.4-2.5-0.8-3.8-1.5c-0.3-0.4-0.7-0.9-0.9-1.8c0,0,0.9-0.5,1.1-1c0.2-0.5,0.3-1.2,0-1.7c-0.3-0.5-1.1-0.8-1.7-0.8
			c-0.5,0-0.9,0.2-1.2,0.6c-0.3,0.4-0.6,0.9-0.5,1.4c0.1,0.5,0.9,1.2,0.9,1.2s-0.4,0.9-0.8,1.1c-1.2,0.5-2,0.8-3,1
			c-1,0.2-2.2,0.3-3.3,0c-0.7-0.2-1.4-0.5-1.8-1.1c-0.1-0.2-0.2-0.6-0.2-0.6s1.3-0.3,1.8-0.7c0.5-0.4,1.1-0.9,1.2-1.6
			c0.1-0.6-0.2-1.3-0.6-1.9c-0.4-0.5-0.9-0.9-1.5-1.2c-0.3-0.1-0.9-0.1-0.9-0.1s-0.1,0.1-0.2,0.2c-0.2,0.3-0.6,0.6-1,0.8
			c0,0,0,0,0,0c0,0,0,0,0,0c-0.1,0-0.1,0.1-0.2,0.1c0,0-0.1,0-0.1,0c-0.3,0.1-0.5,0.2-0.5,0.2s0.8,0.2,1,0.5
			c0.1,0.2,0.2,0.4,0.2,0.7c0,0.1,0,0.3,0,0.4c0,0.2-0.1,0.4-0.1,0.7c-0.1,0.3-0.2,0.5-0.3,0.7c-0.1,0.1-0.2,0.2-0.3,0.3
			c0,0,0,0,0,0c0,0,0,0,0,0c-0.2,0.1-0.4,0.2-0.7,0.3c-0.3,0.1-0.8,0-0.9,0c0,0,1.1,0,1.5-0.3c0,0,0,0,0,0c0.3-0.2,0.5-0.6,0.7-1
			c0-0.2,0.1-0.3,0.1-0.5c0-0.2,0-0.4,0-0.6c-0.1-0.3-0.2-0.6-0.4-0.8c-0.5-0.4-1.9-0.5-1.9-0.5c0,0-1.4,0.1-1.9,0.5
			c-0.2,0.2-0.4,0.5-0.4,0.8c0,0.2,0,0.4,0,0.6c0,0.2,0.1,0.3,0.1,0.5c0.1,0.4,0.4,0.7,0.7,1c0,0,0,0,0,0c0.4,0.3,1.5,0.3,1.5,0.3
			c0,0-0.6,0.1-0.9,0c-0.2-0.1-0.5-0.2-0.7-0.3c0,0,0,0,0,0c0,0,0,0,0,0c-0.1-0.1-0.2-0.2-0.3-0.3c-0.2-0.2-0.3-0.4-0.3-0.7
			c-0.1-0.2-0.1-0.4-0.1-0.7c0-0.1,0-0.3,0-0.4c0-0.2,0.1-0.5,0.2-0.7c0.2-0.3,1-0.5,1-0.5s-0.2-0.1-0.5-0.2c0,0-0.1,0-0.1,0
			c-0.1,0-0.2-0.1-0.2-0.1c0,0,0,0,0,0c0,0,0,0,0,0c-0.4-0.2-0.7-0.4-1-0.8c-0.1-0.1-0.2-0.2-0.2-0.2s-0.6,0-0.9,0.1
			c-0.6,0.3-1.1,0.7-1.5,1.2c-0.4,0.5-0.7,1.2-0.6,1.9c0.1,0.6,0.7,1.2,1.2,1.6c0.5,0.4,1.8,0.7,1.8,0.7s0,0.4-0.2,0.6
			c-0.4,0.6-1.1,0.9-1.8,1.1c-1,0.3-2.2,0.2-3.3,0c-1.1-0.2-1.8-0.5-3-1c-0.4-0.2-0.8-1.1-0.8-1.1s0.9-0.7,0.9-1.2
			c0.1-0.5-0.2-1-0.5-1.4c-0.3-0.3-0.8-0.6-1.2-0.6c-0.6,0-1.4,0.3-1.7,0.8c-0.3,0.5-0.2,1.2,0,1.7c0.2,0.5,1.1,1,1.1,1
			c-0.2,0.9-0.6,1.4-0.9,1.8c-1.3,0.7-2.5,1.1-3.8,1.5l-0.7-0.5l-0.5-0.9c0,0,0.7-1,0.8-1.6c0-0.5-0.2-1-0.5-1.4
			c-0.2-0.4-0.6-0.7-0.9-0.9c-0.4-0.2-0.8-0.1-1.2,0c-0.6,0.2-1.5,1-1.5,1s-0.9-0.8-1.3-1.2c-0.3-0.5-0.7-1.6-0.7-1.6l-0.2-0.1
			c-0.6-0.1-1.5-0.8-1.5-0.8l-0.9,0.2c0,0-0.8,0.4-0.8,0.8c0,0.5,0.7,0.8,1.1,1.2c0.3,0.4,0.6,0.7,0.8,1.1c0.2,0.4,0.6,0.7,0.7,1.1
			c0.1,0.5-0.2,1,0,1.4c0.2,0.5,0.8,1.1,1.3,1.2c0.5,0.1,1.5-0.5,1.5-0.5l0,4l2.1,1.9l1.9,4.1l-0.8,1l0.2,2c1.5-1.9,4.1-2.8,6.4-3.4
			c3.1-0.9,8.9-1,11.6-0.9c0.9,0,1.5,0,1.5,0s8.9-0.3,13.1,0.9c2.3,0.7,4.9,1.5,6.4,3.4l0.2-2l-0.8-1l1.9-4.1l2.1-1.9l0-4
			c0,0,1,0.6,1.5,0.5c0.6-0.1,1.1-0.7,1.3-1.2c0.2-0.4-0.1-1,0-1.4c0.1-0.4,0.4-0.8,0.7-1.1c0.3-0.4,0.5-0.8,0.8-1.1
			c0.3-0.4,1.1-0.7,1.1-1.2c0-0.4-0.8-0.8-0.8-0.8L398.4,174.2L398.4,174.2z M368.8,173.7c0.2,0.2,0.6,0.6,1,0.8c0,0,0,0,0,0
			c0.1,0.1,0.2,0.1,0.4,0.1c0.6,0.2,1.6,0.1,1.6,0.1h0h0c0,0,1,0.1,1.6-0.1c0.1,0,0.3-0.1,0.4-0.1c0,0,0,0,0.1,0
			c0.3-0.2,0.7-0.6,1-0.8c0.1-0.1,0.2-0.3,0.3-0.4c0.2-0.5,0.2-1.2,0-1.7c-0.3-0.6-1-0.9-1.6-1.3c-0.5-0.3-1.6-0.7-1.6-0.8
			c0,0-1.1,0.4-1.6,0.8c-0.6,0.4-1.3,0.6-1.6,1.3c-0.3,0.5-0.3,1.2,0,1.7C368.6,173.4,368.7,173.5,368.8,173.7L368.8,173.7z"/>
		<path class="st3" d="M396.2,166c0,0-2.2-1-3.3-1.4c-2.1-0.7-4.2-1-6.4-1.5c-2.5-0.5-5.1-0.6-7.5-1.2c-0.8-0.2-1.5-0.6-2.3-0.7
			c-1.1-0.2-2.2-0.6-3.3-0.3c-0.6,0.1-1.6,0.9-1.6,0.9s-1-0.8-1.6-0.9c-1.1-0.2-2.2,0.1-3.3,0.3c-0.8,0.2-1.5,0.5-2.3,0.7
			c-2.5,0.6-5,0.7-7.5,1.2c-2.1,0.4-4.3,0.8-6.4,1.5c-1.1,0.4-3.3,1.4-3.3,1.4 M386.9,156.9c0,0,1.1-0.6,1.5-1
			c0.3-0.3,0.5-0.7,0.5-1.1c0-0.5-0.1-1-0.4-1.3c-0.3-0.3-0.8-0.4-1.3-0.4c-0.4,0-0.8,0.1-1.1,0.4c-0.3,0.3-0.6,0.7-0.6,1.1
			c0,0.4,0.1,0.7,0.3,1.1C386,156.2,386.9,156.9,386.9,156.9z M356.7,156.9c0,0,0.8-0.8,1.1-1.2c0.2-0.3,0.3-0.7,0.3-1.1
			c-0.1-0.4-0.3-0.9-0.6-1.1c-0.3-0.2-0.7-0.4-1.1-0.4c-0.4,0-0.9,0.1-1.3,0.4c-0.3,0.3-0.5,0.8-0.4,1.3c0,0.4,0.3,0.8,0.5,1.1
			C355.6,156.4,356.7,156.9,356.7,156.9z M348.4,160.5l-2.4,3.1c0,0,0,0.8,0.2,1.2c0.2,0.5,1.2,1.1,1.2,1.1l0.2,4.3l-2.3,3.9l-0.2,0
			l1.5,0.8c0.1,0,0.1,0,0.2,0c0.9-0.1,1.4-1.1,2.2-1.5c1-0.6,2-1,3-1.4c1.4-0.6,2.9-1.1,4.3-1.6c1.9-0.6,3.7-1.2,5.7-1.4
			c1.5-0.2,2.9-0.3,4.4-0.3c0.5,0,1,0,1.5,0.1c1.3,0.1,3.9,0.7,3.9,0.7c0,0,2.6-0.6,3.9-0.7c2-0.1,3.9,0,5.9,0.2
			c1.9,0.3,3.8,0.9,5.7,1.4c1.5,0.5,2.9,1,4.3,1.6c1,0.4,2.1,0.9,3,1.4c0.8,0.4,1.3,1.4,2.2,1.5c0.1,0,0.1,0,0.2,0l1.5-0.8l-0.2,0
			l-2.3-3.9l0.2-4.3c0,0,0.9-0.6,1.2-1.1c0.2-0.4,0.2-1.2,0.2-1.2l-2.4-3.1c0,0-1.2,1.2-2,1.5c-0.4,0.1-0.9,0.1-1.3,0
			c-0.5-0.2-0.9-0.6-1.3-0.9c-0.9-0.7-1.8-1.5-2.6-2.4c-0.4-0.5-1.1-1.7-1.1-1.7s-2.6,2-4.1,2.4c-1.5,0.4-3.2,0.3-4.7-0.1
			c-0.4-0.1-1-0.6-1-0.6c-1.8-1.1-3.5-1.7-5.3-1.6c-1.8-0.2-3.5,0.4-5.3,1.6c0,0-0.6,0.5-1,0.6c-1.5,0.4-3.2,0.5-4.7,0.1
			c-1.5-0.4-4.1-2.4-4.1-2.4s-0.6,1.2-1.1,1.7c-0.7,0.9-1.7,1.7-2.6,2.4c-0.4,0.3-0.8,0.7-1.3,0.9c-0.4,0.1-0.9,0.1-1.3,0
			C349.7,161.7,348.4,160.5,348.4,160.5L348.4,160.5z"/>
		<path class="st3" d="M397.2,159.3c0,0,0.1-1.1,0-1.7c-0.1-0.5-0.3-1-0.6-1.4c-0.3-0.4-1.1-1.2-1.1-1.2 M395.1,160.5
			c0,0,0.7,0,1-0.1c0.5-0.3,1.2-1.3,1.2-1.3s1.3,0.9,2.1,0.8c0.4-0.1,0.7-0.4,0.8-0.7c0.2-0.3,0.3-0.8,0.2-1.1
			c-0.1-0.3-0.3-0.5-0.6-0.7c-0.5-0.4-1.3-0.3-1.6-0.8c-0.2-0.4-0.1-1,0-1.4c0.3-0.9,1-1.7,1.5-2.5c0.3-0.5,1.1-0.9,1.1-1.5
			c0-0.3-0.4-0.9-0.4-0.9s-1,0-1.5,0.1c-0.8,0.2-1.7,0.6-2.2,1.2c-0.5,0.5-0.6,1.3-0.9,1.9c-0.2,0.5-0.5,1.5-0.5,1.5s-1.2,0-1.7,0.2
			c-0.7,0.3-1.4,0.8-1.7,1.5c-0.2,0.6-0.2,1.3,0,1.8c0.2,0.6,0.7,1,1.2,1.4C393.7,160.3,395.1,160.5,395.1,160.5L395.1,160.5z
			 M348.2,155c0,0-0.8,0.7-1.1,1.2c-0.3,0.4-0.5,0.9-0.6,1.4c-0.1,0.6,0,1.7,0,1.7 M343,150.2c0,0-0.4,0.6-0.4,0.9
			c0.1,0.6,0.8,1,1.1,1.5c0.5,0.8,1.2,1.6,1.5,2.5c0.1,0.5,0.3,1,0,1.4c-0.3,0.5-1.1,0.5-1.6,0.8c-0.2,0.2-0.5,0.4-0.6,0.7
			c-0.1,0.4,0,0.8,0.2,1.1c0.2,0.3,0.5,0.6,0.8,0.7c0.7,0.1,2.1-0.8,2.1-0.8s0.7,1,1.2,1.3c0.3,0.1,1,0.1,1,0.1s1.4-0.2,1.9-0.6
			c0.5-0.3,1-0.8,1.2-1.4c0.2-0.6,0.2-1.3,0-1.8c-0.3-0.7-1-1.2-1.7-1.5c-0.5-0.2-1.7-0.2-1.7-0.2s-0.3-1-0.5-1.5
			c-0.3-0.7-0.4-1.4-0.9-1.9c-0.6-0.6-1.4-1-2.2-1.2C344,150.2,343,150.2,343,150.2L343,150.2z M370.1,153l1.7-0.5l1.7,0.5
			 M370.5,157.1c0,0-1.3-1.2-1.5-2c-0.1-0.3-0.1-0.8,0.1-1.1c0.2-0.4,1.2-0.9,1.2-0.9s-1.4-0.7-1.8-1.3c-0.2-0.4-0.2-0.8-0.1-1.3
			c0.2-0.6,0.7-1.2,1.2-1.6c0.6-0.5,2.2-1.1,2.2-1.1s1.6,0.5,2.2,1.1c0.5,0.4,1,1,1.2,1.6c0.1,0.4,0.1,0.9-0.1,1.3
			c-0.4,0.6-1.8,1.3-1.8,1.3s0.9,0.5,1.2,0.9c0.2,0.3,0.2,0.7,0.1,1.1c-0.2,0.8-1.5,2-1.5,2l-1.2,0.1L370.5,157.1z M375.1,151.7
			c0,0,2.7,1.1,3.6,2.2c0.3,0.3,0.5,0.7,0.4,1.1c-0.1,1.4-2.1,3.6-2.1,3.6l-4-1.7h-2.6l-4,1.7c0,0-2-2.2-2.1-3.6
			c0-0.4,0.2-0.8,0.4-1.1c0.9-1.1,3.6-2.2,3.6-2.2"/>
		<path class="st3" d="M368.9,133.8l1.6-1.2l1.3,0l-1.3,0c0,0-0.7-0.5-0.9-0.9c-0.2-0.4-0.3-0.8-0.2-1.2c0.1-0.5,0.4-1.1,0.9-1.4
			c0.4-0.3,1.6-0.1,1.6-0.1s1.1-0.2,1.6,0.1c0.5,0.3,0.8,0.8,0.9,1.4c0.1,0.4,0,0.8-0.2,1.2c-0.2,0.4-0.9,0.9-0.9,0.9l-1.3,0l1.3,0
			l1.6,1.2 M385.2,134.9l-0.5,0.9 M391.2,131.8l-1.5,0.2 M391.4,133.8l-2.3,0.1 M388.8,131.1c0.3,0.2,0.8,0.6,0.9,0.9
			c0.2,0.6-0.1,1.4-0.6,1.8c-0.5,0.4-1.9,0.3-1.9,0.3 M350.9,140.9c0,0,2.3-0.6,3.4-0.8c1.6-0.4,3.2-0.8,4.9-1.1
			c1.9-0.3,3.7-0.6,5.6-0.7c2.3-0.2,7-0.1,7-0.1s4.7-0.1,7,0.1c1.9,0.1,3.7,0.4,5.6,0.7c1.6,0.3,3.2,0.7,4.9,1.1
			c1.1,0.3,3.4,0.8,3.4,0.8 M358.4,134.9l0.5,0.9 M352.4,131.8l1.5,0.2 M352.2,133.8l2.3,0.1 M353.2,137.1c0,0,2.5-0.6,3.8-0.9
			c1.4-0.3,2.8-0.6,4.2-0.7c1.6-0.2,3.2-0.3,4.9-0.4c1.9-0.1,5.8-0.1,5.8-0.1s3.9,0,5.8,0.1c1.6,0.1,3.3,0.2,4.9,0.4
			c1.4,0.2,2.8,0.5,4.2,0.7c1.3,0.3,3.8,0.9,3.8,0.9 M356.3,134.2c0,0-1.4,0.1-1.9-0.3c-0.5-0.4-0.8-1.2-0.6-1.8
			c0.1-0.5,1.1-1,1.1-1 M367.6,145.8c-2.4,0.1-4.8,0.3-7.2,0.7c-2.5,0.5-4.9,1.1-7.2,1.9c-2.2,0.8-4.6,4.5-6.4,3
			c-0.4-0.3,0.2-1,0.3-1.5c0.4-0.9,0.9-1.8,1.5-2.5c0.5-0.5,1.6-0.6,1.7-1.3c0.1-0.5-0.7-0.8-0.9-1.3c-0.2-0.6-0.3-1.4-0.1-2
			c0.2-0.8,1.3-1.2,1.5-2.1c0.2-0.7-0.5-1.6-0.2-2.2c0.4-0.8,2.3-0.6,2.4-1.5c0.1-0.5-0.8-0.6-0.9-1c-0.1-0.3,0.1-0.6,0.1-1
			c0-0.4,0.1-0.9-0.1-1.3c-0.2-0.4-0.7-0.4-0.9-0.8c-0.1-0.4,0-0.8,0.2-1.1c0.2-0.2,0.7,0.1,0.9-0.2c0.3-0.5-0.5-1.1-0.7-1.6
			c-0.3-0.6-0.6-1.3-0.8-1.9c-0.1-0.5-0.6-1.4-0.1-1.7c0.5-0.3,1.1,0.6,1.6,1c0.7,0.5,1.4,1,1.9,1.7c0.3,0.5,0.1,1.3,0.6,1.7
			c0.5,0.5,1.6,0.1,2.1,0.6c0.5,0.4,0.9,1.1,0.7,1.7c-0.1,0.6-1.5,0.6-1.4,1.1c0.2,0.7,1.4,0.6,2.1,0.5c0.4-0.1,0.7-0.4,1-0.7
			c0.3-0.2,0.5-0.4,0.8-0.6c0.3-0.1,1.1-0.2,1.1-0.2l-0.4-0.1c0,0-0.6-0.5-0.7-0.9c-0.1-0.3,0.1-0.7,0.3-1c0.3-0.3,0.7-0.4,1.1-0.4
			c0.3,0,0.7,0.1,0.9,0.4c0.2,0.2,0.4,0.6,0.3,1c0,0.3-0.2,0.6-0.5,0.8c-0.3,0.2-0.9,0.3-0.9,0.3l0.5,0.1l1.2,1.7l5.3-0.3
			c0,0,0.7-0.7,0.5-1c-0.1-0.4-0.5-0.5-1.1-0.5c-1.7,0.1-2.1-1.4-2-2.4c0.1-0.9,1.1-1.5,1.9-1.8c0.8-0.3,2.2,0.7,2.5,0
			c0.3-0.7-1.2-1-1.4-1.7c-0.1-0.3-0.1-0.7,0-1c0.4-0.7,1.1-1.2,1.9-1.5c0.3-0.1,1-0.2,1-0.2s0.7,0,1,0.2c0.7,0.3,1.5,0.8,1.9,1.5
			c0.1,0.3,0.1,0.7,0,1c-0.2,0.7-1.7,1-1.4,1.7c0.4,0.8,1.7-0.3,2.5,0c0.8,0.3,1.8,0.9,1.9,1.8c0.1,1-0.3,2.5-2,2.4
			c-0.6,0-1,0.1-1.1,0.5c-0.1,0.4,0.5,1,0.5,1l5.3,0.3l1.2-1.7l0.5-0.1c0,0-0.7-0.1-0.9-0.3c-0.2-0.2-0.4-0.5-0.5-0.8
			c0-0.3,0.1-0.7,0.3-1c0.2-0.2,0.6-0.4,0.9-0.4c0.4,0,0.8,0.1,1.1,0.4c0.2,0.3,0.4,0.7,0.3,1c-0.1,0.4-0.7,0.9-0.7,0.9l-0.4,0.1
			c0,0,0.7,0,1.1,0.2c0.3,0.1,0.5,0.4,0.8,0.6c0.3,0.2,0.6,0.6,1,0.7c0.7,0.1,1.9,0.2,2.1-0.5c0.1-0.6-1.2-0.6-1.4-1.1
			c-0.1-0.6,0.3-1.3,0.7-1.7c0.5-0.5,1.6-0.1,2.1-0.6c0.4-0.4,0.3-1.2,0.6-1.7c0.5-0.7,1.2-1.2,1.9-1.7c0.5-0.4,1.1-1.4,1.6-1
			c0.5,0.3,0,1.1-0.1,1.7c-0.2,0.7-0.5,1.3-0.8,1.9c-0.2,0.5-1,1.1-0.7,1.6c0.1,0.3,0.7,0,0.9,0.2c0.3,0.3,0.3,0.7,0.2,1.1
			c-0.1,0.4-0.7,0.4-0.9,0.8c-0.2,0.4-0.1,0.9-0.1,1.3c0,0.3,0.2,0.7,0.1,1c-0.2,0.4-1,0.6-0.9,1c0.1,0.9,2,0.6,2.4,1.5
			c0.3,0.7-0.4,1.5-0.2,2.2c0.2,0.8,1.3,1.2,1.5,2.1c0.2,0.6,0.1,1.4-0.1,2c-0.2,0.5-0.9,0.8-0.9,1.3c0.1,0.7,1.2,0.8,1.7,1.3
			c0.7,0.7,1.2,1.6,1.5,2.5c0.2,0.5,0.7,1.2,0.3,1.5c-1.8,1.5-4.2-2.2-6.4-3c-2.3-0.9-4.8-1.5-7.2-1.9c-2.4-0.4-4.8-0.6-7.2-0.7
			c-1.4-0.1-4.2-0.1-4.2-0.1S369,145.7,367.6,145.8L367.6,145.8z"/>
		<path class="st3" d="M373.8,119.1l-2,0l-2,0 M373.1,112.3c0.5-1.1-0.4-1.9-1.3-2.8c-1,0.8-1.9,1.7-1.3,2.8 M373.2,121.7
			c0.8,0.1,1.7,0.9,2.3,0.3c0.3-0.2,0.1-0.7,0-1.1c-0.3-0.8-1.7-0.9-1.7-1.7c-0.1-0.7,1-1,1.3-1.7c0.1-0.3,0.1-0.7,0-1.1
			c-0.6-1.3-2.9-1.4-3.3-2.7c-0.2-0.6,1.2-1.3,1.4-1.4c0.9-0.4,1.9,0.5,2.8,0.2c0.6-0.3,1.2-0.8,1.2-1.5c0-0.7-0.7-1.3-1.4-1.5
			c-1.2-0.5-3.2,1.2-4,0.1c-0.7-1,1.7-2.2,1.4-3.4c-0.2-0.6-1.4-1.1-1.4-1.1s-1.2,0.5-1.4,1.1c-0.3,1.2,2.1,2.4,1.4,3.4
			c-0.8,1.1-2.8-0.6-4-0.1c-0.6,0.3-1.4,0.8-1.4,1.5c0,0.6,0.6,1.2,1.2,1.5c0.9,0.4,1.9-0.5,2.8-0.2c0.2,0.1,1.5,0.8,1.4,1.4
			c-0.4,1.3-2.8,1.4-3.3,2.7c-0.1,0.3-0.1,0.7,0,1.1c0.2,0.7,1.3,1,1.3,1.7c-0.1,0.8-1.4,1-1.7,1.7c-0.1,0.3-0.3,0.8,0,1.1
			c0.6,0.5,1.5-0.3,2.3-0.3c0.5,0,1.5,0,1.5,0S372.7,121.6,373.2,121.7z"/>
		<path class="st4" d="M390.7,190.7c0,0-1.4-0.6-2.2-0.9c-1.3-0.5-2.7-0.9-4-1.3c-1.3-0.4-2.6-0.7-4-0.9c-2.9-0.3-8.8,0-8.8,0
			s-5.9-0.3-8.8,0c-1.4,0.2-2.7,0.5-4,0.9c-1.4,0.4-2.7,0.8-4,1.3c-0.7,0.3-2.2,0.9-2.2,0.9 M393.2,146.2c0,0-2.4-1-3.6-1.4
			c-1-0.4-2-0.7-3.1-1c-1.3-0.3-2.6-0.5-3.9-0.7c-1.9-0.3-3.8-0.4-5.7-0.6c-1.7-0.1-5.2-0.1-5.2-0.1s-3.4,0-5.2,0.1
			c-1.9,0.1-3.8,0.3-5.7,0.6c-1.3,0.2-2.6,0.4-3.9,0.7c-1,0.3-2.1,0.6-3.1,1c-1.2,0.4-3.6,1.4-3.6,1.4 M347.5,170.3
			c0,0,3.5-1.2,5.3-1.7c1.8-0.6,3.6-1.2,5.5-1.6c2.2-0.5,4.5-0.7,6.8-1c2.2-0.2,6.7-0.5,6.7-0.5s4.4,0.2,6.7,0.5
			c2.3,0.2,4.6,0.5,6.8,1c1.9,0.4,3.7,1.1,5.5,1.6c1.8,0.6,5.3,1.7,5.3,1.7"/>
	</g>
	<g id="silverkey">
		<g id="keybase">
			<path class="st5" d="M306.7,180.8l20.2,17.3c0,0-1,2.2-1.5,3.4c-0.4,1.1-0.8,2.1-1,3.3c-0.4,1.6-0.8,5-0.8,5L300,188.1
				C300.3,183.2,303.1,181.5,306.7,180.8L306.7,180.8z"/>
			<path class="st5" d="M303.8,191.6l-4.9,5.4l3,2.9l-4.7,4.6l-3-3l-5.1,5.4l0,6.7l11.6,9.1l4-3l-0.2-6.5l3.1,1.7l3.1-1.9l0.2,5.8
				l-2.5-1.8l-2.7,3.6l-0.3,6.4l8.8,7.8l10.6-9.4l-0.8-2.8l-0.5-2.5l-0.2-5l0.4-5.5L303.8,191.6z"/>
			<path class="st5" d="M298.9,197.1l-0.1,6l3.1-3.1L298.9,197.1z"/>
			<path class="st6" d="M314.4,228.1l-0.4,6.9 M310.3,207l0.1,6.4 M307.5,209.9l0.2,5.2 M304.7,207.8l0.1,5.8 M300.6,216.6l0.1,6.1
				 M305.6,220.8l8.8,7.4l9-7.9 M289.2,206.9l11.5,9.8l3.8-3.4l-3-2.5l3.3-3.1l2.6,2.2l2.9-3l3.8,3.7l-3.4,2.7l3.2,2.9l-3,2.8"/>
			<path class="st5" d="M380.3,245.9l9.7,8.9l2.2,6.3l-12.5-1.3l-7.1-7.1l-7.6-7l-32.8-28.4c0,0,0.7-2.6,1.1-3.9
				c0.6-1.9,1.4-3.7,2.1-5.5c0.2-0.5,0.6-1.4,0.6-1.4l36.6,32.4L380.3,245.9z"/>
			<path class="st5" d="M388.5,247.2c5.4,7.6,14.5,14.7,17.3,18.2c2.8,3.4,4.6,6.7,0.5,11.1c-4,4.4-8.6,1.9-12.2-0.5
				c-3.6-2.4-9.9-10.3-18.9-16.3L388.5,247.2z"/>
			<path class="st5" d="M385.3,260l-7-3.2 M386.5,249.1c0.5,1.6,0.1,3.4,0.7,4.9c0.6,1.5,2.8,4,2.8,4s-1.4,0.2-2.1,0.4
				c-0.9,0.4-2.4,0.5-2.6,1.5c-0.2,0.9,0.8,1.6,1.4,2.3c0.6,0.6,1.3,1.1,2.1,1.5c1.2,0.7,2.5,1.5,3.9,1.8c1.8,0.3,5-2.2,5.3-0.4
				c0.1,0.7-1.5,0.3-2.1,0.6c-1.6,0.8-2.3,2.4-1,3.6c0.9,0.7,2.3,0.5,3.4,0.6c1.1,0.1,2.4-0.5,3.3,0c1.1,0.7,2.5,2.2,1.9,3.4
				c-0.6,1.2-2.9,1.2-4,0.4c-0.8-0.6-0.6-1.9-0.7-2.9c0-0.3,0-0.6,0-0.9"/>
			<circle class="st5" cx="430.9" cy="296" r="25.9"/>
			<path class="st7" d="M421.2,297.1c-4.5,0-8.1,3.6-8.1,8.1s3.6,8.1,8.1,8.1s8.1-3.6,8.1-8.1l2.8-0.1c0,4.5,3.6,8.1,8.1,8.1
				s8.1-3.6,8.1-8.1c0-4.5-3.6-8.1-8.1-8.1l0.1-1.6c4.5,0,8.1-3.6,8.1-8.1s-3.6-8.1-8.1-8.1c-4.5,0-8.1,3.6-8.1,8.1l-2.8-0.2
				c0-4.5-3.6-8.1-8.1-8.1c-4.5,0-8.1,3.6-8.1,8.1c0,4.5,3.6,8.1,8.1,8.1L421.2,297.1z"/>
			<circle class="st5" cx="430.9" cy="289.2" r="2.9"/>
			<circle class="st5" cx="437.9" cy="296" r="2.9"/>
			<circle class="st5" cx="431.1" cy="302.2" r="2.9"/>
			<circle class="st5" cx="423.9" cy="296" r="2.9"/>
			<path class="st7" d="M430.4,311.7c-1.1,2.2-2.5,3.2-4.4,4.4c2.6,1.2,5.9,0.9,8.8,0C433,315.1,431.6,313.7,430.4,311.7z
				 M415.1,295.6c-2.2-1.1-3.2-2.5-4.4-4.4c-1.2,2.6-0.9,5.9,0,8.8C411.7,298.2,413.1,296.8,415.1,295.6L415.1,295.6z M447,296.4
				c2.2-1.1,3.2-2.5,4.4-4.4c1.2,2.6,0.9,5.9,0,8.8C450.4,298.9,449,297.5,447,296.4L447,296.4z M431.3,280.2
				c-1.1-2.2-2.5-3.2-4.4-4.4c2.6-1.2,5.9-0.9,8.8,0C433.8,276.7,432.5,278.2,431.3,280.2z"/>
		</g>
		<g>
			<g id="keydeco">
				<path class="st8" d="M306.7,180.8c0,0,0.1-1,0-1.5c-0.2-0.8-0.7-1.5-1.3-2c-0.5-0.5-1.2-0.8-1.8-0.9c-0.7-0.1-1.5,0-2.2,0.2
					c-0.5,0.1-1.4,0.7-1.4,0.7l-3,1.2l-1.1,3.5c0,0-0.6,1.1-0.8,1.7c-0.2,0.7-0.3,1.4-0.1,2c0.2,0.8,0.6,1.5,1.3,2
					c0.6,0.5,1.3,0.7,2.1,0.8c0.6,0,1.7-0.4,1.7-0.4C300.3,184.4,302,181.6,306.7,180.8L306.7,180.8z"/>
				<path class="st8" d="M300.1,177.1l-7.8-3.4l-0.6,0.6l4.2,7.6c0,0,1.2-1.7,1.9-2.5C298.5,178.6,300.1,177.1,300.1,177.1
					L300.1,177.1z"/>
				<circle class="st8" cx="291.5" cy="173.1" r="3.2"/>
				<path class="st8" d="M313.2,186.5c0.7,5.6,1.5,11.2,3.2,16.8l6.2,5.7c-1.3-5.8-3.7-11.7-3.7-17.5L313.2,186.5z"/>
				<path class="st8" d="M322.6,194.5l-17.1-1.3l5.4,5l15.6,0.7l0.2-0.8L322.6,194.5z"/>
				<path class="st8" d="M343.7,213.4c-4.5,1.7-6.3,4.5-7.6,7.4c-1.3,0.1-2.5,0.1-2.9-0.8c1.1-6.9,6-9.1,7.2-9.5
					C343.4,209.9,342.8,212.2,343.7,213.4z"/>
				<path class="st8" d="M349.2,218.6c-4.5,1.7-6.3,4.5-7.6,7.4c-1.3,0.1-2.5,0.1-2.9-0.8c1.1-6.9,6-9.1,7.2-9.5
					C348.9,215.1,348.3,217.4,349.2,218.6L349.2,218.6z"/>
				<path class="st8" d="M411.7,270.9c-1.5,0-3,0.3-3,0.3c0.1,1.6-0.6,3.3-2.4,5.2c-1.5,1.7-3.1,2.3-4.7,2.4l0,0
					c0,0-0.6,3.5,0.5,4.7c1.3,1.3,5.4,0.8,5.4,0.8l0.4-0.2c1.6-3,3.7-5.8,6.4-8l0.1-0.3c0,0,0.6-3.3-0.4-4.3c-0.5-0.5-1.3-0.6-2.2,0
					L411.7,270.9z"/>
				<circle class="st8" cx="450.9" cy="275.1" r="3.5"/>
				<circle class="st8" cx="452.1" cy="316" r="3.5"/>
				<circle class="st8" cx="412.4" cy="318.3" r="3.5"/>
			</g>
		</g>
	</g>
	<g id="goldkey" transform="matrix(-1,0,0,1,3718.256,0)">
		<g>
			<g id="keybase_1_">
				<path class="st8" d="M3281.3,180.8l20.2,17.3c0,0-1,2.2-1.5,3.4c-0.4,1.1-0.8,2.1-1,3.3c-0.4,1.6-0.8,5-0.8,5l-23.6-21.6
					C3274.9,183.2,3277.7,181.5,3281.3,180.8L3281.3,180.8z"/>
				<path class="st8" d="M3278.4,191.6l-4.9,5.4l3,2.9l-4.7,4.6l-3-3l-5.1,5.4l0,6.7l11.6,9.1l4-3l-0.2-6.5l3.1,1.7l3.1-1.9l0.2,5.8
					l-2.5-1.8l-2.7,3.6l-0.3,6.4l8.8,7.8l10.6-9.4l-0.8-2.8l-0.5-2.5l-0.2-5l0.4-5.5L3278.4,191.6z"/>
				<path class="st8" d="M3273.5,197.1l-0.1,6l3.1-3.1L3273.5,197.1z"/>
				<path class="st6" d="M3289,228.1l-0.4,6.9 M3284.9,207l0.1,6.4 M3282.1,209.9l0.2,5.2 M3279.4,207.8l0.1,5.8 M3275.2,216.6
					l0.1,6.1 M3280.2,220.8l8.8,7.4l9-7.9 M3263.8,206.9l11.5,9.8l3.8-3.4l-3-2.5l3.3-3.1l2.6,2.2l2.9-3l3.8,3.7l-3.4,2.7l3.2,2.9
					l-3,2.8"/>
				<path class="st8" d="M3354.9,245.9l9.7,8.9l2.2,6.3l-12.5-1.3l-7.1-7.1l-7.6-7l-32.8-28.4c0,0,0.7-2.6,1.1-3.9
					c0.6-1.9,1.4-3.7,2.1-5.5c0.2-0.5,0.6-1.4,0.6-1.4l36.6,32.4L3354.9,245.9z"/>
				<path class="st8" d="M3363.1,247.2c5.4,7.6,14.5,14.7,17.3,18.2c2.8,3.4,4.6,6.7,0.5,11.1c-4,4.4-8.6,1.9-12.2-0.5
					c-3.6-2.4-9.9-10.3-18.9-16.3L3363.1,247.2z"/>
				<path class="st8" d="M3359.9,260l-7-3.2 M3361.1,249.1c0.5,1.6,0.1,3.4,0.7,4.9c0.6,1.5,2.8,4,2.8,4s-1.4,0.2-2.1,0.4
					c-0.9,0.4-2.4,0.5-2.6,1.5c-0.2,0.9,0.8,1.6,1.4,2.3c0.6,0.6,1.3,1.1,2.1,1.5c1.2,0.7,2.5,1.5,3.9,1.8c1.8,0.3,5-2.2,5.3-0.4
					c0.1,0.7-1.5,0.3-2.1,0.6c-1.6,0.8-2.3,2.4-1,3.6c0.9,0.7,2.3,0.5,3.4,0.6c1.1,0.1,2.4-0.5,3.3,0c1.1,0.7,2.5,2.2,1.9,3.4
					c-0.6,1.2-2.9,1.2-4,0.4c-0.8-0.6-0.6-1.9-0.7-2.9c0-0.3,0-0.6,0-0.9"/>
				<circle class="st8" cx="3405.5" cy="296" r="25.9"/>
				<path class="st7" d="M3395.8,297.1c-4.5,0-8.1,3.6-8.1,8.1s3.6,8.1,8.1,8.1c4.5,0,8.1-3.6,8.1-8.1l2.8-0.1
					c0,4.5,3.6,8.1,8.1,8.1c4.5,0,8.1-3.6,8.1-8.1c0-4.5-3.6-8.1-8.1-8.1l0.1-1.6c4.5,0,8.1-3.6,8.1-8.1s-3.6-8.1-8.1-8.1
					c-4.5,0-8.1,3.6-8.1,8.1l-2.8-0.2c0-4.5-3.6-8.1-8.1-8.1c-4.5,0-8.1,3.6-8.1,8.1c0,4.5,3.6,8.1,8.1,8.1L3395.8,297.1z"/>
				<circle class="st8" cx="3405.5" cy="289.2" r="2.9"/>
				<circle class="st8" cx="3412.5" cy="296" r="2.9"/>
				<circle class="st8" cx="3405.7" cy="302.2" r="2.9"/>
				<circle class="st8" cx="3398.5" cy="296" r="2.9"/>
				<path class="st7" d="M3405.1,311.7c-1.1,2.2-2.5,3.2-4.4,4.4c2.6,1.2,5.9,0.9,8.8,0C3407.6,315.1,3406.2,313.7,3405.1,311.7z
					 M3389.7,295.6c-2.2-1.1-3.2-2.5-4.4-4.4c-1.2,2.6-0.9,5.9,0,8.8C3386.3,298.2,3387.8,296.8,3389.7,295.6L3389.7,295.6z
					 M3421.6,296.4c2.2-1.1,3.2-2.5,4.4-4.4c1.2,2.6,0.9,5.9,0,8.8C3425,298.9,3423.6,297.5,3421.6,296.4L3421.6,296.4z
					 M3405.9,280.2c-1.1-2.2-2.5-3.2-4.4-4.4c2.6-1.2,5.9-0.9,8.8,0C3408.4,276.7,3407.1,278.2,3405.9,280.2z"/>
			</g>
		</g>
		<g>
			<g id="keydeco_1_">
				<path class="st5" d="M3281.3,180.8c0,0,0.1-1,0-1.5c-0.2-0.8-0.7-1.5-1.3-2c-0.5-0.5-1.2-0.8-1.8-0.9c-0.7-0.1-1.5,0-2.2,0.2
					c-0.5,0.1-1.4,0.7-1.4,0.7l-3,1.2l-1.1,3.5c0,0-0.6,1.1-0.8,1.7c-0.2,0.7-0.3,1.4-0.1,2c0.2,0.8,0.6,1.5,1.3,2
					c0.6,0.5,1.3,0.7,2.1,0.8c0.6,0,1.7-0.4,1.7-0.4C3274.9,184.4,3276.6,181.6,3281.3,180.8L3281.3,180.8z"/>
				<path class="st5" d="M3274.7,177.1l-7.8-3.4l-0.6,0.6l4.2,7.6c0,0,1.2-1.7,1.9-2.5C3273.1,178.6,3274.7,177.1,3274.7,177.1
					L3274.7,177.1z"/>
				<circle class="st5" cx="3266.1" cy="173.1" r="3.2"/>
				<path class="st5" d="M3287.8,186.5c0.7,5.6,1.5,11.2,3.2,16.8l6.2,5.7c-1.3-5.8-3.7-11.7-3.7-17.5L3287.8,186.5z"/>
				<path class="st5" d="M3297.2,194.5l-17.1-1.3l5.4,5l15.6,0.7l0.2-0.8L3297.2,194.5z"/>
				<path class="st5" d="M3318.3,213.4c-4.5,1.7-6.3,4.5-7.6,7.4c-1.3,0.1-2.5,0.1-2.9-0.8c1.1-6.9,6-9.1,7.2-9.5
					C3318,209.9,3317.4,212.2,3318.3,213.4z"/>
				<path class="st5" d="M3323.8,218.6c-4.5,1.7-6.3,4.5-7.6,7.4c-1.3,0.1-2.5,0.1-2.9-0.8c1.1-6.9,6-9.1,7.2-9.5
					C3323.5,215.1,3322.9,217.4,3323.8,218.6L3323.8,218.6z"/>
				<path class="st5" d="M3386.3,270.9c-1.5,0-3,0.3-3,0.3c0.1,1.6-0.6,3.3-2.4,5.2c-1.5,1.7-3.1,2.3-4.7,2.4l0,0
					c0,0-0.6,3.5,0.5,4.7c1.3,1.3,5.4,0.8,5.4,0.8l0.4-0.2c1.6-3,3.7-5.8,6.4-8l0.1-0.3c0,0,0.6-3.3-0.4-4.3c-0.5-0.5-1.3-0.6-2.2,0
					V270.9z"/>
				<circle class="st5" cx="3425.5" cy="275.1" r="3.5"/>
				<circle class="st5" cx="3426.7" cy="316" r="3.5"/>
				<circle class="st5" cx="3387" cy="318.3" r="3.5"/>
			</g>
		</g>
	</g>
	<g id="cord">
		<g>
			<path id="piece1" class="st9" d="M373.8,235.2c0,1.1-0.9,1.5-2.6,1.5c-1.7,0-2.6-0.5-2.6-1.6s0.8-1.3,2.6-1.3
				C372.9,233.7,373.8,234.1,373.8,235.2z"/>
			<g>
				<path id="piece1_1_" class="st9" d="M375.1,238c0,1.1-0.9,1.5-2.6,1.5s-2.6-0.5-2.6-1.6s0.8-1.3,2.6-1.3S375.1,236.9,375.1,238z
					"/>
			</g>
			<path class="st9" d="M375.5,241.7c-0.4,1-1.3,1.1-3,0.5c-1.7-0.6-2.2-1.3-1.9-2.3c0.4-1,1.2-1,2.9-0.4
				C375.1,240.1,375.8,240.7,375.5,241.7L375.5,241.7z"/>
			<path id="piece2" class="st9" d="M375.5,244.5c-0.2,1.1-1.2,1.3-2.9,0.9s-2.4-1-2.2-2.1c0.2-1.1,1.1-1.2,2.8-0.8
				C374.9,242.9,375.7,243.4,375.5,244.5L375.5,244.5z"/>
			<g>
				<path id="piece2_1_" class="st9" d="M376.3,247.7c-0.2,1.1-1.2,1.3-2.9,0.9s-2.4-1-2.2-2.1c0.2-1.1,1.1-1.2,2.8-0.8
					C375.7,246.1,376.5,246.7,376.3,247.7L376.3,247.7z"/>
			</g>
			<path class="st9" d="M384.3,243.2c-0.5-0.1-0.5-1.1-0.3-1.6c0.2-0.8,1.7-1.8,1.7-1.8s0.4,1.1,0.2,1.6
				C385.7,242.2,385.1,243.4,384.3,243.2L384.3,243.2z"/>
			<path class="st9" d="M382.5,244.9c-0.6-0.1-0.6-1.1-0.5-1.7c0.2-0.9,1.9-1.9,1.9-1.9s0.3,1.2,0.1,1.8
				C383.7,243.9,383.2,245.1,382.5,244.9L382.5,244.9z"/>
			<path class="st9" d="M380.3,248c-0.9-0.2-0.8-1.8-0.5-2.6c0.2-0.7,0.7-1.8,1.5-1.6c0.8,0.2,0.8,1.7,0.6,2.5
				C381.7,247,381.1,248.2,380.3,248L380.3,248z"/>
			<path class="st9" d="M377.7,250.4c-0.8-0.2-1.2-1.5-1-2.4c0.2-0.9,1.1-2.1,2-1.9c0.9,0.2,1.2,1.7,1,2.6
				C379.5,249.6,378.6,250.6,377.7,250.4z"/>
			<path class="st9" d="M377.3,251.9c-0.2,1-1.5,1.4-2.3,1.1c-0.8-0.3-1.9-1.4-1.7-2.5c0.2-1.1,1.6-1.4,2.5-1
				C376.6,249.8,377.5,250.9,377.3,251.9L377.3,251.9z"/>
			<path class="st9" d="M360.3,242.1c0,0,1,0.5,1.5,1c0.5,0.5,1,0.7,0.7,1.4c-0.3,0.7-1.2,0.5-1.6,0
				C360.5,243.9,360.3,242.1,360.3,242.1L360.3,242.1z"/>
			<path class="st9" d="M365.4,243.8c1,0.2,1,1.4,0.5,2.2c-0.6,0.8-2.2,1.8-3.3,1.6c-1.1-0.2-1-1.6-0.4-2.3
				C362.8,244.5,364.3,243.6,365.4,243.8L365.4,243.8z"/>
			<path id="piece3" class="st9" d="M368.9,246.1c1,0.4,0.7,1.6,0,2.2c-0.7,0.6-2.5,1.3-3.5,0.8c-1-0.5-0.6-1.7,0.2-2.4
				C366.2,246.2,367.9,245.7,368.9,246.1L368.9,246.1z"/>
			<g>
				<path id="piece3_1_" class="st9" d="M371.7,248.2c1,0.4,0.7,1.6,0,2.2c-0.7,0.6-2.5,1.3-3.5,0.8c-1-0.5-0.6-1.7,0.2-2.4
					C369,248.3,370.7,247.8,371.7,248.2L371.7,248.2z"/>
			</g>
			<path class="st9" d="M372.6,250.1c1,0.2,1.2,1.5,0.9,2.3c-0.3,0.9-1.5,2.1-2.5,2c-1-0.2-1.2-1.6-0.8-2.5
				C370.5,251.1,371.6,250,372.6,250.1L372.6,250.1z"/>
			<path class="st9" d="M375,253.1c0.8,0.5,0.6,1.9,0.1,2.7c-0.6,0.8-2,1.7-2.8,1.2c-0.8-0.5-0.5-2.1,0-2.9
				C372.9,253.4,374.2,252.6,375,253.1L375,253.1z"/>
			<path class="st9" d="M357.8,245.1c0.8-0.1,1.4,1.2,1.4,2.1c0,1-0.7,2.5-1.6,2.6c-0.9,0.1-1.5-1.3-1.4-2.3
				C356.3,246.5,357,245.2,357.8,245.1L357.8,245.1z"/>
			<path class="st9" d="M360.6,247.5c0.8,0.2,1,1.6,0.7,2.5c-0.3,0.9-1.4,2.2-2.3,2c-0.9-0.2-1-1.7-0.6-2.6
				C358.7,248.4,359.8,247.3,360.6,247.5L360.6,247.5z"/>
			<path class="st9" d="M363.2,249.2c1,0.2,1.2,2,0.8,3c-0.4,1.1-1.6,2.7-2.7,2.4c-1-0.2-1.2-2.1-0.8-3.3
				C361,250.4,362.2,249,363.2,249.2L363.2,249.2z"/>
			<path class="st9" d="M365.2,251.4c1-0.1,1.8,1.4,1.9,2.6c0.1,1.2-0.6,3.1-1.6,3.2c-1.1,0.1-1.8-1.6-1.9-2.8
				C363.6,253.2,364.3,251.5,365.2,251.4L365.2,251.4z"/>
			<path id="piece4" class="st9" d="M367.7,253.1c0.9-0.1,1.6,1.2,1.7,2.1c0.1,1-0.5,2.6-1.5,2.7c-1,0.1-1.7-1.3-1.7-2.3
				C366.2,254.7,366.8,253.2,367.7,253.1L367.7,253.1z"/>
			<g>
				<path id="piece4_1_" class="st9" d="M370.3,255.2c0.9-0.1,1.6,1.2,1.7,2.1c0.1,1-0.5,2.6-1.5,2.7c-1,0.1-1.7-1.3-1.7-2.3
					C368.8,256.7,369.4,255.3,370.3,255.2L370.3,255.2z"/>
			</g>
			<path id="piece5" class="st9" d="M385.9,250.2c-0.6,0.6-1.9,0.1-2.5-0.6c-0.6-0.7-1-2.1-0.4-2.7c0.7-0.6,2.1,0,2.6,0.7
				C386.2,248.3,386.5,249.6,385.9,250.2L385.9,250.2z"/>
			<g>
				<path id="piece5_1_" class="st9" d="M384.5,252.7c-0.6,0.6-1.9,0.1-2.5-0.6c-0.6-0.7-1-2.1-0.4-2.7c0.7-0.6,2.1,0,2.6,0.7
					C384.8,250.8,385.1,252.2,384.5,252.7L384.5,252.7z"/>
			</g>
			<g>
				<path id="piece5_2_" class="st9" d="M382,254.9c-0.6,0.6-1.9,0.1-2.5-0.6c-0.6-0.7-1-2.1-0.4-2.7c0.7-0.6,2.1,0,2.6,0.7
					C382.3,253,382.6,254.3,382,254.9L382,254.9z"/>
			</g>
			<path class="st9" d="M381,256.2c-0.2,0.8-1.6,1.1-2.4,0.9c-0.9-0.2-2-1.2-1.8-2c0.2-0.9,1.7-1.1,2.6-0.9
				C380.3,254.5,381.3,255.4,381,256.2z"/>
			<path class="st9" d="M377.4,255.6c0.7,0.5,0.6,2.1,0.1,3c-0.5,0.9-1.8,1.9-2.6,1.4c-0.8-0.5-0.5-2.3,0-3.2
				C375.5,256,376.7,255.1,377.4,255.6L377.4,255.6z"/>
			<path class="st9" d="M373.9,257.5c0.8,0.5,0.6,1.9,0.1,2.7c-0.6,0.8-2,1.7-2.8,1.2c-0.8-0.5-0.5-2.1,0-2.9
				C371.8,257.8,373.1,257.1,373.9,257.5L373.9,257.5z"/>
			<path id="piece6" class="st9" d="M366.3,262.6c-0.7,0.6-0.2,2.3,0.6,3.1c0.7,0.8,2.4,1.6,3.1,0.9c0.7-0.7,0.1-2.4-0.7-3.2
				C368.4,262.6,366.9,261.9,366.3,262.6L366.3,262.6z"/>
			<g>
				<path id="piece6_1_" class="st9" d="M364.8,265.3c-0.7,0.6-0.2,2.3,0.6,3.1c0.7,0.8,2.4,1.6,3.1,0.9c0.7-0.7,0.1-2.4-0.7-3.2
					C367,265.3,365.5,264.7,364.8,265.3L364.8,265.3z"/>
			</g>
			<path id="piece7" class="st9" d="M364.2,267.9c-0.9,0.3-1,2-0.6,3c0.4,1.1,1.6,2.4,2.5,2c0.9-0.4,0.9-2.2,0.5-3.3
				C366.2,268.7,365,267.6,364.2,267.9L364.2,267.9z"/>
			<g>
				<path id="piece7_1_" class="st9" d="M362.1,270.9c-0.9,0.3-1,2-0.6,3c0.4,1.1,1.6,2.4,2.5,2c0.9-0.4,0.9-2.2,0.5-3.3
					C364.1,271.7,362.9,270.5,362.1,270.9L362.1,270.9z"/>
			</g>
			<path id="piece8" class="st9" d="M360.5,274.2c-0.9,0.2-1.3,1.9-1.1,2.9c0.2,1.1,1.2,2.6,2.2,2.4c1-0.2,1.3-2,1-3.1
				C362.4,275.3,361.4,274,360.5,274.2L360.5,274.2z"/>
			<g>
				<path id="piece8_1_" class="st9" d="M358.5,277.4c-0.9,0.2-1.3,1.9-1.1,2.9c0.2,1.1,1.2,2.6,2.2,2.4c1-0.2,1.3-2,1-3.1
					C360.4,278.5,359.4,277.2,358.5,277.4L358.5,277.4z"/>
			</g>
			<path id="piece9" class="st9" d="M356.8,280.7c-0.9,0-1.6,1.6-1.6,2.7c0,1.1,0.7,2.8,1.7,2.7c1,0,1.6-1.8,1.6-2.9
				C358.4,282.1,357.7,280.6,356.8,280.7L356.8,280.7z"/>
			<g>
				<path id="piece9_1_" class="st9" d="M354.7,284.5c-0.9,0-1.6,1.6-1.6,2.7c0,1.1,0.7,2.8,1.7,2.7c1,0,1.6-1.8,1.6-2.9
					C356.4,285.9,355.7,284.5,354.7,284.5L354.7,284.5z"/>
			</g>
			<g>
				<path id="piece9_2_" class="st9" d="M352.3,288.1c-0.9,0-1.6,1.6-1.6,2.7c0,1.1,0.7,2.8,1.7,2.7c1,0,1.6-1.8,1.6-2.9
					C354,289.5,353.3,288,352.3,288.1L352.3,288.1z"/>
			</g>
			<g>
				<path id="piece9_3_" class="st9" d="M349.8,291.1c-0.9,0-1.6,1.6-1.6,2.7c0,1.1,0.7,2.8,1.7,2.7c1,0,1.6-1.8,1.6-2.9
					C351.5,292.6,350.8,291.1,349.8,291.1L349.8,291.1z"/>
			</g>
			<g>
				<path id="piece9_4_" class="st9" d="M347.3,294c-0.9,0-1.6,1.6-1.6,2.7c0,1.1,0.7,2.8,1.7,2.7c1,0,1.6-1.8,1.6-2.9
					C348.9,295.4,348.2,293.9,347.3,294L347.3,294z"/>
			</g>
			<g>
				<path id="piece9_5_" class="st9" d="M344.4,296.3c-0.9,0-1.6,1.6-1.6,2.7c0,1.1,0.7,2.8,1.7,2.7c1,0,1.6-1.8,1.6-2.9
					C346,297.7,345.3,296.3,344.4,296.3L344.4,296.3z"/>
			</g>
			<g>
				<path id="piece9_6_" class="st9" d="M341.7,298.8c-0.9,0-1.6,1.6-1.6,2.7c0,1.1,0.7,2.8,1.7,2.7c1,0,1.6-1.8,1.6-2.9
					C343.3,300.2,342.6,298.8,341.7,298.8L341.7,298.8z"/>
			</g>
			<path class="st9" d="M338.6,300l-1.1,4.1c0,0,0.6,1.5,1.2,1.4c1.1-0.1,1.4-1.8,1.6-2.9C340.5,301,338.6,300,338.6,300z"/>
			<path class="st9" d="M403.4,302.6c0.3,1.2,3.1,2.3,3.1,2.3l-1.3-5.6C404,299.4,403.3,301.8,403.4,302.6z"/>
			<path class="st9" d="M403.2,298.2c-0.9-0.3-2.1,0.8-2.5,1.8c-0.5,1-0.5,2.8,0.4,3.2c0.9,0.4,2.2-1,2.6-2
				C404.1,300.2,404.1,298.5,403.2,298.2L403.2,298.2z"/>
			<path id="piece10" class="st9" d="M400.2,295.7c-0.9,0-1.7,1.4-1.8,2.5c-0.1,1.1,0.4,2.8,1.4,2.9c1,0,1.8-1.6,1.9-2.7
				C401.7,297.3,401.1,295.8,400.2,295.7L400.2,295.7z"/>
			<g>
				<path id="piece10_1_" class="st9" d="M397.5,293c-0.9,0-1.7,1.4-1.8,2.5c-0.1,1.1,0.4,2.8,1.4,2.9c1,0,1.8-1.6,1.9-2.7
					C399,294.6,398.4,293,397.5,293L397.5,293z"/>
			</g>
			<g>
				<path id="piece10_2_" class="st9" d="M395,289.9c-0.9,0-1.7,1.4-1.8,2.5c-0.1,1.1,0.4,2.8,1.4,2.9c1,0,1.8-1.6,1.9-2.7
					C396.5,291.5,395.9,289.9,395,289.9L395,289.9z"/>
			</g>
			<g>
				<path id="piece10_3_" class="st9" d="M392.4,287.3c-0.9,0-1.7,1.4-1.8,2.5c-0.1,1.1,0.4,2.8,1.4,2.9c1,0,1.8-1.6,1.9-2.7
					C393.9,288.9,393.4,287.3,392.4,287.3L392.4,287.3z"/>
			</g>
			<g>
				<path id="piece10_4_" class="st9" d="M390.4,283.7c-0.9,0-1.7,1.4-1.8,2.5c-0.1,1.1,0.4,2.8,1.4,2.9c1,0,1.8-1.6,1.9-2.7
					C391.9,285.3,391.3,283.7,390.4,283.7L390.4,283.7z"/>
			</g>
			<g>
				<path id="piece10_5_" class="st9" d="M388.1,280.5c-0.9,0-1.7,1.4-1.8,2.5c-0.1,1.1,0.4,2.8,1.4,2.9c1,0,1.8-1.6,1.9-2.7
					C389.6,282,389,280.5,388.1,280.5L388.1,280.5z"/>
			</g>
			<g>
				<path id="piece10_6_" class="st9" d="M386,277c-0.9,0-1.7,1.4-1.8,2.5c-0.1,1.1,0.4,2.8,1.4,2.9c1,0,1.8-1.6,1.9-2.7
					C387.5,278.6,387,277.1,386,277L386,277z"/>
			</g>
			<g>
				<path id="piece10_7_" class="st9" d="M384.2,273.1c-0.9,0-1.7,1.4-1.8,2.5c-0.1,1.1,0.4,2.8,1.4,2.9c1,0,1.8-1.6,1.9-2.7
					C385.7,274.7,385.1,273.1,384.2,273.1L384.2,273.1z"/>
			</g>
			<g>
				<path id="piece10_8_" class="st9" d="M382.2,269.5c-0.9,0-1.7,1.4-1.8,2.5c-0.1,1.1,0.4,2.8,1.4,2.9c1,0,1.8-1.6,1.9-2.7
					C383.7,271.1,383.1,269.5,382.2,269.5L382.2,269.5z"/>
			</g>
			<g>
				<path id="piece10_9_" class="st9" d="M380.6,265.2c-0.9,0-1.7,1.4-1.8,2.5c-0.1,1.1,0.4,2.8,1.4,2.9c1,0,1.8-1.6,1.9-2.7
					C382.1,266.8,381.5,265.3,380.6,265.2L380.6,265.2z"/>
			</g>
			<path class="st9" d="M376.8,260.9c0,0-0.3,5.3,1.6,5.7c1.2,0.2,2.2-3,2.2-3L376.8,260.9z"/>
			<path id="piece11" class="st9" d="M372.4,322.1c-0.6,0.7,0.2,2.3,1,2.9c0.9,0.7,2.6,1.3,3.2,0.5c0.6-0.8-0.3-2.4-1.2-3.1
				C374.6,321.8,373,321.4,372.4,322.1L372.4,322.1z"/>
			<g>
				<path id="piece11_1_" class="st9" d="M376.1,321.7c-0.6,0.7,0.2,2.3,1,2.9c0.9,0.7,2.6,1.3,3.2,0.5c0.6-0.8-0.3-2.4-1.2-3.1
					C378.2,321.4,376.6,321,376.1,321.7L376.1,321.7z"/>
			</g>
			<g>
				<path id="piece11_2_" class="st9" d="M379.8,321c-0.6,0.7,0.2,2.3,1,2.9c0.9,0.7,2.6,1.3,3.2,0.5c0.6-0.8-0.3-2.4-1.2-3.1
					C381.9,320.7,380.3,320.3,379.8,321L379.8,321z"/>
			</g>
			<path id="piece12" class="st9" d="M383.2,320.8c-0.5,0.8,0.5,2.2,1.4,2.8c1,0.6,2.7,0.9,3.2,0c0.5-0.9-0.7-2.3-1.6-2.9
				C385.3,320.1,383.7,320,383.2,320.8L383.2,320.8z"/>
			<g>
				<path id="piece12_1_" class="st9" d="M387.2,320.1c-0.5,0.8,0.5,2.2,1.4,2.8c1,0.6,2.7,0.9,3.2,0c0.5-0.9-0.7-2.3-1.6-2.9
					C389.3,319.5,387.7,319.3,387.2,320.1L387.2,320.1z"/>
			</g>
			<path id="piece13" class="st9" d="M390.7,319.1c-0.4,0.9,0.7,2.1,1.7,2.6c1,0.5,2.8,0.6,3.2-0.3c0.4-0.9-0.9-2.2-1.9-2.7
				C392.7,318.3,391.1,318.2,390.7,319.1L390.7,319.1z"/>
			<g>
				<path id="piece13_1_" class="st9" d="M394.5,318c-0.4,0.9,0.7,2.1,1.7,2.6c1,0.5,2.8,0.6,3.2-0.3c0.4-0.9-0.9-2.2-1.9-2.7
					C396.5,317.1,394.9,317.1,394.5,318L394.5,318z"/>
			</g>
			<path id="piece14" class="st9" d="M398.3,316.8c-0.3,0.9,0.8,2.1,1.8,2.5c1,0.4,2.8,0.4,3.2-0.5c0.3-0.9-1-2.2-2.1-2.6
				C400.2,315.8,398.6,315.9,398.3,316.8L398.3,316.8z"/>
			<g>
				<path id="piece14_1_" class="st9" d="M402.1,315.5c-0.3,0.9,0.8,2.1,1.8,2.5c1,0.4,2.8,0.4,3.2-0.5c0.3-0.9-1-2.2-2.1-2.6
					C404,314.6,402.4,314.7,402.1,315.5L402.1,315.5z"/>
			</g>
			<g>
				<path id="piece14_2_" class="st9" d="M405.8,314c-0.3,0.9,0.8,2.1,1.8,2.5c1,0.4,2.8,0.4,3.2-0.5c0.3-0.9-1-2.2-2.1-2.6
					C407.8,313,406.1,313.1,405.8,314L405.8,314z"/>
			</g>
			<g>
				<path id="piece14_3_" class="st9" d="M409.7,312.3c-0.3,0.9,0.8,2.1,1.8,2.5c1,0.4,2.8,0.4,3.2-0.5c0.3-0.9-1-2.2-2.1-2.6
					C411.7,311.4,410.1,311.5,409.7,312.3L409.7,312.3z"/>
			</g>
			<g>
				<path id="piece14_4_" class="st9" d="M413.8,311.1c-0.3,0.9,0.8,2.1,1.8,2.5c1,0.4,2.8,0.4,3.2-0.5c0.3-0.9-1-2.2-2.1-2.6
					C415.7,310.1,414.1,310.2,413.8,311.1L413.8,311.1z"/>
			</g>
			<g>
				<path id="piece14_5_" class="st9" d="M414.2,307.9c-0.3,0.9,0.8,2.1,1.8,2.5c1,0.4,2.8,0.4,3.2-0.5c0.3-0.9-1-2.2-2.1-2.6
					C416.2,307,414.6,307,414.2,307.9L414.2,307.9z"/>
			</g>
			<path class="st9" d="M413.3,307c0,0,2.7,0.4,3-0.6c0.3-1.3-3.1-2.5-3.1-2.5L413.3,307z"/>
			<path id="piece15" class="st9" d="M340.3,315.1c-0.8,0.5-0.6,2.2-0.1,3.1c0.6,1,2,2.1,2.8,1.6c0.8-0.5,0.6-2.3,0-3.3
				C342.5,315.6,341.1,314.6,340.3,315.1L340.3,315.1z"/>
			<g>
				<path id="piece15_1_" class="st9" d="M344.1,316.7c-0.8,0.5-0.6,2.2-0.1,3.1c0.6,1,2,2.1,2.8,1.6c0.8-0.5,0.6-2.3,0-3.3
					C346.2,317.1,344.9,316.2,344.1,316.7L344.1,316.7z"/>
			</g>
			<g>
				<path id="piece15_2_" class="st9" d="M347.7,317.2c-0.8,0.5-0.6,2.2-0.1,3.1c0.6,1,2,2.1,2.8,1.6c0.8-0.5,0.6-2.3,0-3.3
					C349.9,317.7,348.5,316.7,347.7,317.2L347.7,317.2z"/>
			</g>
			<g>
				<path id="piece15_3_" class="st9" d="M351.7,318.2c-0.8,0.5-0.6,2.2-0.1,3.1c0.6,1,2,2.1,2.8,1.6c0.8-0.5,0.6-2.3,0-3.3
					C353.8,318.7,352.5,317.7,351.7,318.2L351.7,318.2z"/>
			</g>
			<g>
				<path id="piece15_4_" class="st9" d="M355.3,318.7c-0.8,0.5-0.6,2.2-0.1,3.1c0.6,1,2,2.1,2.8,1.6c0.8-0.5,0.6-2.3,0-3.3
					C357.4,319.2,356.1,318.2,355.3,318.7L355.3,318.7z"/>
			</g>
			<g>
				<path id="piece15_5_" class="st9" d="M358.8,319.5c-0.8,0.5-0.6,2.2-0.1,3.1c0.6,1,2,2.1,2.8,1.6c0.8-0.5,0.6-2.3,0-3.3
					C360.9,319.9,359.6,319,358.8,319.5L358.8,319.5z"/>
			</g>
			<g>
				<path id="piece15_6_" class="st9" d="M362.4,320.5c-0.8,0.5-0.6,2.2-0.1,3.1c0.6,1,2,2.1,2.8,1.6c0.8-0.5,0.6-2.3,0-3.3
					C364.5,320.9,363.2,320,362.4,320.5L362.4,320.5z"/>
			</g>
			<g>
				<path id="piece15_7_" class="st9" d="M366,321.1c-0.8,0.5-0.6,2.2-0.1,3.1c0.6,1,2,2.1,2.8,1.6c0.8-0.5,0.6-2.3,0-3.3
					C368.1,321.6,366.8,320.6,366,321.1L366,321.1z"/>
			</g>
			<g>
				<path id="piece15_8_" class="st9" d="M369.6,321.7c-0.8,0.5-0.6,2.2-0.1,3.1c0.6,1,2,2.1,2.8,1.6c0.8-0.5,0.6-2.3,0-3.3
					C371.8,322.1,370.4,321.2,369.6,321.7L369.6,321.7z"/>
			</g>
			<path class="st9" d="M329.6,303.5c-0.8-0.4-2.2,0.6-2.7,1.5c-0.6,1-0.8,2.8,0.1,3.2c0.9,0.5,2.3-0.7,2.8-1.7
				C330.3,305.6,330.5,303.9,329.6,303.5L329.6,303.5z"/>
			<path class="st9" d="M328.4,306.9c-0.9-0.3-2.1,0.9-2.5,1.9c-0.4,1-0.4,2.8,0.5,3.2c0.9,0.3,2.2-1,2.6-2.1
				C329.4,308.8,329.3,307.2,328.4,306.9L328.4,306.9z"/>
			<path class="st9" d="M329.5,310c-0.9-0.2-2,1.1-2.3,2.1c-0.3,1.1-0.1,2.9,0.8,3.1c1,0.2,2.1-1.2,2.4-2.3
				C330.7,311.8,330.4,310.2,329.5,310L329.5,310z"/>
			<path class="st9" d="M332.5,311.3c-0.9-0.3-2,1-2.4,2c-0.4,1.1-0.2,2.9,0.7,3.1c1,0.3,2.1-1.2,2.4-2.2
				C333.6,313.2,333.4,311.5,332.5,311.3L332.5,311.3z"/>
			<path id="piece16" class="st9" d="M334.4,311.8c-0.9,0.2-1.2,1.9-1,2.9c0.2,1.1,1.2,2.6,2.2,2.3c1-0.2,1.2-2.1,1-3.2
				C336.3,312.8,335.3,311.5,334.4,311.8L334.4,311.8z"/>
			<g>
				<path id="piece16_1_" class="st9" d="M337.7,313c-0.9,0.2-1.2,1.9-1,2.9c0.2,1.1,1.2,2.6,2.2,2.3c1-0.2,1.2-2.1,1-3.2
					C339.6,314.1,338.6,312.8,337.7,313L337.7,313z"/>
			</g>
			<g>
				<path id="piece6_2_" class="st9" d="M368,260.3c-0.7,0.6-0.2,2.3,0.6,3.1c0.7,0.8,2.4,1.6,3.1,0.9c0.7-0.7,0.1-2.4-0.7-3.2
					C370.2,260.3,368.7,259.7,368,260.3L368,260.3z"/>
			</g>
			<g>
				<path id="piece6_3_" class="st9" d="M367.2,263.9c-0.7,0.6-0.2,2.3,0.6,3.1c0.7,0.8,2.4,1.6,3.1,0.9c0.7-0.7,0.1-2.4-0.7-3.2
					C369.4,263.9,367.9,263.2,367.2,263.9L367.2,263.9z"/>
			</g>
			<g>
				<path id="piece6_4_" class="st9" d="M367.3,267.9c-0.7,0.6-0.2,2.3,0.6,3.1c0.7,0.8,2.4,1.6,3.1,0.9c0.7-0.7,0.1-2.4-0.7-3.2
					C369.4,267.9,367.9,267.3,367.3,267.9L367.3,267.9z"/>
			</g>
			<g>
				<path id="piece6_5_" class="st9" d="M367.2,272.2c-0.7,0.6-0.2,2.3,0.6,3.1c0.7,0.8,2.4,1.6,3.1,0.9c0.7-0.7,0.1-2.4-0.7-3.2
					C369.4,272.2,367.9,271.5,367.2,272.2L367.2,272.2z"/>
			</g>
			<g>
				<path id="piece6_6_" class="st9" d="M367.4,276.3c-0.7,0.6-0.2,2.3,0.6,3.1c0.7,0.8,2.4,1.6,3.1,0.9c0.7-0.7,0.1-2.4-0.7-3.2
					C369.6,276.3,368.1,275.7,367.4,276.3L367.4,276.3z"/>
			</g>
			<g>
				<path id="piece6_7_" class="st9" d="M366.7,280.1c-0.7,0.6-0.2,2.3,0.6,3.1c0.7,0.8,2.4,1.6,3.1,0.9c0.7-0.7,0.1-2.4-0.7-3.2
					C368.9,280.1,367.4,279.5,366.7,280.1L366.7,280.1z"/>
			</g>
			<g>
				<path id="piece6_8_" class="st9" d="M367.2,284.4c-0.7,0.6-0.2,2.3,0.6,3.1c0.7,0.8,2.4,1.6,3.1,0.9c0.7-0.7,0.1-2.4-0.7-3.2
					C369.4,284.4,367.9,283.8,367.2,284.4L367.2,284.4z"/>
			</g>
			<g>
				<path id="piece6_9_" class="st9" d="M366.7,287.9c-0.7,0.6-0.2,2.3,0.6,3.1c0.7,0.8,2.4,1.6,3.1,0.9c0.7-0.7,0.1-2.4-0.7-3.2
					C368.9,287.9,367.4,287.2,366.7,287.9L366.7,287.9z"/>
			</g>
			<g>
				<path id="piece6_10_" class="st9" d="M367.2,291.3c-0.7,0.6-0.2,2.3,0.6,3.1c0.7,0.8,2.4,1.6,3.1,0.9c0.7-0.7,0.1-2.4-0.7-3.2
					C369.4,291.3,367.9,290.6,367.2,291.3L367.2,291.3z"/>
			</g>
			<g>
				<path id="piece6_11_" class="st9" d="M367.2,295.4c-0.7,0.6-0.2,2.3,0.6,3.1c0.7,0.8,2.4,1.6,3.1,0.9c0.7-0.7,0.1-2.4-0.7-3.2
					C369.4,295.4,367.9,294.7,367.2,295.4L367.2,295.4z"/>
			</g>
			<g>
				<path id="piece6_12_" class="st9" d="M367,299.4c-0.7,0.6-0.2,2.3,0.6,3.1c0.7,0.8,2.4,1.6,3.1,0.9c0.7-0.7,0.1-2.4-0.7-3.2
					C369.1,299.4,367.6,298.7,367,299.4L367,299.4z"/>
			</g>
			<g>
				<path id="piece6_13_" class="st9" d="M367,303.2c-0.7,0.6-0.2,2.3,0.6,3.1c0.7,0.8,2.4,1.6,3.1,0.9c0.7-0.7,0.1-2.4-0.7-3.2
					C369.2,303.2,367.7,302.6,367,303.2L367,303.2z"/>
			</g>
			<g>
				<path id="piece6_14_" class="st9" d="M367.1,307.3c-0.7,0.6-0.2,2.3,0.6,3.1c0.7,0.8,2.4,1.6,3.1,0.9c0.7-0.7,0.1-2.4-0.7-3.2
					C369.3,307.3,367.8,306.6,367.1,307.3L367.1,307.3z"/>
			</g>
			<g>
				<path id="piece6_15_" class="st9" d="M367.1,311.2c-0.7,0.6-0.2,2.3,0.6,3.1c0.7,0.8,2.4,1.6,3.1,0.9c0.7-0.7,0.1-2.4-0.7-3.2
					C369.3,311.2,367.8,310.6,367.1,311.2L367.1,311.2z"/>
			</g>
			<g>
				<path id="piece6_16_" class="st9" d="M367,315.2c-0.7,0.6-0.2,2.3,0.6,3.1c0.7,0.8,2.4,1.6,3.1,0.9c0.7-0.7,0.1-2.4-0.7-3.2
					C369.2,315.2,367.7,314.6,367,315.2L367,315.2z"/>
			</g>
			<g>
				<path id="piece6_17_" class="st9" d="M366.8,319.2c-0.7,0.6-0.2,2.3,0.6,3.1c0.7,0.8,2.4,1.6,3.1,0.9c0.7-0.7,0.1-2.4-0.7-3.2
					C369,319.2,367.4,318.6,366.8,319.2L366.8,319.2z"/>
			</g>
			<g>
				<path id="piece6_18_" class="st9" d="M366.8,323.6c-0.7,0.6-0.2,2.3,0.6,3.1c0.7,0.8,2.4,1.6,3.1,0.9c0.7-0.7,0.1-2.4-0.7-3.2
					C369,323.6,367.4,323,366.8,323.6L366.8,323.6z"/>
			</g>
			<g>
				<path id="piece6_19_" class="st9" d="M366.7,328.2c-0.7,0.6-0.2,2.3,0.6,3.1c0.7,0.8,2.4,1.6,3.1,0.9c0.7-0.7,0.1-2.4-0.7-3.2
					C368.8,328.2,367.3,327.5,366.7,328.2L366.7,328.2z"/>
			</g>
			<g>
				<path id="piece6_20_" class="st9" d="M366.7,332.4c-0.7,0.6-0.2,2.3,0.6,3.1c0.7,0.8,2.4,1.6,3.1,0.9c0.7-0.7,0.1-2.4-0.7-3.2
					C368.8,332.4,367.3,331.8,366.7,332.4L366.7,332.4z"/>
			</g>
			<g>
				<path id="piece6_21_" class="st9" d="M366.7,336.4c-0.7,0.6-0.2,2.3,0.6,3.1c0.7,0.8,2.4,1.6,3.1,0.9c0.7-0.7,0.1-2.4-0.7-3.2
					C368.8,336.4,367.3,335.8,366.7,336.4L366.7,336.4z"/>
			</g>
			<g>
				<path id="piece6_22_" class="st9" d="M366.5,340.8c-0.7,0.6-0.2,2.3,0.6,3.1c0.7,0.8,2.4,1.6,3.1,0.9c0.7-0.7,0.1-2.4-0.7-3.2
					C368.7,340.8,367.2,340.2,366.5,340.8L366.5,340.8z"/>
			</g>
			<path id="piece17" class="st9" d="M376.4,260.6c0.5,0.7-0.3,2.2-1,2.8c-0.8,0.7-2.4,1.1-2.9,0.3c-0.5-0.8,0.4-2.3,1.2-2.9
				C374.5,260.2,376,259.9,376.4,260.6L376.4,260.6z"/>
			<g>
				<path id="piece17_1_" class="st9" d="M377,263.9c0.5,0.7-0.3,2.2-1,2.8c-0.8,0.7-2.4,1.1-2.9,0.3c-0.5-0.8,0.4-2.3,1.2-2.9
					C375.1,263.5,376.5,263.1,377,263.9L377,263.9z"/>
			</g>
			<g>
				<path id="piece17_2_" class="st9" d="M376.9,267.5c0.5,0.7-0.3,2.2-1,2.8c-0.8,0.7-2.4,1.1-2.9,0.3c-0.5-0.8,0.4-2.3,1.2-2.9
					C375,267,376.5,266.7,376.9,267.5L376.9,267.5z"/>
			</g>
			<g>
				<path id="piece17_3_" class="st9" d="M376.9,271.1c0.5,0.7-0.3,2.2-1,2.8c-0.8,0.7-2.4,1.1-2.9,0.3c-0.5-0.8,0.4-2.3,1.2-2.9
					C374.9,270.7,376.4,270.4,376.9,271.1L376.9,271.1z"/>
			</g>
			<g>
				<path id="piece17_4_" class="st9" d="M376.8,274.5c0.5,0.7-0.3,2.2-1,2.8c-0.8,0.7-2.4,1.1-2.9,0.3c-0.5-0.8,0.4-2.3,1.2-2.9
					C374.9,274.1,376.3,273.7,376.8,274.5L376.8,274.5z"/>
			</g>
			<g>
				<path id="piece17_5_" class="st9" d="M377,278.1c0.5,0.7-0.3,2.2-1,2.8c-0.8,0.7-2.4,1.1-2.9,0.3c-0.5-0.8,0.4-2.3,1.2-2.9
					C375.1,277.6,376.5,277.3,377,278.1L377,278.1z"/>
			</g>
			<g>
				<path id="piece17_6_" class="st9" d="M376.8,281.5c0.5,0.7-0.3,2.2-1,2.8c-0.8,0.7-2.4,1.1-2.9,0.3c-0.5-0.8,0.4-2.3,1.2-2.9
					C374.8,281.1,376.3,280.8,376.8,281.5L376.8,281.5z"/>
			</g>
			<path class="st9" d="M376.6,285.2c0.5,0.8-0.3,2.2-1.1,2.9c-0.9,0.7-2.6,1.1-3.2,0.3c-0.6-0.8,0.4-2.4,1.3-3
				C374.5,284.8,376.1,284.5,376.6,285.2L376.6,285.2z"/>
			<path id="piece18" class="st9" d="M376.4,288.7c0.7,0.6,0.2,2.3-0.6,3.1c-0.7,0.8-2.4,1.6-3.1,0.9c-0.7-0.7-0.1-2.4,0.7-3.2
				C374.2,288.7,375.7,288.1,376.4,288.7L376.4,288.7z"/>
			<g>
				<path id="piece18_1_" class="st9" d="M376.5,292.8c0.7,0.6,0.2,2.3-0.6,3.1c-0.7,0.8-2.4,1.6-3.1,0.9c-0.7-0.7-0.1-2.4,0.7-3.2
					C374.4,292.8,375.9,292.2,376.5,292.8L376.5,292.8z"/>
			</g>
			<g>
				<path id="piece18_2_" class="st9" d="M376.6,296.8c0.7,0.6,0.2,2.3-0.6,3.1c-0.7,0.8-2.4,1.6-3.1,0.9c-0.7-0.7-0.1-2.4,0.7-3.2
					C374.4,296.8,375.9,296.2,376.6,296.8L376.6,296.8z"/>
			</g>
			<g>
				<path id="piece18_3_" class="st9" d="M376.5,301.1c0.7,0.6,0.2,2.3-0.6,3.1c-0.7,0.8-2.4,1.6-3.1,0.9c-0.7-0.7-0.1-2.4,0.7-3.2
					C374.3,301.1,375.8,300.5,376.5,301.1L376.5,301.1z"/>
			</g>
			<g>
				<path id="piece18_4_" class="st9" d="M376.6,305.2c0.7,0.6,0.2,2.3-0.6,3.1c-0.7,0.8-2.4,1.6-3.1,0.9c-0.7-0.7-0.1-2.4,0.7-3.2
					C374.4,305.2,375.9,304.5,376.6,305.2L376.6,305.2z"/>
			</g>
			<g>
				<path id="piece18_5_" class="st9" d="M376.5,309.2c0.7,0.6,0.2,2.3-0.6,3.1c-0.7,0.8-2.4,1.6-3.1,0.9c-0.7-0.7-0.1-2.4,0.7-3.2
					C374.3,309.2,375.8,308.6,376.5,309.2L376.5,309.2z"/>
			</g>
			<g>
				<path id="piece18_6_" class="st9" d="M376.5,313.3c0.7,0.6,0.2,2.3-0.6,3.1c-0.7,0.8-2.4,1.6-3.1,0.9c-0.7-0.7-0.1-2.4,0.7-3.2
					C374.4,313.3,375.9,312.7,376.5,313.3L376.5,313.3z"/>
			</g>
			<g>
				<path id="piece18_7_" class="st9" d="M376.5,317.5c0.7,0.6,0.2,2.3-0.6,3.1c-0.7,0.8-2.4,1.6-3.1,0.9c-0.7-0.7-0.1-2.4,0.7-3.2
					C374.4,317.5,375.9,316.8,376.5,317.5L376.5,317.5z"/>
			</g>
			<g>
				<path id="piece18_8_" class="st9" d="M376.4,321.6c0.7,0.6,0.2,2.3-0.6,3.1c-0.7,0.8-2.4,1.6-3.1,0.9c-0.7-0.7-0.1-2.4,0.7-3.2
					C374.2,321.6,375.7,321,376.4,321.6L376.4,321.6z"/>
			</g>
			<g>
				<path id="piece18_9_" class="st9" d="M376.6,325.4c0.7,0.6,0.2,2.3-0.6,3.1c-0.7,0.8-2.4,1.6-3.1,0.9c-0.7-0.7-0.1-2.4,0.7-3.2
					C374.4,325.4,375.9,324.7,376.6,325.4L376.6,325.4z"/>
			</g>
			<g>
				<path id="piece18_10_" class="st9" d="M376.6,329.3c0.7,0.6,0.2,2.3-0.6,3.1c-0.7,0.8-2.4,1.6-3.1,0.9c-0.7-0.7-0.1-2.4,0.7-3.2
					C374.4,329.3,375.9,328.7,376.6,329.3L376.6,329.3z"/>
			</g>
			<g>
				<path id="piece18_11_" class="st9" d="M376.5,333.6c0.7,0.6,0.2,2.3-0.6,3.1c-0.7,0.8-2.4,1.6-3.1,0.9c-0.7-0.7-0.1-2.4,0.7-3.2
					C374.3,333.6,375.8,333,376.5,333.6L376.5,333.6z"/>
			</g>
			<g>
				<path id="piece18_12_" class="st9" d="M376.5,337.8c0.7,0.6,0.2,2.3-0.6,3.1c-0.7,0.8-2.4,1.6-3.1,0.9c-0.7-0.7-0.1-2.4,0.7-3.2
					C374.3,337.8,375.8,337.2,376.5,337.8L376.5,337.8z"/>
			</g>
		</g>
		<g>
			<path class="st9" d="M369.9,369.7c4,1.1,6.4,1,9.6,0.1l-3.5-5.6"/>
			<path class="st8" d="M377.7,355.2l-6.3-1.6c0,0,0.1-7,4.1-6.4C378.7,347.7,377.8,355.2,377.7,355.2L377.7,355.2z"/>
			<circle class="st8" cx="374.6" cy="344.6" r="2.6"/>
			<path class="st9" d="M377.1,358.4c1.4,3.6,2.3,6.6,0.9,10.7 M379.5,369.7c-2-1.7-7.3-1.2-9.6-0.1c-0.9,0-3.3-16.6,5.1-16.2
				C382.8,353.8,380.1,369.8,379.5,369.7L379.5,369.7z"/>
		</g>
		<g>
			<path class="st9" d="M363,373.3c3.9,2.4,7.4,2.2,10.8,0.1l-8.1-8.4"/>
			<circle class="st8" cx="368.7" cy="347.7" r="2.6"/>
			<path class="st8" d="M371.9,356l-6.5-0.1c0,0-0.8-5.3,3.2-5.6C371.9,350.1,372,356,371.9,356L371.9,356z"/>
			<path class="st9" d="M368.7,372.1c-1.3-2.8-1.4-6.2-1-9.9 M365.8,372.3c-1.5-2.6-1.8-6-0.6-10.2 M373.9,373.4
				c-1-1.2-8-1.8-10.8-0.1c-1,0-3.7-18.8,5.8-18.3C377.6,355.4,374.5,373.5,373.9,373.4L373.9,373.4z"/>
		</g>
	</g>
</g>
</svg>
