<?xml version="1.0" encoding="utf-8"?>
<!-- Generator: Adobe Illustrator 21.0.0, SVG Export Plug-In . SVG Version: 6.00 Build 0)  -->
<svg version="1.1" id="Layer_1" xmlns="http://www.w3.org/2000/svg" xmlns:xlink="http://www.w3.org/1999/xlink" x="0px" y="0px"
	 viewBox="0 0 900 600" style="enable-background:new 0 0 900 600;" xml:space="preserve">
<style type="text/css">
	.st0{fill:#FFD520;}
	.st1{fill:#FF4E12;}
	.st2{fill:#FFFFFF;stroke:#000000;stroke-width:0.5208;}
	.st3{fill:none;stroke:#000000;stroke-width:0.5208;}
	.st4{fill:none;stroke:#000000;stroke-width:0.5208;stroke-linecap:round;}
	.st5{fill:none;stroke:#000000;stroke-width:0.5208;stroke-linecap:round;stroke-linejoin:round;}
	.st6{fill:#FFFFFF;stroke:#000000;stroke-width:0.5208;stroke-linecap:round;}
</style>
<rect class="st0" width="900" height="600"/>
<path class="st1" d="M0,600h900V0L0,600z"/>
<g>
	<g>
		<path class="st2" d="M481.7,187.6c-5-1.8-8.2,0.8-8,7.2c0.2,6.4,3.5,10.1,8.5,7.7L481.7,187.6L481.7,187.6z"/>
		<path class="st2" d="M486.1,175.5c-4.2-3.3-8-1.9-9.9,4.3c-1.9,6.1,0.1,10.7,5.6,10.1L486.1,175.5L486.1,175.5z"/>
		<path class="st2" d="M493,163.9c-3.6-3.9-7.6-3.1-10.5,2.6c-2.9,5.8-1.6,10.6,3.9,10.8L493,163.9L493,163.9z"/>
		<path class="st2" d="M488.5,220.6c-6.1,2.3-6.8,10.6-2.9,15.8c3.9,5.2,10.9,6.1,14.8,0L488.5,220.6L488.5,220.6z"/>
		<path class="st2" d="M481.4,202.9c-5.8-1.9-11,5.9-11.9,12.9c-1.1,8.9-13.7,11.8-6.8,25.1c1.4-8.5,7.1-13.2,11.6-13.5
			c4.5-0.3,11.3-1.3,14.2-6.8L481.4,202.9L481.4,202.9z"/>
		<path class="st2" d="M499.8,237.3c-6.8,1.6-7.7,10.6-2.9,17.1c4.1,5.5,17.1,4.2,16.7-1.3L499.8,237.3L499.8,237.3z"/>
		<path class="st2" d="M518.9,291.6c0.3-5.8-9-8-13.5-6.9c-4.5,1.1-13.1-0.2-15.1-5c-1.6,3.9,0.7,8,7.2,10.1
			c4.9,1.6,4.8,5.2,3.4,6.8C504.6,297.2,515.6,297.2,518.9,291.6L518.9,291.6z"/>
		<path class="st2" d="M513.6,254.6c-6.6-2.9-10.5,1.5-13,5.8c-3.7,6.3-15.1-1.8-19,6.6c5.2-2.3,10.6,2.6,13,4.2
			c7.1,4.7,20.8,3.2,22.7-7.7L513.6,254.6L513.6,254.6z"/>
		<path class="st2" d="M517.5,262.3c-6.6,5-9.2,10.9-9,15c0.2,4,5.8,12.9,11.9,13.4C523.9,283.4,525.7,268.1,517.5,262.3
			L517.5,262.3z"/>
		<path class="st2" d="M490.1,293.4c0-2.4,3.5-3.4,6-2.6c2.4,0.8,6.1,3.2,4.8,5.8L490.1,293.4L490.1,293.4z"/>
		<path class="st2" d="M453.7,280.1c-0.6-2.9,4-7.9,10.3-5.2c6.3,2.7,7.1,8,4.5,10.1L453.7,280.1L453.7,280.1z"/>
		<path class="st2" d="M469,285.5c-0.5-1.6,4-4.8,11.8-2.9c7.7,1.9,9.6,6.9,9.3,10.8L469,285.5L469,285.5z"/>
		<path class="st2" d="M452.9,280.1c4-3.1,2.5-8.9-1.1-10.6c-6.6-3.2-4.2-11.6-8.4-13.2c-4.2-1.6-8.2-4.5-8.4-7.4
			c-2.1,4-0.8,7.7,2.1,10.3c2.9,2.6-2.3,13,1.4,15.8L452.9,280.1L452.9,280.1z"/>
		<path class="st2" d="M366.6,277.9c-3.4-5.3-11.4-4.3-14.8-0.6c-3.4,3.7-2.9,9.2,0.3,11.6L366.6,277.9L366.6,277.9z"/>
		<path class="st2" d="M386,270c-1.3-7.1-9.8-7.9-14.5-6.1c-4.7,1.8-7.9,8.9-4.8,14L386,270L386,270z"/>
		<path class="st2" d="M398.8,269c3.1-6-2.9-14.8-9.7-16.1c-5.6-1.1-12.3-1-14.5-6.6c-1.4,4.8,2.3,7.9,6.4,10.6
			c4.2,2.7-0.8,9.8,6,13.8L398.8,269L398.8,269z"/>
		<path class="st2" d="M398.2,269.2c-1.4-4.3,1.4-9.9,7.2-9.5c5.8,0.4,9.1,4.6,6.5,9.9L398.2,269.2L398.2,269.2z"/>
		<path class="st2" d="M411.1,269.6c-0.8-4.4,2.8-9.6,8.5-8.4s8.3,5.8,5.1,10.7L411.1,269.6L411.1,269.6z"/>
		<path class="st2" d="M423.9,271.6c-0.6-4.5,3.3-9.5,8.9-8c5.6,1.5,8,6.2,4.5,10.9L423.9,271.6L423.9,271.6z"/>
		<path class="st2" d="M326.7,345.4c-10.8,0-13.4,2.6-15,13.7C309.8,372.9,328.7,374.5,326.7,345.4z"/>
		<path class="st2" d="M331.5,330.9c-16.6-6.3-25.6,20-42,15.3c5.9,9.3,20.1,0,25.4,1C324,348.7,343.5,345.3,331.5,330.9
			L331.5,330.9z"/>
		<path class="st2" d="M320.8,366.8c-8.2-3.7-17.1,8.9-15.5,14.3C307.3,388,326.1,382.4,320.8,366.8z"/>
		<path class="st2" d="M282.5,420.9c4.5,1.3,10,3.9,9,12.6c-1,8.7-17.4,26.4-32.2,27.4c-14.8,1-20.1,18.8-32.8,13.8
			c11.9-2.2,11.9-15.8,21.2-20c-6.8-2.4-10.3,12.9-19,12.9c-8.7,0-12.9,13.8-23.5,12.9c-10.6-1-11.7,16.9-33,17.1
			c-16.3,0.2-36.4,19.2-43.6,10.9c15.8-2.3,22.1-11,31.6-20.6c15.1-15.5,32.2-8.5,38-22.2c-6.9,4.7-15,6.9-22.9,6.8
			c-9.9-0.2-20.8,15.8-31.9,8.7c6.4-0.8,10.6-3.5,17.4-10.6c6.9-7.3,17.1-2.6,25.1-10c12.6-11.6,23.3-1.9,35.4-16.4
			c-3.4-1.6-10.6-0.5-17.4,3.1c-6.8,3.5-15.5-2.4-23.2,1.8c1-9.5,19-4.1,30.3-10.6c12.7-7.4,23.3-5.2,33.3-4.3
			c-14-0.1-19.5-13.4-38.8-9.5c-8.4,1.7-15.1-11.6-23.5-4.8c0.2-5,9-9,18-4.2c9,4.8,12.6-4.2,30.6,7.1c7.4,4.7,20.1-2.9,28.2,2.1
			c-1-3.1-5.6-5-11-4.6C251.1,413,273,413.9,282.5,420.9L282.5,420.9z"/>
		<path class="st2" d="M296.8,410.4c-7.1-5.5-16.9,1.1-23.7-1.4c0,4.5,2.3,11.3,9.7,13.8C285,421.2,295.2,412.3,296.8,410.4
			L296.8,410.4z"/>
		<path class="st2" d="M307.9,394.8c-11.1-5.6-13,8.4-21.7,5.5c0.3,4,3.5,9,10.6,10.1L307.9,394.8L307.9,394.8z"/>
		<path class="st2" d="M314.5,382c-16.4-6.4-18.5,9.3-28.2,6.3c2.3,5.5,16.1,8.4,23.2,6.4L314.5,382L314.5,382z"/>
		<path class="st2" d="M337,313c-4.3-6.1-13.5-1.1-15,6.1c-1.4,7.2,2.1,17.4,8.2,15.1L337,313L337,313z"/>
		<path class="st2" d="M348.1,293.7c-7.6-1.8-16.3-1-15.3,6.4c-2.9,1.3-3.7,10.8,4.2,12.9L348.1,293.7L348.1,293.7z"/>
		<path class="st2" d="M353.1,288.7c-7.4-8.7-15.7-8.5-20.3-4.8c-8.5,6.8-16.8,2.9-17.1,9.7c5.2-3.9,9.7,0.8,13.8-0.6
			c4.2-1.4,7.2,6.6,18.8,3.2L353.1,288.7L353.1,288.7z"/>
		<path class="st2" d="M335.2,418.6c1.1,2.1,8,3.1,11.4-0.5c4.5-4.7-0.5-17.7-7.6-18.7C332,398.5,331.4,414.1,335.2,418.6
			L335.2,418.6z"/>
		<path class="st2" d="M327.2,418.9c10.1,3.7,14.5-4.7,9-10C334.8,410.7,329.5,417.1,327.2,418.9z"/>
		<path class="st2" d="M289.2,432.8c-1.9,5.8-11.9,6.8-23.2,24.8c-11.3,18-22.1,10.5-24.8,22.9c13.5-10.9,24.1-3.7,32.2-14.5
			c12.2-16.4,22.3-14.1,27-25.1c6.8-15.8,36.4-15.5,38-40.2C328.5,398.6,296.9,425.4,289.2,432.8L289.2,432.8z"/>
		<path class="st2" d="M543.2,189.4c12.9,4.2,13.2,20.9,28,26.4c14.8,5.5,16.3,18.7,28.3,15.5c-11.3-3.1-10.5-16.1-22.2-19.3
			c-13.8-3.8-19-24.8-29.9-28"/>
		<path class="st2" d="M602.3,276.8c2.3,5.2,1.9,14.3-6.1,16.7c4.3,2.7,10.8,0.2,14.3-5.8c-5.3,11.8-1.8,22.4,6.6,24.5
			c-4-8.2,5-12.1,2.1-17.4c5.3,2.3,10,9.5,9.8,14c6.9-7.7-5.2-18-2.9-25.3L602.3,276.8L602.3,276.8z"/>
		<path class="st2" d="M518.9,359.5c-7.9-6.9-11.3,1.8-15.1-1.2c-3.6-2.8-8.5-3.2-10.3-0.4c6.8,0.2,3.5,5.5,16.6,6.8
			c-13.1,0.9-10.7,15.5-19.5,14.8c9.3,8.9,14.2-7.9,21.7-5.2c-2.3,0.6,3.5,6-0.5,13c6.5-0.2,9.2-9.2,10-13.8L518.9,359.5
			L518.9,359.5z"/>
		<path class="st2" d="M345.2,434.7c-2.9-2.4-11.3-3.5-14.5-1.6c-3.2,1.9-2.1,2.4,1.8,2.7c3.9,0.3,8.9,6.6,0.5,6.9
			c-3.9,0.2-2.6,9.5-10.6,10.1c3.3,4,12.7,1.4,16.1-3.1c-0.6,3.6,4.2,6.9,2.3,11.3c6,0.6,2.5-12.1,11.9-11.4
			c-3.9,0.5-2.3,9.2,4.5,6.9c-4,1.9-1.9,6.6,2.6,5.5c-2.9,1-3.9,4.7,0.2,6.8C363.7,463.5,359.4,444.5,345.2,434.7L345.2,434.7z"/>
		<path class="st2" d="M695.8,257.1c12.3,0,22.3-10,22.3-22.3c0-12.3-10-22.3-22.3-22.3c-12.3,0-22.3,10-22.3,22.3
			C673.5,247.1,683.5,257.1,695.8,257.1z"/>
		<path class="st2" d="M579.3,284c6.8-6.4,17.1-9.7,24.1-4.8c7.1,4.8,30.6,10.6,42.2,2.6c11.6-8,17.1-12.2,22.2-11.3
			c3.9,5.8,8.5,8.5,14.3,9c1.8,1.9,8,3.5,11.6,3.1c5.2,1.3,11.4-0.3,16.4-5.8c7.7,1.1,15-4.7,17.7-13.4c8.2-1,8.7-10.1,3.5-16.3
			c-4.8-1-1.1-17.2-18.7-14c7.4,4.5,1.8,13.5,7.9,17.7c-4.2,0-9.6,1.8-10.9,8c1.6-4.3-0.2-7.2-1.4-8.2c0.2-3.7-8-12.8-15.8-9.5
			c5.6,1.2,2.4,10.1,6.4,13.5c-2.9,0.2-6,1.6-7.7,4.2c-2.1-3.7-9.5-7.6-14-7.9c0-1.3-0.2-3.9-0.8-5.2c-2-3.9-3.7-8.5-2.9-14.3
			c-3.9,4.2-7.1,10-9,14.2c-6.1-4.2-21.2,1.9-28.3,3.5c-7.1,1.6-30.9-2.3-36.4-8c-5.5-5.8-16.1-9.3-26.1-12.2
			c-13.7-4-13.8-19-29-29.3C544.5,218.3,572.9,277.6,579.3,284L579.3,284z"/>
		<path class="st2" d="M421.5,426.3c11.9,0,21.6-9.7,21.6-21.6s-9.7-21.6-21.6-21.6s-21.6,9.7-21.6,21.6
			C400,416.7,409.6,426.3,421.5,426.3L421.5,426.3z"/>
		<path class="st2" d="M370,409.7c4.3,5.6,11.8,5.3,14.8,4.8c2.6,6.8,10.8,6.6,14.3,10.3c3.5,3.7,15.6,3.4,19.2,1.3
			c-3.2-0.3-7.4-2.2-11.4-5.6c-4.9-4.1-2.6-12.2-6.4-15.1c2.9-3.2,3.4-8.5,2.7-10.6c3.1-1.8,5.3-4.7,5.6-6.1
			c5.3-0.3,10-3.1,11.9-5.2c2.7,2.6,9.7-0.8,13.4,3.5c0.8-10.6-9.3-16.3-16.1-12.7c-2.7-1.4-10-0.5-11.3,1.4
			c-2.3-1-8.5,2.3-11.4,4.3c3.2-1.8,3.7-7.1,2.4-9c2.7-1.1,5.8-4.8,6.1-7.6c3.9,0.6,9.7-1.9,12.2-1.3c-4.2-5.5-11.1-7.4-18.2-6.9
			c-7.3,0.4-10.5,5.6-11.4,11.1c-4.3,2.6-5.8,11.3-4.2,14.3c-2.5-0.1-4.8,2.3-5.8,3.7c-3.4-1.4-8.2-2.5-11.7-2.5"/>
		<path class="st2" d="M366.3,373.2c-1.4-4.2,0.5-8,1.4-11.3c2.5-8.5,1-10.6-6.6-9.5C360.5,356.5,364.4,369.7,366.3,373.2
			L366.3,373.2z"/>
		<path class="st2" d="M360.8,352.9c1.9,1.9,8.8,2.8,9.5-3.3c0.8-7-2-9.7-8.1-7C361.7,344.2,361.1,350.8,360.8,352.9L360.8,352.9z"
			/>
		<path class="st2" d="M362.2,342.4c2.6,1,8.1,3.1,11.2-2.8c2.6-5-0.8-8.9-6.1-8.5C366,332.5,363.4,337.6,362.2,342.4L362.2,342.4z"
			/>
		<path class="st2" d="M367,330.5c0.6,1.9,7.2,8.4,12.1,3.7c4.8-4.7,4.8-11.6-2.4-14.2C374.7,320.4,368.9,327.2,367,330.5L367,330.5
			z"/>
		<path class="st2" d="M376.6,320.1c1.4,4,6,10.9,14.3,7.7c8.4-3.2,4.8-13.7,1-15.8C389.7,312.2,380.5,316.4,376.6,320.1
			L376.6,320.1z"/>
		<path class="st2" d="M391.9,312c-0.6,3.5,0,13.2,11.4,13c11.4-0.2,8.2-13.5,5.3-15.5C404,309.6,396.1,309.8,391.9,312L391.9,312z"
			/>
		<path class="st2" d="M409.1,310.1c-1.3,2.7-4.2,20.8,18.2,15.8C430.2,325.2,437.8,308.6,409.1,310.1z"/>
		<path class="st2" d="M421.4,311.7c-2.2,2.3,3.5,20.4,18.7,17.4C455.2,326,442.5,308.8,421.4,311.7z"/>
		<path class="st2" d="M434.2,314.4c-2.4,5,1.2,19.8,19.9,19.8C471.1,334.2,453.2,314.8,434.2,314.4z"/>
		<path class="st2" d="M448.9,318.8c-1.2,2.8-2.7,18.5,19.3,19.8C484.2,339.6,480.3,317,448.9,318.8z"/>
		<path class="st2" d="M472.6,325.4c-2.7,4.8-5.6,16.9,18.5,17.9C506.6,343.9,497,325.7,472.6,325.4z"/>
		<path class="st2" d="M492.7,329.1c-3.5,4.8-0.9,14.3,8,16.1c11.3,2.3,12.9-8.4,5.2-13.5C498.2,326.5,492.7,329.1,492.7,329.1
			L492.7,329.1z"/>
		<path class="st2" d="M503.6,331.3c-2.6,4.5-1,15.5,16.1,15.5C523.3,346.8,536.8,333,503.6,331.3z"/>
		<path class="st2" d="M371.5,541.3c13.8,0,25-11.2,25-25c0-13.8-11.2-25-25-25c-13.8,0-25,11.2-25,25
			C346.4,530.1,357.6,541.3,371.5,541.3z"/>
		<path class="st2" d="M555.2,177.1c-1.9,1.9-6,7.7-6.8,10c-8.4,25.1,14,43.9,27,70.8c10.3,21.2,9,54.7-7.1,76
			c-5.5,7.3-3.9,9.3-10.9,16.7c-2.7,2.8-5.8,6.4-4.8,16.7c4.5-1.6,10.9,2.6,12.2,6.1c3.2-1.6,7.7-1,9.3,1c5.5-2.6,10-1.3,14.8,3.9
			c4.2-0.6,8.7,0,12.9,4.5c2.3-4.5,6.8-6.1,10-5.2c-0.3-5.8,5.5-10,10.6-7.7c-1.6-7.7,5.5-13.5,12.2-11.3c5.8-4.5,17.4-4.8,23.2,1.9
			c-10.3-2.9-10,8-18.7,7.1c2.3,6.4-3.5,10.1-9.3,12.2c3.7-1.8,7.7-3.9,9-1.6c3.2-2.8,9.7-1.8,11.3-0.3c4.3-1.4,8.4-0.3,10.3,4.8
			c5.8,3.5,9.7,12.6,5.5,19.3c-1.3-7.1-6.1-6.8-8-9.7c-4.5,1.6-9,1.6-10.3-1.3c-2.6,2.6-11.3,4.8-15.1,1
			c-1.5,5.8-6.4,10.6-12.2,10.6c1.6,4.5-2.9,12.2-6.4,16.1c5.5,2.9,3.9,9.3,2.6,13.2c8.4,1.3,1.3,8.7,15.8,13.5
			c-7.1,2.3-20.9,0-22.9-8.7c-7.1-0.3-11.9-7.4-11.6-14.8c-5.5-5.1-6.3-12.6,1.3-17.7c-6.4,1.9-10-8.4-19.3-4.2
			c-4.6,2.1-16.9-1.4-16.7-5.8c-1.9,3.2-13.7,1.9-15.3-3.5c-3.9,2.1-12.9-1.4-12.7-6.8c-5,2.3-11.8-1.8-11.4-6.9
			c-4.7-0.6-5.2-4.8-4.8-8.4c-4.2-1.9-3.1-6-1.5-10.8c-2.9-3.2-1.6-7.7,0.6-11.9c-3.2-3.2-2.6-7.1-1.6-11.6
			c-15.5-1.3-34.8-5-79.2-18.7c-67-20.6-85,27.7-70.2,58c17.1,34.9-1.9,42.5,3.9,68.6c6.1,1.3,9.3,6.4,9,11.9
			c3.6,0.2,6.2,3.5,4.9,10c3.1-0.6,7,0.3,9.6,2.9c2.3-4.2,9.7-5.1,13.5-0.3c8.4-0.6,12.6,6.1,12.2,14.5c4.5,8,2.9,17.9-1.9,24.1
			c0.5-3.4,0-8.2-0.2-11.1c-0.3-5.3-7.7-6.4-6.9-10.8c-3.9,0.3-7.6-1.8-8.9-4.7c-2.3,1.9-5.5,2.6-8.2,1.6c4.3,1.9,7.7,9.7,6.4,14.8
			c2.3,3.9,1.8,11-1,14c-1.3,6.3-6.1,8.5-12.4,5.8c3.5-2.2,4.8-6.3,4.7-9.7c-2.3-1.9-3.4-5.6-3.5-7.9c-6.3,1-15-4.3-16.6-6.4
			c-13.8,0-25,11.2-25,25c-0.6-5.2-7.2-10.2-6.4-14.6c-3.9-11.9,1.6-23,17.4-25.3c-1.9-4.5,4.8-9.2,2.3-14.3
			c-3.3-6.6-9.3-15.1-18.4-25.1c5.5-9.3,3.9-21.9,0.6-29.6c-4.6-11.1-9-8.4-25.4,9.7c-26.8,29.4-62.5,21.2-94,40.6
			c-8.4,5.1-16.7,7.1-7.7-1.9c9-9,32.8-18,48.3-25.8c28.9-14.5,53.4-38.6,63.1-85.6c22.7-110.5,106.2-74,159-53.4
			c49.6,19.3,40.6-24.5,15.5-50.9c-30.2-31.7-24.1-56.7-10-76.6C516.2,159.7,565,168.6,555.2,177.1L555.2,177.1z"/>
		<path class="st2" d="M644.8,448.5c15.2,0,27.6-12.3,27.6-27.5c0-15.2-12.3-27.6-27.6-27.6c-15.2,0-27.6,12.3-27.6,27.6
			C617.3,436.1,629.6,448.5,644.8,448.5L644.8,448.5z"/>
	</g>
	<g>
		<path class="st3" d="M539.7,178.4c-6.1,27-1,39.3,8,51.2c18.6,24.6,33.5,80.8,12.2,117.5"/>
		<g>
			<path class="st4" d="M571.9,315.4c2.6-1,7.4-4,8.5-9.3"/>
			<path class="st4" d="M573.8,303.7c0.8-4.7,8-6.7,8.2-11.7"/>
			<path class="st4" d="M574,285.5c-0.5-4.8,7.2-9.2,6.1-14"/>
			<path class="st4" d="M569.8,268.1c-0.6-2.7,6.4-7.9,4.5-12.2"/>
			<path class="st4" d="M564.5,251.2c-1.5-3.1,3.4-6.6,1.3-9.8"/>
			<path class="st4" d="M556.8,237.6c-0.5-2.1,2.5-6.7,0.9-9.4"/>
			<path class="st4" d="M549,221.7c0.6-0.8,3.2-2.7,2.2-5.2"/>
			<path class="st4" d="M543.7,210.1c1-0.6,4.2-1.5,3.8-3.9"/>
			<path class="st5" d="M382.6,513.6c-6.4-2.3-14.5,1-16.1,6.4"/>
			<path class="st5" d="M371.3,525c0.8-5.5,9.2-7.9,11.8-5.3c-5.3-2.9-7.9,7.4-3.2,7.7"/>
			<path class="st5" d="M423.1,397.7c-3.9,1.9-5,9,0,14.3"/>
			<path class="st5" d="M428.9,399.3c-2.7,2.3-2.6,9,1.5,10.6c-3.4-2.4,0-6.6,2.4-6.8c2.4-0.2,4,2.7,1.1,5.6"/>
			<path class="st5" d="M655.1,415.2c-9-2.4-16.3,8-8,17.4c-0.2-9,6.3-15,14.2-13.4"/>
			<path class="st5" d="M657.6,425.5c-2.2,0-3.5,1.7-3.5,3.4c0,1.8,1.5,3.5,4,3.5c1.6,0,2.9-1.9,2.9-3.3"/>
			<path class="st5" d="M689.4,227.8c1.5,5.5,9,7.7,15,6.4"/>
			<path class="st5" d="M704.4,230.7c-4.7,0.2-8.5-4.2-8.2-7.9c0,2.7,6.3,4,8.2,2.3"/>
			<path class="st4" d="M384.8,414.6c-1.3-3.2,3.9-6.4,4-9.5c0.2-3.1,5.8-5.5,11.6,0.3"/>
			<path class="st4" d="M397.7,371.1c-1.1,0.5-2.1,1.1-3.1,1.4"/>
			<path class="st4" d="M408.8,388.6c-1.4,0.1-4.2-0.1-5.7-1.1"/>
			<path class="st4" d="M403.2,394.8c-1.1,0.6-3.6,1.5-5.1,1.9"/>
			<path class="st4" d="M348,492c-0.2,2.9,2.7,7.1,4.3,8.4"/>
			<path class="st4" d="M360.5,485.1c-1.6,2.4-2.6,6.6-1.6,9.5"/>
			<path class="st4" d="M384.5,494.7c-2.9-1.9-1-6.9-1.3-10.1c-0.3-3.2,3.4-8.4,10.6-4"/>
			<path class="st4" d="M357.5,476.4c2.9-0.5,6-0.3,7.9,0.5"/>
			<path class="st4" d="M394.2,467.2c-1.3,1.8-1.6,3.7-1.8,5"/>
			<path class="st4" d="M407.7,466.9c-2.3,0-4.2,1.6-5.2,3.2"/>
			<path class="st4" d="M376.5,384.5c2.6,0.9,9.3,5,9.5,9.3"/>
			<path class="st4" d="M403.8,363.5c-7.9-0.2-10.9-8.2-5-8.2"/>
			<path class="st4" d="M418,374.3c-3.1,1.3-1.6,6.6,2.7,9.2"/>
			<path class="st4" d="M399.2,424.9c-1.5-1.9,0.5-7.6,5.5-5.9"/>
			<path class="st4" d="M410.9,483.6c0.3-4.9,6.5-7.8,9-2.3"/>
			<path class="st4" d="M388,497.6c-0.4-5.4,2.3-7.2,4.7-7.5c2.4-0.3,5.9,1.7,7.5,5.2"/>
			<path class="st4" d="M340.1,501.7c0.3-3.2,3.1-6.6,6-6.1"/>
			<path class="st4" d="M634.7,358.7c-2.1,1.5-3.5,8.4,4.5,9"/>
			<path class="st4" d="M622.4,370c0,0.8,1,1.9,1.7,2.4"/>
			<path class="st4" d="M660.4,382.9c-2.1-1.6-7.5,4.9-2.6,9.7"/>
			<path class="st4" d="M609.2,437c-1.2-4.6,3.1-5.8,7.1-4.8"/>
			<path class="st4" d="M598.9,404.4c2.4-1.6,4.8-3.4,7.9-4.2"/>
			<path class="st4" d="M597.7,422.1c0-3.9,1.9-7.1,3.7-8"/>
			<path class="st4" d="M611.8,377.7c-0.3,4.7,1.6,9.2,3.1,11.6"/>
			<path class="st4" d="M650.1,378c-2.3,0.7-4.4,1.6-5.3,3.5"/>
			<path class="st4" d="M647.5,391.2c1.1-1,2.4-2.1,3-2.9"/>
			<path class="st4" d="M708.4,250.7c0,4.5-5.6,6.9-9.3,4"/>
			<path class="st4" d="M720.6,250.9c2.5,1.9,11.1,0.1,9.1-4.9"/>
			<path class="st4" d="M710.2,276.8c-1.8-0.3-4.8-2.3-6.1-3.9"/>
			<path class="st4" d="M727.9,263.4c-2.9,0.6-4.8,0-6.3-0.6"/>
			<path class="st4" d="M682.2,279.5c1.6,0,5.5-0.6,8.1-2"/>
			<path class="st4" d="M677.3,251c-2.1-0.2-3.6,0.2-4.8,1"/>
			<path class="st4" d="M709.8,258.9c-0.6,2-2,5.2-3.8,6.5"/>
			<path class="st5" d="M671.9,266c4-1.8,9,11.9,18.7,7.1"/>
			<path class="st5" d="M691.3,258.9c-1.3,1.8-2.1,4.5-2.3,6.9"/>
		</g>
		<path class="st3" d="M498.8,238c1.3-0.2,3.5-0.6,4-2.3"/>
		<path class="st3" d="M333.2,387.9c4.8,2.7,8.2,7.4,6.1,14.3"/>
		<path class="st3" d="M554.5,223.2c1.5,1,6.9,1,10-0.2"/>
		<path class="st3" d="M568.3,226.4c-0.2,2.3,0.5,10.8-3.9,12.6"/>
		<path class="st3" d="M566.1,237.8c4,1.3,12.1,0.8,14.7-6.6"/>
		<path class="st3" d="M575.1,237.5c2.1,3.2,2.7,9.5-3.5,12.9"/>
		<path class="st3" d="M576.7,242.8c4.7,1.6,15.5,1.8,14.3-7.4"/>
		<path class="st3" d="M587.3,242.8c3.2,4.5,17.4,9.8,15.1,0.5"/>
		<path class="st3" d="M574.3,255.8c5.5,1.3,13.2-2.4,10-12.1"/>
		<path class="st3" d="M599.7,248.6c0.8,3.7,18.8,7.6,16.4-0.8"/>
		<path class="st3" d="M612.8,252.6c3.4,7.7,21.2,7.1,15.6-3.2"/>
		<path class="st3" d="M625.5,257.5c3.5,4.3,19.3,1.8,13-8.7"/>
		<path class="st3" d="M638.4,257.3c9.8,7.4,21.2-3.2,8.9-10.9"/>
		<path class="st3" d="M652.9,254.9c8.7,6.9,19.3-5.6,11.8-9.2"/>
		<path class="st3" d="M584.1,252c2.7,0.8,8.5,0.5,9.8-4.5"/>
		<path class="st3" d="M591.8,250.9c-0.3,7.3,12,10.1,15.1,1.7"/>
		<path class="st3" d="M602.8,257.1c2.3,4.8,13,6.8,14.8-0.2"/>
		<path class="st3" d="M615.8,260.2c1.8,4.8,11.1,4.3,13.7-0.6"/>
		<path class="st3" d="M626.1,262.8c2.9,6.3,14.8,6.3,17.5-2.9"/>
		<path class="st3" d="M641.6,263.9c4.7,2.9,14.7,1.8,13.8-7.2"/>
		<path class="st3" d="M653.5,263.1c6.9,5.6,16.7,0.2,11.9-9.3"/>
		<path class="st3" d="M664.9,270.5c3.7-0.6,5.6-8,1.8-10"/>
		<path class="st3" d="M579.1,271.8c7.7-4.2,9.2-11.3,3.9-18.2"/>
		<path class="st3" d="M585.7,264.7c4.8,2.9,14-0.2,15.6-7.2"/>
		<path class="st3" d="M592.3,265.5c2.7,3.5,3.2,7.9-0.3,11.9"/>
		<path class="st3" d="M594.6,270c8.5-5.3,19.2,4.5,11.3,10.5"/>
		<path class="st3" d="M604.4,269.5c1.9-0.5,5.3-4,5.6-8"/>
		<path class="st3" d="M608.3,273.2c3.5-3.7,27.7,3.9,12.4,11.6"/>
		<path class="st3" d="M619.5,263.1c4.7,1.8,7.1,8.4,0,10.6"/>
		<path class="st3" d="M625.7,279.2c5.2-5.3,21.2-1.9,15.5,4.8"/>
		<path class="st3" d="M637.2,277.1c2.9-9.8,20.1-3.7,14.5,0.3"/>
		<path class="st3" d="M633.7,267.3c0.5,1.9,0.6,6.8-2.6,9.3"/>
		<path class="st3" d="M648.2,265.3c0.6,1.6,0.5,4.7-1,6.6"/>
		<path class="st3" d="M659.1,265.5c1,1.8,2.6,5.2-1,7.9"/>
		<path class="st3" d="M521.3,191.4c0.2,9.2,3.4,15.3,15.8,9.5"/>
		<path class="st3" d="M525.2,202.4c-6.1,8.2,0.8,17.1,12.9,8.2"/>
		<path class="st3" d="M506.4,206.4c8.4,9,23.3,2.4,13.7-11.3"/>
		<path class="st3" d="M530.2,214.1c-1.6,8.9,5.6,10.6,11.6,6.6"/>
		<path class="st3" d="M499,207.9c1.5,8.9,10.6,15.9,19.5,10.5"/>
		<path class="st3" d="M509.9,220.1c0,12.7,17.5,14.2,21.6,1"/>
		<path class="st3" d="M525.2,229.1c5.6,11.6,17.9,6.9,21.9-0.2"/>
		<path class="st3" d="M512.8,210.6c2.3,5.6,6.8,11.9,17.2,7.2"/>
		<path class="st3" d="M480.6,207.9c1.5,4.7,9.8,10.3,19.5,3.9"/>
		<path class="st3" d="M486.6,213.8c-5.2,7.6,5.1,14.6,17.5,3.4"/>
		<path class="st3" d="M492.7,223.2c2.1,10.6,6.3,19.2,21.4,5.5"/>
		<path class="st3" d="M506.5,234.1c5.5,6.8,13.8,10.9,21.7-0.5"/>
		<path class="st3" d="M534.1,236c-0.5,8,1.1,12.1,7.4,11.8c5-0.3,9.7-4.2,12.4-8.4"/>
		<path class="st3" d="M540.3,247.8c-0.2,9.2,7.1,16.4,20.6,7.1"/>
		<path class="st3" d="M546,258.6c-2.6,6.9,5.2,18.2,20.3,12.4"/>
		<path class="st3" d="M513.9,240.2c-1,8.9,7.2,14.8,20.4,3.4"/>
		<path class="st3" d="M520.4,250.1c0.5,7.2,8.7,15.9,20.8,3.4"/>
		<path class="st3" d="M526.2,259.2c-1,12.4,10.5,15.9,20.1,6.4"/>
		<path class="st3" d="M509,250.1c2.6,0.2,4.7-2.1,6-3.7"/>
		<path class="st3" d="M514.4,259.1c2.3,0.5,6.1-1.6,7.4-4.2"/>
		<path class="st3" d="M520.1,273.7c2.6,2.7,11.3,0.8,12.4-2.9"/>
		<path class="st3" d="M529.7,273.5c4.8,11.3,17.7,10.8,23-1.9"/>
		<path class="st3" d="M550.3,276.1c2.4,6.6,8.5,10.8,18.5,8.5"/>
		<path class="st3" d="M555.2,282.9c-5.6,9.2,1.8,20,14.3,9.3"/>
		<path class="st3" d="M558.2,296.6c-0.6,5.8,4.7,12.4,11.9,13.2"/>
		<path class="st3" d="M534.4,279.7c-1.9,13,7.4,19.3,19.2,12.4"/>
		<path class="st3" d="M520.7,286c3.1,2.4,8.5,2.7,13.7,0.8"/>
		<path class="st3" d="M540.7,294.3c-2.9,10.9,8.4,18.8,18,6.6"/>
		<path class="st3" d="M525,287.7c0.2,5.6,5.6,11.8,15.1,10"/>
		<path class="st3" d="M566.7,309c-6.4,4.3-7.7,12.1,1.3,17.1"/>
		<path class="st3" d="M551,306.7c0.3,6.6,3.4,10.3,10.6,10.9"/>
		<path class="st3" d="M541.5,303.3c-9.7,8.9-0.2,19.2,11.3,10.5"/>
		<path class="st3" d="M548.2,316.5c-3.2,10.1,8.9,16.3,15.3,6"/>
		<path class="st3" d="M528.3,295c-3.5,10,1,16.6,9.2,15.9"/>
		<path class="st3" d="M515.5,293c0.5,6,5.6,8,11.4,6.8"/>
		<path class="st3" d="M519.2,299.3c-4.3,8.4,2.3,12.9,11,9.7"/>
		<path class="st3" d="M556.6,327.6c-1.5,5.3-0.6,9.2,7.2,10.9"/>
		<path class="st3" d="M557.1,335.2c-9.5,4.3-10.3,13.5-2.9,19.5"/>
		<path class="st3" d="M549.4,325c-5,4.5-4,12.3,1.5,15.4"/>
		<path class="st3" d="M507.2,295.6c-5.5,5.4-0.2,20.3,11.8,12.2"/>
		<path class="st3" d="M538.6,314.4c-7.4,6.1-4,17.2,8.2,14.2"/>
		<path class="st3" d="M526.3,309.8c-3.9,10.9-0.2,14.8,8.5,15"/>
		<path class="st3" d="M499.1,295.1c-6.6,5-4.8,12.1-1.9,15.3c2.9,3.2,8.4,1.8,10.1-2.4"/>
		<path class="st3" d="M485.3,290.8c-7.4,9.5,0,20.8,10.5,17.4"/>
		<path class="st3" d="M524.9,319c-7.6,2.7-13.3,9.6-8.7,15.6c2.7,3.5,14.7,4,18-9.7"/>
		<path class="st3" d="M511.2,310.1c-4.3,6.3-2.9,12.2,5.2,15.3"/>
		<path class="st3" d="M510.7,321.9c-4.7,2.6-7.7,5.6-6.6,11.3"/>
		<path class="st3" d="M500.3,312c-1.8,7.6,0.3,12.2,5,14.5"/>
		<path class="st3" d="M500.1,321c-7.2-0.5-10.9,2.6-8.5,9.7"/>
		<path class="st3" d="M492.2,322.8c-7.1-2.6-8.2-8.7-5.2-15.1"/>
		<path class="st3" d="M486.1,317.2c-7.7,0.3-11.1,4.2-11.1,9.5"/>
		<path class="st3" d="M475.6,287.1c-5.6,2.4-7.4,10-5.3,14.2c2.1,4.2,8.7,4.5,12.7,1.8"/>
		<path class="st3" d="M459.9,281.1c-5.1,5.8,0.8,17.1,10,14.3"/>
		<path class="st3" d="M446.6,276.6c-4.8,6.8,0.5,18,12.9,14.8"/>
		<path class="st3" d="M460.2,322.8c-1.3-8,7.1-13.4,17.4-2.9"/>
		<path class="st3" d="M472.6,303.7c-3.1,2.7-4.5,7.1-4,10.6"/>
		<path class="st3" d="M433.5,272.8c-5.3,9,1.1,17.2,12.6,14"/>
		<path class="st3" d="M463.2,295.1c-7.6,7.6-5,15.1,0.6,19.5"/>
		<path class="st3" d="M458.4,304c-11.4,0.2-12.1,13.4-2.7,17.5"/>
		<path class="st3" d="M449.7,290.8c-4.7,3.2-6.1,12.1,1.9,15.6"/>
		<path class="st3" d="M449.4,310.6c-4.8-2.3-10.6,0.5-10.1,6.1"/>
		<path class="st3" d="M442.1,310.7c-4.3-10.3-17.1-8.5-15.9,2.1"/>
		<path class="st3" d="M445.7,298c-2.7,0.5-8.2,2.1-10.3,6.3"/>
		<path class="st3" d="M436.2,286.4c-5.1,5.8-1.1,12.7,3.1,14.2"/>
		<path class="st3" d="M420.9,270.2c-1,6.9,1.8,10.3,10.5,9.7"/>
		<path class="st3" d="M424,279c-3.4,8.4,1.1,12.1,9.8,11.6"/>
		<path class="st3" d="M425.9,289.3c-5.1,6.1-1.6,12.7,3.4,15.5"/>
		<path class="st3" d="M423.5,297.1c-9.2-1.1-10.6,9.5-7.6,14.5"/>
		<path class="st3" d="M416.1,269.4c-5.6,2.4-8.9,9.5-5.8,13.8c3.1,4.3,9.2,2.9,12.6,0.6"/>
		<path class="st3" d="M412.2,285.1c-4.7,7.1-0.5,12.4,4.5,14.5"/>
		<path class="st3" d="M394.2,268.6c-3.7,3.9-1.4,11.8,7.6,11.9c7.3,0.1,10.9-6.8,8.7-11.6"/>
		<path class="st3" d="M400.5,280.5c-2.9,6.4-1.1,13.4,9.8,12.2"/>
		<path class="st3" d="M414.9,302.9c-6.8-3.1-15.8,0-11.9,8"/>
		<path class="st3" d="M402.1,291.4c-2.7,3.9-1.8,9.3,1.3,12.7"/>
		<path class="st3" d="M401.6,301.7c-4.5,0.8-8.9,3.2-6.1,10.3"/>
		<path class="st3" d="M394.8,306.2c-5.8-1.8-13.2,2.4-8.7,8.4"/>
		<path class="st3" d="M385.2,309c-5-0.8-10.9,4.5-6.1,9.8"/>
		<path class="st3" d="M377.1,314.4c-4.5,1.1-9.8,6.3-5.2,10.3"/>
		<path class="st3" d="M399.8,289.2c-6.4,2.9-7.1,10.1-4,15.5"/>
		<path class="st3" d="M393,275.8c-9.7,3.7-9.5,16.6,1.1,20.6"/>
		<path class="st3" d="M389.7,293.5c-5.8,3.4-6.9,9.8-3.1,14"/>
		<path class="st3" d="M379.5,271c-3.9,1.3-3.5,13.2,6.8,12.9"/>
		<path class="st3" d="M368.9,275c-7.7,5.2,1.6,18.2,14.2,8.9"/>
		<path class="st3" d="M376.1,287.1c-1.1,5.3,0.3,11.1,8.9,11.8"/>
		<path class="st3" d="M376.6,294.2c-6.1,2.3-7.2,14.8,3.9,15.8"/>
		<path class="st3" d="M357.1,282.7c-7.9,7.2,6.4,13.5,11.8,3.1"/>
		<path class="st3" d="M346.2,294.8c-3.9,4.7,9.7,16.9,15.6-3.5"/>
		<path class="st3" d="M363.3,290.9c0.3,4.8,3.2,7.7,9.2,8"/>
		<path class="st3" d="M372.3,303.7c-9.5,1.4-12.6,13.4-1.9,15.9"/>
		<path class="st3" d="M354.7,302c-0.3,4.5,4.3,8.2,9.7,7.4"/>
		<path class="st3" d="M369.2,319.3c-8.7,1.9-9.8,13.2-2.1,12.6"/>
		<path class="st3" d="M363.1,342.3c-7.2-2.2-7.4-10.8-1-14"/>
		<path class="st3" d="M357.1,334.7c-6.1,3.7-3.7,12.6-0.5,13.8c3.2,1.3,5.8-0.3,6.1-3.1"/>
		<path class="st3" d="M362.3,357.9c0.6,4.2-14.9,2.6-6.9-10.5"/>
		<path class="st3" d="M355.3,358.6c-5.2,8.2,3.3,14.9,8.7,7.9"/>
		<path class="st3" d="M356,368.5c-2.1,6.6,5.9,11.4,11,6.2"/>
		<path class="st3" d="M338.6,306.7c-2.9,6,11.6,8.2,12.6-4"/>
		<path class="st3" d="M334.6,315.6c-2.9,11.6,19,9.2,13.4-5.8"/>
		<path class="st3" d="M348.5,317.5c3.1,1.8,12.2,1.9,14.5-7.9"/>
		<path class="st3" d="M356.3,317.8c0.6,3.1,3.4,6.8,6,7.9"/>
		<path class="st3" d="M345.9,320.9c-1,6.3,5.3,11.4,12.6,10.9"/>
		<path class="st3" d="M347,327c-3.5,4.8-4.7,14.2,6.4,14.8"/>
		<path class="st3" d="M330.1,328.6c-1.8,5,8.7,10.1,14.8,1.9"/>
		<path class="st3" d="M326.9,341.3c-0.9,3.8,8.5,8.9,13.8-7.2"/>
		<path class="st3" d="M336.5,342.3c2.3,4,9.8,7.2,14.5-0.6"/>
		<path class="st3" d="M343.5,346.5c-1.9,5.6,3.4,10.9,9.8,9.3"/>
		<path class="st3" d="M331.4,345.2c-1.3,8,8,12.7,13.8,8.5"/>
		<path class="st3" d="M325.3,348.7c-2.7,10.3,10.5,14.2,15.5,6.4"/>
		<path class="st3" d="M337.4,358.2c0.5,5.8,9.5,10.8,16.6,6"/>
		<path class="st3" d="M321.2,363.1c-0.6,2.6,10.1,5.2,11.8-3.9"/>
		<path class="st3" d="M327.5,365.3c2.6,6.6,11.3,8.2,16.3,0.2"/>
		<path class="st3" d="M340.9,368.7c1.1,6.1,9,9.5,15.9,5.3"/>
		<path class="st3" d="M359.7,376.4c-1.8,8.2,6.8,14.8,12.1,10.3"/>
		<path class="st3" d="M346,375c-2.6,9,8.7,14.2,15,9.2"/>
		<path class="st3" d="M332.5,370.5c-0.6,8.4,6,13.4,13.5,9.7"/>
		<path class="st3" d="M318.2,371.3c-2.3,5.5,9.7,10,15.3,5.3"/>
		<path class="st3" d="M310.8,386.2c3.1,3.5,13.7,0,14.6-7.9"/>
		<path class="st3" d="M322.5,384.1c3.9,4.5,13,6.9,16.7-2.7"/>
		<path class="st3" d="M336.1,386.4c-0.2,6.9,12.2,11.9,16.3-0.8"/>
		<path class="st3" d="M366.9,388.1c-1.1,3.4,1.5,8.8,7.1,9.4"/>
		<path class="st3" d="M356.7,386c-0.8,3.9,4.8,9.3,10.8,7.1"/>
		<path class="st3" d="M368.6,394.7c-1.6,4.2-0.2,10.2,5.4,10.1"/>
		<path class="st3" d="M369.1,402.5c-4.2,3.5-2.4,9.8,3.6,10.1"/>
		<path class="st3" d="M367,408.5c-6,4-3.9,12.9,4,12.4"/>
		<path class="st3" d="M348.9,391.4c0,8.7,10.8,10,12.9,1.9"/>
		<path class="st3" d="M357.6,398.5c-1.6,5.2,2.6,10.1,9.2,8.7"/>
		<path class="st3" d="M358.9,460.6c1.4,2.1,7.4-1.4,5.8-5s-7.9-1.6-7.2,2.1"/>
		<path class="st3" d="M363.3,454.2c0.8-7.1-7.6-8.2-9.7-2.1"/>
		<path class="st3" d="M356.7,448.5c2.1-3.5-5-8.4-7.9-3.2"/>
		<path class="st3" d="M351.4,443.2c1.9-5.2-6.1-7.4-6.8-2.7"/>
		<path class="st3" d="M342.8,433.7c1-2.6,10-1,6.1,4.3"/>
		<path class="st3" d="M355.9,444.5c3.5-3.2-2.4-9.8-6.1-7.4"/>
		<path class="st3" d="M379.7,454.3c-2.8,0.3-5.7,2.2-3.6,8.1c1.5,4.1,7.6,4.3,8.5,1.9"/>
		<path class="st3" d="M375.6,457.3c-2.7-1.8-8.7,1.2-6,7c2.1,4.4,7.2,2.6,8,0.3"/>
		<path class="st3" d="M360.2,465.6c1.4,2.4,8.2,1.4,9.4-1.3"/>
		<path class="st3" d="M364.9,457.6c1.4-1,4.1,0.2,4.7,1.4"/>
		<path class="st3" d="M364.4,418c-4.7,3.1-1.8,12.4,5.5,10"/>
		<path class="st3" d="M362.9,425.5c-3.7,2.9-0.3,11.9,6.6,8.5"/>
		<path class="st3" d="M364.1,434c-2.6,2.6-0.1,9.7,6.6,8.4"/>
		<path class="st3" d="M363.1,437.6c-1.4-0.6-5.2-0.2-6.8,2.2"/>
		<path class="st3" d="M358.9,405c-3.5,3.4-1.9,10.3,4.7,10.9"/>
		<path class="st3" d="M357.6,412.1c-5.1,2.5-5.1,12.6,5.1,13"/>
		<path class="st3" d="M357.2,423.4c-2.8,2.3-1.4,10.9,5.8,9.8"/>
		<path class="st3" d="M359.6,432.9c-1,1-1.2,3.7-0.3,4.8"/>
		<path class="st3" d="M356.3,429.6c-2.6,0.1-6,1.9-6.8,4.6"/>
		<path class="st3" d="M344.8,424.9c1-2.6,8.9-2.4,9.5,5.2"/>
		<path class="st3" d="M355.1,421c-1.1,0.2-3.3,1.3-3.9,3.5"/>
		<path class="st3" d="M351.7,397.4c-3.5,3.1-5.2,13,5.4,15"/>
		<path class="st3" d="M344.7,417.9c0-2.7,7.2-4.9,9.7-1"/>
		<path class="st3" d="M340.1,403.5c1,2,6,4.7,9.1,2.5"/>
		<path class="st3" d="M314.2,387.7c-0.2,4.7,3.7,8.9,9,8.2c5.3-0.6,6.4-5.3,4.8-8.4"/>
		<path class="st3" d="M324,396.1c-3.5,4.3,0.8,10.5,4.8,8.7"/>
		<path class="st3" d="M328,393c2.1-0.8,9-1.8,11.1,1.4"/>
		<path class="st3" d="M305.6,394.3c-1.6,2.4,8.4,4.8,11.8,0.2"/>
		<path class="st3" d="M314,396.9c-0.3,3.2,1.3,8.7,9.5,6.4"/>
		<path class="st3" d="M324.8,408.3c1.3-2.7-4.8-7.2-9.5-2.3c-4.7,5,0.6,10.6,3.5,8.7"/>
		<path class="st3" d="M303.4,397.5c-2.4,4.2,6.9,11.8,12.2,4.7"/>
		<path class="st3" d="M297.2,404.8c-3.4,3.5,0.8,9.8,5.9,7.9c5.1-1.9,4.6-7.2,3.4-8.6"/>
		<path class="st3" d="M290.7,411.2c-2.7,2.5-0.1,8.4,3.7,8.4c3.8,0,6.1-3,5.4-6.8"/>
		<path class="st3" d="M306,410.7c-0.5,3.7,5,6.3,8.5,2.8"/>
		<path class="st3" d="M314.7,406.8c0.5-0.8,0.1-2.2-0.7-2.8"/>
		<path class="st3" d="M284.8,416.2c-3.1,2.5,3.6,9.4,7.9,3.1"/>
		<path class="st3" d="M309,414.8c-2,1.9,1.2,7,4.4,5.5"/>
		<path class="st3" d="M298,418.4c0.5,3.5,7.2,6,11.5,0.7"/>
		<path class="st3" d="M301.7,421.8c-1,2.2,1,5.6,3.6,5.2"/>
		<path class="st3" d="M365.8,441.7c-2.5,4.9,5.5,10.6,11.3,4.7"/>
		<path class="st3" d="M371.5,449c-1.2,2.7,0.2,6.4,2.4,7.7"/>
		<path class="st3" d="M364,454.6c0.6-2.4,4-4.7,7.2-3.5"/>
		<path class="st3" d="M359.8,448.2c0.5-2.2,3.4-4.3,5.6-3.8"/>
		<path class="st3" d="M549.3,347.8c-11.4,0.2-6.6,18.5,3.2,14.8"/>
		<path class="st3" d="M545.7,361.3c-2.3,3.7,2.1,9.6,6.9,6.1"/>
		<path class="st3" d="M551.3,368.1c-3.4,5.6,8.7,14.2,13.5,5.4"/>
		<path class="st3" d="M561,376.9c0.2,5.3,15.6,8.7,13.4-1.9"/>
		<path class="st3" d="M572.9,380.8c3.7,6.3,17.5,6.9,16.1-2.4"/>
		<path class="st3" d="M585.9,384.8c2.9,4.2,16.4,6.8,15.9-1.9"/>
		<path class="st3" d="M531,331.8c1.9,5,8.5,6.8,15.8,3.9"/>
		<path class="st3" d="M526.8,335.4c4.5,2.9-2.1,16.1-9,10.8"/>
		<path class="st3" d="M526.8,343.6c5,2.4,11.1,0.6,12.9-6.4"/>
		<path class="st3" d="M536.6,342.6c0.5,3.7,5.8,6.6,12.7,5.2"/>
		<path class="st3" d="M524.2,346.5c6.4,5.5-2.9,16.7-7.1,11.6"/>
		<path class="st3" d="M526.7,350.7c3.1,2.3,10.9,1,11.8-5"/>
		<path class="st3" d="M534.9,350.7c0.6,3.9,3.7,5.3,8,5.5"/>
		<path class="st3" d="M524.9,356c3.2,4.5,11.3,5.8,14.8-0.2"/>
		<path class="st3" d="M536.2,359.2c-0.3,4.3,4.5,7.9,9.5,6.9"/>
		<path class="st3" d="M518.6,368.9c4.2,2.1,8.7-5.8,5.2-11.3"/>
		<path class="st3" d="M523.4,377.2c5,0.3,5.6-7.2,1-11.4"/>
		<path class="st3" d="M534.9,384.1c4.2-1,2.9-10.1-7.2-10.9"/>
		<path class="st3" d="M547.6,390.9c4-1.1,0.8-11.3-10.3-10.6"/>
		<path class="st3" d="M562.9,394.5c2.7-4.2-6.3-11.3-13.7-7.6"/>
		<path class="st3" d="M570.4,400.2c5,1.4,8.4-11.8-7.4-9.7"/>
		<path class="st3" d="M579.6,400.2c4.3-1.1,7.4-9-5.3-6.4"/>
		<path class="st3" d="M589.3,400.9c3.9,1.9,5.6-9.3-6.1-6.3"/>
		<path class="st3" d="M524.4,365.8c4.8,2.7,12.4-0.5,11.8-6.6"/>
		<path class="st3" d="M534.2,364.5c1.6,2.9,1,8.5-2.1,10"/>
		<path class="st3" d="M534.7,371.3c3.2,1.3,7.6,0.2,10.1-5"/>
		<path class="st3" d="M540.3,371.3c1,2.3,1.3,6.8-0.8,9"/>
		<path class="st3" d="M541.2,375.1c3.5,1.9,7.7-0.6,9.5-4.3"/>
		<path class="st3" d="M548.4,374c2.6,1.6,4.8,9.2,0.5,12.2"/>
		<path class="st3" d="M551.3,382.7c3.1,0.2,7.6,0.2,10.5-3.7"/>
		<path class="st3" d="M559.7,381.1c2.7,0.8,6,5.3,4.8,9.3"/>
		<path class="st3" d="M564.7,389c3.1-0.3,8.4-2.4,9.8-6.1"/>
		<path class="st3" d="M573,385.3c2.6,1.4,4.3,4.5,4,8"/>
		<path class="st3" d="M577,390.7c3.1-0.2,5.8-1.8,6.6-5.2"/>
		<path class="st3" d="M582.8,387.9c2.3,0.8,5,3.4,5.2,6.4"/>
		<path class="st3" d="M587.7,392.4c2.3-0.3,3.9-1.8,5.3-4"/>
		<path class="st3" d="M599.1,388c2.9,2.9-1,12.6-6.9,10.8"/>
		<path class="st3" d="M537.3,192.9c-6,3.5-22.9,2.4-14.5-11.6"/>
		<path class="st3" d="M538.9,183.4c-11.8,4.7-26.2-4.3-11.1-14.2"/>
		<path class="st3" d="M523.8,166c-9.8,0-16.4,15.8-3.2,21.2"/>
		<path class="st3" d="M485.6,172.6c-2.6,5,6.6,10.5,12.9,5.5c4.9-3.9,4.5-14.3,1.6-18.4"/>
		<path class="st3" d="M480.6,184.5c-3.2,10.6,20.4,11.3,16.7-5.6"/>
		<path class="st3" d="M479.3,200.3c0.8,8,22.7,5.5,15.6-10.8"/>
		<path class="st3" d="M497.5,185c1.8,2.4,6.6,6.6,14.8,5.8"/>
		<path class="st3" d="M501.4,173.6c0.7,2.9,5.6,5.2,11.9,3"/>
		<path class="st3" d="M281.7,418.5c-5.6,3.9,3,10.1,6.1,3.3"/>
		<path class="st3" d="M277.4,421.6c-5.6,3.9,3,10.1,6.1,3.3"/>
		<path class="st3" d="M272.8,424.5c-5.6,3.9,3,10.1,6.1,3.3"/>
		<path class="st3" d="M268,427.3c-5.3,2.8,0.9,9.7,6.3,3.6"/>
		<path class="st3" d="M262.7,430c-5.3,2.8,0.9,9.7,6.3,3.6"/>
		<path class="st3" d="M289.7,421.6c-0.1,4.1,7.7,5.8,10.5-0.3"/>
		<path class="st3" d="M294.6,425.4c-2.4,3.1,2,6.8,4.4,5.5"/>
		<path class="st3" d="M284.2,424.9c-0.2,3.5,6.5,5.5,9.8,1.7"/>
		<path class="st3" d="M287.9,428.5c-2.2,2.8,2.1,6.6,4.8,5.5"/>
		<path class="st3" d="M279.7,428c0.2,2.7,4.1,5.9,8.3,4.1"/>
		<path class="st3" d="M282.2,431.7c-1.6,1.5-0.8,4.8,1.4,5.9"/>
		<path class="st3" d="M273.8,431.5c-0.6,2.5,3.6,6.9,8,4"/>
		<path class="st3" d="M274.7,434.4c-2.6,2-2.3,5.1,1,5.5"/>
		<path class="st3" d="M268.5,434c-0.3,1.7,1.9,4.4,4.6,4.1"/>
		<path class="st3" d="M254.8,433.9c-2.6,1.4,4,8.4,8.1,1.9"/>
		<path class="st3" d="M248.4,436.8c-3.2,1.5,4.7,9.3,8.3,1.4"/>
		<path class="st3" d="M269.2,436.5c-2.5,0.6-4.1,4.2-2,5.6"/>
		<path class="st3" d="M261.1,437.8c-0.3,1.5,2.7,3.9,5.2,3"/>
		<path class="st3" d="M259,438.4c-2.4,1.5-1.1,5.8,1.7,5.1"/>
		<path class="st3" d="M250.4,441.2c-2.3,1.7-0.7,5.1,2.4,4.3"/>
		<path class="st3" d="M254.5,441c0.1,0.9,2.1,2.3,3.8,1.7"/>
		<path class="st3" d="M242.6,439.5c-2.8,1.2-2.7,8.3,6.8,4.4"/>
		<path class="st3" d="M236.2,442.3c-3.9,1.9-2.7,7.2,6,2.2"/>
		<path class="st3" d="M242.9,444.9c-1,0.8-2.2,4.3,1.8,3"/>
		<path class="st3" d="M235.7,446.6c-1.6,1.5-0.6,4.4,3,3.3"/>
		<path class="st3" d="M227.4,447.1c-2.9,1.7,3.5,3.9,7.7-0.6"/>
		<path class="st3" d="M229.3,449.2c-1.3,1.3-1.3,5.1,2.1,3.7"/>
		<path class="st3" d="M221.1,450.7c-1.9,1.5,1.4,3.4,7.4,0.7"/>
		<path class="st3" d="M223.5,452.8c-2.3,1.9-2,4.2,1.3,3.5"/>
		<path class="st3" d="M216.9,453.9c-2.5,2.3,1.1,3.8,5.5,1.9"/>
		<path class="st3" d="M216.9,456.4c-4.3,1.9-2.4,5.5,0.2,4.1"/>
		<path class="st3" d="M359.4,468.7c-1,2.1,2.3,3.9,5.3,3.4c2.9-0.5,5.7-2.9,3.5-6.3"/>
		<path class="st3" d="M368.4,470c2.9,2.3,8-0.3,8-3.7"/>
	</g>
	<g>
		<path class="st2" d="M546,128.8c-12.9-6.4-39.6-18.4-47.2-8.7c6.9-2.9,27.2,0.2,43.9,15.6L546,128.8L546,128.8z"/>
		<path class="st2" d="M553.8,128.1c-14.9-17.3-23.7-13.5-34.4-19.4c-10.1-5.6-26.1-6.8-29.2,2.2c14.7-7.2,28.2,3.8,36.5,5.2
			c11.4,1.8,17.8,10.6,21.1,14.7L553.8,128.1L553.8,128.1z"/>
		<path class="st2" d="M609.9,125.9c-7.7-17.7-24.3-13.1-31.6-20.6c-10.6-10.9-37.5-21.1-48.6-13.5c24.5-1.3,34.9,16.9,48,23.2
			C587,119.5,597,129.1,609.9,125.9L609.9,125.9z"/>
		<path class="st2" d="M580.9,124c-13.2-16.4-33.5-30.9-42.8-25.4c12.2,0.6,16.1,9.2,24.8,14.6C571.6,118.7,567.7,126.6,580.9,124z"
			/>
		<path class="st2" d="M518.1,153c-13.8-5.2-40.9-7.7-53.4,8C485.6,164.6,517.2,162.6,518.1,153z"/>
		<path class="st2" d="M515.5,159.1c-13.8-6.4-24.7,2.6-37.7,1.3c-24.8-2.4-42.5-1-44.8,10.9c14.2-12.7,38-2.3,47.6-4.8
			c9.7-2.6,45.4-0.3,56.7,4.5C531.6,163.9,522.6,162,515.5,159.1L515.5,159.1z"/>
		<path class="st2" d="M559,122.2c-3.2-10.6-3.1-21.9,12.9-21.1c-4-5-18.8-7.6-21.2,11.1c-17.5-12.9-36.7-15.1-40.2-4
			c9-7.7,23-2.1,39.8,16.9C551.6,124.3,555.5,122.7,559,122.2L559,122.2z"/>
		<path class="st2" d="M534.9,136.9c-10-6.4-23.5-16.9,0.2-21.1c-10.1-5.5-25-3.1-23.3,15.6c-27-10.9-46.5-7.3-50.5,3.5
			c-4.5,11.9,12.2,18.5,15.1,10.9c-3.1,1.3-13.5-2.3-8-9c5.5-6.8,33.5-1.7,60.2,12.2C535.8,153,561.3,152.3,534.9,136.9L534.9,136.9
			z"/>
		<path class="st2" d="M527.8,154.6c-7.7-15.7-32.7-1.4-37.7-16.7C483.2,160.2,525.6,147.9,527.8,154.6z"/>
		<path class="st2" d="M686.7,171.6c5.2,2.6,9.8-1.5,1.8-4.7c5.2,2.6,9.8-1.4,1.8-4.6c5.2,2.6,9.8-1.4,1.8-4.6
			C689.9,159.9,686.8,167.8,686.7,171.6L686.7,171.6z"/>
		<path class="st2" d="M689.4,141.4c11.6-12.2-1-16.4,13.2-29c11.6-10.3,2.2-17.1,13.2-25.1c3.5-2.6,11.3-7.7,11.9-12.9
			c4.7,11.6-14.5,13.2-13.2,31.9c0.8,11.9-7.2,10.9-10.3,30.9C703.6,141.4,700.7,150.7,689.4,141.4L689.4,141.4z"/>
		<path class="st2" d="M694.6,146.9c6.4-13.8,13.8-13.6,17.4-19c6.8-10.3,21.1,1.8,33.2-7.4c-2.1,13-18.3,8.4-25.4,16.7
			C712.6,145.6,706.8,149.4,694.6,146.9L694.6,146.9z"/>
		<path class="st2" d="M696.2,151.4c11.3-9,19.6-3,27.4-7.7c19.6-11.9,27.5,2.4,45.1-3.2c-4.7,11.3-30.6,1.6-41.9,10
			C715.5,158.8,675.9,166.8,696.2,151.4L696.2,151.4z"/>
		<path class="st2" d="M663.3,215.6c-0.2-5.2-5-11.8-11.8-12.6c-6.8-0.8-9.7-7.9-14.8-8.2c-5.2-0.3-8.5-10.6-15.6-10.5
			c-7.1,0.2-10,9.3,6.6,17.7C644.3,210.4,662.7,220.1,663.3,215.6L663.3,215.6z"/>
		<path class="st2" d="M642.4,219.9c-7.1,0.3-8,10.6-14.8,10.9c9.3,5,16.1-2.3,20.9-8.7L642.4,219.9L642.4,219.9z"/>
		<path class="st2" d="M648.2,221.2c-6.1,5.2-7.9,15.9,1,19c-5.3-7.3,9.3-10.6,4.8-17.4L648.2,221.2L648.2,221.2z"/>
		<path class="st2" d="M654.3,221.6c-4.8,9.3,7.6,10.5,4.3,17.5c7.1-1.6,8.2-15,1.8-18.5L654.3,221.6L654.3,221.6z"/>
		<path class="st2" d="M607,201.6c11.6-0.6,22.2,5.6,29.3,15.8c4.5,6.4,19.6,9,24.8,3.9c5.2-5.2,2.3-16.1-10.6-12.6
			c-3.2-5.5-12.6-3.5-17.1-8C628.9,196.1,611.5,183.2,607,201.6L607,201.6z"/>
		<path class="st6" d="M650.5,208.7c-3.1,0.6-4,6-2.1,8.7"/>
		<path class="st6" d="M657,211.9c1,1.6,0.3,3.9-0.2,5"/>
		<path class="st6" d="M625.3,202.1c6,0.3,7.1,4.7,13.5,6.3"/>
		<path class="st2" d="M621.4,187.4c20.6,5.2,36.9,9.7,47,15.5c10.1,5.8,25.8,7.4,39.5,3.5c13.7-3.9,40.2-7.4,38.8,9.7
			c7.2-8.5-2-17.7-20.2-19.3c0.3-8.4-8.6-15.9-15.1-10.9c6-0.8,11.1,10.3-0.7,14.8c2.3-8.4-6-15.9-14.7-12.2
			c5.5,1.6,11.2,10.9-1.3,14.5c-7.8,2.3-19.3-0.6-27.8-5.8C658.6,191.9,611,173.3,621.4,187.4L621.4,187.4z"/>
		<path class="st2" d="M673.3,179.1c-6.4,2.9-2.3,9.7-12.2,13.5c-10,3.9-16.9,12.7-14.7,20.3c6.8-14.8,18.7-14.2,22.9-20
			C673.5,187.1,679.6,178.6,673.3,179.1L673.3,179.1z"/>
		<path class="st2" d="M675.1,180c-0.3,11.8-9.6,7.5-6,24c1.1,5.2,3.2,13.5-0.3,21.9c10.4-7.6,3.7-23.5,8.4-29.5
			c2.3-2.9,5.2-7.4,6.3-11.3c-2.4,6.8-2.3,19.3,4.3,22.5c-5.3-12.6,14.3-22.9,0.8-37.3C686.7,173.9,680.6,180.2,675.1,180L675.1,180
			z"/>
		<path class="st2" d="M642.2,168.3c1.6,2.4,3.2,8.5,1.8,11.9c3.2-1.9,7.9-6.9,9.3-10.3c6.6,1,9.2,9.2,2.9,12.7
			c3.9,0,10.5,0,14.2-4.3C665.9,173.3,651.9,165.5,642.2,168.3L642.2,168.3z"/>
		<path class="st2" d="M542.1,145.2c-1-0.9-2.8-1.9-6-2.5c-9.7-2-4.7-10.8,3.6-10.7c17.7-19.3,27.6-4.4,49.2-10.5
			c7.5-2.1,12.7-1.5,16.8,0.3c9.7-6.4,21-4.6,29.2,2.9c0.9-1.5,2.1-2.6,3.9-3c7.6-2.1,13.7,4.3,15.8,12.7c5.9-1.1,12.6,1.8,17.1,5.9
			c6.1-3.1,10.4-3.3,11.9-0.1c5.5-2.6,12.6-4.2,16.1,4.5c3.5,8.7-8.4,6.1-10.3,24.5c-1.2,11.3-13.8,15.8-23.8,9
			c-16-10.8-31.5-12.6-39.3,3.9c-7.7,16.4-13.8,26-32.5,20.6c-6.8-1.9-15.5,0.6-20.9,8c-5.5,7.4-13.8,0.5-23.8,1.3
			c12.6-1.9,7.7-5.1,18.7-5.8c10-0.6,7.4-10,13.8-11.3c-25.1,6.4-24.1-2.9-44.8,3.5c9-11.6,23.2-5.2,30.3-11.9
			c-18.7-0.3-27-12.5-35.4-7.4c-13.2,8-7.4,31-41.9,29c-16.7-1-27.4,1.3-37.3,11.3c17.4-36.1,41-16.2,52.5-27.7
			c6.8-6.8,11.9-11.9,15.5-18.4c1.2-2.3,2.9-3.6,5-4.1C496.8,160.2,514.1,146.1,542.1,145.2L542.1,145.2z"/>
		<path class="st6" d="M683.6,140.1c0.4,0.9,0.7,2.1,0.7,3.5c0,7.1-10.6,7.4-11.3,17.9c-0.3,5.5-1,8.5-4.7,7.9
			c-3.7-0.6-6.9-6.4-3.4-13.2"/>
		<path class="st2" d="M547.4,134.6c-2.7-1.9-5.3-2.6-7.7-2.7"/>
		<path class="st2" d="M605.7,121.7c8.5,3.7,12.7,12.5,25.1,13c11.9,0.4,19.3,17.7,39.3,6.4c0.5-0.3,1.1-0.6,1.6-0.9"/>
		<path class="st2" d="M635,124.6c-1.8,2.8-2.2,6.8-1.7,10.2"/>
		<path class="st2" d="M596,161c-15.1,0-19,7.7-19,15.1c0,7.4,7.1,17.1,19.6,17.1c12.6,0,19.3-7.7,19.3-16.1S608.3,161,596,161
			L596,161z"/>
		<path class="st2" d="M598.8,192.9c-0.3-4.2-7.9-3.5-7.6-6.8c0.3-3.2,4.2-4.5,4.2-9c0-4.5,6.8-4.8,9-1.3c2.3,3.5,9,10.5,10.5,6.9"
			/>
		<path class="st2" d="M604.4,175.8c-3.5,3.5-5.2,10.8-0.5,16.4"/>
		<path class="st2" d="M609.2,181.3c-1.1,2.4-1.4,6.1-0.2,8.4"/>
		<path class="st3" d="M669.4,169.5c11.8,1,13.8-12.1,5-12.9"/>
		<path class="st3" d="M654.8,134.3c-4.1-5.2-13.5-7-13.7,4.1"/>
		<path class="st2" d="M640,151.1c-4-10-14.3-11.4-19.8-6.4c-4.6,4.2-4.7,15,5.2,17.2C628.7,157.8,635.3,152.5,640,151.1L640,151.1z
			"/>
		<path class="st2" d="M635.6,144.8c-5.8-5.2-14.3,4.6-6.6,13.5"/>
		<path class="st2" d="M525.3,169.2c3.9-0.9,9.5,1,18.2,5.1c5.5,2.6,21.9,8,32.2,2.6c-10.6,3.9-18.7-12.2-26.7-10.3
			c-8,1.9-22.8,4.9-29-1c15.1,1,23.3-11,40.6-0.6c4.8,2.9,11,4.8,16.4,4.5c-14.2-17.1-32.8-6.1-34.8-20c8.5,9.2,29.4-2.1,40,15.1"/>
		<path class="st2" d="M545.3,152c-2-2.5-1.1-5-3.2-6.9"/>
	</g>
	<path d="M654.8,134.3c-3.5-3.8-11.3-0.8-9.1,6.8C647.4,137.6,651,134.6,654.8,134.3z"/>
	<path d="M632.9,154.9c2.4-1.8,5-3.2,7.1-3.9c-1.2-2.9-2.8-5-4.8-6.5C633.4,143.2,628.1,150.4,632.9,154.9L632.9,154.9z"/>
	<g>
		<path class="st4" d="M623.4,141.9c-5.8-3.9-11.1-3.5-12.9-0.3c-4.2-0.2-7.6,2.9-7.8,9"/>
		<path class="st4" d="M611.7,153.1c-6.9-4.7-16.4-3-15.8,7.6"/>
		<path class="st4" d="M591.7,166.8c3.4-2.7,8.2-4.7,11.9,0.2"/>
		<path class="st4" d="M643.4,156.4c-1.3,1.8-2.3,4.5-0.2,8.7c-2.6-3.4-9-3.4-15.9,5.6"/>
		<path class="st4" d="M658.7,155.9c-8.4,1-8.2,6.4-1.5,8.9"/>
		<path class="st4" d="M599.1,135.4c-7.1-1.4-12.2,2.7-2.4,6.3"/>
		<path class="st4" d="M612.6,130.6c-10-2.4-14,0.2-9.5,2.4"/>
		<path class="st4" d="M583.8,170.7c-0.3,3.5,1.6,8.2,7.4,2.9"/>
		<path class="st4" d="M585.7,181.3c0,1-0.2,2.1-0.8,2.9"/>
		<path class="st4" d="M562.5,134.1c-6.1-1.8-7.2-7.4-0.2-6.9"/>
		<path class="st4" d="M560.5,147.2c-6.8-2.3-6.8-8.9-1.1-8.2"/>
		<path class="st4" d="M573,143.8c-7.9-1.9-8.2-7.4-2.2-6.6"/>
		<path class="st4" d="M574,127.1c-4.2-0.3-10.6,4.3,0.2,7.1"/>
		<path class="st4" d="M585.7,136.4c-9.8-1.4-9.7,2.6-3.9,5.2"/>
		<path class="st4" d="M593.1,127.1c-7.6-1.4-10.1,3.1-5,5"/>
		<path class="st4" d="M569.3,154.9c-1.9-1.5-3.4-8.9,5.5-6.7"/>
		<path class="st4" d="M587.7,152.7c-6-1.6-11.6,4.2-6.1,7.6"/>
		<path class="st4" d="M595.5,145.7c-6.3-1.1-11.6,0.6-8.2,2.9"/>
	</g>
	<path class="st2" d="M654.5,134.3c-3.5,0.7-6.7,2.7-8.8,6.8"/>
</g>
</svg>
