<?xml version="1.0" encoding="utf-8"?>
<!-- Generator: Adobe Illustrator 21.0.0, SVG Export Plug-In . SVG Version: 6.00 Build 0)  -->
<svg version="1.1" id="Layer_1" xmlns="http://www.w3.org/2000/svg" xmlns:xlink="http://www.w3.org/1999/xlink" x="0px" y="0px"
	 viewBox="0 0 600 400" style="enable-background:new 0 0 600 400;" xml:space="preserve">
<style type="text/css">
	.st0{fill:#FF0000;}
	.st1{fill:#006600;}
	.st2{fill:#FFFF00;stroke:#000000;stroke-width:0.573;stroke-linecap:round;stroke-linejoin:round;}
	.st3{fill:#FFFF00;stroke:#000000;stroke-width:0.55;stroke-linecap:round;stroke-linejoin:round;}
	.st4{fill:#FFFFFF;stroke:#000000;stroke-width:0.6704;}
	.st5{fill:#FF0000;stroke:#000000;stroke-width:0.5073;}
	.st6{fill:#FFFF00;}
	.st7{fill:#FFFF00;stroke:#000000;stroke-width:0.5;}
	.st8{fill:#003399;}
	.st9{fill:#FFFFFF;}
</style>
<rect class="st0" width="600" height="400"/>
<rect class="st1" width="240" height="400"/>
<g>
	<path class="st2" d="M318.2,262c-30.2-0.9-168.7-87.4-169.7-101.1l7.6-12.8c13.7,20,155.4,104.1,169.3,101.1L318.2,262"/>
	<path class="st2" d="M154.6,146.4c-2.7,7.3,36.1,31.3,82.9,59.8c46.8,28.4,87.1,46,90.1,43.5c0.2-0.3,1.5-2.5,1.4-2.5
		c-0.6,0.8-1.9,1.1-4.1,0.5c-12.6-3.6-45.6-18.8-86.4-43.5c-40.8-24.7-76.3-47.5-81.8-57.2c-0.4-0.7-0.7-1.9-0.6-2.8l-0.1,0
		l-1.2,2.1L154.6,146.4L154.6,146.4L154.6,146.4z M319,262.4c-0.5,0.9-1.5,1-3.3,0.8c-11.3-1.3-45.6-17.9-86.2-42.2
		c-47.2-28.3-86.2-54-82-60.7l1.2-2l0.2,0.1c-3.8,11.4,76.9,57.6,81.7,60.5c46.7,28.9,86.1,45.9,89.6,41.5L319,262.4L319,262.4
		L319,262.4z"/>
	<path class="st2" d="M240.2,169.2c30.2-0.2,67.6-4.1,89-12.7l-4.6-7.5c-12.7,7-50.2,11.6-84.7,12.3c-40.7-0.4-69.5-4.2-83.9-13.8
		l-4.4,8C178.1,166.7,205.3,169.1,240.2,169.2"/>
	<path class="st2" d="M330.4,156.7c-0.7,1.2-14.7,6-35.4,9.6c-14,2.1-32.2,4-55,4c-21.6,0-39.3-1.5-52.7-3.3
		c-21.7-3.4-32.8-8.1-37-9.8c0.4-0.8,0.6-1.3,1-2.1c11.9,4.7,23.1,7.6,36.3,9.6c13.3,1.8,30.8,3.4,52.3,3.3c22.7,0,40.7-2,54.6-4.1
		c21.2-3.4,32.7-7.8,34.3-9.8L330.4,156.7L330.4,156.7L330.4,156.7z M326.4,149.1c-2.3,1.8-13.7,5.9-33.8,9.1
		c-13.4,1.9-30.5,3.6-52.3,3.7c-20.7,0-37.6-1.4-50.5-3.2c-20.4-2.7-31.3-7.5-35.2-8.9c0.4-0.7,0.8-1.3,1.2-2
		c3,1.5,13.5,5.8,34.2,8.7c12.7,1.8,29.7,3.1,50.3,3.1c21.7,0,38.6-1.8,51.9-3.7c20.2-2.8,31.1-7.9,32.7-9.2L326.4,149.1
		L326.4,149.1L326.4,149.1z"/>
	<path class="st2" d="M140.9,205.7c18.6,10,59.9,15,99,15.4c35.6,0.1,82-5.5,99.3-14.7l-0.5-10c-5.4,8.5-55.1,16.6-99.2,16.3
		c-44.1-0.3-85-7.1-98.7-16L140.9,205.7"/>
	<path class="st2" d="M340.1,204.2l0,2.4c-2.6,3.1-18.9,7.8-39.4,11.1c-15.6,2.4-35.9,4.2-61.3,4.2c-24.1,0-43.3-1.7-58.1-4
		c-23.5-3.4-38.6-9.4-41.6-11.2l0-2.8c9.1,6,33.7,10.4,41.9,11.8c14.8,2.3,33.9,4,57.8,4c25.2,0,45.4-1.8,60.9-4.2
		C315.1,213.4,336,207.9,340.1,204.2L340.1,204.2L340.1,204.2z M340.1,195.7l0,2.4c-2.6,3.1-18.9,7.8-39.4,11.1
		c-15.6,2.4-35.9,4.2-61.3,4.2c-24.1,0-43.3-1.7-58.1-4c-23.5-3.4-38.6-9.4-41.6-11.2l0-2.8c9.1,6,33.7,10.4,41.9,11.8
		c14.8,2.3,33.9,4,57.8,4c25.2,0,45.4-1.8,60.9-4.2C315.1,204.9,336,199.4,340.1,195.7L340.1,195.7L340.1,195.7z"/>
	<path class="st2" d="M239.8,260.3c-42.8-0.3-79.4-11.7-87.2-13.5l5.6,8.8c13.7,5.8,49.4,14.3,81.9,13.4
		c32.5-0.9,60.9-3.5,80.9-13.2l5.8-9.2C313.3,253,266.8,260.3,239.8,260.3"/>
	<path class="st3" d="M323.3,253.7c-0.9,1.3-1.7,2.6-2.6,3.8c-9.4,3.3-24.3,6.8-30.6,7.8c-12.8,2.6-32.7,4.6-50.3,4.6
		c-37.9-0.6-68.9-8-83.5-14.3l-1.2-2l0.2-0.3l2,0.8c25.9,9.3,55.1,13,82.7,13.7c17.5,0.1,35.1-2,49.3-4.5
		c21.8-4.4,30.6-7.6,33.3-9.1L323.3,253.7L323.3,253.7L323.3,253.7z M328.3,245.4C328.3,245.5,328.4,245.5,328.3,245.4
		c-0.6,1.2-1.2,2.2-1.9,3.3c-5,1.8-18.7,5.8-38.7,8.6c-13.1,1.8-21.3,3.5-47.5,4c-49-1.2-80.8-10.8-88.3-13.2l-1.1-2.1
		c28.4,7.4,57.4,12.6,89.4,13.1c23.9-0.5,34.1-2.3,47.2-4c23.3-3.6,35-7.4,38.5-8.6c0-0.1-0.1-0.1-0.2-0.2L328.3,245.4L328.3,245.4
		L328.3,245.4z"/>
	<path class="st2" d="M328.8,197.8c0.1,28.1-14.3,53.4-25.9,64.5c-16.4,15.8-38.2,25.9-63.6,26.4c-28.4,0.5-55.1-18-62.3-26.1
		c-14-15.9-25.4-36.1-25.8-63.2c1.7-30.7,13.8-52.1,31.3-66.8s40.7-21.8,60.1-21.3c22.4,0.6,48.5,11.6,66.5,33.3
		C321,158.8,326.1,174.3,328.8,197.8L328.8,197.8z M239.6,101.4c54.5,0,99.3,44.3,99.3,98.7c0,54.4-44.8,98.7-99.3,98.7
		s-98.9-44.3-98.9-98.7S185.2,101.4,239.6,101.4"/>
	<path class="st2" d="M239.9,101.1c54.5,0,99,44.5,99,99c0,54.5-44.5,99-99,99c-54.5,0-99-44.5-99-99S185.4,101.1,239.9,101.1
		L239.9,101.1z M143.1,200.1c0,53.3,43.7,96.8,96.8,96.8c53.1,0,96.8-43.6,96.8-96.8c0-53.3-43.7-96.8-96.8-96.8
		S143.1,146.8,143.1,200.1L143.1,200.1z"/>
	<path class="st2" d="M240,109.3c49.7,0,90.7,40.8,90.7,90.7c0,49.9-41,90.7-90.7,90.7s-90.7-40.8-90.7-90.7
		C149.3,150.1,190.3,109.3,240,109.3L240,109.3z M151.5,200c0,48.7,40,88.5,88.5,88.5s88.5-39.8,88.5-88.5c0-48.7-40-88.5-88.5-88.5
		C191.5,111.5,151.5,151.3,151.5,200L151.5,200z"/>
	<path class="st2" d="M244,100.7h-8.5l0,199h8.5L244,100.7z"/>
	<path class="st2" d="M243.1,99.5h2.2l0,201.2h-2.2L243.1,99.5L243.1,99.5z M234.7,99.5h2.2l0,201.2h-2.2L234.7,99.5L234.7,99.5z"/>
	<path class="st2" d="M339,203.9v-7.4l-6-5.6l-34-9l-49-5l-59,3l-42,10l-8.5,6.3v7.4L162,194l51-8h49l36,4l25,6L339,203.9z"/>
	<path class="st2" d="M239.9,184.8c23.4,0,46.1,2.2,64.1,5.7c18.6,3.7,31.6,8.4,36.1,13.6l0,2.6c-5.4-6.5-23-11.2-36.5-14
		c-17.9-3.5-40.4-5.7-63.6-5.7c-24.5,0-47.4,2.4-65,5.8c-14.1,2.8-33,8.4-35.3,13.9V204c1.3-3.8,15.3-9.5,35-13.4
		C192.4,187.1,215.3,184.8,239.9,184.8L239.9,184.8z M240,176.3c23.4,0,46.1,2.2,64.1,5.7c18.6,3.7,31.6,8.4,36.1,13.6l0,2.6
		c-5.4-6.5-23-11.2-36.5-14c-17.9-3.5-40.4-5.7-63.6-5.7c-24.5,0-47.3,2.4-64.9,5.8c-13.6,2.6-33.2,8.4-35.4,13.9v-2.7
		c1.3-3.8,15.6-9.6,35-13.4C192.4,178.6,215.3,176.3,240,176.3L240,176.3z"/>
	<path class="st2" d="M239.5,133c36.8-0.2,69,5.2,83.7,12.7l5.4,9.3c-12.8-6.9-47.5-14.1-89-13c-33.9,0.2-70,3.7-88.2,13.4l6.4-10.7
		C172.7,136.9,207.8,133,239.5,133"/>
	<path class="st2" d="M240,140.6c21-0.1,41.3,1.1,57.5,4c15,2.8,29.4,7,31.4,9.3l1.6,2.8c-5-3.3-17.4-6.9-33.3-9.9
		c-16-3-36.3-4-57.2-4c-23.7-0.1-42.2,1.2-58,3.9c-16.7,3.1-28.3,7.6-31.2,9.7l1.6-3c5.6-2.8,14.4-6.3,29.2-8.9
		C197.9,141.6,216.5,140.7,240,140.6L240,140.6L240,140.6z M240,132.1c20.1-0.1,40,1.1,55.5,3.9c12.2,2.4,24.3,6.1,28.7,9.4l2.3,3.7
		c-4-4.4-18.8-8.6-32-10.9c-15.4-2.6-34.4-3.7-54.5-3.9c-21.1,0.1-40.6,1.4-55.8,4.1c-14.4,2.7-23.8,6-27.7,8.5l2-3.1
		c5.4-2.9,14.2-5.5,25.3-7.6C199.1,133.5,218.7,132.2,240,132.1L240,132.1z"/>
	<path class="st2" d="M289.1,241.3c-18.2-3.4-36.5-3.9-49.2-3.7c-61.4,0.7-81.2,12.6-83.7,16.2l-4.6-7.5
		c15.6-11.3,49.1-17.7,88.6-17c20.5,0.3,38.2,1.7,53.1,4.6L289.1,241.3"/>
	<path class="st3" d="M239.6,236.5c17.1,0.3,33.8,1,50,4l-1.2,2.1c-15-2.8-31.1-3.8-48.8-3.8c-22.7-0.2-45.6,1.9-65.5,7.7
		c-6.3,1.8-16.7,5.8-17.8,9.1l-1.2-1.9c0.3-2,6.6-6.1,18.4-9.4C196.4,237.7,217.8,236.6,239.6,236.5L239.6,236.5L239.6,236.5z
		 M240.4,227.9c17.7,0.3,36,1.1,53.7,4.7l-1.2,2.2c-16-3.2-31.4-4.2-52.4-4.6c-22.7,0-46.9,1.7-68.8,8c-7.1,2.1-19.3,6.5-19.7,10.1
		l-1.2-2.1c0.3-3.2,10.8-7.4,20.4-10.2C193.3,229.6,217.4,227.9,240.4,227.9L240.4,227.9z"/>
	<path class="st2" d="M327.6,247.4l-7.4,11.4L299,240l-55-37l-62-34l-32.2-11l6.9-12.7l2.3-1.3l20,5l66,34l38,24l32,23l13,15
		L327.6,247.4z"/>
	<path class="st2" d="M148.6,158.3c5.6-3.8,47.1,14.7,90.6,40.8c43.3,26.3,84.7,55.9,80.9,61.5l-1.2,1.9l-0.6,0.4
		c0.1-0.1,0.7-0.8-0.1-2.9c-1.8-6.1-31.2-29.5-79.9-58.9c-47.5-28.3-87-45.4-91-40.5L148.6,158.3L148.6,158.3L148.6,158.3z
		 M329.1,247.2c3.6-7.1-34.9-36-82.6-64.3c-48.8-27.7-84-44-90.4-39.1l-1.4,2.6c0,0.1,0.1-0.2,0.4-0.4c1.2-1,3.1-1,4-1
		c11.1,0.2,42.7,14.7,87,40.1c19.4,11.3,82.1,51.5,81.8,62.8c0,1,0.1,1.2-0.3,1.7L329.1,247.2L329.1,247.2L329.1,247.2z"/>
</g>
<g>
	<path class="st4" d="M180.6,211c0,16.3,6.7,31,17.5,41.7c10.8,10.8,25.5,17.6,41.8,17.6c16.4,0,31.2-6.7,42-17.4
		c10.8-10.7,17.4-25.6,17.4-41.9h0v-79.2l-118.7-0.1L180.6,211L180.6,211L180.6,211z"/>
	<path class="st5" d="M182.8,211.1L182.8,211.1c0,15.6,6.4,29.8,16.8,40.1c10.4,10.3,24.6,16.7,40.2,16.7c15.7,0,29.9-6.4,40.2-16.6
		c10.3-10.3,16.7-24.4,16.7-40h0v-76.8l-113.8,0L182.8,211.1 M273.8,157.4l0,48.9l0,5.2h0c0,1.4-0.1,2.9-0.2,4.2
		c-0.9,7.7-4.5,14.5-9.7,19.7c-6.2,6.1-14.7,9.9-24,9.9c-9.3,0-17.6-3.9-23.8-10.1c-6.3-6.3-10-15-10-23.9l0-54L273.8,157.4
		L273.8,157.4L273.8,157.4z"/>
	<g>
		<g id="castle">
			<path class="st6" d="M190.2,154.4c0.1-5.5,4.1-6.8,4.1-6.8c0,0,4.2,1.4,4.2,6.9L190.2,154.4"/>
			<path class="st7" d="M186.8,147.7l-0.7,6.3l4.1,0c0-5.2,4-6.1,4.1-6.1c0.1,0,4,1.2,4.1,6.1h4.2l-0.7-6.4L186.8,147.7L186.8,147.7
				L186.8,147.7z"/>
			<path class="st7" d="M185.9,154.1h16.9c0.4,0,0.6,0.4,0.6,0.8c0,0.4-0.3,0.8-0.6,0.8h-16.9c-0.4,0-0.6-0.4-0.6-0.8
				C185.2,154.4,185.5,154.1,185.9,154.1z"/>
			<path class="st7" d="M192,154c0-3.3,2.3-4.3,2.3-4.2c0,0,2.3,1,2.4,4.2H192"/>
			<path class="st7" d="M186.2,145.1h16.2c0.3,0,0.6,0.3,0.6,0.7c0,0.4-0.3,0.7-0.6,0.7h-16.2c-0.3,0-0.6-0.3-0.6-0.7
				C185.6,145.4,185.9,145.1,186.2,145.1z"/>
			<path class="st7" d="M186.6,146.5h15.5c0.3,0,0.6,0.3,0.6,0.7c0,0.4-0.3,0.7-0.6,0.7h-15.5c-0.3,0-0.6-0.3-0.6-0.7
				C186,146.8,186.2,146.5,186.6,146.5z"/>
			<path class="st7" d="M191.6,135.9l1.2,0v0.9h0.9v-0.9l1.3,0v0.9h0.9v-0.9h1.3l0,2c0,0.3-0.3,0.5-0.5,0.5h-4.4
				c-0.3,0-0.6-0.2-0.6-0.5L191.6,135.9L191.6,135.9L191.6,135.9z"/>
			<path class="st7" d="M196.2,138.6l0.3,6.5l-4.3,0l0.3-6.5L196.2,138.6"/>
			<path id="cp1" class="st7" d="M190.9,141.6l0.1,3.5l-4.1,0l0.1-3.5L190.9,141.6L190.9,141.6L190.9,141.6z"/>
			<g>
				<path id="cp1_1_" class="st7" d="M201.5,141.6l0.1,3.5l-4.1,0l0.1-3.5L201.5,141.6L201.5,141.6L201.5,141.6z"/>
			</g>
			<path id="cp2" class="st7" d="M186.3,139l1.2,0v0.9h0.9V139l1.2,0v0.9h0.9V139l1.2,0l0,2c0,0.3-0.2,0.5-0.5,0.5h-4.3
				c-0.3,0-0.6-0.2-0.6-0.5L186.3,139L186.3,139L186.3,139z"/>
			<g>
				<path id="cp2_1_" class="st7" d="M196.9,139l1.2,0v0.9h0.9V139l1.2,0v0.9h0.9V139l1.2,0l0,2c0,0.3-0.2,0.5-0.5,0.5h-4.3
					c-0.3,0-0.6-0.2-0.6-0.5L196.9,139L196.9,139L196.9,139z"/>
			</g>
			<path d="M193.9,140.6c0-0.6,0.9-0.6,0.9,0v1.5h-0.9L193.9,140.6"/>
			<path id="cp3" d="M188.6,142.8c0-0.6,0.8-0.6,0.8,0v1.2h-0.8L188.6,142.8"/>
			<g>
				<path id="cp3_1_" d="M199.2,142.8c0-0.6,0.8-0.6,0.8,0v1.2h-0.8L199.2,142.8"/>
			</g>
		</g>
		<g>
			<g id="castle_1_">
				<path class="st6" d="M190.2,200.7c0.1-5.5,4.1-6.8,4.1-6.8c0,0,4.2,1.4,4.2,6.9L190.2,200.7"/>
				<path class="st7" d="M186.8,194l-0.7,6.3l4.1,0c0-5.2,4-6.1,4.1-6.1c0.1,0,4,1.2,4.1,6.1h4.2l-0.7-6.4L186.8,194L186.8,194
					L186.8,194z"/>
				<path class="st7" d="M185.9,200.4h16.9c0.4,0,0.6,0.4,0.6,0.8c0,0.4-0.3,0.8-0.6,0.8h-16.9c-0.4,0-0.6-0.4-0.6-0.8
					C185.2,200.7,185.5,200.4,185.9,200.4z"/>
				<path class="st7" d="M192,200.3c0-3.3,2.3-4.3,2.3-4.2c0,0,2.3,1,2.4,4.2H192"/>
				<path class="st7" d="M186.2,191.4h16.2c0.3,0,0.6,0.3,0.6,0.7c0,0.4-0.3,0.7-0.6,0.7h-16.2c-0.3,0-0.6-0.3-0.6-0.7
					C185.6,191.7,185.9,191.4,186.2,191.4z"/>
				<path class="st7" d="M186.6,192.8h15.5c0.3,0,0.6,0.3,0.6,0.7c0,0.4-0.3,0.7-0.6,0.7h-15.5c-0.3,0-0.6-0.3-0.6-0.7
					C186,193.1,186.2,192.8,186.6,192.8z"/>
				<path class="st7" d="M191.6,182.2l1.2,0v0.9h0.9v-0.9l1.3,0v0.9h0.9v-0.9h1.3l0,2c0,0.3-0.3,0.5-0.5,0.5h-4.4
					c-0.3,0-0.6-0.2-0.6-0.5L191.6,182.2L191.6,182.2L191.6,182.2z"/>
				<path class="st7" d="M196.2,184.9l0.3,6.5l-4.3,0l0.3-6.5L196.2,184.9"/>
				<path id="cp1_2_" class="st7" d="M190.9,187.9l0.1,3.5l-4.1,0l0.1-3.5L190.9,187.9L190.9,187.9L190.9,187.9z"/>
				<g>
					<path id="cp1_3_" class="st7" d="M201.5,187.9l0.1,3.5l-4.1,0l0.1-3.5L201.5,187.9L201.5,187.9L201.5,187.9z"/>
				</g>
				<path id="cp2_2_" class="st7" d="M186.3,185.4l1.2,0v0.9h0.9v-0.9l1.2,0v0.9h0.9v-0.9l1.2,0l0,2c0,0.3-0.2,0.5-0.5,0.5h-4.3
					c-0.3,0-0.6-0.2-0.6-0.5L186.3,185.4L186.3,185.4L186.3,185.4z"/>
				<g>
					<path id="cp2_3_" class="st7" d="M196.9,185.4l1.2,0v0.9h0.9v-0.9l1.2,0v0.9h0.9v-0.9l1.2,0l0,2c0,0.3-0.2,0.5-0.5,0.5h-4.3
						c-0.3,0-0.6-0.2-0.6-0.5L196.9,185.4L196.9,185.4L196.9,185.4z"/>
				</g>
				<path d="M193.9,186.9c0-0.6,0.9-0.6,0.9,0v1.5h-0.9L193.9,186.9"/>
				<path id="cp3_2_" d="M188.6,189.2c0-0.6,0.8-0.6,0.8,0v1.2h-0.8L188.6,189.2"/>
				<g>
					<path id="cp3_3_" d="M199.2,189.2c0-0.6,0.8-0.6,0.8,0v1.2h-0.8L199.2,189.2"/>
				</g>
			</g>
			<g id="castle3">
				<g id="castle_2_">
					<path class="st6" d="M208.3,249c-3.8-4-2-7.7-2-7.7c0,0,4-2,7.9,1.9L208.3,249"/>
					<path class="st7" d="M201.1,246.6l4,5l2.9-2.9c-3.7-3.7-1.5-7.1-1.5-7.2c0.1-0.1,3.6-2,7.2,1.4l2.9-2.9l-5.1-4L201.1,246.6
						L201.1,246.6L201.1,246.6z"/>
					<path class="st7" d="M204.9,251.8l11.9-12c0.3-0.3,0.7-0.2,1,0.1c0.3,0.3,0.3,0.8,0.1,1l-11.9,12c-0.3,0.3-0.7,0.2-1-0.1
						C204.7,252.5,204.7,252,204.9,251.8z"/>
					<path class="st7" d="M209.2,247.4c-2.3-2.3-1.4-4.6-1.4-4.6c0,0,2.3-1,4.7,1.3L209.2,247.4"/>
					<path class="st7" d="M198.8,245.2l11.4-11.5c0.2-0.2,0.7-0.2,0.9,0.1c0.3,0.3,0.3,0.7,0.1,0.9l-11.4,11.5
						c-0.2,0.2-0.7,0.2-0.9-0.1C198.6,245.8,198.5,245.4,198.8,245.2z"/>
					<path class="st7" d="M200,245.9l10.9-11c0.2-0.2,0.6-0.2,0.9,0.1c0.3,0.3,0.3,0.7,0.1,0.9l-10.9,11c-0.2,0.2-0.6,0.2-0.9-0.1
						C199.8,246.6,199.8,246.2,200,245.9z"/>
					<path class="st7" d="M196.1,234.9l0.9-0.9l0.6,0.6l0.6-0.6l-0.6-0.6l0.9-0.9l0.6,0.6l0.6-0.6l-0.6-0.6l0.9-0.9l1.4,1.4
						c0.2,0.2,0.2,0.5,0,0.8l-3.1,3.1c-0.2,0.2-0.6,0.2-0.8,0L196.1,234.9L196.1,234.9L196.1,234.9z"/>
					<path class="st7" d="M201.2,233.5l4.8,4.3l-3,3l-4.4-4.7L201.2,233.5"/>
					<path id="cp1_4_" class="st7" d="M199.6,239.4l2.6,2.4l-2.9,2.9l-2.4-2.5L199.6,239.4L199.6,239.4L199.6,239.4z"/>
					<g>
						<path id="cp1_5_" class="st7" d="M207.1,231.8l2.6,2.4l-2.9,2.9l-2.4-2.5L207.1,231.8L207.1,231.8L207.1,231.8z"/>
					</g>
					<path id="cp2_4_" class="st7" d="M194.6,240.9l0.8-0.8l0.6,0.6l0.6-0.6l-0.6-0.6l0.9-0.9l0.6,0.6l0.6-0.6l-0.6-0.6l0.9-0.9
						l1.4,1.4c0.2,0.2,0.2,0.5,0,0.7l-3,3.1c-0.2,0.2-0.6,0.2-0.8,0L194.6,240.9L194.6,240.9L194.6,240.9z"/>
					<g>
						<path id="cp2_5_" class="st7" d="M202.1,233.4l0.8-0.8l0.6,0.6l0.6-0.6l-0.6-0.6l0.9-0.9l0.6,0.6l0.6-0.6l-0.6-0.6l0.9-0.9
							l1.4,1.4c0.2,0.2,0.2,0.5,0,0.7l-3,3.1c-0.2,0.2-0.6,0.2-0.8,0L202.1,233.4L202.1,233.4L202.1,233.4z"/>
					</g>
					<path d="M201.1,236.6c-0.5-0.4,0.2-1.1,0.6-0.6l1.1,1.1l-0.6,0.6L201.1,236.6"/>
					<path id="cp3_4_" d="M198.9,241.9c-0.4-0.4,0.2-1,0.6-0.6l0.8,0.8l-0.6,0.6L198.9,241.9"/>
					<g transform="matrix(0.70460892,-0.70959585,0.70959585,0.70460892,-35.341459,275.10898)">
						<path id="cp3_5_" d="M206.4,234.4c-0.4-0.4,0.2-1,0.6-0.6l0.8,0.8l-0.6,0.6L206.4,234.4"/>
					</g>
				</g>
			</g>
			<g>
				<g id="castle_3_">
					<path class="st6" d="M235.9,154.4c0.1-5.5,4.1-6.8,4.1-6.8c0,0,4.2,1.4,4.2,6.9L235.9,154.4"/>
					<path class="st7" d="M232.5,147.7l-0.7,6.3l4.1,0c0-5.2,4-6.1,4.1-6.1c0.1,0,4,1.2,4.1,6.1h4.2l-0.7-6.4L232.5,147.7
						L232.5,147.7L232.5,147.7z"/>
					<path class="st7" d="M231.6,154.1h16.9c0.4,0,0.6,0.4,0.6,0.8c0,0.4-0.3,0.8-0.6,0.8h-16.9c-0.4,0-0.6-0.4-0.6-0.8
						C230.9,154.4,231.2,154.1,231.6,154.1z"/>
					<path class="st7" d="M237.7,154c0-3.3,2.3-4.3,2.3-4.2c0,0,2.3,1,2.4,4.2H237.7"/>
					<path class="st7" d="M231.9,145.1h16.2c0.3,0,0.6,0.3,0.6,0.7c0,0.4-0.3,0.7-0.6,0.7h-16.2c-0.3,0-0.6-0.3-0.6-0.7
						C231.3,145.4,231.6,145.1,231.9,145.1z"/>
					<path class="st7" d="M232.3,146.5h15.5c0.3,0,0.6,0.3,0.6,0.7c0,0.4-0.3,0.7-0.6,0.7h-15.5c-0.3,0-0.6-0.3-0.6-0.7
						C231.7,146.8,231.9,146.5,232.3,146.5z"/>
					<path class="st7" d="M237.3,135.9l1.2,0v0.9h0.9v-0.9l1.3,0v0.9h0.9v-0.9h1.3l0,2c0,0.3-0.3,0.5-0.5,0.5h-4.4
						c-0.3,0-0.6-0.2-0.6-0.5L237.3,135.9L237.3,135.9L237.3,135.9z"/>
					<path class="st7" d="M241.9,138.6l0.3,6.5l-4.3,0l0.3-6.5L241.9,138.6"/>
					<path id="cp1_6_" class="st7" d="M236.7,141.6l0.1,3.5l-4.1,0l0.1-3.5L236.7,141.6L236.7,141.6L236.7,141.6z"/>
					<g>
						<path id="cp1_7_" class="st7" d="M247.3,141.6l0.1,3.5l-4.1,0l0.1-3.5L247.3,141.6L247.3,141.6L247.3,141.6z"/>
					</g>
					<path id="cp2_6_" class="st7" d="M232,139l1.2,0v0.9h0.9V139l1.2,0v0.9h0.9V139l1.2,0l0,2c0,0.3-0.2,0.5-0.5,0.5h-4.3
						c-0.3,0-0.6-0.2-0.6-0.5L232,139L232,139L232,139z"/>
					<g>
						<path id="cp2_7_" class="st7" d="M242.6,139l1.2,0v0.9h0.9V139l1.2,0v0.9h0.9V139l1.2,0l0,2c0,0.3-0.2,0.5-0.5,0.5h-4.3
							c-0.3,0-0.6-0.2-0.6-0.5L242.6,139L242.6,139L242.6,139z"/>
					</g>
					<path d="M239.6,140.6c0-0.6,0.9-0.6,0.9,0v1.5h-0.9L239.6,140.6"/>
					<path id="cp3_6_" d="M234.3,142.8c0-0.6,0.8-0.6,0.8,0v1.2h-0.8L234.3,142.8"/>
					<g>
						<path id="cp3_7_" d="M244.9,142.8c0-0.6,0.8-0.6,0.8,0v1.2h-0.8L244.9,142.8"/>
					</g>
				</g>
				<g>
					<g>
						<g id="castle_4_">
							<path class="st6" d="M289.6,154.4c-0.1-5.5-4.1-6.8-4.1-6.8c0,0-4.2,1.4-4.2,6.9L289.6,154.4"/>
							<path class="st7" d="M293,147.7l0.7,6.3l-4.1,0c0-5.2-4-6.1-4.1-6.1c-0.1,0-4,1.2-4.1,6.1h-4.2l0.7-6.4L293,147.7L293,147.7
								L293,147.7z"/>
							<path class="st7" d="M293.9,154.1H277c-0.4,0-0.6,0.4-0.6,0.8c0,0.4,0.3,0.8,0.6,0.8h16.9c0.4,0,0.6-0.4,0.6-0.8
								C294.6,154.4,294.3,154.1,293.9,154.1z"/>
							<path class="st7" d="M287.8,154c0-3.3-2.3-4.3-2.3-4.2c0,0-2.3,1-2.4,4.2H287.8"/>
							<path class="st7" d="M293.6,145.1h-16.2c-0.3,0-0.6,0.3-0.6,0.7c0,0.4,0.3,0.7,0.6,0.7h16.2c0.3,0,0.6-0.3,0.6-0.7
								C294.2,145.4,293.9,145.1,293.6,145.1z"/>
							<path class="st7" d="M293.2,146.5h-15.5c-0.3,0-0.6,0.3-0.6,0.7c0,0.4,0.3,0.7,0.6,0.7h15.5c0.3,0,0.6-0.3,0.6-0.7
								C293.8,146.8,293.6,146.5,293.2,146.5z"/>
							<path class="st7" d="M288.2,135.9l-1.2,0v0.9h-0.9v-0.9l-1.3,0v0.9h-0.9v-0.9h-1.3l0,2c0,0.3,0.3,0.5,0.5,0.5h4.4
								c0.3,0,0.6-0.2,0.6-0.5L288.2,135.9L288.2,135.9L288.2,135.9z"/>
							<path class="st7" d="M283.6,138.6l-0.3,6.5l4.3,0l-0.3-6.5L283.6,138.6"/>
							<path id="cp1_8_" class="st7" d="M288.9,141.6l-0.1,3.5l4.1,0l-0.1-3.5L288.9,141.6L288.9,141.6L288.9,141.6z"/>
							<g>
								<path id="cp1_9_" class="st7" d="M278.2,141.6l-0.1,3.5l4.1,0l-0.1-3.5L278.2,141.6L278.2,141.6L278.2,141.6z"/>
							</g>
							<path id="cp2_8_" class="st7" d="M293.5,139l-1.2,0v0.9h-0.9V139l-1.2,0v0.9h-0.9V139l-1.2,0l0,2c0,0.3,0.2,0.5,0.5,0.5h4.3
								c0.3,0,0.6-0.2,0.6-0.5L293.5,139L293.5,139L293.5,139z"/>
							<g>
								<path id="cp2_9_" class="st7" d="M282.9,139l-1.2,0v0.9h-0.9V139l-1.2,0v0.9h-0.9V139l-1.2,0l0,2c0,0.3,0.2,0.5,0.5,0.5h4.3
									c0.3,0,0.6-0.2,0.6-0.5L282.9,139L282.9,139L282.9,139z"/>
							</g>
							<path d="M285.9,140.6c0-0.6-0.9-0.6-0.9,0v1.5h0.9L285.9,140.6"/>
							<path id="cp3_8_" d="M291.2,142.8c0-0.6-0.8-0.6-0.8,0v1.2h0.8L291.2,142.8"/>
							<g>
								<path id="cp3_9_" d="M280.6,142.8c0-0.6-0.8-0.6-0.8,0v1.2h0.8L280.6,142.8"/>
							</g>
						</g>
						<g>
							<g id="castle_5_">
								<path class="st6" d="M289.6,200.7c-0.1-5.5-4.1-6.8-4.1-6.8c0,0-4.2,1.4-4.2,6.9L289.6,200.7"/>
								<path class="st7" d="M293,194l0.7,6.3l-4.1,0c0-5.2-4-6.1-4.1-6.1c-0.1,0-4,1.2-4.1,6.1h-4.2l0.7-6.4L293,194L293,194
									L293,194z"/>
								<path class="st7" d="M293.9,200.4H277c-0.4,0-0.6,0.4-0.6,0.8c0,0.4,0.3,0.8,0.6,0.8h16.9c0.4,0,0.6-0.4,0.6-0.8
									C294.6,200.7,294.3,200.4,293.9,200.4z"/>
								<path class="st7" d="M287.8,200.3c0-3.3-2.3-4.3-2.3-4.2c0,0-2.3,1-2.4,4.2H287.8"/>
								<path class="st7" d="M293.6,191.4h-16.2c-0.3,0-0.6,0.3-0.6,0.7c0,0.4,0.3,0.7,0.6,0.7h16.2c0.3,0,0.6-0.3,0.6-0.7
									C294.2,191.7,293.9,191.4,293.6,191.4z"/>
								<path class="st7" d="M293.2,192.8h-15.5c-0.3,0-0.6,0.3-0.6,0.7c0,0.4,0.3,0.7,0.6,0.7h15.5c0.3,0,0.6-0.3,0.6-0.7
									C293.8,193.1,293.6,192.8,293.2,192.8z"/>
								<path class="st7" d="M288.2,182.2l-1.2,0v0.9h-0.9v-0.9l-1.3,0v0.9h-0.9v-0.9h-1.3l0,2c0,0.3,0.3,0.5,0.5,0.5h4.4
									c0.3,0,0.6-0.2,0.6-0.5L288.2,182.2L288.2,182.2L288.2,182.2z"/>
								<path class="st7" d="M283.6,184.9l-0.3,6.5l4.3,0l-0.3-6.5L283.6,184.9"/>
								<path id="cp1_10_" class="st7" d="M288.9,187.9l-0.1,3.5l4.1,0l-0.1-3.5L288.9,187.9L288.9,187.9L288.9,187.9z"/>
								<g>
									<path id="cp1_11_" class="st7" d="M278.2,187.9l-0.1,3.5l4.1,0l-0.1-3.5L278.2,187.9L278.2,187.9L278.2,187.9z"/>
								</g>
								<path id="cp2_10_" class="st7" d="M293.5,185.4l-1.2,0v0.9h-0.9v-0.9l-1.2,0v0.9h-0.9v-0.9l-1.2,0l0,2
									c0,0.3,0.2,0.5,0.5,0.5h4.3c0.3,0,0.6-0.2,0.6-0.5L293.5,185.4L293.5,185.4L293.5,185.4z"/>
								<g>
									<path id="cp2_11_" class="st7" d="M282.9,185.4l-1.2,0v0.9h-0.9v-0.9l-1.2,0v0.9h-0.9v-0.9l-1.2,0l0,2
										c0,0.3,0.2,0.5,0.5,0.5h4.3c0.3,0,0.6-0.2,0.6-0.5L282.9,185.4L282.9,185.4L282.9,185.4z"/>
								</g>
								<path d="M285.9,186.9c0-0.6-0.9-0.6-0.9,0v1.5h0.9L285.9,186.9"/>
								<path id="cp3_10_" d="M291.2,189.2c0-0.6-0.8-0.6-0.8,0v1.2h0.8L291.2,189.2"/>
								<g>
									<path id="cp3_11_" d="M280.6,189.2c0-0.6-0.8-0.6-0.8,0v1.2h0.8L280.6,189.2"/>
								</g>
							</g>
							<g id="castle3_1_">
								<g id="castle_6_">
									<path class="st6" d="M271.5,249c3.8-4,2-7.7,2-7.7c0,0-4-2-7.9,1.9L271.5,249"/>
									<path class="st7" d="M278.7,246.6l-4,5l-2.9-2.9c3.7-3.7,1.5-7.1,1.5-7.2c-0.1-0.1-3.6-2-7.2,1.4l-2.9-2.9l5.1-4
										L278.7,246.6L278.7,246.6L278.7,246.6z"/>
									<path class="st7" d="M274.9,251.8l-11.9-12c-0.3-0.3-0.7-0.2-1,0.1c-0.3,0.3-0.3,0.8-0.1,1l11.9,12c0.3,0.3,0.7,0.2,1-0.1
										C275.1,252.5,275.1,252,274.9,251.8z"/>
									<path class="st7" d="M270.5,247.4c2.3-2.3,1.4-4.6,1.4-4.6c0,0-2.3-1-4.7,1.3L270.5,247.4"/>
									<path class="st7" d="M281,245.2l-11.4-11.5c-0.2-0.2-0.7-0.2-0.9,0.1c-0.3,0.3-0.3,0.7-0.1,0.9l11.4,11.5
										c0.2,0.2,0.7,0.2,0.9-0.1C281.2,245.8,281.2,245.4,281,245.2z"/>
									<path class="st7" d="M279.8,245.9l-10.9-11c-0.2-0.2-0.6-0.2-0.9,0.1c-0.3,0.3-0.3,0.7-0.1,0.9l10.9,11
										c0.2,0.2,0.6,0.2,0.9-0.1C279.9,246.6,280,246.2,279.8,245.9z"/>
									<path class="st7" d="M283.7,234.9l-0.9-0.9l-0.6,0.6l-0.6-0.6l0.6-0.6l-0.9-0.9l-0.6,0.6l-0.6-0.6l0.6-0.6l-0.9-0.9
										l-1.4,1.4c-0.2,0.2-0.2,0.5,0,0.8l3.1,3.1c0.2,0.2,0.6,0.2,0.8,0L283.7,234.9L283.7,234.9L283.7,234.9z"/>
									<path class="st7" d="M278.6,233.5l-4.8,4.3l3,3l4.4-4.7L278.6,233.5"/>
									<path id="cp1_12_" class="st7" d="M280.1,239.4l-2.6,2.4l2.9,2.9l2.4-2.5L280.1,239.4L280.1,239.4L280.1,239.4z"/>
									<g>
										<path id="cp1_13_" class="st7" d="M272.7,231.8l-2.6,2.4l2.9,2.9l2.4-2.5L272.7,231.8L272.7,231.8L272.7,231.8z"/>
									</g>
									<path id="cp2_12_" class="st7" d="M285.2,240.9l-0.8-0.8l-0.6,0.6l-0.6-0.6l0.6-0.6l-0.9-0.9l-0.6,0.6l-0.6-0.6l0.6-0.6
										l-0.9-0.9l-1.4,1.4c-0.2,0.2-0.2,0.5,0,0.7l3,3.1c0.2,0.2,0.6,0.2,0.8,0L285.2,240.9L285.2,240.9L285.2,240.9z"/>
									<g>
										<path id="cp2_13_" class="st7" d="M277.7,233.4l-0.8-0.8l-0.6,0.6l-0.6-0.6l0.6-0.6l-0.9-0.9l-0.6,0.6l-0.6-0.6l0.6-0.6
											l-0.9-0.9l-1.4,1.4c-0.2,0.2-0.2,0.5,0,0.7l3,3.1c0.2,0.2,0.6,0.2,0.8,0L277.7,233.4L277.7,233.4L277.7,233.4z"/>
									</g>
									<path d="M278.7,236.6c0.5-0.4-0.2-1.1-0.6-0.6l-1.1,1.1l0.6,0.6L278.7,236.6"/>
									<path id="cp3_12_" d="M280.9,241.9c0.4-0.4-0.2-1-0.6-0.6l-0.8,0.8l0.6,0.6L280.9,241.9"/>
									<g transform="matrix(-1,0,0,1,479.79195,0)">
										<path id="cp3_13_" d="M273.4,234.4c0.4-0.4-0.2-1-0.6-0.6l-0.8,0.8l0.6,0.6L273.4,234.4"/>
									</g>
								</g>
							</g>
							<g id="quina">
								<path class="st8" d="M232.6,202.4L232.6,202.4c0,2.2,0.8,4.2,2.2,5.7c1.4,1.5,3.2,2.4,5.3,2.4c2.1,0,3.9-0.9,5.3-2.4
									c1.4-1.5,2.2-3.5,2.2-5.7v-10.8l-15,0L232.6,202.4"/>
								<circle class="st9" cx="236.1" cy="195.7" r="1.5"/>
								<circle class="st9" cx="244.4" cy="195.7" r="1.5"/>
								<circle class="st9" cx="240.2" cy="199.7" r="1.5"/>
								<circle class="st9" cx="236.1" cy="203.9" r="1.5"/>
								<circle class="st9" cx="244.4" cy="203.9" r="1.5"/>
							</g>
							<g>
								<g id="quina_1_">
									<path class="st8" d="M232.6,176.4L232.6,176.4c0,2.2,0.8,4.2,2.2,5.7c1.4,1.5,3.2,2.4,5.3,2.4c2.1,0,3.9-0.9,5.3-2.4
										c1.4-1.5,2.2-3.5,2.2-5.7v-10.8l-15,0L232.6,176.4"/>
									<circle class="st9" cx="236.1" cy="169.7" r="1.5"/>
									<circle class="st9" cx="244.4" cy="169.7" r="1.5"/>
									<circle class="st9" cx="240.2" cy="173.7" r="1.5"/>
									<circle class="st9" cx="236.1" cy="177.9" r="1.5"/>
									<circle class="st9" cx="244.4" cy="177.9" r="1.5"/>
								</g>
							</g>
							<g>
								<g id="quina_2_">
									<path class="st8" d="M211.8,202.4L211.8,202.4c0,2.2,0.8,4.2,2.2,5.7c1.4,1.5,3.2,2.4,5.3,2.4c2.1,0,3.9-0.9,5.3-2.4
										c1.4-1.5,2.2-3.5,2.2-5.7v-10.8l-15,0L211.8,202.4"/>
									<circle class="st9" cx="215.3" cy="195.7" r="1.5"/>
									<circle class="st9" cx="223.6" cy="195.7" r="1.5"/>
									<circle class="st9" cx="219.4" cy="199.7" r="1.5"/>
									<circle class="st9" cx="215.3" cy="203.9" r="1.5"/>
									<circle class="st9" cx="223.6" cy="203.9" r="1.5"/>
								</g>
							</g>
							<g>
								<g id="quina_3_">
									<path class="st8" d="M253.4,202.4L253.4,202.4c0,2.2,0.8,4.2,2.2,5.7c1.4,1.5,3.2,2.4,5.3,2.4c2.1,0,3.9-0.9,5.3-2.4
										c1.4-1.5,2.2-3.5,2.2-5.7v-10.8l-15,0L253.4,202.4"/>
									<circle class="st9" cx="256.8" cy="195.7" r="1.5"/>
									<circle class="st9" cx="265.1" cy="195.7" r="1.5"/>
									<circle class="st9" cx="261" cy="199.7" r="1.5"/>
									<circle class="st9" cx="256.8" cy="203.9" r="1.5"/>
									<circle class="st9" cx="265.1" cy="203.9" r="1.5"/>
								</g>
							</g>
							<g>
								<g id="quina_4_">
									<path class="st8" d="M232.6,228.2L232.6,228.2c0,2.2,0.8,4.2,2.2,5.7c1.4,1.5,3.2,2.4,5.3,2.4c2.1,0,3.9-0.9,5.3-2.4
										c1.4-1.5,2.2-3.5,2.2-5.7v-10.8l-15,0L232.6,228.2"/>
									<circle class="st9" cx="236.1" cy="221.5" r="1.5"/>
									<circle class="st9" cx="244.4" cy="221.5" r="1.5"/>
									<circle class="st9" cx="240.2" cy="225.5" r="1.5"/>
									<circle class="st9" cx="236.1" cy="229.7" r="1.5"/>
									<circle class="st9" cx="244.4" cy="229.7" r="1.5"/>
								</g>
							</g>
						</g>
					</g>
				</g>
			</g>
		</g>
	</g>
</g>
</svg>
