<?xml version="1.0" encoding="utf-8"?>
<!-- Generator: Adobe Illustrator 21.0.0, SVG Export Plug-In . SVG Version: 6.00 Build 0)  -->
<svg version="1.1" id="Layer_1" xmlns="http://www.w3.org/2000/svg" xmlns:xlink="http://www.w3.org/1999/xlink" x="0px" y="0px"
	 viewBox="0 0 900 600" style="enable-background:new 0 0 900 600;" xml:space="preserve">
<style type="text/css">
	.st0{fill:#4189DD;}
	.st1{fill:#FFFFFF;}
</style>
<rect x="0" class="st0" width="900" height="600"/>
<g>
	<g id="t">
		<polygon id="w" class="st1" points="31.5,9.9 28.1,20.5 33.4,22.2 		"/>
		<g transform="scale(-1 1)">
			<polygon id="w_1_" class="st1" points="31.5,9.9 34.9,20.5 29.6,22.2 			"/>
		</g>
	</g>
	<g>
		<g id="t_1_">
			<polygon id="w_2_" class="st1" points="42.1,17.6 31,17.6 31,23.1 			"/>
			<g transform="rotate(72)">
				<polygon id="w_3_" class="st1" points="42.1,17.6 33.1,24.1 29.8,19.6 				"/>
			</g>
		</g>
		<g>
			<g id="t_2_">
				<polygon id="w_4_" class="st1" points="20.9,17.6 29.9,24.1 33.2,19.6 				"/>
				<g transform="rotate(-72)">
					<polygon id="w_5_" class="st1" points="20.9,17.6 32,17.6 32,23.1 					"/>
				</g>
			</g>
			<g>
				<g id="t_3_">
					<polygon id="w_6_" class="st1" points="38,30 34.6,19.4 29.3,21.1 					"/>
					<g transform="rotate(144)">
						<polygon id="w_7_" class="st1" points="38,30 29,23.5 32.3,19 						"/>
					</g>
				</g>
				<g transform="translate(40.5 27) scale(13)">
					<g id="t_4_">
						<polygon id="w_8_" class="st1" points="25,30 34,23.5 30.7,19 						"/>
						<g transform="rotate(-144)">
							<polygon id="w_9_" class="st1" points="25,30 28.4,19.4 33.7,21.1 							"/>
						</g>
					</g>
				</g>
			</g>
		</g>
	</g>
</g>
</svg>
