<?xml version="1.0" encoding="utf-8"?>
<!-- Generator: Adobe Illustrator 21.0.0, SVG Export Plug-In . SVG Version: 6.00 Build 0)  -->
<svg version="1.1" id="Layer_1" xmlns="http://www.w3.org/2000/svg" xmlns:xlink="http://www.w3.org/1999/xlink" x="0px" y="0px"
	 viewBox="0 0 1440 720" style="enable-background:new 0 0 1440 720;" xml:space="preserve">
<style type="text/css">
	.st0{fill:#F7E017;}
	.st1{fill:#FFFFFF;}
	.st2{fill:#CF1126;}
</style>
<rect class="st0" width="1440" height="720"/>
<path class="st1" d="M0,50v320l1440,150V350L0,50z"/>
<path d="M0,220v150l1440,300V520L0,220z"/>
<g>
	<path class="st2" d="M695.7,569.7c-19.4-2.6-37.1-8.7-49.4-17.2c-2.4-1.6-4.6-3-5-3c-0.4,0-0.7,1.8-0.7,4.1c0,6.4-2.6,9.6-9,11.2
		c-6.2,1.6-15.6-1.6-23.2-8c-7.9-6.5-17-11.5-24.7-13.5c-6.3-1.7-14.8-1.4-20.9,0.7c-2.8,1-6,2.3-7.2,3c-1.1,0.7-2.4,1.2-2.8,1.2
		c-1.1,0-0.9-6.8,0.2-9c1.5-2.9,5.2-5.7,9.4-7.3c2.2-0.8,3.9-1.8,3.9-2.2s-0.7-2.1-1.6-3.7c-2.9-5.1-1.7-10,3.3-13.9
		c5.2-4,14-4.6,21.7-1.7c2,0.7,3.8,1.4,4,1.4c1,0,0.4-1.4-2.4-5.5c-3.2-4.7-3.9-7.1-3.5-12.7c0.5-7.1,6.3-13,13.5-13.5
		c5.8-0.4,9.4,1.5,18,9.7c25.7,24.5,53.5,37.9,86.1,41.6c8.2,0.9,24.7,0.4,34.4-1c29.3-4.4,58.8-19.1,81.8-40.8
		c6.4-6,9.5-7.6,14.7-7.6c4.5,0,7.7,1.5,11,5c3,3.3,4,6.4,3.7,11.4c-0.2,3.2-0.7,4.8-2.6,7.9c-2.8,4.6-2.3,5,3.2,2.9
		c7.5-2.9,16.8-1.6,21.8,3.2c4.4,4.2,4.8,8.4,1.4,14.1c-1.2,2.1-2.3,4-2.3,4.3c0,0.6,1,0.8,5.5,1.6c6,1,9.4,5.4,9.4,12.2
		c0,2-0.2,3.7-0.6,3.7c-0.3,0-2.6-0.8-5-1.8c-7-2.9-11-3.6-19.1-3.6c-6.2,0-8.3,0.3-12.7,1.7c-6.6,2.2-13.7,6.3-19.5,11.5
		c-6.4,5.7-10.4,7.5-16.6,7.4c-5.8-0.1-9.7-1.7-11.8-5c-1.1-1.8-1.3-2.8-1-6.8c0.2-2.6,0.1-4.7-0.1-4.7c-0.2,0-2.5,1.4-5,3.2
		c-6.6,4.6-10.9,6.8-18.5,9.8C754.8,569.1,721.3,573.1,695.7,569.7L695.7,569.7z"/>
	<path class="st2" d="M706.3,525.2c-38.6-3.7-75.5-23.8-97.9-55.7c-24.4-33.2-32-77.1-24.6-117.2c4-18.3,11.9-36.5,25.5-49.6
		c-10.8,23-14.5,49.4-8.7,74.3c9,49.8,51,91.9,101.3,99.2c19.9,5.8,40.5-0.3,59.5-6.5c41.9-14.8,73.9-54.6,77.8-99.1
		c3.3-24.1-0.4-49.1-11.2-70.9c6.2,3.3,14,16.1,18.6,24.7c16,31,16.7,68.2,7.3,101.2c-12.8,42.1-45,79-87.5,92.4
		C747.1,524.3,726.6,526.2,706.3,525.2L706.3,525.2z"/>
	<g id="hand">
		<path class="st2" d="M512,469.9c-2.5-0.4-5.3,2.1-4.4,4.7c1.8,2.6,5,3.9,7.8,5.2c6.8,2.7,14.2,3.8,21.5,3.6c-2.5,0,0.9,0,1.8,0
			c5.8,0,11.5-1,16.9-3c3-1.1,6.9-2,8.1-5.4c1.2-2.2-1-4.3-3.2-3.9c-3.1,0.7-5.9,2.1-9,2.9c-6.6,1.9-13.5,2.6-20.3,2
			c-5-0.6-9.8-2.2-14.4-4.1C515.3,471.1,513.8,470.1,512,469.9L512,469.9z"/>
		<path class="st2" d="M514.8,459.5c-2.6-0.4-4.8,2.6-3.7,4.9c2,2.8,5.3,4.4,8.4,5.7c5.4,2.1,11.2,3,17,2.9c-2.2,0,0.8,0,1.6,0
			c4.9,0,9.8-1,14.3-2.8c2.8-1.1,6.2-2.1,7.3-5.2c0.9-1.7,0.2-4.1-1.9-4.2c-1.9-0.1-3.6,1.1-5.4,1.7c-6.5,2.7-13.6,3.8-20.6,3.2
			c-4.4-0.6-8.5-2.2-12.5-4C517.8,460.9,516.5,459.8,514.8,459.5L514.8,459.5z"/>
		<path class="st2" d="M518.3,449.6c-2.2-0.3-3.7,2.2-3.3,4.2c0.3,1.7,1.9,2.9,3.2,4c5.3,3.9,12.1,5.6,18.6,5.3c-2.5,0,3.4,0,1.6,0
			c4.1,0,8.2-1,12-2.8c2.5-1.1,5.4-2.3,6.3-5.2c0.4-1.3,0.7-3.2-0.8-4c-1.6-0.9-3.1,0.5-4.5,1c-4.8,2.4-10.1,3.8-15.5,3.8
			c-4.7,0.2-9-1.8-13.1-3.9C521.1,451.2,519.9,449.9,518.3,449.6L518.3,449.6z"/>
		<path class="st2" d="M481.5,302.7c-3.3,3.3-0.8,9.3-0.9,13.5c1.7,13.2,3.8,26.5,8.7,38.9c6,12.1,18.8,18.6,26.5,29.3
			c2.8,5.2,1.8,11.4,2.4,17c0.5,15.4,0.3,30.7,0,46.1c6.9,3.5,14.5,7,22.5,5.6c4.7-1.1,13.5-1.8,14.5-6.5c-0.4-26.5-0.6-53-1-79.5
			c-2.7-8.1-11-12.3-17.1-17.5c-5.1-5-9.8-10.4-14.2-16.1c-2.6-4.4-12.9-6-9.2,1.7c2.2,6.7,7.7,11.6,9.1,18.6
			c0.3,3.8,4.9,10.9,1,13.1c-2.5-4.2-6.1-7.8-10.7-10c-4.4-3.3-11.8-4.7-13.4-10.5c-1.2-8.3-5.4-15.8-10.9-22
			c1.4-7.4,0-16.7-6.4-21.5L481.5,302.7L481.5,302.7L481.5,302.7z"/>
		<path class="st2" d="M491.4,304.2c-3,0.5-2.9,4.3-1.5,6.2c1.5,4.3,1.9,8.9,1.1,13.4c5.3,6.2,9.3,13.5,10.6,21.6
			c0,3,3.2,4.1,5.3,5.6c4.9,3.1,10.3,5.4,14.7,9.2c0.9,1,1.6,2,1,0c-0.7-2.5-1-5.4-3-7.3c-2.7-2.9-6.2-5.6-10.1-6.5
			c-0.3-4.1-2.3-7.9-4.1-11.5c-2-3.5-4.1-7.2-7.5-9.5c0.1-6.1,0-12.5-2.6-18.1C494.4,306,493.3,304.3,491.4,304.2L491.4,304.2z"/>
		<path class="st2" d="M499.7,306.6c-2.1,0.6-1.7,3.2-1,4.7c1,4.3,1.1,8.8,1.1,13.2c3.8,3,6.2,7.4,8.3,11.6c1.4,2.8,2.6,5.8,3.2,8.9
			c3.1,1,5.8,2.9,8.2,5.1c-1-2.9-3.1-5.1-4.5-7.7c-1.6-2.7-3-5.6-3.7-8.7c-3-3.2-4.6-7.6-3.9-12c0.1-4.8-1.4-9.7-4.6-13.3
			C501.9,307.6,500.9,306.7,499.7,306.6L499.7,306.6z"/>
		<path class="st2" d="M509.2,308c-1.1,0.2-1.8,1.3-2.4,2.1c-0.2,0.9,0.8,1.8,1,2.8c1.3,3.3,1.8,6.9,1.4,10.4
			c-0.1,2.5,0.8,4.9,2.1,7.1c0.4-1.6,1.8-2.7,3.4-2.8c0.6-0.1,1.4,0.2,1.1-0.7c-0.4-4.8-1.1-9.6-2.8-14.1c-0.6-1.6-1.4-3.3-2.8-4.4
			C509.9,308.1,509.5,307.9,509.2,308L509.2,308z"/>
	</g>
	<g transform="matrix(-1,0,0,1,1440,0)">
		<g id="hand_1_">
			<path class="st2" d="M928,469.9c2.5-0.4,5.3,2.1,4.4,4.7c-1.8,2.6-5,3.9-7.8,5.2c-6.8,2.7-14.2,3.8-21.5,3.6c2.5,0-0.9,0-1.8,0
				c-5.8,0-11.5-1-16.9-3c-3-1.1-6.9-2-8.1-5.4c-1.2-2.2,1-4.3,3.2-3.9c3.1,0.7,5.9,2.1,9,2.9c6.6,1.9,13.5,2.6,20.3,2
				c5-0.6,9.8-2.2,14.4-4.1C924.7,471.1,926.2,470.1,928,469.9L928,469.9z"/>
			<path class="st2" d="M925.2,459.5c2.6-0.4,4.8,2.6,3.7,4.9c-2,2.8-5.3,4.4-8.4,5.7c-5.4,2.1-11.2,3-17,2.9c2.2,0-0.8,0-1.6,0
				c-4.9,0-9.8-1-14.3-2.8c-2.8-1.1-6.2-2.1-7.3-5.2c-0.9-1.7-0.2-4.1,1.9-4.2c1.9-0.1,3.6,1.1,5.4,1.7c6.5,2.7,13.6,3.8,20.6,3.2
				c4.4-0.6,8.5-2.2,12.5-4C922.2,460.9,923.5,459.8,925.2,459.5L925.2,459.5z"/>
			<path class="st2" d="M921.7,449.6c2.2-0.3,3.7,2.2,3.3,4.2c-0.3,1.7-1.9,2.9-3.2,4c-5.3,3.9-12.1,5.6-18.6,5.3c2.5,0-3.4,0-1.6,0
				c-4.1,0-8.2-1-12-2.8c-2.5-1.1-5.4-2.3-6.3-5.2c-0.4-1.3-0.7-3.2,0.8-4c1.6-0.9,3.1,0.5,4.5,1c4.8,2.4,10.1,3.8,15.5,3.8
				c4.7,0.2,9-1.8,13.1-3.9C918.9,451.2,920.1,449.9,921.7,449.6L921.7,449.6z"/>
			<path class="st2" d="M958.5,302.7c3.3,3.3,0.8,9.3,0.9,13.5c-1.7,13.2-3.8,26.5-8.7,38.9c-6,12.1-18.8,18.6-26.5,29.3
				c-2.8,5.2-1.8,11.4-2.4,17c-0.5,15.4-0.3,30.7,0,46.1c-6.9,3.5-14.5,7-22.5,5.6c-4.7-1.1-13.5-1.8-14.5-6.5
				c0.4-26.5,0.6-53,1-79.5c2.7-8.1,11-12.3,17.1-17.5c5.1-5,9.8-10.4,14.2-16.1c2.6-4.4,12.9-6,9.2,1.7c-2.2,6.7-7.7,11.6-9.1,18.6
				c-0.3,3.8-4.9,10.9-1,13.1c2.5-4.2,6.1-7.8,10.7-10c4.4-3.3,11.8-4.7,13.4-10.5c1.2-8.3,5.4-15.8,10.9-22
				c-1.4-7.4,0-16.7,6.4-21.5L958.5,302.7L958.5,302.7L958.5,302.7z"/>
			<path class="st2" d="M948.6,304.2c3,0.5,2.9,4.3,1.5,6.2c-1.5,4.3-1.9,8.9-1.1,13.4c-5.3,6.2-9.3,13.5-10.6,21.6
				c0,3-3.2,4.1-5.3,5.6c-4.9,3.1-10.3,5.4-14.7,9.2c-0.9,1-1.6,2-1,0c0.7-2.5,1-5.4,3-7.3c2.7-2.9,6.2-5.6,10.1-6.5
				c0.3-4.1,2.3-7.9,4.1-11.5c2-3.5,4.1-7.2,7.5-9.5c-0.1-6.1,0-12.5,2.6-18.1C945.6,306,946.7,304.3,948.6,304.2L948.6,304.2z"/>
			<path class="st2" d="M940.3,306.6c2.1,0.6,1.7,3.2,1,4.7c-1,4.3-1.1,8.8-1.1,13.2c-3.8,3-6.2,7.4-8.3,11.6
				c-1.4,2.8-2.6,5.8-3.2,8.9c-3.1,1-5.8,2.9-8.2,5.1c1-2.9,3.1-5.1,4.5-7.7c1.6-2.7,3-5.6,3.7-8.7c3-3.2,4.6-7.6,3.9-12
				c-0.1-4.8,1.4-9.7,4.6-13.3C938.1,307.6,939.1,306.7,940.3,306.6L940.3,306.6z"/>
			<path class="st2" d="M930.8,308c1.1,0.2,1.8,1.3,2.4,2.1c0.2,0.9-0.8,1.8-1,2.8c-1.3,3.3-1.8,6.9-1.4,10.4
				c0.1,2.5-0.8,4.9-2.1,7.1c-0.4-1.6-1.8-2.7-3.4-2.8c-0.6-0.1-1.4,0.2-1.1-0.7c0.4-4.8,1.1-9.6,2.8-14.1c0.6-1.6,1.4-3.3,2.8-4.4
				C930.1,308.1,930.5,307.9,930.8,308L930.8,308z"/>
		</g>
	</g>
	<path class="st2" d="M715.7,476c-13.5-1.3-25.7-11.1-29.8-24c0.2-2.2,3,1.2,4.3,1.5c2.5,1.4,5.1,2.5,7.9,2.7c3.6,1.5,5.8,5,9.2,6.9
		c1.6,1.2,7.2,3.6,6.1-0.3c-1.3-2-2.2-4.6-1.1-7c1.9-4.2,4.8-7.8,7.7-11.2c2.2-0.7,3.6,3.5,5.1,5c2.1,3.3,4.7,7.3,3.4,11.4
		c-1.2,1.5-2,6,1.2,4.5c4-1.8,7.3-4.7,10.7-7.5c2.9-2,6.7-2.2,9.7-4c1.4-0.4,4.4-3.2,5-1.6c-1.7,4.5-4.5,8.5-7.5,12.2
		c-4.9,5.6-11.4,9.7-18.8,10.9C724.5,476.1,720.1,476.3,715.7,476L715.7,476z"/>
	<path class="st2" d="M731.5,460.2c0.3-2.7-0.3-5.5-1.7-7.9c-2.1-4.3-5.1-8.2-8-12c-2.8-1.6-4.3,3.7-6.1,5.2
		c-2.9,4.3-6.4,8.7-6.6,14c-1.6,2.5-4.6-2-5.9-3.5c-2.5-3.5-4.3-7.6-4-12c-0.3-7,1.1-14,3.6-20.6c1.9-5.6,5.1-11,4.8-17.1
		c0.2-4.6-0.7-9.7-4.4-12.7c-3.5-2.8,2.3-3.4,4.1-1.9c3.2,0.2,4.9,5.4,7.8,4.2c1.2-2.7,1.4-6,3.8-8.1c2.3-3.2,4.8,1.4,5.6,3.5
		c1.6,1.9-0.1,6.5,2.6,6.6c3.2-2.2,5.5-6,9.6-6.8c1.7-0.9,4.5-0.1,2.3,1.8c-3,2.8-5.6,6.4-6.2,10.6c-0.9,5.3,0.4,10.7,2.7,15.5
		c4.4,9.4,7.9,20,5.6,30.4c-1,4.6-4.2,8.6-8,11.3C732.5,460.9,731.7,460.9,731.5,460.2L731.5,460.2z"/>
	<path class="st2" d="M726.7,389.6c-1.5-2.6-3.2-5.2-5.7-7c-2.4,0-3.9,3-5.5,4.6c-1.1,2.1-2.5,5.6-5.3,2.9c-4.4-2.6-5.2-8.3-5.2-13
		c-0.3-7.6,2.8-14.7,5.5-21.6c1.7-4.3,1.3-9.2,0.2-13.6c-1.3-5.1-5.4-8.6-8.6-12.6c0.2-1.5,4.2-0.7,5.7-0.4c3.4,0.9,5.4,3.8,7.9,5.9
		c1.8-0.5,1.1-4.1,1.9-5.8c0.1-2.4,3.2-5.5,4.5-2.1c2,2.2-0.1,6.5,2.5,7.8c2.4-0.9,3.6-3.5,5.9-4.7c2.2-1.5,5.4-1.7,7.8-0.5
		c0.8,2.2-2.6,4.1-3.6,6c-4.1,5-5.5,11.9-3.7,18.1c1.4,4.9,3.8,9.4,4.7,14.4c1,5.7,1,11.6-0.5,17.2c-0.9,3.4-3.8,5.6-6.8,7
		C727.6,391.5,727.2,390.5,726.7,389.6L726.7,389.6z"/>
	<path class="st2" d="M711.6,326.9c-3.4-2.5-4.5-4.8-4.5-9.5c0-2.4,0.4-3.7,2-5.8c2.3-3.2,1.9-4.2-1.4-3.3c-5.3,1.5-7.8,0.1-8-4.4
		c-0.1-2.2,0.4-3.1,3.3-6.7c2.4-2.8,3.2-4.3,2.8-4.8c-0.5-0.5-3.2,2-9,7.8c-4.6,4.6-9.7,9.4-11.4,10.6c-9.8,6.6-19.2,7.7-23.5,2.6
		c-2.2-2.6-2.1-4.1,0.5-5.7c1.2-0.7,3.1-2.4,4.4-3.7c3-3.1,11.7-9.4,16.1-11.6c3.5-1.8,4.4-3,2.1-3c-3,0-12.5,6.2-19.8,12.9
		c-2.1,2-5.2,4.2-6.8,4.9c-3.6,1.6-10.7,2.2-13.9,1.1c-2.2-0.7-6.3-4.6-6.3-6c0-0.4,0.9-1.2,2.1-1.8c1.1-0.6,3.2-2.1,4.5-3.2
		c5.8-5.1,16.8-10.3,25.5-12.2c2.8-0.6,1.8-2-1.3-1.8c-6,0.3-17.9,5.8-25,11.7c-8.3,6.9-20.9,6.2-24.9-1.3c-0.7-1.3-1.1-2.5-0.9-2.7
		c0.2-0.2,2.7-0.9,5.5-1.6c3.1-0.8,9.1-3.3,14.9-6.2c9.1-4.5,11.8-5.5,18.1-6.5c2.8-0.5,3-1.8,0.2-2.1c-3.5-0.4-8.9,1.4-18.5,6
		c-12.3,6-15.7,7.1-22.2,6.7c-5.9-0.4-9.2-1.9-14-6.4c-3.1-3-7.6-10.5-6.7-11.4c0.2-0.2,1.7,0,3.2,0.5c1.7,0.5,6.7,0.9,12.6,0.9
		c8.3,0,10.5-0.2,15-1.5c7.4-2.1,17.3-7.1,24-12.2c12.9-9.6,23.4-13.5,36.8-13.6c12.4-0.1,20.2,2.8,27.2,9.9
		c2.4,2.4,4.4,3.9,4.7,3.6c0.3-0.3,0.7-4.5,0.8-9.3c0,0,3.6-0.4,4.4,0.7c0,7.8,0.1,8.4,1.2,8.4c0.7,0,1.5-0.8,2-1.9
		c1.1-2.6,5-6,9.2-8.2c9-4.6,24.7-4.7,37.3-0.3c5.3,1.9,11.2,5.2,16.8,9.5c5.6,4.3,17.1,10.1,23.9,12c6.9,2,19,2.4,25.2,1
		c2.6-0.6,5-1.1,5.3-1.1c2.3,0-1.6,7.6-6.2,12.1c-8.4,8.2-19.3,8.1-34.6-0.1c-9.5-5.1-21-8-21-5.1c0,0.6,0.6,1,1.5,1
		c3.3,0,9.7,2.2,18.7,6.5c9.7,4.6,15.1,6.5,18.3,6.5c2.3,0,2.4,1.5,0.2,4.6c-2.3,3.4-6.2,5.1-11.8,5.1c-5.3,0-8.2-1.2-13-5.1
		c-7.9-6.6-27.6-13.9-26.9-10c0.2,0.8,1.1,1.3,3.1,1.6c6.9,1,14.9,4.9,23.2,11.1c2.5,1.9,5.2,3.8,5.8,4.2c1.1,0.7,1.2,0.9,0.3,2.5
		c-1.5,2.8-5.2,4.9-9.2,5.3c-5.2,0.5-9.8-1-14.5-5c-9.9-8.3-19.3-14.3-22.3-14.3c-2.5,0-1.3,1.4,3,3.6c5.7,3,11.5,7.1,15.8,11
		c2,1.9,4.3,3.7,5.1,4.1c1.8,1,1.7,2.4-0.2,5c-2,2.6-5.4,3.8-9.7,3.3c-8.6-0.9-15.4-5.1-26-16.1c-4.1-4.3-7.8-7.8-8.2-7.8
		c-1.4,0-0.6,1.9,2.2,5c3.4,3.8,4,5.9,2.8,9c-1.1,2.7-3,3.4-6.9,2.3c-4-1.1-4.6-0.1-2,3.1c3.9,4.8,3.3,10.7-1.4,14.8
		c-1.5,1.2-3,2.3-3.4,2.3c-0.4,0-1.5-1.1-2.3-2.4c-3-4.6-5.7-4.6-8.7,0.1c-1,1.6-1.9,3-1.9,2.9C714.7,329.1,713.3,328.1,711.6,326.9
		L711.6,326.9z"/>
	<path class="st2" d="M726.7,233l-5.1,4.1l-4.6-3.5v27.7l9.7,0.1V233z"/>
	<path class="st2" d="M694.9,204.2c-1,13.1-4.3,22.3-9,32.4l11.1-10.3l7.7,9.2l8.4-9.3l8.5,7.9l8.2-8.2l8.5,10l7.4-8.2l12.5,9
		c-4.5-10.1-10.7-18.6-9.9-32.8C736.2,212.8,707.3,214.4,694.9,204.2L694.9,204.2z"/>
	<path class="st2" d="M717,197.6c-4.5,0.1-9.2,0.1-13.4,1c-2.9,0.6-5.6,1.5-7.8,3.1c0.4,8.5,41,12.1,51.9,0.2
		c-2.3-1.7-5.1-2.7-8.2-3.3c-4.1-0.8-8.6-0.9-12.8-0.9c0,2.3,0,4.7,0,7l-9.7,0V197.6L717,197.6z"/>
	<path class="st2" d="M724.9,154l-6.3,0.1v49.4l6.4,0L724.9,154z"/>
	<path class="st2" d="M724.9,155.2l-2.4,23.6l24.3,11.9l-12.3-16.5l16.8-5.4L724.9,155.2z"/>
	<path class="st2" d="M722.2,149.1c-3.7,0-6.4,1.4-6.4,3s2.7,3,6.4,3s6.4-1.4,6.4-3S725.9,149.1,722.2,149.1z"/>
</g>
<g>
	<path class="st0" d="M711,563.8c4-1.3,6.3-3.7,7.9-8.4c0.8-2.3,1.4-4.7,1.2-5.4c-0.3-1.5-2.1-1.4-4,0.2c-1.3,1.1-1.5,1.6-1.1,3.9
		c1,5.6-1,7-11.6,8.1c-1,0.1-4.1-0.1-6.8-0.4c-5-0.6-6.8-0.1-5,1.4c0.5,0.5,2,1.1,3.1,1.4C697.6,565.3,708,564.8,711,563.8
		L711,563.8z"/>
	<path class="st0" d="M733,562.9c0.6-0.5,2.7-1.5,4.6-2.1c2.6-0.8,3.9-1.7,5-3.3c3.1-4.6,2.5-8.6-2-14c-2.5-2.9-3.6-2.8-5.6,0.4
		c-1.7,2.8-1.7,3,0.8,3.6c1.3,0.3,2.5,1.3,3.2,2.5c2.7,4.6,1.9,7.5-2.1,7.5c-3.6,0-4.6,0.5-5.6,2.9c-0.5,1.2-0.9,2.5-0.9,2.9
		C730.4,564.2,731.8,564,733,562.9L733,562.9z"/>
	<path class="st0" d="M725.8,557.7c0.7-1.8,0.9-5.2,0.8-11.9c0-5.1-0.2-9.5-0.5-9.7c-0.6-0.6-3.6,1.3-4,2.5
		c-0.2,0.6,0.1,2.1,0.7,3.3c0.9,1.8,1,3.5,0.8,10.5C723.4,561.2,724,562.7,725.8,557.7L725.8,557.7z"/>
	<path class="st0" d="M708.9,553.4c0.4-1.7,0.8-5,1-7.5s0.7-5.6,1.1-6.9c1-3.5,0-4.4-2.7-2.4l-2,1.5l0.4,5
		c0.4,4.5-0.3,12.8-1.3,16.1c-0.3,0.9,0.1,0.6,1.2-0.7C707.5,557.3,708.5,555.1,708.9,553.4z"/>
	<path class="st0" d="M693.9,555.8c3.7-3.1,3.2-8.3,4-12.5c-0.1-2.8,1.8-6.2,0.6-8.7c-3.4,0.6-5.5,3.9-3.8,7.1
		c0.1,3.7,0,7.8-1.9,11.1c-1.6,2.2-6.5,1.6-6.3-1.4c1.2-4.6-4.3-2.4-6.4-1.2c-1.7,1.2-5.2,1.2-4-1.7c-0.8-3.9-5.8-1.4-8.5-1.5
		c-2.6,0-0.2-5.2-3.9-4.3c-6.8-0.5-14.3,0.1-20.2-4.1c-3.4-1.7-2.9-5.8-1.1-8.5c2.1-3.7,2.8-8.2,6.2-11.1c3.4-3.2-3.2-1.9-4.7-0.8
		c-3.3,1.8-0.2,6.4-2.9,9c-1.6,2.7-3.6,6.3-7.3,5.8c-5.2-1-8.3-5.9-12-9.1c-3.2-0.6-1.4,5.2,0.3,6.5c3.3,2.5,7.1,4.3,11.1,5.3
		c3.9-0.6,4.1,4.5,7.4,5.3c6.2,2.9,13.1,3.7,19.8,4.1c2.7,0.2,1.2,4.9,4.6,4c1.9,0.5,6.3-0.7,6.6,1.5c-3,3.5,2.8,3.4,5,2.8
		c2.7-0.4,6.2-1.5,7,2.3c2.3,2.4,6.5,2.1,9.3,0.7C693.2,556.4,693.5,556.1,693.9,555.8L693.9,555.8z"/>
	<path class="st0" d="M634.1,525.6c1.1-1.4,2.8-4.3,3.7-6.3c0.9-2.1,2.3-4.5,3-5.3c1.8-1.9,0.8-3.1-2.1-2.4
		c-1.5,0.3-2.1,0.9-2.4,2.2c-0.8,4.2-2.4,8.6-3.8,10.6c-2.5,3.7-2.5,3.8-1.5,3.8C631.7,528.1,633,527,634.1,525.6L634.1,525.6z"/>
	<path class="st0" d="M596.7,502.1c-2.8,0-2.9,1.8-0.2,2.7c1.3,0.5,2.4,1.6,3.3,3.4c2.7,5.3,4.2,6.2,11.3,6.8l4.5,0.4l0.2,2.8
		c0.1,1.5,0.5,2.8,0.8,2.8s2.1-0.8,3.9-1.7c3.3-1.7,6.5-5.6,6.5-8c0-1.6-2.7-3.3-5.1-3.3c-1.1,0-3.1,0.9-4.7,2
		c-5,3.7-10.4,2.9-13.4-1.8C601.4,504.2,598.9,502.1,596.7,502.1L596.7,502.1z M621.1,511.8c1.3,0,1.7,1,0.9,2.9
		c-0.5,1.3-2.1,1.3-2.6,0.1C618.9,513.3,619.7,511.8,621.1,511.8L621.1,511.8z"/>
	<path class="st0" d="M810.8,505.7c-1.8,0.1-2.4,0.5-3.5,2.2c-1.9,2.8-2.1,8.9-0.3,11.1c1.1,1.3,1.2,1.4,3.6,0.4
		c3.2-1.3,3.8-1.3,3.8,0.4c0,4.4-6.4,12.9-13,17.5c-1.8,1.2-3.4,2.6-3.6,3c-0.5,1.3,2,1,5-0.6c4.1-2.1,9.5-7.6,11.8-12
		c1.8-3.5,2-4.7,2.2-10.7c0.2-5.6,0-7.2-0.9-9.1c-1.1-2.1-1.4-2.3-4.1-2.3C811.4,505.7,811.1,505.7,810.8,505.7L810.8,505.7z
		 M811.1,509.6c1.4,0,1.6,0.3,1.8,2.3c0.1,1.6-0.2,2.6-1.1,3.5c-1.2,1.1-1.3,1.1-2.4-0.6C807.8,512.4,808.8,509.6,811.1,509.6
		L811.1,509.6z"/>
	<path class="st0" d="M780.7,552.3c5.8-2.9,9.3-6.1,11.5-10.8c1-2.2,1.9-4.3,1.9-4.7c0-0.8-2.9-2.2-4.6-2.2c-1.7,0-2.1-1.2-1.3-4.5
		c0.7-3.2-0.2-7.2-1.6-7.2c-0.5,0-1.4,0.8-2,1.7c-0.9,1.4-1,2-0.3,4.1c1,3,0.2,5.3-2.5,7.2c-1.3,0.9-2,2-2,3c0,0.9,0.1,1.6,0.2,1.6
		c0.1,0,1.6-0.7,3.2-1.6l2.9-1.6l1.7,1.3c0.9,0.7,1.7,2,1.7,2.7c0,3.6-10.2,9.5-17.1,10.1c-3.7,0.3-4.3,0.2-5.6-1.1
		c-1-1-1.3-1.9-1.1-3.2c0.2-1,0.6-2.7,0.8-3.8c0.6-3.1-0.7-2.7-3,0.9c-1.9,3-2.5,6.2-1.4,7.9c0.9,1.4,6.7,2.7,10.7,2.4
		C775.5,554.3,778,553.6,780.7,552.3L780.7,552.3z"/>
	<path class="st0" d="M819.7,530.5c3.7-3.7,5.2-8.1,5.3-15l0-5.2l3-1.4c4-1.9,7.7-5.6,7.7-7.7c0-2.1-1-2-2.7,0.3
		c-1.2,1.7-2.9,2.7-9,5.5c-1.5,0.7-1.6,1.1-2,7.6c-0.4,7.5-1.4,10.2-5.6,15.3c-2.5,3.1-2.6,3.5-0.9,3.5
		C816.3,533.3,818.2,532,819.7,530.5z"/>
	<path class="st0" d="M779.7,526.3c0.3-1.1-1.7-1.8-2.6-1c-0.4,0.4-0.5,1-0.2,1.4C777.5,527.7,779.3,527.4,779.7,526.3L779.7,526.3z
		"/>
	<path class="st0" d="M834.9,512c0.4-1.1-1.7-1.8-2.5-1c-0.4,0.4-0.5,1-0.2,1.4C832.7,513.4,834.6,513.1,834.9,512L834.9,512z"/>
	<path class="st0" d="M768.4,473.3c-1.4,0.7-2.2,2.2-3.2,3.4c-0.7,0.5-0.1,0.9,0.3,1.4c2.5,2.7,3.6,6.4,4.8,9.8
		c1.2,4,2.7,8.4,1.4,12.6c-0.5,1.6-1.8,3.3-3.6,2.7c-3-0.2-6-1-9.1-1c-2.7,0.1-4.8,2.6-7.6,2.3c-1.8,0.1-1.7-3.6-3.3-2.6
		c-0.8,1.9-0.4,4.1-0.5,6.2c0.3,0.3,1.2,0,1.7,0.1h5.4c0.4,1.9,0.3,4,1.7,5.5c1.9,0.7,4,0.1,5.8-0.6c1.9-0.9,2.2-3.2,2.7-5
		c0.6-1.9,3.1-1.4,4.6-2.2c3.7-1.1,6.1-4.9,5.9-8.6c-0.2-5.7-2.4-11.1-4.1-16.5c-0.8-2.4-1.4-4.9-2.4-7.2
		C768.9,473.4,768.6,473.2,768.4,473.3L768.4,473.3z M759.3,506c2-0.1,2.9,2.4,2.5,4c-0.8,2.3-3.5,0.8-4.1-0.8
		C756.7,507.8,757.3,505.8,759.3,506L759.3,506z"/>
	<path class="st0" d="M683.9,487.2c-0.9,0-1.9,0.3-2.9,1c-5.3,3.7-6.7,8.1-3.1,9.8c2.7,1.3,2,2.8-2.2,4.9c-6,3-11.2,2.6-21.2-1.5
		c-2.5-1-3.1-0.6-2.5,1.6c0.5,2.2,2.6,3.4,7.6,4.6c5.4,1.2,11.9,0.8,16.1-1c2-0.9,4.5-2.7,6.5-5l3.2-3.6l3.8,0.5
		c4.7,0.6,4.8,0.6,4.8,2.9c0,1.8,0.1,1.8,4.4,2.2c2.4,0.2,5.6,0.4,7.1,0.4c1.9,0,3,0.3,3.6,1.2c0.8,1.2,1.3,1.2,8.4,0.6
		c6.6-0.6,7.9-0.5,10.8,0.5c2.1,0.7,4.4,1,6.2,0.8c5-0.6,12-4.7,13-7.7c0.1-0.4,2-1,4.1-1.4c5.1-1,5.3-2.1,0.6-2.7
		c-2.1-0.3-5.2-1-6.9-1.7c-1.7-0.7-4.1-1.2-5.2-1.2c-2.6,0-5,1.6-5,3.2c0,1.1,0.4,1.2,3.4,0.9c2.8-0.3,3.7-0.1,5.2,1.1
		c1,0.8,1.7,1.7,1.4,2c-0.7,1.1-6.6,3.8-9.2,4.2c-1.8,0.3-3.2,0.1-4.6-0.6c-2.3-1.2-5.7-1.4-6.3-0.4c-0.3,0.5-1,0.2-2-0.8l-1.6-1.5
		l-3.5,1.5c-3.6,1.5-4.9,1.4-4.9-0.3c0-0.8-1-0.9-6.3-0.5c-5.8,0.4-6.4,0.3-7.5-0.9c-1-1.1-1-1.5-0.3-2.7c0.7-1.1,0.7-1.5,0-2.1
		s-1.5-0.6-3.8,0c-5.8,1.5-7.4,0.7-7.4-3.9C687.5,488.9,685.9,487.2,683.9,487.2L683.9,487.2z M682.5,491.4c0.3,0,0.6,0.2,1,0.6
		c0.5,0.5,0.8,1.4,0.6,2c-0.5,1.4-3,1.3-3.5-0.1c-0.2-0.7,0.1-1.4,0.8-1.9C681.9,491.6,682.2,491.4,682.5,491.4L682.5,491.4z"/>
	<path class="st0" d="M672.1,495.6c3.5-2.2,3.5-2.1,4-8.3c0.3-4.4,0.3-4.7-0.9-4.7c-1.7,0-2.6,1.9-2.6,5.5c0,2.3-0.4,3.4-1.6,4.6
		c-2.9,2.9-10.2,1.6-11.2-2c-0.3-1.2,0.1-2.4,1.6-4.5c3.2-4.5,2.5-5.6-1.4-2.2c-2.7,2.4-3.2,2.4-2.7,0.4c0.5-1.9-0.5-2.6-2.7-2.1
		c-1.1,0.3-1.7,1-2,2.3c-0.3,1.3-0.9,2.1-1.9,2.3c-1.8,0.5-4.8-1.2-4.8-2.7c0-1.1,4.5-6.6,10.3-12.6c2.2-2.3,4-4.4,4-4.7
		s-1.2-0.6-2.6-0.6c-2.1,0-2.6,0.2-2.6,1.2c0,0.7-2.9,4.5-6.5,8.5c-7.5,8.4-8.1,10.1-4.4,12.4c3,1.8,6.8,1.7,9.8-0.4l2.4-1.6v3
		c0,3.8,0.8,5.2,3.8,6.8C663.8,498.2,668.4,498,672.1,495.6L672.1,495.6z"/>
	<path class="st0" d="M828.7,443.7c-2.8,1.7-0.6,5.1-0.2,7.4c-1.1,3.1-5.2,4-8.1,4.6c-4.2,0.7-7.1,4.2-8.7,7.9
		c-0.9,2.4-2.9,6.1-5.2,2.5c-2-2-5.6-3.6-7.9-1.2c-1.8,1.7-2.2,4.2-2.9,6.4c-1-1.7-1.5-4.3-3.7-4.8c-3.5,0.5-2.3,4.9-0.6,6.8
		c1.5,2.1,3,5,1.5,7.5c-1.3,3.1-5.8,5.1-8.5,2.5c-2.5-1.3-0.8-6-3.3-6.2c-1.2,0.9-1.3,5.7-3.2,3.1c-1.4-2.3-0.7-5.4-2.4-7.4
		c-2,0.2-3.6,3.7-3,5.6c2.7,3.6,3.8,8.2,4.8,12.5c0.7,1.7-0.1,5.2,1.5,5.9c1.1-2.8,0.1-5.9,1-8.7c2.6-0.3,5.5,0.9,8.3,0.2
		c3.9-0.5,7-3.8,8.3-7.4c0.4-2.7-0.1-5.3-0.2-8c3.1,0.5,6.3,0.5,9.3,1.5c1.5,2.3-0.5,5.4-0.9,7.9c-1.6,5.1-5.5,8.7-9.4,12.1
		c-1.6,1-1.8,3.5,0.6,2.1c5.2-2.2,9-6.9,11.2-12c1.6-3.9,0.3-8.2,1.4-12.2c1.6-3,5.3-2.4,8.1-2.4c2.9-0.1,5.3-3.5,4.4-6.3
		c-0.9-3.2,2.5-4.8,4.9-6c3.1-1.6,5.5-4.8,5.3-8.4C831.1,447.4,831.2,443.9,828.7,443.7L828.7,443.7z M817.6,462.4
		c3.3,0.9-0.6,7.3-2.4,3.2C814.7,464.1,816,462.4,817.6,462.4z M802.2,467c4.3-0.3,2.8,6.1-0.9,3.2C799.4,469.3,800,466.9,802.2,467
		z"/>
	<path class="st0" d="M645.1,491.5c0.1-0.6-0.2-1.1-0.8-1.1c-1.2,0-1.9,1.1-1.4,2C643.5,493.3,644.8,492.8,645.1,491.5L645.1,491.5z
		"/>
	<path class="st0" d="M695.9,485.8c0-0.9-0.3-1.3-1.1-1.1c-1.7,0.3-1.9,2.5-0.2,2.5C695.5,487.1,695.9,486.7,695.9,485.8z"/>
	<path class="st0" d="M633,455.3c-2-0.4-3.3,1.3-4,2.9c-1.5,2.6-3.4,5.2-6.1,6.5c-2,0.5-4.1-0.2-5.8-1.2c-2-1-1.6-3.4-2.4-5.1
		c-1.5-1.1-4,0.5-4,2.3c-0.2,2.4,2.1,3.8,3.9,4.7c1.6,1,3.9,1.5,4.5,3.5c0,1.7,0.6,3.6,2.6,2.9c2.3,0,2.8,2.7,1.9,4.4
		c-0.9,1.9-1.6,4-1.1,6.1c1.1,0.9,2.2-1.5,3-2.2c0.5-0.7,1.1-1.4,1.6-2.1c4,0.2,8,0.7,12,0.6c2.9-0.1,5.3-1.8,7.1-3.9
		c2.6-2.7,4.7-5.8,7.6-8.1c2.1-0.5,1-4.4-1.2-3.3c-2,0.7-2.6,3-3.9,4.4c-2.3,2.8-4.7,5.6-7.6,7.8c-2.1,0.9-4.6,0.5-6.8,0
		c-0.9-0.8,1.8-1.4,2.2-2.3c1.3-1.3,2.7-2.4,3.5-4.1c-0.7-1.5-2.8-1.6-4.3-1.7c-3.7,0.4-6.5,3.5-10.2,3.8c-2.8,0.1-1.4-3-0.1-4
		c2.5-3,5.2-5.7,7.8-8.6c0.7-0.9,3.4-1.7,1.7-3C634.3,455.3,633.7,455.3,633,455.3L633,455.3z M634.8,470.2c1.9,1-1.2,2.8-2.5,2.5
		c-1.7,0.5-1.7-1.2-0.2-1.6C633,470.8,633.9,470.3,634.8,470.2L634.8,470.2z M629.1,474.2c1.1,0,3.3,1,1.2,1.6
		C628.9,476.9,627.2,474.7,629.1,474.2z"/>
	<path class="st0" d="M674.2,476.7c0-1.4-2.5-1.2-2.8,0.2c-0.2,0.9,0.1,1.1,1.3,1C673.5,477.8,674.2,477.3,674.2,476.7z"/>
	<path class="st0" d="M786.2,466.8c0.3-1.4-1.6-2.2-2.6-1.3s-0.1,2.9,1.3,2.6C785.5,468,786.1,467.4,786.2,466.8L786.2,466.8z"/>
	<path class="st0" d="M611.8,453.1c1.8-1.5,1.8-1.6,1-4.9c-1.1-4.6-1-5.1,0.8-5.6c2.2-0.6,7.9,2.5,9.2,4.9c1,1.9,1,2-0.7,3.6
		c-1.8,1.6-1.8,3.6,0,3.6c1.5,0,5.6-3.9,5.6-5.3c0-1.9-4.5-6.5-8.1-8.2c-2.2-1-4.4-1.5-7-1.5c-4.6,0-5.2,1-4,6.3
		c1.5,6.3-0.5,7.1-5.6,2.4c-3.8-3.5-5.2-7.2-5.2-12.9c0-6.2,2.4-9.2,7.7-9.9c3.5-0.5,3.4-1.3-0.2-1.8c-5.3-0.8-9.8,2.7-11.5,9.1
		c-1.9,7,2.4,15.5,10.1,20C607.9,455,609.5,455.1,611.8,453.1z"/>
	<path class="st0" d="M820.7,445.4c0.4-0.4,0.8-1.4,0.8-2.1s0.7-2.4,1.6-3.6c0.9-1.2,1.6-2.5,1.6-2.8c0-1.2-2-1.2-3.6,0.1
		c-1.6,1.3-2.9,1.3-2.9,0.1c0-0.3,0.8-1,1.7-1.4c2.4-1.2,2.6-2.3,0.6-3.2c-2.6-1.2-5.2,1-5.4,4.5c-0.2,2.4,0,2.8,1.8,3.8
		c1.7,1,2,1.5,1.7,2.9C818.1,446.1,819.1,446.9,820.7,445.4L820.7,445.4z"/>
	<path class="st0" d="M840.3,443.2c1.4-1.3,2.6-2.8,2.6-3.2s1.2-1.8,2.8-2.9c4.3-3.1,5.3-6.2,3.3-11c-0.8-1.9-3.1-4.5-8.2-9.1
		c-3.9-3.6-7.6-6.5-8-6.5c-1.4,0-1.2,5.1,0.3,5.6c2.6,0.8,4.1,1.9,8.1,5.5c4.7,4.2,6.8,8.2,5.7,10.4c-1.1,2.1-2.6,1.5-6.8-3
		c-2.2-2.3-4.3-4.2-4.8-4.2c-0.5,0-0.8,0.9-0.8,2c0,1.5,0.8,2.9,2.9,5.3c3.5,3.9,3.8,6.2,1.2,8.3c-0.9,0.7-1.9,1.4-2.2,1.4
		c-0.2,0-1-1.2-1.7-2.6c-1.5-3-10.4-12.4-11.7-12.4c-0.6,0-0.9,0.8-0.9,2.3c0,1.8,0.4,2.5,1.8,3.2c1.8,0.9,6.2,5.3,10.5,10.6
		c1.3,1.5,2.5,2.8,2.8,2.8C837.5,445.5,838.9,444.5,840.3,443.2L840.3,443.2z"/>
	<path class="st0" d="M849,418.1c-0.6-1.9-12.6-14.2-13.8-14.2c-0.6,0-0.8,0.8-0.7,2.7c0.2,2.4,0.4,2.8,2.1,3.2c1,0.3,4.2,2.8,7,5.5
		c2.8,2.8,5.3,4.8,5.5,4.6C849.4,419.8,849.3,418.9,849,418.1L849,418.1z"/>
	<path class="st0" d="M777.5,556.9c0,0.9-0.8,1.6-1.8,1.6c-1,0-1.8-0.7-1.8-1.6s0.8-1.6,1.8-1.6C776.7,555.3,777.5,556,777.5,556.9z
		"/>
	<path class="st0" d="M783.8,554.8c0,0.9-0.8,1.6-1.8,1.6c-1,0-1.8-0.7-1.8-1.6s0.8-1.6,1.8-1.6C783,553.2,783.8,553.9,783.8,554.8z
		"/>
</g>
</svg>
