<?xml version="1.0" encoding="utf-8"?>
<!-- Generator: Adobe Illustrator 21.0.0, SVG Export Plug-In . SVG Version: 6.00 Build 0)  -->
<svg version="1.1" id="Layer_1" xmlns="http://www.w3.org/2000/svg" xmlns:xlink="http://www.w3.org/1999/xlink" x="0px" y="0px"
	 viewBox="0 0 500 300" style="enable-background:new 0 0 500 300;" xml:space="preserve">
<style type="text/css">
	.st0{fill:#CE1126;}
	.st1{fill:#1EB53A;}
	.st2{stroke:#FFFFFF;stroke-width:40;}
	.st3{fill:#FFFFFF;}
</style>
<path class="st0" d="M0,0h500L0,300h500L0,0z"/>
<path class="st1" d="M0,0v300L500,0v300L0,0z"/>
<path class="st2" d="M0,0l500,300 M500,0L0,300"/>
<circle class="st3" cx="250" cy="150" r="85"/>
<g>
	<g>
		<g>
			<g>
				<g>
					<g id="c">
						<path id="h" class="st1" d="M250,86l-10,17.3l17.3,10"/>
						<g transform="scale(-1,1)">
							<path id="h_1_" class="st1" d="M250,86l10,17.3l-17.3,10"/>
						</g>
					</g>
					<g>
						<g id="c_1_">
							<path id="h_2_" class="st1" d="M267.3,116l-10-17.3l-17.3,10"/>
							<g transform="rotate(120)">
								<path id="h_3_" class="st1" d="M267.3,116h-20V96"/>
							</g>
						</g>
						<g id="t">
							<g id="c_2_">
								<path id="h_4_" class="st1" d="M232.7,116h20V96"/>
								<g transform="rotate(240)">
									<path id="h_5_" class="st1" d="M232.7,116l10-17.3l17.3,10"/>
								</g>
							</g>
						</g>
						<g>
							<g>
								<g id="c_3_">
									<path id="h_6_" class="st1" d="M250,126l10-17.3l-17.3-10"/>
									<g transform="scale(-1,1)">
										<path id="h_7_" class="st1" d="M250,126l-10-17.3l17.3-10"/>
									</g>
								</g>
								<g id="s">
									<g id="c_4_">
										<path id="h_8_" class="st1" d="M232.7,96l10,17.3l17.3-10"/>
										<g transform="rotate(120)">
											<path id="h_9_" class="st1" d="M232.7,96h20v20"/>
										</g>
									</g>
									<g id="t_1_">
										<g id="c_5_">
											<path id="h_10_" class="st1" d="M267.3,96h-20v20"/>
											<g transform="rotate(180)">
												<path id="h_11_" class="st1" d="M267.3,96l-10,17.3l-17.3-10"/>
											</g>
										</g>
									</g>
								</g>
								<g>
									<g>
										<g>
											<g id="c_6_">
												<path id="h_12_" class="st0" d="M250,89.6l-8.2,14.2L256,112"/>
												<g transform="scale(-1,1)">
													<path id="h_13_" class="st0" d="M250,89.6l8.2,14.2L244,112"/>
												</g>
											</g>
											<g>
												<g id="c_7_">
													<path id="h_14_" class="st0" d="M264.2,114.2L256,100l-14.2,8.2"/>
													<g transform="rotate(120)">
														<path id="h_15_" class="st0" d="M264.2,114.2h-16.4V97.8"/>
													</g>
												</g>
												<g id="t_2_">
													<g id="c_8_">
														<path id="h_16_" class="st0" d="M235.8,114.2h16.4V97.8"/>
														<g transform="rotate(240)">
															<path id="h_17_" class="st0" d="M235.8,114.2L244,100l14.2,8.2"/>
														</g>
													</g>
												</g>
												<g>
													<g id="b">
														<g id="c_9_">
															<path id="h_18_" class="st0" d="M250,122.4l8.2-14.2L244,100"/>
															<g transform="scale(-1,1)">
																<path id="h_19_" class="st0" d="M250,122.4l-8.2-14.2L256,100"/>
															</g>
														</g>
														<g id="s_1_">
															<g id="c_10_">
																<path id="h_20_" class="st0" d="M235.8,97.8L244,112l14.2-8.2"/>
																<g transform="rotate(120)">
																	<path id="h_21_" class="st0" d="M235.8,97.8h16.4v16.4"/>
																</g>
															</g>
															<g id="t_3_">
																<g id="c_11_">
																	<path id="h_22_" class="st0" d="M264.2,97.8h-16.4v16.4"/>
																	<g id="star" transform="scale(0.82)">
																		<path id="h_23_" class="st0" d="M264.2,97.8L256,112l-14.2-8.2"/>
																	</g>
																</g>
															</g>
														</g>
													</g>
													<g>
														<g>
															<g>
																<g>
																	<g>
																		<g id="c_12_">
																			<path id="h_24_" class="st1" d="M305.4,182l-10-17.3l-17.3,10"/>
																			<g transform="scale(-1,1)">
																				<path id="h_25_" class="st1" d="M305.4,182h-20v-20"/>
																			</g>
																		</g>
																		<g>
																			<g id="c_13_">
																				<path id="h_26_" class="st1" d="M270.8,182h20v-20"/>
																				<g transform="rotate(120)">
																					<path id="h_27_" class="st1" d="M270.8,182l10-17.3l17.3,10"/>
																				</g>
																			</g>
																			<g id="t_4_">
																				<g id="c_14_">
																					<path id="h_28_" class="st1" d="M288.1,152l-10,17.3l17.3,10"/>
																					<g transform="rotate(240)">
																						<path id="h_29_" class="st1" d="M288.1,152l10,17.3l-17.3,10"/>
																					</g>
																				</g>
																			</g>
																			<g>
																				<g>
																					<g id="c_15_">
																						<path id="h_30_" class="st1" d="M270.8,162l10,17.3l17.3-10"/>
																						<g transform="scale(-1,1)">
																							<path id="h_31_" class="st1" d="M270.8,162h20v20"/>
																						</g>
																					</g>
																					<g id="s_2_">
																						<g id="c_16_">
																							<path id="h_32_" class="st1" d="M305.4,162h-20v20"/>
																							<g transform="rotate(120)">
																								<path id="h_33_" class="st1" d="M305.4,162l-10,17.3l-17.3-10"/>
																							</g>
																						</g>
																						<g id="t_5_">
																							<g id="c_17_">
																								<path id="h_34_" class="st1" d="M288.1,192l10-17.3l-17.3-10"/>
																								<g transform="rotate(180)">
																									<path id="h_35_" class="st1" d="M288.1,192l-10-17.3l17.3-10"/>
																								</g>
																							</g>
																						</g>
																					</g>
																					<g>
																						<g>
																							<g>
																								<g id="c_18_">
																									<path id="h_36_" class="st0" d="M302.3,180.2l-8.2-14.2l-14.2,8.2"/>
																									<g transform="scale(-1,1)">
																										<path id="h_37_" class="st0" d="M302.3,180.2h-16.4v-16.4"/>
																									</g>
																								</g>
																								<g>
																									<g id="c_19_">
																										<path id="h_38_" class="st0" d="M273.9,180.2h16.4v-16.4"/>
																										<g transform="rotate(120)">
																											<path id="h_39_" class="st0" d="M273.9,180.2l8.2-14.2l14.2,8.2"/>
																										</g>
																									</g>
																									<g id="t_6_">
																										<g id="c_20_">
																											<path id="h_40_" class="st0" d="M288.1,155.6l-8.2,14.2l14.2,8.2"/>
																											<g transform="rotate(240)">
																												<path id="h_41_" class="st0" d="M288.1,155.6l8.2,14.2l-14.2,8.2"/>
																											</g>
																										</g>
																									</g>
																									<g transform="scale(0.82)">
																										<g transform="rotate(180)">
																											<g id="c_21_">
																												<path id="h_42_" class="st0" d="M273.9,163.8l8.2,14.2l14.2-8.2"/>
																												<g transform="scale(-1,1)">
																													<path id="h_43_" class="st0" d="M273.9,163.8h16.4v16.4"/>
																												</g>
																											</g>
																											<g transform="rotate(240)">
																												<g id="c_22_">
																													<path id="h_44_" class="st0" d="M302.3,163.8h-16.4v16.4"/>
																													<path id="h_45_" class="st0" d="M302.3,163.8l-8.2,14.2l-14.2-8.2"/>
																												</g>
																												<g id="star_1_">
																												</g>
																											</g>
																										</g>
																									</g>
																									<g>
																										<g>
																											<g transform="scale(0.82)">
																												<g transform="rotate(180)">
																												</g>
																												<g id="s_3_">
																												</g>
																											</g>
																										</g>
																									</g>
																								</g>
																							</g>
																						</g>
																					</g>
																				</g>
																			</g>
																		</g>
																	</g>
																</g>
															</g>
														</g>
													</g>
												</g>
											</g>
										</g>
									</g>
								</g>
							</g>
						</g>
					</g>
				</g>
			</g>
		</g>
	</g>
</g>
</svg>
