<?xml version="1.0" encoding="utf-8"?>
<!-- Generator: Adobe Illustrator 21.0.0, SVG Export Plug-In . SVG Version: 6.00 Build 0)  -->
<svg version="1.1" id="Layer_1" xmlns="http://www.w3.org/2000/svg" xmlns:xlink="http://www.w3.org/1999/xlink" x="0px" y="0px"
	 viewBox="0 0 1000 500" style="enable-background:new 0 0 1000 500;" xml:space="preserve">
<style type="text/css">
	.st0{fill:#EA0437;}
	.st1{fill:#4189DD;}
	.st2{fill:#12AD2B;}
	.st3{fill:#FFC726;}
</style>
<rect class="st0" width="1000" height="500"/>
<path class="st1" d="M0,500h1000V250"/>
<path class="st2" d="M0,0h1000v250"/>
<path class="st3" d="M230.2,369.2c-10.8,3-17,11.4-16.8,19.3l53.2-0.2c0.5-8.5-6.5-16.4-17.2-19.5c52.1-1.1,97.4-20.6,105.6-33.1
	c-8.1-3.5-17.5,2.2-24.3,0.8c15.9-7.4,63.6-38.2,55.9-71.4c-6,18.4-24.3,33.6-32.1,37.7c17.8-27.1,42.2-55.2,21-77.1
	c1.1,12.6-8,26.6-12.1,27.6c10.3-28.6,20.2-64.5-2.2-88.2c2.9,8.6,1.8,32.7-2.3,33.8c-1.2-19.4-4.6-60.4-25-59.8
	c6.5,5.8,9.4,21.6,9.5,37.6c-4.7-10.9-10-19.2-21.3-27.2c-9.2-17.6-25.5-32.2-41.8-42.6c1.8,12.8,3.4,22.9,21.2,36.2
	c-9.3-0.6-18.7-18.3-28.6-18.8c-7.9-0.4-14.2,7.2-27.1,2.8c1.4,4.3,7.5,6.2,8.8,9.3c-2.8,1.9-9.4-0.3-14.8-3.2
	c7.5,10.3,19.2,16.3,29.1,14.3c11.8-2.3,24.4-1.1,36.5,5.8c-3.1,1.6-15.1,1.6-22.7,0.6c7,7.1,11.7,11.8,23.8,11.7
	c10.9-0.1,16.5-5.8,19.3-2.2c6.8,8.1,11.4,16.1,17.1,25.6c-12.6,1.4-8.8-14.2-22.8-22.2c-7.9,16.3,9.1,35.6,20.6,43.6
	c0.2,12.2,1.9,22.5,7.1,31.8c3.5,6.6,8,13.3,6.3,28.1c-6.9-5-13.6-22-11.2-35.4c-8.6,2.4-12,17.5-7.9,25.2c3,5.8,5.1,17,1.6,21.9
	c-3.4,4.6-3.8,4.1-3.7,14.1c0.1,6-3.2,13-8.6,17.9c1.1-4.2,2.4-11.4,1.2-15.9c-4.3,7.3-15,14.8-18.4,22.6
	c-3.3,7.8-4.2,21.4-20.2,24.5c-20.7,4.1-27.8,7.7-41.1,13.1c-1.5-10.1,2.9-31.2,11.4-30c8.3,1.5,33.3-8.6,24.3-29.7
	c-1.8,6.6-7.7,13.1-14,13.4c6.9-8.9,19.2-18.2,13.2-33.2c-3.3,6.4-8.6,14-16.5,18.3c8.5-16.3,1-21.2-9.1-7.8
	c-3.8,5.2-6.1,15.6-8.5,28.8c-4-10.7-3.7-24.8-8.4-36.3c-4.9-12.4,6.5-15.7,11.9-14.7c13.2,3.5,35.2,3.5,33.6-18.3
	c-5.7,7.4-15.7,9.6-26.4,7c12.1-8.8,21.7-25.5,8.2-34.1c-0.4,9.2-7.6,19.5-17.1,24.3c-2.2-7.8-2.2-16-0.3-25
	c-5.3,5.6-9.2,17.2-12.3,30.4c-0.2-13.1,2.2-22.5,4.1-29.5c2.8-10.3,9.7-3.6,20.3-2.8c10.2,0.6,24.2-5.1,21.5-18.9
	c-3.5,5.5-10.6,7.6-17.9,7c8.8-5.3,24.1-14.8,15.7-29.3c-3.5,5.5-4.7,10.2-14.9,11.9c2.7-6.1,3.1-14.8,11-18.3
	c-14.1-2.8-22.2,6.5-26.3,21c-1.7-10.1-3.7-13.8-4-21.1c7.6-8.5,8.4-25.1-8.1-28.8c-1,8.6-0.7,10.6,1.2,17.6
	c-7.8-4.6-18.7-7.2-26-0.6c4.9,5.3,12.6,10,24.3,4.2c-2.8,9.1-10,7.5-19.9,4.1c6.1,11.4,13.7,13.4,22.2,12.1
	c4.4,11.7,4.6,20.5-8.3,37.5c0.6-10.6-0.2-18.4-8.5-27c-7.2-7-13,0.3-1.8,16c-6.8-5-14.5-15.2-16.9-25.4
	c-2.2,12.6-0.2,27.4,6.7,35.7c-3.3,3.5-7-0.4-12.6-9c2.1,27.6,13.9,32.9,29.7,26.7c0.4,15.1,0.4,29.2,1.3,47.4
	c-9.2-13.3-20.9-23.2-27.4-25.6c-2,7.4,5.6,17.1,9.9,22.5c-6.5-1.3-20.7-12.1-20.7-12.1c-1.4,12.3,14.5,23.7,24.7,28.8
	c-12.1-0.5-17.4-5.1-25.2-12.6c0.2,34.1,36.9,28.2,43.8,22.9c0.9,16.8,2.2,36.2,3.1,53c-10.4-1.8-9.6-4.9-18.5-5.8
	c-24.7-1-44.3-29.7-50.8-50.8c-1.9,3.5-0.4,7.1-2.1,11.4c-4-10.4-9.1-23.7-16-30c1.7,6,1.9,12.2,1.3,23.5c-2.4-7.3-4.6-9.6-4.7-18.1
	c0.2-6.6,6.4-11.5,6-20.7c-0.3-6.8-6.4-21.4-7.3-32.8c-3,11.7-4.9,24-9.4,31.2c2.3-12.5,1.5-21.1,5.4-29.5
	c4.4-8.8,8.2-16.7,5.3-25.7c-2.8,3.4-1.9,6.6-9,15c-1.5-9.1,9.2-23.7,19.7-29.5c7.4-3.9,16.7-17.8,10.6-27.3
	c-6.9,5-10,11.7-19.8,23.2c7-27.3,25.1-34.4,46.9-34.5c4.8,0,14.5-1.8,17.2-8.1c-6.1,2.4-13.4,2.7-19.8,1.4c4.7-6.9,14.6-6,23.8-6
	c7.2,0,18.5-1,23-11.3c-8.8,3.8-22.5,4.6-31.2,1.9c13.8-7.1,35.3-7.9,46.3-17.2c-12.6-9.4-44.1,2.2-64,15.8
	c5.6-5.1,14.4-14.1,19.2-21.4c-10.9-5.2-38.4,25.3-47.9,43.4c-9,5.1-12.6,13.1-16.1,18.6c4.8-16.2,5.3-28,9.3-41.3
	c-30.9,10.6-18,67.7-24.8,81.3c0.8-15.1,0.2-34.4-6.1-44.4c-9.5,7.3-10.3,50-1.3,85.5c-3.2-9.5-9.3-18.4-11.3-30
	c-14.1,25.7,8.3,56,26.9,79.9c-14.1-7.3-28-23.1-37.1-36.3c2.5,45.9,50.5,55.5,57.9,66.8c-10.1-4.7-29.4-14-37.6-4.3
	c13.4,3.1,24,6.6,32.6,12.3C165.6,360.6,189.2,367.4,230.2,369.2L230.2,369.2z"/>
</svg>
