<?xml version="1.0" encoding="utf-8"?>
<!-- Generator: Adobe Illustrator 21.0.0, SVG Export Plug-In . SVG Version: 6.00 Build 0)  -->
<svg version="1.1" id="Layer_1" xmlns="http://www.w3.org/2000/svg" xmlns:xlink="http://www.w3.org/1999/xlink" x="0px" y="0px"
	 viewBox="0 0 900 600" style="enable-background:new 0 0 900 600;" xml:space="preserve">
<style type="text/css">
	.st0{fill:#003580;}
	.st1{fill:#009543;}
	.st2{stroke:#FFFFFF;stroke-width:20;}
	.st3{stroke:#D21034;stroke-width:15;}
	.st4{fill:#FFCE00;}
	.st5{fill:#FFCE00;stroke:#003580;}
</style>
<path class="st0" d="M900,0H0v600L900,0z"/>
<path class="st1" d="M0,600h900V0L0,600z"/>
<path class="st2" d="M0,600L900,0"/>
<path class="st3" d="M0,600L900,0"/>
<g>
	<g id="r4">
		<path id="r" class="st4" d="M162,247.1l15.5-42h-31.1L162,247.1z"/>
		<g transform="rotate(90)">
			<path id="r_1_" class="st4" d="M62,147.1l42,15.5v-31.1L62,147.1z"/>
		</g>
		<g transform="rotate(180)">
			<path id="r_2_" class="st4" d="M162,47.1l-15.5,42h31.1L162,47.1z"/>
		</g>
		<g transform="rotate(270)">
			<path id="r_3_" class="st4" d="M262,147.1l-42-15.5v31.1L262,147.1z"/>
		</g>
	</g>
	<g>
		<g id="r4_1_">
			<path id="r_4_" class="st4" d="M112,233.7l34.5-28.6l-26.9-15.5L112,233.7z"/>
			<g transform="rotate(90)">
				<path id="r_5_" class="st4" d="M75.4,97.1l28.6,34.5l15.5-26.9L75.4,97.1z"/>
			</g>
			<g transform="rotate(180)">
				<path id="r_6_" class="st4" d="M212,60.5l-34.5,28.6l26.9,15.5L212,60.5z"/>
			</g>
			<g transform="rotate(30)">
				<path id="r_7_" class="st4" d="M248.6,197.1L220,162.6l-15.5,26.9L248.6,197.1z"/>
			</g>
		</g>
		<g transform="translate(18,16.34148)">
			<g id="r4_2_">
				<path id="r_8_" class="st4" d="M75.4,197.1l44.2-7.6L104,162.6L75.4,197.1z"/>
				<g transform="rotate(90)">
					<path id="r_9_" class="st4" d="M112,60.5l7.6,44.2l26.9-15.5L112,60.5z"/>
				</g>
				<g transform="rotate(180)">
					<path id="r_10_" class="st4" d="M248.6,97.1l-44.2,7.6l15.5,26.9L248.6,97.1z"/>
				</g>
				<g transform="rotate(60)">
					<path id="r_11_" class="st4" d="M212,233.7l-7.6-44.2L177.5,205L212,233.7z"/>
				</g>
			</g>
			<circle class="st5" cx="162" cy="147.1" r="55"/>
		</g>
	</g>
</g>
</svg>
