<?xml version="1.0" encoding="utf-8"?>
<!-- Generator: Adobe Illustrator 21.0.0, SVG Export Plug-In . SVG Version: 6.00 Build 0)  -->
<svg version="1.1" id="Layer_1" xmlns="http://www.w3.org/2000/svg" xmlns:xlink="http://www.w3.org/1999/xlink" x="0px" y="0px"
	 viewBox="0 0 600 300" style="enable-background:new 0 0 600 300;" xml:space="preserve">
<style type="text/css">
	.st0{fill:#DB161B;}
	.st1{fill:#FFFFFF;}
	.st2{fill:#008000;}
	.st3{fill:#FFFFFF;stroke:#DB161B;stroke-width:0.2833;}
	.st4{fill:#FFFFFF;stroke:#DB161B;stroke-width:0.2642;}
	.st5{fill:#FFFFFF;stroke:#DB161B;stroke-width:0.1668;}
	.st6{fill:#FFFFFF;stroke:#DB161B;}
	.st7{fill:#FFFFFF;stroke:#DB161B;stroke-width:0.4237;}
	.st8{fill:#FFFFFF;stroke:#DB161B;stroke-width:0.3303;}
	.st9{fill:none;stroke:#DB161B;stroke-width:0.3303;}
	.st10{fill:#FFFFFF;stroke:#DB161B;stroke-width:0.3352;}
	.st11{fill:#FFFFFF;stroke:#DB161B;stroke-width:0.2945;}
	.st12{fill:#FFFFFF;stroke:#DB161B;stroke-width:0.3342;}
	.st13{fill:#FFFFFF;stroke:#DB161B;stroke-width:0.335;}
	.st14{fill:#DB161B;stroke:#DB161B;}
	.st15{fill:#FFFFFF;stroke:#DB161B;stroke-width:0.3051;}
	.st16{fill:#FFFFFF;stroke:#DB161B;stroke-width:4.4628;}
	.st17{fill:#FFFFFF;stroke:#DB161B;stroke-width:4.4629;}
	.st18{fill:#FFFFFF;stroke:#DB161B;stroke-width:0.1881;}
	.st19{fill:#FFFFFF;stroke:#DB161B;stroke-width:0.3234;}
	.st20{fill:#FFFFFF;stroke:#DB161B;stroke-width:0.2734;}
	.st21{fill:#FFFFFF;stroke:#DB161B;stroke-width:0.2849;}
	.st22{fill:#FFFFFF;stroke:#DB161B;stroke-width:0.2686;}
	.st23{fill:#FFFFFF;stroke:#DB161B;stroke-width:0.2733;}
</style>
<title>Flag of Oman</title>
<rect class="st0" width="600" height="300"/>
<rect x="150" class="st1" width="450" height="100"/>
<rect x="150" y="200" class="st2" width="450" height="100"/>
<g id="a">
	<path class="st3" d="M34.5,51.3h16.1c0.9,0,1.6,0.7,1.6,1.5v7.6c0,0.8-0.7,1.5-1.6,1.5H34.5c-0.9,0-1.6-0.7-1.6-1.5v-7.6
		C32.9,52,33.6,51.3,34.5,51.3z"/>
	<path class="st4" d="M34.9,51.8h15.3c0.8,0,1.5,0.6,1.5,1.4v7c0,0.8-0.7,1.4-1.5,1.4H34.9c-0.8,0-1.5-0.6-1.5-1.4v-7
		C33.4,52.4,34.1,51.8,34.9,51.8z"/>
	<path class="st5" d="M42,54.4l0.9,0l0,0.4l0.8,0.4l0.6-0.5l0.7,0.4l-0.7,0.4l0.2,0.6l0.8,0v0.8l-0.7,0l-0.3,0.5l0.8,0.5l-0.6,0.5
		l-0.6-0.5l-0.9,0.2l0,0.7l-1,0.1l-0.1-0.7L41,57.8l-0.5,0.5l-0.7-0.4l0.4-0.5L39.7,57H39l0-1l0.7,0.1l0.5-0.6l-0.6-0.5l0.8-0.5
		l0.5,0.4l0.9-0.1C41.8,54.8,42,54.4,42,54.4z"/>
	<ellipse class="st6" cx="42.2" cy="56.5" rx="1" ry="0.9"/>
	<path class="st4" d="M35.9,52.2l-1.5,1.3"/>
	<path class="st4" d="M36.9,52.2l-1.5,1.3"/>
	<path class="st4" d="M37.9,52.2l-1.5,1.3"/>
	<path class="st4" d="M38.9,52.2l-1.5,1.3"/>
	<path class="st4" d="M39.9,52.2l-1.5,1.3"/>
	<path class="st4" d="M40.9,52.2l-1.5,1.3"/>
	<path class="st4" d="M41.9,52.2l-1.5,1.3"/>
	<path class="st4" d="M42.8,52.2l-1.5,1.3"/>
	<path class="st4" d="M43.8,52.2l-1.5,1.3"/>
	<path class="st4" d="M44.8,52.2l-1.5,1.3"/>
	<path class="st4" d="M45.8,52.2l-1.5,1.3"/>
	<path class="st4" d="M46.8,52.2l-1.5,1.3"/>
	<path class="st4" d="M42.8,52.2l-1.5,1.3"/>
	<path class="st4" d="M47.8,52.2l-1.5,1.3"/>
	<path class="st4" d="M48.8,52.2l-1.5,1.3"/>
	<path class="st4" d="M49.8,52.2l-1.5,1.3"/>
	<path class="st4" d="M50.8,52.2l-1.5,1.3"/>
	<path class="st4" d="M49.3,52.2l1.5,1.3"/>
	<path class="st4" d="M48.3,52.2l1.5,1.3"/>
	<path class="st4" d="M47.3,52.2l1.5,1.3"/>
	<path class="st4" d="M46.3,52.2l1.5,1.3"/>
	<path class="st4" d="M45.3,52.2l1.5,1.3"/>
	<path class="st4" d="M44.3,52.2l1.5,1.3"/>
	<path class="st4" d="M43.3,52.2l1.5,1.3"/>
	<path class="st4" d="M42.3,52.2l1.5,1.3"/>
	<path class="st4" d="M41.4,52.2l1.5,1.3"/>
	<path class="st4" d="M40.4,52.2l1.5,1.3"/>
	<path class="st4" d="M39.4,52.2l1.5,1.3"/>
	<path class="st4" d="M38.4,52.2l1.5,1.3"/>
	<path class="st4" d="M42.3,52.2l1.5,1.3"/>
	<path class="st4" d="M37.4,52.2l1.5,1.3"/>
	<path class="st4" d="M36.4,52.2l1.5,1.3"/>
	<path class="st4" d="M35.4,52.2l1.5,1.3"/>
	<path class="st4" d="M34.4,52.2l1.5,1.3"/>
	<path class="st4" d="M35.9,59.7L34.4,61"/>
	<path class="st4" d="M36.9,59.7L35.4,61"/>
	<path class="st4" d="M37.9,59.7L36.4,61"/>
	<path class="st4" d="M38.9,59.7L37.4,61"/>
	<path class="st4" d="M39.9,59.7L38.4,61"/>
	<path class="st4" d="M40.9,59.7L39.4,61"/>
	<path class="st4" d="M41.9,59.7L40.4,61"/>
	<path class="st4" d="M42.8,59.7L41.4,61"/>
	<path class="st4" d="M43.8,59.7L42.3,61"/>
	<path class="st4" d="M44.8,59.7L43.3,61"/>
	<path class="st4" d="M45.8,59.7L44.3,61"/>
	<path class="st4" d="M46.8,59.7L45.3,61"/>
	<path class="st4" d="M42.8,59.7L41.4,61"/>
	<path class="st4" d="M47.8,59.7L46.3,61"/>
	<path class="st4" d="M48.8,59.7L47.3,61"/>
	<path class="st4" d="M49.8,59.7L48.3,61"/>
	<path class="st4" d="M50.8,59.7L49.3,61"/>
	<path class="st4" d="M49.3,59.7l1.5,1.3"/>
	<path class="st4" d="M48.3,59.7l1.5,1.3"/>
	<path class="st4" d="M47.3,59.7l1.5,1.3"/>
	<path class="st4" d="M46.3,59.7l1.5,1.3"/>
	<path class="st4" d="M45.3,59.7l1.5,1.3"/>
	<path class="st4" d="M44.3,59.7l1.5,1.3"/>
	<path class="st4" d="M43.3,59.7l1.5,1.3"/>
	<path class="st4" d="M42.3,59.7l1.5,1.3"/>
	<path class="st4" d="M41.4,59.7l1.5,1.3"/>
	<path class="st4" d="M40.4,59.7l1.5,1.3"/>
	<path class="st4" d="M39.4,59.7l1.5,1.3"/>
	<path class="st4" d="M38.4,59.7l1.5,1.3"/>
	<path class="st4" d="M42.3,59.7l1.5,1.3"/>
	<path class="st4" d="M37.4,59.7l1.5,1.3"/>
	<path class="st4" d="M36.4,59.7l1.5,1.3"/>
	<path class="st4" d="M35.4,59.7l1.5,1.3"/>
	<path class="st4" d="M34.4,59.7l1.5,1.3"/>
</g>
<g transform="scale(-1,1)">
	<g id="a_1_">
		<path class="st3" d="M115.5,51.3H99.3c-0.9,0-1.6,0.7-1.6,1.5v7.6c0,0.8,0.7,1.5,1.6,1.5h16.1c0.9,0,1.6-0.7,1.6-1.5v-7.6
			C117.1,52,116.4,51.3,115.5,51.3z"/>
		<path class="st4" d="M115.1,51.8H99.8c-0.8,0-1.5,0.6-1.5,1.4v7c0,0.8,0.7,1.4,1.5,1.4h15.3c0.8,0,1.5-0.6,1.5-1.4v-7
			C116.6,52.4,115.9,51.8,115.1,51.8z"/>
		<path class="st5" d="M108,54.4l-0.9,0l0,0.4l-0.8,0.4l-0.6-0.5l-0.7,0.4l0.7,0.4l-0.2,0.6l-0.8,0v0.8l0.7,0l0.3,0.5l-0.8,0.5
			l0.6,0.5l0.6-0.5l0.9,0.2l0,0.7l1,0.1l0.1-0.7l0.8-0.4l0.5,0.5l0.7-0.4l-0.4-0.5l0.5-0.4h0.7l0-1l-0.7,0.1l-0.5-0.6l0.6-0.5
			l-0.8-0.5l-0.5,0.4l-0.9-0.1C108.2,54.8,108,54.4,108,54.4z"/>
		<ellipse class="st6" cx="107.8" cy="56.5" rx="1" ry="0.9"/>
		<path class="st4" d="M114.1,52.2l1.5,1.3"/>
		<path class="st4" d="M113.1,52.2l1.5,1.3"/>
		<path class="st4" d="M112.1,52.2l1.5,1.3"/>
		<path class="st4" d="M111.1,52.2l1.5,1.3"/>
		<path class="st4" d="M110.1,52.2l1.5,1.3"/>
		<path class="st4" d="M109.1,52.2l1.5,1.3"/>
		<path class="st4" d="M108.1,52.2l1.5,1.3"/>
		<path class="st4" d="M107.2,52.2l1.5,1.3"/>
		<path class="st4" d="M106.2,52.2l1.5,1.3"/>
		<path class="st4" d="M105.2,52.2l1.5,1.3"/>
		<path class="st4" d="M104.2,52.2l1.5,1.3"/>
		<path class="st4" d="M103.2,52.2l1.5,1.3"/>
		<path class="st4" d="M107.2,52.2l1.5,1.3"/>
		<path class="st4" d="M102.2,52.2l1.5,1.3"/>
		<path class="st4" d="M101.2,52.2l1.5,1.3"/>
		<path class="st4" d="M100.2,52.2l1.5,1.3"/>
		<path class="st4" d="M99.2,52.2l1.5,1.3"/>
		<path class="st4" d="M100.7,52.2l-1.5,1.3"/>
		<path class="st4" d="M101.7,52.2l-1.5,1.3"/>
		<path class="st4" d="M102.7,52.2l-1.5,1.3"/>
		<path class="st4" d="M103.7,52.2l-1.5,1.3"/>
		<path class="st4" d="M104.7,52.2l-1.5,1.3"/>
		<path class="st4" d="M105.7,52.2l-1.5,1.3"/>
		<path class="st4" d="M106.7,52.2l-1.5,1.3"/>
		<path class="st4" d="M107.7,52.2l-1.5,1.3"/>
		<path class="st4" d="M108.6,52.2l-1.5,1.3"/>
		<path class="st4" d="M109.6,52.2l-1.5,1.3"/>
		<path class="st4" d="M110.6,52.2l-1.5,1.3"/>
		<path class="st4" d="M111.6,52.2l-1.5,1.3"/>
		<path class="st4" d="M107.7,52.2l-1.5,1.3"/>
		<path class="st4" d="M112.6,52.2l-1.5,1.3"/>
		<path class="st4" d="M113.6,52.2l-1.5,1.3"/>
		<path class="st4" d="M114.6,52.2l-1.5,1.3"/>
		<path class="st4" d="M115.6,52.2l-1.5,1.3"/>
		<path class="st4" d="M114.1,59.7l1.5,1.3"/>
		<path class="st4" d="M113.1,59.7l1.5,1.3"/>
		<path class="st4" d="M112.1,59.7l1.5,1.3"/>
		<path class="st4" d="M111.1,59.7l1.5,1.3"/>
		<path class="st4" d="M110.1,59.7l1.5,1.3"/>
		<path class="st4" d="M109.1,59.7l1.5,1.3"/>
		<path class="st4" d="M108.1,59.7l1.5,1.3"/>
		<path class="st4" d="M107.2,59.7l1.5,1.3"/>
		<path class="st4" d="M106.2,59.7l1.5,1.3"/>
		<path class="st4" d="M105.2,59.7l1.5,1.3"/>
		<path class="st4" d="M104.2,59.7l1.5,1.3"/>
		<path class="st4" d="M103.2,59.7l1.5,1.3"/>
		<path class="st4" d="M107.2,59.7l1.5,1.3"/>
		<path class="st4" d="M102.2,59.7l1.5,1.3"/>
		<path class="st4" d="M101.2,59.7l1.5,1.3"/>
		<path class="st4" d="M100.2,59.7l1.5,1.3"/>
		<path class="st4" d="M99.2,59.7l1.5,1.3"/>
		<path class="st4" d="M100.7,59.7L99.2,61"/>
		<path class="st4" d="M101.7,59.7l-1.5,1.3"/>
		<path class="st4" d="M102.7,59.7l-1.5,1.3"/>
		<path class="st4" d="M103.7,59.7l-1.5,1.3"/>
		<path class="st4" d="M104.7,59.7l-1.5,1.3"/>
		<path class="st4" d="M105.7,59.7l-1.5,1.3"/>
		<path class="st4" d="M106.7,59.7l-1.5,1.3"/>
		<path class="st4" d="M107.7,59.7l-1.5,1.3"/>
		<path class="st4" d="M108.6,59.7l-1.5,1.3"/>
		<path class="st4" d="M109.6,59.7l-1.5,1.3"/>
		<path class="st4" d="M110.6,59.7l-1.5,1.3"/>
		<path class="st4" d="M111.6,59.7l-1.5,1.3"/>
		<path class="st4" d="M107.7,59.7l-1.5,1.3"/>
		<path class="st4" d="M112.6,59.7l-1.5,1.3"/>
		<path class="st4" d="M113.6,59.7l-1.5,1.3"/>
		<path class="st4" d="M114.6,59.7l-1.5,1.3"/>
		<path class="st4" d="M115.6,59.7l-1.5,1.3"/>
	</g>
</g>
<g id="b">
	<path class="st7" d="M63.3,73.6C39.2,97.1,28.9,100.1,33.8,102s20.3-10.2,36.4-26.4c16.1-16.1,26-30.5,21.2-32.4
		C86.5,41.3,88.8,48.5,63.3,73.6z"/>
	<path class="st8" d="M43,90.7l8.4,2.2c-7.9,7.5-16.9,10.6-19.3,9.3C29.6,100.8,36.6,97.7,43,90.7z"/>
	<path class="st8" d="M43,91.5l6.9,1.8c-7.7,7.2-15.4,9.3-17.3,8.4C30.6,100.8,36.7,98.3,43,91.5z"/>
	<path class="st9" d="M68.9,72.5c0,0.1-0.1,0.6-0.1,0.8c0,0.3,0,0.5-0.1,0.7c-0.1,0.2-0.1,0.4-0.3,0.4c-0.2,0.2-0.3,0.3-0.5,0.4
		c-0.2,0.1-0.4,0.2-0.6,0.3c-0.2,0.1-0.5,0.1-0.7,0.1c-0.2-0.1-0.4-0.3-0.6-0.4c0-0.2-0.1-0.4-0.1-0.6c0.1,0.2,0.1,0.5,0.1,0.7
		c0,0.3-0.1,0.4-0.2,0.6"/>
	<path class="st9" d="M66.6,76.2C66.6,76.2,66.6,76.1,66.6,76.2c0.1,0.1,0,0-0.3-0.2c-0.2-0.1-0.5-0.2-0.8-0.2h-0.9
		c-0.3,0-0.6,0-0.8,0.1c-0.2,0.2-0.4,0.2-0.6,0.4c-0.2,0.1-0.3,0.2-0.4,0.4c-0.2,0.2-0.3,0.4-0.4,0.5c-0.1,0.2-0.2,0.2-0.3,0.4
		c0.3,0,0.5,0.1,0.7,0.2c0.3,0.1-0.2-0.1-0.3-0.2c-0.2-0.1-0.3-0.1-0.6-0.1c-0.3-0.1-0.5,0.1-0.7,0.1c-0.2,0.1-0.2,0.1-0.4,0.1"/>
	<path class="st9" d="M63.3,78.9c-0.1,0-0.7,0.1-0.9,0c-0.2-0.1-0.4-0.2-0.6-0.4c-0.1-0.1,0,0.3,0,0.4c0,0.3-0.1,0.3-0.3,0.5
		c-0.2,0.1-0.4,0.2-0.6,0.3c-0.2,0.1-0.3,0.2-0.6,0.3c-0.2,0.1-0.4,0.2-0.6,0.3c-0.2,0.1-0.2,0.3-0.3,0.5c0,0.3,0.1,0.4,0.2,0.6
		c0.1,0.2,0.2,0.4,0.4,0.5c0.2,0.2,0.3,0.4-0.1,0.4c-0.2,0.1-0.3,0-0.5,0"/>
	<path class="st9" d="M59.4,82.7c-0.2,0-0.7-0.2-0.9-0.3h-0.9c-0.3,0-0.4,0.1-0.7,0.2c-0.2,0.2-0.3,0.3-0.6,0.4
		c-0.1,0.2-0.4,0.4-0.5,0.6c-0.1,0.2-0.1,0.4-0.1,0.7c0,0.3,0.1,0.4,0.1,0.7c0.1,0.2,0.2,0.4,0.4,0.7c0,0.1,0,0.1,0.1,0.1"/>
	<path class="st9" d="M56.5,86.5c0,0-0.1,0.1-0.2,0.3C56.1,87,56.1,87,55.8,87c-0.3,0-0.2-0.1-0.4-0.2c-0.1-0.1-0.2-0.2-0.3-0.4
		c-0.1-0.1-0.1-0.3-0.2-0.4c-0.1-0.1-0.2-0.2-0.3-0.3c-0.1,0-0.1-0.1-0.2-0.1c0.2,0,0.3,0.1,0.4,0.3c0.1,0.1,0.2,0.2,0.2,0.4
		c0,0.2,0.1,0.3,0.1,0.6c0,0.2,0,0.4-0.1,0.6c-0.1,0.1-0.2,0.2-0.3,0.3c-0.1,0.1-0.2,0.2-0.3,0.3c-0.1,0.1-0.2,0.2-0.4,0.3
		c-0.1,0.1-0.3,0.2-0.5,0.2c-0.3,0-0.3-0.1-0.5-0.2c-0.2-0.1-0.3-0.2-0.4-0.3c-0.1-0.1-0.2-0.2-0.3-0.3c-0.2-0.1-0.4,0-0.5,0.1
		c-0.1,0.1-0.2,0.2-0.3,0.3c-0.1,0-0.2,0.1-0.3,0.2"/>
	<path class="st9" d="M51.7,88.3c0.1,0,0.3,0.2,0.4,0.3c0.1,0.2,0.2,0.3,0.2,0.6c0.1,0.2,0.1,0.5,0.1,0.8c-0.1,0.3-0.2,0.5-0.3,0.7
		c-0.2,0.1-0.3,0.2-0.5,0.3c-0.2,0-0.4,0.1-0.7,0.1c-0.2,0.1-0.5,0.1-0.7,0c-0.2,0-0.4-0.1-0.6-0.2c-0.2-0.1-0.3-0.2-0.5-0.3
		c-0.1-0.2-0.3-0.3-0.4-0.5c-0.1-0.2-0.2-0.3-0.3-0.5c0.1,0.2,0.2,0.4,0.3,0.6c0.1,0.2,0.2,0.3,0.2,0.6c0.1,0.2,0.1,0.5,0.1,0.8
		c0,0.2,0,0.5-0.1,0.6v0.2"/>
	<path class="st9" d="M43.6,93.1L43.6,93.1c0-0.1,0,0,0.1,0.4c0.2,0.2,0.6,0.2,0.9,0.2c0.3-0.2,0.3-0.4,0.8-0.5c0.5,0,0.7,0.2,1,0.3
		c0.3,0.1,0.5,0.2,0.7,0.5c0.1,0.3,0.2,0.4-0.2,0.5c-0.3,0.2-0.6,0.3-1,0.3c-0.4,0-0.7,0-0.9,0.2c-0.3,0.3-0.3,0.4-0.3,0.9
		c-0.1,0.1-0.1,0.6-0.2,0.7c-0.2,0.1-0.4,0.2-0.8,0.2c-0.1-0.2-0.2-0.7-0.3-0.9c-0.1-0.3-0.1-0.7-0.3-0.9c-0.2-0.2-0.4-0.4-0.6-0.5
		c-0.1-0.1-0.3-0.2-0.5-0.3c0.3,0.2,0.4,0.3,0.4,0.7c-0.3,0.1-0.4,0.2-0.9,0.2c-0.5,0-0.6-0.1-0.8-0.4c0,0.4-0.2,0.5-0.3,0.9
		c-0.2,0.2-0.3,0.5-0.4,0.8c0.1,0.4,0.2,0.4,0.3,0.9c0.1,0.3,0.1,0.6,0.3,0.8c0.1,0.1,0.2,0.1,0.4,0.2c-0.5,0-0.8-0.1-1.1-0.2
		c-0.3-0.1-0.5-0.3-0.7-0.5c-0.3-0.2-0.7-0.4-1-0.5c-0.4,0-0.7,0-0.9,0.2c-0.2,0.2-0.4,0.4-0.5,0.8c-0.1,0.4-0.1,0.7,0.1,0.9
		c0.1,0.3,0.2,0.4,0,0.8c-0.2,0.3-0.5,0.3-1,0.4c-0.3,0-0.7-0.1-0.9-0.2"/>
	<path class="st10" d="M90.7,52.3c10.7-18.4,17.8-34.1,15.8-35c-1.9-0.9-12.2,13.3-22.9,31.8L90.7,52.3z"/>
	<path class="st11" d="M90,52c10.3-17.8,17.4-32.8,15.8-33.5S94.7,31.6,84.4,49.4"/>
	<path class="st12" d="M88.2,42.7c-1.3,2.1-2.6,4.5-3.9,6.7L90,52c1.3-2.2,2.7-4.6,3.9-6.7C93.9,45.3,88.2,42.7,88.2,42.7z"/>
	<path class="st12" d="M88.7,43.4c-1.2,2.1-2.1,3.7-3.4,5.9l4.2,1.9c1.3-2.2,2.2-3.8,3.4-5.9C92.9,45.4,88.7,43.4,88.7,43.4z"/>
	<polygon class="st13" points="91.8,45.9 89,44.6 86.5,48.9 89.3,50.2 	"/>
	<path class="st12" d="M91.8,45.9l-5.3,3"/>
	<path class="st12" d="M89.3,50.2L89,44.6"/>
	<path class="st12" d="M104.5,23.9l-2.8-1.3"/>
	<ellipse transform="matrix(0.9685 -0.2492 0.2492 0.9685 -1.9742 26.6651)" class="st14" cx="104.3" cy="21.1" rx="0.8" ry="0.7"/>
</g>
<g transform="scale(-1,1)">
	<g id="b_1_">
		<path class="st7" d="M86.7,73.6c24.1,23.5,34.3,26.5,29.5,28.4S95.9,91.7,79.8,75.6c-16.1-16.1-26-30.5-21.2-32.4
			C63.5,41.3,61.2,48.5,86.7,73.6z"/>
		<path class="st8" d="M107,90.7l-8.4,2.2c7.9,7.5,16.9,10.6,19.3,9.3C120.4,100.8,113.4,97.7,107,90.7z"/>
		<path class="st8" d="M107,91.5l-6.9,1.8c7.7,7.2,15.4,9.3,17.3,8.4C119.4,100.8,113.3,98.3,107,91.5z"/>
		<path class="st9" d="M81.1,72.5c0,0.1,0.1,0.6,0.1,0.8c0,0.3,0,0.5,0.1,0.7c0.1,0.2,0.1,0.4,0.3,0.4c0.2,0.2,0.3,0.3,0.5,0.4
			c0.2,0.1,0.4,0.2,0.6,0.3c0.2,0.1,0.5,0.1,0.7,0.1c0.2-0.1,0.4-0.3,0.6-0.4c0-0.2,0.1-0.4,0.1-0.6C84.1,74.5,84,74.7,84,75
			c0,0.3,0.1,0.4,0.2,0.6"/>
		<path class="st9" d="M83.4,76.2C83.4,76.2,83.4,76.1,83.4,76.2c-0.1,0.1,0,0,0.3-0.2c0.2-0.1,0.5-0.2,0.8-0.2h0.9
			c0.3,0,0.6,0,0.8,0.1c0.2,0.2,0.4,0.2,0.6,0.4c0.2,0.1,0.3,0.2,0.4,0.4c0.2,0.2,0.3,0.4,0.4,0.5c0.1,0.2,0.2,0.2,0.3,0.4
			c-0.3,0-0.5,0.1-0.7,0.2c-0.3,0.1,0.2-0.1,0.3-0.2c0.2-0.1,0.3-0.1,0.6-0.1c0.3-0.1,0.5,0.1,0.7,0.1c0.2,0.1,0.2,0.1,0.4,0.1"/>
		<path class="st9" d="M86.7,78.9c0.1,0,0.7,0.1,0.9,0c0.2-0.1,0.4-0.2,0.6-0.4c0.1-0.1,0,0.3,0,0.4c0,0.3,0.1,0.3,0.3,0.5
			c0.2,0.1,0.4,0.2,0.6,0.3c0.2,0.1,0.3,0.2,0.6,0.3c0.2,0.1,0.4,0.2,0.6,0.3c0.2,0.1,0.2,0.3,0.3,0.5c0,0.3-0.1,0.4-0.2,0.6
			c-0.1,0.2-0.2,0.4-0.4,0.5c-0.2,0.2-0.3,0.4,0.1,0.4c0.2,0.1,0.3,0,0.5,0"/>
		<path class="st9" d="M90.6,82.7c0.2,0,0.7-0.2,0.9-0.3h0.9c0.3,0,0.4,0.1,0.7,0.2c0.2,0.2,0.3,0.3,0.6,0.4
			c0.1,0.2,0.4,0.4,0.5,0.6c0.1,0.2,0.1,0.4,0.1,0.7c0,0.3-0.1,0.4-0.1,0.7c-0.1,0.2-0.2,0.4-0.4,0.7c0,0.1,0,0.1-0.1,0.1"/>
		<path class="st9" d="M93.5,86.5c0,0,0.1,0.1,0.2,0.3c0.2,0.2,0.2,0.2,0.5,0.2c0.3,0,0.2-0.1,0.4-0.2c0.1-0.1,0.2-0.2,0.3-0.4
			c0.1-0.1,0.1-0.3,0.2-0.4c0.1-0.1,0.2-0.2,0.3-0.3c0.1,0,0.1-0.1,0.2-0.1c-0.2,0-0.3,0.1-0.4,0.3c-0.1,0.1-0.2,0.2-0.2,0.4
			c0,0.2-0.1,0.3-0.1,0.6c0,0.2,0,0.4,0.1,0.6c0.1,0.1,0.2,0.2,0.3,0.3c0.1,0.1,0.2,0.2,0.3,0.3c0.1,0.1,0.2,0.2,0.4,0.3
			c0.1,0.1,0.3,0.2,0.5,0.2c0.3,0,0.3-0.1,0.5-0.2c0.2-0.1,0.3-0.2,0.4-0.3c0.1-0.1,0.2-0.2,0.3-0.3c0.2-0.1,0.4,0,0.5,0.1
			c0.1,0.1,0.2,0.2,0.3,0.3c0.1,0,0.2,0.1,0.3,0.2"/>
		<path class="st9" d="M98.3,88.3c-0.1,0-0.3,0.2-0.4,0.3c-0.1,0.2-0.2,0.3-0.2,0.6c-0.1,0.2-0.1,0.5-0.1,0.8
			c0.1,0.3,0.2,0.5,0.3,0.7c0.2,0.1,0.3,0.2,0.5,0.3c0.2,0,0.4,0.1,0.7,0.1c0.2,0.1,0.5,0.1,0.7,0c0.2,0,0.4-0.1,0.6-0.2
			c0.2-0.1,0.3-0.2,0.5-0.3c0.1-0.2,0.3-0.3,0.4-0.5c0.1-0.2,0.2-0.3,0.3-0.5c-0.1,0.2-0.2,0.4-0.3,0.6c-0.1,0.2-0.2,0.3-0.2,0.6
			c-0.1,0.2-0.1,0.5-0.1,0.8c0,0.2,0,0.5,0.1,0.6v0.2"/>
		<path class="st9" d="M106.4,93.1L106.4,93.1c0-0.1,0,0-0.1,0.4c-0.2,0.2-0.6,0.2-0.9,0.2c-0.3-0.2-0.3-0.4-0.8-0.5
			c-0.5,0-0.7,0.2-1,0.3c-0.3,0.1-0.5,0.2-0.7,0.5c-0.1,0.3-0.2,0.4,0.2,0.5c0.3,0.2,0.6,0.3,1,0.3c0.4,0,0.7,0,0.9,0.2
			c0.3,0.3,0.3,0.4,0.3,0.9c0.1,0.1,0.1,0.6,0.2,0.7c0.2,0.1,0.4,0.2,0.8,0.2c0.1-0.2,0.2-0.7,0.3-0.9c0.1-0.3,0.1-0.7,0.3-0.9
			c0.2-0.2,0.4-0.4,0.6-0.5c0.1-0.1,0.3-0.2,0.5-0.3c-0.3,0.2-0.4,0.3-0.4,0.7c0.3,0.1,0.4,0.2,0.9,0.2c0.5,0,0.6-0.1,0.8-0.4
			c0,0.4,0.2,0.5,0.3,0.9c0.2,0.2,0.3,0.5,0.4,0.8c-0.1,0.4-0.2,0.4-0.3,0.9c-0.1,0.3-0.1,0.6-0.3,0.8c-0.1,0.1-0.2,0.1-0.4,0.2
			c0.5,0,0.8-0.1,1.1-0.2c0.3-0.1,0.5-0.3,0.7-0.5c0.3-0.2,0.7-0.4,1-0.5c0.4,0,0.7,0,0.9,0.2c0.2,0.2,0.4,0.4,0.5,0.8
			c0.1,0.4,0.1,0.7-0.1,0.9c-0.1,0.3-0.2,0.4,0,0.8c0.2,0.3,0.5,0.3,1,0.4c0.3,0,0.7-0.1,0.9-0.2"/>
		<path class="st10" d="M59.3,52.3c-10.7-18.4-17.8-34.1-15.8-35c1.9-0.9,12.2,13.3,22.9,31.8L59.3,52.3z"/>
		<path class="st11" d="M60,52C49.7,34.2,42.6,19.2,44.2,18.5s11.2,13.1,21.5,30.9"/>
		<path class="st12" d="M61.8,42.7c1.3,2.1,2.6,4.5,3.9,6.7L60,52c-1.3-2.2-2.7-4.6-3.9-6.7C56.1,45.3,61.8,42.7,61.8,42.7z"/>
		<path class="st12" d="M61.3,43.4c1.2,2.1,2.1,3.7,3.4,5.9l-4.2,1.9c-1.3-2.2-2.2-3.8-3.4-5.9C57.1,45.4,61.3,43.4,61.3,43.4z"/>
		<polygon class="st13" points="58.2,45.9 61,44.6 63.5,48.9 60.7,50.2 		"/>
		<path class="st12" d="M58.2,45.9l5.3,3"/>
		<path class="st12" d="M60.7,50.2l0.3-5.6"/>
		<path class="st12" d="M45.5,23.9l2.8-1.3"/>
		<ellipse transform="matrix(0.2492 -0.9685 0.9685 0.2492 13.8195 60.0867)" class="st14" cx="45.7" cy="21.1" rx="0.7" ry="0.8"/>
	</g>
</g>
<path class="st15" d="M67.6,42.5c0,15.5,0.1,21.3-1.1,22.1c-1.1,0.9-31.2,0-31.2,4.4s24.8,8.8,32.2,8.8c9.9,0,14.9-4.4,14.9-13.3
	V42.5C82.5,42.5,67.6,42.5,67.6,42.5z"/>
<path class="st4" d="M67.6,46.9v2.2c5,0.7,9.9,0.7,14.9,0v-2.2C77.5,47.6,72.6,47.6,67.6,46.9z"/>
<path class="st4" d="M67.6,42.5v2.2c5,0.7,9.9,0.7,14.9,0v-2.2C77.5,43.2,72.6,43.2,67.6,42.5z"/>
<path class="st4" d="M67.6,44.7v2.2c5,0.7,9.9,0.7,14.9,0v-2.2C77.5,45.4,72.6,45.4,67.6,44.7z"/>
<path class="st4" d="M67.6,49.1v2.2c5,0.7,9.9,0.7,14.9,0v-2.2C77.5,49.8,72.6,49.8,67.6,49.1z"/>
<ellipse class="st16" cx="68.3" cy="45.9" rx="0.7" ry="0.5"/>
<ellipse class="st16" cx="71" cy="46.2" rx="0.7" ry="0.5"/>
<ellipse class="st17" cx="73.7" cy="46.4" rx="0.7" ry="0.5"/>
<ellipse class="st17" cx="76.4" cy="46.4" rx="0.7" ry="0.5"/>
<ellipse class="st16" cx="79.1" cy="46.2" rx="0.7" ry="0.5"/>
<ellipse class="st16" cx="81.8" cy="45.9" rx="0.7" ry="0.5"/>
<g>
	<path class="st4" d="M67.6,53.5l14.9,11.9"/>
	<path class="st4" d="M69.1,53.5l13.4,10.6"/>
	<path class="st4" d="M71.1,54l11.4,8.8"/>
	<path class="st4" d="M72.6,54l9.9,7.5"/>
	<path class="st4" d="M74.1,54l8.4,6.2"/>
	<path class="st4" d="M75.6,54l6.9,4.9"/>
	<path class="st4" d="M77.1,54l5.5,3.5"/>
	<path class="st4" d="M78.5,54l4,2.7"/>
	<path class="st4" d="M80,54l2.5,1.8"/>
	<path class="st4" d="M81.5,54l1,0.9"/>
	<path class="st4" d="M67.6,54.9l14.9,11.9"/>
	<path class="st4" d="M82.5,53.5L66.1,66.8"/>
	<path class="st4" d="M81,53.5L66.6,65"/>
	<path class="st4" d="M79,54l-11.4,8.8"/>
	<path class="st4" d="M77.5,54l-9.9,7.5"/>
	<path class="st4" d="M76.1,54l-8.4,6.2"/>
	<path class="st4" d="M74.6,54l-6.9,4.9"/>
	<path class="st4" d="M73.1,54l-5.5,3.5"/>
	<path class="st4" d="M71.6,54l-4,2.7"/>
	<path class="st4" d="M70.1,54l-2.5,1.8"/>
	<path class="st4" d="M68.6,54l-1,0.9"/>
	<path class="st4" d="M82.5,54.9L66.1,68.1"/>
	<path class="st4" d="M82.5,56.2L66.1,69.4"/>
	<path class="st4" d="M82.5,57.5L66.1,70.8"/>
	<path class="st4" d="M82.5,58.8L66.1,72.1"/>
	<path class="st4" d="M82.5,60.2L66.1,73.4"/>
	<path class="st4" d="M82.5,61.5L66.1,74.7"/>
	<path class="st4" d="M82.5,62.8L66.1,76.1"/>
	<path class="st4" d="M82.5,64.1L66.1,77.4"/>
	<path class="st4" d="M82.5,65.5L67.1,77.8"/>
	<path class="st4" d="M82.5,66.8L68.6,77.8"/>
	<path class="st4" d="M82,68.6l-10.9,8.8"/>
	<path class="st4" d="M81.5,70.3l-8.9,7.1"/>
	<path class="st4" d="M80.5,72.5l-4.5,3.5"/>
	<path class="st4" d="M67.6,56.2L82,67.7"/>
	<path class="st4" d="M67.6,57.5L82,69"/>
	<path class="st4" d="M67.6,58.8l13.9,11.1"/>
	<path class="st4" d="M67.6,60.2l13.9,11"/>
	<path class="st4" d="M67.6,61.5L81,72.1"/>
	<path class="st4" d="M67.1,62.4L80.5,73"/>
	<path class="st4" d="M67.1,63.7l12.4,9.7"/>
	<path class="st4" d="M66.6,64.6L79,74.3"/>
	<path class="st4" d="M66.1,65.5L78,74.7"/>
	<path class="st4" d="M66.1,66.8l11.4,8.8"/>
	<path class="st4" d="M66.1,68.1l9.9,8"/>
</g>
<path class="st4" d="M67.6,51.3v2.2c5,0.7,9.9,0.7,14.9,0v-2.2C77.5,52.1,72.6,52.1,67.6,51.3z"/>
<path class="st4" d="M66.1,69.4l8.9,7.1"/>
<path class="st4" d="M66.1,70.8l7.9,6.2"/>
<path class="st4" d="M66.1,72.1l6.9,5.3"/>
<path class="st4" d="M66.1,73.4l5,4"/>
<path class="st4" d="M66.1,74.7l4,3.1"/>
<path class="st4" d="M66.1,76.1l2.5,1.8"/>
<ellipse class="st16" cx="68.3" cy="52.6" rx="0.7" ry="0.5"/>
<ellipse class="st16" cx="71" cy="52.8" rx="0.7" ry="0.5"/>
<ellipse class="st17" cx="73.7" cy="53.1" rx="0.7" ry="0.5"/>
<ellipse class="st17" cx="76.4" cy="53.1" rx="0.7" ry="0.5"/>
<ellipse class="st16" cx="79.1" cy="52.8" rx="0.7" ry="0.5"/>
<ellipse class="st16" cx="81.8" cy="52.6" rx="0.7" ry="0.5"/>
<g>
	<path class="st4" d="M46.3,74.3L64.2,65"/>
	<path class="st4" d="M45.3,73.9L62.2,65"/>
	<path class="st4" d="M44.8,73l15.4-8"/>
	<path class="st4" d="M44.3,72.1L57.7,65"/>
	<path class="st4" d="M43.3,71.2L55.7,65"/>
	<path class="st4" d="M43.8,69.9l8.4-4.4"/>
	<path class="st4" d="M43.3,69l6.4-3.5"/>
	<path class="st4" d="M43.3,67.7l4.5-2.2"/>
	<path class="st4" d="M47.8,74.7l16.9-8.8"/>
	<path class="st4" d="M49.3,75.2l15.9-8.4"/>
	<path class="st4" d="M50.8,75.6l14.9-8"/>
	<path class="st4" d="M52.3,76.1l12.4-6.6"/>
	<path class="st4" d="M54.2,76.1l10.9-5.7"/>
	<path class="st4" d="M55.7,76.5l9.4-4.9"/>
	<path class="st4" d="M57.2,77l7.4-4"/>
	<path class="st4" d="M59.2,77l6-3.1"/>
	<path class="st4" d="M61.2,77.4l4-2.2"/>
	<path class="st4" d="M63.2,77.4l2.5-1.3"/>
</g>
<path class="st4" d="M66.6,64.6h-2.5c-0.8,4.4-0.8,8.8,0,13.3h2.5C65.8,73.4,65.8,69,66.6,64.6z"/>
<path class="st4" d="M37.4,70.8l5.9-4.4"/>
<path class="st4" d="M37.4,67.7l5.9,5.3"/>
<path class="st18" d="M46.3,65.5l-3,0.4c-0.7,2.8-0.7,5.2,0,8l3,0.9C45.7,71.9,45.7,68.3,46.3,65.5z"/>
<path class="st19" d="M82.5,43.4v-2.2c-2.2,0-3.7-1.3-3.7-2.7l-7.4,0c0,1.3-1.5,2.7-3.7,2.7v2.2H82.5z"/>
<rect x="71.9" y="35.8" class="st20" width="6.4" height="2.7"/>
<rect x="72.4" y="33.2" class="st20" width="5.3" height="2.7"/>
<rect x="72.4" y="30.5" class="st20" width="5.3" height="2.7"/>
<rect x="72.9" y="27" class="st20" width="4.2" height="3.5"/>
<rect x="72.8" y="23.9" class="st21" width="4.6" height="3.1"/>
<ellipse class="st6" cx="75.3" cy="21" rx="6.1" ry="4.2"/>
<path class="st22" d="M78.4,20.8c0,1.2,1.5,3.1,1.5,3.1c-1.1,0.8-2.9,1.3-4.6,1.3s-3.8-0.3-4.6-1.3c0,0,1.5-1.9,1.5-3.1
	c0-1.2-1.5-2.7-1.5-2.7c1.1-0.8,2.9-1.3,4.6-1.3s3.5,0.6,4.6,1.3C79.9,18.2,78.4,19.7,78.4,20.8z"/>
<path class="st22" d="M77.4,20.8c0,1.2,1.5,3.5,1.5,3.5c-1.1,0.8-1.9,0.9-3.6,0.9s-2.8,0.1-3.6-0.9c0,0,1.5-2.4,1.5-3.5
	c0-1.2-1.5-3.1-1.5-3.1c1.1-0.8,1.9-0.9,3.6-0.9s2.5,0.1,3.6,0.9C78.9,17.7,77.4,19.7,77.4,20.8z"/>
<ellipse class="st6" cx="69.2" cy="21.3" rx="1.5" ry="1.3"/>
<ellipse class="st6" cx="81.5" cy="21.3" rx="1.5" ry="1.3"/>
<ellipse class="st6" cx="75.3" cy="21.3" rx="1.5" ry="1.3"/>
<ellipse class="st6" cx="75.3" cy="16.8" rx="1.5" ry="1.3"/>
<ellipse class="st6" cx="70.8" cy="42" rx="1.6" ry="1.3"/>
<ellipse class="st6" cx="79.3" cy="42" rx="1.6" ry="1.3"/>
<path class="st23" d="M71.3,38.5h7.4l-3.7,4C75.1,42.5,71.3,38.5,71.3,38.5z"/>
<ellipse class="st6" cx="75.1" cy="41.6" rx="2.1" ry="1.8"/>
<path class="st8" d="M67.5,54.9h10.2c0.3,0,0.6,0.2,0.6,0.5V57c0,0.3-0.3,0.5-0.6,0.5H67.5c-0.3,0-0.6-0.2-0.6-0.5v-1.7
	C66.9,55.1,67.2,54.9,67.5,54.9z"/>
<path class="st8" d="M81.8,52.7c-1.4,0-2.5,1-2.5,2.3v2c0,1.3,1.1,2.3,2.5,2.3s2.5-1,2.5-2.3v-2C84.2,53.7,83.1,52.7,81.8,52.7z
	 M81.8,53.5c-0.8,0-1.5,0.8-1.5,1.8v1.2c0,1,0.7,1.8,1.5,1.8s1.5-0.8,1.5-1.8v-1.2C83.2,54.4,82.6,53.5,81.8,53.5z"/>
<path class="st8" d="M68.9,53.1c-0.8,0-1.5,0.8-1.5,1.8v2c0,1,0.7,1.8,1.5,1.8s1.5-0.8,1.5-1.8v-2C70.4,53.9,69.7,53.1,68.9,53.1z
	 M68.9,52.2c-1.4,0-2.5,1-2.5,2.3v2.9c0,1.3,1.1,2.3,2.5,2.3s2.5-1,2.5-2.3v-2.9C71.4,53.2,70.2,52.2,68.9,52.2z"/>
<path class="st8" d="M64.9,54c-0.8,0-1.5,0.8-1.5,1.8v0.5c0,1,0.7,1.8,1.5,1.8s1.5-0.8,1.5-1.8v-0.5C66.4,54.8,65.7,54,64.9,54z
	 M64.9,53.1c-1.4,0-2.5,1-2.5,2.3v1.3c0,1.3,1.1,2.3,2.5,2.3c1.4,0,2.5-1,2.5-2.3v-1.3C67.4,54.1,66.3,53.1,64.9,53.1z"/>
<path class="st8" d="M59,52.8c-1.5,0-2.7,0.9-2.7,2.1v2.3c0,1.1,1.2,2.1,2.7,2.1s2.7-0.9,2.7-2.1v-2.3C61.6,53.7,60.4,52.8,59,52.8z
	 M59,51.8c-2.5,0-4.5,1.2-4.5,2.6v3.2c0,1.4,2,2.6,4.5,2.6s4.5-1.2,4.5-2.6v-3.2C63.4,52.9,61.4,51.8,59,51.8z"/>
<path class="st8" d="M91.2,53.2c-1.5,0-2.7,0.9-2.7,2.1v2.3c0,1.1,1.2,2.1,2.7,2.1c1.5,0,2.7-0.9,2.7-2.1v-2.3
	C93.9,54.1,92.7,53.2,91.2,53.2z M91.2,52.2c-2.5,0-4.5,1.2-4.5,2.6V58c0,1.4,2,2.6,4.5,2.6c2.5,0,4.5-1.2,4.5-2.6v-3.2
	C95.6,53.4,93.6,52.2,91.2,52.2z"/>
<path class="st8" d="M83.1,54.9h5.3c0.2,0,0.3,0.2,0.3,0.5V57c0,0.3-0.1,0.5-0.3,0.5h-5.3c-0.2,0-0.3-0.2-0.3-0.5v-1.7
	C82.8,55.1,82.9,54.9,83.1,54.9z"/>
<path class="st8" d="M77.5,54.4h3.1c0.1,0,0.2,0.3,0.2,0.6v2.3c0,0.3-0.1,0.6-0.2,0.6h-3.1c-0.1,0-0.2-0.3-0.2-0.6V55
	C77.3,54.7,77.4,54.4,77.5,54.4z"/>
<path class="st8" d="M61.1,54.4h3.1c0.1,0,0.2,0.3,0.2,0.6v2.3c0,0.3-0.1,0.6-0.2,0.6h-3.1c-0.1,0-0.2-0.3-0.2-0.6V55
	C60.9,54.7,61,54.4,61.1,54.4z"/>
<path class="st8" d="M50.4,54h6.2c0.2,0,0.4,0.4,0.4,0.8v2.9c0,0.4-0.2,0.8-0.4,0.8h-6.2c-0.2,0-0.4-0.4-0.4-0.8v-2.9
	C50,54.3,50.2,54,50.4,54z"/>
<path class="st8" d="M93.5,54.4h5.7c0.2,0,0.3,0.4,0.3,0.8v2.9c0,0.4-0.2,0.8-0.3,0.8h-5.7c-0.2,0-0.3-0.4-0.3-0.8v-2.9
	C93.2,54.8,93.3,54.4,93.5,54.4z"/>
</svg>
