<?xml version="1.0" encoding="utf-8"?>
<!-- Generator: Adobe Illustrator 21.0.0, SVG Export Plug-In . SVG Version: 6.00 Build 0)  -->
<svg version="1.1" id="Layer_1" xmlns="http://www.w3.org/2000/svg" xmlns:xlink="http://www.w3.org/1999/xlink" x="0px" y="0px"
	 viewBox="0 0 726 885" style="enable-background:new 0 0 726 885;" xml:space="preserve">
<style type="text/css">
	.st0{fill:#DC143C;stroke:#003893;stroke-width:5.165;}
	.st1{fill:#DC143C;}
	.st2{fill:#FFFFFF;}
</style>
<title>Flag of Nepal</title>
<desc>
	Coding according to the official construction in &quot;Constitution of the Kingdom of Nepal, Article 5, Shedule 1&quot;, adopted in November 1990
	</desc>
<g>
	<path id="a" class="st0" d="M26.2,428.4h608.6L26.2,47.3v811.5h608.6L26.2,250.2V428.4z"/>
</g>
<path id="a_1_" class="st1" d="M26.2,428.4h608.6L26.2,47.3v811.5h608.6L26.2,250.2V428.4z"/>
<g>
	<path class="st2" d="M178.3,406.7c66.9,0,121.2-54.3,121.2-121.2c-10.7,27.1-29.9,49.5-54.5,64.1l-10.3-7.7l20.3-15.2l-24.5-6.3
		l13-22l-25.4,3.7l3.8-25.2l-22,13.2l-6.3-24.9l-15.2,20.3l-15.2-20.3l-6.4,24.8l-21.9-13l3.8,25.4l-25.4-3.8l13.2,22l-24.8,6.3
		l20.3,15.2l-10.1,7.8c-24-14.2-43.6-36.1-54.6-64.1c0,66.9,54.3,121.2,121.2,121.2L178.3,406.7z"/>
	<path class="st2" d="M119.9,585.2l-54.4-6.7l33,43.6l-50.4,21.5L98.5,665l-33,43.6l54.4-6.7l-6.7,54.5l43.6-33l21.5,50.5l21.3-50.5
		l43.8,33.1l-6.7-54.4l54.4,6.8l-33-43.6l50.4-21.3l-50.4-21.5l33-43.6l-54.4,6.6l6.7-54.4l-43.6,33l-21.5-50.6L157,563.8l-43.8-33
		L119.9,585.2L119.9,585.2z"/>
</g>
</svg>
