<?xml version="1.0" encoding="utf-8"?>
<!-- Generator: Adobe Illustrator 21.0.0, SVG Export Plug-In . SVG Version: 6.00 Build 0)  -->
<svg version="1.1" id="Layer_1" xmlns="http://www.w3.org/2000/svg" xmlns:xlink="http://www.w3.org/1999/xlink" x="0px" y="0px"
	 viewBox="0 0 1200 600" style="enable-background:new 0 0 1200 600;" xml:space="preserve">
<style type="text/css">
	.st0{fill:#002B7F;}
	.st1{stroke:#FFFFFF;stroke-width:60;}
	.st2{clip-path:url(#SVGID_2_);stroke:#CE1126;stroke-width:40;}
	.st3{stroke:#FFFFFF;stroke-width:100;}
	.st4{stroke:#CE1126;stroke-width:60;}
	.st5{fill:#FFFFFF;}
	.st6{fill:#CE1126;}
</style>
<rect class="st0" width="1200" height="600"/>
<path class="st1" d="M0,0l600,300 M600,0L0,300"/>
<g>
	<defs>
		<path id="SVGID_1_" d="M0,0v150h700v150H600L0,0z M600,0H300v350H0v-50L600,0z"/>
	</defs>
	<clipPath id="SVGID_2_">
		<use xlink:href="#SVGID_1_"  style="overflow:visible;"/>
	</clipPath>
	<path class="st2" d="M0,0l600,300 M600,0L0,300"/>
</g>
<path class="st3" d="M300,0v350 M0,150h700"/>
<path class="st4" d="M300,0v350 M0,150h700"/>
<path class="st0" d="M0,300h600V0h200v400H0V300z"/>
<circle class="st5" cx="900" cy="300" r="128.6"/>
<path d="M947.4,358.5c-2.1,1.3-4.1,2.8-4,5.5c-2.1-2.2-2.8-5.4-1.6-8.2c-2.7,0.4-4,2.7-4.5,5.1c-0.6-2.8-1.9-7.4,1.8-8.5
	c-0.5-2.4-2.8,1.2-3,2.5c-1.1,4.6-1-0.8-1.3-2.8c-0.2-1.9,1-3.5,2.5-4.2c1.8-3.6,6.5-2.4,9.8-2.1c2.3,0.3,5.7-0.5,5.3-3.5
	c0.3-4.1,0.1-10.1-4.7-11.3c-3.2-1.2-3.5,1.2-2.9,3.8c0.7,2.8-0.6,1.9-2.3,1.5c-1.7,0.1,0.5,3-1.4,4c-0.7,1.2-3.7-2.4-3.9-0.5
	c-0.3,2.1-1.4,5.1-4.1,4.2c-0.8,1.7-1.1,3.8-2.4,5.4c-2.3,3.4-6.1,5.2-9.8,6.6c-3.2,0.1-4,3.8-3.8,6.5c-1.3-2.6-3.7-6.2-1.1-8.8
	c-2.4,0.7-3.8,3.2-2.9,5.7c1.1,3.5-1.9-1.2-2.6-2.4c-1.5-1.3,0.6-5-0.7-4.7c-1.9,1.2-1.8,3.7-2,5.8c-0.8-2.5-3-6.2-0.1-8.2
	c0.1-4.5,5.4-5.1,8.9-4.9c3.1,0.8,3.8-2.9,5.8-4.5c1.6-2.7,4.3-4.7,5.7-7.5c0.5-4.1-5-4.9-6.8-7.9c-1.6-1-1-4.3-3-4.2
	c-5.1-0.1-10.2,1.2-14.8,3c-3.2,1.4-7-0.5-10,0.4c1.1,1.7-1.9,5.5-2.4,2.1c-1-1.1-0.9,5.1-2.5,2.3c-2.2-0.2,0.5,2.7-1,4.1
	c-0.3,2.1-3-2.5-3.5-0.4c0.6,1.9-0.6,5.7-2.4,2.8c-2.6-1.5-0.9,1.4-1.7,2.8c-1.5,3.9-1.1,0.4-2.8-1c0.7,1.1,0.1,5.2-1.3,3.5
	c-2.3-0.3-2.1,0.7-1.3,2.4c0,3.9-1.5,0.8-3.1,1.8c1.6,2.1-0.5,3.5-2.3,2.1c-3.4,0.6-5.2,4.2-5.5,7.5c-2.3,3.4-6.7,5-10.6,3.7
	c-1.7,1.5-1.6,4.7-4.2,5.4c-3.1,1.7-1.7-0.4-1.7-2.5c0.4-2.6-1.9-2-3-0.4c-1.5,1.3-2.1,5.1-2.9,1.3c-0.8-1.7,0-3.7,0.4-5.1
	c-0.7-1.9-2.4,2-2.7,3.2c-0.5,1.9-1.5-3.4-1.1-4.5c1.7-2.8,2.5-7.4,6.4-8.3c3.6-0.2,7.3,0.1,10.9,0c1.4-3.6,2.7-7.1,3.4-10.8
	c0.6-3.2,3.3-5.7,2.6-9.1c-0.1-1.8-3.1,2.9-2.1-1.6c-0.2-1.1-4.8,4.9-2.9,0.9c0.8-1.5,0.9-4.9-0.5-1.9c-1.8,2.4-5,2.8-7.8,3.2
	c2.1-1.2,5.2-3.2,4.9-5.5c-1.3,1.2-4.1,5.3-3.9,1.3c-0.4-2.4-1-5.5-1.3-7.3c-2.6,0.7-5.2,0.2-7.8-0.3c1.4-0.7,3.7-3.9,0.8-3.8
	c-2.6,0.8-3.3-1.1-5.6-0.3c-1.4-1.4-4-0.8-6-0.4c0.9-2.9-2.7-1.8-2.7,0.3c-1.5,1.3-1.4,4-3.8,4.5c-1,0.5-5.4,2.2-4.2,0.9
	c1.8-0.8,2.6-5.1,0.2-4c-1.8,1.4-2.5,3.3-2.2,5.5c-2-1.9-3.9-5-2.1-7.6c-1.9,0.8-3.3,2.4-4.2,4.2c-0.6-3.2-1.9-7.2,0.7-9.8
	c-2.3,0.7-2.8,3.8-3.7,5.9c0-3.3-1.5-8.1,2-10c2.1-0.8,2.8-3.6,5.1-4.5c3.1-2.5,7.6-1.9,10.7,0.3c1.9,0.8,3.6,0.9,5.7,0.7
	c4.2-0.2,8.6,0.2,12.4,2c0.3-1.4,3.7-3.7,1-3.8c-3.1-0.6,0.5-2.5,0.8-4.2c1.5-2.4-0.3-5,0.3-7.5c0.8-2.6,4.2-2.9,5.5-5.1
	c0.9-2.4-2.2-0.3-3.4-0.4c-2,1.2-5.1-0.8-3.3-3c0.1-2.1-1.4-5.7-4-4.5c-3.7,0.4-8.2-0.4-9.3-4.5c-0.6-2.1,1.1-5.7,3.5-3.7
	c2.3,1.4,3.8,4.4,6.9,3.7c2-0.1,3.9-0.5,5.8-1c-1.5-1.4-3.2-3-5.4-1.8c-3.3,0.8-5.4-2.6-4.5-5.5c-0.1-1.8,0.2-5.5,3-4.4
	c2.5-0.3-2.6-1.2-2.4-2.7c0.5-2.7,4.4-1.8,6.2-3.3c3.6-1.6,6.3-5.8,10.7-5.2c2.2-2.1,5.8-2.1,8.8-2.3c-0.5-2.3,0.4-4.7,1.7-6.6
	c1.3,1.2,2.4,5,4.1,4c1.9-1.4-1.9-2.8,1.6-3.3c2.7-0.7,4.6,2,4.7,4.4c1.8-0.1,3.7,1.2,3.8,3.1c2.3-2.6,6.2-2,9-0.7
	c-0.8,0.8-2.2,5.3-0.6,3c1.2-1.8,5.7-1.3,4.5,1.3c-0.5,3.3,1.6-0.8,3.4,0.7c2.9-0.1-0.8,1.8,0.6,3.3c1.8,1.2,1.9,3.9,4.2,4.7
	c1.9,0.8,4.3,1.4,1.6,3.3c-2.1,1.2-3.1,1.4-0.6,3.1c2.7,2.5,0.1,7.1,3.8,8.9c1.2,1.4,4.8,1,2.1,3.1c-1.6,1.2-2.8,1.7-1.6,3.9
	c0.1,1.6,3.7,3.2,2,4c-1.7,0.6-3.7,1.5-5.3,0.4c-1.6,3,2.1,4.6,4.5,4.7c12.2-2.1,24.5-4.7,36.7-7.4c6.1-1.5,12.9-0.3,17.4,4.2
	c3.2,2.8,8.3,0.2,8.4-3.9c0.9-4.9-4.6-7.9-8.9-7.5c-10-1-20.1-0.9-30.1-2.4c-5.9-1.2-11.2-5.8-12-12c-1.3-6.5,1.7-14.2,8.4-16.3
	c6.6-2.7,14.1-2.1,20.5,1c4.4,0.7,8.3-1.7,12.2-3.3c4.4-1.5,9.3,0.5,11.7,4.4c2.5-1.5,5.6-0.8,8.2,0.3c-2.1,1-4.7,1.7-5.9,3.7
	c1.6,1.7,3.2,3.6-0.3,3.4c-2.1,0.4-4.4,0.7-5.8,2.5c-5.9,0.1-12.6-0.1-17.2-4.2c-3.5,0.1-6.7-1.5-9.9-2.5
	c-4.9-0.8-12.1-0.5-13.9,5.2c-1.4,3.7-0.5,8.3,3.3,10.2c7.4,3.7,16.1,2.7,24.2,3.3c7.6,0.5,16.3,0.8,22.2,6.4
	c4.3,4.2,3.9,11.4,0.1,15.8c-2,2.4-4.3,4.4-7,5.9c1.8,4.9,5.5,9.9,3.5,15.3c-0.1,2.6-3.5,3.8-3,6.5c-0.3,3.8-1.8,7.8-5.1,9.9
	c3.1,1.6,1.6,2-0.2,3.6c-0.8,1.2,3.1,0.9,3.7,2.6c3,2.1-1,0.9-2.2,2c0.8,0.3,3,5.4-0.1,4.2c-2.9-0.2-0.5,2.6-1.4,4.1
	c-0.9,3-4,5.3-4,8.8c-0.7,3.6-3.1,8.1-7.4,7.2C951.2,356.1,949.7,358.7,947.4,358.5L947.4,358.5z"/>
<g>
	<path class="st6" d="M968.5,292.3c14.1-8.3,12.9-20.8,1.1-25c-8.8-2.8-17.4-2.1-26.2-2.8c-11.7-0.4-16.5-3.1-18-7.9
		c-0.8-10.5,5.8-12.9,16.1-11.5c2.7,1.6,5.7,2.4,9,2.5c3,2.7,7.8,4.4,16.7,4.1c1.8-2.1,4.8-2.3,7.5-2.7c-0.7-0.8-1.3-1.7-2-2.5
		c0.6-1.3,2.3-2.4,4.9-3.7c-3.1-1.1-4.9-0.4-6.6,0.6c-3.7-5.7-8.8-6.6-15.4-2.7c-2.8,1.1-5.7,1.7-8.3,1.4c-4.8-2.5-9.6-3.1-14.4-2.5
		c-9.9,1.4-14.4,6.5-13.9,15.3c0.6,7.9,5.5,12.6,15,13.9c9.6,0.6,19.2,1.3,28.8,2c12.9,1.4,6.6,18.9-2.5,12.2
		c-5.5-5.1-10.9-4.8-16.4-4c-6.9,1.6-13.9,3-20.8,4.5c-5.2,1-10.5,2-15.8,3c-5.4-0.6-7.2-2.7-5.2-6.4c1,1.1,2.8,1.1,5.2,0
		c-2.4-2.4-3.3-4.8-2.7-7.2c0.8,1.4,1.8-0.3,2.7-1.4c-2.8-0.8-4.5-2.5-5.2-4.9c0.4-4.1-1.3-6.6-5.2-7.8c2.5-0.1,4.4-1.1,5.5-2.7
		c-2.7-1.1-5.1-2.3-5.5-4.8c-1.8-1.3-2.3-2.7-1.1-4.1c-2.5-0.8-3.5,0.1-3.1,3c-1-1.8-1.4-3.7-1-5.5c-2.3-1.6-4,0-5.4,2.8
		c-0.4-1.8-0.1-3.7,0.8-5.5c-4.8-2.1-6.9-0.3-8.9,2.1c0.7-3-0.4-4.4-3.5-4.4c-0.6-3.8-2.3-5.2-4.9-3.8c1.3,1.1,0.7,2.4-1.7,3.5
		c-1-1.4-2-2.8-3.1-4.1c-1.3,2-1.3,4-1,6.1c-4.9,0-8.1,0.7-9.2,2.1c-2.1,0-4.2,0.4-6.4,2.3c-1.4,1.4-3.1,2.4-5.1,3.4
		c-1.6,0.4-3.1,0.8-4.7,1.3c-1.1,1-0.1,1.7,3,3.1c0.6,0.8-0.7,1.6-2.4,1.1c-1.4-0.6-1.6,1.7-1.7,3.8c-0.3,3,0.1,5.5,4.7,4.8
		c3.3-1.7,4.2,3.4,7.6,2.4c-5.1,1.4-9.9,2.5-12.6,1.1c-4.7-5.2-6.1-4.2-6.1-0.6c0.8,3.1,3,5.4,10.9,4.2c2,1.8,2.8,3.8,2.4,5.8
		c-1,1.4-0.6,2.1,1.7,2.1c1.4-0.3,2.8-0.7,4.1-1c1.1,0,1.4,0.8,0.6,2.7c-1.3,1-2.5,1.8-3.8,2.8c-2.1,0.8-1.7,3.4-0.8,6.1
		c-0.4,2.5-1.4,4.5-2.8,6.1c1.1,0.7,2.1,0.8,3.1,0.6c-1.1,1.7-2.3,3.4-3.4,4.9c-5.2-2.4-10.6-2.3-16-1.8c-1-0.4-1.8-0.8-2.8-1.1
		c-5.4-3.4-9.5-1.4-13,2.7c-1.1,1.6-1.1,3,0,4.5c0.1,2,0.3,4.1,4.1,4.7c0.3,1.8,1,3.4,5.1,2c0.3,1.7,1.6,2.3,3.8,1.7
		c1.3-1.1,2.1-2.4,2.5-4c2.4-0.4,3.4,0,3,1.4c3-0.6,4.7-0.3,5.4,0.6c1.6-0.6,2.5-0.4,2.7,0.6c4.2-0.6,4.1,0.1,4.8,0.6
		c0.4,1.1,0,2.1-1.4,3.3c2.5,0.6,4.8,0.7,6.9-0.3c0.6,3.1,1.1,6.1,1.7,9.2c1.1-1,2.4-2.1,3.5-4.1c0.4,3.4-0.6,5.2-2.5,6.4
		c3.1-0.4,4.9-2.7,6.2-5.9c0.3,2,0.6,3.8,0,5.4c1.1-1,1.7-2.1,1.6-3.4c0.7,1.3,1.1,2.7,1.1,4c1.6-1.3,1.3-2.4,1.4-3.7
		c0.6,2.7,1.1,5.4,0.3,8.1c-1.8,3.1-2.7,6.1-3.1,8.9c-0.8,2.5-1.8,5.1-2.7,7.8h-8.9c-3.5-0.7-5.5,1.4-6.6,4.7
		c-1.1,1.6-0.6,2.5,2,2.8c0,0.7,0.1,1.3,0.6,1.6c0.4,1.8,2.3,1.7,4.1,1.4c2.4,1.7,4.4,1.4,6.1-0.8c4.2,1.3,7.6,0.1,10.3-3.3
		c0.7-3.5,1.7-5.7,3-6.1c1.7-2.3,3.4-2,5.1-1.1c0.4-0.7,0.3-1.3-0.6-2c1-1.7,2-1.8,3-0.6c0.7-1.6,0.1-2.7-1.1-3.5
		c2-1.1,3.3-1.3,4-0.6c0.6-1,0.4-2.5-0.3-4.5c1.3,0.4,2.4,1.1,2.7,2.8c1-1.6,1-3,0-4.1c1.4-0.7,2.8-0.3,4.2,1c0.7-1.4,0.7-3,0-4.4
		c1.6,0.1,3,0.3,3.8,1.4c0.8-1.8,0.3-3.1-0.6-4.2c2.1-0.3,3.1-0.3,3.1,0c1.1-1.4,0-2-0.6-2.7c2-0.3,3.1,0.3,3.4,1.4
		c1.4-1.6,1.3-2.5-0.6-3.4c1.7-0.1,3.4-0.1,5.2-0.3c4,0.8,6.1,0.3,8.1-0.6c4.5-1.7,9.3-2.8,15-2.4c0.6,2.8,2.1,5.2,4.9,7.2
		c4.7,2.7,5.2,5.5,2,8.5c-2.7,3.3-5.2,6.5-7.8,9.8c-6.5-0.4-10,0.7-10.6,3.3c-0.4,1.6,0.4,2.4,2.5,2.5c-0.1,2.5,4,3.4,5.2,1.1
		c0.6,1.6,1.4,3,3.4,2.5c1.3,0.7,2.3,0,3.3-0.8c3.8-1,6.9-3.7,9.2-8.6c-0.1-2.1,0.7-2.8,2.7-2.3c1.7-1.1,1.8-3.3,2-5.2
		c1.7,0.6,3.1,1.1,4,1.7c1.3-1.7,0.7-2.8,0-4c2-0.6,2.8-0.3,3.5,0c0-1.8-0.1-3.8-0.3-5.8c5.7-0.7,9.9,1.3,9.2,12.4
		c0,3.8-3.5,4-7.5,3.7c-2.8-0.6-5.7-0.7-7.5,1.4c-0.1,1.3-0.1,2.5,1.7,3.8c0,2.5,0.1,2.4,2.4,3.7c1.1,2.7,1.4,2.3,4.2,2.7
		c2.5-0.1,4-1.1,5.2-2.1c7.2,2,7.6-5.1,8.9-9.8c1-1.6,2-3.1,3-4.7c0.4-1.4,0.7-2.8-0.3-4.2c1.1-1.1,2.3-1.6,3.4-1.1
		c0.4-2.3-0.8-3-2.5-3.3c1.3-1.1,2.7-1.7,4-1.7c-1.6-1.7-3.4-2.3-5.2-2c0.8-1.6,1.7-3,3-3.3c-1-1.1-2-1.4-3.3-1.1
		c5.2-2.7,6.6-7.2,6.6-12.4c2.8-2.7,4.1-6.2,3-11.2C971,298.1,969.8,295.1,968.5,292.3L968.5,292.3z"/>
	<path class="st6" d="M942.5,356.5c-0.8,2.1-0.7,4.1,0.6,5.8c0.1-1.3,1.4-2.5,3.4-3.8C944.5,358.6,943,357.9,942.5,356.5
		L942.5,356.5z"/>
	<path class="st6" d="M939.2,353.1c-1.8,0.6-2.3,2.4-1.7,5.4c0.4-1.4,1.6-2.5,3.5-3.1C939.4,355.1,938.7,354.4,939.2,353.1z"/>
	<path class="st6" d="M937.5,348.7c-2,0.7-2,3.1-1.7,5.7c0.4-1.4,1.1-2.8,2.7-3.5C937.7,350.3,937.4,349.5,937.5,348.7L937.5,348.7z
		"/>
	<path class="st6" d="M916.5,354.6c-1.3,1-1.1,2.8,0.4,5.5c0-1.8,0.8-3.3,2.3-4.1C918,355.9,917,355.6,916.5,354.6L916.5,354.6z"/>
	<path class="st6" d="M911,353.4c-0.7,1.4-0.1,3.3,1.6,5.2c-0.4-1.4,0-2.8,1.3-4.4C912.8,354.5,911.9,354.2,911,353.4L911,353.4z"/>
	<path class="st6" d="M908,350.7c-1.1,0.8-1.1,2.4-0.4,4.5c0.1-1.1,0.7-2.4,2.1-3.5C909.1,351.5,908.6,351.7,908,350.7L908,350.7z"
		/>
	<path class="st6" d="M847.5,359.2c0.4,1.3,0.6,2.5,0,4.1c2.1-0.4,3.3-1.8,3.8-3.8C850,359.9,848.8,360,847.5,359.2z"/>
	<path class="st6" d="M842.4,357.2c-1,1.3-1.1,3-0.1,5.1c0.4-1.1,1.4-2.3,2.8-3.4C843.7,358.9,842.7,358.5,842.4,357.2L842.4,357.2z
		"/>
	<path class="st6" d="M839.1,354.4c-1,0.6-0.8,2.3-0.3,4.2c0.4-1.7,1.3-2.7,2.3-3.4C840.6,355.1,839.8,354.9,839.1,354.4z"/>
	<path class="st6" d="M820.5,313.1c1,1.1,0.1,2.4-0.8,3.5c3-0.7,4.5-1.7,4.8-3C823.2,314.1,821.9,313.9,820.5,313.1z"/>
	<path class="st6" d="M815.1,311c-1.4,1.7-1.1,3.7,0.6,5.8c0-1.3,0.8-2.7,2.5-4.2C816.8,312.5,815.7,312.1,815.1,311L815.1,311z"/>
	<path class="st6" d="M810.9,306.4c0.6,1.6,1.3,3,3.4,3.8c-1.8,0.8-3.1,2-4,3.3C809.6,310.1,809.5,307.6,810.9,306.4L810.9,306.4z"
		/>
	<path class="st6" d="M809.7,301.8c-2.1,0.6-2.5,3.1-2.3,6.5c0.6-1.8,1.7-3,3.1-3.5C809.9,303.7,809.7,302.8,809.7,301.8z"/>
</g>
<g>
	<path d="M869.4,263c2.1,3,3.4,5.9,3.8,8.9C873.2,267.7,871.9,264.7,869.4,263z"/>
	<path d="M877.9,254c3.3,3.1,5.9,6.1,7.6,9C884.1,258.4,881.3,255.7,877.9,254z"/>
	<path d="M873.6,259.2c3.5,4.5,5.8,9.6,5.9,15.6C880.7,266.6,877.7,262.3,873.6,259.2z"/>
	<path d="M871.7,262c3.7,4.5,5.4,9.5,4.4,14.8C877.6,269.5,876,264.6,871.7,262z"/>
	<path d="M855.9,246c-0.7,0-1.1,0.3-1.8,0.5c-1,4.1,4.7,4.5,7,2.4c0.5-0.4,0.7-0.8,0.9-1.1c0-0.1,0.1-0.2,0.1-0.2c0,0,0-0.1,0-0.1
		c0,0,0-0.1,0-0.1c0,0,0,0,0,0c0,0,0-0.1,0-0.1c0,0,0-0.1,0-0.1c0,0,0,0,0,0c0,0,0,0,0,0c0,0-0.1-0.1-0.1-0.1c0,0,0,0,0,0
		c0,0-0.1,0-0.1,0c-0.9-0.4-2.5-0.4-3.3-0.5C857.1,246,856.4,246,855.9,246L855.9,246z M856.1,246.5c1.1-0.1,2.7,0.1,4.3,0.4
		c-1.5,0.5-4.4,1.1-5.2,1.5c0,0-0.1,0-0.1,0c-0.3-0.3-0.5-0.6-0.6-0.8c0,0,0-0.1,0-0.1c0,0,0-0.1,0-0.1c0,0,0-0.1,0-0.1
		c0,0,0-0.1,0-0.1c0,0,0-0.1,0-0.1c0,0,0-0.1,0-0.1c0,0,0,0,0,0c0.1-0.1,0.2-0.1,0.2-0.2c0,0,0.1,0,0.1,0
		C855.3,246.6,855.7,246.5,856.1,246.5L856.1,246.5z M861.5,247.3c-0.1,1.4-1.5,2.1-5.6,1.6C857.9,248.3,859.9,247.9,861.5,247.3z"
		/>
	<path d="M943.2,355.2c0.4-1.4,1.3-2.3,3-1.8c4.5,0.7,6.9-0.4,7.4-3.4c-1,2.3-3.3,3.7-7.9,2.8C942.9,352.4,942.9,353.8,943.2,355.2
		L943.2,355.2z"/>
	<path d="M940.5,351.1c0.1-1.7,1.7-2,4-1.7c4,0.6,6.5-0.3,8.1-1.6c-0.7,1.6-2.1,2.8-7.8,2C942.9,349.7,941.5,350,940.5,351.1
		L940.5,351.1z"/>
	<path d="M916.6,352.1c0.3-1.1,1.6-1.6,3.5-1.1c3,0,4.2-1.6,5.1-3.7c-0.8,2.1-2.4,3.5-5.7,3.3C917.6,349.7,916.5,350.3,916.6,352.1
		L916.6,352.1z"/>
	<path d="M920.1,346.3c-0.1,1.1-0.6,2-3.1,1.7c-2.8,0.4-5.1,1.3-5.8,3.3c0.1-2.7,1.6-3.7,4-3.3C917.5,347.9,919,347.3,920.1,346.3z"
		/>
	<path d="M853.1,356.8c-0.6-2.4,0.7-3.4,2.8-3.7C853.7,352.9,851.7,353.2,853.1,356.8z"/>
	<path d="M842.3,354.8c0.6-1.7,1.6-2.8,3.1-3.4c3.1-1,6.8-1,10.5-0.6c-4-1-7.5-1.1-10.6-0.1C843.5,351.2,842.5,352.7,842.3,354.8
		L842.3,354.8z"/>
	<path d="M856.1,352.2c-3.1-0.1-6.2-0.1-8.2,1.3c-2.3,0.1-2.1,2-1.6,4.2c0-1.8,0.1-3.5,1.8-3.7C849.9,352.8,852.9,352.4,856.1,352.2
		L856.1,352.2z"/>
	<path d="M946.6,245.2c4.8-0.6,8.5-2.4,11.9-4.7C955.6,243.7,952,245.5,946.6,245.2z"/>
	<path d="M961.3,243.4c-2.8-0.3,4.9,1.8,4.9,1.8C965.7,244.1,964,243.8,961.3,243.4z"/>
	<path d="M954.8,248.6c4.5,1.4,8.9,2.1,13.4,0.6C964.1,251.4,959.7,251.6,954.8,248.6z"/>
	<path d="M958.3,244.1c5.1,2.1,10.2,3,14.8,0.4C968.5,249,963.4,247.8,958.3,244.1z"/>
	<path d="M955.8,243.8c5.1-2.5,9.9-2.7,14.4,0.8C965.9,240.3,961.1,239.4,955.8,243.8z"/>
	<path d="M953.6,245.4c5.4,2.7,11.5,3.5,18.1,2.1C965.2,249.7,959.2,248.9,953.6,245.4z"/>
	<path d="M899.2,318c-0.7,3-2,3.8-3.3,4.4C898.5,322.5,900.1,321.6,899.2,318z"/>
	<path d="M937.5,316.3c-5.4,4-11.2,4.5-17.1,3.8C928.2,322.1,934.1,321.4,937.5,316.3z"/>
	<path d="M941.2,309c-2.7,7.1-3,14,2.1,20.6C936.8,323.8,937.4,316.8,941.2,309z"/>
	<path d="M865.3,237.4c1,2.4,0.6,4.7-0.4,7.1C866.7,241.5,867.3,239,865.3,237.4L865.3,237.4z"/>
	<path d="M843.5,257.7c3.4,1.4,5.2,1.4,5.7,0C848.9,259.4,848.2,260.6,843.5,257.7z"/>
	<path d="M846.8,263.6c4,0.8,8.2,1.7,6.4,3.1C857,265.2,853.4,264.3,846.8,263.6z"/>
	<path d="M811.7,304.3c3.3-3.5,7.2-4.5,11.6-4C817.9,298.5,814,299.8,811.7,304.3z"/>
	<path d="M815.7,308.6c2.4-3.7,5.9-5.4,9.8-6.1C820.8,302.3,817.1,303.5,815.7,308.6z"/>
	<path d="M820.1,311c1.4-3.3,4.1-5.1,7.8-5.7C823.7,304.2,821.3,306.4,820.1,311z"/>
	<path d="M856.1,280.4c-3.7,4.5-6.4,9.3-8.8,14.3C848.2,289.2,849.7,283.8,856.1,280.4z"/>
	<path d="M862.9,272.5c-1.1,2.7-1.6,5.2,0,7.9C860.9,277.7,861.3,275.2,862.9,272.5z"/>
	<path d="M859.6,274.3c0,1.4-0.7,2.7-2.1,4.1C859.8,276.9,860.5,275.5,859.6,274.3z"/>
	<path d="M855.8,273.8c0.4,1.6,0.7,3.1-0.1,4.7C857.5,276.9,856.8,275.3,855.8,273.8z"/>
	<path d="M853.3,273.4c0.4,1.8,0.1,3.7-0.7,5.4C854.6,277,854.7,275.2,853.3,273.4z"/>
	<path d="M848.9,261.8c-5.1-2-7.5-1.7-7.1,0.6C840.8,259.2,842.3,258.1,848.9,261.8z"/>
	<path d="M844.4,253.8c2.4,0.8,3.7,1.8,4.9,3.1C848.9,254.4,847.2,253.4,844.4,253.8L844.4,253.8z"/>
	<path d="M843.4,269.8c4.4-0.6,8.8-1.8,13-3.7C852.3,268.5,847.9,270,843.4,269.8z"/>
	<path d="M853.6,260.5c6.8,3.1,10,7.1,5.4,12.9C866,267,863.2,262.9,853.6,260.5z"/>
	<path d="M880.3,244.5c1.6-1,3.7-1.7,6.2-1.8C883.2,241.5,881.3,242.3,880.3,244.5z"/>
	<path d="M874.1,249c1.3,2.7,3.8,3.5,7.8,2.3C877.7,254,875,253.3,874.1,249z"/>
	<path d="M881.8,250c-2.4-2.5-4.9-3.8-7.8-1.7C877.2,244.7,879.6,246.9,881.8,250z"/>
	<path d="M872.2,247.5c3.5-3.4,7.6-3,12,1.3C880,244.1,876,242.4,872.2,247.5z"/>
	<path d="M874.3,240.3c-0.7,2.1-2.1,4.4-5.2,6.5C873.6,244.8,874.8,242.7,874.3,240.3z"/>
	<path d="M871.2,237c-1,2.7-2.8,5.4-5.5,8.1C870.5,242.7,872.8,240,871.2,237z"/>
	<path d="M890.7,254.4c2.5-2.5,5.4-0.8,8.3,1.4C895.3,251,892.4,250.6,890.7,254.4z"/>
	<path d="M890.7,247.8c-2.1,2.4-3.4,4.8-3.8,7.1C885.8,252.3,887.1,250,890.7,247.8L890.7,247.8z"/>
	<path d="M890,246.4c-3.4,2.5-5.7,4.9-6.9,7.4C883.2,250.2,885.7,247.8,890,246.4z"/>
	<path d="M890,257.5c3.5,0.7,6.9,0.1,10.5-0.8C899.5,258.4,889.9,259.6,890,257.5z"/>
	<path d="M891.9,259.5c5.4,2.5,8.2,6.5,8.5,12.2C900.2,263.7,897.4,259.6,891.9,259.5z"/>
	<path d="M895.3,265.9c1.7,4.7,4.5,9.3,9.6,13.6C898.1,276.2,895.3,271.5,895.3,265.9z"/>
	<path d="M882.1,271c3.1,4.1,4.7,8.5,5.7,13.1C888.1,277,886.5,272.4,882.1,271z"/>
	<path d="M881.6,267.3c2.7,0.8,4.7,2.8,5.7,6.2C887.2,268.7,885.4,266.6,881.6,267.3z"/>
	<path d="M883.8,255.8c4.8,4.2,8.3,8.8,10.2,13.6C892.4,260.8,888.8,257.1,883.8,255.8L883.8,255.8z"/>
	<path d="M875.5,257.5c6.4,4.2,11.2,8.5,14.6,12.9C887.5,265.6,882.7,261.3,875.5,257.5z"/>
	<path d="M864.2,272.6c4.9,4.1,7.9,9.6,7.9,17.1C873.8,280.4,870.5,275.2,864.2,272.6z"/>
	<path d="M894.6,308.3c2.4,4.9,2.5,9.8-2.4,14.4C899.4,318.6,898.8,313.6,894.6,308.3z"/>
	<path d="M859.2,314.8c0.6,2.7-1,4.1-3,5.5C858.9,319.3,860.8,317.9,859.2,314.8z"/>
	<path d="M843.5,301.5c-0.6,2.7-0.1,5.5,2.3,8.2C842,307.8,841.8,304.9,843.5,301.5z"/>
	<path d="M849.7,302.2c-1.6,4-2,7.9-1.7,11.9C846.9,309.1,847.1,305,849.7,302.2z"/>
	<path d="M858.7,300.9c-3.3,6.1-5.7,12-5.5,18.1C851.9,311.1,854.4,305.4,858.7,300.9z"/>
	<path d="M859.9,312.8c1.8,4.4,3.5,8.8,9.6,9.2c0.3-3.1-1.3-6.2-3.3-9.3c3.3,2.5,5.8,5.5,5.1,11.6
		C863.7,324.5,860.8,319.7,859.9,312.8L859.9,312.8z"/>
	<path d="M868.7,306.7c0.8,3.7,2,7.2,5.4,10.5C868.7,313.6,868.5,310.2,868.7,306.7z"/>
	<path d="M861.1,285.9c-1,7.2-4.1,12.6-8.6,16.8C858.2,299.8,861.8,294.8,861.1,285.9z"/>
	<path d="M856.8,281.7c-0.6,3.4-2.3,6.9-5.4,10.5c-1.8,2-1.8,5.8,0,11.5c-0.3-4.4-0.4-8.5,1.8-10.7
		C856.8,288.2,857.9,284.5,856.8,281.7L856.8,281.7z"/>
	<path d="M861.8,281.8c1.6,5.5,2.7,11.3,0.4,17.7c-1.4,4.1-1.4,8.3,2,13.3c-4.5-4.1-4.8-8.3-3.3-12.9
		C863,294,862.9,287.9,861.8,281.8z"/>
	<path d="M874.3,296.7c-0.7,3.7-2.1,7.6-0.3,11.7c-0.4-4,2.5-6.9,5.2-9.8c-1.8,4.5-3.8,8.9-5.7,13.3
		C870.9,307.3,871.8,302,874.3,296.7L874.3,296.7z"/>
	<path d="M864.9,281.8c12.7,12.7,1.1,17.5-0.1,30.1C862,300.8,874.8,296.5,864.9,281.8z"/>
	<path d="M869.5,269.3c4.8,7.4,6.2,15.8,4.1,25.4C877.9,282.7,874.8,275.3,869.5,269.3z"/>
	<path d="M892,271c4.1,4.9,6.5,10,6.6,15C899.8,280.3,896.8,275.3,892,271z"/>
	<path d="M889.2,272.1c1.8,7.5,4.8,13.6,9.8,16C893.3,286.8,890.5,280.6,889.2,272.1z"/>
	<path d="M888.3,274.9c1.6,6.5,2.1,12.9-0.1,19.4C893,287.8,891.6,281.4,888.3,274.9z"/>
	<path d="M876.6,276.9c2.1,3.4,3.4,6.8,3.8,10.2C881.3,283.4,880,280,876.6,276.9z"/>
	<path d="M876.3,287.9c3.4,5.4,5.4,11.2,6.1,17C883.2,297.8,881.1,292,876.3,287.9z"/>
	<path d="M879.4,275.9c6.4,9.8,9.2,19.5,3.7,29.4C889.6,294.8,889.5,284.9,879.4,275.9z"/>
</g>
</svg>
