<?xml version="1.0" encoding="utf-8"?>
<!-- Generator: Adobe Illustrator 21.0.0, SVG Export Plug-In . SVG Version: 6.00 Build 0)  -->
<svg version="1.1" id="Layer_1" xmlns="http://www.w3.org/2000/svg" xmlns:xlink="http://www.w3.org/1999/xlink" x="0px" y="0px"
	 viewBox="0 0 960 600" style="enable-background:new 0 0 960 600;" xml:space="preserve">
<style type="text/css">
	.st0{fill:#4997D0;}
	.st1{fill:#FFFFFF;}
	.st2{fill:none;stroke:#24420E;stroke-width:0.437;}
	.st3{fill:#406325;stroke:#24420E;stroke-width:0.1639;}
	.st4{fill:#67923D;stroke:#24420E;stroke-width:0.1639;}
	.st5{fill:#BA1F3E;stroke:#511124;stroke-width:0.1857;}
	.st6{fill:#BA1F3E;stroke:#511124;stroke-width:0.2185;}
	.st7{fill:#8C959D;stroke:#485654;stroke-width:0.1092;}
	.st8{fill:#8C959D;}
	.st9{fill:#485654;}
	.st10{fill:#6C301E;stroke:#351710;stroke-width:0.2185;stroke-linejoin:round;}
	.st11{fill:#B2B6BA;stroke:#485654;stroke-width:0.2185;}
	.st12{fill:none;stroke:#485654;stroke-width:0.1639;}
	.st13{fill:#FAB81C;stroke:#6C301E;stroke-width:0.2185;}
	.st14{fill:#FAB81C;stroke:#6C301E;stroke-width:0.1092;}
	.st15{fill:#FAB81C;}
	.st16{fill:#6C301E;}
	.st17{fill:url(#SVGID_1_);stroke:#999270;stroke-width:0.1639;}
	.st18{fill:url(#SVGID_2_);stroke:#999270;stroke-width:0.1639;}
	.st19{fill:url(#SVGID_3_);stroke:#999270;stroke-width:0.1639;}
	.st20{fill:url(#SVGID_4_);stroke:#999270;stroke-width:0.1639;}
	.st21{fill:#F9F0AA;stroke:#999270;stroke-width:0.1639;}
	.st22{fill:url(#SVGID_5_);stroke:#999270;stroke-width:0.1639;}
	.st23{fill:url(#SVGID_6_);stroke:#999270;stroke-width:0.1639;}
	.st24{fill:url(#SVGID_7_);stroke:#999270;stroke-width:0.1639;}
	.st25{fill:url(#SVGID_8_);stroke:#999270;stroke-width:0.1639;}
	.st26{fill:url(#SVGID_9_);stroke:#999270;stroke-width:0.1639;}
	.st27{fill:#B07E09;}
	.st28{fill:url(#SVGID_10_);stroke:#4C0505;stroke-width:0.2185;}
	.st29{fill:#448127;stroke:#34541F;stroke-width:0.2185;}
	.st30{fill:#EAC102;stroke:#A08307;stroke-width:0.2185;}
	.st31{fill:#A08307;}
	.st32{stroke:#000000;stroke-width:9.780000e-02;}
	.st33{fill:url(#SVGID_11_);}
	.st34{fill:#34541F;}
	.st35{fill:#448127;}
</style>
<rect class="st0" width="960" height="600"/>
<rect x="320" class="st1" width="320" height="600"/>
<g>
	<g>
		<g>
			<path class="st2" d="M452.1,377.5c2.7-0.4,4.2-1.1,6-1.8"/>
			<path class="st2" d="M460.4,371.6c1.3,1.4,2.4,2.9,3,4.6"/>
			<path class="st2" d="M455.2,371.2c1.4,1.3,2.4,2.7,3.1,4.2"/>
			<path class="st2" d="M408.8,238.8c-1,1.6-3.1,2.7-4.8,3.4"/>
			<path class="st2" d="M403.7,242c0-1.4-0.2-3,0-4.4"/>
			<path class="st2" d="M401.8,242.6c0.1,0.4,0.4,1.4,0.7,2"/>
			<path class="st2" d="M404.5,245.6c-0.4,0.1-1.5,0.3-2,0.3"/>
			<path class="st2" d="M398.5,245c0,2.5,0.3,5.6,0.5,7.8"/>
			<path class="st2" d="M397.2,251.9c0.5,0.8,0.9,1.5,1.5,1.9"/>
			<path class="st2" d="M394.2,260.2c0.5,0.9,0.9,2.1,1.3,4"/>
			<path class="st2" d="M399.2,259.6c-0.4,0.2-1.2,0.9-1.9,1.5"/>
			<path class="st2" d="M398.9,265.5c-1,0.9-2.2,1.5-3.4,2.1"/>
			<path class="st2" d="M391.6,308c1.2,1.9,2.4,3.6,4,4.7"/>
			<path class="st2" d="M396.2,314.4c-1.3-0.2-2.2-0.5-2.9-1"/>
			<path class="st2" d="M397.6,321.9l1.7,1"/>
			<path class="st2" d="M398.9,326.3c1.3,0.8,2.5,2.3,3.8,3.9"/>
			<path class="st2" d="M401.2,333c1.4,0.3,2.5,0.6,3.2,1.1"/>
			<path class="st2" d="M403.4,336.5l2.1,0.1"/>
			<path class="st2" d="M406.7,331.2c-0.1,1.5-0.3,3-0.5,4.2"/>
			<path class="st2" d="M407.2,337l0.4-1.6"/>
			<path class="st2" d="M412.3,341.4l-0.1,3.2"/>
			<path class="st2" d="M451.4,372.5l-1.2,1.6"/>
			<path class="st2" d="M447.8,370.2l-0.7-1.8"/>
		</g>
		<g>
			<path class="st3" d="M486.1,384.9c-0.8-1.3-2.1-2-3.3-2.7c-7.7-4.1-15.4-5.8-24.1-7.2c-2-0.3-4-2.2-6.1-3.2
				c-5-2.4-10.5-3.3-15.3-5.7c-0.3-0.1-1.5-0.9-2.1-1.5c-1.9-2.2-5.4-2.9-7.5-5c-8.3-7.9-17.2-15.1-21.8-25.5
				c-5.6-12.7-12.5-25.8-11.6-40.2c0.6-9.1-0.8-18.4,1.5-27c3.3-12.9,7.6-25.6,15.4-36.3l-1.3,0.8c-7.9,10.7-12.1,23.4-15.5,36.3
				c-2.2,8.7-0.9,17.9-1.5,27c-0.9,14.4,6,27.5,11.6,40.3c4.6,10.4,13.5,17.6,21.8,25.5c2.2,2,5.6,2.7,7.5,5
				c0.6,0.6,1.8,1.4,2.1,1.5c4.8,2.4,10.3,3.3,15.3,5.7c2.1,1,4.1,2.8,6.1,3.2c8.7,1.4,16.4,3.2,24.1,7.2c1.2,0.6,2.5,1.4,3.3,2.7
				L486.1,384.9"/>
			<g>
				<path class="st4" d="M406.3,331.6c-2.8-6.3-1.4-21.6-0.2-23.5C412.8,321.1,410.6,331.8,406.3,331.6z"/>
				<path class="st4" d="M452.2,377c-7.1,0.4-20.6,9.3-21.9,11.4C445.4,388.5,454.4,381.1,452.2,377z"/>
				<path class="st4" d="M459.7,372.7c-6.8-5.4-14.2-23.7-14-26.5C460.7,357.1,464.6,370.5,459.7,372.7z"/>
				<path class="st4" d="M454.6,372.8c-7-4.2-15.8-20.1-15.9-22.8C453.9,358.2,458.9,370.2,454.6,372.8z"/>
				<path class="st4" d="M439,366c1-7.8-5.7-24.2-7.6-26C428.5,356.5,434.5,367.6,439,366z"/>
				<path class="st4" d="M411.7,341.7c-2.3-5.6-0.6-19.3,0.5-21C417.7,332.4,415.5,341.9,411.7,341.7z"/>
				<path class="st4" d="M398,264.9c3.6-6.6,18.4-15.7,21-15.9C412.2,263.5,401,268.8,398,264.9z"/>
				<path class="st4" d="M398.7,259.3c2.1-7.3,14.9-19.3,17.4-20C412.4,255,402.4,262.5,398.7,259.3z"/>
				<path class="st4" d="M426.5,358.5c-5-6.2-8-23.9-7.3-26.4C430.5,344.6,431.3,357.4,426.5,358.5z"/>
				<path class="st4" d="M397.9,322c-6.9,1.1-21.4-4.6-22.9-6.3C389.5,312.5,399.3,317.8,397.9,322z"/>
				<path class="st4" d="M395.7,312.3c0.8-5.6,8.7-15.8,10.4-16.7C404.9,307.6,398.6,314.3,395.7,312.3z"/>
				<path class="st4" d="M447,370.9c-8.5,0.4-24.6,11.1-26.1,13.6C438.9,384.6,449.6,375.8,447,370.9z"/>
			</g>
			<g>
				<path class="st3" d="M406.4,331.5c4.2,0.2,6.4-10.4-0.3-23.4C407.4,320.4,407.3,330.4,406.4,331.5z"/>
				<path class="st3" d="M417.6,351.5c-4.5-5.5-19.4-11.3-21.7-11.1C404.8,352.4,415.8,355.4,417.6,351.5z"/>
				<path class="st3" d="M393.2,298.5c-1.1-8-12.3-22.7-14.7-24C379.9,291.7,389,301.2,393.2,298.5z"/>
				<path class="st3" d="M401.6,332.8c-5-3.7-19-5.3-20.9-4.7C390.8,336.4,400.8,336.5,401.6,332.8z"/>
				<path class="st3" d="M392.2,307.9c-2.9-5.7-14.8-13.5-16.9-13.7C380.8,306.6,389.9,311.2,392.2,307.9z"/>
				<path class="st3" d="M394.9,260.4c0.9-7.6-5.5-23.4-7.3-25.2C384.7,251.2,390.5,261.9,394.9,260.4z"/>
				<path class="st3" d="M399.4,245.5c2.7-6.5,0.8-22.4-0.5-24.4C392.5,234.6,395.1,245.7,399.4,245.5L399.4,245.5z"/>
				<path class="st3" d="M404.4,237.8c3.1-4.8,4.2-17.7,3.5-19.5C400.7,228.1,400.9,237.3,404.4,237.8z"/>
				<path class="st3" d="M410.4,231.7c4.4-3.5,9.2-15.5,9.1-17.4C409.7,221.2,407.2,230.1,410.4,231.7z"/>
				<path class="st3" d="M394.3,274.9c0.1,0.9-1-8.2-10.1-18.3C384.7,271.4,390.5,277,394.3,274.9z"/>
				<path class="st3" d="M426.9,360.7c-6.2-4.6-23.4-6.7-25.8-5.9C413.7,365.1,426,365.3,426.9,360.7z"/>
				<path class="st3" d="M439,365.9c-4.5,1.6-10.4-9.4-7.5-25.9C434.2,354,437.6,365.1,439,365.9z"/>
				<path class="st3" d="M452.2,377.1c2.1,4.1-6.7,11.4-21.8,11.3C442.4,383.5,451.7,378.5,452.2,377.1z"/>
				<path class="st3" d="M459.6,372.6c4.9-2.2,1.1-15.5-14-26.4C454.2,359.4,460.1,370.8,459.6,372.6z"/>
				<path class="st3" d="M454.6,372.7c4.3-2.7-0.7-14.4-15.9-22.6C448.1,361.2,454.8,371,454.6,372.7z"/>
				<path class="st3" d="M411.8,341.7c3.7,0.2,6-9.3,0.5-20.9C413,331.7,412.7,340.7,411.8,341.7z"/>
				<path class="st3" d="M398,264.9c3,3.9,14.1-1.3,20.8-15.9C408.7,258.4,399.6,265.1,398,264.9z"/>
				<path class="st3" d="M398.9,259.3c3.7,3.1,13.5-4.3,17.3-20C408,250.6,400.5,259.1,398.9,259.3z"/>
				<path class="st3" d="M426.6,358.4c4.7-1.1,4-13.8-7.3-26.3C424.3,345.6,427.3,356.9,426.6,358.4z"/>
				<path class="st3" d="M397.7,322c1.4-4.2-8.3-9.4-22.8-6.3C387.2,317.9,396.9,320.7,397.7,322z"/>
				<path class="st3" d="M395.8,312.4c2.9,1.9,9.2-4.7,10.3-16.6C401.4,304.9,396.9,312,395.8,312.4z"/>
				<path class="st3" d="M447,371c2.6,4.9-8,13.7-26,13.5C435.2,378.7,446.3,372.8,447,371z"/>
				<path class="st3" d="M399.4,326.3c-2.7-6.3-14.8-15.5-17-15.8C387.3,324.1,396.6,329.6,399.4,326.3z"/>
			</g>
			<g>
				<path class="st4" d="M392.4,273.9c4.1-4.7,17.5-9.1,19.6-8.9C404,275.5,394.1,277.6,392.4,273.9z"/>
				<path class="st4" d="M417.5,351.5c-1.8,3.9-12.7,0.9-21.6-11.2C406.7,347.2,416.1,351.9,417.5,351.5z"/>
				<path class="st4" d="M393.1,298.5c-4.2,2.7-13.1-6.7-14.7-23.9C385,287.8,391.5,298,393.1,298.5z"/>
				<path class="st4" d="M401.5,332.8c-0.8,3.7-10.7,3.6-20.9-4.7C391.4,331.5,400.4,333.4,401.5,332.8z"/>
				<path class="st4" d="M392.1,307.9c-2.3,3.2-11.3-1.3-16.8-13.7C383.5,302.2,390.8,307.9,392.1,307.9z"/>
				<path class="st4" d="M394.8,260.3c-4.4,1.6-10.2-9.1-7.3-25C390.2,248.8,393.5,259.5,394.8,260.3z"/>
				<path class="st4" d="M399.3,245.4c-4.3,0.2-6.9-10.8-0.5-24.3C398,233.9,398.3,244.4,399.3,245.4z"/>
				<path class="st4" d="M404.3,237.8c-3.5-0.5-3.7-9.7,3.5-19.4C405.1,228.4,403.7,236.8,404.3,237.8z"/>
				<path class="st4" d="M410.3,231.7c-3.1-1.6-0.7-10.4,9-17.3C413.8,223,410,230.5,410.3,231.7z"/>
				<path class="st4" d="M394.2,274.9c-3.8,2.1-9.6-3.5-10-18.3C389.4,268.3,392.9,274.4,394.2,274.9z"/>
				<path class="st4" d="M426.8,360.7c-0.9,4.6-13.1,4.4-25.7-5.9C414.3,359.1,425.4,361.5,426.8,360.7z"/>
				<path class="st4" d="M418.6,351.2c-4-4.3-7.2-17.3-6.7-19.2C420.9,340.7,422.1,350.1,418.6,351.2z"/>
				<path class="st4" d="M401.8,326.2c-3.6-5.8-3.9-20.9-2.9-23C407.1,315.1,406.1,325.9,401.8,326.2z"/>
				<path class="st4" d="M399.1,326.3c-2.7,3.3-11.9-2.2-16.9-15.8C390.4,319.6,397.7,326.3,399.1,326.3z"/>
			</g>
			<g>
				<path class="st3" d="M392.4,274c1.6,3.6,11.5,1.5,19.5-8.9C399.9,271.9,395.2,274.9,392.4,274z"/>
				<path class="st3" d="M401.7,326.1c4.3-0.4,5.3-11-2.9-22.8C401.4,315.1,402.6,324.9,401.7,326.1z"/>
				<path class="st3" d="M418.7,351.2c3.5-1.1,2.2-10.5-6.7-19.2C416.4,341.7,419.2,350,418.7,351.2z"/>
				<path class="st3" d="M394.2,291.8c2.1-8.4-1.7-22.6-4.3-25.6C385.2,281.6,389.7,292.8,394.2,291.8z"/>
			</g>
			<path class="st4" d="M393.9,293.8c-5.9,1.3-8.6-12-4.1-27.1C390.9,280.2,392.7,292.8,393.9,293.8z"/>
			<path class="st4" d="M392.7,293.7c-0.6-7.5,6.9-23.1,8.9-24.7C403.7,284.8,397.2,295.3,392.7,293.7z"/>
			<path class="st3" d="M392.8,293.6c4.4,1.6,10.9-8.8,8.8-24.6C398.2,282.3,394.2,292.8,392.8,293.6z"/>
			<path class="st4" d="M394.1,303.3c0-7.6,8.5-22.2,10.6-23.6C405.5,295.8,398.4,305.5,394.1,303.3z"/>
			<path class="st3" d="M394.2,303.4c4.2,2.2,11.3-7.4,10.5-23.5C400.3,292.7,395.6,302.8,394.2,303.4z"/>
		</g>
		<g>
			<circle class="st5" cx="396.8" cy="251.3" r="1.1"/>
			<circle class="st5" cx="405.2" cy="245.1" r="1.1"/>
			<circle class="st5" cx="401.6" cy="241.7" r="1.1"/>
			<circle class="st6" cx="392.5" cy="313.1" r="1.3"/>
			<circle class="st6" cx="395" cy="297.1" r="1.3"/>
			<circle class="st6" cx="408.2" cy="334.5" r="1.3"/>
			<circle class="st6" cx="402.4" cy="336.4" r="1.3"/>
			<circle class="st6" cx="446.7" cy="367.6" r="1.3"/>
			<circle class="st6" cx="449.6" cy="374.7" r="1.3"/>
		</g>
	</g>
	<g>
		<g>
			<path class="st2" d="M561.2,259c0.6,0.6,1.2,0.8,2.3,1.9"/>
			<path class="st2" d="M556.8,241.9c0-1.4-0.6-3.6-0.9-5"/>
			<path class="st2" d="M559.3,239.9c0.1,2-0.2,3.8-1.1,5.5"/>
			<path class="st2" d="M554.1,244.9c1.8,1.6,3.5,3.1,5.3,3.9"/>
			<path class="st2" d="M563.2,250c0.1,2-0.1,4-0.7,5.9"/>
			<path class="st2" d="M562.8,257.5l1.3-2.3"/>
			<path class="st2" d="M562.3,267.4c1.4,0.3,2.8,1.9,3.5,3.5"/>
			<path class="st2" d="M566.3,269.6l1.6-2.2"/>
			<path class="st2" d="M569.6,298.2c-0.7,1.3-1.6,2.4-2.5,3.5"/>
			<path class="st2" d="M563.2,301.6c0.8,1.5,1.6,2.9,2.6,4"/>
			<path class="st2" d="M568.3,311.5c-1.3,1.8-2.8,3.2-4.4,4"/>
			<path class="st2" d="M564,320c-1.1,0.8-2.4,3-3.7,4.7"/>
			<path class="st2" d="M568.7,304.5l-2.1,0.9"/>
			<path class="st2" d="M565.2,297.9l1.3,1.1"/>
			<path class="st2" d="M557.2,336.4c-0.8-0.1-1.5,0-2.1,0.1"/>
			<path class="st2" d="M553,334.5l0.6,1.6"/>
			<path class="st2" d="M545.9,341.3c-0.3,1.9-0.1,3.7,0.2,5.6"/>
			<path class="st2" d="M550.4,337.9l1,2.3"/>
			<path class="st2" d="M555.3,339.9l-2.5,0.4"/>
			<path class="st2" d="M521.9,365.6l-0.9,1.7"/>
			<path class="st2" d="M532.9,363.4c-1.5,0.2-2.8,0-4.1-0.2"/>
			<path class="st2" d="M523.3,369.2c-1.1-0.4-2-0.7-2.9-1"/>
			<path class="st2" d="M505.6,370.9c-0.9,0.8-2,2.4-3.1,4.1"/>
			<path class="st2" d="M502,370.4c-2.4,1.3-3.2,3.7-4.4,5.8"/>
			<path class="st2" d="M500.4,379.1c-1.6-0.5-3.4-1.2-5.3-2"/>
			<path class="st2" d="M511.8,376.3c-2.3-1.2-4.7-1.1-7.1-1.5"/>
			<path class="st2" d="M515.5,374.5c-3.6-0.7-7-0.6-10.3-0.1"/>
			<path class="st2" d="M513,371.8l-1.4-0.6"/>
			<path class="st2" d="M506,376.7l-2.3-1.3"/>
			<path class="st2" d="M561.6,326.2c-1.3,0.8-2.5,2.3-3.8,3.9"/>
			<path class="st2" d="M559.7,250.5l-2.2-0.7"/>
		</g>
		<g>
			<path class="st3" d="M474.4,384.9c0.8-1.3,2.1-2,3.3-2.7c7.7-4.1,15.4-5.8,24.1-7.2c2-0.3,4-2.2,6.1-3.2c5-2.4,10.5-3.3,15.3-5.7
				c0.3-0.1,1.5-0.9,2.1-1.5c1.9-2.2,5.4-2.9,7.5-5c8.3-7.9,17.2-15.1,21.8-25.5c5.6-12.7,12.5-25.8,11.6-40.2
				c-0.6-9.1,0.8-18.4-1.5-27c-3.3-12.9-7.6-25.6-15.4-36.3l1.3,0.8c7.9,10.7,12.1,23.4,15.5,36.3c2.2,8.7,0.9,17.9,1.5,27
				c0.9,14.4-6,27.5-11.6,40.3c-4.6,10.4-13.5,17.6-21.8,25.5c-2.2,2-5.6,2.7-7.5,5c-0.6,0.6-1.8,1.4-2.1,1.5
				c-4.8,2.4-10.3,3.3-15.3,5.7c-2.1,1-4.1,2.8-6.1,3.2c-8.7,1.4-16.4,3.2-24.1,7.2c-1.2,0.6-2.5,1.4-3.3,2.7L474.4,384.9"/>
			<g>
				<path class="st3" d="M553.7,334.6c2.7-7.4,0-24.8-1.5-27C545.5,323,548.8,335.2,553.7,334.6z"/>
				<path class="st3" d="M546.5,341.6c2.3-5.6,0.6-19.3-0.5-21C540.6,332.3,542.8,341.9,546.5,341.6z"/>
				<path class="st3" d="M563.3,267.5c-3.3-6.1-16.9-14.4-19.3-14.6C550.3,266.2,560.6,271.1,563.3,267.5z"/>
				<path class="st3" d="M561.8,259.5c-1.8-6.1-12.4-16.1-14.5-16.7C550.4,255.8,558.7,262.1,561.8,259.5z"/>
				<path class="st3" d="M566.5,274.4c-3.5-4.1-15.2-7.9-17-7.7C556.5,275.8,565.1,277.6,566.5,274.4z"/>
				<path class="st3" d="M563.7,320.8c6.1,1,19-4.1,20.3-5.6C571.1,312.3,562.5,317,563.7,320.8z"/>
				<path class="st3" d="M563.5,315.1c0-5.6-6.4-16.9-8-17.9C555,309.2,560.4,316.6,563.5,315.1z"/>
				<path class="st3" d="M564,301.4c0-7.6-8.5-22.2-10.6-23.6C552.6,294,559.7,303.6,564,301.4z"/>
				<path class="st3" d="M511.1,376.7c4.5,5.5,19.7,11.1,22.1,10.9C524.4,375.4,513.1,372.6,511.1,376.7z"/>
			</g>
			<g>
				<path class="st4" d="M553.6,334.4c-4.8,0.6-8.1-11.4-1.4-26.8C551.7,321.8,552.4,333.3,553.6,334.4z"/>
				<path class="st4" d="M500.2,378.1c7.1,0.4,20.6,9.3,21.9,11.4C507,389.6,498,382.2,500.2,378.1z"/>
				<path class="st4" d="M500.2,370.1c2.1-8,15-21.2,17.5-22.2C514.1,365.1,504,373.5,500.2,370.1L500.2,370.1z"/>
				<path class="st4" d="M521.5,365.9c-1-7.8,5.7-24.2,7.6-26C532,356.4,526,367.5,521.5,365.9z"/>
				<path class="st4" d="M542.9,351.4c4.5-5.5,19.4-11.3,21.7-11.1C555.7,352.3,544.8,355.3,542.9,351.4z"/>
				<path class="st4" d="M568.7,298.1c0.9-6.3,9.7-17.9,11.6-18.9C579.1,292.8,572,300.3,568.7,298.1z"/>
				<path class="st4" d="M557,336.2c5.8-4.3,22.1-6.2,24.4-5.5C569.6,340.4,557.9,340.5,557,336.2z"/>
				<path class="st4" d="M567.3,311.7c3-6,15.6-14.2,17.8-14.4C579.2,310.3,569.7,315.1,567.3,311.7z"/>
				<path class="st4" d="M565.8,266.1c-0.1-7.6,8-22.7,10-24.2C576.9,258,570.1,268.1,565.8,266.1L565.8,266.1z"/>
				<path class="st4" d="M558.9,240.2c-2.3-5.3-1.1-18.4-0.1-20.1C564.3,231.1,562.5,240.3,558.9,240.2z"/>
				<path class="st4" d="M554.7,238c-5.3-4.7-10.6-19.8-10.4-22.1C556,225.2,558.6,236.3,554.7,238z"/>
				<path class="st4" d="M566.3,272.5c-0.3,0.8,2.9-7.7,14.2-15.3C576.5,271.5,569.5,275.5,566.3,272.5z"/>
				<path class="st4" d="M532.2,362.4c7-5.2,26.5-7.6,29.2-6.7C547.2,367.5,533.2,367.7,532.2,362.4z"/>
				<path class="st4" d="M546.5,341.6c-3.7,0.2-6-9.3-0.5-20.9C545.3,331.6,545.6,340.7,546.5,341.6z"/>
				<path class="st4" d="M563.4,267.5c-2.7,3.6-12.9-1.2-19.1-14.6C553.6,261.5,561.9,267.7,563.4,267.5z"/>
				<path class="st4" d="M561.7,259.5c-3.1,2.6-11.3-3.6-14.4-16.6C554,252.2,560.3,259.3,561.7,259.5z"/>
				<path class="st4" d="M566.5,274.5c-1.4,3.1-9.9,1.3-16.9-7.7C560,272.7,564.1,275.2,566.5,274.5z"/>
				<path class="st4" d="M563.9,320.7c-1.2-3.8,7.4-8.3,20.2-5.6C573.2,317.1,564.5,319.6,563.9,320.7z"/>
				<path class="st4" d="M563.5,315.1c-3.1,1.5-8.4-5.9-7.9-17.9C558.9,307,562.4,314.6,563.5,315.1z"/>
				<path class="st4" d="M563.9,301.6c-4.2,2.2-11.3-7.4-10.5-23.5C557.8,290.9,562.5,301,563.9,301.6z"/>
				<path class="st4" d="M511.2,376.7c2-4.1,13.2-1.4,22,10.9C522.2,380.8,512.7,376.2,511.2,376.7z"/>
			</g>
			<g>
				<path class="st3" d="M521.5,365.8c4.5,1.6,10.4-9.4,7.5-25.9C526.3,353.9,522.9,365,521.5,365.8z"/>
				<path class="st3" d="M531.8,360.6c4.3-6.7,5.5-24.6,4.6-27C526.5,347.2,527,359.9,531.8,360.6z"/>
				<path class="st3" d="M500.1,378.1c-2.1,4.1,6.7,11.4,21.8,11.3C510,384.6,500.7,379.6,500.1,378.1z"/>
				<path class="st3" d="M500.3,370.1c3.8,3.3,13.8-4.9,17.4-22.1C509.6,360.4,502,369.8,500.3,370.1z"/>
				<path class="st3" d="M543,351.4c1.8,3.9,12.7,0.9,21.6-11.2C553.8,347.1,544.4,351.8,543,351.4z"/>
				<path class="st3" d="M568.8,298.1c3.3,2.1,10.3-5.3,11.6-18.8C575.1,289.7,570.1,297.7,568.8,298.1z"/>
				<path class="st3" d="M557.1,336.2c0.9,4.3,12.5,4.2,24.3-5.5C568.9,334.7,558.4,336.9,557.1,336.2z"/>
				<path class="st3" d="M567.4,311.6c2.5,3.4,11.9-1.3,17.7-14.4C576.5,305.6,568.8,311.7,567.4,311.6z"/>
				<path class="st3" d="M565.9,266c4.2,2,11.1-8,9.9-24.1C571.7,255,567.4,265.3,565.9,266z"/>
				<path class="st3" d="M559,240.1c3.5,0.1,5.4-9-0.1-20C559.8,230.6,559.7,239.2,559,240.1z"/>
				<path class="st3" d="M554.7,237.9c4-1.7,1.3-12.7-10.4-22C550.8,226.9,555.2,236.5,554.7,237.9z"/>
				<path class="st3" d="M566.3,272.6c3.2,3,10.1-1.1,14.2-15.3C572.7,267.3,567.8,272.4,566.3,272.6z"/>
				<path class="st3" d="M532.2,362.5c1,5.2,14.9,5,29.1-6.7C546.4,360.6,533.9,363.4,532.2,362.5z"/>
				<path class="st3" d="M539.1,354.8c3.3-4.9,4.3-18.3,3.6-20.1C535.2,344.8,535.5,354.2,539.1,354.8z"/>
				<path class="st3" d="M558.7,326.1c3.6-5.8,3.9-20.9,2.9-23C553.4,315,554.4,325.8,558.7,326.1z"/>
			</g>
			<g>
				<path class="st4" d="M531.8,360.5c-4.8-0.6-5.3-13.3,4.6-26.9C532.7,347.5,530.9,359.1,531.8,360.5z"/>
				<path class="st4" d="M567,292.2c-0.9-7.8,4-20.1,6.6-22.5C576.2,284.1,570.9,293.6,567,292.2z"/>
				<path class="st4" d="M539.1,354.7c-3.6-0.5-3.9-10,3.5-20C539.9,345,538.4,353.6,539.1,354.7z"/>
				<path class="st4" d="M562.5,250.5c-2.2-5.9,0-20,1.2-21.8C569,240.9,566.3,250.8,562.5,250.5z"/>
				<path class="st4" d="M504.4,370.6c2.5-8.1,16.2-21.1,18.8-21.9C518.9,366.1,508.1,374.2,504.4,370.6z"/>
				<path class="st4" d="M558.9,329c2.7-6.3,14.8-15.5,17-15.8C571,326.8,561.7,332.3,558.9,329z"/>
				<path class="st4" d="M558.8,326c-4.3-0.4-5.3-11,2.9-22.8C559.1,315,557.9,324.8,558.8,326z"/>
			</g>
			<path class="st3" d="M567,294c5.2,1.8,9.1-9.9,6.6-23.9C571.2,282.2,568.2,293.3,567,294z"/>
			<path class="st3" d="M567.8,293.6c0.6-7.5-6.9-23.1-8.9-24.7C556.8,284.7,563.3,295.2,567.8,293.6z"/>
			<path class="st3" d="M562.5,250.4c3.8,0.3,6.5-9.4,1.2-21.7C564.1,240.2,563.5,249.5,562.5,250.4z"/>
			<path class="st3" d="M504.5,370.5c3.8,3.6,14.4-4.4,18.7-21.8C514.4,361,506.2,370.3,504.5,370.5L504.5,370.5z"/>
			<path class="st3" d="M559.1,329c2.7,3.3,11.9-2.2,16.9-15.8C567.9,322.3,560.5,329,559.1,329z"/>
			<path class="st4" d="M567.7,293.5c-4.4,1.6-10.9-8.8-8.8-24.6C562.3,282.2,566.3,292.7,567.7,293.5z"/>
		</g>
		<g>
			<circle class="st6" cx="564.6" cy="254.9" r="1.1"/>
			<circle class="st6" cx="568.4" cy="266.8" r="1.1"/>
			<circle class="st6" cx="569.8" cy="304.3" r="1.3"/>
			<circle class="st6" cx="564.6" cy="297.3" r="1.3"/>
			<circle class="st6" cx="549.9" cy="337.2" r="1.3"/>
			<circle class="st6" cx="556.2" cy="339.9" r="1.3"/>
			<circle class="st6" cx="513.8" cy="372.3" r="1.3"/>
			<circle class="st6" cx="506.8" cy="377.3" r="1.3"/>
			<circle class="st6" cx="557.1" cy="249.2" r="1.1"/>
		</g>
	</g>
	<g id="gun">
		<path class="st7" d="M434.2,336.3c-0.1,1.1,0.8,2.3,2.1,2.1c0.4-0.1,0.6-0.6,0.1-0.5c-0.4,0.1-0.9-0.1-1.2-0.4
			c-0.6-0.6-0.7-1.4-0.4-1.9C434.7,335.8,434.5,336,434.2,336.3L434.2,336.3L434.2,336.3z"/>
		<path class="st8" d="M437.2,338.3c-1,1.2-2.6,1.7-3.4,0.8c-0.6-0.6-0.8-1.2-0.5-1.9c-0.4,0.5-0.8,0.9-1.1,1.2
			c0,0.1,0.7,1.3,1.7,1.8c1.2,0.6,3-0.3,4-1.6c0.7-0.9,1.6-2.4,1-3.6c-0.4-0.7-1.2-1.4-2-1.7c-0.4,0.4-0.7,0.7-1,1.1
			c0.5-0.2,1.1-0.1,1.7,0.3C438.9,335.8,438.2,337.3,437.2,338.3L437.2,338.3L437.2,338.3z"/>
		<path class="st9" d="M437.2,338.3c-0.3,0.4-0.7,0.7-1.2,1c-0.4,0.2-1,0.4-1.5,0.3c-0.3,0-0.5-0.1-0.7-0.3
			c-0.2-0.2-0.4-0.4-0.5-0.6c-0.1-0.2-0.2-0.5-0.2-0.7c0-0.3,0-0.5,0.1-0.8l0.1,0.1l-1.1,1.2l0-0.1c0.3,0.5,0.6,0.9,1,1.3
			c0.2,0.2,0.4,0.3,0.7,0.4c0.2,0.1,0.5,0.1,0.8,0.1c0.5,0,1.1-0.2,1.6-0.5c0.5-0.3,0.9-0.6,1.3-1c0.4-0.4,0.7-0.9,0.9-1.4
			c0.2-0.5,0.4-1,0.4-1.6c0-0.3-0.1-0.5-0.2-0.8c-0.1-0.2-0.3-0.5-0.5-0.7c-0.4-0.4-0.9-0.7-1.4-0.9l0.1,0l-1,1.1l-0.1-0.1
			c0.2-0.1,0.5-0.1,0.8-0.1c0.3,0,0.5,0.1,0.7,0.2c0.4,0.3,0.8,0.6,0.9,1.1c0.1,0.5,0,1-0.2,1.4C437.9,337.6,437.6,338,437.2,338.3
			L437.2,338.3L437.2,338.3z M437.2,338.3c0.3-0.4,0.6-0.8,0.8-1.2c0.2-0.4,0.3-0.9,0.2-1.4c-0.1-0.5-0.5-0.8-0.9-1.1
			c-0.4-0.2-0.9-0.3-1.3-0.1l-0.1-0.1l1-1.1l0,0l0.1,0c0.5,0.2,1,0.5,1.4,1c0.2,0.2,0.4,0.4,0.5,0.7c0.1,0.3,0.2,0.6,0.3,0.9
			c0,0.6-0.1,1.2-0.4,1.7c-0.3,0.5-0.6,1-1,1.4c-0.4,0.4-0.8,0.8-1.4,1.1c-0.5,0.3-1.1,0.5-1.7,0.5c-0.3,0-0.6,0-0.9-0.2
			c-0.3-0.1-0.5-0.3-0.7-0.5c-0.4-0.4-0.8-0.9-1.1-1.4l0-0.1l0,0l1.1-1.2l0.1,0.1c-0.1,0.2-0.2,0.5-0.1,0.7c0,0.2,0.1,0.5,0.2,0.7
			c0.1,0.2,0.3,0.4,0.5,0.6c0.2,0.2,0.4,0.3,0.7,0.3c0.5,0.1,1-0.1,1.4-0.3C436.5,339,436.9,338.7,437.2,338.3L437.2,338.3z"/>
		<path class="st10" d="M515.2,249.2l-40.1,39.5c-3.1,3-38,36.4-41.1,39.4c-1.1,1.3-4.2,4.9-4.6,5.4c-2.1,2.3-4.4,5.3-7.2,8
			c-0.5,0.6-1.1,0.4-1.7,0.7c-1.8,1.1-3.7,2.9-5.1,4.4l-12.2,13.5c-0.8,0.9-1,1.4-0.5,1.9l6.6,8.8c1.2,1.2,2.6,1.8,3.2,0.8
			c3.1-5.4,11-13.8,13.9-20.3c1.8-3.9,4-11.1,5.6-12.8c1.9-2.2,7.2-7.7,11.8-12.7c0.3-0.3,0.6-0.7,0.9-1c0.3-0.3,0.6-0.7,0.9-1
			c23.5-24,50.7-53,70.5-73.6C515.5,249.5,516,250,515.2,249.2L515.2,249.2z"/>
		<path class="st7" d="M431.9,328.1c-1.2,0-2-0.7-2.8-1.4c1.2,0.3,2.3,0.8,3.5,0.3L431.9,328.1L431.9,328.1z"/>
		<path class="st11" d="M557,220.1l-31.8,26.2c-0.3,0.4-0.6,0.3-0.9,0l-2.9-2.4c0,0,0-0.1,0-0.1c0-0.2,0-0.3-0.1-0.5l1.4-1.4
			c0.2-0.2,0.1-0.3-0.1-0.5c-0.2-0.2-0.3-0.4-0.6-0.6c-0.2-0.2-0.4,0-0.6,0.2l-1.4,1.5c-0.7,0-1.3,0.6-1.4,1.4
			c-19.2,18.7-35.8,35.4-54.9,53.9l-22.6,21.5c-0.8,1-4.3,2.9-6.6,4.4c-0.8,0.5-1.5,1-1.8,1.5l-1.8,5.4c-0.6,1.2-2.4,4-2.5,4.2
			c2.4,2.4,2.2,2.2,3.9,3.7c1.8-2,6.7-7.1,11.1-11.9c0.4-0.4,0.4-0.4,0.8-1c-0.3-0.5-0.9-1.2-1.4-1.7c-0.4-0.4-0.8-0.8-1.2-1.1
			c-0.2-0.2-0.5-0.4-0.6-0.5c-0.2-0.2,0.2-0.4,0.4-0.6c26.5-25.6,55-53.7,78.3-76.6c0.1,0,0.3,0.1,0.4,0.1c0.2,0,0.4-0.1,0.6-0.2
			l2.8,3.2c0.7,0.7,1.2,0.6,1.7,0.4L557,220.1L557,220.1z"/>
		<path class="st9" d="M431,330.4c0.2,0,0.4,0,0.6,0c0.2,0,0.4-0.1,0.6-0.2l0,0c0.2-0.8,0.5-1.6,0.7-2.4c0.2-0.8,0.5-1.6,0.8-2.4
			l0,0c-0.2-0.2-0.4-0.4-0.7-0.5c0.3,0.1,0.6,0.2,0.8,0.5l0,0l0,0c-0.2,0.8-0.5,1.6-0.7,2.4c-0.2,0.8-0.5,1.6-0.8,2.4l0,0l0,0
			c-0.2,0.1-0.4,0.1-0.6,0.1C431.4,330.5,431.1,330.4,431,330.4L431,330.4z"/>
		<circle class="st12" cx="438.2" cy="328.1" r="0.6"/>
		<circle class="st12" cx="434.4" cy="331.9" r="0.6"/>
		<path class="st9" d="M441,322.4c-0.3-0.2-0.6-0.5-0.9-0.8c-0.3-0.3-0.6-0.6-0.8-0.9c0.3,0.2,0.6,0.5,0.9,0.8
			C440.4,321.8,440.7,322.1,441,322.4L441,322.4z"/>
		<path class="st7" d="M502.2,259.1l3.5,3.4l0.6-0.6l-3.5-3.4L502.2,259.1L502.2,259.1z"/>
	</g>
	<g transform="matrix(-0.99877061,-0.04957067,-0.04957067,0.99877061,973.59129,23.686411)">
		<g id="gun_1_">
			<path class="st7" d="M523.2,338c0.1,1.1-1,2.3-2.2,2c-0.4-0.1-0.6-0.6-0.1-0.5c0.4,0.1,0.9,0,1.2-0.3c0.6-0.5,0.7-1.3,0.5-1.9
				C522.8,337.5,523,337.8,523.2,338L523.2,338L523.2,338z"/>
			<path class="st8" d="M520.1,339.9c1,1.2,2.5,1.8,3.4,1c0.6-0.5,0.8-1.2,0.6-1.9c0.4,0.5,0.8,0.9,1.1,1.3
				c-0.1,0.1-0.8,1.3-1.8,1.7c-1.2,0.5-3-0.4-3.9-1.8c-0.7-0.9-1.4-2.5-0.8-3.7c0.4-0.7,1.3-1.4,2-1.6c0.3,0.4,0.7,0.8,1,1.2
				c-0.5-0.3-1.1-0.2-1.7,0.2C518.6,337.3,519.3,338.8,520.1,339.9L520.1,339.9L520.1,339.9z"/>
			<path class="st9" d="M520.1,339.9c0.3,0.4,0.7,0.8,1.1,1c0.4,0.3,0.9,0.4,1.5,0.4c0.3,0,0.5-0.1,0.7-0.3c0.2-0.2,0.4-0.3,0.5-0.6
				c0.1-0.2,0.3-0.5,0.3-0.7c0-0.3,0-0.5-0.1-0.8l-0.1,0.1l1,1.3l0-0.1c-0.3,0.5-0.7,0.9-1.1,1.2c-0.2,0.2-0.5,0.3-0.7,0.4
				c-0.3,0.1-0.5,0.1-0.8,0.1c-0.5,0-1.1-0.3-1.5-0.6c-0.5-0.3-0.9-0.7-1.2-1.1c-0.4-0.4-0.6-0.9-0.9-1.4c-0.2-0.5-0.4-1.1-0.3-1.6
				c0-0.3,0.1-0.5,0.3-0.8c0.1-0.2,0.3-0.4,0.5-0.6c0.4-0.4,0.9-0.7,1.4-0.9l-0.1,0l1,1.1l0.1-0.1c-0.2-0.1-0.5-0.2-0.7-0.2
				c-0.3,0-0.5,0.1-0.7,0.2c-0.4,0.2-0.8,0.6-1,1.1c-0.2,0.5-0.1,1,0.1,1.5C519.5,339.1,519.8,339.6,520.1,339.9L520.1,339.9
				L520.1,339.9z M520.1,339.9c-0.3-0.4-0.6-0.8-0.7-1.3c-0.2-0.4-0.3-1-0.1-1.4c0.2-0.5,0.5-0.8,1-1c0.4-0.2,0.9-0.3,1.3,0l0.1-0.1
				l-1-1.2l0,0l-0.1,0c-0.6,0.2-1.1,0.5-1.5,0.9c-0.2,0.2-0.4,0.4-0.6,0.7c-0.2,0.2-0.3,0.5-0.3,0.8c-0.1,0.6,0.1,1.2,0.3,1.7
				c0.2,0.5,0.5,1,0.9,1.5c0.4,0.5,0.8,0.8,1.3,1.1c0.5,0.3,1.1,0.5,1.6,0.6c0.3,0,0.6,0,0.9-0.1c0.3-0.1,0.5-0.3,0.8-0.4
				c0.5-0.4,0.8-0.8,1.1-1.3l0-0.1l0,0l-1.1-1.3l-0.1,0.1c0.1,0.2,0.1,0.5,0.1,0.7c0,0.2-0.1,0.5-0.3,0.7c-0.1,0.2-0.3,0.4-0.5,0.5
				c-0.2,0.1-0.4,0.2-0.7,0.3c-0.5,0.1-1-0.1-1.4-0.3C520.8,340.7,520.4,340.3,520.1,339.9L520.1,339.9z"/>
			<path class="st10" d="M446.6,247.1l38.1,41.5c2.9,3.2,36.1,38.2,39.1,41.4c1,1.4,4,5.1,4.3,5.6c2,2.4,4.2,5.5,6.8,8.4
				c0.5,0.6,1.1,0.5,1.7,0.8c1.8,1.1,3.5,3,4.8,4.6l11.5,14.1c0.7,0.9,0.9,1.4,0.4,1.9l-7.1,8.5c-1.3,1.2-2.7,1.7-3.2,0.7
				c-2.9-5.6-10.3-14.3-12.9-21c-1.6-4-3.4-11.2-4.9-13c-1.8-2.3-6.8-8.1-11.2-13.3c-0.3-0.4-0.6-0.7-0.9-1
				c-0.3-0.4-0.6-0.7-0.9-1.1c-22.3-25.1-48-55.5-66.8-77C446.4,247.3,445.8,247.8,446.6,247.1L446.6,247.1z"/>
			<path class="st7" d="M526,330c1.2,0.1,2.1-0.6,2.9-1.3c-1.2,0.3-2.4,0.7-3.5,0.2L526,330L526,330z"/>
			<path class="st11" d="M406.3,215.9l30.5,27.8c0.3,0.4,0.6,0.3,0.9,0l3-2.3c0,0,0-0.1,0-0.1c0-0.2,0-0.3,0.1-0.5l-1.3-1.5
				c-0.2-0.2-0.1-0.3,0.1-0.5c0.2-0.2,0.4-0.3,0.6-0.6c0.2-0.2,0.4,0,0.6,0.2l1.4,1.5c0.7,0.1,1.3,0.7,1.3,1.4
				c18.3,19.7,34,37.2,52.2,56.5l21.5,22.6c0.8,1.1,4.1,3.1,6.4,4.7c0.8,0.6,1.5,1.1,1.7,1.6l1.6,5.5c0.5,1.2,2.2,4.1,2.3,4.3
				c-2.5,2.3-2.4,2.1-4,3.5c-1.7-2.1-6.3-7.4-10.5-12.4c-0.3-0.4-0.4-0.4-0.8-1c0.4-0.5,1-1.2,1.5-1.6c0.4-0.4,0.9-0.7,1.3-1
				c0.3-0.2,0.5-0.4,0.7-0.5c0.2-0.1-0.2-0.5-0.4-0.7c-25.2-26.9-52.2-56.4-74.4-80.4c-0.1,0-0.3,0-0.4,0c-0.2,0-0.4-0.1-0.6-0.2
				l-2.9,3.1c-0.7,0.6-1.2,0.6-1.8,0.3L406.3,215.9L406.3,215.9z"/>
			<path class="st9" d="M526.8,332.3c-0.2,0-0.4,0-0.6,0c-0.2,0-0.4-0.1-0.6-0.2l0,0c-0.2-0.8-0.4-1.6-0.6-2.4
				c-0.2-0.8-0.4-1.6-0.6-2.4l0,0c0.2-0.2,0.5-0.4,0.8-0.5c-0.3,0-0.6,0.2-0.8,0.4l0,0l0,0c0.2,0.8,0.4,1.6,0.6,2.4
				c0.2,0.8,0.4,1.6,0.6,2.4l0,0l0,0c0.2,0.1,0.4,0.2,0.6,0.2C526.4,332.4,526.6,332.3,526.8,332.3L526.8,332.3z"/>
			
				<ellipse transform="matrix(4.957067e-02 -0.9988 0.9988 4.957067e-02 164.6327 832.4001)" class="st12" cx="519.7" cy="329.7" rx="0.6" ry="0.6"/>
			
				<ellipse transform="matrix(4.957067e-02 -0.9988 0.9988 4.957067e-02 164.0903 839.6776)" class="st12" cx="523.2" cy="333.6" rx="0.6" ry="0.6"/>
			<path class="st9" d="M517.2,323.8c0.3-0.2,0.6-0.5,0.9-0.7c0.3-0.3,0.6-0.5,0.9-0.8c-0.3,0.2-0.6,0.5-0.9,0.7
				C517.8,323.3,517.5,323.5,517.2,323.8L517.2,323.8z"/>
			<path class="st7" d="M459.2,257.5l-3.7,3.2l-0.6-0.6l3.7-3.2L459.2,257.5L459.2,257.5z"/>
		</g>
	</g>
	<g>
		<path class="st4" d="M433.9,365.4c-7.9-3.3-26.9-0.7-29.2,0.9C421,374.3,434.2,370.9,433.9,365.4z"/>
		<path class="st4" d="M522.9,368.7c7.9-3.3,26.9-0.7,29.2,0.9C535.9,377.6,522.6,374.2,522.9,368.7z"/>
		<path class="st3" d="M433.8,365.5c0.3,5.5-12.8,8.9-29.1,0.9C420,367.3,432.5,366.8,433.8,365.5z"/>
		<path class="st3" d="M523.1,368.8c-0.3,5.5,12.8,8.9,29.1,0.9C536.9,370.6,524.4,370.1,523.1,368.8z"/>
	</g>
	<g id="sword">
		<path class="st11" d="M508.5,360c-20.7-30.1-52-54.6-76.1-68c3.6-0.2,11.5,3.9,14.7,5.9c23.9,15.4,44.3,35.8,65.7,59.8
			c-1.3,1.2-2.1,2-3.4,3.1L508.5,360L508.5,360z"/>
		<path class="st8" d="M510.5,359.8l-1.5,1.4c-23-29.6-55.1-57.9-76.7-69.1C462.5,305.9,487.8,333.8,510.5,359.8L510.5,359.8
			L510.5,359.8z"/>
		<path class="st9" d="M510.6,359.8l-1.4,1.4l0,0l0,0c-5.3-6.8-11-13.4-16.9-19.7c-5.9-6.3-12-12.5-18.4-18.3
			c-6.4-5.9-12.9-11.5-19.8-16.8c-3.4-2.6-6.9-5.2-10.5-7.6c-3.6-2.4-7.3-4.7-11.1-6.6l0.1-0.2c7.9,3.6,15.3,8.2,22.4,13.3
			c7,5.1,13.7,10.7,20,16.6c6.4,5.9,12.4,12.1,18.3,18.5C499.1,346.7,504.8,353.2,510.6,359.8c-5.7-6.5-11.5-13-17.4-19.4
			c-5.9-6.3-12-12.6-18.3-18.5c-6.4-5.9-13-11.5-20-16.6c-7-5.1-14.5-9.6-22.4-13.2l0.1-0.2c3.8,2,7.5,4.3,11.1,6.7
			c3.6,2.4,7.1,4.9,10.5,7.6c6.9,5.3,13.4,10.9,19.8,16.8c6.4,5.9,12.5,12,18.4,18.4c5.9,6.4,11.5,13,16.8,19.8l0,0L510.6,359.8
			L510.6,359.8z"/>
		<g>
			<path class="st13" d="M517.5,355.1c-2,0.5-3.7,1.3-5.3,2.2c-0.2,1.4-2,3-3.6,3.3c-0.3-0.4-0.4-0.5-0.6-0.8c0,0-0.1-0.1-0.2,0
				c-0.1,0.1-0.3,0.2-0.6,0.3c-0.6-0.1-1.3,0.2-1.7,1c-0.4,1,0.4,2.2,1.2,3.1c0.9,0.7,1.4,1.1,2.5,0.9c1.1-0.2,1.7-1.2,1.9-1.5
				c3.7,4.5,6.5,6.9,11.2,10.6c2.1,0,3.2-1.3,2.5-2.8c-0.2-0.5-0.8-0.8-1.3-0.7c0-0.2,0-0.3,0-0.5c2.5-2.3,3.5-5.1,0.9-9.9
				C522.4,356.4,519.9,355.1,517.5,355.1L517.5,355.1L517.5,355.1z M523.7,359.6c0.4,0.7,0.7,1.4,1,2.1c1.5,3,0.2,6.6-2.3,7.7
				c-0.1,0-0.1,0-0.2,0c0.4-0.7-0.8-2.2-1.5-1.6c0.3-0.8-0.7-2-1.5-1.7c0.4-0.7-0.5-1.9-1.4-1.5c0.5-0.8-0.3-1.9-1.2-1.7
				c0.3-0.8-0.4-1.8-1.4-1.6c0.1-0.7-0.2-1.1-0.5-1.4c1.1-0.8,2.3-2.2,3.4-2.7C520.9,355.9,522.6,358.2,523.7,359.6L523.7,359.6
				L523.7,359.6L523.7,359.6L523.7,359.6z"/>
			<path class="st14" d="M524.9,362.8c-0.5-0.3-0.8-0.8-0.6-1.1c0.2-0.3,0.7-0.4,1.2-0.2c0.5,0.3,0.8,0.7,0.6,1.1
				C526,362.9,525.4,363,524.9,362.8L524.9,362.8L524.9,362.8z"/>
			<path class="st14" d="M524.6,361.8c-0.5-0.3-0.8-0.8-0.6-1.1c0.2-0.3,0.7-0.4,1.2-0.2c0.5,0.3,0.8,0.7,0.6,1.1
				C525.7,361.9,525.1,362,524.6,361.8L524.6,361.8L524.6,361.8z"/>
			<path class="st14" d="M524,360.6c-0.5-0.3-0.8-0.8-0.6-1.1c0.2-0.3,0.7-0.4,1.2-0.2c0.5,0.3,0.8,0.7,0.6,1.1
				C525.1,360.8,524.5,360.9,524,360.6L524,360.6L524,360.6z"/>
			<path class="st14" d="M523.2,359.6c-0.5-0.3-0.8-0.8-0.6-1.1c0.2-0.3,0.7-0.4,1.2-0.2c0.5,0.3,0.8,0.7,0.6,1.1
				C524.3,359.7,523.7,359.9,523.2,359.6L523.2,359.6L523.2,359.6z"/>
			<path class="st14" d="M522.2,358.6c-0.5-0.3-0.8-0.8-0.6-1.1c0,0,0-0.1,0.1-0.1c0.2,0.1,0.6,0.2,0.6-0.1
				c-0.1-0.1-0.1-0.2-0.1-0.1c0.1,0,0.5,0.1,0.6,0.2c0.5,0.3,0.8,0.7,0.6,1.1C523.3,358.8,522.7,358.9,522.2,358.6L522.2,358.6
				L522.2,358.6z"/>
		</g>
		<g>
			<path class="st15" d="M511.3,363.6c0.7-1.8,2-3.4,3.5-3.8"/>
			<path class="st15" d="M511.5,363.9c1.3,0.3,3.3-1.2,3.8-2.6"/>
			<path class="st15" d="M512.7,365.3c1.7,0.4,3.3-1.2,3.9-2.4"/>
			<path class="st15" d="M514.2,366.9c2,0.1,3.2-1.3,3.7-2.4"/>
			<path class="st15" d="M515.7,368.4c1.7,0,3.2-1.4,3.6-2.4"/>
			<path class="st15" d="M517.2,369.8c1.8-0.1,3.1-0.9,3.6-2.1"/>
			<path class="st15" d="M518.8,371.2c1.7,0.1,3-0.9,3.4-1.9"/>
			<path class="st15" d="M520.6,372.7c1.7,0.1,2.7-0.9,3.1-1.9"/>
		</g>
		<g>
			<path class="st16" d="M511.3,363.6c0.1-0.4,0.3-0.8,0.5-1.2c0.2-0.4,0.5-0.8,0.8-1.1c0.3-0.3,0.6-0.7,1-0.9
				c0.4-0.3,0.8-0.5,1.2-0.6c-0.4,0.1-0.8,0.4-1.2,0.6c-0.4,0.3-0.7,0.6-1,0.9C512.1,362,511.6,362.8,511.3,363.6L511.3,363.6z"/>
			<path class="st16" d="M511.5,363.9c0.4,0.1,0.8,0,1.2-0.2c0.4-0.2,0.7-0.4,1-0.6c0.3-0.2,0.6-0.5,0.9-0.8c0.3-0.3,0.5-0.6,0.7-1
				c-0.1,0.4-0.4,0.7-0.6,1.1c-0.3,0.3-0.6,0.6-0.9,0.8c-0.3,0.2-0.7,0.4-1.1,0.6C512.3,363.9,511.9,364,511.5,363.9L511.5,363.9z"
				/>
			<path class="st16" d="M512.7,365.3c0.4,0.1,0.8,0,1.2-0.1c0.4-0.1,0.7-0.3,1.1-0.5c0.3-0.2,0.6-0.5,0.9-0.8
				c0.3-0.3,0.5-0.6,0.7-1c-0.2,0.4-0.4,0.7-0.7,1c-0.3,0.3-0.6,0.6-0.9,0.8c-0.3,0.2-0.7,0.4-1.1,0.5
				C513.5,365.4,513.1,365.4,512.7,365.3L512.7,365.3z"/>
			<path class="st16" d="M514.2,366.9c0.4,0,0.8-0.1,1.1-0.2c0.4-0.1,0.7-0.3,1-0.5c0.3-0.2,0.6-0.5,0.9-0.8
				c0.3-0.3,0.5-0.6,0.7-0.9c-0.3,0.7-0.8,1.3-1.5,1.8c-0.3,0.2-0.7,0.4-1.1,0.5C515,366.9,514.6,366.9,514.2,366.9L514.2,366.9z"/>
			<path class="st16" d="M515.7,368.4c0.8,0,1.5-0.3,2.1-0.8c0.3-0.2,0.6-0.5,0.9-0.7c0.3-0.3,0.5-0.6,0.7-0.9
				c-0.1,0.4-0.4,0.7-0.6,1c-0.3,0.3-0.5,0.5-0.9,0.8c-0.3,0.2-0.7,0.4-1,0.5C516.5,368.4,516.1,368.4,515.7,368.4L515.7,368.4z"/>
			<path class="st16" d="M517.2,369.8c0.4,0,0.7-0.1,1.1-0.2c0.4-0.1,0.7-0.2,1-0.4c0.3-0.2,0.6-0.4,0.9-0.6
				c0.3-0.3,0.5-0.5,0.7-0.9c-0.1,0.3-0.3,0.7-0.6,0.9c-0.3,0.3-0.6,0.5-0.9,0.7C518.6,369.7,517.9,369.8,517.2,369.8L517.2,369.8z"
				/>
			<path class="st16" d="M518.8,371.2c0.3,0,0.7,0,1-0.1c0.3-0.1,0.7-0.2,1-0.4c0.3-0.2,0.6-0.4,0.8-0.6s0.5-0.5,0.6-0.8
				c-0.1,0.3-0.3,0.6-0.6,0.9c-0.2,0.2-0.5,0.5-0.8,0.6c-0.3,0.2-0.6,0.3-1,0.3C519.5,371.3,519.1,371.3,518.8,371.2z"/>
			<path class="st16" d="M520.6,372.7c0.3,0,0.7,0,1-0.1c0.3-0.1,0.6-0.2,0.9-0.4c0.3-0.2,0.5-0.4,0.7-0.6c0.2-0.2,0.4-0.5,0.6-0.8
				c-0.2,0.6-0.7,1.1-1.2,1.5c-0.3,0.2-0.6,0.3-0.9,0.4C521.2,372.7,520.9,372.7,520.6,372.7L520.6,372.7z"/>
		</g>
	</g>
	<g transform="matrix(-0.99823174,-0.05944245,-0.05944245,0.99823174,979.09134,28.304721)">
		<g id="sword_1_">
			<path class="st11" d="M450.1,357.4c22.5-28.8,55.1-51.4,80-63.3c-3.5-0.4-11.7,3.2-15,5.1c-24.8,14-46.3,33.1-69.1,55.8
				c1.2,1.3,2,2.1,3.3,3.3L450.1,357.4L450.1,357.4z"/>
			<path class="st8" d="M448.1,357.1l1.4,1.5c24.7-28.2,58.4-54.6,80.6-64.5C499.2,306.1,472.3,332.5,448.1,357.1L448.1,357.1
				L448.1,357.1z"/>
			<path class="st9" d="M448,357.1l1.4,1.5l0,0l0,0c5.7-6.5,11.8-12.7,18-18.7c6.3-6,12.7-11.7,19.4-17.2
				c6.7-5.5,13.6-10.7,20.8-15.6c3.6-2.4,7.2-4.7,11-6.9c3.7-2.2,7.6-4.2,11.5-6L530,294c-8.1,3.2-15.8,7.3-23.1,11.9
				c-7.3,4.7-14.3,9.9-21,15.4c-6.7,5.5-13.1,11.4-19.4,17.4C460.2,344.7,454.1,350.9,448,357.1c6.1-6.2,12.2-12.3,18.5-18.3
				c6.3-6,12.7-11.8,19.4-17.3c6.7-5.5,13.7-10.7,21-15.4c7.3-4.6,15-8.7,23.1-11.9L530,294c-4,1.8-7.8,3.8-11.5,6
				c-3.7,2.2-7.4,4.5-11,6.9c-7.2,4.9-14.1,10.1-20.8,15.6c-6.7,5.5-13.2,11.3-19.4,17.2c-6.2,6-12.2,12.3-17.9,18.8l0,0L448,357.1
				L448,357.1z"/>
			<g>
				<path class="st13" d="M441.4,352c1.9,0.6,3.6,1.5,5.1,2.5c0.1,1.4,1.8,3.1,3.4,3.5c0.3-0.4,0.4-0.5,0.6-0.7c0,0,0.1-0.1,0.2,0
					c0.1,0.1,0.3,0.2,0.6,0.4c0.6-0.1,1.3,0.3,1.6,1.1c0.3,1-0.5,2.2-1.4,3c-1,0.7-1.4,1-2.5,0.8c-1.1-0.3-1.6-1.3-1.8-1.6
					c-4,4.3-6.9,6.5-11.8,10c-2.1-0.1-3.1-1.5-2.3-2.9c0.3-0.5,0.9-0.8,1.4-0.6c0-0.2,0-0.3,0-0.5c-2.3-2.4-3.2-5.3-0.3-9.9
					C436.5,353,439,351.8,441.4,352L441.4,352L441.4,352z M434.9,356.1c-0.5,0.7-0.8,1.3-1.1,2c-1.7,2.9-0.6,6.6,1.9,7.8
					c0.1,0,0.1,0,0.2,0c-0.4-0.7,1-2.1,1.6-1.5c-0.3-0.8,0.8-2,1.6-1.6c-0.4-0.7,0.6-1.9,1.5-1.4c-0.4-0.8,0.4-1.8,1.3-1.6
					c-0.2-0.8,0.5-1.7,1.4-1.5c0-0.7,0.2-1.1,0.6-1.4c-1.1-0.9-2.2-2.3-3.3-2.9C437.9,352.6,436.1,354.8,434.9,356.1L434.9,356.1
					L434.9,356.1L434.9,356.1L434.9,356.1z"/>
				<path class="st14" d="M433.6,359.2c0.5-0.2,0.8-0.7,0.7-1.1c-0.1-0.4-0.7-0.5-1.2-0.2c-0.5,0.2-0.8,0.7-0.7,1
					C432.5,359.3,433,359.5,433.6,359.2L433.6,359.2L433.6,359.2z"/>
				<path class="st14" d="M433.9,358.2c0.5-0.2,0.8-0.7,0.7-1.1c-0.1-0.4-0.7-0.5-1.2-0.2c-0.5,0.2-0.8,0.7-0.7,1
					C432.8,358.3,433.4,358.5,433.9,358.2L433.9,358.2L433.9,358.2z"/>
				<path class="st14" d="M434.6,357.1c0.5-0.2,0.8-0.7,0.7-1.1c-0.1-0.4-0.7-0.5-1.2-0.2c-0.5,0.2-0.8,0.7-0.7,1
					C433.5,357.2,434.1,357.4,434.6,357.1L434.6,357.1L434.6,357.1z"/>
				<path class="st14" d="M435.5,356.2c0.5-0.2,0.8-0.7,0.7-1.1c-0.1-0.4-0.7-0.5-1.2-0.2c-0.5,0.2-0.8,0.7-0.7,1
					C434.4,356.3,434.9,356.4,435.5,356.2L435.5,356.2L435.5,356.2z"/>
				<path class="st14" d="M436.5,355.2c0.5-0.2,0.8-0.7,0.7-1.1c0,0,0-0.1,0-0.1c-0.2,0.1-0.7,0.1-0.6-0.2c0.1-0.1,0.2-0.2,0.1-0.1
					c-0.1,0-0.5,0.1-0.6,0.2c-0.5,0.2-0.8,0.7-0.7,1C435.4,355.3,436,355.5,436.5,355.2L436.5,355.2L436.5,355.2z"/>
			</g>
			<g>
				<path class="st15" d="M447.1,360.9c-0.6-1.8-1.8-3.5-3.3-4"/>
				<path class="st15" d="M446.9,361.1c-1.3,0.2-3.2-1.4-3.6-2.8"/>
				<path class="st15" d="M445.6,362.5c-1.7,0.3-3.2-1.4-3.8-2.6"/>
				<path class="st15" d="M444,364c-2-0.1-3.1-1.5-3.6-2.6"/>
				<path class="st15" d="M442.4,365.4c-1.7-0.1-3.1-1.5-3.5-2.6"/>
				<path class="st15" d="M440.9,366.7c-1.8-0.2-3-1.1-3.5-2.3"/>
				<path class="st15" d="M439.2,368c-1.7,0-2.9-1.1-3.3-2.1"/>
				<path class="st15" d="M437.3,369.4c-1.7,0-2.6-1.1-3-2.1"/>
			</g>
			<g>
				<path class="st16" d="M447.1,360.9c-0.1-0.4-0.3-0.9-0.5-1.3c-0.2-0.4-0.4-0.8-0.7-1.1c-0.3-0.4-0.6-0.7-0.9-1
					c-0.4-0.3-0.7-0.5-1.2-0.6c0.4,0.2,0.8,0.4,1.1,0.7c0.3,0.3,0.6,0.6,0.9,1C446.4,359.2,446.8,360,447.1,360.9L447.1,360.9z"/>
				<path class="st16" d="M446.9,361.1c-0.4,0-0.8-0.1-1.2-0.3c-0.4-0.2-0.7-0.4-1-0.7c-0.3-0.3-0.6-0.5-0.9-0.9
					c-0.3-0.3-0.5-0.7-0.6-1c0.1,0.4,0.3,0.8,0.5,1.1c0.2,0.3,0.5,0.6,0.9,0.9c0.3,0.3,0.7,0.5,1,0.6
					C446,361.1,446.5,361.2,446.9,361.1L446.9,361.1z"/>
				<path class="st16" d="M445.6,362.5c-0.4,0-0.8,0-1.2-0.2c-0.4-0.1-0.7-0.4-1-0.6c-0.3-0.2-0.6-0.5-0.9-0.9
					c-0.3-0.3-0.5-0.7-0.7-1c0.2,0.4,0.4,0.7,0.6,1.1c0.2,0.3,0.5,0.6,0.9,0.9c0.3,0.3,0.7,0.5,1.1,0.6
					C444.8,362.5,445.2,362.6,445.6,362.5L445.6,362.5z"/>
				<path class="st16" d="M444,364c-0.4,0-0.8-0.1-1.1-0.3c-0.4-0.1-0.7-0.3-1-0.6c-0.3-0.2-0.6-0.5-0.8-0.8c-0.2-0.3-0.5-0.6-0.6-1
					c0.3,0.7,0.8,1.4,1.4,1.9c0.3,0.2,0.7,0.4,1,0.6C443.2,363.9,443.6,364,444,364L444,364z"/>
				<path class="st16" d="M442.4,365.4c-0.8-0.1-1.5-0.4-2.1-0.9c-0.3-0.2-0.6-0.5-0.8-0.8c-0.2-0.3-0.5-0.6-0.6-1
					c0.1,0.4,0.3,0.7,0.5,1c0.2,0.3,0.5,0.6,0.8,0.8c0.3,0.2,0.6,0.4,1,0.6C441.6,365.3,442,365.4,442.4,365.4L442.4,365.4z"/>
				<path class="st16" d="M440.9,366.7c-0.4-0.1-0.7-0.1-1.1-0.3c-0.3-0.1-0.7-0.3-1-0.4c-0.3-0.2-0.6-0.4-0.8-0.7
					c-0.2-0.3-0.4-0.6-0.6-0.9c0.1,0.4,0.3,0.7,0.5,1c0.2,0.3,0.5,0.5,0.8,0.7C439.4,366.5,440.1,366.7,440.9,366.7L440.9,366.7z"/>
				<path class="st16" d="M439.2,368c-0.3,0-0.7-0.1-1-0.2c-0.3-0.1-0.6-0.2-0.9-0.4c-0.3-0.2-0.6-0.4-0.8-0.6s-0.4-0.5-0.6-0.8
					c0.1,0.3,0.3,0.6,0.5,0.9c0.2,0.3,0.5,0.5,0.8,0.7c0.3,0.2,0.6,0.3,1,0.4C438.5,368,438.8,368.1,439.2,368z"/>
				<path class="st16" d="M437.3,369.4c-0.3,0-0.6-0.1-1-0.2c-0.3-0.1-0.6-0.2-0.9-0.4c-0.3-0.2-0.5-0.4-0.7-0.7
					c-0.2-0.2-0.4-0.5-0.5-0.8c0.2,0.6,0.6,1.2,1.1,1.6c0.3,0.2,0.6,0.3,0.9,0.4C436.6,369.4,437,369.4,437.3,369.4L437.3,369.4z"/>
			</g>
		</g>
	</g>
	<g>
		<path class="st3" d="M409.2,240c7.2-2.4,18.7-15.5,19.5-17.9C413.1,226.3,406,236.4,409.2,240L409.2,240z"/>
		<path class="st3" d="M555,244.7c-1.7-7-13.3-19-15.6-19.9C542.2,240,551.3,247.6,555,244.7z"/>
		<path class="st4" d="M409.2,240c-3.3-3.6,3.8-13.7,19.3-17.8C417.6,230.6,409.4,238.4,409.2,240L409.2,240z"/>
		<path class="st4" d="M555,244.7c-3.7,2.9-12.7-4.7-15.5-19.8C546.7,236,553.4,244.5,555,244.7z"/>
	</g>
	<g>
		
			<radialGradient id="SVGID_1_" cx="447.4176" cy="293.7308" r="16.5341" gradientTransform="matrix(1 0 0 -1 0 602)" gradientUnits="userSpaceOnUse">
			<stop  offset="0.2165" style="stop-color:#F9F0AA"/>
			<stop  offset="1" style="stop-color:#B07E09"/>
		</radialGradient>
		<path class="st17" d="M452.2,318.1c0,0-6.2,0.7-7.9-7.8c-1.8-9.1,5.3-10.1,5.3-10.1s8.1-0.8,13.1-0.9l2.2,18L452.2,318.1
			L452.2,318.1z"/>
		
			<radialGradient id="SVGID_2_" cx="451.5581" cy="289.0048" r="10.9114" gradientTransform="matrix(1 0 0 -1 0 602)" gradientUnits="userSpaceOnUse">
			<stop  offset="0.2165" style="stop-color:#F9F0AA"/>
			<stop  offset="1" style="stop-color:#B07E09"/>
		</radialGradient>
		<path class="st18" d="M453,315.4c0,0-4,0.8-4.8-5.6c-0.6-4.5,2.2-5.1,2.2-5.1l9.2,1.6l0.1,8.2L453,315.4L453,315.4z"/>
		
			<radialGradient id="SVGID_3_" cx="454.1101" cy="293.3572" r="9.7796" gradientTransform="matrix(1 0 0 -1 0 602)" gradientUnits="userSpaceOnUse">
			<stop  offset="0.2165" style="stop-color:#F9F0AA"/>
			<stop  offset="1" style="stop-color:#B07E09"/>
		</radialGradient>
		<path class="st19" d="M450.4,304.7c0,0,5.9-0.4,9-0.8l1.3,5.7l-7.1,0.4C453.6,310,453.1,304.9,450.4,304.7z"/>
		
			<radialGradient id="SVGID_4_" cx="458.3904" cy="294.9435" r="17.3544" gradientTransform="matrix(1 0 0 -1 0 602)" gradientUnits="userSpaceOnUse">
			<stop  offset="0.2165" style="stop-color:#F9F0AA"/>
			<stop  offset="1" style="stop-color:#B07E09"/>
		</radialGradient>
		<path class="st20" d="M449.2,300.4c0,0,7.6-1.9,8.5,6.5c0.2,2.2-0.9,7.2-4.7,8.5l13.9-1.5l-1.3-15l-4.7,0.4
			C461,299.3,451,299.6,449.2,300.4L449.2,300.4z"/>
		<path class="st21" d="M452.2,318.1c0,0,51.9-3.5,57.2-3.3c15.7-8.6-0.1-42.6-13.3-61.5c1.5-4.3-29.9-13.9-44-13
			c-1.8,0.1-3.5,0.2-5.2,0.4c-7.7,0.8-7.8,10.7-4.6,16.9c3,6,30.3,55.1,11.1,60.3L452.2,318.1L452.2,318.1z"/>
		
			<linearGradient id="SVGID_5_" gradientUnits="userSpaceOnUse" x1="473.9014" y1="342.8285" x2="472.3523" y2="370.0366" gradientTransform="matrix(1 0 0 -1 0 602)">
			<stop  offset="0.2165" style="stop-color:#B07E09;stop-opacity:0"/>
			<stop  offset="1" style="stop-color:#B07E09"/>
		</linearGradient>
		<path class="st22" d="M507.8,273.3c-3.5-7.3-7.7-14.3-11.7-20c1.5-4.3-29.9-13.9-44-13c-1.8,0.1-3.5,0.2-5.2,0.4
			c-7.7,0.8-7.8,10.7-4.6,16.9c1,1.9,4.3,8,7.8,15.7"/>
		
			<linearGradient id="SVGID_6_" gradientUnits="userSpaceOnUse" x1="483.1229" y1="305.3435" x2="485.4914" y2="275.4163" gradientTransform="matrix(1 0 0 -1 0 602)">
			<stop  offset="0.2165" style="stop-color:#B07E09;stop-opacity:0"/>
			<stop  offset="1" style="stop-color:#B07E09"/>
		</linearGradient>
		<path class="st23" d="M455,285c5.6,14.6,8.7,30.1-1.6,32.9l-1.2,0.2c0,0,51.9-3.5,57.2-3.3c8.5-4.7,7.8-16.8,3.2-29.9"/>
		
			<radialGradient id="SVGID_7_" cx="445.9755" cy="349.6371" r="13.0179" gradientTransform="matrix(1 0 0 -1 0 602)" gradientUnits="userSpaceOnUse">
			<stop  offset="0.2165" style="stop-color:#F9F0AA"/>
			<stop  offset="1" style="stop-color:#B07E09"/>
		</radialGradient>
		<path class="st24" d="M447.4,243.5c-3.7,0-4.7,3.6-4.6,5.8c0.1,5.9,4.6,6.2,4.6,6.2l6-0.3l2.9-12.2L447.4,243.5L447.4,243.5z"/>
		
			<linearGradient id="SVGID_8_" gradientUnits="userSpaceOnUse" x1="451.541" y1="352.4773" x2="455.3668" y2="361.4236" gradientTransform="matrix(1 0 0 -1 0 602)">
			<stop  offset="0.2165" style="stop-color:#F9F0AA"/>
			<stop  offset="1" style="stop-color:#B07E09"/>
		</linearGradient>
		<path class="st25" d="M447.4,243.5l8.8-0.5l0.9,9.1l-7.7,0.3C449.4,252.5,451.9,245.2,447.4,243.5L447.4,243.5z"/>
		
			<linearGradient id="SVGID_9_" gradientUnits="userSpaceOnUse" x1="473.3175" y1="364.7537" x2="475.9329" y2="331.5547" gradientTransform="matrix(1 0 0 -1 0 602)">
			<stop  offset="0.2165" style="stop-color:#F9F0AA"/>
			<stop  offset="1" style="stop-color:#B07E09"/>
		</linearGradient>
		<path class="st26" d="M496.1,253.3c6.7-1.1,6.6-10.1,2-13.7c-15.5-0.6-35.9-0.1-50.6,1c1.7,0,6.3,0.4,6.9,6.5
			c0.2,2.9-1.2,5.5-3.1,7c-1.9,1.5-3.9,1.5-3.9,1.5c0.2,0.1,2.2,0,3.6-0.1c0.7,0,2.6-0.3,3.1-0.3C475.1,252.4,496,253.3,496.1,253.3
			L496.1,253.3C496.1,253.3,496.1,253.3,496.1,253.3L496.1,253.3z"/>
		<g>
			<path class="st27" d="M458.5,267.4c-0.1-0.3-0.3-0.7-0.7-0.8c-0.2,0-0.6-0.1-0.6-0.4c0.2-0.1,0.5,0,0.8-0.1
				c0.6,0,1.1-0.1,1.7-0.1c0.3,0.1,0.3,0.5-0.1,0.5c-0.4,0.1-0.2,0.6-0.1,0.8c0.4,1,0.9,2.1,1.3,3.1c0.1,0.3,0.4,0.6,0.7,0.6
				c0.4,0,0.8,0,1.1-0.1c0.3-0.2,0.2-0.6,0.2-0.9c-0.1-0.4,0.5-0.3,0.5,0c0.1,0.4,0.3,0.9,0.4,1.3c0,0.2-0.3,0.1-0.4,0.2
				c-1,0.1-2,0.1-3,0.2c-0.3,0-0.8,0.3-1-0.1c-0.1-0.4,0.5-0.2,0.6-0.5c0-0.3-0.2-0.6-0.3-0.9C459.2,269.3,458.9,268.3,458.5,267.4
				L458.5,267.4z"/>
			<path class="st27" d="M463.3,267.1c-0.1-0.3-0.3-0.7-0.7-0.8c-0.2,0-0.7,0-0.6-0.4c0.2-0.2,0.5-0.1,0.7-0.1
				c0.6,0,1.2-0.1,1.8-0.1c0.3,0,0.4,0.5,0,0.4c-0.4,0-0.4,0.4-0.2,0.7c0.5,1.1,1,2.3,1.4,3.4c0.1,0.2,0.2,0.5,0.5,0.6
				c0.3,0,0.6,0,0.7,0.3c0,0.3-0.4,0.1-0.6,0.2c-0.5,0-1,0-1.6,0.1c-0.2,0.1-0.6,0-0.6-0.3c0.1-0.3,0.6-0.1,0.6-0.4
				c0-0.3-0.2-0.6-0.3-0.9C464.1,268.9,463.7,268,463.3,267.1L463.3,267.1z"/>
			<path class="st27" d="M467.8,267.8c0.1,0.2,0.4,0.1,0.6,0.1c0.3,0,0.5-0.2,0.5-0.5c0-0.5-0.3-0.9-0.6-1.2
				c-0.3-0.2-0.8-0.2-1.2-0.2c0,0.2,0.1,0.3,0.1,0.5C467.4,266.9,467.6,267.3,467.8,267.8L467.8,267.8z M468.4,269.4
				c0.2,0.3,0.3,0.7,0.6,1c0.2,0.2,0.6,0.1,0.8,0.1c0.3,0,0.5-0.3,0.4-0.6c-0.1-0.6-0.6-1.3-1.2-1.4c-0.3-0.1-0.6-0.1-0.9,0
				c0,0.1,0.1,0.3,0.1,0.4C468.3,269,468.4,269.2,468.4,269.4L468.4,269.4z M466.4,267c-0.2-0.3-0.3-0.8-0.7-0.9
				c-0.2-0.1-0.6,0-0.7-0.3c0.1-0.3,0.6-0.1,0.8-0.2c0.9,0,1.7-0.3,2.6,0c0.7,0.2,1.4,0.8,1.4,1.6c0,0.4-0.3,0.7-0.6,0.8
				c0-0.1,0.4,0.1,0.5,0.1c0.6,0.2,1.1,0.6,1.4,1.1c0.2,0.4,0.4,0.9,0,1.3c-0.4,0.4-0.9,0.4-1.4,0.4c-0.8,0-1.5,0-2.2,0.2
				c-0.3,0-0.5-0.5-0.1-0.4c0.4,0,0.4-0.4,0.2-0.7C467.2,269,466.8,268,466.4,267L466.4,267z"/>
			<path class="st27" d="M473.8,265.1c0.3-0.1,0.4,0.3,0.5,0.5c0.1,0.3,0.3,0.5,0.3,0.8c-0.3,0.3-0.5-0.1-0.6-0.4
				c-0.1-0.2-0.4-0.5-0.7-0.5c-0.4,0-0.8,0-1.2,0.1c-0.1,0.2,0.1,0.4,0.1,0.6c0.2,0.4,0.4,0.9,0.6,1.3c0.3,0,0.6,0,0.8-0.2
				c0.1-0.2-0.3-0.7,0.2-0.6c0.3,0.2,0.3,0.6,0.4,0.9c0.1,0.4,0.4,0.7,0.5,1.1c-0.3,0.3-0.5-0.1-0.6-0.4c-0.2-0.3-0.6-0.3-1-0.3
				c-0.2-0.1-0.1,0.2,0,0.3c0.2,0.5,0.4,1,0.7,1.5c0.2,0.3,0.7,0.3,1,0.3c0.3,0,0.7,0,0.9-0.3c0.2-0.3-0.3-0.8,0.1-0.8
				c0.3,0,0.3,0.4,0.4,0.6c0.1,0.3,0.2,0.6,0.3,0.8c0,0.2-0.3,0.1-0.4,0.2c-1,0.1-2,0.1-3.1,0.2c-0.3,0-0.8,0.2-0.9-0.2
				c0-0.3,0.6-0.1,0.6-0.5c-0.1-0.3-0.2-0.7-0.4-1c-0.4-0.9-0.7-1.8-1.1-2.7c-0.1-0.3-0.4-0.6-0.7-0.6c-0.2,0-0.6-0.1-0.5-0.4
				c0.3-0.1,0.7,0,1.1-0.1C472,265.2,472.9,265.2,473.8,265.1L473.8,265.1z"/>
			<path class="st27" d="M476.1,266.4c-0.2-0.3-0.3-0.8-0.7-0.9c-0.3-0.1-0.7,0-0.7-0.4c0.2-0.2,0.7,0,1-0.1c0.8,0,1.6-0.2,2.4,0
				c0.8,0.2,1.5,1,1.6,1.8c0,0.4-0.3,0.8-0.7,0.9c-0.3,0,0.2,0.1,0.3,0.2c0.6,0.3,1.1,0.9,1.4,1.5c0.1,0.2,0.5,0.7,0.6,0.2
				c0-0.5,0.6-0.1,0.5,0.3c0,0.4-0.4,0.6-0.7,0.6c-0.5,0-0.9-0.2-1.1-0.6c-0.4-0.6-0.7-1.2-1.3-1.7c-0.2-0.2-0.6-0.3-0.8-0.2
				c-0.1,0.1,0.1,0.3,0.1,0.4c0.2,0.4,0.3,0.8,0.5,1.2c0.2,0.3,0.6,0.4,0.9,0.4c0.4,0.1,0.3,0.6-0.1,0.4c-0.6,0-1.2,0-1.8,0.1
				c-0.3,0.1-0.9,0-0.6-0.4c0.3,0,0.7-0.2,0.5-0.5c-0.3-0.9-0.7-1.7-1-2.6C476.3,266.8,476.2,266.6,476.1,266.4L476.1,266.4z
				 M477.5,267.3c0.1,0.3,0.6,0.1,0.9,0.1c0.4-0.1,0.3-0.5,0.2-0.8c-0.2-0.5-0.4-1-0.9-1.2c-0.3,0-0.8-0.2-0.9,0.2
				c0.2,0.5,0.4,1.1,0.6,1.6C477.5,267.2,477.5,267.3,477.5,267.3L477.5,267.3z"/>
			<path class="st27" d="M484.7,269c0.1,0.3,0.2,0.6,0.5,0.7c0.3,0.1,0.7,0,0.7,0.3c0,0.3-0.4,0.1-0.6,0.1c-0.5-0.1-1.1,0-1.6,0.1
				c-0.2,0.1-0.6,0-0.5-0.3c0.1-0.2,0.6,0,0.6-0.4c-0.1-0.4-0.3-0.8-0.4-1.2c-0.4-1-0.8-1.9-1.1-2.9c-0.1-0.3-0.4-0.3-0.7-0.3
				c-0.3,0-0.7,0.1-0.7,0.4c-0.1,0.2,0.2,0.6,0,0.7c-0.3,0.1-0.4-0.3-0.4-0.5c-0.1-0.3-0.3-0.6-0.4-0.9c0-0.2,0.3-0.2,0.5-0.2
				c1.4-0.1,2.8-0.1,4.1-0.2c0.3,0,0.5,0.2,0.5,0.5c0.1,0.3,0.3,0.7,0.4,1c-0.1,0.3-0.5,0-0.6-0.2c-0.2-0.3-0.5-0.7-0.9-0.7
				c-0.3,0-0.6-0.1-0.8,0.1c0,0.2,0.1,0.5,0.2,0.7C483.9,267,484.3,268,484.7,269L484.7,269z"/>
			<path class="st27" d="M488.5,268.1c-0.2,0-0.1,0.2-0.1,0.4c0,0.3,0,0.6,0,0.8c0.1,0.3,0.5,0.2,0.8,0.3c0.2,0.1,0.2,0.5-0.1,0.4
				c-0.4,0-0.9-0.1-1.3,0c-0.2,0.1-0.7-0.1-0.5-0.4c0.2,0,0.4-0.1,0.5-0.3c0.1-0.4,0-0.8,0-1.3c0-1.2,0-2.5,0-3.7
				c0.1-0.3,0.5,0,0.6,0.2c1.2,1.5,2.4,3,3.6,4.5c0.2,0.2,0.5,0.4,0.8,0.4c0.3,0,0.4,0.5,0,0.4c-0.5,0-1-0.1-1.5,0
				c-0.2,0-0.5,0.1-0.7,0c-0.2-0.2-0.1-0.4,0.2-0.4c0.4-0.1,0-0.5-0.1-0.7c-0.2-0.3-0.4-0.5-0.6-0.8c-0.2-0.1-0.4,0-0.6,0
				C489.2,268.1,488.8,268.1,488.5,268.1L488.5,268.1z M489.6,267.6c0.2,0-0.1-0.2-0.1-0.2c-0.4-0.6-0.8-1.1-1.3-1.7
				c0.1,0,0,0.2,0,0.3c0,0.6,0,1.1,0,1.7C488.8,267.6,489.2,267.6,489.6,267.6L489.6,267.6z"/>
			<path class="st27" d="M492.7,265.8c-0.1-0.4-0.3-0.9-0.8-1c-0.2,0-0.7-0.2-0.5-0.4c0.6,0,1.1,0,1.7,0c0.7-0.1,1.4,0,2.1,0.2
				c1.5,0.5,2.7,1.8,2.9,3.3c0.1,0.6-0.1,1.3-0.6,1.6c-0.7,0.5-1.6,0.4-2.5,0.3c-0.5,0-0.9,0-1.4,0.1c-0.3,0-0.3-0.5,0-0.5
				c0.4,0,0.4-0.4,0.2-0.7C493.5,267.8,493.1,266.8,492.7,265.8L492.7,265.8z M494.7,268.3c0.1,0.3,0.2,0.8,0.6,1
				c0.3,0.1,0.7,0.1,1,0.1c0.4-0.1,0.7-0.5,0.7-0.9c0-0.8-0.3-1.5-0.6-2.1c-0.4-0.7-1.1-1.2-1.8-1.4c-0.3-0.1-0.7-0.1-1,0
				c-0.1,0.1,0.1,0.3,0.1,0.4C493.9,266.3,494.3,267.3,494.7,268.3L494.7,268.3z"/>
			<path class="st27" d="M473.6,280.7c0.1,0.3,0.4,0.6,0.8,0.6c0.3,0,0.7,0,0.7,0.4c-0.1,0.2-0.5,0.1-0.8,0.1c-0.5,0-1,0-1.6,0.1
				c-0.3,0-0.6,0.1-0.8,0c-0.2-0.1-0.2-0.5,0.1-0.4c0.2-0.1,0.6-0.1,0.6-0.4c0-0.3-0.2-0.5-0.3-0.8c-0.4-0.9-0.8-1.8-1.2-2.8
				c-0.1-0.3-0.4-0.3-0.7-0.3c-0.2,0-0.6,0.1-0.7-0.2c0-0.3,0.5-0.2,0.7-0.4c0.3-0.1,0.6-0.3,0.9-0.4c0.2,0,0.3,0.2,0.4,0.3
				C472.4,277.9,473,279.3,473.6,280.7L473.6,280.7z"/>
			<path class="st27" d="M474.3,276.2c0.7,0,1.4,0.1,2,0c0.3,0,0.1-0.5,0.4-0.5c0.4,0,0.3,0.5,0.3,0.7c0,0.3-0.2,0.6-0.6,0.6
				c-0.5,0-1.1,0-1.6,0c0.1,0.4,0.3,0.8,0.4,1.2c0-0.1,0.5-0.2,0.6-0.2c1.1,0,2.2,0.6,2.6,1.5c0.2,0.5,0.3,1.1,0,1.5
				c-0.4,0.5-1,0.5-1.6,0.6c-0.5,0-1.1-0.1-1.4-0.5c-0.2-0.2-0.1-0.7,0.2-0.6c0.3,0,0.7,0.3,0.6,0.6c0.2,0.2,0.5,0.1,0.8,0.1
				c0.3,0,0.6-0.2,0.6-0.6c0-0.5-0.2-1-0.5-1.4c-0.3-0.4-0.8-0.7-1.3-0.7c-0.3,0-0.5,0.1-0.8,0.1c-0.3,0-0.3-0.4-0.4-0.6
				c-0.2-0.6-0.5-1.2-0.6-1.8C474.1,276.2,474.2,276.2,474.3,276.2L474.3,276.2z"/>
			<path class="st27" d="M481.2,277.2c-0.2-0.4-0.4-0.9-0.8-1c-0.2,0.1-0.7-0.2-0.5-0.4c0.6,0,1.1,0,1.7-0.1
				c0.7-0.1,1.4-0.1,2.1,0.2c1.5,0.5,2.7,1.8,2.9,3.4c0.1,0.6-0.1,1.2-0.6,1.6c-0.7,0.5-1.6,0.4-2.4,0.4c-0.5,0-0.9,0.1-1.3,0.1
				c-0.3,0-0.4-0.5,0-0.5c0.4,0,0.3-0.4,0.2-0.7C482,279.2,481.6,278.2,481.2,277.2L481.2,277.2z M483.2,279.7
				c0.2,0.3,0.3,0.8,0.6,1c0.3,0.1,0.7,0.1,1,0.1c0.4-0.1,0.7-0.5,0.7-0.9c0-0.8-0.3-1.5-0.7-2.1c-0.4-0.7-1.1-1.2-1.9-1.3
				c-0.3,0-0.7-0.1-1,0c-0.1,0.1,0.1,0.3,0.1,0.4C482.4,277.7,482.8,278.7,483.2,279.7L483.2,279.7z"/>
			<path class="st27" d="M489.6,275.4c0.3-0.1,0.4,0.3,0.4,0.5c0.1,0.3,0.2,0.5,0.3,0.8c-0.2,0.3-0.5-0.1-0.6-0.3
				c-0.1-0.2-0.4-0.5-0.7-0.5c-0.4,0-0.8,0-1.2,0c-0.2,0.1,0,0.4,0.1,0.6c0.2,0.5,0.3,0.9,0.5,1.4c0.3,0,0.6,0,0.8-0.2
				c0.2-0.2-0.3-0.7,0.2-0.7c0.3,0.1,0.3,0.6,0.4,0.8c0.1,0.4,0.4,0.7,0.5,1.1c-0.2,0.3-0.5-0.1-0.6-0.3c-0.1-0.3-0.5-0.4-0.8-0.4
				c-0.2,0-0.4,0-0.2,0.2c0.2,0.5,0.4,1.1,0.7,1.5c0.2,0.3,0.6,0.3,1,0.3c0.3,0,0.7,0,0.9-0.3c0.2-0.2-0.2-0.7,0.1-0.8
				c0.3-0.1,0.4,0.3,0.5,0.5c0.1,0.3,0.2,0.6,0.3,0.9c0,0.2-0.3,0.1-0.4,0.2c-1,0-2.1,0.1-3.1,0.1c-0.3,0-0.7,0.2-0.9-0.1
				c-0.2-0.4,0.5-0.2,0.5-0.5c0-0.3-0.2-0.6-0.3-0.9c-0.4-1-0.8-1.9-1.1-2.9c-0.1-0.3-0.4-0.7-0.7-0.7c-0.2,0-0.6-0.1-0.5-0.4
				c0.4-0.1,0.7,0,1.1,0C487.8,275.5,488.7,275.4,489.6,275.4L489.6,275.4z"/>
			<path class="st27" d="M462.4,289.7c0.1,0.5,0.7,0.7,1.1,0.8c0.8,0.3,1.6,0.5,2.1,1.2c0.3,0.4,0.5,0.9,0.5,1.3
				c0,0.5-0.5,0.9-0.9,1c-0.6,0.2-1.2,0.1-1.7-0.1c-0.3-0.1-0.2,0.5-0.5,0.3c-0.2-0.2-0.2-0.6-0.3-0.8c-0.1-0.3-0.2-0.6-0.4-1
				c0-0.3,0.5-0.2,0.5,0.1c0.3,0.6,0.9,1.1,1.6,1.1c0.4,0,0.8-0.2,0.8-0.6c0-0.5-0.4-1-0.9-1.2c-0.6-0.3-1.4-0.4-2-0.8
				c-0.6-0.3-0.9-1-0.9-1.6c0-0.4,0.4-0.8,0.8-0.9c0.5-0.2,1.1-0.2,1.6-0.1c0.2,0.1,0.3-0.3,0.6-0.1c0.1,0.2,0.1,0.5,0.2,0.7
				c0.1,0.3,0.3,0.5,0.3,0.8c-0.2,0.2-0.5,0-0.5-0.2c-0.2-0.4-0.5-0.8-1-0.8c-0.3,0-0.8,0-1,0.3
				C462.3,289.3,462.3,289.5,462.4,289.7L462.4,289.7z"/>
			<path class="st27" d="M469,288c0.3-0.1,0.3,0.3,0.4,0.5c0.1,0.3,0.2,0.5,0.3,0.8c-0.1,0.3-0.5,0-0.5-0.2
				c-0.1-0.3-0.3-0.6-0.7-0.6c-0.4,0-0.8,0-1.2,0.1c-0.2,0.1,0,0.4,0,0.6c0.2,0.5,0.3,0.9,0.5,1.4c0.3,0,0.6,0,0.8-0.2
				c0.2-0.2-0.2-0.6,0.1-0.7c0.4,0,0.3,0.4,0.4,0.7c0.1,0.4,0.3,0.8,0.5,1.3c-0.1,0.3-0.5,0-0.6-0.2c-0.1-0.3-0.5-0.4-0.8-0.4
				c-0.2,0-0.4,0-0.3,0.2c0.2,0.5,0.3,1,0.5,1.5c0.1,0.3,0.5,0.3,0.7,0.3c0.4,0,0.8,0,1.2-0.3c0.2-0.2,0-0.6,0.1-0.9
				c0.2-0.2,0.5,0.1,0.5,0.3c0.1,0.3,0.2,0.7,0.3,1c0,0.2-0.3,0.1-0.4,0.2c-1,0.1-2,0.1-3.1,0.2c-0.3,0-0.7,0.2-0.9-0.1
				c-0.2-0.4,0.5-0.2,0.5-0.5c0.1-0.3-0.1-0.6-0.2-0.9c-0.3-1-0.7-2-1-2.9c-0.1-0.3-0.3-0.7-0.7-0.7c-0.2,0.1-0.6-0.1-0.4-0.4
				c0.3-0.1,0.7,0,1.1-0.1C467.2,288.2,468.1,288.1,469,288L469,288z"/>
			<path class="st27" d="M473.2,292.2c0.1,0.3,0.3,0.6,0.6,0.7c0.2,0.1,0.7-0.1,0.7,0.3c0,0.3-0.5,0.1-0.7,0.2c-0.5,0-1,0-1.5,0.1
				c-0.2,0-0.5,0.1-0.6-0.2c-0.1-0.3,0.5-0.1,0.6-0.4c0.1-0.3-0.1-0.5-0.1-0.8c-0.3-1-0.7-2-1-3c-0.1-0.3-0.3-0.7-0.6-0.7
				c-0.2,0-0.6,0-0.6-0.4c0.2-0.2,0.5-0.1,0.7-0.1c0.7,0,1.4-0.2,2.2-0.1c0.8,0,1.5,0.5,1.7,1.2c0.2,0.4,0.2,0.9-0.1,1.3
				c-0.4,0.5-1,0.5-1.6,0.6c-0.2,0,0,0.2,0,0.3C473,291.5,473.1,291.8,473.2,292.2L473.2,292.2z M472.6,290.4c0.2,0,0.5,0,0.7-0.1
				c0.3-0.1,0.5-0.4,0.4-0.7c-0.1-0.4-0.2-0.9-0.5-1.2c-0.3-0.3-0.7-0.3-1.1-0.2c-0.1,0.1,0,0.3,0,0.5
				C472.3,289.3,472.5,289.9,472.6,290.4L472.6,290.4z"/>
			<path class="st27" d="M478.8,291.9c0.1,0.3,0.2,0.6,0.5,0.7c0.2,0.1,0.7,0,0.7,0.3c-0.1,0.3-0.4,0.1-0.6,0.2
				c-0.5,0-1.1,0-1.6,0.1c-0.2,0.1-0.5,0-0.5-0.3c0.1-0.2,0.6,0,0.6-0.4c-0.1-0.4-0.2-0.8-0.3-1.1c-0.3-1-0.6-1.9-1-2.9
				c-0.1-0.3-0.4-0.3-0.7-0.3c-0.3,0-0.6,0-0.7,0.4c-0.1,0.3,0,0.5,0,0.8c-0.2,0.2-0.5-0.1-0.5-0.3c-0.1-0.3-0.2-0.7-0.3-1
				c0-0.2,0.3-0.2,0.5-0.2c1.4-0.1,2.8-0.2,4.1-0.2c0.3-0.1,0.5,0.2,0.5,0.5c0.1,0.3,0.2,0.7,0.3,1c-0.1,0.3-0.5,0.1-0.5-0.1
				c-0.2-0.4-0.4-0.7-0.9-0.8c-0.3,0-0.6-0.1-0.9,0.1c-0.1,0.2,0.1,0.4,0.1,0.6C478.1,289.7,478.5,290.8,478.8,291.9L478.8,291.9z"
				/>
			<path class="st27" d="M480.9,288.6c-0.1-0.3-0.2-0.7-0.6-0.8c-0.2-0.1-0.6,0-0.6-0.4c0.1-0.2,0.4-0.1,0.6-0.1
				c0.6,0,1.2-0.1,1.8-0.1c0.3-0.1,0.5,0.4,0.2,0.4c-0.3,0-0.5,0.2-0.4,0.5c0.1,0.5,0.3,1,0.5,1.6c0.2,0.7,0.5,1.5,0.7,2.2
				c0.1,0.2,0.2,0.4,0.5,0.4c0.2,0,0.7,0,0.6,0.4c-0.2,0.2-0.5,0.1-0.7,0.1c-0.5,0-1.1,0-1.6,0.1c-0.2,0.1-0.5-0.1-0.4-0.4
				c0.2-0.1,0.6,0,0.6-0.4c-0.1-0.4-0.2-0.8-0.4-1.2C481.4,290.1,481.2,289.4,480.9,288.6L480.9,288.6z"/>
			<path class="st27" d="M486.7,287c0.3-0.1,0.3,0.3,0.4,0.5c0.1,0.3,0.2,0.5,0.3,0.8c-0.1,0.3-0.5,0-0.5-0.2
				c-0.1-0.3-0.3-0.6-0.7-0.6c-0.4,0-0.8,0-1.2,0.1c-0.2,0.1,0,0.4,0,0.6c0.1,0.5,0.3,0.9,0.4,1.4c0.3,0,0.6,0,0.8-0.2
				c0.2-0.2-0.2-0.6,0.2-0.7c0.4,0,0.3,0.4,0.4,0.7c0.1,0.5,0.3,0.9,0.4,1.3c-0.1,0.3-0.5,0-0.5-0.2c-0.1-0.3-0.4-0.5-0.7-0.4
				c-0.1,0-0.5-0.1-0.4,0.2c0.2,0.5,0.3,1,0.5,1.5c0.1,0.3,0.4,0.4,0.7,0.3c0.4,0,0.9,0,1.2-0.3c0.3-0.2,0.1-0.6,0.1-0.8
				c0.3-0.2,0.5,0.1,0.5,0.4c0.1,0.3,0.1,0.7,0.2,1c0,0.2-0.3,0.1-0.4,0.2c-1,0.1-2.1,0.1-3.1,0.2c-0.3,0-0.6,0.2-0.8-0.1
				c-0.2-0.4,0.4-0.3,0.5-0.5c0.1-0.3,0-0.5-0.1-0.8c-0.3-1-0.6-2-1-3c-0.1-0.3-0.3-0.7-0.7-0.7c-0.2,0.1-0.6-0.1-0.4-0.4
				c0.3-0.1,0.7,0,1.1,0C484.8,287.1,485.7,287,486.7,287L486.7,287z"/>
			<path class="st27" d="M488.7,287.9c-0.1-0.4-0.3-0.7-0.7-0.6c-0.4,0.1-0.5-0.6,0-0.4c0.5,0,1-0.1,1.5,0c0.2,0.3,0.4,0.6,0.7,0.9
				c0.7,1,1.4,1.9,2.2,2.9c-0.2,0,0-0.2-0.1-0.3c0.1-1.2,0.2-2.4,0.4-3.5c0.3-0.2,0.7-0.1,1.1-0.2c0.3,0,0.9-0.1,0.7,0.3
				c-0.3,0.1-0.8,0.2-0.5,0.6c0.4,1.2,0.7,2.4,1.1,3.6c0.1,0.4,0.5,0.5,0.9,0.5c0.3,0,0.3,0.6,0,0.4c-0.6,0-1.2,0-1.8,0.1
				c-0.3,0.1-0.8,0.1-0.6-0.4c0.3-0.1,0.8-0.1,0.6-0.6c-0.3-1.1-0.7-2.1-1-3.2c0.1,0.1,0,0.3,0,0.4c-0.1,1-0.2,2-0.3,3
				c0,0.3,0,0.6-0.1,0.8c-0.2,0.1-0.4-0.1-0.5-0.3c-1-1.2-1.9-2.5-2.9-3.7c0.1,0,0.1,0.2,0.1,0.3c0.3,1,0.6,1.9,0.9,2.9
				c0.1,0.4,0.5,0.5,0.8,0.5c0.4,0.2,0.1,0.5-0.2,0.4c-0.5-0.1-1,0-1.5,0.1c-0.3,0-0.3-0.5,0-0.4c0.5,0,0.3-0.5,0.2-0.8
				C489.3,290.1,489,289,488.7,287.9C488.6,287.9,488.6,287.9,488.7,287.9L488.7,287.9z"/>
			<path class="st27" d="M497.4,288.8c0.1,0.2,0.4,0.1,0.5,0.1c0.3,0,0.6-0.2,0.6-0.5c0-0.4-0.2-0.9-0.5-1.2
				c-0.3-0.3-0.8-0.2-1.2-0.2c0,0.1,0.1,0.3,0.1,0.5C497.1,287.9,497.3,288.3,497.4,288.8z M497.9,290.4c0.1,0.3,0.2,0.7,0.5,1
				c0.2,0.2,0.6,0.1,0.8,0.1c0.3,0,0.5-0.2,0.5-0.5c0-0.6-0.3-1.3-0.9-1.5c-0.3-0.1-0.7-0.1-1.1-0.1c-0.1,0.1,0,0.3,0.1,0.4
				C497.8,290,497.8,290.2,497.9,290.4L497.9,290.4z M496.1,288c-0.1-0.3-0.2-0.8-0.6-0.9c-0.2-0.1-0.6,0-0.7-0.3
				c0.1-0.3,0.5-0.1,0.8-0.1c0.9,0,1.8-0.2,2.7,0.1c0.7,0.2,1.3,0.8,1.3,1.6c0,0.4-0.3,0.7-0.7,0.9c0-0.1,0.4,0.1,0.5,0.1
				c0.5,0.2,1,0.6,1.2,1.1c0.2,0.4,0.3,1,0,1.3c-0.4,0.4-0.9,0.4-1.5,0.4c-0.8,0-1.6,0-2.4,0.1c-0.3,0-0.4-0.5,0-0.4
				c0.4,0,0.5-0.4,0.3-0.7C496.7,290,496.4,289,496.1,288L496.1,288z"/>
			<path class="st27" d="M501.1,287.8c-0.1-0.3-0.2-0.8-0.6-0.9c-0.2-0.1-0.7,0-0.7-0.4c0.2-0.3,0.7,0,1-0.1c0.7,0,1.4-0.1,2,0
				c0.8,0.1,1.5,0.6,1.7,1.4c0.1,0.4,0,1-0.4,1.2c-0.1,0.1-0.5,0.2-0.4,0.2c0.6,0.2,1.1,0.7,1.4,1.3c0.2,0.3,0.2,0.6,0.5,0.8
				c0.3,0.2,0.3-0.2,0.3-0.3c0.4-0.2,0.5,0.3,0.4,0.6c-0.1,0.4-0.7,0.5-1.1,0.4c-0.3-0.1-0.6-0.3-0.8-0.6c-0.3-0.5-0.6-1.2-1-1.6
				c-0.2-0.2-0.6-0.3-0.9-0.2c-0.1,0.1,0,0.3,0.1,0.4c0.1,0.4,0.2,0.8,0.4,1.2c0.2,0.3,0.5,0.4,0.9,0.4c0.3,0,0.3,0.6,0,0.4
				c-0.6,0-1.2-0.1-1.8,0c-0.2,0-0.5,0.1-0.7-0.1c-0.2-0.4,0.4-0.2,0.6-0.5c0.1-0.3-0.1-0.6-0.1-0.8
				C501.7,289.6,501.4,288.7,501.1,287.8L501.1,287.8z M502.4,288.7c0.1,0.3,0.6,0.1,0.8,0.1c0.3,0,0.5-0.3,0.4-0.6
				c-0.1-0.4-0.2-0.9-0.5-1.3c-0.3-0.2-0.7-0.2-1.1-0.2c-0.2,0.1,0,0.3,0,0.5C502.2,287.8,502.3,288.3,502.4,288.7L502.4,288.7z"/>
			<path class="st27" d="M509.3,286.2c0.3,0,0.3,0.3,0.4,0.5c0.1,0.3,0.2,0.6,0.3,0.8c-0.1,0.3-0.5,0-0.5-0.2
				c-0.1-0.3-0.3-0.6-0.6-0.6c-0.4,0-0.9,0-1.3,0c-0.2,0.1,0,0.4,0,0.6c0.1,0.5,0.2,0.9,0.4,1.4c0.3,0,0.5,0,0.8-0.1
				c0.3-0.2-0.1-0.6,0.2-0.7c0.4-0.1,0.4,0.4,0.4,0.6c0.1,0.5,0.3,0.9,0.4,1.3c-0.1,0.3-0.5,0-0.5-0.2c-0.1-0.3-0.4-0.5-0.7-0.4
				c-0.1,0-0.6-0.1-0.4,0.1c0.2,0.5,0.3,1.1,0.5,1.6c0.1,0.3,0.4,0.4,0.7,0.4c0.4,0,0.9,0.1,1.2-0.2c0.3-0.2,0.1-0.6,0.1-0.8
				c0.3-0.2,0.5,0.1,0.5,0.4c0.1,0.3,0.1,0.7,0.2,1c-0.1,0.2-0.3,0.1-0.4,0.1c-1,0-2.1,0-3.1,0.1c-0.3,0-0.6,0.2-0.8-0.1
				c-0.3-0.4,0.3-0.3,0.5-0.5c0.2-0.2,0-0.5,0-0.8c-0.3-1-0.6-2.1-0.9-3.1c-0.1-0.3-0.3-0.7-0.6-0.7c-0.2,0-0.6-0.1-0.5-0.4
				c0.3-0.1,0.7,0,1,0C507.4,286.2,508.3,286.2,509.3,286.2L509.3,286.2z"/>
			<path class="st27" d="M476.5,299.3c-0.1-0.4-0.2-0.8-0.6-0.9c-0.2,0-0.6-0.1-0.5-0.4c0.3-0.1,0.7,0,1-0.1c0.8,0,1.7-0.2,2.5,0
				c1.2,0.3,2.2,1.2,2.6,2.4c0.2,0.7,0.3,1.6-0.2,2.2c-0.5,0.7-1.4,0.9-2.2,0.9c-0.6,0-1.2,0-1.8,0.1c-0.2,0.1-0.6-0.1-0.4-0.4
				c0.3-0.1,0.7-0.1,0.6-0.5c-0.1-0.5-0.2-1-0.4-1.5C476.8,300.5,476.6,299.9,476.5,299.3L476.5,299.3z M478.1,301.8
				c0.1,0.3,0.1,0.7,0.4,0.9c0.3,0.2,0.6,0.1,0.9,0.1c0.5-0.1,0.8-0.5,0.9-0.9c0.1-0.8-0.1-1.5-0.4-2.2c-0.3-0.6-0.8-1.1-1.4-1.2
				c-0.4-0.1-0.8-0.1-1.2,0c-0.1,0.1,0,0.3,0,0.4C477.7,299.8,477.9,300.8,478.1,301.8L478.1,301.8z"/>
			<path class="st27" d="M485.2,297.3c0.3-0.1,0.3,0.3,0.4,0.5c0.1,0.3,0.2,0.5,0.2,0.8c-0.1,0.3-0.5,0.1-0.5-0.2
				c-0.1-0.3-0.3-0.6-0.6-0.6c-0.4,0-0.9,0-1.3,0.1c-0.2,0.1,0,0.4,0,0.6c0.1,0.5,0.2,0.9,0.3,1.4c0.3,0,0.6,0,0.8-0.2
				c0.2-0.2-0.1-0.6,0.2-0.7c0.4,0,0.3,0.4,0.4,0.7c0.1,0.4,0.3,0.9,0.3,1.3c-0.1,0.3-0.5,0.1-0.5-0.2c-0.1-0.3-0.4-0.5-0.7-0.4
				c-0.1,0-0.5-0.1-0.4,0.2c0.1,0.5,0.2,1,0.4,1.5c0.1,0.3,0.4,0.3,0.7,0.3c0.4,0,0.9,0,1.2-0.3c0.2-0.2,0-0.6,0.2-0.8
				c0.3-0.2,0.5,0.1,0.4,0.4c0,0.3,0.1,0.7,0.2,1c-0.1,0.2-0.3,0.1-0.5,0.2c-1,0.1-2.1,0.1-3.1,0.2c-0.3,0-0.6,0.2-0.8,0
				c-0.3-0.3,0.1-0.4,0.3-0.4c0.3-0.1,0.3-0.4,0.2-0.7c-0.3-1.1-0.5-2.2-0.8-3.2c-0.1-0.3-0.2-0.7-0.6-0.7c-0.2,0-0.6-0.1-0.5-0.4
				c0.3-0.1,0.7,0,1-0.1C483.2,297.4,484.2,297.4,485.2,297.3L485.2,297.3z"/>
			<path class="st27" d="M491.7,301.4c0,0.3,0.3,0.6,0.6,0.6c0.2,0.1,0.6,0,0.7,0.2c0.1,0.4-0.4,0.2-0.6,0.3c-0.6,0-1.1,0-1.7,0.1
				c-0.3,0-0.6,0.1-0.9,0.1c-0.3-0.1-0.1-0.5,0.1-0.4c0.3-0.1,0.6-0.1,0.7-0.4c0-0.3-0.1-0.5-0.1-0.8c-0.2-0.9-0.4-1.8-0.6-2.8
				c0-0.3-0.4-0.3-0.6-0.3c-0.2,0-0.6,0.2-0.7-0.2c0-0.3,0.5-0.3,0.7-0.4c0.4-0.1,0.7-0.3,1.1-0.4c0.2,0,0.3,0.2,0.3,0.3
				C491.1,298.7,491.4,300.1,491.7,301.4L491.7,301.4z"/>
			<path class="st27" d="M495.4,298.1c-0.1-0.4-0.3-0.8-0.7-0.8c-0.3-0.1-0.7,0-0.8,0.3c-0.1,0.4,0,0.8,0.4,1
				c0.3,0.2,0.6,0.3,0.9,0.5c0.1-0.1,0.2-0.3,0.2-0.6C495.4,298.4,495.4,298.2,495.4,298.1L495.4,298.1z M496.2,301
				c-0.1-0.5-0.6-0.8-1-0.9c-0.2,0-0.4-0.3-0.6-0.2c-0.3,0.3-0.5,0.7-0.3,1.1c0.1,0.5,0.5,1,1,1c0.3,0,0.8-0.1,0.9-0.5
				C496.3,301.3,496.3,301.2,496.2,301L496.2,301z M497.1,300.8c0.1,0.5-0.1,1-0.5,1.3c-0.6,0.4-1.4,0.4-2,0.2
				c-0.6-0.2-1.1-0.7-1.2-1.3c-0.1-0.5,0.1-1,0.5-1.3c0.1-0.1,0.5-0.1,0.2-0.2c-0.5-0.2-1-0.6-1.1-1.2c-0.1-0.5,0.1-1,0.6-1.3
				c0.9-0.5,2.1-0.2,2.6,0.7c0.2,0.4,0.3,0.9,0,1.2c-0.1,0.2-0.3,0.4-0.6,0.4c0.5,0.1,0.9,0.4,1.2,0.8
				C497,300.3,497.1,300.6,497.1,300.8L497.1,300.8z"/>
			<path class="st27" d="M500.4,301.4c0.2,0,0.5-0.1,0.5-0.4c0.1-0.2-0.1-0.6,0.3-0.6c0.3,0,0.3,0.4,0.3,0.6c0,0.4,0,0.9-0.3,1.1
				c-0.2,0.2-0.6,0.1-0.8,0.1c-0.6,0-1.1-0.1-1.7-0.1c-0.2,0-0.5,0.3-0.7,0.1c-0.2-0.2-0.1-0.5,0-0.8c0.2-0.6,0.6-1.1,1.1-1.5
				c0.3-0.3,0.7-0.7,0.8-1.1c0-0.4-0.1-0.8-0.3-1.2c-0.3-0.5-0.9-0.6-1.4-0.3c-0.2,0.1-0.4,0.5-0.2,0.7c0.2,0.2,0.6,0,0.7,0.4
				c0.1,0.2,0,0.6-0.3,0.6c-0.4,0.1-0.8-0.3-1-0.7c-0.2-0.5,0-1.1,0.5-1.4c0.5-0.3,1.1-0.3,1.7-0.2c0.6,0.1,1,0.6,1.2,1.1
				c0.2,0.4,0.2,0.9-0.1,1.3c-0.4,0.7-1.1,1.1-1.7,1.7c-0.1,0.2-0.2,0.4-0.2,0.6c0.1-0.2,0.4-0.1,0.6-0.2
				C499.7,301.3,500,301.4,500.4,301.4L500.4,301.4z"/>
			<path class="st27" d="M504.3,300.9c0,0.3,0.3,0.6,0.6,0.6c0.2,0.1,0.6,0,0.7,0.2c0.1,0.3-0.3,0.3-0.5,0.3c-0.6,0-1.2-0.1-1.8,0
				c-0.3,0-0.6,0.1-0.9,0c-0.3-0.1-0.1-0.5,0.2-0.4c0.3-0.1,0.6-0.1,0.7-0.4c0-0.3-0.1-0.5-0.1-0.8c-0.2-0.9-0.4-1.8-0.6-2.8
				c0-0.3-0.3-0.3-0.5-0.3c-0.2,0-0.6,0.2-0.7-0.1c-0.2-0.4,0.3-0.3,0.6-0.4c0.4-0.1,0.8-0.3,1.2-0.4c0.2,0,0.3,0.2,0.3,0.3
				C503.7,298.2,504,299.6,504.3,300.9L504.3,300.9z"/>
		</g>
	</g>
	<g>
		<g>
			
				<radialGradient id="SVGID_10_" cx="477.8582" cy="386.7344" r="0.3446" gradientTransform="matrix(1 0 0 -1 0 602)" gradientUnits="userSpaceOnUse">
				<stop  offset="0.2592" style="stop-color:#A50A0A"/>
				<stop  offset="1" style="stop-color:#4C0505"/>
			</radialGradient>
			<path class="st28" d="M475.8,219.4l-3.8,4.5c-1.2,5.2,1.8,9.2,7.6,12.6c4.8,2.9,13.5,3.7,16.3,1.3l-13.7-13.1L475.8,219.4
				L475.8,219.4z"/>
			<path class="st29" d="M503.6,354.3c-0.7-0.8-1.4-1.6-2-2.4c-8.6,11.3-19.2,21.4-32.6,28.6C484,376.2,493.9,365.2,503.6,354.3
				L503.6,354.3z"/>
			<path class="st29" d="M488.1,390c5.3-10.8,11.7-21.5,18.2-32.3c-0.7-0.9-1.4-1.8-2.1-2.6C496.8,367.2,488.2,381.7,488.1,390
				L488.1,390z"/>
			<path class="st29" d="M529.9,275.5c-1-4.2-2.3-8.8-4.3-13.1c-2.7-5.4-6.6-10.8-11.8-16.8c-9.4-10.2-18.8-20-31.9-27.3
				c0,0,0-0.1,0.1-0.1l0.1,0h0.2l-0.2-0.2h0.5l-0.3-0.3h0.4l-0.4-0.4h0.5l-0.3-0.3h0.5l-0.3-0.4l0.4,0l-0.4-0.4l0.5-0.1l-0.4-0.3
				l0.5-0.1l-0.4-0.3l0.6-0.2l-0.5-0.3l0.7-0.3l-0.6-0.5l0.7-0.2l-0.7-0.3l0.6-0.3l-0.7-0.1l0.5-0.6l-0.7,0l0.3-0.6l-0.7,0.1
				c0,0,0,0,0-0.1l0.4-0.4l-0.7,0.1l0.3-0.6l-0.6,0.3l0.2-0.7l-0.6,0.4l0.1-0.7l-0.6,0.5l0.1-0.7l-0.5,0.5l0-0.7l-0.5,0.6l-0.1-0.7
				l-0.4,0.6l-0.2-0.7l-0.3,0.7l-0.2-0.7l-0.3,0.7L478,210l-0.3,0.7l-0.2-0.7l-0.2,0.7l-0.2-0.6l-0.2,0.7l-0.2-0.7l-0.2,0.8
				l-0.3-0.7l-0.1,0.8l-0.4-0.7l0,0.8l-0.4-0.6l0,0.8l-0.4-0.6l0,0.7l-0.4-0.4l0.2,0.7l-0.5-0.3l0.2,0.7l-0.4-0.2l0.2,0.6l-0.4-0.1
				l0.2,0.5c0,0,0,0,0,0.1l-0.3-0.1l0.2,0.4l0,0c-0.4,1-0.4,2.3-0.4,3.5c0,0.2,0.6,0.5,0.7,0.6c0.3,0.4,0.2,0.7,0.2,0.7
				c-1.6,2.6-3,4.6-3.2,7.5c1.3-1.6,2.6-3.6,4.5-3.6c-0.9,1.5-1.4,6.2-0.3,6.9l0.8-1.4c0,1.1,0.2,1.8,0.4,2.3c0.3-0.6,0.6-1.3,1-1.7
				c0.1,1.5,0.3,2.7,0.7,3.3c0.4-0.7,1-1.2,1.6-1.6c-0.2,0.9-0.5,1.7-0.4,2.7c0.6-1.1,1.3-1.8,1.9-2.5c-0.4,1.6,0,2.8,0.4,4.5
				c0.4-2.1,0.6-2.3,1.5-3.2c0.1,1.9-0.3,3.6,0.1,4.7c0.9-1.7,1.5-1.4,2-2.5c-0.1,1.6-0.4,3.3,0,4.7c0.3-1.4,1.2-2.2,1.9-2.7
				c0.1,2.2,0.6,1.8-0.8,3.7c0.6,0.3,2.5-0.4,3.6-0.8c-0.5,1.2-0.4,2.1-0.9,2.9c1.1-0.5,2-1.4,2.9-2.3c-0.4,1.4-1.5,2.7-1,4.1
				c0.3-1.3,1.3-2.3,2.2-2.5c-0.2,0.7-0.3,2.2-1.3,2.9c2.4,0.3,3.4-1.4,4.6-2.7c-0.2,1.4-0.1,2.4,1.6,4.4c-0.3-2.4,0.2-1.9,1.3-3.4
				c0.5,2.1,1.1,4.4,3.4,6c-0.9-2.3-1.1-3.4-0.6-4.9c0.3,1.5,1.7,3.2,2,4.6c0.2-1.5,0.4-3,1-4.1c0.7,1.8,1.2,3.6,1.4,5.6
				c0.5-1,0.9-2,1.2-3.1c19.7,20.6,24.1,46.8,2.5,74.5c7.8-5.2,9.8-13.6,14.1-20.7c-4.2,9.3-6.1,19.7-13.5,27.4
				c7.2-6.2,8.7-11.9,13-17.9c-4.6,12.5-11,26.2-19.8,38.7c1.6,1.7,3.1,3.4,4.7,5.2c1.4-2.3,2.7-4.6,4.1-6.8
				C522.3,331.2,537.6,309.1,529.9,275.5L529.9,275.5z"/>
		</g>
		<path class="st30" d="M473.2,215.3c-1,0.2-1.4,0.6-2.1,1.4c0.9,0.2,1.7,0.2,2.5,0.3c0.3,0,0.3-0.3,0.3-0.6l-0.1-1
			c0-0.2-0.6-0.2-0.9-0.1L473.2,215.3L473.2,215.3z"/>
		<path class="st31" d="M471,216.7c0.3-0.1,0.7-0.2,1.1-0.3c0.4-0.1,0.7-0.2,1.1-0.2c-0.3,0.1-0.7,0.2-1.1,0.3
			C471.8,216.6,471.4,216.7,471,216.7L471,216.7z"/>
		<ellipse class="st32" cx="477.7" cy="215.4" rx="0.8" ry="0.8"/>
		
			<radialGradient id="SVGID_11_" cx="-83.6602" cy="561.9391" r="0.5" gradientTransform="matrix(0.674 0 0 -0.706 534.2469 611.99)" gradientUnits="userSpaceOnUse">
			<stop  offset="0" style="stop-color:#FFFFFF"/>
			<stop  offset="1" style="stop-color:#FFFFFF;stop-opacity:0"/>
		</radialGradient>
		<ellipse class="st33" cx="477.9" cy="215.3" rx="0.3" ry="0.4"/>
		<g>
			<path class="st34" d="M488.2,389.7c0.5-1.5,1-3,1.5-4.4c0.6-1.5,1.2-2.9,1.8-4.3c1.3-2.9,2.7-5.7,4.1-8.4c1.5-2.8,3-5.5,4.7-8.2
				c0.8-1.3,1.6-2.7,2.5-4l2.5-4l-2.4,4c-0.8,1.3-1.6,2.7-2.4,4c-1.6,2.7-3.1,5.4-4.6,8.2c-1.5,2.8-2.9,5.6-4.2,8.4
				c-0.6,1.4-1.3,2.9-1.8,4.3C489.2,386.7,488.7,388.2,488.2,389.7z"/>
			<path class="st34" d="M469.3,380.2c1.7-0.7,3.3-1.5,4.9-2.4c1.6-0.8,3.2-1.7,4.7-2.7c3.1-1.9,6-4.1,8.7-6.4
				c2.8-2.3,5.3-4.9,7.8-7.6c1.2-1.3,2.4-2.7,3.6-4.1c1.2-1.4,2.3-2.8,3.4-4.2c-1.1,1.5-2.2,2.9-3.3,4.3c-1.1,1.4-2.3,2.8-3.5,4.1
				c-2.4,2.7-5,5.3-7.7,7.6c-2.8,2.3-5.7,4.5-8.8,6.4c-1.5,0.9-3.1,1.8-4.7,2.7C472.7,378.8,471,379.5,469.3,380.2L469.3,380.2z"/>
			<path class="st34" d="M506.6,350.9c0.8-1.1,1.5-2.2,2.2-3.3c0.7-1.1,1.4-2.2,2.1-3.4c1.4-2.3,2.7-4.5,4-6.9
				c1.3-2.3,2.5-4.6,3.8-7l3.7-7l-1.7,3.6l-1.8,3.5c-1.2,2.4-2.4,4.7-3.7,7c-1.3,2.3-2.6,4.6-4,6.8
				C509.7,346.6,508.2,348.8,506.6,350.9L506.6,350.9z"/>
			<path class="st34" d="M512.5,325.8c1.7-2,3.3-4.2,4.7-6.4c1.4-2.2,2.7-4.6,3.8-7c2.2-4.8,3.8-9.9,5-15.1c0.1-0.6,0.3-1.3,0.4-1.9
				c0.1-0.6,0.2-1.3,0.3-2c0.2-1.3,0.3-2.6,0.4-4c0.2-2.6,0.2-5.3,0-7.9c-0.2-2.6-0.6-5.3-1.2-7.8c-0.6-2.6-1.4-5.1-2.4-7.6
				c1,2.5,1.9,5,2.5,7.6c0.6,2.6,1.1,5.2,1.3,7.9c0.2,2.6,0.2,5.3,0.1,8c-0.1,1.3-0.2,2.6-0.4,4c-0.1,0.7-0.2,1.3-0.3,2
				c-0.1,0.7-0.3,1.3-0.4,2c-1.2,5.2-2.8,10.3-5.1,15.1c-1.1,2.4-2.4,4.7-3.9,7C515.8,321.6,514.2,323.8,512.5,325.8L512.5,325.8z"
				/>
			<path class="st34" d="M510.9,320.1c1.8-1.8,3.5-3.7,4.9-5.8c1.4-2.1,2.7-4.3,3.8-6.6c1.1-2.3,2.1-4.6,3-7
				c0.5-1.2,0.9-2.4,1.4-3.6l0.3-0.9c0.1-0.3,0.2-0.6,0.3-0.9c0.2-0.6,0.4-1.2,0.6-1.8l0,0c0.5-2.5,0.8-5.1,0.8-7.7
				c0-2.6-0.2-5.2-0.6-7.7c-0.4-2.5-1-5.1-1.7-7.5c-0.7-2.5-1.6-4.9-2.6-7.3c1,2.4,1.9,4.8,2.7,7.3c0.8,2.5,1.4,5,1.8,7.5
				c0.4,2.6,0.6,5.1,0.6,7.7c0,2.6-0.3,5.2-0.8,7.7l0,0l0,0c-0.2,0.6-0.4,1.2-0.6,1.8c-0.1,0.3-0.2,0.6-0.3,0.9l-0.3,0.9
				c-0.5,1.2-0.9,2.4-1.4,3.6c-0.9,2.4-1.9,4.7-3.1,7c-1.1,2.3-2.4,4.5-3.8,6.6C514.4,316.4,512.7,318.3,510.9,320.1L510.9,320.1z"
				/>
			<path class="st34" d="M505,349.2c1.2-1.7,2.4-3.3,3.6-5l1.8-2.5c0.6-0.8,1.2-1.7,1.7-2.5c1.1-1.7,2-3.6,2.9-5.4
				c0.9-1.8,1.8-3.7,2.7-5.5c1.8-3.7,3.5-7.4,5-11.2c1.5-3.8,2.6-7.8,3.5-11.8c0.8-4,1.4-8.1,1.9-12.1c0.4-4.1,0.5-8.2,0-12.2
				c-0.4-4.1-1.4-8.1-2.7-11.9c-1.4-3.9-3.1-7.6-5.1-11.2c2,3.6,3.8,7.3,5.2,11.1c1.4,3.9,2.3,7.9,2.8,12c0.4,4.1,0.4,8.2,0,12.3
				c-0.5,4.1-1,8.1-1.9,12.2c-0.8,4-2,8-3.5,11.8c-1.5,3.8-3.2,7.5-5,11.2c-0.9,1.8-1.8,3.7-2.7,5.5c-0.9,1.8-1.8,3.7-2.9,5.4
				c-0.5,0.9-1.2,1.7-1.8,2.5l-1.8,2.5C507.5,345.9,506.3,347.6,505,349.2L505,349.2z"/>
			<path class="st34" d="M507.8,352.2c2.4-3.8,4.7-7.7,7-11.6c2.2-3.9,4.5-7.8,6.5-11.9c2-4,3.7-8.2,5-12.5c0.7-2.2,1.2-4.3,1.7-6.5
				c0.2-1.1,0.4-2.2,0.6-3.3c0.2-1.1,0.3-2.2,0.5-3.3c0.6-4.5,0.9-9,0.9-13.5c0-4.5-0.4-9-1.2-13.4c-0.8-4.4-2.1-8.8-4-12.9
				c-1.8-4.1-4.2-8-7-11.5c2.8,3.5,5.2,7.4,7.1,11.5c1.9,4.1,3.2,8.5,4,12.9c0.8,4.4,1.2,8.9,1.2,13.5c0,4.5-0.3,9-0.9,13.5
				c-0.1,1.1-0.3,2.2-0.5,3.3c-0.2,1.1-0.4,2.2-0.6,3.3c-0.5,2.2-1,4.4-1.7,6.6c-1.3,4.3-3,8.5-5,12.5c-2,4-4.2,8-6.5,11.8
				C512.6,344.6,510.2,348.4,507.8,352.2L507.8,352.2z"/>
			<path class="st34" d="M480,220.8c0.5,0,0.9,0,1.4,0.1c0.5,0.1,0.9,0.2,1.4,0.3c0.9,0.2,1.8,0.6,2.7,1c1.7,0.8,3.4,1.8,4.9,2.9
				c1.5,1.1,2.9,2.4,4.3,3.8c0.7,0.7,1.3,1.4,1.9,2.1c0.6,0.7,1.2,1.5,1.8,2.2c-0.6-0.7-1.2-1.5-1.8-2.2c-0.6-0.7-1.3-1.4-1.9-2.1
				c-1.3-1.3-2.7-2.6-4.3-3.7c-1.5-1.1-3.1-2.1-4.8-2.9c-0.9-0.4-1.7-0.7-2.6-1C481.9,221,480.9,220.8,480,220.8L480,220.8z"/>
		</g>
		<g>
			<path class="st35" d="M496.4,231.6c0,0,3.1,1.8,4.7,4.4c0,0-4.7-0.9-8.1-4.7"/>
			<path class="st34" d="M496.4,231.6c0.5,0.3,0.9,0.6,1.4,0.9c0.4,0.3,0.9,0.7,1.3,1c0.4,0.4,0.8,0.8,1.2,1.2
				c0.4,0.4,0.7,0.8,1,1.3l0.1,0.2l-0.2-0.1c-0.8-0.2-1.5-0.4-2.3-0.7c-0.7-0.3-1.5-0.6-2.1-1c-1.4-0.8-2.6-1.8-3.6-3
				c1.1,1.1,2.3,2.1,3.7,2.9c0.7,0.4,1.4,0.7,2.1,1c0.7,0.3,1.5,0.5,2.2,0.7l-0.1,0.2c-0.3-0.5-0.6-0.9-1-1.3
				c-0.4-0.4-0.7-0.8-1.1-1.2c-0.4-0.4-0.8-0.7-1.2-1.1C497.3,232.2,496.8,231.9,496.4,231.6L496.4,231.6z"/>
			<path class="st35" d="M489.6,230.7c0,0,7.2,4.6,8.3,5c0,0-1.6-3.5-5-5"/>
			<path class="st34" d="M489.6,230.7l4.1,2.5c0.7,0.4,1.4,0.8,2.1,1.2c0.3,0.2,0.7,0.4,1,0.6c0.3,0.2,0.7,0.4,1.1,0.5l-0.1,0.1
				c-0.3-0.5-0.6-1-0.9-1.5c-0.4-0.5-0.7-0.9-1.1-1.4c-0.4-0.4-0.9-0.8-1.3-1.2c-0.5-0.4-1-0.7-1.5-0.9c0.6,0.2,1.1,0.5,1.6,0.8
				c0.5,0.3,1,0.7,1.4,1.2c0.4,0.4,0.8,0.9,1.2,1.4c0.4,0.5,0.7,1,1,1.6l0.1,0.2l-0.3-0.1c-0.8-0.3-1.4-0.8-2.1-1.2
				c-0.7-0.4-1.4-0.8-2.1-1.3C492.3,232.5,490.9,231.6,489.6,230.7L489.6,230.7z"/>
			<path class="st35" d="M492.5,228.4c0,0,3.8,1.6,4.6,4.4c0,0-6.8-2.8-8-4.3"/>
			<path class="st34" d="M492.5,228.4c0.5,0.2,1,0.5,1.5,0.7c0.5,0.3,0.9,0.6,1.3,1c0.4,0.4,0.8,0.8,1.1,1.2
				c0.3,0.4,0.6,0.9,0.8,1.5l0.1,0.2l-0.2-0.1c-0.7-0.3-1.4-0.6-2.1-0.9c-0.7-0.3-1.4-0.7-2-1c-0.7-0.4-1.3-0.7-2-1.1
				c-0.3-0.2-0.6-0.4-1-0.6c-0.3-0.2-0.6-0.5-0.8-0.8c0.3,0.3,0.6,0.5,0.9,0.7c0.3,0.2,0.6,0.4,1,0.6c0.7,0.4,1.3,0.7,2,1.1
				c1.4,0.7,2.7,1.3,4.1,1.9l-0.1,0.1c-0.2-0.5-0.4-1-0.7-1.4c-0.3-0.4-0.7-0.8-1.1-1.2c-0.4-0.4-0.8-0.7-1.3-1
				C493.4,228.9,492.9,228.6,492.5,228.4L492.5,228.4z"/>
			<path class="st35" d="M486.8,231.2c0,0,6.6,4.8,8.6,4.8c0,0-1.9-3.3-5.4-4.8"/>
			<path class="st34" d="M486.8,231.2c0.7,0.5,1.4,0.9,2.1,1.3c0.7,0.4,1.4,0.9,2.1,1.3c0.7,0.4,1.4,0.8,2.2,1.2
				c0.4,0.2,0.7,0.4,1.1,0.5c0.4,0.1,0.8,0.3,1.2,0.3l-0.1,0.2c-0.3-0.5-0.7-1-1.1-1.4c-0.4-0.5-0.8-0.9-1.2-1.3
				c-0.4-0.4-0.9-0.8-1.4-1.1c-0.5-0.3-1-0.6-1.6-0.9c1.1,0.5,2.2,1.1,3.1,1.9c0.5,0.4,0.9,0.8,1.3,1.3c0.4,0.5,0.8,0.9,1.1,1.5
				l0.1,0.2l-0.2,0c-0.4,0-0.8-0.2-1.2-0.3c-0.4-0.2-0.8-0.3-1.1-0.5c-0.7-0.4-1.5-0.8-2.2-1.2c-0.7-0.4-1.4-0.9-2.1-1.4
				C488.1,232.2,487.4,231.7,486.8,231.2L486.8,231.2z"/>
			<path class="st35" d="M486.8,232.7c0,0,3.5,2.9,5.4,2.9c0,0-1.9-3.3-5.4-4.8"/>
			<path class="st34" d="M486.8,232.7c0.4,0.3,0.8,0.6,1.3,0.9c0.4,0.3,0.9,0.6,1.3,0.8c0.4,0.3,0.9,0.5,1.4,0.7
				c0.2,0.1,0.5,0.2,0.7,0.3c0.2,0.1,0.5,0.1,0.7,0.1l-0.1,0.2c-0.3-0.5-0.7-1-1.1-1.4c-0.4-0.5-0.8-0.9-1.2-1.3
				c-0.4-0.4-0.9-0.8-1.4-1.1c-0.5-0.3-1-0.6-1.6-0.9c1.1,0.5,2.2,1.1,3.1,1.9c0.5,0.4,0.9,0.8,1.3,1.3c0.4,0.5,0.8,0.9,1.1,1.5
				l0.1,0.2l-0.2,0c-0.6,0-1.1-0.2-1.5-0.4c-0.5-0.2-0.9-0.5-1.4-0.7c-0.4-0.3-0.9-0.6-1.3-0.9C487.5,233.4,487.1,233.1,486.8,232.7
				L486.8,232.7z"/>
			<path class="st35" d="M485,226.2c0,0,7.2,5.1,8.1,7.9c0,0-6.5-3-7.7-4.5"/>
			<path class="st34" d="M485,226.2c0.8,0.5,1.5,1.1,2.3,1.7c0.8,0.6,1.5,1.2,2.2,1.8c0.7,0.6,1.4,1.3,2.1,2
				c0.3,0.4,0.6,0.7,0.9,1.1c0.3,0.4,0.5,0.8,0.7,1.3l0.1,0.2l-0.2-0.1c-0.7-0.3-1.4-0.6-2-1c-0.7-0.3-1.3-0.7-2-1
				c-0.7-0.4-1.3-0.7-1.9-1.2c-0.3-0.2-0.6-0.4-0.9-0.6c-0.3-0.2-0.6-0.5-0.8-0.8c0.2,0.3,0.6,0.5,0.9,0.7c0.3,0.2,0.6,0.4,0.9,0.6
				c0.6,0.4,1.3,0.7,2,1.1c1.3,0.7,2.7,1.4,4,2l-0.1,0.1c-0.1-0.4-0.4-0.8-0.7-1.2c-0.3-0.4-0.6-0.7-0.9-1.1c-0.6-0.7-1.3-1.4-2-2
				c-0.7-0.6-1.4-1.3-2.2-1.9C486.5,227.3,485.8,226.8,485,226.2L485,226.2z"/>
		</g>
	</g>
	<g>
		<path class="st3" d="M445,370.3c-4.9,3.6-18.6,5.4-20.4,4.8C434.5,366.9,444.3,366.7,445,370.3z"/>
		<path class="st3" d="M514.8,374.8c5.3,4.8,21.1,8.1,23.5,7.5C527.7,371.5,516.2,370.4,514.8,374.8z"/>
		<path class="st4" d="M445,370.3c-0.7-3.7-10.5-3.4-20.4,4.8C435,371.6,443.8,369.7,445,370.3z"/>
		<path class="st4" d="M514.9,374.7c1.4-4.4,12.8-3.3,23.4,7.5C526.4,377.2,516.3,374.1,514.9,374.7z"/>
	</g>
</g>
</svg>
