<?xml version="1.0" encoding="utf-8"?>
<!-- Generator: Adobe Illustrator 21.0.0, SVG Export Plug-In . SVG Version: 6.00 Build 0)  -->
<svg version="1.1" id="Layer_1" xmlns="http://www.w3.org/2000/svg" xmlns:xlink="http://www.w3.org/1999/xlink" x="0px" y="0px"
	 viewBox="0 0 1200 800" style="enable-background:new 0 0 1200 800;" xml:space="preserve">
<style type="text/css">
	.st0{fill:#E32118;}
	.st1{fill:#FFFFFF;}
	.st2{fill:#3E9A00;}
	.st3{fill:#0073CE;}
	.st4{fill:#FFFFFF;stroke:#000000;stroke-width:4.8;}
	.st5{fill:#73452B;stroke:#000000;}
	.st6{fill:#A36629;stroke:#000000;}
	.st7{fill:none;stroke:#000000;}
	.st8{fill:#009A3B;stroke:#000000;}
	.st9{fill:#FFD700;stroke:#000000;stroke-width:3.5;}
	.st10{fill:#FFFFFF;stroke:#000000;stroke-width:3.5;}
</style>
<title>Flag of Equatorial Guinea</title>
<rect class="st0" width="1200" height="800"/>
<rect class="st1" width="1200" height="533.3"/>
<rect class="st2" width="1200" height="266.7"/>
<path class="st3" d="M0,0v800l300-400L0,0z"/>
<g>
	<g id="shield">
		<path class="st4" d="M536,319.6h127.7v133.7c0,45-58.7,10.3-63.7,34.3c-8.7-24.7-63.7,11-63.7-37C536.3,404,536,319.6,536,319.6z"
			/>
		<path class="st5" d="M609,466.3c0,0-1.7,1.7-4.7,0.3c-3-1.3-3.3-85.7-3.3-85.7c6.7-7.3,12-9.7,12-9.7l4,3.3
			c-15,7.7-13.7,18.7-12.3,37.7c0.3,7,0.3,16,2,24.7c2.3,11,7,20.3,7.3,27.3C614.3,468.7,609,466.3,609,466.3z"/>
		<path class="st5" d="M598.7,369.3h6c-5,48.3-0.7,77-0.7,91c0,4.7,2.7,6.3,2.3,6.3c-6,6.7-9-0.3-9-0.3L598.7,369.3z"/>
		<path class="st6" d="M589.3,466.3c-5.7,2.7-6.3-2.7-6-3.3c12.3-25,17.7-80,6.3-86l0.7-5.3c4.3,1.3,8.3,7,8.3,7c1.7,61.7,0,87-1,88
			c-6,6.3-8.3-1-8.7-1.7"/>
		<path class="st7" d="M589,465.3c-1-5.3,8.7-19,8-33.3"/>
		<path class="st7" d="M605.3,443.7c3,8.3,4.3,15.7,3.7,22.7"/>
		<path class="st8" d="M618.3,346.7c2-2.3,2-2.3,5.7-2.3c0.7-5,9-5,9.7,1.3c6.7-1.3,8,2.7,5.3,6.7c6.3-1.7,12,0,10.3,7.3
			c11.3,3,7,11,2,12.7c-0.7,5-5.3,6.7-11.7,4.7c-8,5.7-12.7,3.7-16.3-2c-9,1.3-9.7-0.7-13.7-5.7c-7,3-8.3,3-14.3-0.7
			c-0.3,4.7-2,3.3-5,3c0.3,6-2,8.7-7.3,6.7c4,8.3-6.3,12-11.3,5c-4.7,0.3-5-1-7.3-2.7c-2,6.7-9.3,5.7-10.7,2
			c-9.3-1.3-8.3-6.3-0.7-6.7c0.7-5.3,5.3-4.3,8.3-3.7c0.3-3.3,2.3-2.7,4-2c-1-2.3-0.3-3.7,2.7-4.3c-4.3-5.7-1.7-7.7,2.7-9.7
			c-2.3-5.3,1.7-5,4.7-5.3c-0.3-5.7,1.3-6.7,7.3-7.3c-0.7-2,0.3-3.7,3.7-3.7c-2-5.7,0.7-7,6.7-6c1-8.2,18.7-4.3,17.3,7
			C615.3,341.7,617,342.7,618.3,346.7z"/>
		<g>
			<path class="st7" d="M582.7,343.7c1.3,0.7,3,0,3.3,3.7c2.7-4.7,6-2,6,3.3"/>
			<path class="st7" d="M610.3,341c-1.3,2-6.3,2-5.7,7.3c-1.7-2.3-5-3-6.3-0.7"/>
			<path class="st7" d="M618.3,346.7c0,1.3-0.3,5.3-1.7,7.3"/>
			<path class="st7" d="M639,352.3c0.3,0.3-4.7,0-7,1.7"/>
			<path class="st7" d="M651.3,372.3c-1.3-0.7-4-2.3-6,0.3c0-1.3,0-5-3.7-5"/>
			<path class="st7" d="M639.7,377c0-3.3-0.7-4.3-1.3-5.3"/>
			<path class="st7" d="M628.7,372.3c-2.7-2-5.3,1-5.3,2.7"/>
			<path class="st7" d="M609.3,369.3c0-1.3-1-4,1.3-5"/>
			<path class="st7" d="M571.3,383.3c0.7-3.3,3-3.3,2.7-5c-0.3-2.7-3.3-5-7-1.3"/>
			<path class="st7" d="M574,378.3c2-0.7,4-0.3,4.7,0.7"/>
			<path class="st7" d="M568.3,366c1.3-1.3,4.7-1,6.7,0"/>
			<path class="st7" d="M575,358c1.7,0,4.7-0.7,5.7,2.3c3.7-5.7,6.3-5,7-3.7"/>
			<path class="st7" d="M594.3,356c2.7-1,7.3,1.7,10,6.3c1.3-3.7,3.3-3,5.3-3.3"/>
			<path class="st7" d="M622.3,362.3c4.3-2,7,2,8.3,3.7c2-2.7,3.7-2.7,5.7-2.7"/>
			<path class="st7" d="M582,370.3c1-1.7,3.3-2,5-1c-0.3-3,1.7-4.3,3-3.7"/>
		</g>
	</g>
	<g id="stars">
		<path class="st9" d="M595.7,300.9l-7.3,0.3l-3.7,6.6l-4-6.3l-7.3,0.3l3.3-6.6l-4-6.3l7.7-0.3l3.3-6.6l4,6.3l7.3-0.3l-3.3,6.6
			L595.7,300.9z"/>
		<path class="st9" d="M564.3,303.3l-7.3,1.8l-2,7.1l-5.3-5.3l-7,1.7l2-7.1l-5-5.4l7-1.8l2-7.1l5.3,5.3l7.3-1.7l-2.3,7.1
			L564.3,303.3z"/>
		<path class="st9" d="M534,309.5l-6.7,3.3l-0.3,7.4l-6.3-4.1l-6.7,3.3l0.7-7.4l-6.3-4.1l6.7-3.3l0.7-7.4l6,4.1l6.7-3.3l-0.3,7.4
			L534,309.5z"/>
		<path class="st9" d="M605.3,300.9l7.3,0.3l3.3,6.6l4-6.3l7.3,0.3l-3.3-6.6l4-6.3l-7.3-0.3L617,282l-4,6.3l-7.3-0.3l3.3,6.6
			L605.3,300.9z"/>
		<path class="st9" d="M636.7,303.3l7,1.8l2,7.1l5.3-5.3l7,1.7l-2-7.1l5.3-5.4l-7.3-1.8l-2-7.1l-5.3,5.3l-7-1.7l2,7.1L636.7,303.3z"
			/>
		<path class="st9" d="M666.7,309.5l6.7,3.3l0.3,7.4l6.3-4.1l6.7,3.3l-0.3-7.4l6-4.1l-6.7-3.3l-0.3-7.4l-6.3,4.1l-6.7-3.3l0.7,7.4
			L666.7,309.5z"/>
	</g>
	<g id="motto">
		<g>
			<path class="st10" d="M675.7,450.7l8.3,12l7.7-11.3l-5.3-9.7L675.7,450.7z"/>
			<path class="st10" d="M622.7,485.7l0.7,12c0,0,3.3,0,6.3-1c2.7-1,5-3,5-3l-0.3-6.3L622.7,485.7z"/>
			<path class="st10" d="M578,485.7l-0.7,11.7c0,0-3,0-6-0.7c-2.7-0.7-5-2.3-5-2.3l-3.3-8L578,485.7z"/>
			<path class="st10" d="M524.3,450.7l-8.7,12l-9.3-15.3l7-7.3L524.3,450.7z"/>
			<path class="st10" d="M566,509.7c0,11.3,68.7,11.3,68.7,0v-16c0,8.3-68.7,6.7-68.7,0V509.7z"/>
			<path class="st10" d="M504.7,472.7c6,30.7,61.3,31.3,61.3,31.3v-10.3c-1.3-4,1-5.3,10-6.7c3.7-0.3,2-5.7,2-5.7s-24,4.3-41-2.3
				c-23-9.3-26.3-27.3-26.3-27.3S509,465.7,504.7,472.7z"/>
			<path class="st10" d="M695.7,472.7c-5.7,30.7-61,31.3-61,31.3v-10.3c1-4-1.3-5.3-10.3-6.7c-3.7-0.3-1.7-5.7-1.7-5.7
				s24,4.3,41-2.3c22.7-9.3,25.3-27.3,25.3-27.3S691.3,465.7,695.7,472.7z"/>
			<path class="st10" d="M509,461c-15.3-8.3-3.3-17-2-41.7c2.3,15,19.3,21.3,17.3,31c-7,0.3-10.3-10.3-13.7,1.3L509,461z"/>
			<path class="st10" d="M691.3,461c15.3-8.7,2.7-17,1.3-41.7c-2.3,15-19,21.3-17,31c6.7,0.3,10-10.3,13.3,1.3l2.3,9V461z"/>
		</g>
		<g>
			<path d="M518.3,472.3l1.7,1.3l-3.7,4c-1.5,1.6-1.8,2.7-0.8,3.6c1.3,1.2,2.2,0.8,3.5-0.6l4-4.3l1.3,1.3l-4,4.7
				c-2.2,2.5-4.2,2-5.9,0.4c-1.5-1.4-2.3-3.4-0.2-5.8L518.3,472.3L518.3,472.3z"/>
			<path d="M525,478l1.7,1l-0.3,8l3.7-5.7l1.7,1l-5.3,8.7l-2-1l0.3-8l-3.7,5.7l-1.7-1L525,478z"/>
			<path d="M528,492l4.7-9.3l1.7,1l-4.3,9L528,492z"/>
			<path d="M535.3,484l-3.7,9.7l3.7,1.3c3.4,1.2,5-0.3,6.1-3.2c1.1-3,0.6-5.1-2.8-6.5L535.3,484z M536.7,486.3
				c3.5,1.2,3.7,2.5,2.7,4.9c-0.9,2.2-1.8,3.1-5,1.4L536.7,486.3z"/>
			<path d="M546.3,487.7l-6,9l2.3,0.7l1.3-2.3l4,1l0.3,2.3l2.3,0.3l-2.3-10.7L546.3,487.7z M547,490l0.7,4l-2.7-0.3L547,490z"/>
			<path d="M552,488.5l-0.4,10.3l3.9,0.1c3.6,0.1,4.7-1.9,4.8-5c0.1-3.2-1.1-5.1-4.8-5.2L552,488.5L552,488.5z M554,490.3
				c3.7,0,4.3,1.2,4.2,3.7c-0.1,2.4-0.7,3.5-4.3,3L554,490.3L554,490.3z"/>
			<path d="M587,503v10.7h2.3v-4c0,0,2,0.1,3.7-0.3c1.3-0.3,2.2-1.2,2.2-3.2c0-2-1.1-3.1-3.2-3.1H587L587,503z M589.3,504.7l2.4,0
				c2,0,1.6,3,0.1,3h-2.4L589.3,504.7L589.3,504.7z"/>
			<path d="M599,503l-4.3,10.7h2.3l1-2.7h4.3l1,2.7h2.3l-4.3-10.7L599,503L599,503z M600,505.3l1.7,4h-3L600,505.3z"/>
			<path d="M605.7,511.7l5.7-7h-5V503h8v1.7l-6,7h6v2h-8.7V511.7z"/>
			<path d="M639.3,491l2-0.3l1,6c0.4,2.1-0.6,3.6-2.1,4.1c-1.7,0.6-3.9,0.1-4.2-2.8l1.7-0.3c0.4,1.7,1.1,1.9,1.9,1.6
				c0.6-0.2,1-1.2,0.8-2.3L639.3,491z"/>
			<path d="M642.7,490.4l2-0.4l0.9,5c0.4,2.1,1.1,3,2.5,2.8c1.7-0.3,1.9-1.3,1.5-3.2l-1.2-5.3l2-0.3l1.3,5.5c0.8,3.2-0.9,4.5-3.2,5
				c-2,0.4-4.1-0.1-4.8-3.3L642.7,490.4z"/>
			<path d="M653,495l1.7-0.7c0.8,1.5,2.1,1.4,3.1,1c1.4-0.6,1.5-1.8,0.9-2.2c-1-0.6-3.3,0.2-4.5-0.2c-1.5-0.5-2.1-1.4-2.1-2.7
				c0.1-1.6,1.5-2.4,2.9-2.9c1.7-0.5,3.3-0.3,4.4,1.7l-2,0.7c-0.7-1.1-1.5-1-2.2-0.7c-0.6,0.3-1.6,0.8-1.1,1.7
				c0.4,0.7,2.9,0.3,4.2,0.3c1.3,0.1,2.4,0.9,2.6,2.2c0.3,1.8-0.4,2.8-2.5,3.6C655.8,497.8,653.4,496.7,653,495L653,495z"/>
			<path d="M662,486.7l-2.7,1.3l-0.7-1.7l7.3-3l0.7,1.3L664,486l3,7.3l-1.7,1L662,486.7z"/>
			<path d="M666.3,483l1.7-1l4.7,8.7l-1.7,1L666.3,483z"/>
			<path d="M677.7,483.7l2-0.7c0.9,2-0.5,5.6-3.9,5.5c-5.1-0.1-5.6-5.7-4.8-7.5c1.3-3.1,5.1-3,6.7-1.3L676,481
				c-1.1-1.4-3.4-0.5-3.6,0.7c-0.3,2,0.6,3.9,2.5,4.8C676.4,487.3,678.8,485.4,677.7,483.7L677.7,483.7z"/>
			<path d="M676.7,476.7l1.7-1.3l6,8l-1.7,1.3L676.7,476.7z"/>
			<path d="M683,471.7l-1.7,1.3l3.7,10l1.7-1.7l-1-2l3-2.7l2,1l1.7-1.3L683,471.7z M683.7,474l3.3,1.7l-2,2L683.7,474z"/>
		</g>
	</g>
</g>
</svg>
