<?xml version="1.0" encoding="utf-8"?>
<!-- Generator: Adobe Illustrator 21.0.0, SVG Export Plug-In . SVG Version: 6.00 Build 0)  -->
<svg version="1.1" id="Layer_1" xmlns="http://www.w3.org/2000/svg" xmlns:xlink="http://www.w3.org/1999/xlink" x="0px" y="0px"
	 viewBox="0 0 750 500" style="enable-background:new 0 0 750 500;" xml:space="preserve">
<style type="text/css">
	.st0{fill:#006C35;}
	.st1{fill:#FFFFFF;}
</style>
<rect class="st0" width="750" height="500"/>
<path class="st1" d="M323.3,118.1c-0.4,0-1,0.2-1.8,0.7c-1.8,1.2-5.5,5-5.6,9.3c-0.1,2.5-0.6,2.4,1,4c1.2,1.7,2.3,1.5,4.7,0.3
	c1.3-1,1.8-1.6,2.2-3.3c0.6-2.8-2.9,1.3-3.4-1.8c-0.8-2.9,1.4-4.1,3.6-6.8C324.1,119.2,324.1,118.1,323.3,118.1L323.3,118.1z
	 M357.3,118.3c-0.7,0.1-1.5,0.9-2.6,2.9c-0.8,2.1-4.2,5.3-1.8,11.9c2,4.2,2.9,10.9,1.9,18.5c-1.4,2.1-1.7,2.9-3.6,5
	c-2.6,2.8-5.4,2.1-7.5,1c-2-1.4-3.6-2-4.5-6.3c0.2-6.8,0.6-18.1-0.7-20.4c-1.8-3.7-4.9-2.4-6.2-1.2c-6.2,5.7-9.3,15.4-11.2,23
	c-1.7,5.6-3.6,4-4.9,1.7c-3.2-3-3.4-26.1-7.2-22.3c-6.1,17.4,3.5,36.5,10.2,34.7c4.8,2,7.8-7.2,9.8-17.2c1.3-2.8,2.4-3.1,3.1-1.7
	c-0.2,13.3,1,16.3,4.4,20.3c7.6,5.9,13.9,0.7,14.4,0.2c0.5-0.5,5.9-5.9,5.9-5.9c1.3-1.4,3.1-1.5,4.9-0.2c1.8,1.6,1.6,4.5,5.5,6.5
	c3.3,1.3,10.3,0.3,11.9-2.5c2.2-3.7,2.7-5,3.7-6.4c1.6-2.1,4.2-1.2,4.2-0.5c-0.2,1.2-1.8,2.3-0.8,4.4c1.9,1.4,2.3,0.5,3.4,0.2
	c3.9-1.9,6.8-10.2,6.8-10.2c0.2-3.1-1.6-2.9-2.8-2.2c-1.5,0.9-1.6,1.2-3.1,2.1c-1.9,0.3-5.6,1.5-7.4-1.3c-1.9-3.4-1.9-8.1-3.3-11.5
	c0-0.2-2.5-5.4-0.2-5.7c1.2,0.2,3.6,0.9,4-1.2c1.2-2-2.6-7.8-5.2-10.7c-2.3-2.5-5.4-2.8-8.4-0.2c-2.1,1.9-1.8,4.1-2.2,6.2
	c-0.5,2.4-0.4,5.3,2,8.4c2.1,4.2,6,9.5,4.7,17.1c0,0-2.2,3.6-6.2,3.1c-1.6-0.4-4.3-1.1-5.7-11.5c-1.1-7.9,0.3-19-3.1-24.2
	C359.1,120,358.4,118.1,357.3,118.3L357.3,118.3z M346.6,119.1c-1,0.1-2.1,1.3-3.1,3.6c-0.8,1.7-1.8,10.8-1.6,10.8
	c-0.6,2.7,2.8,3.9,4.4,0.4c2.4-6.4,2.4-9.1,2.5-11.8C348.5,120,347.6,119,346.6,119.1L346.6,119.1z M386.4,119.8
	c-1,0.1-1.9,0.7-2.2,2.2c-0.4,3.6-0.2,5.6,0.4,8.6c0.5,2,3.4,5.4,4.8,7.3c6.9,9.3,13.5,18.6,19.9,28.2c1,7.2,1.7,14.2,2.2,21.1
	c1,15.3,1.4,34.3,0.4,50.4c2.9,0.1,7.5-4.6,9.1-11.6c1-9.6-0.4-29.2-0.5-34.8c-0.1-2.4-0.2-5.2-0.4-8.1
	c7.5,12.2,14.7,25.1,21.8,39.2c2.6-1.2,2-15.8,0.5-17.8c-5.7-12.2-13.5-24.3-16-28.9c-0.9-1.7-4-6.4-7.6-11.8
	c-0.7-7.7-1.4-14.2-1.9-16.2c-1.2-8.1,3.3,0.9,2.7-3.8c-1.5-8.1-6-13.6-11.2-21.1c-1.7-2.4-1.7-2.9-4.3,0.6
	c-1.6,3.6-1.6,6.6-1.1,9.3c-0.7-1-1.6-2.2-2.8-3.7c-4.6-3.9-4.9-4.1-8.7-7.3C390.4,121,388.1,119.7,386.4,119.8L386.4,119.8z
	 M504.4,121.1c-0.5-0.1-1.1,0.2-1.7,1.1c-1.2,1-2.5,2.9-2.4,5.4c0.3,4.3,1.1,8.7,1.3,13c0.1,0.6,0.2,1.1,0.3,1.7
	c-0.5-0.6-0.9-1-1.1-1.3c-8.4-8.8,3.8-1.4-1.6-8.2c-4.6-5-5.9-6.7-9.9-9.7c-2-1.3-3.2-3.7-3.8,0.4c-0.3,3.6-0.5,7.9-0.3,10.9
	c0,1.7,1.8,4.9,3.3,6.8c5.6,6.9,11.3,14.1,17,21.8c1.2,15.5,1.5,29.7,2.8,45.3c-0.2,6.6-2.2,15.5-4.2,16.3c0,0-3,1.7-4.9-0.2
	c-1.4-0.6-7.2-9.6-7.2-9.6c-2.9-2.7-4.9-1.9-7,0c-5.8,5.6-8.4,16-12.3,23.2c-1,1.6-3.9,3-7-0.1c-8-11-3.3-26.6-4.3-22.6
	c-7.2,8.1-4,21.5-2.4,24.3c2.4,4.7,4.3,7.8,8.9,10.1c4.2,3.1,7.5,1.2,9.2-1c4.2-4.4,4.3-15.5,6.2-17.8c1.4-4.1,4.9-3.4,6.6-1.6
	c1.6,2.4,3.6,3.9,6,5.2c3.9,3.5,8.6,4.1,13.2,0.9c3.2-1.8,5.2-4.1,7.1-8.6c2-5.3,1-33.1,0.6-48.6c3,4.2,5.9,8.5,8.8,12.8
	c1.3,13.6,1.9,27,1.4,39.8c-0.3,2.6,8.9-7.6,8.8-12.4c0-4.2,0-8,0-11.6c4.5,7.1,8.8,14.4,12.9,21.7c2.5-1.3,1.7-15.7,0.1-17.7
	c-4.3-7.2-9.8-14.9-14-20.9c-0.8-7.6-2-16.5-2.5-19.2c-0.8-4.3-1.6-10.7-2.8-15.8c-0.3-2-1.3-8.3-1-8.9c0.5-1.4,2.4,0,3.3-1.6
	c1.4-1.5-4.8-17.6-8-22.2c-1.1-2.1-3.2-1.3-5.7,2c-2.4,2.2-1.5,7.2-0.6,12c2.3,12.2,4.4,24.6,6.1,36.9c-3.1-4.5-6.8-10-10.4-15.3
	c-0.1-0.5-0.5-2.4-0.5-2.4c0-0.2-0.5-10-0.9-12.3c-0.1-0.9-0.3-1.2,0.7-1.1c1,0.9,1.2,0.9,1.8,1.2c1.1,0.2,2-1.6,1.3-3.2
	c-3.3-6-6.5-12.1-9.8-18.1C505.3,121.5,504.9,121.1,504.4,121.1L504.4,121.1z M199.8,121.4c-1.8-0.1-3.8,1.1-3,3.2
	c-0.5,1.2,3.5,5.2,4.2,7.4c0.6,1.6-0.6,6.6,0.7,7.1c1.2,0.5,2.9-3.5,3.5-7.2c0.3-2,0.1-9-4.7-10.4
	C200.4,121.4,200.1,121.4,199.8,121.4L199.8,121.4z M546.8,121.4c-0.4,0-0.9,0.7-1.7,2.3c-1.9,3-2.5,8.5-1.8,13.3
	c4.5,30.2,7.8,59.4,8.5,86.2c-0.4,2.5-0.5,3.9-1.7,7.1c-2.6,3.4-5.5,7.6-8.3,9.7c-2.7,2-8.6,4-10.5,5.5c-6,3.5-6.1,7.5-1.2,7.7
	c8.4-1,18.4-1.7,25.2-12c1.8-2.9,4-10.8,4.1-15.6c0.6-28.2-0.4-55.9-4.6-76.3c-0.3-2-1.1-6.6-0.8-7.2c0.5-1.4,3.3,0.1,4.3-1.5
	c1.4-1.5-7.1-12.4-10.1-17.1C547.7,122.3,547.3,121.4,546.8,121.4L546.8,121.4z M458.4,121.9c-0.3,0.1-0.9,0.6-1.8,1.8
	c-2.4,7.7-3.2,14-2.3,18.7c6,31.5,12.2,60.3,11.2,90.3c2.9,0,6.2-6.6,7.6-13.1c0.8-9-0.5-14.4-0.8-19.7c-0.2-5.3-6-48-7.1-52
	c-1.4-7.5,5.6-1,4.8-5.4c-2.4-5.5-8.4-13.6-10.3-18.4C459.1,123,459,121.8,458.4,121.9L458.4,121.9z M243.4,122.5
	c-0.7,0.1-1.5,0.7-1.7,1.8c-0.2,0.7,0.3,1.8-0.3,2.1c-0.3,0.3-1.6,0.1-1.6-1.7c0-0.6-0.4-1.2-0.7-1.6c-0.3-0.2-0.4-0.2-0.9-0.2
	c-0.6,0-0.6,0.2-0.9,0.7c-0.1,0.5-0.3,1-0.3,1.5c-0.1,0.7-0.3,0.9-0.8,1c-0.5,0-0.4,0.1-0.8-0.2c-0.3-0.3-0.6-0.4-0.6-0.9
	c0-0.5-0.1-1.3-0.3-1.6c-0.2-0.3-0.6-0.5-1-0.6c-2.2,0-2.4,2.6-2.3,3.6c-0.2,0.2-0.3,4.8,2.8,6c4.1,2,11.8,1.1,11.5-5.5
	c0-0.6-0.1-2.6-0.2-3.1C244.9,122.7,244.1,122.3,243.4,122.5L243.4,122.5z M298.6,122.5c-1.4,0.1-2.7,0.5-3.8,1
	c-2.7,2.6-3.4,6.8-1.2,9.4c2.1,1,4.2,3.1,2.8,4.2c-5.9,6.3-21.3,16.9-22.1,18.8c0,0,0,0,0,0.1c0,0,0,0.1,0,0.1c0,0,0,0,0,0
	c0,0,0,0,0,0.1c0,0,0,0,0,0c0,0,0,0,0,0c0,0,0,0,0,0c0,0,0,0,0,0c0,0,0,0,0,0c0.8,0.5,10.4,0.5,11.5,0c0,0,0,0,0,0c0,0,0,0,0,0
	c0,0,0,0,0,0c3.3-1.2,19-19.2,19-19.2c-0.8-0.7-1.6-1.2-2.4-1.9c-0.9-0.8-0.8-1.5,0-2.2c3.9-2.3,2.7-7.2,0.6-9.5
	C301.6,122.7,300,122.5,298.6,122.5L298.6,122.5z M442.9,122.6c-0.4,0-0.9,0.7-1.7,2.3c-1.9,3-3.1,8.3-3,13.3
	c4,27.8,5.2,52.2,7.9,80c0.2,2.7-0.2,6.6-2,8.2c-6.6,6.9-16.2,15.4-26.5,19.3c-1.1,1.3,2.8,6.6,7.8,6.6c8.4-1,15.8-5.7,22.7-18.2
	c1.8-2.9,5.1-9.1,5.2-13.9c0.6-28.2-1.4-50.2-5.7-70.6c-0.3-2-0.1-4.3,0.2-4.9c0.5-0.7,2.4,0,3.4-1.6c1.4-1.5-3.8-13.7-6.8-18.3
	C443.8,123.5,443.4,122.5,442.9,122.6L442.9,122.6z M219.4,123.4c-1.2,0.1-2.3,1.1-2.8,2.3c-0.2,4.5-0.2,8.9,0.3,13
	c2,7.2,2.7,13.6,3.7,20.9c0.3,9.9-5.7,4.3-5.4-0.6c1.4-6.4,1-16.4-0.2-18.9c-1-2.5-2.1-3.2-4.5-2.8c-1.9-0.1-6.7,5.2-8.1,13.9
	c0,0-1.1,4.5-1.6,8.5c-0.7,4.5-3.7,7.7-5.8-0.6c-1.8-6.1-2.9-21-5.9-17.5c-0.9,11.7-1.9,32.2,8,34.3c12,1.2,5.4-20.3,9.7-24.2
	c0.8-1.9,2.3-2,2.5,0.5v18.2c-0.1,5.9,3.8,7.7,6.8,8.9c3.1-0.2,5.2-0.2,6.5,2.9c0.5,10.5,1,21,1.5,31.5c0,0,7.3,2.1,7.6-17.7
	c0.3-11.6-2.3-21.4-0.8-23.7c0.1-2.2,2.9-2.3,4.9-1.2c3.1,2.2,4.5,4.9,9.4,3.8c7.4-2,11.9-5.6,12-11.3c-0.4-5.4-1.1-10.8-3.4-16.2
	c0.3-1-1.4-3.5-1.1-4.5c1.3,2.1,3.4,1.9,3.8,0c-1.3-4.2-3.2-8.1-6.4-9.9c-2.6-2.3-6.5-1.8-7.9,3c-0.7,5.6,2,12.1,6.1,17.5
	c0.9,2.1,2.1,5.6,1.5,8.8c-2.2,1.2-4.3,0.7-6.1-1.2c0,0-5.9-4.4-5.9-5.4c1.6-10,0.3-11.2-0.5-14c-0.6-3.8-2.4-5.1-3.9-7.7
	c-1.5-1.6-3.5-1.6-4.4,0c-2.6,4.5-1.4,14.2,0.5,18.6c1.4,4,3.5,6.5,2.5,6.5c-0.8,2.3-2.5,1.7-3.7-0.9c-1.7-5.4-2.1-13.4-2.1-17.1
	c-0.5-4.5-1.1-14.1-4.1-16.5C221.2,123.7,220.3,123.3,219.4,123.4L219.4,123.4z M261.5,123.5c-0.6,0.1-1.3,0.4-2,0.6
	c-2.6,0.8-4.9,3-4.2,7.3c3,18.3,5,32.3,8,50.7c0.5,2.1-1.3,5-3.7,4.7c-3.9-2.7-4.9-8.1-11.7-7.8c-4.9,0.1-10.4,5.4-11.1,10.5
	c-0.8,4.1-1.1,8.5,0,12c3.4,4.1,7.5,3.7,11.1,2.8c3-1.2,5.4-4.1,6.4-3.4c0,0,0,0,0,0c0,0,0,0,0,0c0.6,1.1-0.1,10.7-13.9,18
	c-8.5,3.8-15.3,4.7-19-2.2c-2.3-4.4,0.2-20.9-5.4-17.1c-16.5,42.5,38.6,48.4,44.8,1.8c0.4-1.3,1.6-2.6,2.5-2.3
	c0.4,0.2,0.7,0.7,0.8,1.6c-1.3,42.2-42.6,45.1-49.6,31.8c-1.7-3.1-2.3-10.1-2.4-14.3c-0.3-2.5-1-4-1.7-4.6c-1.7-1.3-3.9,2-4.4,7.7
	c-0.7,4.6-0.5,5.8-0.5,10.2c2.2,33.4,55.4,19,64-8.5c4.3-14.2-0.1-25,1.3-26.3c0,0,0,0,0.1,0c0,0,0,0,0.1,0c0,0,0,0,0.1,0
	c0,0,0.1,0,0.2,0c5.3,5.7,12.7,0.7,14.3-1.2c0.7-1,2.4-1.6,3.7-0.3c4.1,3,11.3,1.6,12.8-3.7c0.9-5.1,1.6-10.4,1.8-15.8
	c-2.7,0.8-4.8,1.5-5.7,2.4c-0.2,0.2-0.4,0.5-0.4,0.8c-0.2,1.5-0.5,3-0.7,4.5c0,0.1-0.1,0.2-0.1,0.3c-0.1,0.2-0.3,0.4-0.5,0.5
	c-0.9,0.5-2.6,0.2-2.7-1.2c-1.3-5.8-6.5-6.6-9.7,2.4c-2.1,1.7-6.1,2.1-6.5-0.5c0.5-6-1.9-6.8-6.8-4c-1.6-12-3.1-23.4-4.7-35.3
	c2-0.1,3.9,1.4,5.8-0.9c-2-6.2-6.3-19-8.7-20.2c0,0,0,0-0.1,0c-0.1-0.1-0.2-0.3-0.3-0.3c0,0-0.1-0.1-0.2-0.1c0,0-0.1-0.1-0.2-0.1
	c-0.1-0.1-0.2-0.1-0.3-0.1C262,123.5,261.8,123.5,261.5,123.5L261.5,123.5z M425.9,123.6c-2.1-0.1-4.4,1.3-3.5,3.9
	c-0.5,1.4,4.5,6.3,5.3,9c1.5,4.1-1.1,8,0.4,8.6c1.4,0.6,3.4-4.2,4.1-8.8c0.8-3.6-1.8-11.1-5.4-12.7
	C426.5,123.6,426.2,123.6,425.9,123.6L425.9,123.6z M297.8,128.1c1-0.1,2.1,0.8,2.7,2c0.6,1.3,0.3,2.6-0.7,2.8c-1,0.2-2.3-0.6-2.9-2
	c-0.6-1.3-0.3-2.6,0.7-2.9C297.7,128.1,297.8,128.1,297.8,128.1z M535.3,134.3c-1.9-0.1-4,1.4-3.2,4.2c-0.5,1.6,4.1,6.9,4.8,9.8
	c0.7,2.1-1,8.7,0.4,9.3c1.3,0.7,3.1-4.6,3.8-9.5c0.4-2.7-1.6-12-5-13.7C535.9,134.3,535.6,134.3,535.3,134.3L535.3,134.3z
	 M404,137.5c0.2,0.8,0.4,1.6,0.5,2.4c0.4,1.7,0.7,3.5,1.1,5.2c-1.5-2.1-2.8-3.8-3.3-4.4C398.9,136.6,402.4,138,404,137.5L404,137.5z
	 M434.3,152.4c-0.7,0.1-1.5,0.8-1.7,1.8c-0.2,0.7,0.3,1.7-0.3,2.1c-0.3,0.3-1.7,0.1-1.6-1.7c0-0.6-0.4-1.2-0.7-1.6
	c-0.3-0.2-0.4-0.2-0.9-0.2c-0.6,0-0.6,0.2-0.9,0.7c-0.1,0.5-0.3,1-0.3,1.5c-0.1,0.7-0.3,0.9-0.8,1c-0.5,0-0.4,0.1-0.9-0.2
	c-0.3-0.3-0.6-0.4-0.6-0.9c0-0.5-0.1-1.3-0.3-1.6c-0.2-0.3-0.6-0.4-1-0.5c-2.2,0-2.4,2.6-2.2,3.5c-0.2,0.2-0.3,4.8,2.8,6.1
	c4.1,2,11.9,1.1,11.5-5.5c0-0.6-0.2-2.6-0.2-3.1C435.8,152.6,435,152.3,434.3,152.4L434.3,152.4z M296.2,153.8
	c-0.5-0.1-1.2,0.1-1.9,0.6c-3.6,2-5,7.8-2.8,11.2c2.1,3,5.5,1.9,5.9,1.9c3.6,0.4,5.7-6.7,5.7-6.7s0.1-2-4.1,1.8
	c-1.8,0.3-2-0.3-2.5-1.3c-0.4-1.9-0.3-3.7,0.6-5.6C297.4,154.6,297,153.8,296.2,153.8L296.2,153.8z M491.4,154.7
	c-2-0.1-4.2,1.2-4.7,4c0,1.6,0.7,2.5,0.6,4c-0.2,0.8-1.1,1.4-3.2,0.4c0.3-0.3-1.3-2.7-1.3-2.7c-1.6-1-3.8,0.1-5.2,1
	c-0.8,1.4-1.3,3.8-0.5,6.3c2.3,4.3,10.3,11.6,14.1,11.7c0.1-3.9,0.4-9,0.7-12.2c0.1-1.2,0.4-2.5,1.5-2.8c1.2-0.3,3.2,1.2,3.2-0.1
	c-0.2-2.5-0.7-6.1-2.1-7.8C493.8,155.3,492.6,154.7,491.4,154.7L491.4,154.7z M329.8,168.1c-0.1,0-0.1,0.1-0.2,0.1
	c0,0-0.1,0-0.1,0.1c-0.4,0.3-0.9,1-1.9,1.8c-1.8,2-2.1,3.5-2,7.5c0.1,0.4,3.4,9.6,6.2,16c1.9,6.7,3.6,14.4,2.3,21.6
	c-4.4,9.6-13.3,18.1-21.8,22.8c-4.4,1.4-8.1,0.9-9.1,0c0,0,0,0,0,0c-2.5-1.7-2.6-4.7-2.4-5.2c0,0,0,0,0,0c0,0,0,0,0,0
	c7.2-5,15.5-9.1,21.9-22.7c1.9-5.2,2.5-8.3,0.6-16.3c-0.7-3-1.6-5.4-3.7-7.6c0,0,0,0,0,0c1.2-0.6,4.4,1.8,4.9,0.3
	c-0.8-3.8-3.3-9-6.3-11.6c-2.6-2.3-5.4-2.6-7.7-0.5c-2.6,1.5-3.2,6.8-1.9,11.4c1.4,3.5,5.2,4.1,8,11.1c0,0,0,0,0,0
	c0.1,0.4,0.9,5.2-0.4,7.2c-1.1,3.5-15.4,14.8-16.4,15.4c0,0-0.1,0.1-0.1,0.1c0,0,0,0,0,0c0,0,0,0,0,0c0,0,0,0,0,0c0,0,0,0,0,0
	c0,0,0,0,0,0c0,0,0,0,0,0c0,0,0,0,0,0c0,0,0-0.1,0-0.1c0-0.3,0-1,0-2.2c-0.1-2.1,0.8-6.9,0.7-7.7c0,0,0,0,0,0c0,0,0,0,0,0
	c0,0,0,0,0,0c0,0,0,0,0,0c-4.7,3.1-6.3,12.4-7.2,15.2c-12,8.3-25.6,14.4-33.4,22.8c-4.1,6.4,28.1-7.3,31.8-9c0,0,0.1,0.1,0.1,0.1
	c0.7,0.8,0.8,3.5,2.9,6c3.3,4.5,10.5,7.3,17.4,5.6c11.6-4.2,18.3-12.1,25.1-20.9c1-1.4,2.5-2.5,3.9-1.4
	c4.7,10.5,18.2,17.9,35.6,18.7c4-4.9,2.1-7.3,0.5-8.3c-0.5-0.3-8.7-3.5-9.9-6.7c-0.8-2.9,1.1-5.6,5-7.5c11.2-1.4,22.2-2.9,32.8-6.3
	c0.1-3.6,2.2-8.9,3.6-11.2c1-1.6,1.6-1.8,1.8-2c0,0,0,0,0,0c0,0,0,0,0,0c0,0,0,0,0,0c0,0,0-0.1,0-0.1c0-0.1,0-0.2,0-0.3l-1.8-1.1
	l-35.7-0.2c-0.4-0.2-0.8-0.3-1-0.5c0,0,0,0-0.1-0.1c0,0,0,0,0,0c0,0,0,0,0,0c0,0,0-0.1,0-0.1c0,0,0,0,0,0c0,0,0,0,0,0c0,0,0,0,0,0
	c0,0,0,0,0,0c0,0,0,0,0,0c0,0,0,0,0,0c0,0,0,0,0,0c0,0,0,0,0,0c0,0,0,0,0,0c0,0,0,0,0,0c0,0,0,0,0,0c0,0,0,0,0,0c0,0,0,0,0-0.1
	c0.2-0.2,0.6-0.5,1.1-0.7c8.5-1.2,23.7-3.6,24.7-18.2c-0.2-7.6-3.2-12.6-12.6-13.9c-6.8,0.5-11.7,7.1-10.9,14.4
	c-0.3,2,0.7,5.8-1.3,6.2c-13.1,1.2-27.5,9.4-27.9,15.3c0,0,0,0,0,0c0,0,0,0,0,0c0,0,0,0-0.1,0c0,0-0.1,0-0.1,0c0,0-0.1,0-0.1,0
	c0,0,0,0,0,0c0,0-0.1,0-0.1,0c0,0,0,0,0,0c0,0-0.1,0-0.1,0c0,0-0.1,0-0.1,0c-0.9-0.2-2-1.6-1.8-3.6c-0.5-10.2-3.8-21.7-9-30.6
	c-1.9-1.9-2.7-2.6-3.2-2.7c0,0,0,0-0.1,0C330,168.1,329.9,168.1,329.8,168.1C329.9,168.1,329.9,168.1,329.8,168.1
	C329.9,168.1,329.8,168.1,329.8,168.1C329.8,168.1,329.8,168.1,329.8,168.1L329.8,168.1z M364,173.5c-0.7,0.1-1.5,0.7-1.7,1.8
	c-0.2,0.7,0.3,1.8-0.3,2.1c-0.3,0.3-1.7,0.1-1.6-1.7c0-0.6-0.4-1.2-0.7-1.6c-0.3-0.2-0.4-0.2-0.9-0.2c-0.6,0-0.6,0.2-0.9,0.7
	c-0.1,0.5-0.3,1-0.3,1.5c-0.1,0.7-0.3,0.9-0.8,1c-0.5,0-0.4,0.1-0.8-0.2c-0.3-0.3-0.6-0.4-0.6-0.9c0-0.5-0.1-1.3-0.2-1.6
	c-0.2-0.3-0.6-0.4-1-0.5c-2.2,0-2.4,2.6-2.2,3.5c-0.2,0.2-0.3,4.8,2.8,6.1c4.1,2,13.9,0.8,11.5-5.5c0-0.6-0.2-2.6-0.2-3.1
	C365.5,173.7,364.7,173.4,364,173.5L364,173.5z M502,179.2c-0.1,0-0.2,0-0.3,0c0,0-19.1,13.6-19.5,14c-1.9,1.7-0.9,7.6,0,6.9
	c1.4,0.5,20.6-12.5,20.2-14C503.1,186.2,503.5,179.4,502,179.2L502,179.2z M382,181.2c0.8-0.1,1.8,0.2,2.8,0.8
	c1.4,0.8,2.3,2.1,2.2,3c0,0,0,0.1,0,0.1c0,0-0.1,0.1-0.1,0.1c0,0,0,0.1,0,0.1c0,0,0,0,0,0.1c0,0,0,0,0,0.1c0,0.1-0.1,0.2-0.2,0.2
	c-0.7,0.6-2.3,0.5-3.8-0.3c-1.4-0.8-2.3-2.1-2.2-3c0,0,0-0.1,0-0.1c0-0.1,0.1-0.2,0.1-0.3c0,0,0-0.1,0.1-0.1c0,0,0,0,0,0
	c0,0,0.1-0.1,0.2-0.2C381.3,181.3,381.6,181.2,382,181.2L382,181.2z M215.1,184.6c-9.9,0.2-24.3,12.9-24.7,20
	c10.4-5,20.7-9.8,31.2-15C219.9,187.1,221.5,184.8,215.1,184.6L215.1,184.6z M247.1,189c1,0,2,0.5,2.5,1.8c0.5,1.2,0,2.5-0.6,3.2
	c0,0,0,0,0,0c0,0,0,0,0,0.1c-0.4,0.5-1.9,0.3-2.9,0.3c-1.3-0.1-1.9-0.3-2.6-1.3c-0.4-1.1,0.7-2.2,1.2-3.1c0,0,0,0,0,0
	c0.1-0.1,0.1-0.2,0.2-0.2c0.4-0.3,1-0.7,1.7-0.8C246.8,189.1,246.9,189,247.1,189L247.1,189z M498.2,193c-1.8,0.2-3.4,1.9-2.7,4.5
	c-0.5,1.6,2.4,7,3.1,9.9c0.7,2.1-0.9,7.9,0.5,8.5c1.3,0.7,4.7-3.5,4.5-8.7c0.4-2.7-1-12.5-4.3-14.2C499.1,193,498.6,192.9,498.2,193
	L498.2,193z M284.9,202.6c-1.6,0.1-2.9,0.9-2.3,3.1c-0.1,1.6,4.4,3.5,4.7,7.2c0.6,1.5-1,6.4,0.4,6.8c1.2,0.5,2.9-3.4,3.6-6.9
	c0.4-2-1.5-8.8-4.8-10.1C286,202.6,285.5,202.6,284.9,202.6L284.9,202.6z M348.8,211.3c0.1,0,0.2,0,0.3,0c0,0,0,0,0.1,0
	c4,1.1,9.8,1.2,14.9,1.7c4.1,0.3,6.2,3.5,2.3,4.9c-3.8,1.3-7.5,2.3-7.5,7.9c0.5,2.7,0.4,4.2,0,4.8c0,0-0.1,0.1-0.1,0.2c0,0,0,0,0,0
	c0,0,0,0,0,0c0,0,0,0,0,0l0,0c0,0-0.1,0-0.1,0c-0.1,0-0.1,0.1-0.2,0.1c-0.1,0-0.1,0-0.2,0c-0.9,0.1-2.2-0.7-3.2-1.2
	c-2.4-1.7-9-5.8-9.9-14.6C344.9,213.2,346.4,211.5,348.8,211.3L348.8,211.3z M192.8,218.1c-0.2,0-0.7,0.8-1.4,1.6
	c-5.9,9.4-6.4,23.3-3.2,27.5c1.7,2,4.6,2.8,6.7,2.2c3.7-1.6,5.3-9.1,4.4-11.8c-1.2-1.9-2.2-2.2-3.4-0.6c-2.6,5.3-3.7,1.7-3.9-1.3
	c-0.4-5.6,0.1-10.7,0.8-14.8C193.1,218.8,193.1,218.1,192.8,218.1L192.8,218.1z M393,230.4c-0.4,0-0.9,0-1.4,0.3
	c-0.1,0-4.2,2.8-5.5,4.7c-0.8,0.6-0.7,1.1-0.5,2.2c0.6,1.4,1.7,1,3,0.3c1.7-0.2,2.5,0.9,2.3,2.9c-0.8,2.5,0.3,3.4,0.3,3.6
	c0,0.2,1.6,1.5,3.5,0.4c4-1.5,6.5-3,12.1-4.2c1.5,0,1.4-4-0.9-4.1c-3,0.2-5.8,0.3-8.8,2.7c-1.9,0.4-2.2-0.7-2.6-1.7
	c-0.5-2.5,1.1-4.3,0.8-6.2C395.3,231.4,394.3,230.5,393,230.4L393,230.4z M521.2,235.2c-0.7,0-1.5,0.1-2.7,0.2
	c-1.2,0.3-1.7,0.8-1.9,2.3c0.1,2.3,1.5,2.1,2.9,3c0.8,1,1.3,2-0.1,3.7c-1.3,1.2-2.3,1.9-3.6,3.1c-0.6,1.1-1,2.7,0.9,3.2
	c3.6,1,11.8-4.4,11.8-4.5c1.3-1,0.9-2.9,0.8-2.9c-0.8-0.9-2.5-0.4-3.7-0.5c-0.6,0-2.4-0.3-1.5-1.9c0.7-1,1-1.6,1.5-2.9
	c0.6-1.2,0.1-2.1-1.9-2.7C522.6,235.2,521.9,235.2,521.2,235.2L521.2,235.2z M467.6,343.6C467.6,343.6,467.6,343.6,467.6,343.6
	c-6,1.6-5.8,7.7-2,10.4c-62.6,0-158.6-1.1-179.2-1.1c-11.5,0-48-1.4-48.7-1.4c7.8,11.4,19.1,13.8,34,14c27.8,0,156.6-0.3,193.3-0.3
	c-2.6,4.6,0.2,12.1,2.3,13.4c0,0,0.1,0.1,0.2,0.1c0.1,0,0.2,0.1,0.2,0.1c0,0,0.1,0,0.1,0c2.4,0.6,3.5-1.2,4.3-2.5
	c3.9,0.3,26.1,0.7,28.1,0c0,0,0,0,0,0c1.4,2,2.7,3.9,5.3,3.6c4.6-1,8.2-1.5,8.3-10.8c0,0-0.5-15.8-10.8-14.8
	c-2.5,0.4-9.3,1.1-9.3,1.1c-8-0.9-13.8-1-22.8-1.4c0.8-1.1,2.3-5.3,0.5-6.8c-0.5-0.4-1.2-0.6-2.1-0.5c0,0,0,0,0,0c0,0,0,0-0.1,0
	c0,0,0,0,0,0c0,0-0.1,0-0.1,0c0,0-0.1-0.1-0.2-0.2c0,0-0.1,0-0.1-0.1c-0.5-0.7-0.7-2.3-1-2.7c0,0,0,0,0,0c0,0,0,0,0,0
	C467.7,343.6,467.7,343.6,467.6,343.6C467.7,343.6,467.7,343.6,467.6,343.6C467.6,343.6,467.6,343.6,467.6,343.6L467.6,343.6z
	 M471.9,366.2C471.9,366.2,471.9,366.2,471.9,366.2c9.2,0.4,17.7,0.1,26.9,0.5c1.4,1.2,0.7,4-0.2,4.6c0,0-0.1,0.1-0.2,0.1
	c0,0-0.1,0-0.1,0c0,0-0.1,0-0.1,0c-3-0.1-4.7-0.1-7.7-0.2c0-0.1,0-0.3-0.1-0.4c-0.7-2.1-5.8-1.9-7-0.3c0,0,0,0.1-0.1,0.1
	c0,0,0,0.1-0.1,0.1c0,0,0,0.1-0.1,0.2c0,0.1,0,0.2,0,0.2c0,0.1,0,0.2,0,0.2c-4,0.5-7.6-0.1-11.6-0.3
	C470.3,369.5,470.5,366.8,471.9,366.2L471.9,366.2z"/>
</svg>
