<?xml version="1.0" encoding="utf-8"?>
<!-- Generator: Adobe Illustrator 21.0.0, SVG Export Plug-In . SVG Version: 6.00 Build 0)  -->
<svg version="1.1" id="Layer_1" xmlns="http://www.w3.org/2000/svg" xmlns:xlink="http://www.w3.org/1999/xlink" x="0px" y="0px"
	 viewBox="0 0 840 420" style="enable-background:new 0 0 840 420;" xml:space="preserve">
<style type="text/css">
	.st0{fill:#006400;}
	.st1{fill:#FFD200;}
	.st2{fill:#D40000;}
	.st3{stroke:#000000;stroke-width:20;}
	.st4{fill:#FFFFFF;}
	.st5{fill:#FFCC00;}
</style>
<rect class="st0" width="840" height="420"/>
<rect y="60" class="st1" width="840" height="300"/>
<rect y="120" class="st2" width="840" height="180"/>
<rect y="180" width="840" height="60"/>
<path class="st3" d="M0,0v420l280-210L0,0z"/>
<path class="st4" d="M0,0v420l280-210L0,0z"/>
<path class="st2" d="M106.5,104.4L162,275.1L16.8,169.6h179.5L51.1,275.1L106.5,104.4z"/>
<path class="st5" d="M82.8,253.7l9.8-1.8l18.2-0.7l6.7,0.6l15,2.5l1.2-1.5V242l1.7-9.3l3.1-9.4l3.2-7.5l4.2-7.8l6.9,1.7h1.8l0.2-1.3
	l-14.3-12.3l-15.1-11.5l-21.7-16.2l-2-0.5l-2.4-16.9l-1.7-5.2l-2.2-2l-4.4-1.4l-4.8,0.2l-2.1,1.2l-4.6,1.1l-2.4,0.4l-1.6,1.9
	l-0.2,2.4l6.7,0.2l1.7,0.7l-0.2,0.7l-3.8,0.5l-1.8,0.5l2.1,1.6l2.1,0.8l2.9,1.1l0.5,1.9l0.3,25.9l-1.5,4l-0.5,7.5l2.2,9l-5.6,6.3
	l-3.1,5.7l-0.5,3.6l-1.7,3.5l-0.3,2.2l1.2,2.3l4.3,14.3l2.2,11.7L82.8,253.7z"/>
<path d="M88,141.9c-1.7,0-2.5,0.3-4.2,1.2c-1.5,0.8-3.4,1.4-4.6,1.4c-2.5,0-4.6,1.8-4.6,4.1v1.5l3.7-0.1c10.5,0.4,0.9,1.3,0.2,1.5
	c-2.6,0.5,0.6,2.6,3.7,3.6c3.3,1.1,3.2,0.5,3.2,15c0,11.9-0.1,13.6-1,16.4c-1.3,4-1.3,10,0,14c0.5,1.6,1,3.1,1,3.3
	c0,0.2-1.6,2.2-3.5,4.3c-3.5,3.9-5.6,8.1-5.6,11c0,0.7-0.5,1.8-1,2.5c-1.3,1.7-1.3,4.6-0.1,5.7c1.3,1.2,6.6,21.8,6.7,25.7
	c0,1.4,0.3,1.4,8.4-0.2c6.6-1.3,22.1-1.6,29.9-0.5c3.6,0.5,7.8,1.2,9.4,1.6c4.8,1.2,4.6,1.5,4.6-4.3c0-9,1.7-17.6,5.1-26.7
	c1.6-4.2,5.7-12.6,6.8-13.9c0.1-0.1,1.9,0.2,3.9,0.7c4.2,1.1,5.4,0.9,5.4-0.9c0-1-4.3-4.6-25.3-21.1c-14.2-11.1-25.8-19.8-26.4-19.8
	c-0.6,0-1.1-0.3-1.3-0.7c-0.1-0.4-0.8-4.7-1.5-9.5c-0.7-4.9-1.7-9.7-2.1-10.7c-1.3-2.9-4.1-4.5-8.5-4.8
	C89.2,141.9,88.5,141.9,88,141.9z M88.1,143c0.6,0,1.2,0,1.9,0.1c6.6,0.3,7.9,2.2,9.6,14c0.7,4.6,1.2,8.8,1.2,9.4
	c0,0.8-0.9,1.7-3.2,3.3c-3.4,2.3-7.9,6.5-10,9.5l-1.3,1.8l-0.2-4.1c-0.1-2.3-0.1-7.6,0-11.8c0.3-8.7,0.1-9.6-2.8-10.5
	c-2.3-0.8-5.4-1.6-4.5-2.2c1-0.6,1.9-0.2,4.4-0.8c0.9-0.2,0.8-0.2,0.7-0.9c-0.3-1.4-1.6-2-5.3-1.8c-3,0.2-3.3,0.1-3.1-0.7
	c0.4-1.6,2.1-2.7,4.6-2.9c1.3-0.1,3.3-0.7,4.3-1.3C85.5,143.3,86.5,143,88.1,143z M103,168.8c0.1,0,0.3,0,0.4,0
	c1.7,0.3,50.8,38.6,50.8,39.7c0,0.4-0.4,0.8-0.9,0.8c-0.5,0-13-3.5-27.8-7.9c-23.6-6.9-27-8-28-9.2c-1.4-1.7-1.5-4.4-0.1-6.2
	c0.6-0.7,1-1.6,1-2c0-1.2-2.5,1.8-3,3.5c-0.6,2,0.5,5.4,2,6.5c0.6,0.4,5.1,2,10,3.4c8.4,2.5,8.9,2.7,9.4,4.1
	c1.1,3.3-2.4,7.2-7.5,8.3c-1.6,0.4-3.7,1.3-5.2,2.4c-5.7,4.3-9.7,6.9-13,8.3c-2,0.8-3.9,1.8-4.2,2.1c-0.3,0.3-0.8,1.9-1.1,3.4
	c-0.6,3.3-0.8,3.8-1.8,3.8c-0.6,0-0.6-0.3-0.2-1.4c0.7-1.9,0.6-4.4-0.1-4.4c-0.4,0-0.7,0.7-0.7,1.9c0,1-0.3,2.1-0.7,2.5
	c-0.6,0.5-0.6,0.1-0.4-2.4c0.2-1.7,0.1-3-0.1-3c-0.5,0-1.3,2.5-1.7,4.7c-0.2,1.3-0.2,1.3-0.6-0.2c-0.3-1.2-0.2-2,0.7-3.5
	c0.6-1.1,1.1-2.7,1.1-3.5c0-1.3,1-2.5,5.6-7.3c3.1-3.1,6.7-7,8-8.7c2.3-2.8,2.4-3.1,2.3-5.9c0-1.6-0.2-3.1-0.4-3.3
	c-0.6-0.6-1.4,2.6-1.1,4.3c0.3,1.6,0,2.1-3.3,6c-2,2.3-5.3,5.8-7.4,7.8c-3.9,3.6-5.3,5.6-5.3,7.5c0,0.6-0.4,2-1,3.3
	c-0.5,1.3-0.8,2.5-0.7,2.8c0.2,0.3,0.1,0.3-0.3,0c-0.4-0.4-0.5-1.2-0.1-2.9c0.3-1.3,0.4-2.5,0.2-2.7c-0.5-0.9-1.2,0.3-1.5,2.8
	c-0.2,1.4-0.5,2.5-0.8,2.3c-0.7-0.5-0.5-3.1,0.4-4.4c0.5-0.7,1-2.3,1.3-3.6c0.7-3.7,2.3-6.6,5.8-10.7c1.8-2,3.2-3.7,3.2-3.8
	c0-0.1-0.5-1.6-1-3.3c-1.3-4-1.4-10-0.2-13.6c1.3-3.9,3.9-7.7,8.1-11.7C97.1,171.3,100.9,168.9,103,168.8z M118,201
	c0.5,0,0.9,0.2,1,0.5c0,0,0,0.1,0,0.1c-0.1,0.3-0.5,0.5-1,0.5c-0.4,0-0.7-0.2-0.7-0.5C117.3,201.3,117.6,201.1,118,201z
	 M120.5,201.3C120.5,201.3,120.5,201.3,120.5,201.3c0.5-0.1,0.9,0.2,1,0.5c0,0,0,0.1,0,0.1c0,0.3-0.4,0.6-0.9,0.6
	c-0.5,0-0.9-0.3-0.9-0.6C119.8,201.6,120.1,201.4,120.5,201.3z M123.1,201.8C123.1,201.8,123.2,201.8,123.1,201.8c0.6,0,1,0.2,1,0.5
	c0,0,0,0,0,0c-0.1,0.3-0.5,0.5-1,0.5c-0.4,0-0.7-0.2-0.7-0.5C122.4,202.1,122.7,201.9,123.1,201.8z M125.5,202.3c0,0,0.1,0,0.1,0
	c0.5,0,0.9,0.2,0.9,0.5c0,0,0,0,0,0c0,0.3-0.4,0.6-0.9,0.6s-0.9-0.3-0.9-0.6C124.7,202.6,125,202.4,125.5,202.3z M119.2,202.9
	C119.2,202.9,119.2,202.9,119.2,202.9c0.5-0.1,0.9,0.2,1,0.5c0,0,0,0.1,0,0.1c0,0.3-0.4,0.6-0.9,0.6c-0.5,0-0.9-0.3-0.9-0.6
	C118.4,203.2,118.7,202.9,119.2,202.9z M121.6,203.3c0.5-0.1,0.9,0.2,1,0.5c0,0,0,0.1,0,0.1c0,0.3-0.4,0.6-0.9,0.6s-0.9-0.3-0.9-0.6
	C120.9,203.6,121.2,203.4,121.6,203.3z M126.8,203.5c0.5-0.1,0.9,0.2,1,0.5c0,0,0,0.1,0,0.1c0,0.3-0.4,0.6-0.9,0.6
	c-0.5,0-0.9-0.3-0.9-0.6C126.1,203.8,126.4,203.6,126.8,203.5z M124.1,203.6c0.5-0.1,0.9,0.2,1,0.5c0,0,0,0.1,0,0.1
	c0,0.3-0.4,0.6-0.9,0.6c-0.5,0-0.9-0.3-0.9-0.6C123.4,203.8,123.7,203.6,124.1,203.6z M129.1,204.1c0.1-0.1,3.7,0.8,8,2l7.8,2.2
	l-1.5,2.7c-0.8,1.5-1.9,3.5-2.3,4.4c-0.9,1.9-1.2,1.9-6,0.9c-5.2-1.2-13.5-2.3-21.8-3l-8.1-0.7l3-1.1c1.7-0.6,4.1-1.7,5.3-2.4
	c2-1.1,2.8-1.2,5.8-1c4.5,0.3,7.6-0.5,8.7-2.4C128.6,205,129.1,204.2,129.1,204.1z M120.3,204.7
	C120.3,204.7,120.3,204.7,120.3,204.7c0.5-0.1,0.9,0.2,1,0.5c0,0,0,0.1,0,0.1c0,0.3-0.4,0.6-0.9,0.6s-0.9-0.3-0.9-0.6
	C119.6,205,119.9,204.7,120.3,204.7z M125.9,204.7C125.9,204.7,126,204.7,125.9,204.7c0.5-0.1,0.9,0.2,1,0.5c0,0,0,0.1,0,0.1
	c0,0.3-0.4,0.6-0.9,0.6c-0.5,0-0.9-0.3-0.9-0.6C125.2,205,125.5,204.7,125.9,204.7z M117.8,204.8c0,0,0.1,0,0.1,0
	c0.5,0,0.9,0.2,0.9,0.5c0,0,0,0,0,0c0,0.3-0.4,0.6-0.9,0.6c-0.5,0-0.9-0.3-0.9-0.6C117.1,205.1,117.4,204.8,117.8,204.8z
	 M123.2,204.9c0.5-0.1,0.9,0.2,1,0.5c0,0,0,0.1,0,0.1c0,0.3-0.4,0.6-0.9,0.6c-0.5,0-0.9-0.3-0.9-0.6
	C122.5,205.1,122.8,204.9,123.2,204.9z M116.6,206C116.6,206,116.6,206,116.6,206c0.5,0,0.9,0.2,1,0.5c0,0,0,0.1,0,0.1
	c-0.1,0.3-0.5,0.5-1,0.5c-0.4,0-0.7-0.2-0.7-0.5C115.9,206.3,116.2,206.1,116.6,206z M119.1,206.1
	C119.1,206.1,119.1,206.1,119.1,206.1c0.6,0,1,0.2,1,0.5c0,0,0,0,0,0c-0.1,0.3-0.5,0.5-1,0.5c-0.4,0-0.7-0.2-0.7-0.5
	C118.4,206.4,118.7,206.1,119.1,206.1z M121.7,206.2c0.5-0.1,0.9,0.2,1,0.5c0,0,0,0.1,0,0.1c0,0.3-0.4,0.6-0.9,0.6
	c-0.5,0-0.9-0.3-0.9-0.6C121,206.5,121.3,206.2,121.7,206.2z M124.5,206.2C124.5,206.2,124.5,206.2,124.5,206.2c0.5,0,0.9,0.2,1,0.5
	c0,0,0,0.1,0,0.1c-0.1,0.3-0.5,0.5-1,0.5c-0.4,0-0.7-0.2-0.7-0.5C123.8,206.6,124.1,206.3,124.5,206.2z M104.2,214.3
	c3.4-0.1,15.4,0.8,21.1,1.6c5,0.8,13.8,2.4,14.1,2.6c0.1,0.1-0.7,2.5-1.7,5.3c-1,2.9-1.9,5.5-2,5.9c-0.2,0.5-0.8,0.6-2.5,0.4
	c-8.3-1.3-32.3-1.2-41.6,0.2c-5.2,0.8-6,0.7-5.6-0.4c0.2-0.5,0.6-2.1,1-3.5l0.6-2.6l5.6-2.9c3.1-1.6,6.5-3.6,7.6-4.5
	c1.1-0.9,2.3-1.8,2.6-2C103.4,214.4,103.7,214.3,104.2,214.3z M77.2,228.6c0.2,0,0.9,0.3,1.6,0.8c0.9,0.6,2.1,1.1,2.7,1.1
	c2.6,0,4,3.7,6.3,16.1c0.3,1.7,0.7,3.7,0.8,4.3c0.2,1-0.1,1.2-2.3,1.7c-2.8,0.6-3.5,0.7-3.5,0.3c0-1.1-2.8-13.7-4.1-18.2
	c-0.8-3-1.5-5.7-1.5-6C77.1,228.6,77.1,228.6,77.2,228.6C77.2,228.6,77.2,228.6,77.2,228.6z M105.8,230.4h2.9l-1,1.1
	c-1.7,2-2.5,2.1-3.7,0.8c-0.6-0.7-1.1-1.4-1.1-1.6C103,230.6,104.2,230.4,105.8,230.4z M111.9,230.4h2.7h2.7l-1.2,1.3
	c-1.5,1.6-1.6,1.6-3,0L111.9,230.4z M120.1,230.4h1.3c0.7,0,1.9,0.1,2.8,0.3l1.6,0.3l-1.4,1.3c-0.8,0.7-1.5,1.3-1.6,1.2
	c-0.1,0-0.7-0.7-1.4-1.6L120.1,230.4z M128.6,230.8l1.3,0.3c0.7,0.2,2.2,0.4,3.3,0.4h2l-1.5,1.3c-0.8,0.7-1.6,1.3-1.8,1.3
	c-0.2,0-1-0.7-1.8-1.6L128.6,230.8z M98.4,231c0.1,0,0.2,0,0.3,0c0.1,0.1-0.3,0.8-1,1.6l-1.2,1.4l-1.5-1.2l-1.5-1.2l2.4-0.4
	C97,231,97.9,231,98.4,231z M100.7,231.1c0,0,0.7,0.6,1.6,1.4l1.6,1.5l-3,0.2l-3,0.2l1.4-1.6C100.1,231.9,100.7,231.2,100.7,231.1z
	 M118.8,231.1c0.2,0,0.4,0.1,0.7,0.4c0.4,0.4,1,1.1,1.3,1.7c0.4,0.8,0.3,0.9-0.9,0.9c-0.8,0-1.9-0.2-2.6-0.4l-1.2-0.3l1.3-1.3
	C118,231.4,118.4,231.1,118.8,231.1z M110.4,231.1c0.6-0.1,1,0.3,1.6,1.3c0.7,1.1,0.7,1.2-2,1.1l-2.7,0l1.4-1.3
	C109.4,231.6,109.9,231.2,110.4,231.1z M127.3,231.3l1.2,1.2c1.4,1.3,1.6,2.1,0.6,2c-0.3-0.1-1.6-0.2-2.8-0.3l-2.2-0.2l1.6-1.4
	L127.3,231.3z M92.2,232c0.2,0,1,0.6,1.6,1.3l1.1,1.3l-2.5,0.3c-1.4,0.2-2.9,0.4-3.5,0.5c-0.8,0.2-0.5-0.3,0.9-1.6
	C90.9,232.8,92,232,92.2,232z M88.5,232.1c0.2,0,0.3,0,0.4,0c0.8,0.1,0.8,0.3-0.6,1.7l-1.6,1.5l-0.4-1.3c-0.4-1-0.3-1.3,0.6-1.7
	C87.3,232.2,88,232.1,88.5,232.1z M134.4,233.8c0.2,0,0.3,0.2,0.2,0.6c-0.3,0.8-1.2,1-1.2,0.3c0-0.3,0.3-0.6,0.8-0.8
	C134.2,233.9,134.3,233.8,134.4,233.8z M113.1,235.4c7.7,0,15.5,0.2,17.4,0.4c3.2,0.4,3.4,0.5,3.4,1.7c0,1.4-0.4,1.5-4.6,0.7
	c-1.3-0.2-6.3-0.7-11.2-1.1c-8.5-0.6-19.1-0.3-28.5,0.9c-1.9,0.2-2.4,0.2-2.4-0.5C87.2,236.3,97.4,235.4,113.1,235.4z M102.8,238.3
	h2.7h2.7l-1.2,1.3c-1.5,1.6-1.6,1.6-3,0L102.8,238.3z M109.7,238.3l1.4,1.4c0.8,0.8,1.4,1.5,1.4,1.6s-1.3,0.2-2.9,0.2h-2.9l1.5-1.6
	L109.7,238.3z M111.9,238.3h2.7h2.7l-1.2,1.3c-1.5,1.6-1.6,1.6-3,0L111.9,238.3z M99.1,238.4c0.2,0,0,0.4-0.7,1.4
	c-0.7,0.9-1.3,1.7-1.5,1.7c-0.2,0-0.8-0.6-1.5-1.3l-1.2-1.3H96c1,0,2.2-0.2,2.7-0.4C98.9,238.4,99,238.4,99.1,238.4z M101.1,238.8
	l1.3,1.2c0.7,0.7,1.4,1.2,1.5,1.3s-1.1,0.2-2.6,0.3l-2.8,0.2l1.3-1.5L101.1,238.8z M118.5,238.8l1.5,1.6c1.6,1.7,1.4,1.8-2.2,1.1
	l-1.7-0.3l1.2-1.2L118.5,238.8z M120.5,238.8h2.4c2.6,0,2.9,0.4,1.4,1.8c-1.2,1.1-1.2,1.1-2.6-0.5L120.5,238.8z M89.9,239.4
	c1.2,0,1.1,0.1-0.4,1.6c-1.1,1.1-1.3,1.1-1.6,0.3C87.6,240.2,88.5,239.4,89.9,239.4z M128.7,239.5c0.4,0,1.2,0.1,2.1,0.2l2.2,0.4
	l-1.3,1.2l-1.2,1.2l-1.1-1.4c-0.6-0.8-1-1.5-0.9-1.6C128.5,239.5,128.6,239.5,128.7,239.5z M92.7,240c0.3-0.1,0.6,0.2,1.1,0.7
	c1,0.9,1,1,0.2,1.4c-0.5,0.2-1.6,0.4-2.4,0.4l-1.5,0l1.4-1.4C92.1,240.4,92.4,240.1,92.7,240z M126.8,240.3c0.4,0,0.6,0.3,1.1,1
	l0.9,1.3h-2.1c-1.4,0-2-0.2-1.9-0.6c0.1-0.3,0.6-0.9,1.2-1.3C126.4,240.4,126.6,240.3,126.8,240.3z M133.2,241.6
	c0.1,0,0.1,0.2,0.1,0.5c0,1-0.8,1.6-1.2,1c-0.2-0.3,0.1-0.8,0.5-1.1C132.9,241.7,133.1,241.6,133.2,241.6z M107.3,242.8
	c8.7,0,18.3,0.6,23.9,1.6l1.7,0.3v4.4c0,3.2-0.2,4.4-0.6,4.4c-0.3,0-2.6-0.5-4.9-1c-7.2-1.6-15.2-2.2-24.3-1.9
	c-4.6,0.2-9.4,0.5-10.7,0.8l-2.4,0.4l-0.6-3.7c-0.3-2-0.5-3.7-0.4-3.8c0.1-0.1,2.3-0.5,4.9-0.8C97.2,243,102.1,242.8,107.3,242.8z"
	/>
<path id="path7067" d="M124.8,217.8c-3,0-5.1,2.2-5.1,5.3c0,4.8,5.4,7.1,8.7,3.7C131.6,223.4,129.4,217.8,124.8,217.8z M124.7,219
	c2.2-0.1,4.1,1.6,4.1,4.1c0,2.9-3.3,4.9-5.9,3.6c-2.8-1.4-2.6-6.1,0.3-7.3C123.7,219.1,124.2,219,124.7,219z"/>
<g>
	<path id="path7067_1_" d="M104.7,217.2c-3,0-5.1,2.2-5.1,5.3c0,4.8,5.4,7.1,8.7,3.7C111.5,222.8,109.3,217.2,104.7,217.2z
		 M104.7,218.4c2.2-0.1,4.1,1.6,4.1,4.1c0,2.9-3.3,4.9-5.9,3.6c-2.8-1.4-2.6-6.1,0.3-7.3C103.7,218.5,104.2,218.4,104.7,218.4z"/>
</g>
<path d="M88,145.3c-0.9,0.1-1.6,0.8-1.6,1.8c0,1,0.8,1.8,1.7,1.8c1,0,1.7-0.8,1.7-1.8c0-1-0.8-1.8-1.7-1.8
	C88.1,145.3,88.1,145.3,88,145.3z M88.1,145.9c0.6,0,1.1,0.5,1.1,1.1c0,0.6-0.5,1.1-1.2,1.1s-1.2-0.5-1.2-1.1c0,0,0,0,0,0
	C86.9,146.4,87.4,145.9,88.1,145.9C88.1,145.9,88.1,145.9,88.1,145.9z"/>
</svg>
