<?xml version="1.0" encoding="utf-8"?>
<!-- Generator: Adobe Illustrator 21.0.0, SVG Export Plug-In . SVG Version: 6.00 Build 0)  -->
<svg version="1.1" id="Layer_1" xmlns="http://www.w3.org/2000/svg" xmlns:xlink="http://www.w3.org/1999/xlink" x="0px" y="0px"
	 viewBox="0 0 750 500" style="enable-background:new 0 0 750 500;" xml:space="preserve">
<style type="text/css">
	.st0{fill:#CE1126;}
	.st1{fill:#003F87;}
	.st2{fill:#FFFFFF;}
	.st3{fill:none;stroke:#552300;stroke-width:4.103;}
	.st4{fill:#007F00;}
	.st5{fill:#005800;}
	.st6{fill:#730000;stroke:#000000;stroke-width:0.5087;}
	.st7{fill:#289400;stroke:#003300;stroke-width:0.5087;}
	.st8{fill:none;stroke:#004B00;stroke-width:0.5087;}
	.st9{fill:#9DD7FF;}
	.st10{fill:#FFFFFF;stroke:#000000;stroke-width:0.7123;}
	.st11{fill:#FFD83C;stroke:#000000;stroke-width:0.7123;}
	.st12{fill:none;stroke:#000000;stroke-width:0.5087;}
	.st13{fill:#FF0018;stroke:#000000;stroke-width:0.5087;}
	.st14{fill:#FFFFFF;stroke:#000000;stroke-width:0.5087;}
	.st15{fill:#006AC8;}
	.st16{fill:#5AC800;stroke:#000000;stroke-width:0.6104;}
	.st17{fill:#FFD800;stroke:#000000;stroke-width:0.6104;}
	.st18{fill:#B34B00;stroke:#000000;stroke-width:0.509;}
	.st19{fill:none;stroke:#000000;stroke-width:0.5;}
	.st20{fill:#FFFFFF;stroke:#000000;stroke-width:0.5713;}
	.st21{fill:#CCB8C8;}
	.st22{fill:none;stroke:#000000;stroke-width:0.4;}
	.st23{fill:#782121;stroke:#000000;stroke-width:0.5087;}
	.st24{fill:#7E4B7E;}
	.st25{fill:none;stroke:#7E4B7E;stroke-width:0.9156;}
	.st26{fill:none;stroke:#7E4B7E;stroke-width:0.9156;stroke-linecap:square;}
	.st27{fill:#289400;stroke:#006600;stroke-width:0.5087;}
	.st28{fill:none;stroke:#7E4B7E;stroke-width:0.8139;}
	.st29{fill:#B34B00;stroke:#000000;stroke-width:0.5087;}
	.st30{fill:url(#SVGID_1_);stroke:#000000;stroke-width:0.5087;}
	.st31{fill:url(#SVGID_2_);stroke:#000000;stroke-width:0.5087;}
	.st32{stroke:#000000;stroke-width:0.5087;}
	.st33{fill:#FFFFFF;stroke:#FFFFFF;stroke-width:0.5087;}
	.st34{fill:#FFFFFF;stroke:#000000;stroke-width:0.3052;}
	.st35{stroke:#000000;stroke-width:0.3052;}
	.st36{fill:#9B5F00;stroke:#000000;stroke-width:0.5087;}
	.st37{fill:#FFA54B;stroke:#000000;stroke-width:0.5087;}
	.st38{fill:#FFB366;stroke:#000000;stroke-width:0.5087;}
	.st39{fill:url(#SVGID_3_);stroke:#000000;stroke-width:0.5087;}
	.st40{fill:url(#SVGID_4_);stroke:#000000;stroke-width:0.5087;}
	.st41{fill:#730000;}
	.st42{fill:#5AC800;}
	.st43{fill:none;stroke:#006600;stroke-width:0.5087;}
	.st44{fill:#6699FF;}
	.st45{fill:none;stroke:#000000;stroke-width:0.7122;}
	.st46{fill:none;stroke:#FFFFFF;stroke-width:0.7123;}
	.st47{stroke:#000000;stroke-width:0.7;}
	.st48{fill:none;stroke:#000000;stroke-width:1.0174;}
</style>
<rect class="st0" width="750" height="500"/>
<rect y="35.7" class="st1" width="750" height="428.6"/>
<circle class="st2" cx="375" cy="250" r="196.4"/>
<g id="leaves">
	<circle class="st3" cx="375" cy="249" r="162.8"/>
	<g>
		<path class="st4" d="M356.2,76.2c14.7-15.8,28,2.5,27.7,11c-0.4,8.6-15.2,27.4-28.6,12.2c13.9,3.6,18.1-12,25.1-12.2
			C373.3,87.5,370.4,72.1,356.2,76.2L356.2,76.2z"/>
		<path class="st4" d="M202.9,200.1c-7.7-20.1,14.6-23.9,22.2-19.8c7.6,4.1,18,25.7-1.6,30.9c9.4-10.8-2.8-21.4,0.2-27.7
			C220.7,189.9,205.5,185.6,202.9,200.1L202.9,200.1z"/>
		<path class="st4" d="M533.3,180.2c20.2,7.9,7.8,26.8-0.3,29.6c-8.2,2.8-31.3-4.1-21.9-22.1c1.7,14.2,17.8,12.4,20.5,18.8
			C528.9,200.1,542.4,191.9,533.3,180.2L533.3,180.2z"/>
		<path class="st4" d="M269.6,393.1c-21.6-2.1-14.9-23.7-7.8-28.6c7.1-4.9,31.2-4.5,27.1,15.3c-5.5-13.2-20.5-7.1-24.9-12.6
			C268.3,372.8,257.6,384.4,269.6,393.1L269.6,393.1z"/>
		<path class="st4" d="M487.6,377.5c0.3,21.5-22,17.4-27.7,11c-5.7-6.4-8-30.3,12.3-28.5c-12.6,6.9-4.8,21.1-9.8,26
			C467.4,381.1,480.2,390.3,487.6,377.5L487.6,377.5z"/>
		<path class="st4" d="M218.6,159.2c-2-21.4,20.6-19,26.8-13c6.2,6,10.3,29.6-10,29.3c12-7.9,3.1-21.4,7.7-26.7
			C238.5,154.1,225,145.9,218.6,159.2L218.6,159.2z"/>
		<path class="st4" d="M241.8,360.3c-21.4-3.6-13.3-24.6-5.9-29c7.4-4.4,31.4-2.4,26,17.1c-4.6-13.5-20-8.5-24-14.2
			C241.9,339.9,230.4,350.7,241.8,360.3L241.8,360.3z"/>
		<path class="st4" d="M410.7,77.1c19.4-9.6,25.3,12.2,21.9,20c-3.4,7.9-24,20.3-31.2,1.3c11.7,8.2,21.2-4.8,27.8-2.5
			C422.7,93.7,425.5,78.2,410.7,77.1L410.7,77.1z"/>
		<path class="st4" d="M452,404.5c-9.6,19.3-27.6,5.5-29.7-2.8c-2.1-8.3,6.8-30.6,24-19.8c-14.4,0.5-13.9,16.6-20.6,18.7
			C432.4,398.5,439.6,412.5,452,404.5L452,404.5z"/>
		<path class="st4" d="M546.3,218.4c16.3,14.2-1.7,27.9-10.3,27.8c-8.6-0.1-28-14.3-13.1-28.1c-3.2,13.9,12.6,17.6,12.9,24.6
			C535.5,235.7,550.9,232.4,546.3,218.4L546.3,218.4z"/>
		<path class="st4" d="M272.4,105c4.9-21,25.6-11.7,29.5-4.1c4,7.6,0.5,31.3-18.7,24.7c13.9-3.8,9.7-19.3,15.7-22.9
			C292.9,106.3,282.7,94.4,272.4,105L272.4,105z"/>
		<path class="st4" d="M208.3,284.7c-19-10.4-4.4-27.6,4.1-29.3c8.4-1.7,30.5,8,18.9,24.6c0.1-14.3-16.1-14.5-17.9-21.3
			C215.1,265.5,200.7,272,208.3,284.7L208.3,284.7z"/>
		<path class="st4" d="M482.8,118.5c21.5-3.1,20.2,19.4,14.5,25.8c-5.7,6.4-29.2,11.8-30-8.4c8.6,11.5,21.7,2,27.2,6.2
			C489,137.9,496.5,124.1,482.8,118.5L482.8,118.5z"/>
		<path class="st4" d="M360.7,425.1c-19.8,8.8-24.8-13.2-21.1-20.9c3.7-7.7,24.8-19.3,31.2-0.1c-11.4-8.7-21.4,4-27.9,1.4
			C349.4,408.1,346,423.4,360.7,425.1L360.7,425.1z"/>
		<path class="st4" d="M538.4,305.1c8.9,19.6-13.2,24.7-21,21c-7.8-3.6-19.5-24.6-0.2-30.9c-8.7,11.3,4.1,21.2,1.5,27.7
			C521.3,316.4,536.7,319.7,538.4,305.1L538.4,305.1z"/>
		<path class="st4" d="M199.7,241.9c-12.4-17.6,8.4-26.7,16.7-24.5c8.3,2.2,23.8,20.6,6,30.4c6.5-12.7-8-20.1-6.6-26.9
			C214.3,227.7,198.6,227.2,199.7,241.9L199.7,241.9z"/>
		<path class="st4" d="M316.6,412.1c-20.4,7.4-23.9-14.8-19.6-22.3c4.2-7.5,26.1-17.6,31.1,2c-10.8-9.5-21.6,2.5-27.9-0.5
			C306.5,394.4,302,409.4,316.6,412.1L316.6,412.1z"/>
		<path class="st4" d="M310.8,84.9c12.1-17.9,28.1-1.9,29.1,6.6c1,8.5-10.7,29.4-26.4,16.5c14.3,1.4,16-14.7,22.9-15.9
			C329.4,93.4,324.2,78.6,310.8,84.9L310.8,84.9z"/>
		<path class="st4" d="M519.3,347.6c1.3,21.5-21.2,18.4-27.2,12.2c-6-6.2-9.4-29.9,10.9-29c-12.2,7.5-3.8,21.3-8.5,26.4
			C499.3,352.1,512.5,360.7,519.3,347.6L519.3,347.6z"/>
		<path class="st4" d="M513.7,145.1c21.3,4.3,12.5,25,4.9,29.2c-7.5,4.1-31.5,1.4-25.4-17.9c4.2,13.7,19.7,9.1,23.5,15
			C513,165.4,524.7,155,513.7,145.1L513.7,145.1z"/>
		<path class="st4" d="M244.5,129.9c0.2-21.5,22.4-16.9,27.9-10.3c5.5,6.6,7.3,30.4-12.9,28.2c12.7-6.6,5.3-20.9,10.4-25.8
			C264.8,126.8,252.3,117.3,244.5,129.9L244.5,129.9z"/>
		<path class="st4" d="M217.7,323.9c-19.3-9.7-5.3-27.4,3.1-29.4c8.4-2,30.7,7,19.7,24c-0.4-14.3-16.6-14-18.7-20.6
			C223.9,304.5,209.7,311.5,217.7,323.9L217.7,323.9z"/>
		<path class="st4" d="M450,94.8c20.3-7.6,24,14.6,19.8,22.1c-4.2,7.5-26,17.8-31.1-1.8c10.8,9.4,21.6-2.7,28,0.3
			C460.3,112.4,464.6,97.4,450,94.8L450,94.8z"/>
		<path class="st4" d="M406.9,422.7c-15.8,14.8-27.8-4.3-26.9-12.8c0.9-8.5,17.1-26.4,29.4-10.3c-13.6-4.5-18.9,10.8-25.9,10.5
			C390.6,410.4,392.4,425.9,406.9,422.7L406.9,422.7z"/>
		<path class="st4" d="M545.2,258.1c14.8,15.7-4.5,27.6-13.1,26.6c-8.6-1-26.4-17.1-10.2-29.2c-4.6,13.5,10.7,18.8,10.4,25.8
			C532.6,274.3,548.3,272.5,545.2,258.1L545.2,258.1z"/>
	</g>
	<g>
		<path class="st5" d="M355.2,99.5c13.9,3.6,17.4-11.8,24.5-12C375.6,92.4,364.9,104.9,355.2,99.5z"/>
		<path class="st5" d="M356.2,76.2c14.7-15.8,28,2.5,27.7,11C371.9,66.4,368.2,69.6,356.2,76.2L356.2,76.2z"/>
		<path class="st5" d="M223.5,211.3c9.4-10.8-3-20.7,0-27.1C226.1,190,232.7,205.1,223.5,211.3z"/>
		<path class="st5" d="M202.9,200.1c-7.7-20.1,14.6-23.9,22.2-19.8C201,181.8,202.3,186.5,202.9,200.1L202.9,200.1z"/>
		<path class="st5" d="M511.1,187.8c1.7,14.2,17.4,11.8,20.1,18.3C525.1,204,509.5,198.6,511.1,187.8z"/>
		<path class="st5" d="M533.3,180.2c20.2,7.9,7.8,26.8-0.3,29.6C548.2,191.2,543.8,188.9,533.3,180.2z"/>
		<path class="st5" d="M288.9,379.9c-5.5-13.2-20-6.7-24.4-12.2C270.9,368.1,287.4,369,288.9,379.9z"/>
		<path class="st5" d="M269.6,393.1c-21.6-2.1-14.9-23.7-7.8-28.6C252.2,386.6,257,387.6,269.6,393.1z"/>
		<path class="st5" d="M472.2,360.1c-12.6,6.9-4.4,20.5-9.4,25.4C462.4,379.1,461.4,362.7,472.2,360.1z"/>
		<path class="st5" d="M487.6,377.5c0.3,21.5-22,17.4-27.7,11C483.1,395.4,483.6,390.5,487.6,377.5z"/>
		<path class="st5" d="M235.4,175.5c12-7.9,2.8-20.7,7.4-26C243.7,155.8,245.9,172.1,235.4,175.5z"/>
		<path class="st5" d="M218.6,159.2c-2-21.4,20.6-19,26.8-13C221.8,141.1,221.7,146,218.6,159.2z"/>
		<path class="st5" d="M261.9,348.4c-4.6-13.5-19.5-8-23.5-13.8C244.8,335.3,261.2,337.4,261.9,348.4z"/>
		<path class="st5" d="M241.8,360.3c-21.4-3.6-13.3-24.6-5.9-29C224.9,352.6,229.6,354,241.8,360.3z"/>
		<path class="st5" d="M401.5,98.5c11.7,8.2,20.5-4.9,27.1-2.6C423.1,99.1,408.6,107,401.5,98.5z"/>
		<path class="st5" d="M410.7,77.1c19.4-9.6,25.3,12.2,21.9,20C428.9,73.5,424.3,75.2,410.7,77.1z"/>
		<path class="st5" d="M446.4,381.9c-14.4,0.5-13.3,16.2-20,18.3C428.8,394.4,435.6,379.4,446.4,381.9z"/>
		<path class="st5" d="M452,404.5c-9.6,19.3-27.6,5.5-29.7-2.8C439.8,418.3,442.4,414.2,452,404.5z"/>
		<path class="st5" d="M522.9,218.1c-3.2,13.9,12.4,17,12.7,23.9C530.6,238,517.7,227.8,522.9,218.1z"/>
		<path class="st5" d="M546.3,218.4c16.3,14.2-1.7,27.9-10.3,27.8C556.7,233.7,553.3,230.1,546.3,218.4z"/>
		<path class="st5" d="M283.2,125.7c13.9-3.8,9.2-18.8,15.2-22.4C297.3,109.5,294.3,125.7,283.2,125.7z"/>
		<path class="st5" d="M272.4,105c4.9-21,25.6-11.7,29.5-4.1C281.1,88.8,279.5,93.4,272.4,105z"/>
		<path class="st5" d="M231.2,280c0.1-14.3-15.8-13.9-17.6-20.7C219.4,262.2,234.2,269.5,231.2,280z"/>
		<path class="st5" d="M208.3,284.7c-19-10.4-4.4-27.6,4.1-29.3C194.9,272,198.9,274.8,208.3,284.7z"/>
		<path class="st5" d="M467.3,135.9c8.6,11.5,21,1.7,26.6,6C487.6,143.2,471.3,146.2,467.3,135.9z"/>
		<path class="st5" d="M482.8,118.5c21.5-3.1,20.2,19.4,14.5,25.8C501.3,120.7,496.3,120.8,482.8,118.5z"/>
		<path class="st5" d="M370.8,404.1c-11.4-8.7-20.7,4.1-27.2,1.5C349.3,402.7,364.1,395.4,370.8,404.1z"/>
		<path class="st5" d="M360.7,425.1c-19.8,8.8-24.8-13.2-21.1-20.9C342.4,428,347.1,426.5,360.7,425.1z"/>
		<path class="st5" d="M517.2,295.2c-8.7,11.3,4.2,20.5,1.6,27C515.8,316.5,508.4,301.8,517.2,295.2z"/>
		<path class="st5" d="M538.4,305.1c8.9,19.6-13.2,24.7-21,21C541.4,323.3,539.8,318.6,538.4,305.1z"/>
		<path class="st5" d="M222.3,247.8c6.5-12.7-7.9-19.4-6.6-26.3C219.7,226.6,229.7,239.6,222.3,247.8z"/>
		<path class="st5" d="M199.7,241.9c-12.4-17.6,8.4-26.7,16.7-24.5C193.3,224.6,195.7,228.9,199.7,241.9z"/>
		<path class="st5" d="M328.1,391.8c-10.8-9.5-20.9,2.7-27.3-0.4C306.8,388.9,322,382.6,328.1,391.8z"/>
		<path class="st5" d="M316.6,412.1c-20.4,7.4-23.9-14.8-19.6-22.3C298.1,413.7,302.9,412.6,316.6,412.1z"/>
		<path class="st5" d="M313.5,108c14.3,1.4,15.3-14.4,22.3-15.6C332.5,97.9,323.8,111.9,313.5,108z"/>
		<path class="st5" d="M310.8,84.9c12.1-17.9,28.1-1.9,29.1,6.6C324.7,72.8,321.6,76.5,310.8,84.9z"/>
		<path class="st5" d="M503,330.9c-12.2,7.5-3.5,20.6-8.2,25.8C494.1,350.3,492.4,334,503,330.9z"/>
		<path class="st5" d="M519.3,347.6c1.3,21.5-21.2,18.4-27.2,12.2C515.5,365.7,515.8,360.8,519.3,347.6z"/>
		<path class="st5" d="M493.2,156.4c4.2,13.7,19.2,8.6,23,14.5C509.9,169.9,493.6,167.3,493.2,156.4z"/>
		<path class="st5" d="M513.7,145.1c21.3,4.3,12.5,25,4.9,29.2C530.4,153.3,525.7,151.8,513.7,145.1z"/>
		<path class="st5" d="M259.6,147.8c12.7-6.6,4.9-20.4,10-25.2C269.9,129,270.4,145.4,259.6,147.8z"/>
		<path class="st5" d="M244.5,129.9c0.2-21.5,22.4-16.9,27.9-10.3C249.5,112.2,248.9,117,244.5,129.9z"/>
		<path class="st5" d="M240.4,318.5c-0.4-14.3-16.2-13.4-18.3-20.1C228,301,243.1,307.8,240.4,318.5z"/>
		<path class="st5" d="M217.7,323.9c-19.3-9.7-5.3-27.4,3.1-29.4C203.8,311.6,208,314.3,217.7,323.9z"/>
		<path class="st5" d="M438.7,115.2c10.8,9.4,20.9-2.8,27.3,0.1C460,117.9,444.8,124.3,438.7,115.2z"/>
		<path class="st5" d="M450,94.8c20.3-7.6,24,14.6,19.8,22.1C468.5,93,463.7,94.2,450,94.8z"/>
		<path class="st5" d="M409.5,399.6c-13.6-4.5-18.2,10.6-25.2,10.3C388.7,405.3,400.3,393.5,409.5,399.6z"/>
		<path class="st5" d="M406.9,422.7c-15.8,14.8-27.8-4.3-26.9-12.8C390.6,431.5,394.5,428.5,406.9,422.7z"/>
		<path class="st5" d="M521.9,255.5c-4.6,13.5,10.6,18.1,10.2,25.1C527.5,276.1,515.7,264.6,521.9,255.5L521.9,255.5z"/>
		<path class="st5" d="M545.2,258.1c14.8,15.7-4.5,27.6-13.1,26.6C553.9,274.4,551,270.5,545.2,258.1z"/>
	</g>
</g>
<g id="coa">
	<g id="tree">
		<g>
			<path class="st6" d="M405.3,125.3c0,0,0.6-1.4,1.7-0.6c1,0.8,1.3,4.4,1.3,4.4l-1.6,0.8C406.7,129.9,407.6,128.6,405.3,125.3
				L405.3,125.3z"/>
			<path class="st6" d="M396,157.3c0,0,0.8-1.1-0.3-3.6l1.6-0.5c0,0,0.6,1.9-0.2,4.1L396,157.3"/>
			<path class="st6" d="M424.2,151.7l-3.9,2.3l1.9,0.9l4.7-2.7L424.2,151.7"/>
			<path class="st6" d="M372.4,166.9c-1,0.8-1.1,2.2-1.7,3.1c-0.5,0.8-2,1.9-2.1,3.2c-0.2,1.2-0.3,2,0.2,3.7
				c0.6,1.6,3.2,8.9,2.1,14.3c-1.1,5.5-0.7,7.8-0.3,8.6c0.4,0.8,1.6,3.1,2.3,3.1c1.6-0.2,0.9-0.7,1.5-1.7c1.5-2.6,0-23.1-0.7-28.8
				c-0.5-4.4-2.5-8.3-2.7-8.8c-0.2-0.5-0.6-1.8-0.9-2.6c-1.5-3.7-3.4-6.8-3.4-14.5c0,0-5,1.1-9.3-8.5c-2.2-4.9-5.5-4.4-9.4-6
				l1.7-1.1c0,0,3.3,1.6,4.9,1.6s1.1-3.3,1.1-3.3l1.6-1.6v7.1c0,3.3,4.5,7.7,7.1,9.1c1.6,0.8,3.8-2.5,3.3-5.8c-0.5-3.3,0-7.6,0-7.6
				l2.2,1.3c0,0-0.8,1.4-0.6,2.2c0.3,0.8,1.4-0.8,2.2-1.6c0,0,0.2,0.2,1,0.2c0,0-1.6,2.7-2.4,4.2c-0.8,1.3-0.8,6.5-0.8,8.4
				c0,1.9,0.7,6.4,0.7,7.8c0,1,1.9,5.2,3.5,7.7c0.5,1,1.7,3.7,1.7,3.7c1.2,1.9,1.3,3.3,2,4.9c0.4,0.8,1.1,3.2,1.6,7.2
				c0.2,1,0.4,4.9,0.7,7.4c0.3,2.4,2.3,0.5,4.8-1.2c2.4-1.8,2.4-6.2,2.4-6.2s1.9-1.6,1.6-0.7c-0.2,1,1,2,1,2
				c-1.5,3.5-0.6,3.1,0.9,2.9c1.5-0.2,6.8-4.2,6.8-4.2c0.7-0.2,3.9-0.2,3.4,0c-0.6,0.3-1.4,1.8-1.4,1.8l3.5-0.4
				c-1.2,0.9-5.8,3.6-6.8,4.2c-1.1,0.7-6.6,3.4-9,4.3c-2.3,1-6.9,3.3-7.1,5.6c-0.1,2.3,0.3,8.6,0,10.7c-0.2,2-1,11.1-1,11.1h-10.9
				c0,0,2.1-7.9-0.1-10.1c-2.1-2.2-7.1-8.8-10.4-11c-3.3-2.1,2.1-0.5,2.1-0.5v-2.2l5,6c0,0,8.6-7.6,0-18c-2.7-3.3-5.5-8.2-7.6-8.8
				c-2.2-0.6-3.4-1.1-7.1,0c-3.9,1.1-13.1,1.1-17-5l3.3-0.5l2.7-1.1c0,0-1.1,3.9,6.6,3.9c7.6,0,8.7,0,8.1-7.1l2.2-1.1l1.6,1.6
				c0,0-1.1,3.9-0.5,5.5c0.5,1.6,3.3,2.7,5.4,4.4c0.9,0.7,1.6,0.8,2.2,0.8c0.9-0.1,1.1-0.1,2.3-1.3c1.8-2,1.4-1.9,3.3-3.6
				c0,0,0.9-1.4,1.1-1.6L372.4,166.9L372.4,166.9L372.4,166.9z"/>
			<path class="st6" d="M374,161.5c0.4-0.4,1.2-1.9,1.9-3.3c1.2-2,2.6-3.3,4.3-5.8c1.5-2.3,2.1-5.8,1.5-8.2l1.4,0.8l0.1,3.9
				c0,0,1.9-1.6,2.7-2l0.8,0.4c0,0-6.1,6.3-11.8,16.5L374,161.5L374,161.5L374,161.5z"/>
			<path class="st6" d="M320.5,140.3c0.8,1.4,1.6,4.2,4.1,6.3l1.6-0.5c0,0-3.8-4.4-3.8-6.3L320.5,140.3"/>
			<path class="st6" d="M330.1,137.9c0,0,0.5,5.2-0.8,7.1l1.6-0.8c0,0,1.1-3.6,0.8-5.5L330.1,137.9L330.1,137.9z"/>
			<path class="st6" d="M383.7,121.5c0,0-0.3,7.3,1.1,11.8l1.9-0.6c0,0-0.3-1.3,1.3-1.9c1.6-0.5,5.5-2.1,7.4-3.8l-0.6-1.6
				c0,0-3,2.3-4.4,2.9c-1.3,0.5-2.1,1.1-3.3,0.8c-1.1-0.3-2.4-2.1-1.6-6.3L383.7,121.5"/>
			<path class="st6" d="M405.3,155.7c0,0-0.5,5.2-0.2,7.4l1.7,0.4c0,0-0.4-6.2,0.7-6.7L405.3,155.7"/>
			<path class="st6" d="M413,159.5c0,0-1.9,3.4-4.2,3.7l3.6-0.7c0,0,1-0.5,2.5-2.1L413,159.5"/>
		</g>
		<g>
			<path class="st7" d="M381.9,144.2l1.3,0.8l1.4,0.2c0,0,1.5,1.4,3.3,2.7c1.3,1.1,1.3-0.2,1.3-0.2l0.8,3.3h1.1c0,0-0.3,2.1-0.3,3.3
				l1.9-1.6l2.2,1.9c0,0,1.6-1.4,2.4-1.4c0.8,0,1.1-0.8,1.1-0.8h0.1c-5.4-2.5-7.7-5.2-6.1-7.9c2.6-4.6,7-1.6,8.4-1l19.7,10.6
				c0,0,1.3-0.8,0.4-1.6c-1-0.8-1.4-2.8-1.1-3.7c0.3-0.8,2.5,2.5,3.7,2.8c1.1,0.3,3.7,0.7,3.7,0.7l-0.1-1c0,0,3.3,2.2,3.3,3.4
				c0,0,2.3-1.2,1.5-1.9c-0.8-0.7,3.6,1.7,3.9,3.1l0.9-1c-0.1,0,0.3-3.3,1.4-4.8c1-1.5,2.1-1.9,2.1-1.9s1-1.7,2-1.7
				c0,0-1-0.7-1.4-1.5c-0.5-0.8-1.7-1.2-1.7-1.2s1.5-1.1,1.9-1.6c0.4-0.6,0.8-0.7,0.8-0.7s-2.3-1.9-4-2.2c0,0-0.1-2.6-2.1-2.9h0.9
				c0,0-1.5-2.8-3-2.9c0,0,0.9-1,1.7-1.1c0,0-1.7-2.2-4.1-1.4l1.5-0.6c0,0-1.1-1.2-4.6-0.6c0,0,0.3-1.4-1.2-2.5c0,0-1.3,0.1-1.3,1.1
				c0,0-1.2-1.1-2.7-1.1c-1.5,0,0.5,1.6,0.5,1.6s-2-1.3-3.3-0.9c0,0,0.5-2.3-0.8-3.6c0,0-1.5,0.8-1.9,1.8l-0.4-1c0,0-2,2.4-2.4,1.7
				c-0.3-0.4-0.6-2.1-0.6-2.1l-1.2,1.8l0.2-2.5c0,0-1.4,0.8-2.5,3.5c0,0-1.4,1.3-1.4,2.5c0,0-1.1-1.3-2.1,0c-0.9,1.4,0,1.1,0,1.1
				s-0.4,0.5-1.4,0.7l0.2,0.8c0,0-1.3-0.7-2.3-0.4l0.5,1.2c0,0-2.6,0.2-2.7-1.9c0,0-2.2-1.1-2.5,0.1l-1.6,1c0,0-0.5-1-1.4-1.2
				c-1-0.3-0.2,1.3-0.2,1.3s-0.3-1.2-1.5-1.8c-1.2-0.5-0.2,1.1-0.2,1.1s-1.6-1.3-0.8-2.3c0,0-1.5,1.4-0.8,2.7l-1,0.7
				c0,0-0.5-0.5-0.4-0.9c0.1-0.4-1.7,1.2-1.7,1.2s-1.1-2.6,0-2.6c0.1,0-1.9-0.1-2.2,2.2c0,0-1.3,0.1-2.5,0.5
				c-1.3,0.4,0.9,1.3,0.9,1.3s-1.9-0.4-3.1,0.2l0.7,0.9c0,0-0.7-0.7-2.4-0.1c-1.8,0.5,0.4,0.8,0.4,0.8s-1.8-0.4-2.7,0
				c-0.9,0.4,0.3,1.1,0.3,1.1s-3.4-1-3.9-0.7c-0.5,0.3,1.1,1.9,1.1,1.9s-2,0.5-2.4,2l1.8,0.7c0,0-0.8,0.4-1.2,1.2
				c-0.4,0.8,1.2,0.4,1.2,0.4s-2.2,1.6-2.2,2.8c0,0,1.6,0.5,2.8-0.7s0.4-0.8,0.4-0.8l0.1,0.8c0,0,2.3-1,2.3-1.6
				c0-0.5-0.4,0.8-0.4,0.8l2.3-1.2L381.9,144.2L381.9,144.2L381.9,144.2L381.9,144.2z"/>
			<path class="st7" d="M379.9,112.4l-0.5-2.2l5.2,0.6l0.9-2.1c0,0,2.4,1.1,3.3,1.9c0,0,4.8-1.2,6.2-0.7l-0.6,2.2
				c0,0,4.4,0.3,5.8,0.8c1.3,0.5-0.6,1.6-0.6,1.6s5,0.6,7.1,1.9c2.2,1.3,2.2,2.4,1.1,2.7l2.7,4.4c0,0-4.4,0.5-5.2,1.6
				c-0.8,1.1-1.6-1.1-1.6-1.1l-0.8,3.1c0,0-2.7-1.4-3.9-2.4c0,0-1.3,1.6-0.5,2.4l-5-3.3c0,0-2.1-0.3-2.1,1.6c0,0-2.4-2.7-3.1-3.6
				l-2.7,0.8c0,0-0.8-1.1-1.8-1.4c-1.1-0.2-0.3,1.4-0.3,1.4l-1.6-1.9l-1.6-1.9c0,0-1.4,1.9-2.5,1.9c-1,0-1-1.3-0.8-2.2
				c0.3-0.8-3.3-1-3.6,0c0,0-1-4.1,2.7-5.2C379.9,112.4,379.9,112.4,379.9,112.4L379.9,112.4L379.9,112.4z"/>
			<path class="st7" d="M360.2,126.4l-1.7,1.6l-1-0.5l-2,2.2l-0.4-1.2l-1.1,1.8l-1.7-0.6l-0.8,1.3l-1.5-0.3c0,0-1.3,1.2-2.1,1.5
				c-0.8,0.2,0-1.8,0-1.8s-1.2,2-2.1,2c-0.8,0-0.5-0.9-0.5-0.9s-0.5,1.3-1.5,1.5c-0.9,0.1-0.5-1-0.5-1l-1.6,1.2v-1l-0.7-0.3
				c0,0,0.4-1.8,1.1-2.2c0.7-0.4-0.7-1.6-0.7-1.6l0.7-0.8c0,0-2-0.5-2-0.1c0,0,1-2.7,2.4-3.3l0.1-3.1c0,0,1.4-1.2,2.7-1.3
				c1.4-0.2-0.4-2.3-0.4-2.3l3.3-1.9l0.4-2.3l5,0.4l1-2.1l4,1l3.4-1.7l2.4,2.8l3.7,0.3c0,0-0.1,2.5-0.1,3.3c0,0,4.4,1.3,4.9,1.7
				c0,0-0.8,2.6-0.8,3.2c0,0,3.1-0.8,4-0.6c0,0,0.3,2.8,0.4,3.6c0,0,5.2,1.6,5.5,2.5c0,0-1.1,0.7-1.7,1.6c0,0,0.6,3.2,0.6,4.2
				l-0.4,0.6c0,0-1.5-1.4-2.7-1.6l-1,2.2l-1.8-1.2l-1.1,0.1c0,0-0.9-1.1-1.6-1.1l-0.1-1l-1.4,0.9c0,0-2.2-1.1-2.2-1.8
				c0-0.6,0.1-1.6,0.1-1.6l-2.3,1.6c0,0-0.5-1.2-0.4-1.7c0.1-0.5-0.9,1.2-0.9,1.2s-1.2-2.1-1.1-2.5l-0.3,1.7
				C362.9,128.8,360.5,128,360.2,126.4L360.2,126.4L360.2,126.4z"/>
			<path class="st7" d="M327.6,136.3c0,0,4.3,2.1,4.3,3.2c0,0,1.1-2.2,0.5-3.1l1.6,1.1c0,0,0.5-2-0.1-2.6c-0.5-0.5,3.7-2.2,4.6,0.5
				c0,0,2.5-2.6-2.3-4.9c0,0-0.4-1.6,2.5-1.2c0,0-0.2-1-0.9-1.4h2.8c0,0-1.7-1.4-4.3-1.8c-2.4-0.4-0.9-0.7-1-1.2
				c-0.2-0.5,0-2.3,0-2.3s-1.4-0.5-2.5,0.1l0.4-0.5c0,0-2.6-0.7-3.7-0.1c0,0-1.5-0.6-1.3-2.2c0,0-1.5-0.1-2.2,1.5
				c0,0-1.4,1.6-3.4,1.6c-0.4,0-1.8-0.8-1.8-0.8l-1.2,2.8l-1.9-0.1l0.6,1.1c0,0-3-0.8-3.9,0c0,0,1.1,1.7,0.8,3c0,0-2.3,0.4-2.8,0.8
				c-0.6,0.4,0.8,0.7,0.8,0.7s-2.6,0.8-3.3,1.6l1,0.8l-1.2,1.6l1,0.2c0,0-1.7,0.5-2.6,0.8c-0.9,0.3,1.6,0.5,1.6,0.5l-1.2,1.1
				l1.9,0.3c0,0-1.5,4.1-1.6,6c0,0,2.3-2.9,2.9-3.1l-1.8,3.1c0,0,3.5-1.1,3.8-1.6c0.3-0.6,0.6-1.1,0.6-1.1l0.1,1.7
				c0,0,1.3-1.8,1.5-2.5c0.1-0.7,2.1,0.7,2.1,0.7v-1c0,0,1.8,0.6,2.4,0.7c0.7,0.1,0.8-0.3,0.8-0.3l1.7-0.2l-0.3,1.4
				c0,0,1.2-0.8,1.5-1.6c0.2-0.8,0.8,0,0.8,0l0.8-3.3L327.6,136.3L327.6,136.3L327.6,136.3z"/>
			<path class="st7" d="M313.7,150.8l1.6,3.4c-1.3,0.1-3.3,1.6-3.3,1.6c0.3,5.6-1.1,5.3-1.1,5.3c0.4,1-0.3,2.9-0.3,2.9l8.1-4.8
				l0.1-0.5l9.6-4.5l0.3,0.5l2.7-1.5l1.9,5.1l-1.9,1.1c0.1,1.7,2.1,4.8,2.1,4.8l2.5-0.6l2.7-1c0,0,0.1,1.5,0.1,1
				c0-0.4,2.9-1.4,2.9-1.4l1.3,1.3c1-0.1,2.8-2.5,2.8-2.5l2.1,0.8c0,0,0.7-1.2,0.7-2.1c0-0.8,2.6-0.8,2.6-0.8l1.8,1.3l2.3-1.9
				c0,0,0.7,1.4,1.6,1.6c1,0.1,3.6,2,3.6,1.6c0-0.4,1.1-2.6,1.1-2.6l4.3,1.7c-0.6-1.9-2-4.3-2-4.3s2-1.6,1.6-2s-1.6,0-1.6,0l1.2-2.4
				H364l0.5-0.6l-2.6-1.1l1.4-2.9c-0.6-0.7-7.6-2.1-7.6-2.1l1.6-1.5c0,0-0.8-1.2-1.6-1.2s-5.1,0.1-5.3-0.3c-0.1-0.4-1.8-1.9-1.8-1.9
				l-2.6,1.9l-1.3-0.4l-2.3,0.9c0,0,0,1.3-0.3,0.4c-0.3-0.8-2.4-3-2.4-3c-0.4,0.7-3.2,4-3.2,4s-0.4,1.7-1.3,0.5
				c-1-1.2-3.2-2.5-3.5-1.5c-0.3,1.1-2.2,2.1-2.6,1.8c-0.4-0.3-2.6-0.1-2.8,0.5c-0.1,0.7-2.5,2.5-2.5,2.5c-1.5-0.7-4-0.3-4-0.3
				s-0.7,1.1-0.8,2L313.7,150.8L313.7,150.8L313.7,150.8L313.7,150.8z"/>
			<path class="st7" d="M359.7,192v-2.1l2.4,1.6l1.4-1.6l1.8,1.8l1.1-1.8v3l2.7-2.4l1.6,0.7v-2.3c0,0,1.9-3.3,1.1-3.9l1.6-0.5
				c0,0-2.7-2.7-3.6-3.3c-0.8-0.6-1.9-0.6-1.9-0.6s-2.1-2.1-3.6-2.7c-1.3-0.5-2.1,0.6-2.1,0.6s-0.8-1.6-2.2-1.9
				c-1.3-0.3-1.3,1.1-1.3,1.1s-1-1-2.3-1.5c-1.3-0.6-0.4,1.2-0.4,1.2l-4.7-1.4l0.6,1.4l-4.4-1.1l0.5,1.6l-3.1-0.5l-0.2,1.3l-4.4,0.8
				l0.8,1.4l-2.7-1.1v1.9l-3.1,1.1l1.1,1c0,0-4.1,1.9-4.9,2.5c-0.8,0.5,1.6,1.6,1.6,1.6l-4.4-0.6l1.6,1.4l-3.9,3.6l2.7,1.9l-1.6,2.4
				l4.1,0.8l1.6,2.7l3.4-0.6v3.1l4.9-3.9c0,0,3.6,3.2,3.9,2.2c0.2-0.8,0.2-3.6,0.2-3.6h1.7v-2.7l1.3,1.1l2.2-3.3l2.9,4.1l2.2-5.2
				L359.7,192L359.7,192L359.7,192z"/>
			<path class="st7" d="M379.6,179.7l-0.5-4.7l-1.4,1.4l0.6-4.4l-2.2-0.4l0.8-4.3l-1.6-0.8l0.4-2l1.6-1.2l3-2.9l6.8,0.1l0.8-2.2
				l4.9,0.8c0.8,0.9,3.4-1.8,3.4-1.8h1l1.1,2.1c0,0,3.6-0.5,5.2,0.6l-1.9,2.6l3.6,0.3l2.4,0.5l2.5-0.8l3.3-0.2l0.8,1.3h3.1l-1,1.2
				l4,1.8l-0.8,0.8c0,0,2.2,0.8,3.9,0.8h0.8c0,0,0.8,1.9-0.3,2.7c0,0,1.1,2.7,3.6,3.3c2.4,0.5,2.4,0.5,2.7,1.1
				c0.3,0.5,0,3.3-2.7,3.3v2.7c0,0-2.1,1.9-2.4,2.7l-1.6-1.1c0,0-1.4,1.6-1.4,2.7c0,0-3.6-4.7-4.9-4.9c-1.4-0.3-1.1,2.6-1.1,2.6
				l-3.9-3.3l-0.5,2.2l-3.3-2.7l-1.9,1.3l-3.5-3.6l-3.4,0.4l1.3-1.7h-4.1l-0.8-3.6l-0.6,2.9l-2.4-1.6l-3.2,3.5c0,0-0.4-0.4-0.9-2
				c-0.5-1.6-1.9,1.9-1.9,1.9l-1.1-2.5l-1.3,2.5c0,0-1.1-1.9-2.2-2.5C381,174.5,379.9,178,379.6,179.7L379.6,179.7L379.6,179.7z"/>
			<path class="st7" d="M380.2,190.4l0.2-1.6l5.8-2.2l4.9-1.8l2.4-1.1l1.1,1.9l1.4-2.7l2.2,2.8l1.2-1.5l1.9,1.4h1.6l0.3,2.1
				c0,0,4.1,0.3,4.4-0.5c0.3-0.8,0.8,2.7,0.8,2.7l3.9,0.5l0.8,4.4c0,0,1.9,4.1,1.3,5.7c-0.5,1.7-2.1-2.1-2.1-2.1s-0.3,3.1-0.6,3.9
				c-0.2,0.8-5.2-0.8-5.2-0.8l-2.1,4.1c0,0-2.2-3.3-3.3-3.3c-1.1,0-1.1,3.3-1.1,3.3s-3.3-3.9-4.7-5.5c-1.3-1.6-1.6,1.6-1.6,1.6
				s-2.1-3.6-2.1-4.6c0-1.1-1.9-2.2-1.9-2.2s-3.4,3.9-5.8,4.9c0,0,0.3-2.4-0.5-3.3c-0.8-0.8-3.3,1.6-3.3,1.6
				S378.5,194.2,380.2,190.4L380.2,190.4L380.2,190.4z"/>
		</g>
		<g>
			<path class="st8" d="M407.1,129.7l0.5,2c0,0,1.8-0.4,3.1-0.3c0,0-0.3,1.6-0.7,2.3c0,0,2.4-0.4,3.6,0.3l-0.5,1.2l2.8,1.2l-2.6,2.1
				c0,0,4.3,1.5,5.1,2.7c0,0-2.7,1.9-3.2,1.8c-0.4-0.2-0.1,0.8,0.6,1.7l-2.3-0.1c0,0,0.9,2.1,0.8,2.9c-0.1,0.8-3.9,0.6-3.9,0.6"/>
			<path class="st8" d="M425,142.9c0,0,0.7-4.1-0.4-5.1c0,0,2.6,2.2,4.4,2.3c1.8,0.1-0.1-3.4-0.1-3.4s2.5,1.3,3.8,1.6
				c1.2,0.2-0.9-2.5-0.9-2.5s0.7-1.3,2.7-0.1"/>
			<path class="st8" d="M387.2,119.6c0,0,0.1-0.9-0.3-1.4c-2.4-3.4,2.5,2.5,3.6,2.7"/>
			<path class="st8" d="M395.1,121c0,0,1.6,1.2,2.4,1.2c0.8,0-0.5-3.3-0.9-3.7c-0.4-0.4,3,1.3,4.2,1.5c1.2,0.3,1.4-2,1.4-2
				s3.8,0.6,4.6,1.1"/>
			<path class="st8" d="M380.6,118.4c0,0-0.3-2.1-0.4-3.1"/>
			<path class="st8" d="M355,128.6c-0.2-0.4,1-2.2,0.5-3.1c0,0,0.7,0.6,1.4,0.7c0.6,0.1,0.4-2.3,0.4-2.3l0.8,0.3c0,0,2.1-1,1.7-1.8
				c-0.4-0.8,1.4,1.2,1.4,1.2s1.2-1.2,1.2-1.7c0-0.5,1.4,1.2,1.4,1.2s1.5-0.3,1.5-1.2c0-0.9,1.9,0.3,1.9,0.3s0.8-1.1,0.7-1.8"/>
			<path class="st8" d="M347.6,130.5c0,0,0.9-2.1-0.1-3.6"/>
			<path class="st8" d="M322.9,137.2c0.1-1,0.6-3.8,0.1-4.2c-0.5-0.4,1,0.4,2.2,0.7"/>
			<path class="st8" d="M334.9,133.4c-1.2-1.2-1.9-1.8-3.9-1.8"/>
			<path class="st8" d="M314.2,140.2c0.3-0.7,0.8-2.4,0.5-3.5"/>
			<path class="st8" d="M340.8,190.7l1.3-2.7l1.6,3.9l1.1-2.4l0.4,0.8l2.4-2.6l2.6,4"/>
			<path class="st8" d="M392.8,174.3l1.7-3.5l2.3,1.2l1.1-3.4l2.4,1.5l1.4-3.2l2.7,0.7l0.2-2.2c0,0,1.9,1.1,2.4,1.9
				c0.6,0.8,0-2.7,0-2.7l2.2,1c0,0,1.6-1.6-0.6-2.5"/>
			<path class="st8" d="M399.6,169.9l2.4,3.6l2-2.3l1.8,4l2.3-1.4l3.4,1.9l1.5-1.2l3.7,2.6l1.5-3.2l3.3,1l2.1-3.7"/>
			<path class="st8" d="M335.8,161.7c0,0,1.4-2.4,0.9-3.6c-0.6-1.1,2.9,1.9,2.9,1.9s0.8-2.4,0.3-3.6c-0.6-1.1,4.1,3.3,4.1,3.3
				s0.8-3.8,0-4.6c-0.8-0.8,4.5,1.1,4.5,1.1s2.1-0.6,1.3-1.7c-0.8-1.1,3.6,1.6,3.6,1.6s1-2.7,0-3.8c-1.1-1.1,3.3,1.3,3.3,1.3l-1.6-3
				l3.6,0.2l-0.3-3.3"/>
			<path class="st8" d="M389.8,194.7l2.3-1.1l2,2l2.2-3.6l2.7,2.6l0.4-2.6l2.9,1.2l0.6-1.6l3.3,1.7l0.3-2.4l1.6,0.5l0.3-1.6"/>
		</g>
	</g>
	<g id="shield">
		<path class="st9" d="M336.6,310.5c-2.6-4.5-4.7-9.1-6.2-13.5l44.1-38.8l44.1,38.7c-1.5,4.5-3.6,9.3-6.4,13.8l-0.4,0.6
			c-0.8-0.3-3.3-1.3-3.3-1.3s-1.4,1.3-2.5,1.4c-1.5,0.2-2.8-1.3-2.8-1.3s-1.9,1.6-3.9,1.3c-1.9-0.2-2.7-1.4-2.7-1.4s-2,1.6-3.5,1.3
			c-1.3-0.3-2.2-1.2-2.2-1.2s-1.2,1.5-3,1.2c-1.6-0.3-3.2-1.2-3.2-1.2s-2.5,1.1-4.2,1.3c-1.6,0.3-3.1-1.4-3.1-1.4s-2.1,1.4-2.9,1.4
			c-0.8,0-3.9-1.4-3.9-1.4s-3.2,1-4.3,1c-1,0-4.2-1.3-4.2-1.3s-3,0.8-4.3,0.8c-1.4,0-3.5-0.8-3.5-0.8s-2.4,1.1-3.8,0.8
			c-1.4-0.3-2.5-0.8-2.5-0.8s-2.6,1.1-4.4,0.8c-1.6-0.3-3.6-1.4-3.6-1.4s-0.3,0.8-3.5,1.4L336.6,310.5"/>
		<path class="st10" d="M374.4,213.7v44.6l-44.1,39c-4.3-12.4-4.6-23.5-4.6-28.3v-55.3L374.4,213.7"/>
		<path class="st11" d="M374.4,213.7v44.6l44,39c4.3-12.4,4.6-23.5,4.6-28.3v-55.3L374.4,213.7"/>
		<g id="boat">
			<path class="st6" d="M346,301.3c3.3,1.8,2.2,1.2,9.1,3.7c5.6,1.9,12.1,2.8,21.6,2.8c8.3,0,12.9-0.7,15.6-1.4
				c2.7-0.8,3.4-1.9,3.4-1.9l-6.8,6.9c0,0-27.4,1.5-32.4-1.7C354.5,308.7,350.3,305.3,346,301.3L346,301.3L346,301.3z"/>
			<g>
				<path class="st12" d="M386.2,288.4c0,0,8.8,5,0,14.5"/>
				<path class="st12" d="M346.8,301.8l12.6-12l-1.4,16.1"/>
				<path class="st12" d="M364.6,307.3v-26.9"/>
				<path class="st12" d="M386.2,307.3v-28.5"/>
				<path class="st12" d="M375.3,307.8v-30.6"/>
			</g>
			<g>
				<path class="st13" d="M364.6,281.8l-5.7,1.8l5.7,0.6V281.8"/>
				<path class="st13" d="M375.3,277.7l-6,2.2l6,0.2V277.7"/>
				<path class="st13" d="M386.2,279.3l-6,2.2l6,0.3V279.3L386.2,279.3z"/>
				<path class="st13" d="M389.8,292.2c-0.3-1.2,3.6-1.1,3.6-1.1s1.1,4.1,0,6.6l-3.3-0.6C390.1,297.1,390.4,294.4,389.8,292.2
					L389.8,292.2z"/>
			</g>
			<g>
				<path class="st14" d="M348.8,300.1L348.8,300.1l10.7-10.4l-0.5,6.2c0,0-5.5,3.6-5.5,6.1L348.8,300.1"/>
				<path class="st14" d="M354.5,302.3c0,0,1.1-3.3,4.2-4.9l-0.3,6.5L354.5,302.3L354.5,302.3L354.5,302.3z"/>
				<path class="st14" d="M369.8,284.3c0,0,4.4-0.6,7.6,0c0,0-0.5,4.4,0,5.2c0,0-6-1.4-8.4,0.8C369,290.3,368.2,286.2,369.8,284.3z"
					/>
				<path class="st14" d="M360.6,285.4c0,0,4.4-0.6,7.6,0c0,0-0.8,4.9-0.3,5.7c0,0-4.9-2.7-7.3-0.5
					C360.6,290.6,358.9,287.2,360.6,285.4z"/>
				<path class="st14" d="M360.3,291.1c0,0,4.4-0.5,7.6,0c0,0-0.5,4.4,0,5.2c0,0-5.7-1.3-8.1,0.8C359.8,297.1,358.6,293,360.3,291.1
					L360.3,291.1z"/>
				<path class="st14" d="M369,290.3c0,0,6.3-0.8,9.6-0.3c0,0-1.3,3.6,0.3,6c0,0-6.8-1.8-9.4,0.3C369.5,296.3,367.4,292.2,369,290.3
					L369,290.3z"/>
				<path class="st14" d="M359.8,297.1l8.4,0.6c0,0-0.8,6.2-0.3,7c0,0-6.8-1.6-8.1,0.6C359.8,305.3,357.5,299.6,359.8,297.1
					L359.8,297.1L359.8,297.1L359.8,297.1z"/>
				<path class="st14" d="M369.3,297.1c0,0,7.3-0.5,10.7,0c0,0-1.9,4.7,0.2,8.8c0,0-9.6-2.7-10.9-0.5
					C369.3,305.3,367.1,299.6,369.3,297.1L369.3,297.1z"/>
				<path class="st14" d="M380.5,284.3c0,0,4.4-0.6,7.6,0c0,0-0.5,4.4,0,5.2c0,0-6-1.4-8.4,0.8C379.7,290.3,378.9,286.2,380.5,284.3
					L380.5,284.3z"/>
				<path class="st14" d="M380.5,290.3c0,0,4.4-0.5,7.6,0c0,0-0.5,4.4,0,5.2c0,0-6-1.3-8.4,0.8C379.7,296.3,378.9,292.2,380.5,290.3
					L380.5,290.3z"/>
				<path class="st14" d="M381,296.6c0,0,4.4-0.6,7.7,0c0,0-1.1,6.8-0.6,7.6c0,0-5-2.3-7.3-0.3C380.8,303.9,379.4,298.5,381,296.6z"
					/>
				<path class="st14" d="M390.1,297.1c0,0,1.4,5.2,3.3,5.8l-2.4,3c0,0-3-2.1-3.3-4.6C387.6,301.3,389.6,299,390.1,297.1
					L390.1,297.1z"/>
			</g>
		</g>
		<g id="waves">
			<path class="st15" d="M411.9,311.1c-7,11.7-18.5,22.7-37.4,29.5c-19.2-6.9-30.9-18.4-37.8-30l0.1-0.1c3.2-0.6,3.5-1.4,3.5-1.4
				s1.9,1.1,3.6,1.4c1.7,0.3,4.4-0.8,4.4-0.8s1.1,0.5,2.5,0.8c1.3,0.3,3.8-0.8,3.8-0.8s2,0.8,3.5,0.8c1.3,0,4.3-0.8,4.3-0.8
				s3.2,1.3,4.2,1.3c1.1,0,4.3-1,4.3-1s3.1,1.4,3.9,1.4c0.8,0,3-1.4,3-1.4s1.4,1.7,3.1,1.4c1.6-0.2,4.2-1.3,4.2-1.3s1.5,0.9,3.2,1.2
				c1.7,0.3,3-1.2,3-1.2s0.9,0.9,2.2,1.2c1.4,0.3,3.5-1.3,3.5-1.3s0.8,1.2,2.7,1.4c1.9,0.3,3.9-1.3,3.9-1.3s1.3,1.5,2.8,1.3
				c1.1-0.1,2.5-1.4,2.5-1.4S411,310.8,411.9,311.1"/>
			<path class="st12" d="M410.1,313.8c-1.5,0.1-1.7-0.9-1.7-0.9s-2,1.7-4,1.4c-2-0.3-3-1.6-3-1.6s-2.1,1.7-3.6,1.4
				c-1.4-0.2-2.4-1.2-2.4-1.2s-1.3,1.5-3.1,1.2c-1.7-0.2-3.3-1.2-3.3-1.2s-2.7,1.1-4.5,1.4c-1.7,0.3-3.2-1.6-3.2-1.6s-4,1.3-4.8,1.3
				c-0.9,0-3.8-1.3-3.8-1.3s-1.9,1.2-3.1,1.2c-1.2,0-4.5-1.4-4.5-1.4s-3.1,0.8-4.5,0.8c-1.4,0-3.6-0.8-3.6-0.8s-2.6,1.1-4.1,0.8
				c-1.4-0.3-2.5-0.8-2.5-0.8s-2.8,1.1-4.6,0.8c-1.7-0.3-3.8-1.4-3.8-1.4s-0.3,0.7-3.7,1.4h-0.1"/>
			<path class="st16" d="M347,317.9c0,0-0.3,0.7-2.9,1.2c-0.1,0-0.7,0.2-0.7,0.2c0.2,0,0.4-0.1,0.7-0.1c-0.1,0-0.3,0.1-0.8,0.2
				c3,4.3,7.5,8.3,12.2,11.4c4.7,3.2,10.1,6.9,19.2,9.6c9.6-3.8,12.2-5.2,18.5-9.4c6.3-4.6,9.6-7.5,13.1-12.2
				c-2.8,1.6-2.4,1.6-3.8,1.4c-1.4-0.3-2.5-1.3-2.5-1.3s-1.3,1.5-3,1.3c-1.7-0.3-3.2-1.3-3.2-1.3s-2.3,1.5-4.5,1.4
				c-1.7-0.1-3.2-1.6-3.2-1.6s-4,1.3-4.8,1.3c-0.9,0-3.8-1.3-3.8-1.3s-1.9,1.2-3.1,1.2c-1.2,0-4.5-1.4-4.5-1.4s-3,0.8-4.5,0.8
				c-1.4,0-3.6-0.8-3.6-0.8s-2.5,1.1-4.1,0.8c-1.4-0.3-2.6-0.8-2.6-0.8s-2.8,1.1-4.6,0.8C349,319,347,317.9,347,317.9L347,317.9z"/>
			<path class="st17" d="M374.6,340.5c10-4.1,11.8-5.3,17.8-9c-1,0-4.1-1-3-1.3c0,0-1.2,1.1-2.4,1.1c-1.1,0-4.4-1.4-4.4-1.4
				s-3.1,0.8-4.5,0.8s-3.6-0.8-3.6-0.8s-2.6,1.1-4.1,0.8c-1.4-0.3-2.5-0.8-2.5-0.8s-2.9,1.1-4.6,0.8c-1.7-0.3-3.8-1.4-3.8-1.4
				s-2.5,1.3-4.1,1.5C360.3,334.4,365.4,337.8,374.6,340.5L374.6,340.5z"/>
		</g>
		<g id="weapons">
			<path class="st18" d="M367.9,259.3c2-1.6,3.1-3.2,2.5-4.4c-0.7-1-1.9,0.6-3.2,0.3c0,0-2-1.2-2.5-2.1c-1.2-1.3-2.6-2.4-3.5-3.5
				c-0.9-1-4.3-5.5-9.5-10.7c-1.5-1-1.1-4.6-2.2-5.8c-0.1-0.8-10.4-11-14-14.6c-1.5-1.1-2.3-1.8-4.9,0.6c-2.1,1.9-2.8,3.8-0.1,6.1
				l13.4,12.1c2,1.9,4.7,2.2,5.8,3.2l13.6,13.9c1.7,1.5,2.5,2.5,1.6,3.8c-1.1,2.1,0.1,2.4,0.3,2.4c0.2,0.1,1.1,0.1,1.8-0.4
				L367.9,259.3L367.9,259.3z"/>
			<path class="st19" d="M334,222.9l14,13.8"/>
			<path class="st20" d="M352.9,229.2c0.2-0.4,0.7-1.5,1.2-2.6c0.2-0.5,4-6.4,5.8-6.6c0,0,11.7,8.5,11.7,8.6c0,0.5-5.1,8.1-5.5,7.5
				C366.1,236.1,352.4,230.4,352.9,229.2z"/>
			<path class="st21" d="M360.4,231.2c-1.6-1.2-4.2-2.5-6.4-3.9l-1,2c0.8,0.9,10.5,5.4,12.1,6.2
				C365.1,235.6,363.3,233.5,360.4,231.2z"/>
			<path class="st22" d="M354,227.1c1.2,0.9,3.6,2.4,5.1,3.2c2.9,2,4.7,4.2,6.8,5.4"/>
			<path class="st23" d="M330.3,263.5l26.6-32.9c0.5-0.5,3-0.5,3.3,2.1L335,267C335,267,332.2,266.7,330.3,263.5L330.3,263.5z"/>
			<path class="st6" d="M419.4,263.8c-0.9,0.7-2.5,0.9-2.5,0.9c-1.7-2-3.2-4.2-5.6-6.8l-26.6-32.7l2.7-2.6l23.9,28
				c0.7,0.7,4.9,5.1,8.9,10.3C420.3,260.9,420.7,262.9,419.4,263.8L419.4,263.8z"/>
			<path class="st14" d="M393.9,229.4l-4.3-5.1c0,0-3.3,0.4-3.9,2.1c0,0-2.3,3.9-8.5,4.3c0,0,1.7,7.2,9,11.1c0,0,2.6-7.4,5.2-8.8
				C391.3,233.1,394,231.2,393.9,229.4L393.9,229.4z"/>
			<path class="st6" d="M383.2,252c-0.6-0.2-1.2,0-2.1,0.5c-0.8,0.5-1.8,0.3-1.7-0.7c0.1-0.9,0-0.8,1.1-1.5c1.6-0.9,3.8-1,5.1-0.5
				L383.2,252"/>
			<path class="st6" d="M412.2,223.1c-0.2-0.7-0.4-1.4,0.3-2.3c0.7-0.8,0.7-2.2-1-1.5c-1.7,0.7-2.3,2.6-0.9,5.6L412.2,223.1
				L412.2,223.1z"/>
			<path class="st14" d="M382.6,252.6l30.1-29.9l7.4,7.9c0,0-1.5-0.6-2.1-0.2c-0.5,0.4,0.6,1.9,0.6,1.9s-1.4-0.5-2-0.1
				c-0.7,0.4,0,2.1,0,2.1s-1.2-0.9-1.8-0.5c-0.5,0.4,0,2.3,0,2.3s-1.6-0.5-2-0.1c-0.4,0.4,0,2.1,0,2.1s-1.6-0.8-2.4,0
				c-0.8,0.8,0.4,1.9,0.4,1.9s-2-0.8-2.8,0.4c-0.8,1.2,0.1,2.3,0.1,2.3s-1.6-0.8-2-0.4c-0.4,0.4,0,2.3,0,2.3s-1.4-0.8-2.3,0.2
				c-0.9,1.1,0.1,2,0.1,2s-1.3-0.8-2-0.4c-0.7,0.4,0.2,2.3,0.2,2.3s-1.3-0.9-2.2,0c-0.9,1,0,2,0,2s-1.1-1-2.2,0c-1,1.1,0,2.2,0,2.2
				s-1.6-0.8-2.2,0c-0.7,0.8,0.2,1.9,0.2,1.9s-1.2-0.7-2-0.3c-0.8,0.4,0,2.2,0,2.2s-1.2-1.3-1.7-0.6c-0.6,0.7,0.1,2.4,0.1,2.4
				s-1.1-1.3-1.7-0.6c-0.7,0.6,0.4,2.1,0.4,2.1s-2-0.9-1.5-0.9L382.6,252.6z"/>
			<g>
				<path class="st24" d="M411,225.2l-2.3,2.3l0.5,8c0,0,0.5-2.3,1.2-0.7c0,0,0.2-1.9,0.7-1.6C410.7,233,411,225.2,411,225.2"/>
				<path class="st24" d="M406.6,229.5l-1.7,1.6l0.6,8c0,0,0.5-3.1,1.2-0.6c0,0-0.1-2-0.1-2.7C406.6,236.3,406.6,229.5,406.6,229.5"
					/>
				<path class="st24" d="M388.4,247.6l-1.6,1.7l0.4,4.9c0,0,0.5-3.2,1.2-0.7c0,0-0.2-2-0.2-2.7
					C388.2,251.2,388.4,247.5,388.4,247.6"/>
			</g>
			<g>
				<path class="st25" d="M386.3,227.4c1.1,1.1,4.3,5.2,4.3,5.2"/>
				<path class="st25" d="M387.8,229.6c-0.2,0.6-0.6,2.3-1.5,3.3"/>
				<path class="st25" d="M388.3,230c-0.1,0.4-0.1,1.7-1.5,3.1"/>
				<path class="st25" d="M388.8,230.7c-0.2,0.7-0.3,1.2-0.8,1.7"/>
				<path class="st25" d="M389.1,231.3c0,0.5-0.3,0.6-0.4,0.9"/>
				<path class="st25" d="M385.3,229.3c-0.4,0.4-3.4,2.3-5,2.9"/>
				<path class="st25" d="M384.5,230.4c-0.4,0.4-2.2,1.8-3.3,2.2"/>
				<path class="st25" d="M384.2,231.7c-0.6,0.4-1.6,1.4-2.4,1.7"/>
				<path class="st25" d="M383.6,232.9c-0.4,0.5-1,0.9-1.5,1.2"/>
				<path class="st26" d="M365.9,234c0.3-0.6,0.9-1.8,1.7-2.9c1-1.4,1.4-1.6,1.9-2.1"/>
			</g>
		</g>
	</g>
	<g id="supporters">
		<path class="st27" d="M267.7,316c1.5,0.7,0-5,0.5-7.1c0.6-2.2,5,5.5,7.1,6.5c2.2,1.1,15.9-5.4,15.9-5.4l3.3-6.1l1.7,5
			c0,0,3.8-4.4,4.9-6c1.1-1.6,0,3.3-1.1,4.9c-1.1,1.6,3.3,2.2,2.7,5.5c-0.5,3.3,4.4-2.2,4.4-2.2l12.6,1.1c0,0,2.1-7.6,5.5-12l1,4.9
			l5.2-5.3c5.8,15.3,18,31.8,43,40.9c23.5-8.5,35.6-23.7,41.9-38.2l7,7.2c0,0,5.5-1.6,6.5-2.2c1.1-0.5,12.9,4.2,12.9,4.2
			s2.1,0.8,3.3,1.6c1.1,0.8,0.3-3.6,0.3-3.6s6,1.1,5.5,4.4c0,0,1.3-3.1,2.4-3.6s3.8,2.7,4.4,3.9c0.5,1,13.4,2.6,15.3,3.8
			c0,0,1.4,1.6,1.4,2.7c0,0,2.7-0.3,4.9-0.3c0,0-1.6,0.8-1.6,2.5c0,1.6-0.8,3-2.4,3.8c-1.6,0.8,0,1.4,2.1,1.6c2.2,0.3,0,3.1-4.4,4.7
			c0,0-1,2.4,0.8,3.3c0,0-3.8,0.3-4.4-0.8c0,0-1.3,2.5-1.3,3.9c0,0-4.1-1.3-5.2-1.9c0,0-1.6,1.6-0.5,2.4c0,0-7.4-0.8-8.9-3.6
			c0,0-2.6,0.8-2.1,1.7c0,0-5.2-3.6-6.8-3.6l-1.1,1.8c0,0-3.6-2.1-4.7-2.1c-1,0-0.2,1.6-0.2,1.6l-5-3.1l-1.9,3.1
			c0,0-4.1-1.9-5.2-2.7c-1-0.8-1.3,1.6-2.1,1.9c0,0-1.6-2.2-3.9-1.9c0,0-0.8,2.7-0.5,3.6c0,0-6.3-1.3-7.4-1.6
			c-1.1-0.3-0.5,1.3,0,2.4c0,0-4.7-1.3-5.7-2.1l-0.3,2.1c0,0-3.9-0.3-4.7-1.1l-2.4,3.4h-3.6l-0.8,3c0,0-6.8-1.9-7.4-0.8
			c-0.5,1.1,0.3,2.7,0.3,2.7l-6-0.8l-0.5,2.4c0,0-6.9-2.1-8.5-1.1c0,0-2.1,2.2-3.6,2.7c-1.3,0.6,0-0.8,0-0.8l-2.1-2.9
			c0,0-2.4,1.3-3.9,0.8c-1.3-0.6-5.7,2.1-7.1,1.3c0,0,0-1.9-1.1-2.4c-1-0.5-3-0.5-3.8,0.8c0,0-0.8-1.1-2.2-3.3
			c-1.3-2.2-3.3,0.2-3.3,0.2l-0.3-2.6l-3.8-0.3c-2.2-0.3-2.7-2.2-2.7-2.2s-5.8,0.6-6.6,0.3l1.4-1.3c0,0-7.9,1.6-9.6,1
			c-1.7-0.5,1.8-2.7,1.8-2.7s-7.3-1.8-8.8-2.1c-1.3-0.3-9.3,1.3-10.4,1.3c-1.1,0-1.6-1.8-1.6-1.8s-1.9,1.6-3.6,2.1
			c0,0-1.3-3.3-0.5-3.6c0,0-5.2,1.4-5.5,2.7c0,0-1.3-2.1-1.1-3.1c0,0-2.4,3.9-3.6,4.7c-1.1,0.8-0.2-1.9-0.2-1.9s-3,3.9-4.2,4.2v-2.7
			c0,0-8.8,4.7-11.2,4.1c0,0,0-1.9,0.8-2.4l-5.5-0.3c-1.3-0.2-2.9-0.8-4.4-1.1c-1.3-0.2,1.9-1.6,4.2-1c0,0-6.1-2.2-7.9-1.1
			c0,0-0.8-2.2,2.4-3.1c0,0-4.2-4.1-6.6-3.8c0,0,2.7-1.6,5-0.8c0,0-2.5-6.9-4.2-7.7C260.3,316.2,266.1,315.2,267.7,316L267.7,316z"
			/>
		<g id="axe">
			<path class="st6" d="M259.3,196.7l74.1-38.4c0.4-2-0.8-3.5-1.9-5.1c-21.2,10.4-40.5,23-64,30.6c-1.3,0.5-13,5.4-19,12.6
				c-1.9,1.9-2,4.7-2,4.7s0.1,3.2,0.8,4.1c0,0,0.2,0.9,1.3,1.6c0,0,0.7,0.3,1.2,0.2c0.5,0.1,1.4,0.1,2.6-2
				C253.5,203,257.4,198.3,259.3,196.7L259.3,196.7z"/>
			<path class="st14" d="M318.9,158.7l9.6-4.6c0,0,3.3,2.4,3,5.2c0,0,0.7,6.3,8.5,10.7c0,0-6.6,8.2-18.2,9c0,0,1.3-10.9-1.1-14
				c0,0-0.4,0.4-0.2-0.1c0.3-1.1-0.2-4.7-1.7-5.5C318.5,159.2,318.8,158.9,318.9,158.7L318.9,158.7z"/>
			<g>
				<path class="st28" d="M330.1,160c-2,0.8-8.6,4.3-8.6,4.3"/>
				<path class="st28" d="M326.9,162.1c-0.1,1-0.7,3.5,0,5.2"/>
				<path class="st28" d="M326,162.4c0,0.5-0.8,2.3,0.1,4.8"/>
				<path class="st28" d="M325,162.9c-0.2,1-0.4,1.6,0,2.8"/>
				<path class="st28" d="M324.2,163.5c-0.2,0.6,0,0.9,0,1.3"/>
				<path class="st28" d="M330.2,163.2c0.3,0.8,3.1,5.1,4.7,6.8"/>
				<path class="st28" d="M330.6,165.1c0.3,0.8,1.8,3.8,3,4.9"/>
				<path class="st28" d="M330.4,166.9c0.4,1,1.2,2.9,2,3.9"/>
				<path class="st28" d="M330.4,168.9c0.2,0.8,0.6,1.8,1.2,2.5"/>
			</g>
		</g>
		<g id="paddle">
			<path class="st29" d="M398.2,154.5l27.2,13.3c5.5,2.6,7.4,0.2,10.5,1.5l53.7,27.4c4.6,2,7.2,2.7,6.5,5c-0.1,3.8,1.8,3.8,2.3,3.9
				c0.4,0.1,2.2-0.2,2.9-1.2c0.6-0.7,0.6-0.7,0.6-0.7c0.6-0.6,0.5-0.7,0.7-0.9c2.3-3.2,3.5-6.1,1.1-7.9c-2.7-1.3-3,1.6-5.9,1.3
				c0,0-5.1-1.9-6.9-3.3c-3.4-1.8-8.1-4-9.2-5.2c-3.4-0.6-29.2-15.2-43.9-22.4c-1.6-1.3-2.4-6.2-5.5-7.8c-0.9-1.3-20.7-10.3-31-15.5
				c-3.8-1.4-5.9-2.4-8.7,2.3C390.4,148.8,391,151.3,398.2,154.5L398.2,154.5z"/>
			<path class="st12" d="M400.5,148.8L431,164"/>
		</g>
		<g id="white_man">
			
				<radialGradient id="SVGID_1_" cx="68.7117" cy="644.0131" r="0.5" gradientTransform="matrix(87.5286 0 0 -58.3043 -5711.2021 37743.0039)" gradientUnits="userSpaceOnUse">
				<stop  offset="0" style="stop-color:#FFEF5D"/>
				<stop  offset="1" style="stop-color:#EA5700"/>
			</radialGradient>
			<path class="st30" d="M309.7,165.1c-0.2,0.6-0.7,0.2-0.7,0.4c-0.4,2.1-0.3,3.3-0.8,4.5c-0.7,1.4-3.3,2.7-3.2,2.6
				c-2,0.6-4.5,3.1-8.4,0.8c-0.2-0.1-0.4-0.3-0.6-0.5c0,0,1.1,4.2-3,6.2c-1.4,0.7-15.8,8.2-15.8,8.2s-1.5,2.7-0.5,6.5
				c0.1,0.6,0.3,1.1-0.3,1.5c-0.9,0.7-2.6,2.7-3.7,6c0,0-3.1-1.3-3.1-3.3c0-1.9,1.2-3,1.5-4.4c0.3-1.3,1.1-4.7,0.7-5.7
				c-0.4-1.1-2.2-1.5-3-1.9c-0.6-0.4-1.4,0.4-1.3,1.3c0.1,1,0.8,0.8,1.6,1c0,0-0.9,1.9-0.8,3.4l-9.3,4.8c0,0,1.2,1.6,1.6,2.3
				c0.4,0.7,1.3,10.2,4.1,14.7c2.7,4.5,3.7,3.3,4.3,3.9c0.5,0.5,1.3,1.3,2,1.9c0.7,0.5,3.9,0.8,4.5-0.9c0.7-1.6,1.2-2.6,3.2-4.2
				c1.9-1.5,5.9-5.4,5.9-7.1c0,0,2.3,6.7,2,12.3c0,0,8.5,1.7,16.2,1.9c7.6,0.1,11.5-1.5,11.5-1.5s1-6.4,0.6-7.6c0,0,1.2,4.2,2.1,5.6
				c1,1.7,2.1,5.3,4.4,5.5c2.1,0.1,4-2.1,4.2-3.1v-6.7h8.6c0-0.1,3.9,1.4,5.1,1.2c1.2-0.1,1.9-1.2,0.8-1.6l-0.4-0.3
				c1.1,0,2.5,0.7,2.5,0.7h4.3c0.1-0.1,0-0.4-0.1-0.5c-0.3-1.2-2.5-2.2-4.2-2.9c-1.6-0.6-3.5-1.3-4.7-1.4c-1.9-0.2-3.3-0.1-6.2,0.4
				c-0.8,0.1-3.9,0.4-5.8,1.3c-0.5,0.3-1,0.4-0.8-0.9c0.3-1.4,0.2-7.8-1.3-10.6c-1.1-1.9-1-3.6-0.8-5.2c0.1-1.6,0.2-7.2,0-8.9
				c-0.3-1.6-2.5-3.9-6.6-4.4c-3.9-0.5-7.1-3.7-7.3-6.2C308.6,171.8,309.3,167.2,309.7,165.1"/>
			<g>
				
					<radialGradient id="SVGID_2_" cx="65.9247" cy="639.9367" r="0.5" gradientTransform="matrix(19.299 0 0 -22.0925 -970.8477 14301.209)" gradientUnits="userSpaceOnUse">
					<stop  offset="0" style="stop-color:#FFEF5D"/>
					<stop  offset="1" style="stop-color:#EA5700"/>
				</radialGradient>
				<path class="st31" d="M292.4,153.6c-0.7,3.3-0.7,6.1-0.6,9.3c0.1,2.1,1.1,4.6,2,6.7c0.6,1.4,1.4,3.1,2.7,3.9
					c3.6,2.3,6.9-0.2,8.9-1c0.9-0.3,2.3-1.6,2.7-2.4c0.5-1.2,0.3-2.1,0.8-4.5c-0.1,0.1,0.8-0.4,0.7-0.4c0.9-1.5,0.7-2,1.2-3.1
					c0.5-1-0.6-2.1-1.8-1.9c0.6-1.9,1-4.1,0.4-5.9c-0.2-0.6,0.5-2.2-0.6-1.8c-4.6,1.8-10,1.4-14.9,1.4c-0.4,0-0.7-0.8-1.3-0.7
					C292.6,153.1,292.5,153.4,292.4,153.6"/>
				<path class="st32" d="M292,155.4c-0.5-0.4-0.6-1.3,0-3.3c0.7-1.9,0-2,1.1-3.2c1.1-1.1,0.8-1.6,1.5-1.9c0.7-0.2,2.8-0.2,3.6-0.5
					c0.6-0.3,1.5-0.7,2.9-0.9c1.5-0.3,4.6-0.2,6,0.6c1.5,0.8,2.5,2.9,3.5,3.6c1,0.7,1.6,3.7,1.4,7.9c-0.3,4.3-1.1,3.5-1.1,3.5
					s-1.2-2-2.2-0.3c0,0,0-1.6,0.2-2.8c0.1-1.2-0.6-3.5,0.1-5c0,0-5.8,1.8-8.8,1.7c-3.1-0.2-7.3-0.9-7.5-1.6L292,155.4"/>
				<path class="st33" d="M295,151.8c-0.3-0.6-1.8-2.9-0.6-3.6c1.1-0.6,0.4,2.7,1.9,3.5C296.3,151.7,295.8,153.2,295,151.8
					L295,151.8L295,151.8z"/>
				<path class="st12" d="M298.3,160.1c-0.5,1.7-0.7,2.1-0.9,3.2"/>
				<path class="st12" d="M308,164.9c0.2,0.6,0.4,0.3,0.9,0.4"/>
				<path class="st12" d="M309.3,161.4c0.5-0.6,1.2-0.3,0.8,1.2"/>
				<path class="st12" d="M292.4,157.7c0.9,0.3,1.8,0.6,2.7,1c1.5,0.6,0.6,2.8,0.2,4.3c-0.2,0.7-1,1.9-0.6,2.5
					c0.5,0.8,1.1,0.3,2,0.4c0-0.3,0.6-0.5,0.8-0.5c0.7-0.1,1.1,0.5,1.6,0.3c0.6-0.3,0.5-1.2,0.3-1.7"/>
				<path class="st12" d="M299.5,159.5c0.1-0.4,1-0.8,1.5-0.9c2.1-0.4,3.7-0.7,5.4,0.5"/>
				<path class="st12" d="M300.7,170.2c-1.7,0.4-3.6,0.7-5.2-0.2"/>
				<path class="st12" d="M295.5,169.2c0.8-0.4,1.1-0.8,2.1-0.3c0-0.1,1.1-0.4,1.1-0.4c0.8,0,1.3,0.3,2.1,0.8"/>
				<path class="st12" d="M295.4,169.6c0.9-0.3,3.4-0.3,5.4,0.1"/>
				<path class="st34" d="M292.3,160.1c0.7-0.1,1.5-0.9,3.2,0.3c1.1,0.7-1.8,1.4-1.3,1.3c-1.3,0.2-1.7-0.5-1.8-1.1
					C292.3,160.4,292.1,160.1,292.3,160.1L292.3,160.1L292.3,160.1z"/>
				<path class="st34" d="M300.7,160.9c0.7-1.4,1.8-1.1,2.8-0.8c1,0.3,0.7,0.1,1.6,0.6c-1.1,0.2-0.8,0.3-1.6,0.7
					c-0.9,0.4-1.7,0.6-2.3,0.2c-0.2-0.2-0.7-0.5-0.7-0.9C300.5,160.8,300.6,161,300.7,160.9L300.7,160.9z"/>
				<path class="st35" d="M293.8,161.4c0.4,0,0.7-0.4,0.7-0.8c0-0.5-0.3-0.9-0.7-0.9c-0.5,0-0.8,0.4-0.8,0.9
					C292.9,161,293.3,161.4,293.8,161.4z"/>
				<path class="st35" d="M302.4,161.6c0.4,0,0.7-0.4,0.7-0.9c0-0.5-0.4-0.8-0.8-0.8c-0.4,0-0.7,0.3-0.7,0.8
					C301.6,161.2,302,161.6,302.4,161.6z"/>
			</g>
			<g id="body">
				<g>
					<path class="st12" d="M345.9,213.7c-0.6-0.7-1-1-1.8-1.3c-0.6-0.3-1.4-0.7-2-1c-0.7-0.4-1.7-0.5-2.3-0.9"/>
					<path class="st12" d="M340,213.1c-0.3-0.2-0.5-0.3-0.8-0.5c-0.3-0.1-0.7-0.1-1-0.2c-0.1,0-0.1-0.2-0.2-0.2
						c-0.9-0.1-1.8-0.5-2.4-1.3"/>
					<path class="st12" d="M272.8,201.4c0.9,0.7,3.2,2.2,3.4,5.2c0.2,1.5,1,3.1,1,3.1"/>
					<path class="st12" d="M264,201.9c0.5,1.7,0.6,7.4,6,13.4"/>
					<path class="st12" d="M265.1,193.9c-0.4,1.1-0.9,2.1,0.2,3"/>
					<path class="st12" d="M279.7,207.6c1.1-2.5,4.6-2.3,4.6-4.8"/>
					<path class="st12" d="M284.8,207.2c-0.3-2.8-0.9-4.5-0.4-8.6c0.2-1.2,0.4-5.9,0-8.1c0,0,1.6,7.8-3.7,9.4"/>
					<path class="st12" d="M315.1,212.3c0-4,0.9-6.2,0.9-6.2c1.2-5.6-1.1-7.7-0.2-9.2c0.8-1.2,2-3.8,0.4-8.9c0,0,2.8,10.5-4.5,10.5
						c-7.4,0-7.1-2.7-7.1-2.7"/>
					<path class="st12" d="M284.4,190.5c0,2.1,0,8.4,9.1,8.4c2.7,0,5.7-1.9,7.3-3.3"/>
					<path class="st12" d="M303,192.9c-0.3-1.9-0.3-4.4-0.3-6.9"/>
					<path class="st12" d="M289.1,182.5c2.4-0.3,4.4-0.6,9-0.6"/>
					<path class="st12" d="M298.3,175.6c0.5,2.2-0.3,5.8,3.9,6.3"/>
					<path class="st12" d="M306.6,174.8c-0.6,1.6-0.6,3.3-0.8,4.4"/>
					<path class="st12" d="M306,181.9c1.7,0,5-1.1,9.1-0.3"/>
					<path class="st12" d="M316.5,204.4c0.8,1.6,1,3.8,3.6,6.2"/>
					<path class="st12" d="M288.3,199.2c0.2,1.3-1.7,5.7-0.3,9.3c1.3,3.6,1.1,7.6-1.1,11.1"/>
					<path class="st12" d="M293.5,200.5c-0.8,1.6-2.2,3.3-2.5,4.7"/>
					<path class="st12" d="M297.5,203.6c0,1-2.7,8.7-4.7,10.9c0,0,3.6,1.4,3.1,6.6"/>
					<path class="st12" d="M303.2,200c0,1.3-0.2,1.6,0.9,2.4"/>
					<path class="st12" d="M306.6,202.5c1.3,1.6,5.5,6.5,4.6,9.3"/>
					<path class="st12" d="M303.8,205.2c0.3,1,0.3,6.3-0.6,9"/>
					<path class="st12" d="M301.1,214c-1.1,0-2.7,0.8-3.1,2.7"/>
					<path class="st12" d="M306.8,213.7c1.1-0.3,3.4,1.6,3.4,7.1"/>
					<path class="st12" d="M325.8,210.5c-2.1,0.6-3.1,1.7-2.4,1.1c-1.1,0.9-2.1,1.5-2.1,1.5"/>
				</g>
				<path class="st35" d="M289.8,198c0.6,0,1.1-0.4,1.1-0.9c0-0.4-0.5-0.8-1.1-0.8c-0.5,0-1,0.4-1,0.8
					C288.8,197.6,289.3,198,289.8,198z"/>
				<path class="st35" d="M312.9,198.3c0.5,0,1-0.4,1-0.9c0-0.5-0.5-0.8-1-0.8c-0.6,0-1.1,0.3-1.1,0.8
					C311.8,197.9,312.3,198.3,312.9,198.3z"/>
				<path class="st14" d="M280.5,239.8c1.2-7.9,5-14.6,5.1-15.2c0,0,3.9,0.8,10.6,1.4c6.6,0.7,8.4,0.4,11.5,0.2
					c2.9-0.3,6.8-0.8,6.8-0.8s1.2,2.4,1.3,4.9c0.3,5.2,2.2,27.7,2.4,33.7c0,0,0.8,3.6,0.8,12.3c0,9.6,2.6,29,2.6,39.4l-2.6,0.5
					c0,0-14.4,1.1-14.4-0.8c0-2.1-0.8-27.1,1.3-42.1c0,0-0.5-3-1.3-5.5c-0.8-2.4-4.4-10.1-4.4-11.7c0,0-5.7,16.1-6,18.8
					c-0.3,2.5-1.1,38.4-1.6,41.3c0,0-8.2,6.3-9.4,6.9c-1.1,0.5-9.1-3.4-9.3-4.4c-0.3-1.1,0.8-13.2,4.6-33.2
					c1.4-7.1,0.6-8.4,0.6-10.4C279.2,273.3,279.3,247.8,280.5,239.8L280.5,239.8L280.5,239.8z"/>
				<g>
					<path class="st12" d="M294.3,274.9c-0.6,2.2-1.6,4.4-3.6,5.8"/>
					<path class="st12" d="M288,227.1c-0.3,1.3-2.2,7.3-7.1,10.9"/>
					<path class="st12" d="M295.1,228.2c-1.1,3.6-5.5,22.7-6.3,45.4"/>
					<path class="st12" d="M288.5,280.7c-0.2,2.1-1.3,18-1.6,20.8"/>
					<path class="st12" d="M286,304.5c-0.5,1.1-2.7,10.4-2.7,18.6"/>
					<path class="st12" d="M315.5,287.2c-0.2,1.9-1,15.7,3.6,28"/>
					<path class="st12" d="M300.6,229.2c-0.3,2.2-0.8,16.7-0.8,17.8c0,1.1,1.6,2.7,2.4,3.1c0,0-1.6,0.5-1.9,6"/>
					<path class="st12" d="M296.2,243.2c-0.3,1.7-1.9,8.5-3.1,11.3"/>
					<path class="st12" d="M306.3,229c0,0,4.9,1,5.2,0c0,0,1.6,29.5,3.9,45.9"/>
					<path class="st12" d="M304.1,232.8c0,1.9-0.6,16.5-0.6,16.5"/>
					<path class="st12" d="M306,251.4c0,0,1.9,2.7,1.4,4.1"/>
					<path class="st12" d="M289.6,227.4c1.6,0.5,3.1,0.8,3.1,0.8"/>
					<path class="st12" d="M297.8,229.8c-0.3,0.8-0.6,4.6-0.6,4.6"/>
					<path class="st12" d="M306,273.3c0.6,0.8,1.4,1.9,0.8,4.4"/>
				</g>
				<path class="st36" d="M284.9,224.4c0,0,0-3.3,1.2-4.9c0,0,3.5,0.7,8.3,1.2c5,0.5,9,0.9,12.6,0.5c3.7-0.4,7.4-1.3,7.4-1.3
					s1,4.8,0.5,5.5c0,0-4,0.8-8.3,1c-4.5,0.3-11.9-0.4-14.4-0.8C288.9,225.3,285.9,224.7,284.9,224.4z"/>
				<path class="st14" d="M288.1,224.9l0.6-4.9l1,0.1l-0.2,5.1L288.1,224.9"/>
				<path class="st14" d="M310.1,220.8l0.1,5.5l1.2-0.2l-0.1-5.6L310.1,220.8"/>
				<path class="st14" d="M294.5,220.8l-0.4,5.3h0.7l0.7-5.3H294.5"/>
				<g>
					<path class="st37" d="M276.8,320.8c-0.3,1.3-0.8,3.2-1,5.5c0,0.5-0.5,3.3,1,3.4c1.1,0.1,1.4-2.8,1.4-2.8s-1,3.3,0.3,3.7
						c1.8,0.4,2-3.6,2-3.6c-0.2,1.1-1.4,4,0.3,4.3c1.8,0.3,2.3-3.9,2.3-3.9s-1.5,4.2,0.3,4.3c1.7,0.1,1.7-4.1,1.7-4.1
						s-0.9,5,1.5,4.6c1.3-0.2,1.6-1.9,1.9-3c0.4-1.5,1.3-3.5,0.2-6.6c-0.8-2.3-0.5-3-0.5-3s-2.9,2.1-5.1,3.6
						C282.3,323.8,276.8,320.8,276.8,320.8L276.8,320.8z"/>
					<path class="st37" d="M306.5,316.4c-0.5-0.3-0.4,1.8-0.6,2.8c-0.1,1,0.2,3.3,3.7,3.1c3.4-0.3,6.7-1,8.9-0.5
						c2.1,0.6,5.3,0.7,7,0.7c1.7,0,2.8-0.2,3.7-0.5c0.7-0.3,2.2,0.4,3,0.4c0.7,0,1.8-1.1,1.7-1.8c-0.1-1.3-1.3-1.3-3.1-1.4
						c-1.6-0.2-3.9-0.5-5-0.9c-1.1-0.4-3.2-1.5-5.7-2c0,0-4.9,0.2-5.9,0.2C313.1,316.4,307.1,316.7,306.5,316.4L306.5,316.4z"/>
				</g>
			</g>
			<g>
				<path class="st38" d="M255.7,189.9c-0.5,0.3-1.1-2,0.4-3c0,0,0.4-1.9,2-2.1c0,0,1.3-1.8,3.3-1.6c0,0,2.2-1.5,3.1-1.3
					c0.8,0.1,2.8,2.1,3,2.9c0.2,0.7,0,1.9-0.5,2.4c-0.6,0.6-1-0.1-1.1-0.9c0,0,0.4,1.5-0.8,2.1c-1.2,0.7-1.1,0.2-1.2-0.6
					c0,0-0.3,1.6-1.1,1.8c-0.8,0.3-1.3-0.4-1.9-0.4c0,0,1,0.8,0.3,1.4c-0.7,0.5-1.5,0.3-2-0.1C258.5,190,257.8,188.6,255.7,189.9
					L255.7,189.9L255.7,189.9z"/>
				<path class="st12" d="M265.7,186.1c-0.5-1.6-2.1-3.1-4.1-2.8"/>
				<path class="st12" d="M263.9,187.6c-0.3-0.4-0.4-0.8-0.7-1.2c-0.9-1.5-2.8-1.4-4.5-1.8"/>
				<path class="st12" d="M261.1,189.1c-0.6-0.4-0.8-1.2-1.4-1.5c-1-0.4-2-0.9-3.3-0.7"/>
			</g>
		</g>
		<g id="black_man">
			
				<radialGradient id="SVGID_3_" cx="68.7122" cy="644.0155" r="0.5" gradientTransform="matrix(87.588 0 0 -58.3622 -5572.5605 37780.4102)" gradientUnits="userSpaceOnUse">
				<stop  offset="0" style="stop-color:#952D1A"/>
				<stop  offset="1" style="stop-color:#570A00"/>
			</radialGradient>
			<path class="st39" d="M439.1,165.1c0.7-0.3,0.5,0.6,0.6,0.9c0.3,1.3,0.3,2.7,0.8,4c0.6,1.1,0.8,1.5,1.8,2
				c1.6,0.9,6.4,3.6,9.8,1.4c0.2-0.1,0.5-0.3,0.7-0.5c0,0-1.2,4.2,3,6.2c1.3,0.7,15.7,8.2,15.7,8.2s1.5,2.7,0.6,6.5
				c-0.2,0.6-0.4,1.1,0.2,1.5c1,0.7,2.6,2.7,3.8,6c0,0,2.9-1.3,2.9-3.3c0-1.9-1.2-3-1.5-4.4c-0.2-1.3-1-4.7-0.6-5.7
				c0.4-1.1,2.1-1.5,2.8-1.9c0.7-0.4,1.5,0.4,1.3,1.3c-0.1,1-0.8,0.8-1.6,1c0,0,1,1.9,0.8,3.4l9.4,4.8c0,0-1.2,1.6-1.6,2.3
				c-0.5,0.7-1.4,10.2-4.2,14.7c-2.7,4.5-3.7,3.3-4.2,3.9c-0.6,0.5-1.4,1.3-2.1,1.9c-0.6,0.5-3.8,0.8-4.5-0.9
				c-0.7-1.6-1.2-2.6-3.2-4.2c-1.9-1.5-5.9-5.4-5.9-7.1c0,0-2.3,6.7-2,12.3c0,0-8.4,1.7-16.2,1.9c-7.6,0.1-11.5-1.5-11.5-1.5
				s-1-6.4-0.6-7.6c0,0-1.2,4.2-2,5.6c-1.1,1.7-2.2,5.3-4.4,5.5c-2.2,0.1-4-2.1-4.3-3.1v-6.7h-8.6c0-0.1-3.8,1.4-5.1,1.2
				c-1.2-0.1-1.8-1.2-0.8-1.6l0.4-0.3c-1.1,0-2.5,0.7-2.5,0.7H402c0-0.1,0.1-0.4,0.1-0.5c0.3-1.2,2.5-2.2,4.3-2.9
				c1.6-0.6,3.4-1.3,4.6-1.4c1.9-0.2,3.3-0.1,6.2,0.4c0.8,0.1,4,0.4,5.8,1.3c0.5,0.3,1.1,0.4,0.8-0.9c-0.3-1.4-1.2-5.6,0.3-8.3
				c1-1.9,0.9-3.6,0.8-5.2c-0.2-1.7-1.1-5.6-1.1-7.3c0-5.7,4.4-8,8.2-9.3c4.3-1.3,7.1-2.7,6.9-5.3
				C438.8,171.5,439.5,167.2,439.1,165.1"/>
			<g>
				
					<radialGradient id="SVGID_4_" cx="66.054" cy="639.8973" r="0.5" gradientTransform="matrix(20.0231 0 0 -21.9609 -875.0754 14216.0293)" gradientUnits="userSpaceOnUse">
					<stop  offset="0" style="stop-color:#952D1A"/>
					<stop  offset="1" style="stop-color:#570A00"/>
				</radialGradient>
				<path class="st40" d="M456.3,153.6c0.9,3.4,1.1,4.2,1.1,5.3c0,1.2-0.5,1.4-0.1,2.7c0.7,2.4-0.7,5.1-2.4,7.9
					c-0.8,1.3-1.4,3.1-2.7,3.9c-3.4,2.1-7.4-0.4-9.6-1.3c-1.1-0.5-1.7-1.3-2-2.1c-0.4-1.2-0.5-2.3-0.8-4c0-0.3,0.1-1.2-0.6-0.9
					c-1.2-1.4-1-2-1.5-3.1c-0.5-1,0.9-2.1,2-1.9c-0.6-1.9-0.9-4.1-0.3-5.9c0.2-0.6-0.5-2.2,0.5-1.8c4.6,1.8,10,1.4,14.9,1.4
					c0.4,0,0.7-0.8,1.3-0.7C456.1,153.1,456.2,153.4,456.3,153.6"/>
				<path class="st32" d="M456.8,155.4c0.5-0.4,0.2-2.3-0.3-4.4c-0.2-1-1-1.4-2.1-2.5c-1.1-1.1-1.5-1.1-2.2-1.4
					c-0.6-0.2-2-0.2-2.7-0.5c-0.6-0.3-2.2-0.1-3.8,0.1c-2,0.3-3.2,0.2-4.7,1c-1.5,0.8-2.7,1.7-3.3,3.3c-0.4,1.1-1.1,2.5-0.8,6.8
					c0.2,4.3,1,3.5,1,3.5s1.1-1.6,1.8-0.6c0,0-0.1-2.2-0.3-3.6c-0.1-1.2,0-2.7,0.5-4.6c0,0,4.7,1.7,9.1,1.7c3.1,0,7-0.3,7.1-1
					L456.8,155.4L456.8,155.4L456.8,155.4z"/>
				<path class="st12" d="M450.4,160.1c0.6,1.7,0.1,1.2,0.4,2.3"/>
				<path class="st12" d="M440.6,164.5c0,0.8-0.6,0.6-1,0.6"/>
				<path class="st12" d="M456.9,158.8c-0.9-0.7-2.6-0.2-3.5,0.1c-1.5,0.7-0.7,2.2-0.2,3.7c0.2,0.7,1,1.7,0.5,2.4
					c-0.4,0.8-0.7,0.4-1.6,0.5c0.1-0.3-0.8,0-1.1,0c-0.6-0.1-0.9,0.4-1.4,0.2c-0.6-0.3-0.5-1.2-0.3-1.7"/>
				<path class="st12" d="M449.3,159.5c0-0.4-1.3-0.8-2.7-0.9c-2.2-0.1-2.4,0.1-4.2,1.3"/>
				<path class="st12" d="M453.9,168.9c-0.4-0.6-1-0.9-2.1-0.4c0-0.2-1.5-0.4-1.5-0.4c-0.8,0-1.3,0.3-2.1,0.7"/>
				<path class="st12" d="M453.7,169.4c-0.9-0.6-3.3-0.2-5.6-0.2"/>
				<path class="st12" d="M448.3,170c1.7,0.5,3.5,0.8,5.2,0"/>
				<path class="st34" d="M456.4,160.1c-0.7-0.1-1-0.9-3.2,0.3c-1.1,0.6,1.8,1.4,1.4,1.3c1.2,0.2,1.6-0.5,1.7-1.1
					C456.4,160.4,456.6,160.1,456.4,160.1L456.4,160.1z"/>
				<path class="st34" d="M448.1,160.9c0-0.8-1.8-1.1-2.8-0.8c-1,0.3-0.6,0.1-1.5,0.6c1,0.2,0.7,0.3,1.5,0.7
					c0.9,0.4,1.1,0.8,2.3,0.2c0.3-0.1,0.7-0.5,0.8-0.9C448.3,160.8,448.2,161,448.1,160.9L448.1,160.9z"/>
				<path class="st35" d="M455.1,161.4c-0.5,0-0.8-0.4-0.8-0.8c0-0.5,0.3-0.9,0.8-0.9c0.4,0,0.7,0.4,0.7,0.9
					C455.8,161,455.5,161.4,455.1,161.4z"/>
				<path class="st35" d="M446.4,161.6c-0.4,0-0.7-0.4-0.7-0.9c0-0.5,0.4-0.8,0.8-0.8s0.7,0.3,0.7,0.8
					C447.2,161.2,446.9,161.6,446.4,161.6z"/>
			</g>
			<g transform="matrix(-1,0,0,1,748.81578,0)">
				<g id="body_1_">
					<g>
						<path class="st12" d="M403,213.7c0.6-0.7,1-1,1.8-1.3c0.6-0.3,1.4-0.7,2-1c0.7-0.4,1.7-0.5,2.3-0.9"/>
						<path class="st12" d="M408.8,213.1c0.3-0.2,0.5-0.3,0.8-0.5c0.3-0.1,0.7-0.1,1-0.2c0.1,0,0.1-0.2,0.2-0.2
							c0.9-0.1,1.8-0.5,2.4-1.3"/>
						<path class="st12" d="M476,201.4c-0.9,0.7-3.2,2.2-3.4,5.2c-0.2,1.5-1,3.1-1,3.1"/>
						<path class="st12" d="M484.8,201.9c-0.5,1.7-0.6,7.4-6,13.4"/>
						<path class="st12" d="M483.7,193.9c0.4,1.1,0.9,2.1-0.2,3"/>
						<path class="st12" d="M469.1,207.6c-1.1-2.5-4.6-2.3-4.6-4.8"/>
						<path class="st12" d="M464,207.2c0.3-2.8,0.9-4.5,0.4-8.6c-0.2-1.2-0.4-5.9,0-8.1c0,0-1.6,7.8,3.7,9.4"/>
						<path class="st12" d="M433.7,212.3c0-4-0.9-6.2-0.9-6.2c-1.2-5.6,1.1-7.7,0.2-9.2c-0.8-1.2-2-3.8-0.4-8.9
							c0,0-2.8,10.5,4.5,10.5c7.4,0,7.1-2.7,7.1-2.7"/>
						<path class="st12" d="M464.4,190.5c0,2.1,0,8.4-9.1,8.4c-2.7,0-5.7-1.9-7.3-3.3"/>
						<path class="st12" d="M445.8,192.9c0.3-1.9,0.3-4.4,0.3-6.9"/>
						<path class="st12" d="M459.7,182.5c-2.4-0.3-4.4-0.6-9-0.6"/>
						<path class="st12" d="M450.5,175.6c-0.5,2.2,0.3,5.8-3.9,6.3"/>
						<path class="st12" d="M442.2,174.8c0.6,1.6,0.6,3.3,0.8,4.4"/>
						<path class="st12" d="M442.8,181.9c-1.7,0-5-1.1-9.1-0.3"/>
						<path class="st12" d="M432.4,204.4c-0.8,1.6-1,3.8-3.6,6.2"/>
						<path class="st12" d="M460.5,199.2c-0.2,1.3,1.7,5.7,0.3,9.3c-1.3,3.6-1.1,7.6,1.1,11.1"/>
						<path class="st12" d="M455.4,200.5c0.8,1.6,2.2,3.3,2.5,4.7"/>
						<path class="st12" d="M451.3,203.6c0,1,2.7,8.7,4.7,10.9c0,0-3.6,1.4-3.1,6.6"/>
						<path class="st12" d="M445.6,200c0,1.3,0.2,1.6-0.9,2.4"/>
						<path class="st12" d="M442.2,202.5c-1.3,1.6-5.5,6.5-4.6,9.3"/>
						<path class="st12" d="M445,205.2c-0.3,1-0.3,6.3,0.6,9"/>
						<path class="st12" d="M447.7,214c1.1,0,2.7,0.8,3.1,2.7"/>
						<path class="st12" d="M442,213.7c-1.1-0.3-3.4,1.6-3.4,7.1"/>
						<path class="st12" d="M423,210.5c2.1,0.6,3.1,1.7,2.4,1.1c1.1,0.9,2.1,1.5,2.1,1.5"/>
					</g>
					<path class="st35" d="M459,198c-0.6,0-1.1-0.4-1.1-0.9c0-0.4,0.5-0.8,1.1-0.8c0.5,0,1,0.4,1,0.8C460,197.6,459.5,198,459,198z"
						/>
					<path class="st35" d="M435.9,198.3c-0.5,0-1-0.4-1-0.9c0-0.5,0.5-0.8,1-0.8c0.6,0,1.1,0.3,1.1,0.8
						C437,197.9,436.5,198.3,435.9,198.3z"/>
					<path class="st14" d="M468.3,239.8c-1.2-7.9-5-14.6-5.1-15.2c0,0-3.9,0.8-10.6,1.4c-6.6,0.7-8.4,0.4-11.5,0.2
						c-2.9-0.3-6.8-0.8-6.8-0.8s-1.2,2.4-1.3,4.9c-0.3,5.2-2.2,27.7-2.4,33.7c0,0-0.8,3.6-0.8,12.3c0,9.6-2.6,29-2.6,39.4l2.6,0.5
						c0,0,14.4,1.1,14.4-0.8c0-2.1,0.8-27.1-1.3-42.1c0,0,0.5-3,1.3-5.5c0.8-2.4,4.4-10.1,4.4-11.7c0,0,5.7,16.1,6,18.8
						c0.3,2.5,1.1,38.4,1.6,41.3c0,0,8.2,6.3,9.4,6.9c1.1,0.5,9.1-3.4,9.3-4.4c0.3-1.1-0.8-13.2-4.6-33.2c-1.4-7.1-0.6-8.4-0.6-10.4
						C469.6,273.3,469.5,247.8,468.3,239.8L468.3,239.8L468.3,239.8z"/>
					<g>
						<path class="st12" d="M454.5,274.9c0.6,2.2,1.6,4.4,3.6,5.8"/>
						<path class="st12" d="M460.9,227.1c0.3,1.3,2.2,7.3,7.1,10.9"/>
						<path class="st12" d="M453.7,228.2c1.1,3.6,5.5,22.7,6.3,45.4"/>
						<path class="st12" d="M460.3,280.7c0.2,2.1,1.3,18,1.6,20.8"/>
						<path class="st12" d="M462.8,304.5c0.5,1.1,2.7,10.4,2.7,18.6"/>
						<path class="st12" d="M433.3,287.2c0.2,1.9,1,15.7-3.6,28"/>
						<path class="st12" d="M448.2,229.2c0.3,2.2,0.8,16.7,0.8,17.8c0,1.1-1.6,2.7-2.4,3.1c0,0,1.6,0.5,1.9,6"/>
						<path class="st12" d="M452.6,243.2c0.3,1.7,1.9,8.5,3.1,11.3"/>
						<path class="st12" d="M442.5,229c0,0-4.9,1-5.2,0c0,0-1.6,29.5-3.9,45.9"/>
						<path class="st12" d="M444.7,232.8c0,1.9,0.6,16.5,0.6,16.5"/>
						<path class="st12" d="M442.8,251.4c0,0-1.9,2.7-1.4,4.1"/>
						<path class="st12" d="M459.2,227.4c-1.6,0.5-3.1,0.8-3.1,0.8"/>
						<path class="st12" d="M451,229.8c0.3,0.8,0.6,4.6,0.6,4.6"/>
						<path class="st12" d="M442.8,273.3c-0.6,0.8-1.4,1.9-0.8,4.4"/>
					</g>
					<path class="st36" d="M463.9,224.4c0,0,0-3.3-1.2-4.9c0,0-3.5,0.7-8.3,1.2c-5,0.5-9,0.9-12.6,0.5c-3.7-0.4-7.4-1.3-7.4-1.3
						s-1,4.8-0.5,5.5c0,0,4,0.8,8.3,1c4.5,0.3,11.9-0.4,14.4-0.8C459.9,225.3,462.9,224.7,463.9,224.4z"/>
					<path class="st14" d="M460.8,224.9l-0.6-4.9l-1,0.1l0.2,5.1L460.8,224.9"/>
					<path class="st14" d="M438.7,220.8l-0.1,5.5l-1.2-0.2l0.1-5.6L438.7,220.8"/>
					<path class="st14" d="M454.3,220.8l0.4,5.3H454l-0.7-5.3H454.3"/>
					<g>
						<path class="st6" d="M472,320.8c0.3,1.3,0.8,3.2,1,5.5c0,0.5,0.5,3.3-1,3.4c-1.1,0.1-1.4-2.8-1.4-2.8s1,3.3-0.3,3.7
							c-1.8,0.4-2-3.6-2-3.6c0.2,1.1,1.4,4-0.3,4.3c-1.8,0.3-2.3-3.9-2.3-3.9s1.5,4.2-0.3,4.3c-1.7,0.1-1.7-4.1-1.7-4.1
							s0.9,5-1.5,4.6c-1.3-0.2-1.6-1.9-1.9-3c-0.4-1.5-1.3-3.5-0.2-6.6c0.8-2.3,0.5-3,0.5-3s2.9,2.1,5.1,3.6
							C466.6,323.8,472,320.8,472,320.8L472,320.8z"/>
						<path class="st6" d="M442.3,316.4c0.5-0.3,0.4,1.8,0.6,2.8c0.1,1-0.2,3.3-3.7,3.1c-3.4-0.3-6.7-1-8.9-0.5
							c-2.1,0.6-5.3,0.7-7,0.7c-1.7,0-2.8-0.2-3.7-0.5c-0.7-0.3-2.2,0.4-3,0.4c-0.7,0-1.8-1.1-1.7-1.8c0.1-1.3,1.3-1.3,3.1-1.4
							c1.6-0.2,3.9-0.5,5-0.9c1.1-0.4,3.2-1.5,5.7-2c0,0,4.9,0.2,5.9,0.2C435.7,316.4,441.7,316.7,442.3,316.4L442.3,316.4z"/>
					</g>
				</g>
			</g>
			<g>
				<path class="st6" d="M491.6,193.5c0.5,0.2,1.9-2,0.5-3.1c0,0-0.5-1.9-2.1-2c0,0-1.3-1.9-3.3-1.6c0,0-2.1-1.5-2.9-1.4
					c-0.9,0.2-3,2.2-3.1,2.9c-0.1,0.6,0,1.8,0.5,2.4c0.6,0.5,1-0.1,1.1-1c0,0-0.4,1.5,0.8,2.2c1.2,0.7,1.1,0.1,1.2-0.7
					c0,0,0.3,1.6,1.1,1.9c0.8,0.3,1.3-0.4,1.9-0.4c0,0-1,0.8-0.3,1.3c0.7,0.6,1.5,0.3,2-0.1C489.8,193.6,489.5,192.3,491.6,193.5
					L491.6,193.5z"/>
				<path class="st12" d="M482.5,189.8c0.5-1.7,2.2-3.2,4.1-2.8"/>
				<path class="st12" d="M484.4,191.3c0.2-0.4,0.3-0.8,0.6-1.2c0.9-1.5,2.9-1.5,4.6-1.8"/>
				<path class="st12" d="M487.1,192.7c0.6-0.4,0.8-1.1,1.4-1.4c1-0.5,2.1-0.9,3.3-0.7"/>
				<path class="st41" d="M482.3,186.8c-0.9,0.7-1.8,1.8-1.9,2.3c-0.1,0.6,0,1.8,0.5,2.4c0.6,0.5,0.9,0,1.1-0.8
					c-0.1,0.5-0.1,1.5,0.8,2c1.2,0.7,1.1,0.1,1.2-0.7c0,0,0.3,1.6,1.1,1.9c0.8,0.3,1.3-0.4,1.9-0.4c0,0-1,0.8-0.3,1.3
					c0.7,0.6,1.5,0.3,2-0.1c0.6-0.4,0.3-1.7,2.4-0.5c0.3,0.1,0.8-0.5,1-1.2l-7.7-5.5L482.3,186.8L482.3,186.8z"/>
				<path class="st12" d="M480.7,188.2c-1.5,2.6,0.5,4.1,1.2,2.6c-0.2,2.4,1.6,2.3,2.3,1.5c0.7,2.5,1.8,1.4,2.9,1.2
					c-1.2,2.3,1.5,1.6,2.1,1.1c0.9-1.4,1.4-0.3,2-0.4l1.2-1.2"/>
				<path class="st12" d="M484.4,187.2c-1.7,0.9-2.5,2.1-2.5,3.7"/>
				<path class="st12" d="M486.7,188.7c-1.7,0.9-2.5,2.1-2.5,3.7"/>
				<path class="st12" d="M489.6,190.7c-1.7,0.9-1.8,1.7-2.5,2.8"/>
			</g>
		</g>
		<g>
			<path class="st42" d="M290.1,323.7l-0.2-4.7l1.9,1.6l0.5-3.6c0.8-0.2,2.1,1.4,2.1,1.4l-0.2-3.6l3,3.3c0,0-0.2-2.7,0.8-4.4
				c0,0,2.2,1.9,2.2,4.2c0,1.9,1.9-2.7,1.9-2.7c0.5,1.6,1.6,5.2,1.6,5.2l1.3-1.9l1.1,4.1l2.4-3.6l1.9,4.2l4.4-0.3l0.5,2.4l1.9-2.1
				l2.5,1.6c0,0,2.1-0.6,3.3-0.6s2.4,1.4,2.4,1.4s0.8-1.4,1.6-1.9c0.8-0.5,1.9,0.8,2.2,1.6l1.6-3c0,0,2.1,2.1,2.4,3
				c0,0,0.3-2.4,0.8-3.3c0.5-0.8,1.3,0.3,1.9,1.3l1.3-4.4c0,0,1.4,0.3,2.4,1.9c1.1,1.6,1.1-2.4,1.1-2.4s2.4,3.3,3.1,5.5
				c0,0-16.8,5.8-28.7,4.2C301.6,326.3,290.1,323.7,290.1,323.7"/>
			<path class="st42" d="M405.6,323.1c0,0,0.8-2.2,1.9-3.4c0,0,2.1,2.5,2.1,3.4c0,0,0.6-0.3,1.7-1.1l1.6,1.6l1.9-1.3l1.8,1.6
				l3.4-1.4l1.3,1.4l5.2-0.6l1.9,0.8l1.8-2.3l1.7,1.8l2.7-2.7c0,0,1.3,1.1,1.6,1.9c0,0,2.2-1.1,2.7-1.9c0,0,2.1-0.8,2.4,0.5
				c0,0,1.3-1,1.2-2.1c-0.1-1.1,1.5-0.3,2,1.1c0,0,0.6-2.2,2.2-2.4c0,0,1.1,1.3,0.8,3.8c0,0,2.4-1.9,3.6-2.1c0,0,0.5,2.7-0.3,5.2
				c0,0,2.5-4.2,3.1-2.7c0.2,0.8,0.8,3.6,0.2,5.5l2.2-1.4l0.8,2.7l2.4-0.5c0,0-14.4,2.2-28,0.9C418.3,328,405.6,323.2,405.6,323.1"
				/>
			<path class="st42" d="M395.5,333.2c0.7-0.4-4.5,10.7-17.2,11.3c-17.6,0.8-32.6-7.9-32.6-7.9s1.8-3.1,2.9-3.9c0,0,2.4,1.9,3.3,4.4
				c0,0,0.3-1.6,1.1-3.1c0,0,3.1,1.4,3.6,3.4c0,0,1.1-1.9,1.9-2.4c0.8-0.6,1.6,2.1,1.6,3.8c0,0,1.9-2,3.1-2.1c0,0,2.1,1,2.7,4.6
				c0,0,2-1.9,2.7-1.6c0,0,2.4,1.6,1.8,3.9c-0.3,1.2,2.4-1.4,5.8-2.2l2.9,2.2c0,0,2.7-3.7,3.6-4.9c0,0,2.2,0.8,2.2,2.1
				c0,0,1-3.9,1.8-4.3c0.8-0.5,1.9,1.2,1.9,2.3c0,0,0.3-3,1.9-3.6c0,0,1.6,1.1,1.6,2.2C392.5,337.4,394.2,334.1,395.5,333.2
				L395.5,333.2z"/>
		</g>
		<g>
			<path class="st43" d="M290.1,323.7l-0.2-4.7l1.9,1.6l0.5-3.6c0.8-0.2,2.1,1.4,2.1,1.4l-0.2-3.6l3,3.3c0,0-0.2-2.7,0.8-4.4
				c0,0,2.2,1.9,2.2,4.2c0,1.9,1.9-2.7,1.9-2.7c0.5,1.6,1.6,5.2,1.6,5.2l1.3-1.9l1.1,4.1l2.4-3.6l1.9,4.2l4.4-0.3l0.5,2.4l1.9-2.1
				l2.5,1.6c0,0,2.1-0.6,3.3-0.6s2.4,1.4,2.4,1.4s0.8-1.4,1.6-1.9c0.8-0.5,1.9,0.8,2.2,1.6l1.6-2.9c0,0,2.1,2.1,2.4,2.9
				c0,0,0.3-2.4,0.8-3.3c0.5-0.8,1.3,0.3,1.9,1.3l1.3-4.4c0,0,1.4,0.3,2.4,1.9c1.1,1.6,1.1-2.4,1.1-2.4s2.4,3.3,3.1,5.5"/>
			<path class="st43" d="M405.6,323.1c0,0,0.8-2.2,1.9-3.4c0,0,2.1,2.5,2.1,3.4c0,0,0.6-0.3,1.7-1.1l1.6,1.6l1.9-1.3l1.8,1.6
				l3.4-1.4l1.3,1.4l5.2-0.6l1.9,0.8l1.8-2.3l1.7,1.8l2.7-2.7c0,0,1.3,1.1,1.6,1.9c0,0,2.2-1.1,2.7-1.9c0,0,2.1-0.8,2.4,0.5
				c0,0,1.3-1,1.2-2.1c-0.1-1.1,1.5-0.3,2,1.1c0,0,0.6-2.2,2.2-2.4c0,0,1.1,1.3,0.8,3.8c0,0,2.4-1.9,3.6-2.1c0,0,0.5,2.7-0.3,5.2
				c0,0,2.5-4.2,3.1-2.7c0.2,0.8,0.8,3.6,0.2,5.5l2.2-1.4l0.8,2.7l2.4-0.5"/>
			<path class="st43" d="M345.7,336.6c0,0,1.8-3.1,2.9-3.9c0,0,2.4,1.9,3.3,4.4c0,0,0.3-1.6,1.1-3.1c0,0,3.1,1.4,3.6,3.4
				c0,0,1.1-1.9,1.9-2.4c0.8-0.6,1.6,2.1,1.6,3.8c0,0,1.9-2,3.1-2.1c0,0,2.1,1,2.7,4.6c0,0,2-1.9,2.7-1.6c0,0,2.4,1.6,1.8,3.9
				c-0.3,1.2,2.4-1.4,5.8-2.2l2.9,2.2c0,0,2.7-3.7,3.6-4.9c0,0,2.2,0.8,2.2,2.1c0,0,1-3.9,1.8-4.3c0.8-0.5,1.9,1.2,1.9,2.3
				c0,0,0.3-3,1.9-3.6c0,0,1.6,1.1,1.6,2.2c0,0,1.7-3.4,3.1-4.2"/>
		</g>
	</g>
	<g id="motto">
		<g>
			<path class="st2" d="M374.4,377c22.9,0.2,36.4-8.1,43.9-13.1c17.4-11.7,21.1-12.1,23.9-11.9c3.3,0.3,8,1.4,8.2,4.3
				c0.3,4.4-6.8,6.3-10.9,6.3c-4.2,0-15.1-2.7-15.1-2.7l-2.9,1.9c1.9,0.9,24.2,8.3,28.5,1.3c4.4-7.1,8.7-18.6,8.7-18.6
				s-4.9-8.8-15.8-8.8c-11,0-21.7,6.9-28.8,12.1c-7.1,5.2-16.1,12.3-39.9,12.3c-23.8,0-32.9-7.1-40-12.3
				c-7.1-5.2-17.8-12.1-28.7-12.1c-11,0-15.9,8.8-15.9,8.8s4.4,11.5,8.7,18.6c4.3,7,26.6-0.4,28.5-1.3l-2.7-1.9c0,0-11,2.7-15.1,2.7
				c-4.2,0-11.3-1.9-11-6.3c0.2-2.9,5-4,8.2-4.3c2.8-0.2,6.5,0.2,23.9,11.9C337.9,368.8,351.4,376.9,374.4,377"/>
			<path class="st2" d="M337.6,350c0,0,0-1.9-0.3-4.8c-0.4-3.7-2.5-4.6-4.3-4.1c-1.1,0.4-3.4,3.2-3.4,3.2v0.1c-1-0.7-2-1.3-3.2-1.9
				c0.8-0.9,5.5-3.8,6.6-3.8c1,0,15.1,5.7,19.5,9.6c1.1,1,1.9,7.3,1.3,9.4C346.5,355.7,341.6,352.9,337.6,350L337.6,350"/>
			<path class="st2" d="M330.9,364.3c0,0-3.1,3.1-3.2,8.6c-0.1,6.6,4.7,6.9,7.8,6.8c3.8-0.1,6.8-2.2,6.7-9.3
				C342.3,370.5,336.1,367.8,330.9,364.3"/>
			<path class="st2" d="M411.2,350c0,0,0.1-1.9,0.4-4.8c0.4-3.7,2.4-4.6,4.2-4.1c1.1,0.4,3.4,3.2,3.4,3.2v0.1c1-0.7,2-1.3,3.2-1.9
				c-0.8-0.9-5.5-3.8-6.5-3.8c-1.1,0-15.2,5.7-19.6,9.6c-1,1-1.8,7.3-1.3,9.4C402.4,355.7,407.2,352.9,411.2,350L411.2,350"/>
			<path class="st2" d="M417.9,364.3c0,0,3.1,3.1,3.2,8.6c0.2,6.6-4.7,6.9-7.8,6.8c-3.8-0.1-6.7-2.2-6.7-9.3
				C406.5,370.5,412.7,367.8,417.9,364.3"/>
		</g>
		<g>
			<path class="st44" d="M324.3,359.8c0,0-10.9,2.7-15,2.7c-4.2,0-11.3-1.9-11-6.3c0.2-2.9,5-4,8.2-4.3
				C309,351.7,312.2,352,324.3,359.8"/>
			<path class="st44" d="M424.5,359.8c0,0,10.9,2.7,15.1,2.7c4.1,0,11.2-1.9,10.9-6.3c-0.2-2.9-5-4-8.2-4.3
				C439.8,351.7,436.6,352,424.5,359.8"/>
			<path class="st44" d="M337.6,350.1c-1.1-0.8-2.2-1.6-3.3-2.4c-1.5-1.1-3.1-2.1-4.7-3.3c0,0,2.2-2.9,3.4-3.2
				c1.7-0.6,3.9,0.3,4.3,4C337.6,348.1,337.6,350.1,337.6,350.1"/>
			<path class="st44" d="M330.2,378.8c1.9,1.1,4.1,1,5.4,0.9c3.8-0.1,6.8-2.2,6.7-9.3c0,0,4.7,2.3,12.3,4.2c0,0,1.2,1.5,1.4,4.6
				c0.3,2.5-1.4,5.3-3.5,5.1c0,0-10.7-1.9-17.2-3.1C331.6,380.5,330.2,378.8,330.2,378.8"/>
			<path class="st44" d="M411.2,350.1c1.1-0.8,2.2-1.6,3.4-2.4c1.4-1.1,3-2.1,4.6-3.3c0,0-2.2-2.9-3.4-3.2c-1.7-0.6-3.8,0.3-4.2,4
				C411.3,348.1,411.2,350.1,411.2,350.1"/>
			<path class="st44" d="M418.6,378.8c-1.9,1.1-4.1,1-5.4,0.9c-3.8-0.1-6.7-2.2-6.7-9.3c0,0-4.7,2.3-12.2,4.2c0,0-1.3,1.5-1.5,4.6
				c-0.2,2.5,1.5,5.3,3.5,5.1c0,0,10.8-1.9,17.2-3.1C417.2,380.5,418.6,378.8,418.6,378.8"/>
		</g>
		<g>
			<path class="st45" d="M374.4,377c22.9,0.2,36.4-8.1,43.9-13.1c17.4-11.7,21.1-12.1,23.9-11.9c3.3,0.3,8,1.4,8.2,4.3
				c0.3,4.4-6.8,6.3-10.9,6.3c-4.2,0-15.1-2.7-15.1-2.7l-2.8,1.9c1.9,0.9,24.2,8.3,28.5,1.3c4.4-7.1,8.7-18.6,8.7-18.6
				s-4.9-8.8-15.8-8.8c-11,0-21.7,6.9-28.8,12.1c-7.1,5.2-16.1,12.3-39.9,12.3c-23.8,0-32.9-7.1-40-12.3
				c-7.1-5.2-17.8-12.1-28.7-12.1c-11,0-15.9,8.8-15.9,8.8s4.4,11.5,8.7,18.6c4.3,7,26.6-0.4,28.5-1.3l-2.7-1.9c0,0-11,2.7-15.1,2.7
				c-4.2,0-11.3-1.9-11-6.3c0.2-2.9,5-4,8.2-4.3c2.8-0.2,6.5,0.2,23.9,11.9C337.9,368.8,351.4,376.9,374.4,377L374.4,377z"/>
			<path class="st45" d="M324.3,359.8c0,0-10.9,2.7-15,2.7c-4.2,0-11.3-1.9-11-6.3c0.2-2.9,5-4,8.2-4.3
				C309,351.7,312.2,352,324.3,359.8L324.3,359.8z"/>
			<path class="st45" d="M424.5,359.8c0,0,10.9,2.7,15.1,2.7c4.1,0,11.2-1.9,10.9-6.3c-0.2-2.9-5-4-8.2-4.3
				C439.8,351.7,436.6,352,424.5,359.8L424.5,359.8L424.5,359.8z"/>
			<path class="st45" d="M337.6,350.1c-1.1-0.8-2.2-1.6-3.3-2.4c-1.5-1.1-3.1-2.1-4.7-3.3c0,0,2.2-2.9,3.4-3.2
				c1.7-0.6,3.9,0.3,4.3,4C337.6,348.1,337.6,350.1,337.6,350.1L337.6,350.1z"/>
			<path class="st45" d="M337.6,350c0,0,0-1.9-0.3-4.8c-0.4-3.7-2.5-4.6-4.3-4.1c-1.1,0.4-3.4,3.2-3.4,3.2v0.1c-1-0.7-2-1.3-3.2-1.9
				c0.8-0.9,5.5-3.8,6.6-3.8c1,0,15.1,5.7,19.5,9.6c1.1,1,1.9,7.3,1.3,9.4c-7.5-1.9-12.4-4.8-16.4-7.5"/>
			<path class="st45" d="M330.9,364.3c0,0-3.1,3.1-3.2,8.6c-0.1,6.6,4.7,6.9,7.8,6.8c3.8-0.1,6.8-2.2,6.7-9.3
				C342.3,370.5,336.1,367.8,330.9,364.3L330.9,364.3L330.9,364.3z"/>
			<path class="st45" d="M333.4,365.8c0,0-2.4,2.5-2.8,6.7c-0.2,3.3,1.9,5.1,4.7,4.9c3.9-0.2,5.4-5.5,3.6-8.4L333.4,365.8"/>
			<path class="st45" d="M330.2,378.8c1.9,1.1,4.1,1,5.4,0.9c3.8-0.1,6.8-2.2,6.7-9.3c0,0,4.7,2.3,12.3,4.2c0,0,1.2,1.5,1.4,4.6
				c0.3,2.5-1.4,5.3-3.5,5.1c0,0-10.7-1.9-17.2-3.1C331.6,380.5,330.2,378.8,330.2,378.8L330.2,378.8z"/>
			<path class="st45" d="M411.2,350.1c1.1-0.8,2.2-1.6,3.4-2.4c1.4-1.1,3-2.1,4.6-3.3c0,0-2.2-2.9-3.4-3.2c-1.7-0.6-3.8,0.3-4.2,4
				C411.3,348.1,411.2,350.1,411.2,350.1L411.2,350.1L411.2,350.1L411.2,350.1z"/>
			<path class="st45" d="M411.2,350c0,0,0.1-1.9,0.4-4.8c0.4-3.7,2.4-4.6,4.2-4.1c1.1,0.4,3.4,3.2,3.4,3.2v0.1c1-0.7,2-1.3,3.2-1.9
				c-0.8-0.9-5.5-3.8-6.5-3.8c-1.1,0-15.2,5.7-19.6,9.6c-1,1-1.8,7.3-1.3,9.4c7.6-1.9,12.4-4.8,16.4-7.5"/>
			<path class="st45" d="M417.9,364.3c0,0,3.1,3.1,3.2,8.6c0.2,6.6-4.7,6.9-7.8,6.8c-3.8-0.1-6.7-2.2-6.7-9.3
				C406.5,370.5,412.7,367.8,417.9,364.3L417.9,364.3L417.9,364.3z"/>
			<path class="st45" d="M415.3,365.8c0,0,2.4,2.5,2.8,6.7c0.3,3.3-1.9,5.1-4.7,4.9c-3.9-0.2-5.3-5.5-3.6-8.4L415.3,365.8"/>
			<path class="st45" d="M418.6,378.8c-1.9,1.1-4.1,1-5.4,0.9c-3.8-0.1-6.7-2.2-6.7-9.3c0,0-4.7,2.3-12.2,4.2c0,0-1.3,1.5-1.5,4.6
				c-0.2,2.5,1.5,5.3,3.5,5.1c0,0,10.8-1.9,17.2-3.1C417.2,380.5,418.6,378.8,418.6,378.8L418.6,378.8z"/>
		</g>
		<g>
			<path class="st46" d="M353.8,376.5c0,0,3.4,2.4-0.7,5.5"/>
			<path class="st46" d="M343.7,374.8l10.3,4.5"/>
			<path class="st46" d="M345.4,377.2l7.5,3.3"/>
			<path class="st46" d="M348.1,375.2l5.7,2.5"/>
			<path class="st46" d="M395.1,376.5c0,0-3.5,2.4,0.6,5.5"/>
			<path class="st46" d="M405.1,374.8l-10.3,4.5"/>
			<path class="st46" d="M403.4,377.2l-7.5,3.3"/>
			<path class="st46" d="M400.7,375.2l-5.6,2.5"/>
		</g>
		<g>
			<path class="st47" d="M313.6,345.2c0.1,0.2,0.2,0.5,0.3,0.7c0,0.3,0,0.5,0,0.9c-0.1,0.8-0.5,1.3-1.2,1.7
				c-0.7,0.4-1.4,0.5-2.3,0.3c-0.4-0.1-0.8-0.2-1.1-0.4c-0.4-0.2-0.7-0.4-0.9-0.6c-0.1,0.1-0.2,0.3-0.3,0.4c-0.2,0-0.3-0.1-0.5-0.1
				c0.2-1,0.3-2,0.5-3c0.2,0,0.3,0.1,0.5,0.1c0,0.4,0.1,0.7,0.2,1c0.1,0.3,0.2,0.6,0.4,0.9c0.2,0.3,0.4,0.5,0.6,0.7
				c0.3,0.2,0.6,0.3,0.9,0.4c0.3,0.1,0.5,0.1,0.8,0c0.2,0,0.4-0.1,0.6-0.2c0.2-0.1,0.3-0.2,0.4-0.4c0.1-0.2,0.2-0.4,0.2-0.6
				c0.1-0.3,0-0.7-0.1-1c-0.1-0.3-0.4-0.6-0.7-0.8c-0.2-0.2-0.5-0.3-0.8-0.5c-0.3-0.2-0.6-0.4-0.8-0.5c-0.4-0.3-0.8-0.7-1-1.1
				c-0.2-0.4-0.3-0.9-0.1-1.5c0.1-0.3,0.2-0.6,0.4-0.9c0.2-0.3,0.4-0.5,0.7-0.6c0.3-0.2,0.6-0.3,0.9-0.3c0.3-0.1,0.7,0,1,0
				c0.4,0.1,0.8,0.2,1,0.4c0.3,0.2,0.6,0.4,0.8,0.6c0.1-0.1,0.2-0.2,0.3-0.4c0.2,0,0.3,0.1,0.5,0.1c-0.2,1-0.3,1.9-0.5,2.9
				c-0.2,0-0.3-0.1-0.5-0.1c0-0.3-0.1-0.7-0.1-1c-0.1-0.3-0.2-0.6-0.3-0.9c-0.1-0.3-0.3-0.5-0.5-0.7c-0.2-0.2-0.5-0.3-0.9-0.4
				c-0.4-0.1-0.7,0-1.1,0.2c-0.3,0.2-0.5,0.5-0.6,0.8c-0.1,0.4,0,0.7,0.1,1c0.1,0.3,0.3,0.5,0.6,0.7c0.3,0.2,0.5,0.4,0.8,0.5
				c0.3,0.2,0.5,0.3,0.8,0.5c0.2,0.1,0.4,0.3,0.6,0.5C313.3,344.8,313.4,345,313.6,345.2"/>
			<path class="st47" d="M326,346.9c-0.1-0.1-0.3-0.1-0.5-0.2c-0.2-0.1-0.4-0.1-0.6-0.1c-0.2,0-0.3,0.1-0.5,0.4
				c-0.2,0.2-0.4,0.5-0.6,0.9c-0.6,1.1-1.2,2.2-1.8,3.3c-0.2,0.4-0.5,0.7-0.9,1c-0.4,0.2-0.7,0.3-1.1,0.4c-0.4,0-0.8,0-1.1-0.1
				c-0.4-0.1-0.7-0.2-1-0.4c-0.5-0.3-0.8-0.5-1.1-0.9c-0.3-0.3-0.5-0.7-0.6-1c-0.1-0.3-0.2-0.7-0.2-1c0-0.3,0.1-0.6,0.3-0.9
				c0.8-1.5,1.7-3,2.5-4.5c0.1-0.1,0.1-0.2,0.1-0.4c0-0.1,0-0.2-0.1-0.4c-0.1-0.1-0.2-0.2-0.3-0.3c-0.1-0.1-0.2-0.2-0.3-0.2
				c0.1-0.1,0.1-0.3,0.2-0.4c1.1,0.6,2.2,1.2,3.2,1.8c-0.1,0.1-0.1,0.3-0.2,0.4c-0.1-0.1-0.2-0.1-0.4-0.2c-0.2-0.1-0.3-0.1-0.4-0.1
				c-0.1,0-0.3,0-0.4,0.1c-0.1,0.1-0.2,0.2-0.2,0.3c-0.8,1.4-1.6,2.8-2.3,4.2c-0.1,0.2-0.2,0.4-0.3,0.7c-0.1,0.2-0.1,0.5-0.1,0.8
				c0,0.3,0.1,0.5,0.3,0.8c0.2,0.3,0.5,0.5,0.9,0.7c0.4,0.2,0.8,0.3,1.1,0.4c0.3,0,0.6,0,0.9-0.1c0.3-0.1,0.5-0.3,0.6-0.4
				c0.2-0.2,0.3-0.4,0.4-0.6c0.6-1,1.2-2.1,1.7-3.1c0.2-0.4,0.4-0.7,0.5-1c0.1-0.3,0.1-0.5,0-0.6c-0.1-0.2-0.2-0.3-0.4-0.5
				c-0.2-0.2-0.3-0.3-0.5-0.4c0.1-0.1,0.1-0.3,0.2-0.4c1.1,0.6,2.1,1.2,3.2,1.7C326.2,346.7,326.1,346.8,326,346.9"/>
			<path class="st47" d="M330.5,354.7c0.1,0.3,0.2,0.6,0.2,0.9c0,0.3-0.1,0.7-0.3,1c-0.2,0.4-0.5,0.6-0.8,0.8
				c-0.3,0.2-0.6,0.3-1,0.3c-0.3,0-0.7,0-1-0.1c-0.4-0.1-0.7-0.2-1-0.4c-1.2-0.7-2.4-1.4-3.6-2.1c0.1-0.1,0.1-0.3,0.2-0.4
				c0.1,0,0.2,0.1,0.4,0.2c0.2,0.1,0.3,0.1,0.4,0.1c0.1,0,0.3,0,0.4-0.1c0.1-0.1,0.2-0.1,0.3-0.3c1-1.8,2.1-3.6,3.1-5.4
				c0.1-0.1,0.1-0.2,0.1-0.4c0-0.1,0-0.2-0.1-0.4c-0.1-0.1-0.2-0.2-0.3-0.3c-0.1-0.1-0.2-0.2-0.3-0.2c0.1-0.1,0.1-0.3,0.2-0.4
				c1.2,0.7,2.4,1.4,3.5,2c0.3,0.2,0.5,0.3,0.7,0.5c0.2,0.2,0.4,0.4,0.6,0.7c0.1,0.2,0.2,0.5,0.2,0.8c0,0.3-0.1,0.6-0.2,0.9
				c-0.2,0.3-0.3,0.5-0.6,0.6c-0.2,0.2-0.5,0.3-0.7,0.3c-0.3,0.1-0.5,0.1-0.8,0c-0.3,0-0.5-0.1-0.8-0.2c0,0,0,0,0,0
				c0.2,0.2,0.4,0.3,0.6,0.6C330.2,354.2,330.4,354.4,330.5,354.7L330.5,354.7z M329.9,352.8c0.2-0.1,0.4-0.2,0.6-0.3
				c0.2-0.2,0.3-0.3,0.5-0.6c0.2-0.4,0.3-0.8,0.2-1.2c-0.1-0.4-0.4-0.7-0.9-1c-0.1-0.1-0.3-0.1-0.4-0.2c-0.2-0.1-0.3-0.2-0.4-0.2
				c-0.6,1-1.1,1.9-1.7,2.9c0.2,0.1,0.5,0.3,0.7,0.4c0.3,0.2,0.6,0.3,0.8,0.3C329.4,352.9,329.7,352.9,329.9,352.8L329.9,352.8z
				 M329.2,355.6c0.3-0.4,0.3-0.9,0.2-1.4c-0.1-0.5-0.5-0.9-1.1-1.2c-0.2-0.1-0.4-0.2-0.6-0.3c-0.2-0.1-0.3-0.1-0.4-0.2
				c-0.5,0.9-1,1.8-1.5,2.7c-0.1,0.2-0.1,0.4,0,0.7c0.1,0.2,0.3,0.4,0.7,0.6c0.5,0.3,1,0.4,1.5,0.2
				C328.5,356.6,328.9,356.2,329.2,355.6L329.2,355.6z"/>
			<path class="st47" d="M348.9,360.1c-0.1,0-0.3-0.1-0.5-0.1c-0.2,0-0.4-0.1-0.6,0c-0.2,0-0.3,0.2-0.5,0.4c-0.2,0.2-0.3,0.6-0.5,1
				c-0.5,1.2-1,2.3-1.5,3.5c-0.2,0.4-0.5,0.8-0.8,1c-0.3,0.2-0.7,0.4-1.1,0.5c-0.4,0.1-0.8,0.1-1.1,0c-0.4-0.1-0.7-0.2-1-0.3
				c-0.5-0.2-0.9-0.5-1.2-0.7c-0.3-0.3-0.6-0.6-0.7-0.9c-0.2-0.3-0.3-0.7-0.3-1c0-0.3,0-0.6,0.2-0.9c0.7-1.6,1.4-3.2,2-4.7
				c0.1-0.1,0.1-0.3,0.1-0.4c0-0.1-0.1-0.2-0.2-0.4c-0.1-0.1-0.2-0.2-0.3-0.3c-0.1-0.1-0.2-0.2-0.3-0.2c0.1-0.1,0.1-0.3,0.2-0.4
				c1.1,0.5,2.3,1,3.4,1.5c-0.1,0.1-0.1,0.3-0.2,0.4c-0.1,0-0.2-0.1-0.4-0.1c-0.2,0-0.3-0.1-0.4-0.1c-0.1,0-0.3,0-0.4,0.1
				c-0.1,0.1-0.2,0.2-0.2,0.3c-0.6,1.5-1.3,3-1.9,4.4c-0.1,0.2-0.2,0.4-0.2,0.7c-0.1,0.3-0.1,0.5,0,0.8c0.1,0.3,0.2,0.5,0.4,0.8
				c0.2,0.2,0.5,0.5,1,0.6c0.4,0.2,0.8,0.3,1.1,0.3c0.3,0,0.6-0.1,0.9-0.2c0.2-0.1,0.4-0.3,0.6-0.5c0.2-0.2,0.3-0.4,0.4-0.6
				c0.5-1.1,0.9-2.2,1.4-3.3c0.2-0.4,0.3-0.8,0.4-1.1c0.1-0.3,0-0.5,0-0.6c-0.1-0.2-0.2-0.3-0.4-0.5c-0.2-0.2-0.4-0.3-0.5-0.3
				c0.1-0.1,0.1-0.3,0.2-0.4c1.1,0.5,2.2,0.9,3.3,1.4C349.1,359.9,349,360,348.9,360.1"/>
			<path class="st47" d="M358.5,371.4c-1.3-0.4-2.5-0.7-3.8-1.1c0-0.1,0.1-0.3,0.1-0.4c0.1,0,0.3,0.1,0.5,0.1c0.2,0,0.4,0,0.5,0
				c0.1,0,0.3-0.1,0.3-0.2c0.1-0.1,0.1-0.2,0.2-0.3c0.6-2,1.2-4.1,1.8-6.1c0,0-0.1,0-0.1,0c-1.6,2.1-3.3,4.2-5,6.3
				c-0.1,0-0.2-0.1-0.3-0.1c-0.2-2.7-0.5-5.4-0.7-8.1c0,0-0.1,0-0.1,0c-0.5,1.7-1,3.3-1.4,5c-0.1,0.5-0.2,0.9-0.2,1.1
				c0,0.3,0,0.5,0.1,0.6c0.1,0.1,0.2,0.2,0.5,0.4c0.3,0.2,0.4,0.2,0.5,0.3c0,0.1-0.1,0.3-0.1,0.4c-1.1-0.3-2.3-0.7-3.4-1
				c0-0.1,0.1-0.3,0.1-0.4c0.2,0,0.4,0.1,0.6,0.1c0.2,0,0.4,0,0.5-0.1c0.2-0.1,0.3-0.2,0.4-0.4c0.1-0.2,0.3-0.6,0.4-1.1
				c0.4-1.4,0.8-2.9,1.2-4.3c0.1-0.2,0.1-0.5,0.1-0.6c0-0.2-0.1-0.3-0.1-0.5c-0.1-0.1-0.2-0.3-0.4-0.4c-0.2-0.1-0.3-0.2-0.5-0.2
				c0-0.1,0.1-0.3,0.1-0.4c1,0.3,1.9,0.6,2.9,0.8c0.2,2.3,0.4,4.7,0.6,7c1.2-1.6,2.4-3.1,3.6-4.7c0.1-0.2,0.3-0.4,0.4-0.6
				c0.1-0.2,0.2-0.3,0.2-0.4c0.9,0.3,1.9,0.5,2.8,0.8c0,0.1-0.1,0.3-0.1,0.4c-0.1,0-0.3,0-0.4-0.1s-0.3,0-0.4,0
				c-0.1,0-0.3,0.1-0.3,0.2c-0.1,0.1-0.1,0.2-0.2,0.3c-0.6,2-1.2,4-1.7,6c0,0.1,0,0.3,0,0.4c0,0.1,0.1,0.2,0.2,0.3
				c0.1,0.1,0.2,0.1,0.4,0.2c0.2,0.1,0.3,0.1,0.4,0.2C358.6,371.1,358.6,371.2,358.5,371.4"/>
			<path class="st47" d="M367.6,368.6c0.2,0.2,0.4,0.5,0.6,0.8c0.1,0.3,0.2,0.6,0.1,1c0,0.4-0.2,0.7-0.4,1c-0.2,0.3-0.5,0.5-0.8,0.6
				c-0.3,0.2-0.6,0.3-1,0.3c-0.4,0.1-0.7,0.1-1.1,0c-1.4-0.2-2.8-0.3-4.2-0.5c0-0.1,0-0.3,0.1-0.4c0.1,0,0.2,0,0.4,0
				c0.2,0,0.3,0,0.4,0c0.1,0,0.2-0.1,0.3-0.2c0.1-0.1,0.1-0.2,0.1-0.4c0.3-2.1,0.5-4.1,0.8-6.2c0-0.1,0-0.3,0-0.4
				c0-0.1-0.1-0.2-0.3-0.3c-0.1-0.1-0.2-0.1-0.4-0.2c-0.2-0.1-0.3-0.1-0.4-0.1c0-0.1,0-0.3,0.1-0.4c1.4,0.2,2.7,0.3,4.1,0.5
				c0.3,0,0.6,0.1,0.9,0.2c0.3,0.1,0.5,0.2,0.8,0.4c0.2,0.2,0.4,0.4,0.5,0.7c0.1,0.3,0.2,0.6,0.1,0.9c0,0.3-0.1,0.6-0.3,0.8
				c-0.1,0.2-0.3,0.4-0.5,0.6c-0.2,0.1-0.4,0.2-0.7,0.3c-0.3,0.1-0.5,0.1-0.8,0.2c0,0,0,0,0,0.1c0.2,0.1,0.5,0.2,0.8,0.3
				C367.1,368.3,367.4,368.4,367.6,368.6L367.6,368.6z M366.3,367.1c0.2-0.2,0.3-0.3,0.4-0.5c0.1-0.2,0.1-0.4,0.2-0.7
				c0.1-0.5,0-0.9-0.3-1.2c-0.2-0.3-0.6-0.5-1.2-0.6c-0.1,0-0.3,0-0.5-0.1c-0.2,0-0.4,0-0.5,0c-0.1,1.1-0.3,2.2-0.4,3.3
				c0.3,0,0.5,0.1,0.8,0.1c0.3,0,0.6,0,0.9,0C365.9,367.4,366.1,367.3,366.3,367.1L366.3,367.1z M366.8,370c0.1-0.5-0.1-1-0.4-1.3
				c-0.3-0.4-0.8-0.6-1.4-0.7c-0.3,0-0.5-0.1-0.7-0.1c-0.2,0-0.3,0-0.4,0c-0.1,1-0.3,2-0.4,3.1c0,0.3,0,0.5,0.2,0.6
				c0.2,0.2,0.5,0.3,0.9,0.3c0.6,0.1,1.1,0,1.5-0.4C366.5,371.2,366.7,370.7,366.8,370L366.8,370z"/>
			<path class="st47" d="M378.7,372.8h-2.4c-0.5-0.8-1-1.5-1.4-2.1c-0.4-0.6-0.9-1.2-1.4-1.8h-0.9v2.8c0,0.1,0,0.3,0.1,0.4
				c0,0.1,0.1,0.2,0.3,0.3c0.1,0,0.2,0.1,0.4,0.1c0.2,0,0.3,0,0.5,0v0.4h-3.7v-0.4c0.1,0,0.2,0,0.4,0c0.2,0,0.3-0.1,0.4-0.1
				c0.1-0.1,0.2-0.1,0.3-0.2c0.1-0.1,0.1-0.2,0.1-0.4v-6.3c0-0.1,0-0.3-0.1-0.4c0-0.1-0.1-0.2-0.3-0.2c-0.1,0-0.2-0.1-0.4-0.1
				c-0.2,0-0.3-0.1-0.4-0.1V364h4.1c0.4,0,0.7,0,1.1,0.1c0.3,0.1,0.6,0.2,0.9,0.4c0.3,0.2,0.5,0.4,0.6,0.6c0.2,0.3,0.2,0.6,0.2,1
				c0,0.3-0.1,0.6-0.2,0.9c-0.1,0.3-0.3,0.5-0.5,0.7c-0.2,0.2-0.4,0.3-0.7,0.5c-0.3,0.1-0.5,0.2-0.9,0.3c0.4,0.6,0.8,1,1.1,1.4
				c0.3,0.4,0.6,0.9,1.1,1.4c0.2,0.2,0.4,0.4,0.5,0.5c0.1,0.1,0.3,0.2,0.4,0.3c0.1,0.1,0.2,0.1,0.4,0.1c0.2,0,0.3,0,0.4,0.1
				C378.7,372.5,378.7,372.6,378.7,372.8z M375.4,366.2c0-0.5-0.2-0.9-0.5-1.3c-0.3-0.3-0.7-0.5-1.3-0.5h-1.1v3.7h0.8
				c0.6,0,1.1-0.2,1.4-0.5C375.2,367.4,375.4,366.9,375.4,366.2L375.4,366.2z"/>
			<path class="st47" d="M388.9,372.1c-1.2,0.1-2.4,0.2-3.7,0.3c0-0.1,0-0.3,0-0.4c0.3,0,0.6-0.1,0.8-0.2c0.2-0.1,0.3-0.2,0.3-0.3
				c0,0,0-0.1,0-0.1c0-0.1,0-0.1,0-0.1c-0.3-0.6-0.6-1.3-0.9-1.9c-1,0.1-2.1,0.2-3.1,0.2c-0.1,0.3-0.2,0.5-0.2,0.8
				c-0.1,0.2-0.1,0.4-0.2,0.6c0,0.2-0.1,0.3-0.1,0.4c0,0.1,0,0.2,0,0.3c0,0.2,0.2,0.3,0.4,0.4c0.3,0.1,0.6,0.1,0.9,0.1
				c0,0.1,0,0.3,0,0.4c-1.1,0.1-2.2,0.2-3.3,0.3c0-0.1,0-0.3,0-0.4c0.1,0,0.2,0,0.4-0.1c0.2-0.1,0.3-0.1,0.4-0.2
				c0.2-0.1,0.3-0.2,0.4-0.4c0.1-0.1,0.2-0.3,0.2-0.5c0.4-1.1,0.8-2.4,1.2-3.8c0.4-1.4,0.8-2.7,1.2-3.7c0.2,0,0.3,0,0.5,0
				c1.2,2.4,2.4,4.8,3.5,7.3c0.1,0.2,0.2,0.3,0.2,0.4c0.1,0.1,0.2,0.2,0.4,0.3c0.1,0.1,0.2,0.1,0.4,0.1c0.2,0,0.3,0,0.4,0
				C388.9,371.8,388.9,372,388.9,372.1L388.9,372.1z M385.1,368.8c-0.5-1.1-1.1-2.2-1.6-3.3c-0.3,1.2-0.7,2.3-1.1,3.5
				C383.3,368.9,384.2,368.9,385.1,368.8L385.1,368.8z"/>
			<path class="st47" d="M401.4,361.9c-0.1,0-0.3,0.1-0.4,0.1c-0.2-0.3-0.4-0.6-0.8-0.9c-0.4-0.3-0.7-0.4-0.9-0.4
				c-0.1,0-0.3,0-0.5,0.1c-0.2,0-0.4,0.1-0.6,0.1c-0.5,0.1-1,0.3-1.4,0.4c0.3,1.1,0.6,2.3,0.9,3.4c0.3-0.1,0.7-0.2,1-0.3
				c0.3-0.1,0.5-0.2,0.7-0.3c0.1-0.1,0.3-0.2,0.3-0.4c0.1-0.1,0.1-0.3,0.1-0.5c0-0.2,0-0.4,0-0.6c0.2,0,0.3-0.1,0.5-0.1
				c0.3,1.1,0.6,2.2,0.9,3.3c-0.1,0-0.3,0.1-0.5,0.1c-0.1-0.2-0.2-0.4-0.3-0.6c-0.1-0.2-0.3-0.3-0.4-0.4c-0.2-0.1-0.3-0.2-0.5-0.2
				c-0.2,0-0.4,0-0.7,0.1c-0.3,0.1-0.7,0.2-1,0.3c0.3,1,0.5,1.9,0.8,2.9c0,0.1,0.1,0.2,0.2,0.3c0.1,0.1,0.2,0.1,0.3,0.2
				c0.1,0,0.2,0,0.4,0c0.2,0,0.4,0,0.5-0.1c0,0.1,0.1,0.3,0.1,0.4c-1.2,0.3-2.5,0.7-3.7,1c0-0.1-0.1-0.3-0.1-0.4
				c0.1,0,0.3-0.1,0.5-0.2c0.2-0.1,0.3-0.1,0.4-0.2c0.1-0.1,0.2-0.2,0.2-0.3c0-0.1,0-0.2,0-0.4c-0.5-2-1.1-4.1-1.6-6.1
				c0-0.1-0.1-0.2-0.2-0.3c-0.1-0.1-0.2-0.1-0.3-0.2c-0.1,0-0.3,0-0.5,0c-0.2,0-0.4,0-0.5,0c0-0.1-0.1-0.3-0.1-0.4
				c2.2-0.6,4.5-1.2,6.7-1.8C401,360.5,401.2,361.2,401.4,361.9"/>
			<path class="st47" d="M411.3,361.2c0.3,0.8,0.6,1.6,1,2.4c-2.1,1-4.2,2-6.2,3c-0.1-0.1-0.1-0.3-0.2-0.4c0.1,0,0.2-0.1,0.4-0.2
				c0.2-0.1,0.3-0.2,0.3-0.2c0.1-0.1,0.1-0.2,0.1-0.3c0-0.1,0-0.2-0.1-0.4c-0.9-1.9-1.8-3.8-2.7-5.6c-0.1-0.1-0.1-0.2-0.2-0.3
				c-0.1-0.1-0.2-0.1-0.4-0.1c-0.1,0-0.2,0-0.4,0c-0.2,0-0.3,0.1-0.4,0.1c-0.1-0.1-0.1-0.3-0.2-0.4c1.1-0.5,2.2-1.1,3.4-1.6
				c0.1,0.1,0.1,0.3,0.2,0.4c-0.1,0.1-0.2,0.1-0.4,0.2c-0.2,0.1-0.3,0.2-0.3,0.3c-0.1,0.1-0.2,0.2-0.1,0.4c0,0.1,0,0.3,0.1,0.4
				c0.9,1.8,1.7,3.5,2.6,5.3c0.1,0.2,0.2,0.4,0.3,0.5c0.1,0.1,0.2,0.2,0.3,0.2c0.1,0,0.3,0,0.4-0.1c0.2-0.1,0.4-0.2,0.7-0.3
				c0.1-0.1,0.3-0.1,0.4-0.2c0.1-0.1,0.3-0.2,0.4-0.2c0.1-0.1,0.2-0.2,0.3-0.3c0.1-0.1,0.1-0.2,0.2-0.3c0.1-0.2,0.1-0.6,0.2-1
				c0-0.4,0-0.8,0-1C411,361.3,411.2,361.2,411.3,361.2"/>
			<path class="st47" d="M416,352.5c0.5,0.2,1.1,0.4,1.5,0.8c0.5,0.4,0.9,0.9,1.2,1.5c0.4,0.6,0.6,1.2,0.7,1.8
				c0.1,0.6,0.1,1.2-0.1,1.7c-0.1,0.5-0.4,1-0.7,1.5c-0.3,0.4-0.7,0.8-1.2,1.1c-0.5,0.3-1.1,0.5-1.6,0.6s-1.1,0-1.6-0.1
				c-0.5-0.2-1-0.4-1.5-0.8c-0.5-0.4-0.9-0.8-1.2-1.4c-0.4-0.6-0.6-1.2-0.7-1.8c-0.1-0.6-0.1-1.2,0.1-1.7c0.1-0.5,0.4-1,0.7-1.5
				c0.3-0.5,0.7-0.8,1.2-1.1c0.5-0.3,1-0.5,1.6-0.6C414.9,352.3,415.4,352.4,416,352.5L416,352.5z M418.3,358.3
				c0-0.4-0.1-0.9-0.2-1.4c-0.1-0.5-0.4-0.9-0.7-1.4c-0.3-0.5-0.6-1-1-1.3c-0.4-0.4-0.7-0.6-1.1-0.8c-0.4-0.2-0.8-0.3-1.2-0.3
				c-0.4,0-0.8,0.1-1.2,0.3c-0.4,0.3-0.7,0.6-0.9,0.9c-0.2,0.4-0.3,0.8-0.3,1.2c0,0.4,0.1,0.9,0.2,1.3c0.2,0.5,0.4,0.9,0.6,1.4
				c0.3,0.5,0.6,0.9,0.9,1.3c0.3,0.4,0.7,0.6,1.1,0.8c0.4,0.2,0.8,0.3,1.2,0.3c0.4,0,0.8-0.1,1.2-0.4c0.4-0.2,0.7-0.5,0.9-0.9
				C418.2,359.2,418.3,358.8,418.3,358.3L418.3,358.3z"/>
			<path class="st47" d="M429.3,352.4c-0.6,0.5-1.3,0.9-1.9,1.4c-0.9-0.4-1.7-0.7-2.4-0.9c-0.7-0.2-1.4-0.5-2.2-0.7
				c-0.2,0.2-0.5,0.4-0.7,0.5c0.5,0.7,1.1,1.5,1.6,2.3c0.1,0.1,0.2,0.2,0.3,0.3c0.1,0.1,0.2,0.1,0.4,0c0.1,0,0.2-0.1,0.4-0.2
				s0.3-0.2,0.4-0.2c0.1,0.1,0.2,0.2,0.3,0.4c-1,0.7-2,1.4-3.1,2.2c-0.1-0.1-0.2-0.2-0.3-0.4c0.1-0.1,0.2-0.2,0.3-0.3
				c0.1-0.1,0.2-0.2,0.3-0.3c0.1-0.1,0.1-0.2,0.1-0.3c0-0.1-0.1-0.2-0.2-0.4c-1.2-1.7-2.4-3.4-3.7-5.2c-0.1-0.1-0.2-0.2-0.3-0.3
				c-0.1-0.1-0.2-0.1-0.4,0c-0.1,0-0.2,0.1-0.4,0.1c-0.2,0.1-0.3,0.1-0.4,0.2c-0.1-0.1-0.2-0.2-0.3-0.4c1.1-0.8,2.2-1.6,3.3-2.4
				c0.3-0.2,0.6-0.4,0.9-0.5c0.3-0.1,0.6-0.2,0.9-0.2c0.3,0,0.6,0,0.9,0.2c0.3,0.1,0.5,0.3,0.7,0.6c0.2,0.3,0.3,0.5,0.4,0.8
				c0.1,0.3,0.1,0.5,0,0.8c0,0.3-0.1,0.5-0.3,0.8c-0.1,0.3-0.3,0.5-0.5,0.8c0.7,0.2,1.3,0.4,1.7,0.5c0.5,0.2,1,0.3,1.7,0.5
				c0.3,0.1,0.5,0.1,0.7,0.2c0.2,0,0.4,0,0.5,0c0.1,0,0.2-0.1,0.4-0.1c0.2-0.1,0.3-0.1,0.4-0.2C429.1,352.1,429.2,352.3,429.3,352.4
				L429.3,352.4z M422.8,349c-0.3-0.4-0.7-0.7-1.1-0.8c-0.4-0.1-0.9,0-1.3,0.4c-0.3,0.2-0.6,0.4-0.9,0.6c0.7,1,1.4,2,2.2,3.1
				c0.2-0.2,0.4-0.3,0.7-0.5c0.5-0.3,0.8-0.8,0.9-1.3C423.3,350,423.2,349.5,422.8,349L422.8,349z"/>
			<path class="st47" d="M436.6,346.9c0.2,0.8,0.5,1.6,0.7,2.5c-2.3,0.9-4.6,1.7-6.9,2.6c-0.1-0.1-0.1-0.3-0.2-0.4
				c0.1,0,0.3-0.1,0.4-0.2c0.2-0.1,0.3-0.2,0.4-0.2c0.1-0.1,0.2-0.2,0.2-0.3c0-0.1,0-0.2-0.1-0.4c-0.7-2-1.5-3.9-2.2-5.9
				c0-0.1-0.1-0.2-0.2-0.3c-0.1-0.1-0.2-0.1-0.4-0.1c-0.1,0-0.3,0-0.5,0c-0.2,0-0.3,0.1-0.5,0.1c-0.1-0.1-0.1-0.3-0.2-0.4
				c2.1-0.8,4.3-1.6,6.4-2.4c0.2,0.7,0.5,1.3,0.7,2c-0.1,0.1-0.3,0.1-0.4,0.2c-0.2-0.3-0.5-0.5-0.8-0.7c-0.4-0.2-0.7-0.3-0.9-0.3
				c-0.1,0-0.3,0.1-0.4,0.1c-0.2,0.1-0.4,0.1-0.6,0.2c-0.4,0.2-0.9,0.3-1.3,0.5c0.4,1.1,0.8,2.2,1.2,3.3c0.3-0.1,0.6-0.2,0.9-0.3
				c0.3-0.1,0.5-0.2,0.6-0.3c0.1-0.1,0.2-0.2,0.3-0.4c0-0.1,0.1-0.3,0.1-0.5c0-0.2,0-0.4-0.1-0.6c0.1-0.1,0.3-0.1,0.4-0.2
				c0.4,1.1,0.8,2.1,1.2,3.2c-0.1,0.1-0.3,0.1-0.4,0.2c-0.1-0.2-0.2-0.4-0.3-0.5c-0.1-0.2-0.3-0.3-0.4-0.4c-0.2-0.1-0.3-0.1-0.5-0.1
				c-0.2,0-0.4,0.1-0.6,0.2c-0.3,0.1-0.6,0.2-0.9,0.3c0.3,0.8,0.6,1.6,0.9,2.5c0.1,0.2,0.2,0.4,0.3,0.6c0.1,0.1,0.2,0.2,0.3,0.2
				c0.1,0,0.3,0,0.5,0c0.2-0.1,0.4-0.1,0.8-0.2c0.1,0,0.3-0.1,0.5-0.2c0.2-0.1,0.4-0.1,0.5-0.2c0.1-0.1,0.3-0.2,0.4-0.3
				c0.1-0.1,0.2-0.2,0.3-0.3c0.1-0.3,0.2-0.6,0.3-1.1s0.1-0.8,0.1-1C436.3,347,436.4,346.9,436.6,346.9"/>
			<path class="st47" d="M444,340.8c0.4,0.4,0.8,0.8,1.1,1.3c0.3,0.5,0.5,1.1,0.6,1.8c0.1,0.7,0.1,1.3-0.1,1.9
				c-0.1,0.6-0.4,1.1-0.7,1.6c-0.3,0.4-0.7,0.8-1.2,1.1c-0.5,0.3-1,0.5-1.6,0.5c-0.6,0.1-1.2,0-1.7-0.1c-0.5-0.2-1-0.4-1.5-0.8
				c-0.4-0.4-0.8-0.8-1.1-1.3c-0.3-0.5-0.5-1.1-0.6-1.8c-0.1-0.7-0.1-1.3,0.1-1.9c0.1-0.6,0.4-1.1,0.7-1.6c0.3-0.4,0.7-0.8,1.2-1.1
				c0.5-0.3,1-0.5,1.6-0.5c0.6-0.1,1.1,0,1.7,0.1C443,340.2,443.5,340.5,444,340.8L444,340.8z M443.8,347.1c0.2-0.4,0.3-0.8,0.3-1.3
				c0-0.5,0-1-0.1-1.6c-0.1-0.6-0.2-1.1-0.4-1.6c-0.2-0.5-0.4-0.9-0.7-1.2c-0.3-0.3-0.6-0.5-1-0.7c-0.4-0.2-0.8-0.2-1.2-0.1
				c-0.5,0.1-0.9,0.2-1.2,0.5c-0.3,0.3-0.6,0.6-0.7,1c-0.1,0.4-0.3,0.8-0.3,1.3c0,0.5,0,1,0,1.5c0.1,0.6,0.2,1.1,0.4,1.6
				c0.2,0.5,0.4,0.9,0.7,1.2c0.3,0.3,0.6,0.6,1,0.7c0.4,0.2,0.8,0.2,1.3,0.1c0.4-0.1,0.8-0.2,1.1-0.5
				C443.4,347.8,443.7,347.5,443.8,347.1L443.8,347.1z"/>
		</g>
	</g>
	<path class="st48" d="M423,213.7v55.2c0,11-1.5,54.7-48.5,71.7c-47.1-17-48.6-60.7-48.6-71.7v-55.2H423"/>
</g>
</svg>
