<?xml version="1.0" encoding="utf-8"?>
<!-- Generator: Adobe Illustrator 21.0.0, SVG Export Plug-In . SVG Version: 6.00 Build 0)  -->
<svg version="1.1" id="Layer_1" xmlns="http://www.w3.org/2000/svg" xmlns:xlink="http://www.w3.org/1999/xlink" x="0px" y="0px"
	 viewBox="0 0 900 600" style="enable-background:new 0 0 900 600;" xml:space="preserve">
<style type="text/css">
	.st0{fill:#FFFFFF;}
	.st1{fill:#FF0000;}
	.st2{clip-path:url(#SVGID_2_);fill:#FF0000;}
	.st3{clip-path:url(#SVGID_4_);fill:#FF0000;}
	.st4{clip-path:url(#SVGID_6_);fill:#FF0000;}
	.st5{clip-path:url(#SVGID_8_);fill:#FF0000;}
	.st6{clip-path:url(#SVGID_10_);fill:#FF0000;}
	.st7{clip-path:url(#SVGID_12_);fill:#FF0000;}
	.st8{clip-path:url(#SVGID_14_);fill:#FF0000;}
	.st9{clip-path:url(#SVGID_16_);fill:#FF0000;}
</style>
<rect class="st0" width="900" height="600"/>
<path class="st1" d="M390,0v240H0v120h390v240h120V360h390V240H510V0H390z"/>
<g>
	<g id="smallcross">
		<g>
			<defs>
				<path id="SVGID_1_" d="M-133.7,430.4c172.3,0,312-139.7,312-312s-139.7-312-312-312h654c-172.3,0-312,139.7-312,312
					s139.7,312,312,312H-133.7z"/>
			</defs>
			<clipPath id="SVGID_2_">
				<use xlink:href="#SVGID_1_"  style="overflow:visible;"/>
			</clipPath>
			<path id="varm" class="st2" d="M28.3,340.4c0-91.1,73.9-165,165-165s165,73.9,165,165v-444c0,91.1-73.9,165-165,165
				s-165-73.9-165-165V340.4z"/>
		</g>
		<g transform="translate(64.45,39.45)">
			<g>
				<defs>
					<path id="SVGID_3_" d="M-118.7-208.6c0,172.3,139.7,312,312,312s312-139.7,312-312v654c0-172.3-139.7-312-312-312
						s-312,139.7-312,312V-208.6z"/>
				</defs>
				<clipPath id="SVGID_4_">
					<use xlink:href="#SVGID_3_"  style="overflow:visible;"/>
				</clipPath>
				<path id="varm_1_" class="st3" d="M-28.7-46.6c91.1,0,165,73.9,165,165s-73.9,165-165,165h444c-91.1,0-165-73.9-165-165
					s73.9-165,165-165H-28.7z"/>
			</g>
		</g>
	</g>
	<g>
		<g id="smallcross_1_">
			<g>
				<defs>
					<path id="SVGID_5_" d="M379.7,793.7c172.3,0,312-139.7,312-312s-139.7-312-312-312h654c-172.3,0-312,139.7-312,312
						s139.7,312,312,312H379.7z"/>
				</defs>
				<clipPath id="SVGID_6_">
					<use xlink:href="#SVGID_5_"  style="overflow:visible;"/>
				</clipPath>
				<path id="varm_2_" class="st4" d="M541.7,703.7c0-91.1,73.9-165,165-165s165,73.9,165,165v-444c0,91.1-73.9,165-165,165
					s-165-73.9-165-165V703.7z"/>
			</g>
			<g transform="translate(235.55,160.55)">
				<g>
					<defs>
						<path id="SVGID_7_" d="M394.7,154.7c0,172.3,139.7,312,312,312s312-139.7,312-312v654c0-172.3-139.7-312-312-312
							s-312,139.7-312,312V154.7z"/>
					</defs>
					<clipPath id="SVGID_8_">
						<use xlink:href="#SVGID_7_"  style="overflow:visible;"/>
					</clipPath>
					<path id="varm_3_" class="st5" d="M484.7,316.7c91.1,0,165,73.9,165,165s-73.9,165-165,165h444c-91.1,0-165-73.9-165-165
						s73.9-165,165-165H484.7z"/>
				</g>
			</g>
		</g>
		<g>
			<g id="smallcross_2_">
				<g>
					<defs>
						<path id="SVGID_9_" d="M379.7,430.4c172.3,0,312-139.7,312-312s-139.7-312-312-312h654c-172.3,0-312,139.7-312,312
							s139.7,312,312,312H379.7z"/>
					</defs>
					<clipPath id="SVGID_10_">
						<use xlink:href="#SVGID_9_"  style="overflow:visible;"/>
					</clipPath>
					<path id="varm_4_" class="st6" d="M541.7,340.4c0-91.1,73.9-165,165-165s165,73.9,165,165v-444c0,91.1-73.9,165-165,165
						s-165-73.9-165-165V340.4z"/>
				</g>
				<g transform="translate(235.55,39.45)">
					<g>
						<defs>
							<path id="SVGID_11_" d="M394.7-208.6c0,172.3,139.7,312,312,312s312-139.7,312-312v654c0-172.3-139.7-312-312-312
								s-312,139.7-312,312V-208.6z"/>
						</defs>
						<clipPath id="SVGID_12_">
							<use xlink:href="#SVGID_11_"  style="overflow:visible;"/>
						</clipPath>
						<path id="varm_5_" class="st7" d="M484.7-46.6c91.1,0,165,73.9,165,165s-73.9,165-165,165h444c-91.1,0-165-73.9-165-165
							s73.9-165,165-165H484.7z"/>
					</g>
				</g>
			</g>
			<g>
				<g id="smallcross_3_">
					<g>
						<defs>
							<path id="SVGID_13_" d="M-133.7,793.7c172.3,0,312-139.7,312-312s-139.7-312-312-312h654c-172.3,0-312,139.7-312,312
								s139.7,312,312,312H-133.7z"/>
						</defs>
						<clipPath id="SVGID_14_">
							<use xlink:href="#SVGID_13_"  style="overflow:visible;"/>
						</clipPath>
						<path id="varm_6_" class="st8" d="M28.3,703.7c0-91.1,73.9-165,165-165s165,73.9,165,165v-444c0,91.1-73.9,165-165,165
							s-165-73.9-165-165V703.7z"/>
					</g>
					<g transform="translate(64.45,160.55)">
						<g>
							<defs>
								<path id="SVGID_15_" d="M-118.7,154.7c0,172.3,139.7,312,312,312s312-139.7,312-312v654c0-172.3-139.7-312-312-312
									s-312,139.7-312,312V154.7z"/>
							</defs>
							<clipPath id="SVGID_16_">
								<use xlink:href="#SVGID_15_"  style="overflow:visible;"/>
							</clipPath>
							<path id="varm_7_" class="st9" d="M-28.7,316.7c91.1,0,165,73.9,165,165s-73.9,165-165,165h444c-91.1,0-165-73.9-165-165
								s73.9-165,165-165H-28.7z"/>
						</g>
					</g>
				</g>
			</g>
		</g>
	</g>
</g>
</svg>
