<?xml version="1.0" encoding="utf-8"?>
<!-- Generator: Adobe Illustrator 21.0.0, SVG Export Plug-In . SVG Version: 6.00 Build 0)  -->
<svg version="1.1" id="Layer_1" xmlns="http://www.w3.org/2000/svg" xmlns:xlink="http://www.w3.org/1999/xlink" x="0px" y="0px"
	 viewBox="0 0 900 600" style="enable-background:new 0 0 900 600;" xml:space="preserve">
<style type="text/css">
	.st0{fill:#FFFFFF;}
	.st1{fill:#BB0000;}
	.st2{fill:#006600;}
</style>
<rect class="st0" width="900" height="600"/>
<rect width="900" height="180"/>
<rect y="210" class="st1" width="900" height="180"/>
<rect y="420" class="st2" width="900" height="180"/>
<g>
	<g id="spear">
		<g>
			<path id="spearshape" d="M-28.6,47.5l1.7,1l46.7-80.9c2.7-0.7,4.2-3.3,5.7-5.9c1-1.7,5-8.7,6.7-17.7c-6.9,6-10.9,12.9-11.9,14.7
				c-1.5,2.6-3,5.2-2.3,7.9L-28.6,47.5z"/>
		</g>
		<g>
			<path id="spearshape_1_" class="st0" d="M-28.6,47.5l1.7,1l46.7-80.9c2.7-0.7,4.2-3.3,5.7-5.9c1-1.7,5-8.7,6.7-17.7
				c-6.9,6-10.9,12.9-11.9,14.7c-1.5,2.6-3,5.2-2.3,7.9L-28.6,47.5z"/>
		</g>
	</g>
	<g transform="translate(450,300) scale(3.75)">
		<g id="spear_1_">
			<g>
				<path id="spearshape_2_" d="M28.6,47.5l-1.7,1l-46.7-80.9c-2.7-0.7-4.2-3.3-5.7-5.9c-1-1.7-5-8.7-6.7-17.7
					c6.9,6,10.9,12.9,11.9,14.7c1.5,2.6,3,5.2,2.3,7.9L28.6,47.5z"/>
			</g>
			<g transform="scale(-1,1)">
				<path id="spearshape_3_" class="st0" d="M28.6,47.5l-1.7,1l-46.7-80.9c-2.7-0.7-4.2-3.3-5.7-5.9c-1-1.7-5-8.7-6.7-17.7
					c6.9,6,10.9,12.9,11.9,14.7c1.5,2.6,3,5.2,2.3,7.9L28.6,47.5z"/>
			</g>
		</g>
		<path class="st1" d="M-19,24c3,8,13,24,19,24s16-16,19-24v-48C16-32,6-48,0-48s-16,16-19,24V24z"/>
		<path id="deco_r" d="M19,24c3-8,5-16,5-24s-2-16-5-24c-3,8-5,16-5,24S16,16,19,24z"/>
		<g transform="scale(-1,1)">
			<path id="deco_r_1_" d="M-19,24c-3-8-5-16-5-24s2-16,5-24c3,8,5,16,5,24S-16,16-19,24z"/>
		</g>
		<g>
			<ellipse class="st0" cx="0" cy="0" rx="4" ry="6"/>
			<path id="deco_br" class="st0" d="M1,5.8c0,0,4,8,4,21s-4,21-4,21V5.8z"/>
			<g transform="scale(-1)">
				<path id="deco_br_1_" class="st0" d="M-1-5.8c0,0-4-8-4-21s4-21,4-21V-5.8z"/>
			</g>
			<g transform="scale(-1,1)">
				<path id="deco_br_2_" class="st0" d="M-1,5.8c0,0-4,8-4,21s4,21,4,21V5.8z"/>
			</g>
			<g transform="scale(1,-1)">
				<path id="deco_br_3_" class="st0" d="M1-5.8c0,0,4-8,4-21s-4-21-4-21V-5.8z"/>
			</g>
		</g>
	</g>
</g>
</svg>
