<?xml version="1.0" encoding="utf-8"?>
<!-- Generator: Adobe Illustrator 21.0.0, SVG Export Plug-In . SVG Version: 6.00 Build 0)  -->
<svg version="1.1" id="Layer_1" xmlns="http://www.w3.org/2000/svg" xmlns:xlink="http://www.w3.org/1999/xlink" x="0px" y="0px"
	 viewBox="0 0 450 300" style="enable-background:new 0 0 450 300;" xml:space="preserve">
<style type="text/css">
	.st0{fill:#3E5EB9;}
	.st1{fill:#FFD900;}
	.st2{fill:#B10C0C;}
	.st3{fill:#FFFFFF;stroke:#000000;stroke-width:1.008;}
	.st4{fill:#FFD900;stroke:#000000;stroke-width:1.008;}
	.st5{fill:#FFD900;stroke:#000000;stroke-width:1.08;}
	.st6{stroke:#FFFFFF;stroke-width:6.927;}
	.st7{stroke:#000000;stroke-width:6.927;}
	.st8{fill:#3D5DA7;stroke:#000000;stroke-width:0.855;}
	.st9{fill:#A70000;}
	.st10{fill:#3D5DA7;stroke:#000000;stroke-width:1.067;}
	.st11{fill:#3D5DA7;stroke:#000000;stroke-width:0.826;}
</style>
<rect class="st0" width="450" height="300"/>
<rect y="56.2" class="st1" width="450" height="187.5"/>
<rect y="75" class="st2" width="450" height="150"/>
<g>
	<g id="e">
		<path class="st3" d="M369.6,115.7l-18.2,6.4l18.2,6.4l18.2-6.4L369.6,115.7z"/>
		<path class="st4" d="M94.5,120h263.2c1.3,0,2.3,1,2.3,2.1v0c0,1.2-1,2.1-2.3,2.1H94.5c-1.3,0-2.3-1-2.3-2.1v0
			C92.1,121,93.2,120,94.5,120z"/>
		<path class="st4" d="M353.6,124.3c1.1,0,2.1-1.1,2.1-2.1c0-1.1-1.1-2.1-2.1-2.1"/>
		<path class="st4" d="M351.4,124.3c1.1,0,2.1-1.1,2.1-2.1c0-1.1-1.1-2.1-2.1-2.1"/>
		<path class="st4" d="M349.3,124.3c1.1,0,2.1-1.1,2.1-2.1c0-1.1-1.1-2.1-2.1-2.1"/>
	</g>
	<g>
		<g id="e_1_">
			<path class="st3" d="M352.2,128.6L334,135l18.2,6.4l18.2-6.4L352.2,128.6z"/>
			<path class="st4" d="M77,132.9h263.2c1.3,0,2.3,1,2.3,2.1v0c0,1.2-1,2.1-2.3,2.1H77c-1.3,0-2.3-1-2.3-2.1v0
				C74.7,133.8,75.7,132.9,77,132.9z"/>
			<path class="st4" d="M336.1,137.1c1.1,0,2.1-1.1,2.1-2.1s-1.1-2.1-2.1-2.1"/>
			<path class="st4" d="M334,137.1c1.1,0,2.1-1.1,2.1-2.1s-1.1-2.1-2.1-2.1"/>
			<path class="st4" d="M331.8,137.1c1.1,0,2.1-1.1,2.1-2.1s-1.1-2.1-2.1-2.1"/>
		</g>
	</g>
	<path class="st5" d="M48,146.8H406c1.7,0,3.2,1.4,3.2,3.2v0c0,1.8-1.4,3.2-3.2,3.2H48c-1.7,0-3.2-1.4-3.2-3.2v0
		C44.9,148.2,46.3,146.8,48,146.8z"/>
</g>
<path class="st3" d="M332.1,150c-21.4,21.4-50,64.3-107.1,64.3c-50,0-85.7-42.9-107.1-64.3C139.3,128.6,175,85.7,225,85.7
	C282.1,85.7,310.7,128.6,332.1,150L332.1,150z"/>
<path d="M217.5,108.1c5.7,6.4,0.9,9,7,9.4c6.4,0.5,2.8,6.8,8.1,7c3.7,0.2-0.4,15.1,3.2,20c3.7,5.1,6.7,1.5,6.8,5.2
	c0.1,3.8-10,3.5-10.2,15.3c-0.3,6.8-8.5,7.3-8.9,11.6c-0.5,4.1,16.1,6.4,15.9,10.1c-0.2,3.7-17.9,3.1-18.7,7.3
	c-0.4,3.8,24.3,6.9,26.3,17.8c-3.7,1.2-14.2,2.3-22.1,2.3c-50,0-85.7-42.9-107.1-64.3C139.3,128.6,175,85.7,225,85.7
	C225,85.7,210.2,99.3,217.5,108.1L217.5,108.1z"/>
<g>
	<g>
		<g id="b">
			<path id="a" class="st6" d="M160.4,144.3v-17.1 M170.8,127.1v17.1 M181.2,127.1v17.1"/>
			<g>
				<path id="a_1_" class="st6" d="M160.4,172.9v-17.1 M170.8,155.7v17.1 M181.2,155.7v17.1"/>
			</g>
		</g>
		<g id="c">
			<g id="b_1_">
				<path id="a_2_" class="st6" d="M191.6,144.3v-17.1 M202,127.1v17.1 M212.4,127.1v17.1"/>
				<g>
					<path id="a_3_" class="st6" d="M191.6,172.9v-17.1 M202,155.7v17.1 M212.4,155.7v17.1"/>
				</g>
			</g>
		</g>
	</g>
	<g>
		<g>
			<g>
				<g id="b_2_">
					<path id="a_4_" class="st7" d="M239,144.3v-17.1 M249.4,127.1v17.1 M259.8,127.1v17.1"/>
					<g>
						<path id="a_5_" class="st7" d="M239,172.9v-17.1 M249.4,155.7v17.1 M259.8,155.7v17.1"/>
					</g>
				</g>
				<g id="c_1_">
					<g id="b_3_">
						<path id="a_6_" class="st7" d="M270.2,144.3v-17.1 M280.6,127.1v17.1 M291,127.1v17.1"/>
						<g>
							<path id="a_7_" class="st7" d="M270.2,172.9v-17.1 M280.6,155.7v17.1 M291,155.7v17.1"/>
						</g>
					</g>
				</g>
			</g>
			<g>
				<path class="st8" d="M383.5,147.5c-3.2,5.6,2.5-1.9,16.5,7.5c2.6,1.7,4.9,6.4,4.9,9.6c-0.7-0.4-1.1-1.4-1.9-2.1
					c-1,1,1,5.7,1.3,7.9c-2.2-1.2-2-1.8-2.7-3.3c0.1,1.8-0.4,6.8,0.5,8.8c-1.7-0.5-1.6-1.9-2.5-2.2c0.6,2.2-0.5,4.6-0.2,7
					c-1-1-2.1-1.8-2.6-2.2c-0.1,1.2-1.9,4.2-2,5.3c-0.9-0.5-1.1-1.3-1.2-1.9c-1.1,1.3-4.8,6.3-5.1,7.8c-2.9-2.6-10.4-8.8-11.3-12.2
					c-0.9,1.9-2.1,2.5-4.6,3.9c-1-5.3-4.6-11.2-2.7-15.7c-1.4,0.8-2.5,1.6-3.9,2.6C367.3,160.8,374,151.9,383.5,147.5L383.5,147.5z"
					/>
				<path class="st9" d="M371.4,175.3c1.3-2.7,2.6-3.5,3.5-5.3c1.5-3,1.8-5.5,3.1-5.1c1.3,0.4,1.3,1.6-0.4,4.6
					C375.8,172.5,375,173.1,371.4,175.3L371.4,175.3z"/>
				<path class="st9" d="M380.5,181.7c-0.2-2.1,0.4-2.9,0.3-4.2c-0.2-2.3-1.1-3.9,0.1-4s1.8,0.7,1.8,3S382.4,179.4,380.5,181.7
					L380.5,181.7z"/>
				<path class="st9" d="M387.4,185.7c-0.5-2.9-0.1-4.1-0.5-6c-0.6-3.2-1.8-5.4-0.6-5.7c1.1-0.3,1.8,0.8,2.3,4
					C389,181.4,388.8,182.3,387.4,185.7L387.4,185.7z"/>
				<path class="st9" d="M394.6,165.7c-1.7-1.3-2.7-1.4-3.8-2.2c-1.9-1.4-2.9-3-3.5-2.2s-0.2,1.6,1.8,2.9
					C391.2,165.5,391.9,165.6,394.6,165.7L394.6,165.7z"/>
				<path class="st9" d="M393.4,175.2c-0.9-1.8-1.8-2.3-2.4-3.5c-1-2.1-1-3.9-2.1-3.4s-1.2,1.4,0,3.4
					C390.1,173.7,390.7,174.1,393.4,175.2L393.4,175.2z"/>
				<path class="st10" d="M60.6,152.9c-0.2-1.6,0.2-1.8-0.8-3.1c1.5,0.6,1.5,2.2,3.3,1.1c0.7-0.3,0.9-0.3,0.1-2.2
					c1.9,0.1,7.9,2.2,8.9,2.2c2.6,0.1,7.2-2.7,10.5,0.8c3.1,3.1,2.1,6.4,2.1,10.8c-1.3-0.6-0.6-0.9-2-2.5c1,3.8-0.1,10.7-0.1,14.7
					c-0.5-1-0.4-0.6-0.9-1.6c-1.3,3.7-2.9,4.4-2.9,8.8c-0.5-1.7,0-1.3-0.5-2.2c-1.3,2.8-9.9,5.2-6.6,8c-3-1.8-4.3-1.6-5.7-3.2
					c-0.6,0.4-1.1,1.1-1.6,2.1c-5.3-2.4-3.4-7.7-7.5-11.2c-0.7,1.5-0.4,1.3-1.2,3.7c-0.8-3.3-1.1-5.4-2-7.9
					c-0.8,1.4-0.7,0.8-2.2,2.9c-0.6-4.1-1.6-5-1.2-7.7c-1.6,1.1-0.5,0.7-2.1,2C49.5,158.1,56,150.4,60.6,152.9L60.6,152.9z"/>
				<path class="st9" d="M54.1,169.8c1.4-3.3,2.6-4.4,3.5-6.5c1.6-3.8,1.8-6.8,3.1-6.3c1.3,0.5,1.3,2-0.5,5.7
					C58.5,166.4,57.6,167.2,54.1,169.8L54.1,169.8z"/>
				<path class="st9" d="M59.2,178.2c0.5-3,1.4-4.1,1.8-6c0.6-3.4,0.3-5.9,1.5-5.8c1.2,0.1,1.5,1.4,0.7,4.8
					C62.4,174.5,61.8,175.3,59.2,178.2L59.2,178.2z"/>
				<path class="st9" d="M65.4,184c0.2-2.9,0.8-4,0.9-5.9c0.2-3.3-0.4-5.6,0.7-5.7c1.2,0,1.6,1.2,1.2,4.5
					C67.9,180.2,67.5,181,65.4,184z"/>
				<path class="st9" d="M78.7,165c-2.5-2.5-4.1-3-5.7-4.6c-2.9-2.9-4.3-5.5-5.3-4.6c-1,0.9-0.4,2.4,2.6,5.1S74.4,164,78.7,165z"/>
				<path class="st9" d="M77.1,174.8c-1.7-2.5-2.9-3.2-3.9-4.8c-1.9-2.9-2.5-5.3-3.6-4.7c-1.1,0.6-0.8,1.9,1.2,4.7
					C72.9,172.7,73.7,173.2,77.1,174.8L77.1,174.8z"/>
				<path class="st11" d="M190.4,97.1c-3,5.7,5.2-1.9,18,7.7c2.4,1.8,5.8,8.8,5.8,12.1c-2.7-0.6-7.6-3.3-7.6-3.3s5.7,5.7,5.7,12.2
					c-2-1.3-3-1.1-3.7-2.6c0,2.1,1.8,3.5,1.8,6.7c-1.4-1.2-2.7-1.9-3.9-2.6c1.9,3.3-3.4,9.6-0.8,11.7c-4.7-0.7-9.4-3.7-11.3-6.9
					c-1,0.7-1.1,1.7-1.1,2.9c0.1,0.1-7.1-5.4-6.4-7.5c-1,1.4-1.1,2.1-1.3,3.6c-2.7-2.6-5.1-5.2-6-8.6c-1.2,1.5-1.3,1.5-2.4,3.1
					c-0.9-5.4-0.9-5.2,0.9-9.8c-1.3,0.8-2.3,1.7-3.5,2.7C175.5,110.8,181.6,101.7,190.4,97.1L190.4,97.1z"/>
				<path class="st9" d="M183,125.2c0.5-4,1.5-5.4,1.8-8c0.6-4.5-0.1-7.8,1.5-7.7c1.6,0.1,2,1.7,1.3,6.2
					C186.8,120.2,186.1,121.3,183,125.2L183,125.2z"/>
				<path class="st9" d="M191.3,132.4c-0.3-3.3,0.3-4.8,0.1-6.9c-0.4-3.8-1.5-6.3-0.1-6.6c1.4-0.2,2.1,1,2.2,4.9
					C193.7,127.6,193.3,128.6,191.3,132.4L191.3,132.4z"/>
				<path class="st9" d="M204.3,138.3c-1.4-2.9-2.6-3.7-3.5-5.6c-1.6-3.3-1.9-5.9-3.2-5.5c-1.2,0.5-1.2,1.9,0.6,5.1
					C200,135.5,200.8,136.2,204.3,138.3z"/>
				<path class="st9" d="M208.7,112.5c-3.6-1.9-5.4-1.9-7.7-3.1c-4.1-2.1-6.4-4.5-7.3-3.2c-0.8,1.3,0.3,2.6,4.5,4.6
					C202.4,112.6,203.7,112.7,208.7,112.5L208.7,112.5z"/>
				<path class="st9" d="M210,123.3c-2.6-2.2-4.2-2.5-5.8-3.9c-3-2.5-4.4-4.9-5.4-3.9c-1,1-0.3,2.3,2.8,4.6S205.7,122.7,210,123.3
					L210,123.3z"/>
			</g>
		</g>
	</g>
</g>
</svg>
