<?xml version="1.0" encoding="utf-8"?>
<!-- Generator: Adobe Illustrator 21.0.0, SVG Export Plug-In . SVG Version: 6.00 Build 0)  -->
<svg version="1.1" id="Layer_1" xmlns="http://www.w3.org/2000/svg" xmlns:xlink="http://www.w3.org/1999/xlink" x="0px" y="0px"
	 viewBox="0 0 900 600" style="enable-background:new 0 0 900 600;" xml:space="preserve">
<style type="text/css">
	.st0{fill:#009543;}
	.st1{fill:#FFFFFF;}
	.st2{fill:#00209F;}
	.st3{stroke:#000000;}
	.st4{fill:none;stroke:#000000;stroke-width:5;}
</style>
<rect class="st0" width="900" height="600"/>
<rect class="st1" width="900" height="420"/>
<rect class="st2" width="900" height="180"/>
<g>
	<path class="st3" d="M449.5,191.1c-3.4,0.1-6.8,3.9-6.8,3.9l0.3,40.5l-12.8,13.4h10.3l-0.1,23.2l-61.2,82.4l-9-3.1L354.5,385
		c0,0,39.1,24.5,95.9,23.8c62.3-0.7,96.1-24.9,96.1-24.9l-16.3-33.3l-8,3.5l-62-82l-0.1-23.9h10.3L456.4,235l0.1-40.3
		C456.4,194.7,452.9,191.1,449.5,191.1L449.5,191.1z"/>
	<path class="st4" d="M470.9,288h-42.3c0,0-15.4-32.4-12.9-55c2.5-23,15.7-33.9,33.2-34.1c20.7-0.2,31.5,10.1,34.8,33.2
		C486.9,255,470.9,288,470.9,288L470.9,288z"/>
	<path class="st1" d="M375.6,365.1c-0.7,0.9-5.8,11.1-5.8,11.1l8.8-1.8L375.6,365.1L375.6,365.1z"/>
	<path class="st1" d="M380.6,378.3l-9.2,3l11.1,4.4L380.6,378.3L380.6,378.3z"/>
	<path class="st1" d="M384.8,365.4l4.6,13.6l11.3-3.2l-3-6.5L384.8,365.4z"/>
	<path class="st1" d="M391.9,383.8l1.6,5.5l15,3.7l-6-12.7L391.9,383.8L391.9,383.8z"/>
	<path class="st1" d="M408.5,372.3l5.3,12.7l11.3-4.4l-3.7-5.5L408.5,372.3z"/>
	<path class="st1" d="M415.9,389.6l1.8,4.8l17.5,2.5l-7.4-11.5L415.9,389.6L415.9,389.6z"/>
	<path class="st1" d="M432.7,376l6.5,11.3l16.4-6l-1.8-4.4L432.7,376L432.7,376z"/>
	<path class="st1" d="M442.2,391.4l3.5,6l20.3-0.7l-7.6-11.3L442.2,391.4L442.2,391.4z"/>
	<path class="st1" d="M463.6,376.4l5.5,9.5l12.9-6.2l-3.5-5.1L463.6,376.4L463.6,376.4z"/>
	<path class="st1" d="M484.8,383.6l-12.9,6.5l3.5,5.5l17.3-2.8L484.8,383.6L484.8,383.6z"/>
	<path class="st1" d="M489,373.7l6.7,8.3l10.8-8.5l-3.7-3.9L489,373.7L489,373.7z"/>
	<path class="st1" d="M508.8,378l-10.4,7.8l2.8,4.8l14.3-3.7L508.8,378L508.8,378z"/>
	<path class="st1" d="M523.1,361.7l2.5,3.7l-7.1,10.6l-7.4-9.5L523.1,361.7L523.1,361.7z"/>
	<path class="st1" d="M528,370.9l4.4,8.8l-8.8,3l-0.7-4.1L528,370.9L528,370.9z"/>
</g>
</svg>
