<?xml version="1.0" encoding="utf-8"?>
<!-- Generator: Adobe Illustrator 21.0.0, SVG Export Plug-In . SVG Version: 6.00 Build 0)  -->
<svg version="1.1" id="Layer_1" xmlns="http://www.w3.org/2000/svg" xmlns:xlink="http://www.w3.org/1999/xlink" x="0px" y="0px"
	 viewBox="0 0 800 500" style="enable-background:new 0 0 800 500;" xml:space="preserve">
<style type="text/css">
	.st0{fill:#74ACDF;}
	.st1{fill:#FFFFFF;}
	.st2{fill:#F6B40E;stroke:#85340A;stroke-width:1.1116;}
	.st3{fill:#85340A;}
	.st4{fill:#F6B40E;stroke:#85340A;stroke-width:1.5;}
	.st5{fill:#843511;}
</style>
<rect class="st0" width="800" height="500"/>
<rect y="166.7" class="st1" width="800" height="166.7"/>
<g id="rays">
	<path id="ray1" class="st2" d="M396.8,251.3l28.5,62c0,0,0.5,1.2,1.3,0.9c0.8-0.3,0.3-1.5,0.3-1.5l-23.7-64 M402.5,272.8
		c-0.3,9.4,5.5,14.6,4.7,23c-0.8,8.4,3.9,13.2,4.9,16.5c1.1,3.3-1.2,5.2-0.2,5.7c1,0.5,3.1-2.1,2.4-6.8c-0.7-4.7-4.2-6-3.4-16.3
		c0.8-10.3-4.2-12.7-3-22.1"/>
	<g transform="rotate(22.5 400,250)">
		<path id="ray1_1_" class="st2" d="M396.6,250l2.6,68.2c0,0,0,1.3,0.9,1.3c0.9,0,0.9-1.3,0.9-1.3l2.6-68.2 M393.6,272
			c-3.9,8.6-0.6,15.6-4.5,23.1c-3.9,7.5-1.5,13.7-1.7,17.1c-0.3,3.4-3.1,4.4-2.4,5.2c0.7,0.8,3.6-0.8,4.8-5.3
			c1.1-4.6-1.6-7.2,3.1-16.4c4.7-9.2,1-13.3,5.7-21.5"/>
	</g>
	<g transform="rotate(45 400,250)">
		<path id="ray1_2_" class="st2" d="M396.8,248.7l-23.7,64c0,0-0.5,1.2,0.3,1.5c0.8,0.3,1.3-0.9,1.3-0.9l28.5-62 M385.6,267.9
			c-6.9,6.4-6.5,14.2-13,19.6c-6.5,5.4-6.6,12.1-8.1,15.1c-1.6,3.1-4.5,2.9-4.2,3.9c0.4,1,3.7,0.7,6.5-3.1s1.3-7.3,9.1-13.9
			c7.9-6.7,6-11.9,13.5-17.7"/>
	</g>
	<g transform="rotate(67.5 400,250)">
		<path id="ray1_3_" class="st2" d="M397.6,247.6l-46.4,50c0,0-0.9,0.9-0.3,1.5c0.6,0.6,1.5-0.3,1.5-0.3l50-46.4 M379.9,261
			c-8.8,3.3-11.4,10.6-19.5,13.2c-8.1,2.5-10.7,8.6-13.3,10.9c-2.6,2.2-5.3,0.9-5.3,2c-0.1,1.1,3.1,2,7.2-0.4s4-6.2,13.8-9.4
			c9.8-3.2,10.1-8.7,19.2-11.2"/>
	</g>
	<path id="ray2" class="st3" d="M404.3,274.4c0.5,9.1,5.6,13.1,4.6,21.3c2.2-6.5-3.1-11.6-2.8-21.2 M398.4,250.7l19.5,42.6
		l-16.3-43.9"/>
	<g transform="rotate(22.5 400,250)">
		<path id="ray2_1_" class="st3" d="M394.6,274.2c-3,8.5,0.2,14.2-3.9,21.4c4.5-5.2,1.5-11.9,5.5-20.7 M398.3,250.1l1.7,46.8
			l1.7-46.8"/>
	</g>
	<g transform="rotate(45 400,250)">
		<path id="ray2_2_" class="st3" d="M385.8,270.3c-6.1,6.7-5.3,13.2-11.8,18.3c6.2-3,6-10.4,13-17 M398.4,249.4L382,293.3l19.5-42.6
			"/>
	</g>
	<g transform="rotate(67.5 400,250)">
		<path id="ray2_3_" class="st3" d="M379.1,263.3c-8.2,3.9-9.9,10.2-17.9,12.4c6.9-0.5,9.5-7.3,18.5-10.7 M398.7,248.8l-31.9,34.3
			l34.3-31.9"/>
	</g>
</g>
<g>
	<g id="rays_1_">
		<path id="ray1_4_" class="st2" d="M398.7,246.8l-62,28.5c0,0-1.2,0.5-0.9,1.3c0.3,0.8,1.5,0.3,1.5,0.3l64-23.7 M377.2,252.5
			c-9.4-0.3-14.6,5.5-23,4.7c-8.4-0.8-13.2,3.9-16.5,4.9c-3.3,1.1-5.2-1.2-5.7-0.2c-0.5,1,2.1,3.1,6.8,2.4c4.7-0.7,6-4.2,16.3-3.4
			c10.3,0.8,12.7-4.2,22.1-3"/>
		<g transform="rotate(22.5 400,250)">
			<path id="ray1_5_" class="st2" d="M400,246.6l-68.2,2.6c0,0-1.3,0-1.3,0.9c0,0.9,1.3,0.9,1.3,0.9l68.2,2.6 M378,243.6
				c-8.6-3.9-15.6-0.6-23.1-4.5c-7.5-3.9-13.7-1.5-17.1-1.7c-3.4-0.3-4.4-3.1-5.2-2.4c-0.8,0.7,0.8,3.6,5.3,4.8
				c4.6,1.1,7.2-1.6,16.4,3.1c9.2,4.7,13.3,1,21.5,5.7"/>
		</g>
		<g transform="rotate(45 400,250)">
			<path id="ray1_6_" class="st2" d="M401.3,246.8l-64-23.7c0,0-1.2-0.5-1.5,0.3c-0.3,0.8,0.9,1.3,0.9,1.3l62,28.5 M382.1,235.6
				c-6.4-6.9-14.2-6.5-19.6-13c-5.4-6.5-12.1-6.6-15.1-8.1c-3.1-1.6-2.9-4.5-3.9-4.2c-1,0.4-0.7,3.7,3.1,6.5
				c3.8,2.8,7.3,1.3,13.9,9.1c6.7,7.9,11.9,6,17.7,13.5"/>
		</g>
		<g transform="rotate(67.5 400,250)">
			<path id="ray1_7_" class="st2" d="M402.4,247.6l-50-46.4c0,0-0.9-0.9-1.5-0.3c-0.6,0.6,0.3,1.5,0.3,1.5l46.4,50 M389,229.9
				c-3.3-8.8-10.6-11.4-13.2-19.5c-2.5-8.1-8.6-10.7-10.9-13.3c-2.2-2.6-0.9-5.3-2-5.3c-1.1-0.1-2,3.1,0.4,7.2c2.4,4,6.2,4,9.4,13.8
				c3.2,9.8,8.7,10.1,11.2,19.2"/>
		</g>
		<path id="ray2_4_" class="st3" d="M375.6,254.3c-9.1,0.5-13.1,5.6-21.3,4.6c6.5,2.2,11.6-3.1,21.2-2.8 M399.3,248.4l-42.6,19.5
			l43.9-16.3"/>
		<g transform="rotate(22.5 400,250)">
			<path id="ray2_5_" class="st3" d="M375.8,244.6c-8.5-3-14.2,0.2-21.4-3.9c5.2,4.5,11.9,1.5,20.7,5.5 M399.9,248.3l-46.8,1.7
				l46.8,1.7"/>
		</g>
		<g transform="rotate(45 400,250)">
			<path id="ray2_6_" class="st3" d="M379.7,235.8c-6.7-6.1-13.2-5.3-18.3-11.8c3,6.2,10.4,6,17,13 M400.6,248.4L356.7,232
				l42.6,19.5"/>
		</g>
		<g transform="rotate(90 400,250)">
			<path id="ray2_7_" class="st3" d="M386.7,229.1c-3.9-8.2-10.2-9.9-12.4-17.9c0.5,6.9,7.3,9.5,10.7,18.5 M401.2,248.7l-34.3-31.9
				l31.9,34.3"/>
		</g>
	</g>
	<g>
		<g id="rays_2_">
			<path id="ray1_8_" class="st2" d="M403.2,248.7l-28.5-62c0,0-0.5-1.2-1.3-0.9c-0.8,0.3-0.3,1.5-0.3,1.5l23.7,64 M397.5,227.2
				c0.3-9.4-5.5-14.6-4.7-23c0.8-8.4-3.9-13.2-4.9-16.5c-1.1-3.3,1.2-5.2,0.2-5.7c-1-0.5-3.1,2.1-2.4,6.8c0.7,4.7,4.2,6,3.4,16.3
				c-0.8,10.3,4.2,12.7,3,22.1"/>
			<g transform="rotate(22.5 400,250)">
				<path id="ray1_9_" class="st2" d="M403.4,250l-2.6-68.2c0,0,0-1.3-0.9-1.3c-0.9,0-0.9,1.3-0.9,1.3l-2.6,68.2 M406.4,228
					c3.9-8.6,0.6-15.6,4.5-23.1c3.9-7.5,1.5-13.7,1.7-17.1c0.3-3.4,3.1-4.4,2.4-5.2c-0.7-0.8-3.6,0.8-4.8,5.3
					c-1.1,4.6,1.6,7.2-3.1,16.4c-4.7,9.2-1,13.3-5.7,21.5"/>
			</g>
			<g transform="rotate(45 400,250)">
				<path id="ray1_10_" class="st2" d="M403.2,251.3l23.7-64c0,0,0.5-1.2-0.3-1.5c-0.8-0.3-1.3,0.9-1.3,0.9l-28.5,62 M414.4,232.1
					c6.9-6.4,6.5-14.2,13-19.6c6.5-5.4,6.6-12.1,8.1-15.1c1.6-3.1,4.5-2.9,4.2-3.9c-0.4-1-3.7-0.7-6.5,3.1
					c-2.8,3.8-1.3,7.3-9.1,13.9c-7.9,6.7-6,11.9-13.5,17.7"/>
			</g>
			<g transform="rotate(67.5 400,250)">
				<path id="ray1_11_" class="st2" d="M402.4,252.4l46.4-50c0,0,0.9-0.9,0.3-1.5c-0.6-0.6-1.5,0.3-1.5,0.3l-50,46.4 M420.1,239
					c8.8-3.3,11.4-10.6,19.5-13.2c8.1-2.5,10.7-8.6,13.3-10.9c2.6-2.2,5.3-0.9,5.3-2c0.1-1.1-3.1-2-7.2,0.4c-4,2.4-4,6.2-13.8,9.4
					c-9.8,3.2-10.1,8.7-19.2,11.2"/>
			</g>
			<path id="ray2_8_" class="st3" d="M395.7,225.6c-0.5-9.1-5.6-13.1-4.6-21.3c-2.2,6.5,3.1,11.6,2.8,21.2 M401.6,249.3l-19.5-42.6
				l16.3,43.9"/>
			<g transform="rotate(22.5 400,250)">
				<path id="ray2_9_" class="st3" d="M405.4,225.8c3-8.5-0.2-14.2,3.9-21.4c-4.5,5.2-1.5,11.9-5.5,20.7 M401.7,249.9l-1.7-46.8
					l-1.7,46.8"/>
			</g>
			<g transform="rotate(45 400,250)">
				<path id="ray2_10_" class="st3" d="M414.2,229.7c6.1-6.7,5.3-13.2,11.8-18.3c-6.2,3-6,10.4-13,17 M401.6,250.6l16.3-43.9
					l-19.5,42.6"/>
			</g>
			<g transform="rotate(180 400,250)">
				<path id="ray2_11_" class="st3" d="M420.9,236.7c8.2-3.9,9.9-10.2,17.9-12.4c-6.9,0.5-9.5,7.3-18.5,10.7 M401.3,251.2l31.9-34.3
					l-34.3,31.9"/>
			</g>
		</g>
		<g>
			<g id="rays_3_">
				<path id="ray1_12_" class="st2" d="M401.3,253.2l62-28.5c0,0,1.2-0.5,0.9-1.3c-0.3-0.8-1.5-0.3-1.5-0.3l-64,23.7 M422.8,247.5
					c9.4,0.3,14.6-5.5,23-4.7c8.4,0.8,13.2-3.9,16.5-4.9c3.3-1.1,5.2,1.2,5.7,0.2c0.5-1-2.1-3.1-6.8-2.4c-4.7,0.7-6,4.2-16.3,3.4
					c-10.3-0.8-12.7,4.2-22.1,3"/>
				<g transform="rotate(22.5 400,250)">
					<path id="ray1_13_" class="st2" d="M400,253.4l68.2-2.6c0,0,1.3,0,1.3-0.9c0-0.9-1.3-0.9-1.3-0.9l-68.2-2.6 M422,256.4
						c8.6,3.9,15.6,0.6,23.1,4.5c7.5,3.9,13.7,1.5,17.1,1.7c3.4,0.3,4.4,3.1,5.2,2.4c0.8-0.7-0.8-3.6-5.3-4.8
						c-4.6-1.1-7.2,1.6-16.4-3.1c-9.2-4.7-13.3-1-21.5-5.7"/>
				</g>
				<g transform="rotate(45 400,250)">
					<path id="ray1_14_" class="st2" d="M398.7,253.2l64,23.7c0,0,1.2,0.5,1.5-0.3c0.3-0.8-0.9-1.3-0.9-1.3l-62-28.5 M417.9,264.4
						c6.4,6.9,14.2,6.5,19.6,13c5.4,6.5,12.1,6.6,15.1,8.1c3.1,1.6,2.9,4.5,3.9,4.2c1-0.4,0.7-3.7-3.1-6.5s-7.3-1.3-13.9-9.1
						c-6.7-7.9-11.9-6-17.7-13.5"/>
				</g>
				<g transform="rotate(67.5 400,250)">
					<path id="ray1_15_" class="st2" d="M397.6,252.4l50,46.4c0,0,0.9,0.9,1.5,0.3c0.6-0.6-0.3-1.5-0.3-1.5l-46.4-50 M411,270.1
						c3.3,8.8,10.6,11.4,13.2,19.5c2.5,8.1,8.6,10.7,10.9,13.3c2.2,2.6,0.9,5.3,2,5.3c1.1,0.1,2-3.1-0.4-7.2s-6.2-4-9.4-13.8
						c-3.2-9.8-8.7-10.1-11.2-19.2"/>
				</g>
				<path id="ray2_12_" class="st3" d="M424.4,245.7c9.1-0.5,13.1-5.6,21.3-4.6c-6.5-2.2-11.6,3.1-21.2,2.8 M400.7,251.6l42.6-19.5
					l-43.9,16.3"/>
				<g transform="rotate(22.5 400,250)">
					<path id="ray2_13_" class="st3" d="M424.2,255.4c8.5,3,14.2-0.2,21.4,3.9c-5.2-4.5-11.9-1.5-20.7-5.5 M400.1,251.7l46.8-1.7
						l-46.8-1.7"/>
				</g>
				<g transform="rotate(45 400,250)">
					<path id="ray2_14_" class="st3" d="M420.3,264.2c6.7,6.1,13.2,5.3,18.3,11.8c-3-6.2-10.4-6-17-13 M399.4,251.6l43.9,16.3
						l-42.6-19.5"/>
				</g>
				<g transform="rotate(270 400,250)">
					<path id="ray2_15_" class="st3" d="M413.3,270.9c3.9,8.2,10.2,9.9,12.4,17.9c-0.5-6.9-7.3-9.5-10.7-18.5 M398.8,251.3
						l34.3,31.9l-31.9-34.3"/>
				</g>
			</g>
			<circle class="st4" cx="400" cy="250" r="27.8"/>
			<path id="loweyecontour" class="st5" d="M409.5,244.1c-1.9,0-3.7,0.8-4.8,2.5c2.1,1.9,6.9,2.1,10.1-0.2
				C413.4,244.9,411.4,244.1,409.5,244.1L409.5,244.1z M409.4,244.5c1.8,0,3.6,0.8,3.8,1.7c-2.1,2.4-5.6,2.1-7.7,0.4
				C406.5,245.1,408,244.5,409.4,244.5L409.4,244.5z"/>
			<g transform="matrix(-1 0 0 1 800.25 0)">
				<path id="uppalpebra" class="st3" d="M409.8,242.7c-2.8,0-3.4,0.6-4.7,1.7c-1.3,1.1-1.9,0.9-2.1,1.1c-0.2,0.2,0,0.9,0.4,0.6
					s1.3-0.6,2.6-1.7c1.3-1.1,2.6-1.1,3.8-1.1c3.8,0,6,3.2,6.4,3C416.7,246.2,414.1,242.7,409.8,242.7L409.8,242.7z"/>
			</g>
			<g transform="matrix(-1 0 0 1 800.25 0)">
				<path id="eyebrow_nose" class="st3" d="M417.5,244c-4.9-4.3-11.1-4.9-14.5-1.7c-0.8,1.1-1.4,2.3-1.6,3.6
					c-0.4,2.4,0.3,5.1,2.2,7.8c-0.2,0-0.6,0.2-0.9,0.4c-1.7-3.2-2.3-6.6-1.7-9.7c0.1-0.8,0.4-1.6,0.7-2.4
					C406.4,238,412.8,237.6,417.5,244L417.5,244z"/>
			</g>
			<g transform="translate(18.862)">
				<circle id="pupil" class="st3" cx="409.4" cy="246.1" r="1.9"/>
			</g>
			<g transform="matrix(-1 0 0 1 800.25 0)">
				<path id="lowpalpebra" class="st3" d="M415,247.4c-3.6,2.8-7.3,2.6-9.4,1.3c-2.1-1.3-2.1-1.7-1.7-1.7c0.4,0,0.9,0.4,2.6,1.3
					C408.1,249.2,410.7,249.2,415,247.4L415,247.4z"/>
			</g>
			<path class="st3" d="M395.8,253.8c-0.9,0.2-1.6,1-1.6,1.9c0,1.1,0.9,1.9,1.9,1.9c0.6,0,1.2-0.3,1.6-0.8c0.7,0.6,1.8,0.6,2.3,0.6
				c0.1,0,0.2,0,0.2,0c0.5,0,1.6-0.1,2.3-0.6c0.4,0.5,0.9,0.8,1.6,0.8c1.1,0,1.9-0.8,1.9-1.9c0-0.9-0.6-1.7-1.6-1.9
				c0.5,0.2,0.8,0.7,0.8,1.2c0,0.7-0.6,1.3-1.3,1.3c-0.7,0-1.2-0.5-1.3-1.2c-0.2,0.4-1,1.7-2.7,1.7c-1.6-0.1-2.4-1.3-2.7-1.7
				c0,0.7-0.6,1.2-1.3,1.2c-0.7,0-1.3-0.6-1.3-1.3C394.9,254.5,395.2,254,395.8,253.8L395.8,253.8z"/>
			<path class="st3" d="M397.8,259.5c-2.1,0-3,1.9-4.9,3.2c1.1-0.4,1.9-1.3,3.4-2.1c1.5-0.9,2.8,0.2,3.6,0.2h0c0.9,0,2.1-1,3.6-0.2
				c1.5,0.9,2.4,1.7,3.4,2.1c-1.9-1.3-2.8-3.2-4.9-3.2c-0.4,0-1.3,0.2-2.1,0.7h0C399.1,259.8,398.3,259.5,397.8,259.5z"/>
			<path class="st3" d="M397.1,262.1c-0.8,0-2,0.2-3.6,0.7c3.8-0.9,4.7,0.4,6.4,0.4h0c1.7,0,2.6-1.3,6.4-0.4
				c-4.3-1.3-5.1-0.4-6.4-0.4h0C399.2,262.3,398.5,262,397.1,262.1L397.1,262.1z"/>
			<path class="st3" d="M393.8,262.7c-0.2,0-0.5,0-0.8,0c4.5,0.4,2.3,3,7,3h0c4.7,0,2.6-2.6,7.1-3c-4.7-0.4-3.2,2.3-7.1,2.3h0
				C396.4,265.1,397.5,262.7,393.8,262.7L393.8,262.7z"/>
			<path class="st3" d="M403.9,269.7c0-2.1-1.7-3.8-3.8-3.8c-2.1,0-3.8,1.7-3.8,3.8c0.4-1.8,2-3,3.8-3
				C401.8,266.6,403.4,267.9,403.9,269.7L403.9,269.7L403.9,269.7z"/>
			<path id="eyebrow_nose_1_" class="st3" d="M382.7,244c4.9-4.3,11.1-4.9,14.5-1.7c0.8,1.1,1.4,2.3,1.6,3.6
				c0.4,2.4-0.3,5.1-2.2,7.8c0.2,0,0.6,0.2,0.9,0.4c1.7-3.2,2.3-6.6,1.7-9.7c-0.1-0.8-0.4-1.6-0.7-2.4
				C393.8,238,387.4,237.6,382.7,244L382.7,244z"/>
			<path id="uppalpebra_1_" class="st3" d="M390.4,242.7c2.8,0,3.4,0.6,4.7,1.7c1.3,1.1,1.9,0.9,2.1,1.1c0.2,0.2,0,0.9-0.4,0.6
				s-1.3-0.6-2.6-1.7c-1.3-1.1-2.6-1.1-3.8-1.1c-3.8,0-6,3.2-6.4,3C383.6,246.2,386.1,242.7,390.4,242.7L390.4,242.7z"/>
			<g transform="translate(-19.181)">
				<path id="loweyecontour_1_" class="st5" d="M390.3,244.1c-1.9,0-3.7,0.8-4.8,2.5c2.1,1.9,6.9,2.1,10.1-0.2
					C394.2,244.9,392.2,244.1,390.3,244.1L390.3,244.1z M390.3,244.5c1.8,0,3.6,0.8,3.8,1.7c-2.1,2.4-5.6,2.1-7.7,0.4
					C387.3,245.1,388.8,244.5,390.3,244.5L390.3,244.5z"/>
			</g>
			<circle id="pupil_1_" class="st3" cx="390.5" cy="246.1" r="1.9"/>
			<path id="lowpalpebra_1_" class="st3" d="M385.3,247.4c3.6,2.8,7.3,2.6,9.4,1.3c2.1-1.3,2.1-1.7,1.7-1.7c-0.4,0-0.9,0.4-2.6,1.3
				C392.1,249.2,389.6,249.2,385.3,247.4L385.3,247.4z"/>
		</g>
	</g>
</g>
</svg>
