<?xml version="1.0" encoding="utf-8"?>
<!-- Generator: Adobe Illustrator 21.0.0, SVG Export Plug-In . SVG Version: 6.00 Build 0)  -->
<svg version="1.1" id="Layer_1" xmlns="http://www.w3.org/2000/svg" xmlns:xlink="http://www.w3.org/1999/xlink" x="0px" y="0px"
	 viewBox="0 0 1350 900" style="enable-background:new 0 0 1350 900;" xml:space="preserve">
<style type="text/css">
	.st0{fill:#FF9933;}
	.st1{fill:#FFFFFF;}
	.st2{fill:#128807;}
	.st3{fill:#000088;}
</style>
<rect class="st0" width="1350" height="900"/>
<rect y="300" class="st1" width="1350" height="300"/>
<rect y="600" class="st2" width="1350" height="300"/>
<g>
	<circle class="st3" cx="562.5" cy="375" r="120"/>
	<circle class="st1" cx="562.5" cy="375" r="105"/>
	<circle class="st3" cx="562.5" cy="375" r="21"/>
	<g>
		<g>
			<g id="b">
				<g id="a">
					
						<ellipse transform="matrix(0.1305 -0.9914 0.9914 0.1305 194.2129 998.8679)" class="st3" cx="666.6" cy="388.7" rx="5.2" ry="5.2"/>
					<path class="st3" d="M562.5,480l3.6-63l-3.6-30l-3.6,30L562.5,480z"/>
				</g>
				<g transform="rotate(15)">
					<g id="a_1_">
						
							<ellipse transform="matrix(0.3827 -0.9239 0.9239 0.3827 23.5469 865.6039)" class="st3" cx="659.5" cy="415.2" rx="5.2" ry="5.2"/>
						<path class="st3" d="M535.3,476.4l19.8-59.9l4.3-29.9l-11.2,28L535.3,476.4z"/>
					</g>
				</g>
			</g>
			<g id="c">
				<g id="b_1_">
					<g id="a_2_">
						
							<ellipse transform="matrix(0.6088 -0.7934 0.7934 0.6088 -95.5559 684.0717)" class="st3" cx="645.8" cy="438.9" rx="5.2" ry="5.2"/>
						<path class="st3" d="M510,465.9l34.6-52.8l11.9-27.8l-18.1,24.2L510,465.9z"/>
					</g>
					<g transform="rotate(30)">
						<g id="a_3_">
							
								<ellipse transform="matrix(0.7934 -0.6088 0.6088 0.7934 -149.5491 476.0469)" class="st3" cx="626.4" cy="458.3" rx="5.2" ry="5.2"/>
							<path class="st3" d="M488.3,449.2l47.1-42l18.7-23.8l-23.8,18.7L488.3,449.2z"/>
						</g>
					</g>
				</g>
			</g>
			<g>
				<g id="d">
					<g id="b_2_">
						<g id="a_4_">
							
								<ellipse transform="matrix(0.9239 -0.3827 0.3827 0.9239 -134.753 266.5658)" class="st3" cx="602.7" cy="472" rx="5.2" ry="5.2"/>
							<path class="st3" d="M471.6,427.5l56.4-28.4l24.2-18.1l-27.8,11.9L471.6,427.5z"/>
						</g>
						<g transform="rotate(15)">
							<g id="a_5_">
								
									<ellipse transform="matrix(0.9914 -0.1305 0.1305 0.9914 -57.6058 79.3087)" class="st3" cx="576.2" cy="479.1" rx="5.2" ry="5.2"/>
								<path class="st3" d="M461.1,402.2l61.8-12.8l28-11.2l-29.9,4.3L461.1,402.2z"/>
							</g>
						</g>
					</g>
					<g id="c_1_">
						<g id="b_3_">
							<g id="a_6_">
								
									<ellipse transform="matrix(0.1305 -0.9914 0.9914 0.1305 2.1597 960.6661)" class="st3" cx="548.8" cy="479.1" rx="5.2" ry="5.2"/>
								<path class="st3" d="M457.5,375l63,3.6l30-3.6l-30-3.6L457.5,375z"/>
							</g>
							<g transform="rotate(60)">
								<g id="a_7_">
									
										<ellipse transform="matrix(0.3827 -0.9239 0.9239 0.3827 -113.6422 773.9371)" class="st3" cx="522.3" cy="472" rx="5.2" ry="5.2"/>
									<path class="st3" d="M461.1,347.8l59.9,19.8l29.9,4.3l-28-11.2L461.1,347.8z"/>
								</g>
							</g>
						</g>
					</g>
				</g>
				<g>
					<g>
						<g>
							<g id="b_4_">
								<g id="a_8_">
									
										<ellipse transform="matrix(0.6088 -0.7934 0.7934 0.6088 -168.5318 574.8556)" class="st3" cx="498.6" cy="458.3" rx="5.2" ry="5.2"/>
									<path class="st3" d="M471.6,322.5l52.8,34.6l27.8,11.9l-24.2-18.1L471.6,322.5z"/>
								</g>
								<g transform="rotate(15)">
									<g id="a_9_">
										
											<ellipse transform="matrix(0.7934 -0.6088 0.6088 0.7934 -168.1729 382.4185)" class="st3" cx="479.2" cy="438.9" rx="5.2" ry="5.2"/>
										<path class="st3" d="M488.3,300.8l42,47.1l23.8,18.7l-18.7-23.8L488.3,300.8z"/>
									</g>
								</g>
							</g>
							<g id="c_2_">
								<g id="b_5_">
									<g id="a_10_">
										
											<ellipse transform="matrix(0.9239 -0.3827 0.3827 0.9239 -123.4497 209.7402)" class="st3" cx="465.5" cy="415.2" rx="5.2" ry="5.2"/>
										<path class="st3" d="M510,284.1l28.4,56.4l18.1,24.2l-11.9-27.8L510,284.1z"/>
									</g>
									<g transform="rotate(30)">
										<g id="a_11_">
											
												<ellipse transform="matrix(0.9914 -0.1305 0.1305 0.9914 -46.8146 63.1584)" class="st3" cx="458.4" cy="388.7" rx="5.2" ry="5.2"/>
											<path class="st3" d="M535.3,273.6l12.8,61.8l11.2,28l-4.3-29.9L535.3,273.6z"/>
										</g>
									</g>
								</g>
							</g>
							<g>
								<g id="d_1_">
									<g id="b_6_">
										<g id="a_12_">
											
												<ellipse transform="matrix(0.1305 -0.9914 0.9914 0.1305 40.3615 768.613)" class="st3" cx="458.4" cy="361.3" rx="5.2" ry="5.2"/>
											<path class="st3" d="M562.5,270l-3.6,63l3.6,30l3.6-30L562.5,270z"/>
										</g>
										<g transform="rotate(15)">
											<g id="a_13_">
												
													<ellipse transform="matrix(0.3827 -0.9239 0.9239 0.3827 -21.9754 636.748)" class="st3" cx="465.5" cy="334.8" rx="5.2" ry="5.2"/>
												<path class="st3" d="M589.7,273.6l-19.8,59.9l-4.3,29.9l11.2-28L589.7,273.6z"/>
											</g>
										</g>
									</g>
									<g id="c_3_">
										<g id="b_7_">
											<g id="a_14_">
												
													<ellipse transform="matrix(0.6088 -0.7934 0.7934 0.6088 -59.3157 501.8798)" class="st3" cx="479.2" cy="311.1" rx="5.2" ry="5.2"/>
												<path class="st3" d="M615,284.1l-34.6,52.8l-11.9,27.8l18.1-24.2L615,284.1z"/>
											</g>
											<g transform="rotate(120)">
												<g id="a_15_">
													
														<ellipse transform="matrix(0.7934 -0.6088 0.6088 0.7934 -74.5445 363.7947)" class="st3" cx="498.6" cy="291.7" rx="5.2" ry="5.2"/>
													<path class="st3" d="M636.7,300.8l-47.1,42L571,366.5l23.8-18.7L636.7,300.8z"/>
												</g>
											</g>
										</g>
									</g>
								</g>
								<g>
									<g>
										<g>
											<g id="b_8_">
												<g id="a_16_">
													
														<ellipse transform="matrix(0.9239 -0.3827 0.3827 0.9239 -66.6241 221.0435)" class="st3" cx="522.3" cy="278" rx="5.2" ry="5.2"/>
													<path class="st3" d="M653.4,322.5l-56.4,28.4L572.9,369l27.8-11.9L653.4,322.5z"/>
												</g>
												<g transform="rotate(15)">
													<g id="a_17_">
														
															<ellipse transform="matrix(0.9914 -0.1305 0.1305 0.9914 -30.6643 73.9497)" class="st3" cx="548.8" cy="270.9" rx="5.2" ry="5.2"/>
														<path class="st3" d="M663.9,347.8l-61.8,12.8l-28,11.2l29.9-4.3L663.9,347.8z"/>
													</g>
												</g>
											</g>
											<g id="c_4_">
												<g id="b_9_">
													<g id="a_18_">
														
															<ellipse transform="matrix(0.1305 -0.9914 0.9914 0.1305 232.4147 806.8147)" class="st3" cx="576.2" cy="270.9" rx="5.2" ry="5.2"/>
														<path class="st3" d="M667.5,375l-63-3.6l-30,3.6l30,3.6L667.5,375z"/>
													</g>
													<g transform="rotate(30)">
														<g id="a_19_">
															
																<ellipse transform="matrix(0.3827 -0.9239 0.9239 0.3827 115.2137 728.4148)" class="st3" cx="602.7" cy="278" rx="5.2" ry="5.2"/>
															<path class="st3" d="M663.9,402.2L604,382.4l-29.9-4.3l28,11.2L663.9,402.2z"/>
														</g>
													</g>
												</g>
											</g>
											<g transform="translate(112.5,75)">
												<g id="d_2_">
													<g id="b_10_">
														<g id="a_20_">
															
																<ellipse transform="matrix(0.6088 -0.7934 0.7934 0.6088 13.6601 611.0958)" class="st3" cx="626.4" cy="291.7" rx="5.2" ry="5.2"/>
															<path class="st3" d="M653.4,427.5l-52.8-34.6L572.9,381l24.2,18.1L653.4,427.5z"/>
														</g>
														<g transform="rotate(15)">
															<g id="a_21_">
																
																	<ellipse transform="matrix(0.7934 -0.6088 0.6088 0.7934 -55.9207 457.4231)" class="st3" cx="645.8" cy="311.1" rx="5.2" ry="5.2"/>
																<path class="st3" d="M636.7,449.2l-42-47.1L571,383.5l18.7,23.8L636.7,449.2z"/>
															</g>
														</g>
													</g>
													<g id="c_5_">
														<g id="b_11_">
															<g id="a_22_">
																
																	<ellipse transform="matrix(0.9239 -0.3827 0.3827 0.9239 -77.9274 277.8691)" class="st3" cx="659.5" cy="334.8" rx="5.2" ry="5.2"/>
																<path class="st3" d="M615,465.9l-28.4-56.4l-18.1-24.2l11.9,27.8L615,465.9z"/>
															</g>
															<g transform="rotate(-120)">
																<g id="a_23_">
																	
																		<ellipse transform="matrix(0.9914 -0.1305 0.1305 0.9914 -41.4556 90.0999)" class="st3" cx="666.6" cy="361.3" rx="5.2" ry="5.2"/>
																	<path class="st3" d="M589.7,476.4l-12.8-61.8l-11.2-28l4.3,29.9L589.7,476.4z"/>
																</g>
															</g>
														</g>
													</g>
												</g>
											</g>
										</g>
									</g>
								</g>
							</g>
						</g>
					</g>
				</g>
			</g>
		</g>
	</g>
</g>
</svg>
