<?xml version="1.0" encoding="utf-8"?>
<!-- Generator: Adobe Illustrator 21.0.0, SVG Export Plug-In . SVG Version: 6.00 Build 0)  -->
<svg version="1.1" id="Layer_1" xmlns="http://www.w3.org/2000/svg" xmlns:xlink="http://www.w3.org/1999/xlink" x="0px" y="0px"
	 viewBox="0 0 900 600" style="enable-background:new 0 0 900 600;" xml:space="preserve">
<style type="text/css">
	.st0{fill:#CF142B;}
	.st1{fill:#FFFFFF;}
	.st2{fill:#E60D2E;}
	.st3{fill:#96877D;}
	.st4{fill:#CCCCCC;}
	.st5{fill:#D0D0D0;}
	.st6{fill:none;stroke:#96877D;stroke-width:0.514;}
	.st7{fill:#96877D;stroke:#000000;stroke-width:0.203;}
</style>
<rect class="st0" width="900" height="600"/>
<rect class="st1" width="450" height="600"/>
<g>
	<path class="st2" d="M22.2,82.8v45.5h45.5c0,7.6,7.6,15.2,15.2,15.2v45.5h45.5v-45.5c7.6,0,15.2-7.6,15.2-15.2h45.5V82.8h-45.5
		c0-7.6-7.6-15.2-15.2-15.2V22.2H82.8v45.5c-7.6,0-15.2,7.6-15.2,15.2C67.7,82.8,22.2,82.8,22.2,82.8z"/>
	<path class="st3" d="M25.3,85.9v39.4h45.5c0,7.6,7.6,15.1,15.2,15.1v45.5h39.4v-45.5c7.6,0,15.2-7.6,15.2-15.2h45.5V85.9h-45.5
		c0-7.6-7.6-15.2-15.2-15.2V25.3H85.9v45.5c-7.6,0-15.2,7.6-15.2,15.2C70.7,85.9,25.3,85.9,25.3,85.9z"/>
	<path class="st4" d="M26.8,87.4v36.4h45.5c0,7.6,7.6,15.2,15.2,15.2v45.5h36.4v-45.5c7.6,0,15.2-7.6,15.2-15.2h45.5V87.4h-45.5
		c0-7.6-7.6-15.2-15.2-15.2V26.8H87.4v45.5c-7.6,0-15.2,7.6-15.2,15.2H26.8z"/>
	<g id="vi">
		<path class="st3" d="M84.5,71.7c2.7,2.7,1.9,7.7-1.6,11.2c-3.6,3.6-8.6,4.3-11.2,1.6c-2.7-2.7-1.9-7.7,1.6-11.2
			C76.8,69.7,81.9,69,84.5,71.7z"/>
		<path class="st5" d="M71.1,79.7l1.1-1.1l4.3,2.1l-2.1-4.3l1.1-1.1l4.3,8.6L71.1,79.7L71.1,79.7z"/>
		<path class="st5" d="M77.6,73.3l1.1-1.1l6.4,6.4L84,79.7L77.6,73.3z"/>
	</g>
	<g transform="rotate(90,105.555,105.557)">
		<g id="vi_1_">
			<path class="st3" d="M139.4,84.5c-2.7,2.7-7.7,1.9-11.2-1.6c-3.6-3.6-4.3-8.6-1.6-11.2c2.7-2.7,7.7-1.9,11.2,1.6
				C141.4,76.8,142.1,81.9,139.4,84.5z"/>
			<path class="st5" d="M131.4,71.1l1.1,1.1l-2.1,4.3l4.3-2.1l1.1,1.1l-8.6,4.3L131.4,71.1L131.4,71.1z"/>
			<path class="st5" d="M137.8,77.6l1.1,1.1l-6.4,6.4l-1.1-1.1L137.8,77.6z"/>
		</g>
	</g>
	<g transform="rotate(180,105.555,105.557)">
		<g id="vi_2_">
			<path class="st3" d="M126.6,139.4c-2.7-2.7-1.9-7.7,1.6-11.2c3.6-3.6,8.6-4.3,11.2-1.6c2.7,2.7,1.9,7.7-1.6,11.3
				C134.3,141.4,129.2,142.1,126.6,139.4z"/>
			<path class="st5" d="M140,131.4l-1.1,1.1l-4.3-2.1l2.1,4.3l-1.1,1.1l-4.3-8.6L140,131.4L140,131.4z"/>
			<path class="st5" d="M133.5,137.8l-1.1,1.1l-6.4-6.4l1.1-1.1L133.5,137.8z"/>
		</g>
	</g>
	<g transform="rotate(270,105.555,105.557)">
		<g id="vi_3_">
			<path class="st3" d="M71.7,126.6c2.7-2.7,7.7-1.9,11.2,1.6c3.6,3.6,4.3,8.6,1.6,11.2c-2.7,2.7-7.7,1.9-11.2-1.6
				C69.7,134.3,69,129.2,71.7,126.6z"/>
			<path class="st5" d="M79.7,140l-1.1-1.1l2.1-4.3l-4.3,2.1l-1.1-1.1l8.6-4.3L79.7,140L79.7,140z"/>
			<path class="st5" d="M73.3,133.5l-1.1-1.1l6.4-6.4l1.1,1.1L73.3,133.5z"/>
		</g>
	</g>
	<g>
		<circle class="st6" cx="105.6" cy="105.6" r="31.8"/>
		<circle class="st6" cx="105.6" cy="105.6" r="24.2"/>
	</g>
	<g>
		<circle cx="93.4" cy="131.3" r="1.5"/>
		<circle cx="117.7" cy="131.3" r="1.5"/>
		<path d="M104.6,131.3v1.6h-2c-2,0-2,1.6,0,1.6h2v1.6c0,1.6,1.8,1.8,1.9,0.1l0.1-1.7h2c2,0,2-1.6,0-1.6h-2v-1.6
			C106.6,129.7,104.5,129.7,104.6,131.3L104.6,131.3z"/>
		<path d="M76,113.4l2.1-0.5l-0.2-1c-0.1-0.2-0.1-0.4-0.3-0.5c-0.1-0.1-0.3-0.1-0.6-0.1l0-0.1l1.8-0.4l0,0.1
			c-0.2,0.1-0.4,0.1-0.4,0.2c-0.1,0.1-0.1,0.2-0.2,0.3c0,0.1,0,0.2,0,0.4l0.2,1l1.7-0.4c0.3-0.1,0.4-0.1,0.5-0.2
			c0.1,0,0.1-0.1,0.1-0.2c0-0.1,0-0.3,0-0.4l0-0.2l0.1,0l0.5,2.3l-0.1,0l0-0.2c-0.1-0.2-0.2-0.4-0.3-0.4c-0.1,0-0.3,0-0.6,0
			l-3.4,0.8c-0.3,0.1-0.4,0.1-0.5,0.2c-0.1,0-0.1,0.1-0.1,0.2c0,0.1,0,0.3,0,0.4l0,0.2l-0.1,0l-0.9-3.9l1.2-0.3l0,0.1
			c-0.2,0.1-0.4,0.2-0.5,0.4c-0.1,0.1-0.2,0.2-0.2,0.4c0,0.1,0,0.4,0.1,0.6L76,113.4L76,113.4z M74.6,104c0-0.7,0.3-1.3,0.9-1.8
			c0.6-0.5,1.2-0.7,2.1-0.7c0.8,0,1.5,0.3,2,0.9c0.5,0.6,0.8,1.2,0.7,1.9c0,0.7-0.3,1.4-0.9,1.8c-0.6,0.5-1.3,0.7-2.1,0.6
			c-0.9,0-1.6-0.4-2.1-1C74.8,105.3,74.6,104.7,74.6,104L74.6,104z M74.9,104.1c0,0.5,0.1,0.9,0.5,1.2c0.4,0.4,1.1,0.6,1.9,0.7
			c0.9,0.1,1.6-0.1,2.1-0.5c0.4-0.3,0.6-0.6,0.6-1.1c0-0.5-0.1-0.9-0.5-1.3c-0.4-0.4-1-0.6-1.9-0.6c-0.9-0.1-1.6,0.1-2.1,0.4
			C75.1,103.2,74.9,103.6,74.9,104.1L74.9,104.1z M82.8,94.1l-0.5,1.4l-3,0.8c0,0.1-0.1,0.2-0.1,0.3c0,0,0,0.1,0,0.1
			c0,0,0,0.1,0,0.1l1.5,0.6c0.3,0.1,0.5,0.2,0.6,0.1c0.1-0.1,0.3-0.2,0.3-0.4l0.1-0.2l0.1,0.1l-0.8,2.2l-0.1-0.1l0.1-0.2
			c0.1-0.2,0.1-0.4,0-0.5c-0.1-0.1-0.2-0.2-0.5-0.3L77,96.9c-0.3-0.1-0.5-0.2-0.6-0.1c-0.1,0.1-0.3,0.2-0.3,0.4l-0.1,0.2l-0.1-0.1
			l0.7-1.9c0.2-0.5,0.4-0.9,0.6-1.2c0.2-0.2,0.4-0.4,0.7-0.5s0.6-0.1,0.9,0c0.3,0.1,0.5,0.3,0.7,0.6c0.2,0.3,0.2,0.7,0.1,1.1
			l1.9-0.5c0.4-0.1,0.7-0.2,0.9-0.4c0.2-0.1,0.3-0.3,0.5-0.6L82.8,94.1L82.8,94.1z M78.8,96.8c0,0,0-0.1,0-0.1c0,0,0-0.1,0-0.1
			c0.2-0.5,0.2-0.9,0.1-1.2c-0.1-0.3-0.3-0.6-0.7-0.7c-0.3-0.1-0.6-0.1-0.9,0c-0.3,0.1-0.5,0.3-0.6,0.7c-0.1,0.1-0.1,0.4-0.2,0.6
			L78.8,96.8L78.8,96.8z M90.4,78.7l1.1,1.4l-0.1,0.1c-0.4-0.3-0.7-0.5-1-0.5c-0.4-0.1-0.9,0-1.3,0.3c-0.6,0.4-0.9,0.9-0.9,1.6
			c0,0.6,0.2,1.1,0.5,1.6c0.3,0.4,0.6,0.8,1,1c0.4,0.3,0.8,0.4,1.2,0.4c0.4,0,0.7-0.1,1-0.3c0.2-0.1,0.3-0.2,0.4-0.4
			c0.1-0.1,0.2-0.3,0.3-0.5L91.8,82c-0.1-0.2-0.3-0.4-0.3-0.4c-0.1,0-0.2-0.1-0.3-0.1c-0.1,0-0.2,0.1-0.4,0.2l-0.1-0.1l1.8-1.1
			l0.1,0.1l-0.1,0.1c-0.2,0.1-0.3,0.2-0.2,0.4c0,0.1,0.1,0.3,0.3,0.5l0.9,1.4c-0.2,0.3-0.4,0.6-0.6,0.8c-0.2,0.2-0.5,0.4-0.8,0.6
			c-0.9,0.6-1.7,0.7-2.6,0.5c-0.6-0.2-1.1-0.6-1.5-1.1c-0.3-0.4-0.4-0.9-0.5-1.3c-0.1-0.6,0-1.1,0.3-1.6c0.2-0.4,0.5-0.8,1-1.1
			c0.2-0.1,0.3-0.2,0.5-0.3c0.2-0.1,0.4-0.1,0.7-0.2c0.2,0,0.3-0.1,0.3-0.1c0,0,0.1-0.1,0.1-0.1c0-0.1,0-0.1-0.1-0.3L90.4,78.7
			L90.4,78.7z M99.3,79.3l-2,0.5l-0.1,0.9c0,0.2,0,0.4,0,0.5c0,0.1,0.1,0.1,0.2,0.2s0.3,0,0.5,0l0,0.1L96.2,82l0-0.1
			c0.2-0.1,0.3-0.2,0.4-0.3c0.1-0.2,0.2-0.5,0.2-0.9l0.7-4.8l0.1,0l3,3.9c0.2,0.3,0.4,0.5,0.6,0.6c0.1,0.1,0.3,0.1,0.5,0l0,0.1
			l-2.1,0.6l0-0.1c0.2-0.1,0.3-0.1,0.4-0.2c0.1-0.1,0.1-0.2,0.1-0.2c0-0.1-0.1-0.3-0.3-0.5L99.3,79.3L99.3,79.3z M99.1,79.1
			l-1.5-1.9l-0.4,2.4L99.1,79.1L99.1,79.1z M108.7,79l0.1,0l-0.5,1.5l-4.2-0.2l0-0.1l0.2,0c0.2,0,0.4-0.1,0.5-0.2
			c0.1-0.1,0.1-0.3,0.1-0.6l0.1-3.5c0-0.3,0-0.6-0.1-0.6c-0.1-0.1-0.3-0.2-0.5-0.2l-0.2,0l0-0.1l2.5,0.1l0,0.1c-0.3,0-0.5,0-0.6,0.1
			c-0.1,0.1-0.2,0.1-0.2,0.2c0,0.1-0.1,0.3-0.1,0.6l-0.1,3.4c0,0.2,0,0.4,0,0.5c0,0.1,0.1,0.1,0.1,0.1c0.1,0,0.3,0.1,0.6,0.1l0.4,0
			c0.4,0,0.7,0,0.9-0.1c0.2-0.1,0.3-0.2,0.5-0.3C108.4,79.6,108.6,79.4,108.7,79L108.7,79z M116,81l0.1,0.1l-0.9,1.3l-4-1.3l0-0.1
			l0.2,0.1c0.2,0.1,0.4,0.1,0.5-0.1c0.1-0.1,0.2-0.2,0.3-0.5l1.1-3.3c0.1-0.3,0.1-0.5,0.1-0.6c-0.1-0.1-0.2-0.2-0.4-0.3l-0.2-0.1
			l0-0.1l2.3,0.8l0,0.1c-0.3-0.1-0.5-0.1-0.6-0.1c-0.1,0-0.2,0.1-0.3,0.1c-0.1,0.1-0.2,0.3-0.3,0.6l-1.1,3.3
			c-0.1,0.2-0.1,0.4-0.1,0.5c0,0.1,0,0.1,0.1,0.2c0.1,0,0.2,0.1,0.6,0.2l0.4,0.1c0.4,0.1,0.7,0.2,0.9,0.2c0.2,0,0.4-0.1,0.5-0.2
			C115.5,81.4,115.7,81.3,116,81L116,81z M121.8,84.1l-1.7-1.2l-0.8,0.5c-0.2,0.1-0.3,0.2-0.4,0.3c0,0.1-0.1,0.2,0,0.2
			c0,0.1,0.1,0.2,0.3,0.4l-0.1,0.1l-1.4-1l0.1-0.1c0.2,0.1,0.4,0.1,0.5,0.1c0.2,0,0.5-0.2,0.8-0.4l4.2-2.6l0.1,0.1l-1.1,4.8
			c-0.1,0.4-0.1,0.7-0.1,0.8c0,0.2,0.1,0.3,0.3,0.4l-0.1,0.1l-1.8-1.2l0.1-0.1c0.2,0.1,0.3,0.2,0.4,0.2c0.1,0,0.2,0,0.2-0.1
			c0.1-0.1,0.1-0.3,0.2-0.5L121.8,84.1L121.8,84.1z M121.9,83.8l0.5-2.3l-2,1.2L121.9,83.8L121.9,83.8z M128.4,85l0.9,1.2l-1.3,5.1
			l2.5-1.9c0.3-0.2,0.4-0.4,0.4-0.5c0-0.1,0-0.3-0.1-0.5l-0.1-0.2l0.1-0.1l1.1,1.5l-0.1,0.1l-0.1-0.2c-0.1-0.2-0.3-0.3-0.5-0.3
			c-0.1,0-0.3,0.1-0.5,0.3l-3.7,2.7l-0.1-0.1l1.4-5.5l-2.7,2c-0.3,0.2-0.4,0.4-0.4,0.5c0,0.1,0,0.3,0.1,0.5l0.1,0.2l-0.1,0.1
			l-1.1-1.5l0.1-0.1l0.1,0.2c0.1,0.2,0.3,0.3,0.5,0.3c0.1,0,0.3-0.1,0.5-0.3l3-2.3c0.1-0.2,0.1-0.4,0.1-0.5c0-0.1,0-0.2-0.1-0.4
			c0-0.1-0.1-0.2-0.2-0.3L128.4,85L128.4,85z M135.2,97.6l-1.2,0.5L134,98c0.2-0.1,0.3-0.2,0.4-0.3c0.1-0.1,0.2-0.3,0.2-0.4
			c0-0.2,0-0.3-0.1-0.6l-0.3-0.7l-3.9,1.4c-0.3,0.1-0.5,0.2-0.6,0.3c-0.1,0.1-0.1,0.3,0,0.5l0.1,0.2l-0.1,0l-0.8-2.2l0.1,0l0.1,0.2
			c0.1,0.2,0.2,0.3,0.4,0.4c0.1,0,0.3,0,0.6-0.1l3.9-1.4l-0.2-0.6c-0.1-0.2-0.2-0.4-0.2-0.5c-0.1-0.1-0.2-0.2-0.4-0.2
			c-0.2,0-0.4,0-0.6,0l-0.1-0.1l1.2-0.4L135.2,97.6L135.2,97.6z M130.9,107.3l-0.1-1.5l2.4-2c0-0.1,0-0.2,0-0.3c0,0,0-0.1,0-0.1
			c0,0,0-0.1,0-0.1l-1.6,0.1c-0.3,0-0.6,0.1-0.6,0.1c-0.1,0.1-0.2,0.3-0.2,0.5l0,0.2l-0.1,0l-0.1-2.3l0.1,0l0,0.2
			c0,0.2,0.1,0.4,0.3,0.5c0.1,0.1,0.3,0.1,0.6,0.1l3.5-0.2c0.3,0,0.6-0.1,0.6-0.1c0.1-0.1,0.2-0.3,0.2-0.5l0-0.2l0.1,0l0.1,2
			c0,0.6,0,1-0.1,1.3c-0.1,0.3-0.2,0.5-0.4,0.7c-0.2,0.2-0.5,0.3-0.8,0.3c-0.3,0-0.6-0.1-0.9-0.3c-0.3-0.2-0.4-0.5-0.6-1l-1.5,1.2
			c-0.3,0.3-0.6,0.5-0.7,0.7s-0.2,0.4-0.2,0.7L130.9,107.3L130.9,107.3z M133.5,103.3c0,0.1,0,0.1,0,0.1c0,0,0,0.1,0,0.1
			c0,0.5,0.2,0.9,0.4,1.2c0.2,0.3,0.5,0.4,0.9,0.4c0.3,0,0.6-0.1,0.8-0.4c0.2-0.2,0.3-0.5,0.3-0.9c0-0.2,0-0.4-0.1-0.6L133.5,103.3
			L133.5,103.3z M135,114.5l-0.5,1.8l-0.1,0l0-0.1c0-0.1,0-0.2,0-0.3s-0.1-0.3-0.2-0.4c-0.1-0.1-0.2-0.3-0.4-0.5l-1.7-1.8l-1.3-0.3
			c-0.3-0.1-0.5-0.1-0.6-0.1c-0.1,0.1-0.2,0.2-0.3,0.4l0,0.2l-0.1,0l0.6-2.2l0.1,0l0,0.2c-0.1,0.2,0,0.4,0.1,0.5
			c0.1,0.1,0.2,0.2,0.5,0.2l1.2,0.3l2.6-0.9c0.3-0.1,0.5-0.2,0.6-0.2c0.1,0,0.2-0.1,0.3-0.3c0,0,0.1-0.1,0.1-0.2l0.1,0l-0.6,2.3
			l-0.1,0l0-0.1c0-0.1,0-0.2,0-0.4c0-0.1-0.1-0.2-0.2-0.2c-0.1,0-0.3,0-0.6,0.1l-2,0.7l1.4,1.5c0.2,0.2,0.4,0.3,0.5,0.4
			c0.1,0,0.1,0,0.2,0c0.1,0,0.1-0.1,0.2-0.1c0.1-0.1,0.1-0.2,0.1-0.3L135,114.5L135,114.5z"/>
	</g>
	<g>
		<path class="st7" d="M122.8,110.2c0.5-0.1,1.4,0,1.4,0s0.1,0.4-0.2,0.5c0.3,0.1,1.2,0.1,1.2,0.1s-0.4,0.3-0.5,0.4
			c0.3,0,0.7,0.5,0.7,0.5s-0.8,0.1-1.1-0.1c0.2,0.4,0.2,0.8,0.2,0.8s-1.2-0.3-1.7-1.1"/>
		<path class="st7" d="M120.8,109.5c-0.3,0.7-2.5-0.6-2.5-0.6s1,1.5,2.4,1.7"/>
		<path class="st7" d="M93.2,123.7h25.9l2-1.6l-3.3-1.8l-5.1-1.7l-2-1.1l-3.8,0.2l-3.2,1.7l-4.4,0.5l-1,1.2l-3.2,0.3l-5.1-0.1
			l8.5,1.3l-7-0.4L93.2,123.7L93.2,123.7z"/>
		<path class="st7" d="M107.1,116.2c-3.2-1.7-4.2,2.5-5.6,3.6c1.9,0.3,3.3-1.4,4.9-2.3c1.2,3.3,3.2,1.1,3.2,1.1s2,3.2,4.7,1.7
			c0.7,0.6,1.5,0.1,1.5,0.1s1,0.2,1.2-0.3c0.5,0.2,1.1-0.5,1.1-0.5s1.1,0,1.3-0.6c1.7,0.3,3.8-3.4,3.8-3.4l0.7-1.3l1-0.2
			c0,0,0.1-0.6-0.5-0.6c0-0.4-0.3-0.6-0.8-0.5c0.1-0.2-0.3-0.4-0.3-0.4c-0.9,0.2-1,2.6-1,2.6s-1.6,1.2-2.2,1.5c0-1.3-2.3-3.1-1.8-4
			c0.5-0.9,1.9,1.3,3.2,0.9c1.3-0.4,1.9-2,1.9-3.3c-0.4-0.9-1.2-2.3-1.2-2.3l-0.8-0.1l-0.7-1.7c0,0-1.5,1-1.5,1.8
			c0,0.9,1.6,1.6,1.6,1.6s-0.9,0.6-1.7,0.3c-0.1,0.9,1,0.7,1.4,0.7c0.2,0.6,0.8,1,0.8,1s0.4,1-0.6,0.9c-1-0.1-2.2-2.4-3.6-1.3
			c-1.5,1.1,0.7,3.2,0.7,3.2s-1.3,0.7-2.1,2.5C112.5,114.3,110.7,115.5,107.1,116.2L107.1,116.2z"/>
		<path class="st7" d="M102.5,111.7c1.3,1.3,0.4,3.3,0.9,3.7c0.6,0.4,1.3-0.2,1.3-0.2c1.4,0.4,3.9-0.4,3.9-0.4
			c1.1,0.6,0.7-0.3,1.3-0.3c0.6,1.5,2.6,1.2,2.6,1.2s-1.8-1.8-2.9-2.4c-0.9,0.5-3.4,0.6-3.8,0.5c-0.5-0.1-0.2-0.7-0.4-1
			c0.9-0.9,0.2-3.1-0.3-3.9C103,107.6,100.6,109.9,102.5,111.7L102.5,111.7z"/>
		<path class="st7" d="M93.6,107.9c-1.7,0.5-4.6-2.2-5.9-1.2s-0.7,3.5,0.2,4.7c0.9,1.2-1.3,1.6-1.9,2.4c-0.6,0.7,0.2,1.4,0.2,1.4
			l0.6,0.4l-0.1,0.9l0.3,1.1c0,0,0.3,0.3,0.4-0.1c0.3,0.3,0,1.1,0.7,1.2c-0.2-0.5,0.2-2,0.2-2s1.2,0.1,1.5-0.4
			c0.3-0.5-0.3-1.7-0.3-1.7h0.4c-0.4-0.3-0.5-1.1-0.5-1.1s1.7-0.5,1.7-1.8c0-1.3-2.7-2.6-1.7-3.3c1.1-0.7,3,1.9,4.7,0.7
			c1.6-1.2,0.6,0,0.6,0S95.3,107.5,93.6,107.9L93.6,107.9z"/>
		<path class="st7" d="M102.2,90c-2.2-0.9-6.8-1-9.4-2.3c-1.1,0.1-1.6,1-1.7,1.3c-1.2-0.1-2,1.8-1.8,2.2c-2.1-0.9-3.1,2.5-2.4,3.2
			c-1.8,0.1-1.6,2.4-1.8,3c-0.6,1.4,0.1,1.9,1.3,1.4c0.2,0.6-0.1,1-0.6,1.1c3.2,3.6,4.9-2.2,7.7-2.2c3.5-1,4.8-2.7,4.8-2.7l1.4,0.2
			L102.2,90L102.2,90z"/>
		<circle class="st7" cx="105.1" cy="87.4" r="3.3"/>
		<path class="st7" d="M99.3,113.4c-2-0.4-5.4-2.5-5.8-5.3c1.9-7.5,11.8-3.6,12.6-9.2c-0.2-3.7,0.4-7.4,2.5-10.5
			c1-1.2,2.2-1.5,2.2-1.5s0.2,0.8-0.1,1.3c1.6-0.2,3.9,0.7,5.4,0.8c0.4,0.9,0.4,1.2,0.3,1.8c-0.1,0.6-0.7,0.4-0.7,0.4
			c-0.4,0.4-0.9,0.8-1.9,0.6c-0.8,0.6-2.5,0.8-2.5,0.8s3.6,3.8,3,4.9c0.7,0.3,1.8,2,1.8,2s2.4-1.3,3.2-2.5c1.4,0,3.7,1.5,4.9,1.6
			c1.4,1.1,2.8,2.3,2.8,2.3s-1.7,1.1-2.4-0.4c-0.9,0.1-2.8-2-5.4-1.4c-0.1,2.3-2.7,4-2.7,4s2.4-0.3,3.7,0.5c1.4,1.2,3.4,2.7,3.4,2.7
			l1.8,3.1c0,0-1.6,0.3-2.3-1.8c-0.6,1.7-0.6-1.1-3.1-2.4c-0.7,0.1-1.1,0.1-1.7-0.4c-1.8,0.5-3.8,1.5-6.3,1.2c-1.8,0.6-3,2-4.8,2.8
			c-1.8,0.8-2.3,0.4-2.3,0.4l-1.4,0.1c-0.2,0.9-0.1,2.2-0.9,2.4c0.5,0.5-0.4,2.8-1.2,3.2c0.4,1.5,1.6,1.9,2.9,2.7
			c0,0,1.1-0.5,1.8,0.2c0.7,0.7,1.5,2.6,1.5,2.6s-1.5,0.1-2-0.1c-0.5-0.2-0.5-0.7-1.1-0.6c-3.5-3.1-5.3-1.9-5.6-2.6
			C98.5,116.5,99.7,114.6,99.3,113.4L99.3,113.4z"/>
		<path class="st7" d="M91,99.7c0.2-0.2,1.4,0.3,1.4,0.3l2.3,1.4l4.7,3l1.7,2.4l-3-1l-4.2-3.6l-2.2-1.4
			C91.7,100.8,90.8,99.9,91,99.7L91,99.7z"/>
		<path class="st7" d="M118.8,107.4c-1.6-0.4-5.6,4.5-5.6,4.5l3,3.3C116.2,115.1,116.3,109.5,118.8,107.4z"/>
		<path class="st7" d="M99,93.8c-0.9,1.1-1,3.4,0.2,4.4c0.1,1.4,1.3,4.2,2.2,4.5c1,0.3,5.1,1.2,6.7,1c-0.3,2.6,1.7,4.6,3.6,6
			c0,0.2,0,0.5,0.2,0.8c0.2,0.3,1.2,0.3,1.2,0.2c0.4,0.6,2.5,0.9,2.7,0.6c0.1-0.3-3.1-2.5-3.8-3.2c-0.6-1.1-1.8-3.7-2-5.7
			c-1.6-1.9-4.3-1.9-4.3-1.9l0.1-3.7l0.2-4.2l-1.5-0.8c0,0,0.3-0.1,0.5-0.3c0.4,0.2,1-0.6,1.1-0.8c0.3,0.1,0.7,0.1,0.7-0.1
			c0.1-0.2,0.1-0.9,0.2-1.3c1.1-1-0.2-3.1-1.9-3.1c-1.7,0-2.1,2-2,2.2c0.2,0.6,0.1,1,0,1.1c-0.1,0.2-0.7,0.5-0.7,0.5s-0.9-0.4-2.1,0
			s-2.4,1.1-2.5,1.8c-0.5,0.1-1.4,0.8-1.5,1.3c-0.5-0.1-1.1,0.3-2,1.9c-1.8,0.8-1.9,4.6-1.9,4.6s-0.5,0.7-0.5,1.1
			c0,0.4,0.2,0.7,0.4,0.6c0,0.2,0.3,0.5,0.5,0.4c0.1,0.2,0.4,0.4,0.6,0.3c0,0.2,0.7,0.1,0.8,0c0.1-0.2-0.1-1,0-1.1
			c0.1-0.1,0.6,0.4,0.8,0.3c0.2-0.1,0-0.5-0.1-0.6c-0.1-0.1-0.6-0.3-0.7-0.9s0.3-1.4,0.3-1.4s1.9-1.5,2.1-2.8
			C97.8,95.5,98.6,94.3,99,93.8L99,93.8z"/>
		<path class="st7" d="M95.7,88.4c0.4-1.1,2-1,2-1s0.6-1.5,2.7-0.6c0.8-0.6,2.9,0.3,2.9,0.3s0.8-1.1,1.8-0.9c1.9,0.2,2.2,2,2.1,2.3
			c-1.1,0.3-2.9-0.9-4.3-0.5c-0.8,0.5-2.1,0.9-2.6,1.6C99.1,89.6,97.8,88.3,95.7,88.4L95.7,88.4z"/>
		<path class="st7" d="M99.7,90.2c0.5-0.3,1.7-0.8,2.5-0.2c0.8,0.9,2.1,1.7,2.1,1.7l1.5,0.6l0.7,0.4l-0.4,6.7
			c-1.4-1.4-2.6-1.6-3.6-3.3c-0.5-0.7-0.1-2.4-1-3.5C100.5,91.6,99.5,90.8,99.7,90.2L99.7,90.2z"/>
		<path class="st7" d="M103.2,92.1c0,0,0.8-0.1,1,0c0.3,0.1,0.5,0.2,0.6,0.4c0.3,0.1,0.5,0.2,0.5,0.5c0.3,0.1,0.4,0.6,0.4,0.6
			l-0.3,0.4c0,0-0.3-0.3-0.3-0.6c-0.2-0.1-0.6-0.2-0.7-0.5c-0.3,0-0.5-0.2-0.6-0.5C103.5,92.5,103.2,92.1,103.2,92.1L103.2,92.1z"/>
		<path class="st7" d="M109.7,87.7c-0.4-0.5-1.2-0.1-1.2-0.1l-2,3.5l-0.9,0.7l-0.1,2.8l0.7,2.6l-0.3,2c0,0,1-1,1.2-1.5
			c0.1-0.5-0.4-2.2-0.4-2.2s-0.6-1.1,0.1-3C107.6,90.6,109.3,88.9,109.7,87.7L109.7,87.7z"/>
		<path class="st7" d="M114.7,90.9c0,0-3.2,4.6-8.4,6.2c-1.4,0.3-0.9-3.4-0.9-3.4l-0.4,0.1c0,0-0.8,3.7,1.1,3.7
			c5.3-1,9.2-6.6,9.2-6.6L114.7,90.9L114.7,90.9z"/>
		<path class="st7" d="M116.9,117.2c0,0-0.5,0.4-1.1,0c-0.3-0.8-1.2-0.8-1.2-0.8s-0.6-1.7-1.5-1.2c-0.1-0.9-1.1-0.4-1.1-0.4
			s0-1.2-1.2-1.1c0.4-1.4-1.6-1.3-1.6-1.3s-0.1-1.6-3-1.3c6.3-2.8,11.2,4.4,11.2,4.4"/>
		<path class="st7" d="M119.9,117.8c0,0,1.4,1.6,2.2,1.6c0.8,0,0.8-1.6,0.8-1.6s0.2,0.7,0.6,0.5c0,0.5,0.5,0.6,0.5,0.6s-1.3,3-5,0.2
			"/>
		<path class="st7" d="M108.6,118.4l-0.5,2.1c0,0-0.7,0.6-0.5,0.7c0.2,0.1,1.2-0.2,1.2-0.2s1.6-0.2,2.1-0.7c0.3,0.8,1.1,0.8,1.1,0.8
			s0.1-0.3-0.1-0.5c0.4,0.1,0.7-0.1,0.7-0.1s0.2-0.6-0.3-0.8c0.1-0.4,0.3-0.8-0.5-0.8c-0.6,0.6-2,1.3-2.4,1.1c-0.4-0.2,1.4-1,0.9-2"
			/>
	</g>
</g>
</svg>
