<?xml version="1.0" encoding="utf-8"?>
<!-- Generator: Adobe Illustrator 21.0.0, SVG Export Plug-In . SVG Version: 6.00 Build 0)  -->
<svg version="1.1" id="Layer_1" xmlns="http://www.w3.org/2000/svg" xmlns:xlink="http://www.w3.org/1999/xlink" x="0px" y="0px"
	 viewBox="0 0 1000 600" style="enable-background:new 0 0 1000 600;" xml:space="preserve">
<style type="text/css">
	.st0{fill:#0067C6;}
	.st1{fill:#FFFFFF;}
	.st2{fill:#C8A400;}
	.st3{clip-path:url(#SVGID_2_);}
	.st4{opacity:0.6204;fill:#17C0EB;stroke:#17C0EB;stroke-width:0.1287;enable-background:new    ;}
	.st5{fill:#FF0000;}
	.st6{fill:#FF6600;}
	.st7{fill:#FFFF00;}
	.st8{fill:#00FF00;}
	.st9{fill:#00CCFF;}
	.st10{fill:#0000FF;}
	.st11{fill:#800080;}
	.st12{fill:#510000;}
	.st13{fill:url(#SVGID_3_);}
	.st14{fill:#FF2A2A;}
	.st15{fill:url(#SVGID_4_);}
	.st16{fill:#910000;}
	.st17{fill:#FF3A3A;}
	.st18{fill:url(#waveb1_9_);}
	.st19{fill:url(#waveb1_10_);}
	.st20{fill:url(#waveb1_11_);}
	.st21{fill:url(#waveb1_12_);}
	.st22{fill:url(#waveb1_13_);}
	.st23{fill:url(#waveb1_14_);}
	.st24{fill:url(#waveb1_15_);}
	.st25{fill:url(#waveb1_16_);}
	.st26{fill:url(#waveb1_17_);}
	.st27{fill:url(#SVGID_5_);}
	.st28{fill:url(#SVGID_6_);}
	.st29{fill:url(#SVGID_7_);}
	.st30{fill:#97C924;}
	.st31{fill:#EDE71F;}
	.st32{fill:#C6CB24;}
	.st33{fill:#9ECB34;}
	.st34{fill:url(#SVGID_8_);}
	.st35{fill:url(#SVGID_9_);}
	.st36{fill:url(#SVGID_10_);}
	.st37{fill:#93BC30;}
	.st38{fill:#CCD11E;}
	.st39{fill:url(#SVGID_11_);}
	.st40{fill:url(#SVGID_12_);}
	.st41{fill:url(#wavef1_9_);}
	.st42{fill:url(#wavef1_10_);}
	.st43{fill:url(#wavef1_11_);}
	.st44{fill:url(#wavef1_12_);}
	.st45{fill:url(#wavef1_13_);}
	.st46{fill:url(#wavef1_14_);}
	.st47{fill:url(#wavef1_15_);}
	.st48{fill:url(#wavef1_16_);}
	.st49{fill:url(#wavef1_17_);}
</style>
<rect class="st0" width="1000" height="600"/>
<rect y="200" class="st1" width="1000" height="200"/>
<g id="text">
	<path class="st2" d="M410,299.3c3.3,0.2,6.7,0.4,10,0.7c0-0.5,0.1-1,0.1-1.5c-1.3-0.1-2.6-0.2-3.9-0.3c0.1-1.6,0.2-3.2,0.3-4.8
		c1.4-1,2.8-2,4.2-3c0-0.6,0.1-1.2,0.1-1.8c-1.5,1.1-2.9,2.1-4.4,3.2c-0.1-1-0.7-2.1-1.8-2.5c-0.9-0.3-2-0.4-2.8,0.3
		c-1,0.7-1.2,2.1-1.3,3.2C410.3,295,410.2,297.2,410,299.3L410,299.3z M411.5,298c0.1-1.6,0.2-3.3,0.4-4.9c0.1-0.8,0.3-1.7,1-2.3
		c0.6-0.4,1.6-0.1,1.8,0.6c0.5,1.2,0.3,2.6,0.2,3.9c-0.1,0.9-0.1,1.9-0.2,2.8C413.7,298.1,412.6,298,411.5,298L411.5,298z"/>
	<path class="st2" d="M411.3,284c3.2,0.8,6.5,1.5,9.7,2.3c0.7-3.2,1.5-6.3,2.2-9.5c-0.5-0.1-0.9-0.2-1.4-0.3
		c-0.6,2.7-1.3,5.4-1.9,8.1c-1-0.2-2-0.5-3-0.7c0.6-2.4,1.1-4.8,1.7-7.3c-0.5-0.1-0.9-0.2-1.4-0.3c-0.6,2.4-1.1,4.8-1.7,7.3
		c-0.9-0.2-1.7-0.4-2.6-0.6c0.6-2.6,1.2-5.2,1.8-7.8c-0.5-0.1-0.9-0.2-1.4-0.3C412.7,277.9,412,280.9,411.3,284L411.3,284z"/>
	<path class="st2" d="M414.8,270.9c3.1,1.1,6.3,2.2,9.4,3.3c0.2-0.5,0.3-0.9,0.5-1.4c-1.2-0.4-2.5-0.9-3.7-1.3
		c0.5-1.4,1-2.8,1.5-4.3c0.3-1.2,0.6-2.6-0.1-3.6c-0.6-0.8-1.6-1.3-2.5-1.3c-1.1,0-2,0.8-2.5,1.8c-0.7,1.3-1.1,2.8-1.6,4.2
		C415.4,269.2,415.1,270.1,414.8,270.9z M416.6,270c0.5-1.4,1-2.9,1.5-4.3c0.3-0.7,0.8-1.6,1.6-1.9c0.7-0.2,1.5,0.4,1.5,1.1
		c0.2,1.3-0.4,2.6-0.8,3.8c-0.3,0.7-0.5,1.5-0.8,2.2C418.7,270.7,417.6,270.4,416.6,270L416.6,270z"/>
	<path class="st2" d="M420,258.8c1.8,1,3.5,2.1,5.3,3.1c1,0.5,2.3,0.9,3.3,0.2c1.4-0.8,2.3-2.3,3.1-3.7c0.6-1.2,1-2.7,0.3-4
		c-0.8-1.2-2.2-1.8-3.3-2.5c-1.2-0.7-2.3-1.3-3.5-2c-0.2,0.4-0.5,0.8-0.7,1.3c1.7,1,3.4,2,5.1,3c0.8,0.5,1.5,1.4,1.3,2.4
		c-0.2,1.2-0.8,2.2-1.5,3.2c-0.6,0.8-1.5,1.4-2.5,1.2c-1-0.2-1.9-0.9-2.8-1.4c-1.1-0.7-2.3-1.3-3.4-2
		C420.5,258,420.3,258.4,420,258.8L420,258.8z"/>
	<path class="st2" d="M427.2,247.1c2.6,2,5.3,4.1,7.9,6.1c1.2-1.6,2.5-3.2,3.7-4.8c0.7-1,1.4-2.4,0.9-3.6c-0.4-1-1.5-1.8-2.6-1.8
		c-0.5-0.1-1.1,0.3-1.4,0.5c0.3-1.1-0.6-2.1-1.6-2.4c-1.2-0.4-2.4,0.3-3.2,1.2c-0.9,1-1.7,2.1-2.5,3.2
		C428.1,245.9,427.7,246.5,427.2,247.1z M429.2,246.8c0.9-1.2,1.8-2.4,2.8-3.6c0.5-0.5,1.2-1.1,1.9-0.7c0.6,0.3,0.8,1.1,0.5,1.7
		c-0.5,1-1.3,1.9-2,2.8c-0.4,0.5-0.7,1-1.1,1.4C430.6,247.8,429.9,247.3,429.2,246.8z M432.5,249.2c1-1.2,1.9-2.5,2.9-3.7
		c0.5-0.5,1.2-1.2,2-1.1c0.7,0.2,1.2,0.9,1,1.6c-0.4,1.3-1.4,2.3-2.2,3.4c-0.4,0.5-0.8,1.1-1.2,1.6
		C434.1,250.5,433.3,249.9,432.5,249.2z"/>
	<path class="st2" d="M436.2,236.5l6.9,7.3l5.9-5.6l-1-1l-4.7,4.4l-0.1,0.1l-0.1-0.1l-5.8-6.1L436.2,236.5z"/>
	<path class="st2" d="M445,228.8l6.1,7.9l1.2-0.9l-6.1-7.9L445,228.8z"/>
	<path class="st2" d="M454,222.7c-1,0.6-1.8,1.3-2.4,2.2c-0.6,0.8-0.9,1.7-1,2.6c0,0.9,0.2,1.8,0.7,2.7c0.5,0.8,1.2,1.4,2,1.8
		c0.8,0.4,1.7,0.6,2.7,0.5c1-0.1,2.1-0.5,3.3-1.3c1.2-0.7,2-1.6,2.5-2.5c0.5-0.9,0.6-1.9,0.4-2.9l-1.4,0.5c0.4,2-0.9,3-2.4,3.9
		c-2.3,1.4-4.5,1.3-5.8-0.8c-1.4-2.3,0.1-4.3,2.1-5.5c1.4-0.9,2.7-1.4,4-0.6l1.1-1c-0.7-0.5-1.6-0.8-2.6-0.7
		C456.2,221.6,455.1,222,454,222.7L454,222.7z"/>
	<path class="st2" d="M465.8,216.8l-1,11.2l1.6-0.6l0.3-3.5l0,0l5.1-2l2.6,2.3l1.6-0.6l-8.5-7.3L465.8,216.8L465.8,216.8z
		 M467.2,217.9l3.3,2.9l-3.7,1.5L467.2,217.9z"/>
	<path class="st2" d="M487.7,210.6c0.2,3.3,0.4,6.7,0.6,10c1.8-0.1,3.6-0.2,5.4-0.4c1.4-0.2,2.9-0.5,3.9-1.7
		c1.3-1.4,1.4-3.5,0.9-5.2c-0.5-1.5-1.8-2.7-3.4-3c-1.5-0.3-3.1-0.1-4.6,0C489.6,210.5,488.7,210.5,487.7,210.6L487.7,210.6z
		 M489.3,211.9c1.4-0.1,2.9-0.2,4.3-0.2c0.8,0,1.6,0.2,2.3,0.7c1,0.7,1.6,1.9,1.5,3.1c-0.1,1.4-1.1,2.7-2.4,3
		c-0.8,0.2-1.6,0.3-2.4,0.3c-0.9,0.1-1.9,0.1-2.8,0.2C489.6,216.7,489.4,214.3,489.3,211.9L489.3,211.9z"/>
	<path class="st2" d="M501.7,210c-0.2,3.3-0.4,6.7-0.6,10c3.2,0.2,6.5,0.4,9.7,0.6c0-0.5,0.1-0.9,0.1-1.4c-2.8-0.2-5.5-0.3-8.3-0.5
		c0.1-1,0.1-2,0.2-3c2.5,0.1,5,0.3,7.4,0.4c0-0.5,0.1-0.9,0.1-1.4c-2.5-0.1-5-0.3-7.4-0.4c0.1-0.9,0.1-1.8,0.2-2.7
		c2.7,0.2,5.3,0.3,8,0.5c0-0.5,0.1-1,0.1-1.4C507.9,210.4,504.8,210.2,501.7,210L501.7,210z"/>
	<path class="st2" d="M527.8,214.2l-3.6,9.3l1.3,0.5l2.9-7.4l0.1-0.4l0.2,0.4l3.4,9.9l1.7,0.7l3.6-9.3l-1.3-0.5l-2.9,7.4l-0.1,0.4
		l-0.2-0.4l-3.5-9.9L527.8,214.2z"/>
	<path class="st2" d="M541.2,219.9l-4.5,8.9l-1.3-0.7l4.5-8.9L541.2,219.9z"/>
	<path class="st2" d="M548.8,224.4c-1-0.6-2-1.1-3-1.3c-1-0.2-1.9-0.1-2.8,0.2c-0.8,0.3-1.5,0.9-2.1,1.8c-0.5,0.8-0.8,1.6-0.9,2.6
		c-0.1,0.9,0.2,1.8,0.7,2.6c0.5,0.8,1.3,1.6,2.5,2.4c1.1,0.8,2.3,1.2,3.3,1.2c1,0.1,2-0.2,2.9-0.9l-1.1-1c-1.7,1.2-3.1,0.4-4.5-0.5
		c-2.2-1.5-3-3.5-1.7-5.6c1.5-2.2,3.9-1.7,5.9-0.4c1.3,0.9,2.4,1.9,2.2,3.4l1.3,0.6c0.2-0.9,0-1.8-0.4-2.6
		C550.6,225.9,549.9,225.1,548.8,224.4L548.8,224.4z"/>
	<path class="st2" d="M558.3,231.5l-10.5,4.2l1.3,1.1l3.2-1.3l0,0l4.1,3.6l-0.8,3.4l1.3,1.1l2.7-10.9L558.3,231.5L558.3,231.5z
		 M557.9,233.3l-1,4.3l-3-2.6L557.9,233.3L557.9,233.3z"/>
	<path class="st2" d="M565.8,238.5c-2.6,2.1-5.1,4.2-7.7,6.4c0.3,0.4,0.6,0.8,0.9,1.1c1-0.8,2-1.7,3-2.5c1,1.2,2,2.5,3.1,3.7
		c-0.3,1.7-0.6,3.4-1,5.1c0.4,0.5,0.8,1,1.2,1.4c0.3-1.8,0.7-3.6,1-5.3c0.9,0.7,2.1,1.1,3.2,0.5c0.9-0.4,1.7-1.2,1.7-2.3
		c0.1-1.4-0.9-2.5-1.7-3.5C568.3,241.5,567.1,240,565.8,238.5L565.8,238.5z M565.7,240.5c1.1,1.3,2.2,2.6,3.2,4
		c0.5,0.7,1.1,1.7,0.5,2.5c-0.4,0.7-1.4,0.6-2,0.2c-1.2-0.8-2-2.1-3-3.2c-0.4-0.5-0.8-1-1.2-1.5C564,241.9,564.8,241.2,565.7,240.5z
		"/>
	<path class="st2" d="M577.5,254.4l-11.2,0.5l0.8,1.5l3.5-0.2l0,0l2.7,4.7l-1.9,2.9l0.8,1.5l6.1-9.5L577.5,254.4L577.5,254.4z
		 M576.6,255.9l-2.4,3.7l-2-3.5L576.6,255.9z"/>
	<path class="st2" d="M583.9,267.6c-0.6-1.7-1.6-3.4-3.3-4.3c-1.9-0.9-4.3-0.5-5.6,1.2c-1.1,1.4-1.2,3.3-0.9,5
		c0.4,1.9,1.2,3.7,2.6,5.2c-0.2,0.1-0.5,0.2-0.7,0.3c0.2,0.4,0.3,0.9,0.5,1.3c1.6-0.6,3.1-1.1,4.7-1.7c-0.6-1.7-1.2-3.4-1.8-5.1
		c-0.4,0.1-0.7,0.3-1.1,0.4c0.4,1.2,0.9,2.5,1.3,3.7c-0.5,0.2-1.1,0.4-1.6,0.6c-1.4-1.2-2.2-3-2.6-4.7c-0.3-1.3-0.3-2.9,0.7-4
		c1.2-1.2,3.2-1.6,4.6-0.5c1.4,1,2.1,2.6,2.5,4.2c0.3,1.1,0.2,2.3-0.6,3.1c-0.2,0.2,0.1,0.4,0.2,0.6c0.1,0.2,0.3,0.4,0.4,0.6
		c0.8-0.7,1.4-1.7,1.3-2.8C584.5,269.7,584.3,268.6,583.9,267.6z"/>
	<path class="st2" d="M586.8,275.4l-5.6,1.1c-1,0.2-1.8,0.5-2.3,1c-0.5,0.4-0.8,1.1-1,1.9c-0.2,0.8-0.1,1.8,0.1,3c0,0,0,0,0,0
		c0.2,1.2,0.6,2.1,1,2.8c0.5,0.7,1,1.1,1.6,1.4c0.6,0.2,1.5,0.2,2.5,0l5.6-1.1l-0.3-1.4l-5.5,1.1c-2.4,0.5-3.3-0.8-3.7-3
		c0,0,0,0,0,0c-0.4-2.2-0.2-3.7,2.3-4.2l5.5-1.1L586.8,275.4L586.8,275.4z"/>
	<path class="st2" d="M589.9,292.5l-10.3-4.4l0.1,1.7l3.2,1.4l0,0l0.4,5.4l-3,1.8l0.1,1.7l9.6-5.9L589.9,292.5L589.9,292.5z
		 M588.4,293.4l-3.8,2.3l-0.3-4L588.4,293.4z"/>
	
		<rect x="417.1" y="318.4" transform="matrix(0.9671 -0.2546 0.2546 0.9671 -68.1 116.9679)" class="st2" width="1.5" height="6.3"/>
	
		<rect x="579.1" y="320.8" transform="matrix(0.2546 -0.9671 0.9671 0.2546 123.0097 802.7279)" class="st2" width="6.3" height="1.5"/>
	<path class="st2" d="M433.2,344l-11.2,1.3l0.9,1.4l3.5-0.4l0,0l3,4.5l-1.7,3.1l0.9,1.4l5.4-9.9L433.2,344L433.2,344z M432.4,345.6
		l-2.1,3.8l-2.2-3.3L432.4,345.6L432.4,345.6z"/>
	<path class="st2" d="M437.5,350.1l-7.1,6.7l1,1l6-5.6l-3.2,8.7l1.1,1.2l8.6-2.6l-5.9,5.5l1,1l7.1-6.7l-1.4-1.5l-8.8,2.6l3.3-8.5
		L437.5,350.1z"/>
	<path class="st2" d="M447.9,360.7c-2,2.7-4,5.3-6,8c2.6,2,5.2,3.9,7.8,5.9c0.3-0.4,0.6-0.8,0.9-1.1c-2.2-1.7-4.4-3.3-6.6-5
		c0.6-0.8,1.2-1.6,1.8-2.4c2,1.5,4,3,6,4.5c0.3-0.4,0.6-0.8,0.9-1.1c-2-1.5-4-3-6-4.5c0.5-0.7,1.1-1.4,1.6-2.2
		c2.1,1.6,4.2,3.2,6.4,4.8c0.3-0.4,0.6-0.8,0.9-1.1C452.9,364.5,450.4,362.6,447.9,360.7L447.9,360.7z"/>
	<path class="st2" d="M457.7,367.9c-1.6,2.9-3.1,5.9-4.7,8.8c0.4,0.2,0.9,0.5,1.3,0.7c0.6-1.2,1.2-2.3,1.9-3.5
		c1.4,0.7,2.8,1.5,4.3,2.3c0.3,1.7,0.7,3.4,1,5c0.5,0.3,1.1,0.6,1.6,0.9c-0.4-1.8-0.7-3.5-1.1-5.3c1.1,0.3,2.4,0.2,3.1-0.7
		c0.6-0.7,1.1-1.7,0.8-2.6c-0.4-1.3-1.6-2-2.7-2.6C461.3,369.8,459.5,368.8,457.7,367.9L457.7,367.9z M458.3,369.8
		c1.5,0.8,3,1.6,4.5,2.5c0.7,0.5,1.6,1.1,1.5,2c-0.1,0.8-1,1.3-1.7,1.1c-1.5-0.2-2.7-1.1-4-1.8c-0.6-0.3-1.2-0.6-1.8-1
		C457.3,371.7,457.8,370.7,458.3,369.8L458.3,369.8z"/>
	<path class="st2" d="M469,373.8l-3.8,9.3l1.4,0.6l3.8-9.3L469,373.8z"/>
	<path class="st2" d="M478,376.9c-1.1-0.4-2.2-0.5-3.2-0.5c-1,0.1-1.9,0.4-2.6,0.9c-0.7,0.5-1.3,1.3-1.6,2.3
		c-0.3,0.9-0.3,1.8-0.2,2.7c0.2,0.9,0.6,1.7,1.3,2.4c0.7,0.7,1.7,1.2,3.1,1.7c1.3,0.4,2.5,0.5,3.5,0.3c1-0.2,1.9-0.7,2.5-1.6
		l-1.3-0.7c-1.3,1.6-2.9,1.2-4.5,0.7c-2.5-0.9-3.8-2.6-3.1-5c0.9-2.6,3.4-2.6,5.5-1.9c1.5,0.5,2.8,1.2,3,2.7l1.4,0.2
		c-0.1-0.9-0.4-1.7-1.1-2.4C480.2,377.9,479.2,377.3,478,376.9L478,376.9z"/>
	<path class="st2" d="M488,379.1l-6.5,9.2l1.7,0.2l2-2.8l0,0l5.4,0.8l1.1,3.3l1.7,0.2l-3.7-10.6L488,379.1L488,379.1z M488.6,380.8
		l1.4,4.2l-4-0.6L488.6,380.8z"/>
	<path class="st2" d="M511.5,379.2c-1.1,0.2-2.1,0.6-3,1.2c-0.9,0.6-1.5,1.3-1.9,2.1c-0.4,0.8-0.5,1.7-0.3,2.7
		c0.2,0.9,0.6,1.7,1.2,2.4c0.6,0.7,1.4,1.2,2.3,1.4c0.9,0.2,2.1,0.2,3.5,0c1.3-0.3,2.4-0.7,3.2-1.5c0.8-0.7,1.3-1.6,1.4-2.6l-1.5,0
		c-0.4,2-1.9,2.4-3.6,2.8c-2.6,0.5-4.6-0.4-5.1-2.8c-0.5-2.7,1.6-3.9,3.9-4.4c1.6-0.3,3-0.4,3.9,0.9l1.4-0.5
		c-0.5-0.7-1.2-1.3-2.1-1.6C513.9,379,512.8,378.9,511.5,379.2L511.5,379.2z"/>
	<path class="st2" d="M518.1,378c0.9,3.2,1.9,6.4,2.8,9.6c3.1-0.9,6.2-1.8,9.3-2.8c-0.1-0.5-0.3-0.9-0.4-1.4
		c-2.6,0.8-5.3,1.6-7.9,2.4c-0.3-1-0.6-1.9-0.9-2.9c2.4-0.7,4.8-1.4,7.2-2.1c-0.1-0.5-0.3-0.9-0.4-1.4c-2.4,0.7-4.8,1.4-7.2,2.1
		c-0.3-0.9-0.5-1.7-0.8-2.6c2.5-0.8,5.1-1.5,7.6-2.3c-0.1-0.5-0.3-0.9-0.4-1.4C524.2,376.2,521.2,377.1,518.1,378L518.1,378z"/>
	<path class="st2" d="M529,374.6c1.4,3,2.8,6.1,4.2,9.1c0.4-0.2,0.8-0.4,1.3-0.6c-1.2-2.5-2.3-5-3.5-7.6c3.2,1.5,6.5,3,9.7,4.5
		c0.2,0.2,0.4,0.1,0.6-0.1c0.4-0.2,0.8-0.4,1.3-0.6c-1.4-3-2.8-6.1-4.2-9.1c-0.4,0.2-0.8,0.4-1.3,0.6c1.2,2.5,2.3,5,3.5,7.6
		c-3.3-1.5-6.6-3.1-9.9-4.6C530.1,374.1,529.5,374.4,529,374.6z"/>
	<path class="st2" d="M539.9,369.5l0.8,1.2l3.6-2.4l0.1-0.1l0.1,0.1l4.6,7.1l1.2-0.8l-4.6-7.1l-0.1-0.1l0.1-0.1l3.6-2.4l-0.8-1.2
		L539.9,369.5z"/>
	<path class="st2" d="M550,362.6c2.3,2.5,4.5,4.9,6.8,7.4c0.4-0.3,0.7-0.7,1.1-1c-0.9-1-1.8-1.9-2.7-2.9c1.2-1.1,2.4-2.2,3.5-3.3
		c1.7,0.2,3.4,0.5,5.1,0.7c0.5-0.4,0.9-0.8,1.4-1.3c-1.8-0.2-3.6-0.5-5.4-0.7c0.7-0.9,0.9-2.2,0.3-3.2c-0.5-0.9-1.3-1.6-2.3-1.6
		c-1.4,0-2.4,1-3.4,1.9C552.9,359.9,551.5,361.2,550,362.6L550,362.6z M552,362.6c1.3-1.2,2.5-2.4,3.8-3.5c0.7-0.5,1.6-1.2,2.5-0.7
		c0.7,0.4,0.7,1.4,0.3,2c-0.8,1.3-2,2.1-3,3.2c-0.5,0.4-0.9,0.9-1.4,1.3C553.5,364.2,552.8,363.4,552,362.6L552,362.6z"/>
	<path class="st2" d="M561.6,350.9l4.5,10.3l1.1-1.3l-1.4-3.2l0,0l3.5-4.2l3.4,0.7l1.1-1.3l-11-2.3L561.6,350.9L561.6,350.9z
		 M563.4,351.3l4.3,0.9l-2.5,3.1L563.4,351.3z"/>
	<path class="st2" d="M566,345.3l8.4,5.4l4.4-6.8l-1.2-0.8l-3.5,5.4l-0.1,0.1l-0.1-0.1l-7.1-4.6L566,345.3z"/>
</g>
<g>
	<defs>
		<polygon id="SVGID_1_" points="500,226.4 436.3,336.7 563.7,336.7 		"/>
	</defs>
	<clipPath id="SVGID_2_">
		<use xlink:href="#SVGID_1_"  style="overflow:visible;"/>
	</clipPath>
	<g class="st3">
		<g>
			<path class="st1" d="M500,226.4l-31.5,54.5l-15.4,26.7h93.8l-14.7-25.5L500,226.4L500,226.4z"/>
			<g id="rays5">
				<g id="ray">
					<path class="st4" d="M500,226.4l-2.4,4.1l2.4,55l2.4-55L500,226.4z"/>
					<path class="st1" d="M500,277.5c0,0-0.1,0-0.1,0l0.1,3.1l0.1-3.1C500.1,277.5,500,277.5,500,277.5z"/>
				</g>
				<g transform="rotate(72,500.001,285.46654)">
					<g id="ray_1_">
						<path class="st4" d="M556.2,267.2l-4.6-1L500,285.5l53-14.7L556.2,267.2z"/>
						<path class="st1" d="M507.6,283c0,0,0-0.1,0-0.1l-2.9,1.1l3-0.8C507.6,283.1,507.6,283,507.6,283z"/>
					</g>
				</g>
				<g transform="rotate(144,500.001,285.46654)">
					<g id="ray_2_">
						<path class="st4" d="M534.7,333.2l-0.5-4.7L500,285.5l30.4,45.9L534.7,333.2z"/>
						<path class="st1" d="M504.7,291.9c0,0,0.1-0.1,0.1-0.1l-1.9-2.4l1.7,2.6C504.6,292,504.7,292,504.7,291.9z"/>
					</g>
				</g>
				<g transform="rotate(216,500.001,285.46654)">
					<g id="ray_3_">
						<path class="st4" d="M465.3,333.2l4.3-1.9l30.4-45.9l-34.2,43.1L465.3,333.2z"/>
						<path class="st1" d="M495.3,291.9c0,0,0.1,0.1,0.1,0.1l1.7-2.6l-1.9,2.4C495.2,291.9,495.3,291.9,495.3,291.9z"/>
					</g>
				</g>
				<g transform="rotate(288,500.001,285.46654)">
					<g id="ray_4_">
						<path class="st4" d="M443.8,267.2l3.2,3.5l53,14.7l-51.6-19.2L443.8,267.2z"/>
						<path class="st1" d="M492.4,283c0,0,0,0.1,0,0.1l3,0.8l-2.9-1.1C492.4,282.9,492.4,283,492.4,283z"/>
					</g>
				</g>
			</g>
			<g>
				<g id="rays5_1_">
					<g id="ray_5_">
						<path class="st4" d="M508.2,227l-2.9,3.7l-5.3,54.8l10-54.1L508.2,227z"/>
						<path class="st1" d="M501.1,277.6c0,0-0.1,0-0.1,0l-0.3,3.1l0.6-3.1C501.2,277.6,501.2,277.6,501.1,277.6z"/>
					</g>
					<g transform="rotate(72,500.001,285.46654)">
						<g id="ray_6_">
							<path class="st4" d="M558.2,275.2l-4.4-1.6L500,285.5l54.6-7.2L558.2,275.2z"/>
							<path class="st1" d="M507.9,284.1c0,0,0-0.1,0-0.1l-3,0.7l3.1-0.4C507.9,284.2,507.9,284.1,507.9,284.1z"/>
						</g>
					</g>
					<g transform="rotate(144,500.001,285.46654)">
						<g id="ray_7_">
							<path class="st4" d="M527.7,337.6l0.2-4.7L500,285.5l23.7,49.6L527.7,337.6z"/>
							<path class="st1" d="M503.8,292.5c0,0,0.1,0,0.1-0.1l-1.6-2.7l1.3,2.8C503.7,292.6,503.7,292.5,503.8,292.5z"/>
						</g>
					</g>
					<g transform="rotate(216,500.001,285.46654)">
						<g id="ray_8_">
							<path class="st4" d="M459,327.9l4.5-1.3l36.5-41.2l-39.9,37.9L459,327.9z"/>
							<path class="st1" d="M494.4,291.2C494.5,291.2,494.5,291.3,494.4,291.2l2.2-2.2L494.4,291.2
								C494.4,291.2,494.4,291.2,494.4,291.2z"/>
						</g>
					</g>
					<g transform="rotate(8,500.001,285.46654)">
						<g id="ray_9_">
							<path class="st4" d="M446.9,259.6l2.6,3.9l50.4,22l-48.4-26.2L446.9,259.6z"/>
							<path class="st1" d="M492.8,282c0,0,0,0.1-0.1,0.1l2.9,1.2l-2.7-1.5C492.9,281.9,492.8,281.9,492.8,282z"/>
						</g>
					</g>
				</g>
				<g>
					<g id="rays5_2_">
						<g id="ray_10_">
							<path class="st4" d="M516.3,228.7l-3.4,3.3L500,285.5l17.4-52.2L516.3,228.7z"/>
							<path class="st1" d="M502.2,277.8c0,0-0.1,0-0.1,0l-0.7,3l1-3C502.3,277.8,502.2,277.8,502.2,277.8z"/>
						</g>
						<g transform="rotate(72,500.001,285.46654)">
							<g id="ray_11_">
								<path class="st4" d="M559,283.4l-4.2-2.2l-54.9,4.3l55,0.4L559,283.4z"/>
								<path class="st1" d="M508,285.2c0,0,0-0.1,0-0.1l-3.1,0.2l3.1,0C508,285.3,508,285.2,508,285.2z"/>
							</g>
						</g>
						<g transform="rotate(144,500.001,285.46654)">
							<g id="ray_12_">
								<path class="st4" d="M520.2,341l0.8-4.6l-21-50.9l16.6,52.5L520.2,341z"/>
								<path class="st1" d="M502.7,293c0,0,0.1,0,0.1,0l-1.2-2.9l0.9,3C502.6,293,502.7,293,502.7,293z"/>
							</g>
						</g>
						<g transform="rotate(216,500.001,285.46654)">
							<g id="ray_13_">
								<path class="st4" d="M453.5,321.8l4.7-0.7l41.9-35.7l-44.8,32L453.5,321.8z"/>
								<path class="st1" d="M493.7,290.4c0,0,0.1,0.1,0.1,0.1l2.4-2l-2.5,1.8C493.7,290.3,493.7,290.4,493.7,290.4z"/>
							</g>
						</g>
						<g transform="rotate(16,500.001,285.46654)">
							<g id="ray_14_">
								<path class="st4" d="M451,252.4l2.1,4.2l46.9,28.8l-44.3-32.7L451,252.4z"/>
								<path class="st1" d="M493.4,281c0,0,0,0.1-0.1,0.1l2.7,1.6l-2.5-1.9C493.4,280.9,493.4,281,493.4,281z"/>
							</g>
						</g>
					</g>
					<g>
						<g id="rays5_3_">
							<g id="ray_15_">
								<path class="st4" d="M524,231.5l-3.8,2.8L500,285.5l24.5-49.3L524,231.5z"/>
								<path class="st1" d="M503.3,278.2c0,0-0.1,0-0.1-0.1L502,281l1.4-2.8C503.3,278.2,503.3,278.2,503.3,278.2z"/>
							</g>
							<g transform="rotate(72,500.001,285.46654)">
								<g id="ray_16_">
									<path class="st4" d="M558.7,291.6l-3.8-2.8l-54.9-3.4l54.4,8.1L558.7,291.6z"/>
									<path class="st1" d="M507.9,286.3c0,0,0-0.1,0-0.1l-3.1-0.2l3.1,0.5C507.9,286.4,507.9,286.3,507.9,286.3z"/>
								</g>
							</g>
							<g transform="rotate(144,500.001,285.46654)">
								<g id="ray_17_">
									<path class="st4" d="M512.3,343.2l1.5-4.5L500,285.5l9.1,54.3L512.3,343.2z"/>
									<path class="st1" d="M501.7,293.3c0,0,0.1,0,0.1,0l-0.8-3l0.5,3.1C501.6,293.3,501.6,293.3,501.7,293.3z"/>
								</g>
							</g>
							<g transform="rotate(216,500.001,285.46654)">
								<g id="ray_18_">
									<path class="st4" d="M448.9,315h4.7l46.4-29.5l-48.8,25.4L448.9,315z"/>
									<path class="st1" d="M493.1,289.5c0,0,0,0.1,0.1,0.1l2.6-1.7l-2.8,1.4C493,289.4,493.1,289.4,493.1,289.5z"/>
								</g>
							</g>
							<g transform="rotate(24,500.001,285.46654)">
								<g id="ray_19_">
									<path class="st4" d="M456.1,245.9l1.5,4.5l42.4,35l-39.3-38.5L456.1,245.9z"/>
									<path class="st1" d="M494.1,280.1c0,0-0.1,0.1-0.1,0.1l2.4,2L494.1,280.1C494.1,280.1,494.1,280.1,494.1,280.1z"/>
								</g>
							</g>
						</g>
						<g>
							<g id="rays5_4_">
								<g id="ray_20_">
									<path class="st4" d="M531.3,235.4l-4.2,2.2L500,285.5l31.1-45.4L531.3,235.4z"/>
									<path class="st1" d="M504.2,278.7c0,0-0.1,0-0.1-0.1l-1.5,2.7l1.8-2.6C504.3,278.7,504.3,278.7,504.2,278.7z"/>
								</g>
								<g transform="rotate(72,500.001,285.46654)">
									<g id="ray_21_">
										<path class="st4" d="M557.3,299.8l-3.4-3.3l-53.9-11l52.8,15.6L557.3,299.8z"/>
										<path class="st1" d="M507.8,287.4c0,0,0-0.1,0-0.1l-3.1-0.6l3,0.9C507.7,287.5,507.7,287.4,507.8,287.4z"/>
									</g>
								</g>
								<g transform="rotate(144,500.001,285.46654)">
									<g id="ray_22_">
										<path class="st4" d="M504.1,344.4l2.1-4.2l-6.2-54.7l1.5,55L504.1,344.4z"/>
										<path class="st1" d="M500.6,293.4c0,0,0.1,0,0.1,0l-0.4-3.1l0.1,3.1C500.5,293.4,500.5,293.4,500.6,293.4z"/>
									</g>
								</g>
								<g transform="rotate(216,500.001,285.46654)">
									<g id="ray_23_">
										<path class="st4" d="M445.2,307.6l4.7,0.7l50.1-22.8l-51.9,18.4L445.2,307.6z"/>
										<path class="st1" d="M492.6,288.5c0,0,0,0.1,0.1,0.1l2.8-1.3l-2.9,1C492.6,288.4,492.6,288.4,492.6,288.5z"/>
									</g>
								</g>
								<g transform="rotate(32,500.001,285.46654)">
									<g id="ray_24_">
										<path class="st4" d="M462,240.2l0.8,4.6l37.1,40.6l-33.5-43.6L462,240.2z"/>
										<path class="st1" d="M494.9,279.3c0,0-0.1,0.1-0.1,0.1l2.1,2.3l-1.9-2.5C494.9,279.3,494.9,279.3,494.9,279.3z"/>
									</g>
								</g>
							</g>
							<g>
								<g id="rays5_5_">
									<g id="ray_25_">
										<path class="st4" d="M538,240.2l-4.4,1.6L500,285.5l37.1-40.6L538,240.2z"/>
										<path class="st1" d="M505.1,279.3c0,0-0.1-0.1-0.1-0.1l-1.9,2.5l2.1-2.3C505.2,279.4,505.2,279.4,505.1,279.3z"/>
									</g>
									<g transform="rotate(72,500.001,285.46654)">
										<g id="ray_26_">
											<path class="st4" d="M554.8,307.6l-2.9-3.7L500,285.5l50.1,22.8L554.8,307.6z"/>
											<path class="st1" d="M507.4,288.5c0,0,0-0.1,0-0.1l-2.9-1l2.8,1.3C507.4,288.5,507.4,288.5,507.4,288.5z"/>
										</g>
									</g>
									<g transform="rotate(144,500.001,285.46654)">
										<g id="ray_27_">
											<path class="st4" d="M495.9,344.4l2.6-3.9l1.5-55l-6.2,54.7L495.9,344.4z"/>
											<path class="st1" d="M499.4,293.4c0,0,0.1,0,0.1,0l0.1-3.1l-0.4,3.1C499.4,293.4,499.4,293.4,499.4,293.4z"/>
										</g>
									</g>
									<g transform="rotate(216,500.001,285.46654)">
										<g id="ray_28_">
											<path class="st4" d="M442.7,299.8l4.5,1.3l52.8-15.6l-53.9,11L442.7,299.8z"/>
											<path class="st1" d="M492.2,287.4c0,0,0,0.1,0,0.1l3-0.9l-3.1,0.6C492.2,287.3,492.2,287.4,492.2,287.4z"/>
										</g>
									</g>
									<g transform="rotate(40,500.001,285.46654)">
										<g id="ray_29_">
											<path class="st4" d="M468.7,235.4l0.2,4.7l31.1,45.4l-27.1-47.9L468.7,235.4z"/>
											<path class="st1" d="M495.8,278.7c0,0-0.1,0-0.1,0.1l1.8,2.6l-1.5-2.7C495.8,278.6,495.8,278.7,495.8,278.7z"/>
										</g>
									</g>
								</g>
								<g>
									<g id="rays5_6_">
										<g id="ray_30_">
											<path class="st4" d="M543.9,245.9l-4.6,1L500,285.5l42.4-35L543.9,245.9z"/>
											<path class="st1" d="M505.9,280.1C505.9,280.1,505.9,280.1,505.9,280.1l-2.3,2.1l2.4-2C506,280.2,506,280.2,505.9,280.1z
												"/>
										</g>
										<g transform="rotate(72,500.001,285.46654)">
											<g id="ray_31_">
												<path class="st4" d="M551.1,315l-2.4-4.1L500,285.5l46.4,29.5H551.1z"/>
												<path class="st1" d="M506.9,289.5c0,0,0-0.1,0.1-0.1l-2.8-1.4l2.6,1.7C506.9,289.5,506.9,289.5,506.9,289.5z"/>
											</g>
										</g>
										<g transform="rotate(144,500.001,285.46654)">
											<g id="ray_32_">
												<path class="st4" d="M487.7,343.2l3.2-3.5l9.1-54.3l-13.7,53.3L487.7,343.2z"/>
												<path class="st1" d="M498.3,293.3c0,0,0.1,0,0.1,0l0.5-3.1l-0.8,3C498.3,293.3,498.3,293.3,498.3,293.3z"/>
											</g>
										</g>
										<g transform="rotate(216,500.001,285.46654)">
											<g id="ray_33_">
												<path class="st4" d="M441.3,291.6l4.3,1.9l54.4-8.1l-54.9,3.4L441.3,291.6z"/>
												<path class="st1" d="M492.1,286.3c0,0,0,0.1,0,0.1l3.1-0.5l-3.1,0.2C492,286.2,492,286.3,492.1,286.3z"/>
											</g>
										</g>
										<g transform="rotate(48,500.001,285.46654)">
											<g id="ray_34_">
												<path class="st4" d="M476,231.5l-0.5,4.7l24.5,49.3l-20.2-51.2L476,231.5z"/>
												<path class="st1" d="M496.8,278.2c0,0-0.1,0-0.1,0.1l1.4,2.8l-1.1-2.9C496.8,278.1,496.8,278.1,496.8,278.2z"/>
											</g>
										</g>
									</g>
									<g>
										<g id="rays5_7_">
											<g id="ray_35_">
												<path class="st4" d="M549,252.4l-4.7,0.3L500,285.5l46.9-28.8L549,252.4z"/>
												<path class="st1" d="M506.6,281c0,0-0.1-0.1-0.1-0.1l-2.5,1.9l2.7-1.6C506.7,281.1,506.7,281,506.6,281z"/>
											</g>
											<g transform="rotate(72,500.001,285.46654)">
												<g id="ray_36_">
													<path class="st4" d="M546.5,321.8l-1.8-4.4l-44.8-32l41.9,35.7L546.5,321.8z"/>
													<path class="st1" d="M506.3,290.4c0,0,0.1-0.1,0.1-0.1l-2.5-1.8l2.4,2C506.2,290.5,506.3,290.4,506.3,290.4z"/>
												</g>
											</g>
											<g transform="rotate(144,500.001,285.46654)">
												<g id="ray_37_">
													<path class="st4" d="M479.8,341l3.6-3l16.6-52.5l-21,50.9L479.8,341z"/>
													<path class="st1" d="M497.3,293c0,0,0.1,0,0.1,0l0.9-3l-1.2,2.9C497.2,292.9,497.2,293,497.3,293z"/>
												</g>
											</g>
											<g transform="rotate(216,500.001,285.46654)">
												<g id="ray_38_">
													<path class="st4" d="M441,283.4l4,2.5l55-0.4l-54.9-4.3L441,283.4z"/>
													<path class="st1" d="M492,285.2c0,0,0,0.1,0,0.1l3.1,0l-3.1-0.2C492,285.1,492,285.1,492,285.2z"/>
												</g>
											</g>
											<g transform="rotate(56,500.001,285.46654)">
												<g id="ray_39_">
													<path class="st4" d="M483.7,228.7l-1.1,4.6l17.4,52.2L487.1,232L483.7,228.7z"/>
													<path class="st1" d="M497.8,277.8c0,0-0.1,0-0.1,0l1,3l-0.7-3C497.9,277.8,497.8,277.8,497.8,277.8z"/>
												</g>
											</g>
										</g>
										<g id="rays">
											<g id="rays5_8_">
												<g id="ray_40_">
													<path class="st4" d="M553.1,259.6l-4.7-0.3L500,285.5l50.4-22L553.1,259.6z"/>
													<path class="st1" d="M507.2,282c0,0,0-0.1-0.1-0.1l-2.7,1.5l2.9-1.2C507.2,282,507.2,282,507.2,282z"/>
												</g>
												<g transform="rotate(72,500.001,285.46654)">
													<g id="ray_41_">
														<path class="st4" d="M541,327.9l-1.1-4.6L500,285.5l36.5,41.2L541,327.9z"/>
														<path class="st1" d="M505.6,291.2C505.6,291.2,505.6,291.2,505.6,291.2l-2.2-2.2L505.6,291.2
															C505.5,291.3,505.5,291.2,505.6,291.2z"/>
													</g>
												</g>
												<g transform="rotate(144,500.001,285.46654)">
													<g id="ray_42_">
														<path class="st4" d="M472.3,337.6l4-2.5l23.7-49.6l-27.9,47.4L472.3,337.6z"/>
														<path class="st1" d="M496.2,292.5c0,0,0.1,0,0.1,0.1l1.3-2.8l-1.6,2.7C496.2,292.5,496.2,292.5,496.2,292.5z"/>
													</g>
												</g>
												<g transform="rotate(216,500.001,285.46654)">
													<g id="ray_43_">
														<path class="st4" d="M441.8,275.2l3.6,3l54.6,7.2l-53.7-11.9L441.8,275.2z"/>
														<path class="st1" d="M492.1,284.1c0,0,0,0.1,0,0.1l3.1,0.4l-3-0.7C492.1,284,492.1,284,492.1,284.1z"/>
													</g>
												</g>
												<g transform="rotate(64,500.001,285.46654)">
													<g id="ray_44_">
														<path class="st4" d="M491.8,227l-1.8,4.4l10,54.1l-5.3-54.8L491.8,227z"/>
														<path class="st1" d="M498.9,277.6c0,0-0.1,0-0.1,0l0.6,3.1l-0.3-3.1C499,277.5,498.9,277.5,498.9,277.6z"/>
													</g>
												</g>
											</g>
										</g>
										<g id="rainbow">
											<path class="st5" d="M500,265.8c-11.1,0-21.2,4.1-29,10.8L456.4,302c-0.5,2.7-0.8,5.4-0.8,8.2h5
												c0-21.7,17.6-39.3,39.3-39.3c21.7,0,39.3,17.6,39.3,39.3h5c0-2.8-0.2-5.6-0.8-8.2L529,276.6
												C521.2,269.9,511.1,265.8,500,265.8L500,265.8z"/>
											<path class="st6" d="M500,266.7c-11.8,0-22.4,4.7-30.3,12.2l-12,20.8c-0.8,3.4-1.3,6.9-1.3,10.5h4.2
												c0-21.7,17.6-39.3,39.3-39.3c21.7,0,39.3,17.6,39.3,39.3h4.2c0-3.6-0.4-7.2-1.3-10.5l-12-20.8
												C522.4,271.3,511.8,266.7,500,266.7L500,266.7z"/>
											<path class="st7" d="M500,267.5c-12.7,0-24.1,5.5-31.9,14.3l-8.7,15.1c-1.4,4.2-2.1,8.7-2.1,13.4h3.4
												c0-21.7,17.6-39.3,39.3-39.3c21.7,0,39.3,17.6,39.3,39.3h3.4c0-4.7-0.7-9.2-2.1-13.4l-8.7-15.1
												C524.1,273,512.7,267.5,500,267.5L500,267.5z"/>
											<path class="st8" d="M500,268.2c-14.5,0-27.4,7.4-34.9,18.7l-2.8,4.9c-2.7,5.6-4.3,11.8-4.3,18.5h2.7
												c0-21.7,17.6-39.3,39.3-39.3c21.7,0,39.3,17.6,39.3,39.3h2.7c0-6.6-1.6-12.9-4.3-18.4l-2.8-4.9
												C527.3,275.6,514.5,268.3,500,268.2L500,268.2z"/>
											<path class="st9" d="M500,269.1c-22.7,0-41.2,18.4-41.2,41.2h1.8c0-21.7,17.6-39.3,39.3-39.3c21.7,0,39.3,17.6,39.3,39.3
												h1.8C541.2,287.5,522.7,269.1,500,269.1L500,269.1z"/>
											<path class="st10" d="M500,269.8c-22.3,0-40.4,18.1-40.4,40.4h1.3c0-21.6,17.5-39,39-39s39,17.5,39,39h1.4
												C540.4,287.9,522.3,269.8,500,269.8L500,269.8z"/>
											<path class="st11" d="M500,270.7c-21.9,0-39.6,17.7-39.6,39.6c0,0.2,0,0.5,0,0.7h0.8c0-0.2,0-0.5,0-0.7
												c0-21.4,17.4-38.8,38.8-38.8c21.4,0,38.8,17.4,38.8,38.8c0,0.2,0,0.5,0,0.7h0.8c0-0.2,0-0.5,0-0.7
												C539.6,288.4,521.9,270.7,500,270.7L500,270.7z"/>
										</g>
										<g id="cap">
											<path class="st12" d="M500.4,288.1c-0.6-0.1-1.2-0.5-1.8-0.6c-0.8,0.7-0.8,1.5-0.7,2.1c0.3,0.1,0.3,0.4,0.9,0.9
												s0.5,0.8,0.5,2c0,0.5,0.1,1.6,0.6,1.7c0.5,0.1,0.9-0.3,1.1-1.2c0.2-0.8,0.4-1.2,0.7-1.7
												C501.9,289.4,501.4,288.7,500.4,288.1z"/>
											<path class="st5" d="M497.2,283.5c-0.6,0-1.5,1-1.9,0.5c-0.2-0.3-0.3-0.9,0-1.4c0.6-1.2,1.1-1.7,2.2-2.3
												c2.4-1.4,3.9-1,5.1,1.1c1.1,1.8,2.2,3.7,2.2,5.4c0,0.5,0.3,1.4-0.2,1.9c-1.3,1.4-4.6-1.4-6.5-1c-0.6,0.2-1.4,0.6-2,0.2
												c-0.5-0.3-0.1-1,0.3-1.3c0.6-0.5,1.5-2.4,1.4-3.2C497.6,282.9,497.6,283.5,497.2,283.5L497.2,283.5z"/>
											
												<linearGradient id="SVGID_3_" gradientUnits="userSpaceOnUse" x1="499.4597" y1="312.7032" x2="501.3477" y2="318.3382" gradientTransform="matrix(1 0 0 -1 0 602)">
												<stop  offset="0" style="stop-color:#510000"/>
												<stop  offset="0.3" style="stop-color:#8A0000"/>
												<stop  offset="1" style="stop-color:#AA0000"/>
											</linearGradient>
											<path class="st13" d="M496.9,282.5c-1.1,0.4-1,1.1-1.5,1.6c0.2,0.1,0.8,0.3,1.4-0.3c0.3-0.2,0.5-0.3,0.7-0.4
												c-0.3,0.2-0.5,0.6-0.7,0.7c-0.4,0.3-1,1.1-1.3,1.8s-0.4,1.7-0.4,1.8c0.1,0.1,0.4,0.8,1.6,1.2c2,0.8,2.4,2.4,4.5,2.4
												c1.6,0,1.4-1.1,2.6-0.8c1.1,0.2,1.7-0.7,0.6-1.2c-1.4-0.5-4.1-0.2-5.4,0c-0.4-4.1-0.1-2.6-0.2-4.4
												c-0.1-1.8-0.6-1.9,0.1-3.3C498.4,282.6,497.7,282.5,496.9,282.5L496.9,282.5z"/>
											<path class="st14" d="M500.9,279.8c0,0.2-0.1,0.5-0.1,0.6c0.1,0.3,0.2,0.7,0.3,1c0.1,0.3,0.2,0.6,0.2,0.9
												c0.1,0.4,0.4,0.5,0.7,0.7c0.4,0.3,0.1,1,0.3,1.1c0.2,0,0.5-1.1,0.5-1.2c0-0.2,0-0.4,0-0.6c-0.1-0.3-0.3-0.6-0.4-0.9
												c0,0,0,0,0,0c-0.1-0.1-0.1-0.2-0.2-0.3c-0.2-0.3-0.5-0.6-0.8-0.9c0,0,0,0-0.1,0c-0.1-0.1-0.2-0.1-0.3-0.2
												C501.1,279.9,501,279.8,500.9,279.8L500.9,279.8z"/>
											
												<linearGradient id="SVGID_4_" gradientUnits="userSpaceOnUse" x1="499.3676" y1="311.4117" x2="500.8506" y2="315.3357" gradientTransform="matrix(1 0 0 -1 0 602)">
												<stop  offset="0" style="stop-color:#FF2A2A"/>
												<stop  offset="1" style="stop-color:#FF0000"/>
											</linearGradient>
											<path class="st15" d="M501.2,287.4c-0.7-0.2-1.4-0.5-2-0.7c-1.2-0.4-2.5-1.1-3.4-0.8c-0.3,0.1-0.3,0.5-0.4,0.9
												c0,0.5-0.6,1.3-0.1,1.1c0.7-0.4,2.5,0.7,3.1,1.1c0.3,0.2,0.9,0.5,1.1,1c0.2,0.5,0.1,1.8,0,2.3c-0.1,0.6,0.1,1.8,0.7,2
												c0.6,0.2,1.1-0.3,1.3-1.2c0.2-0.9,0.4-1.4,0.8-1.9s0.8-0.8,1.3-0.9c0.6-0.1,1.4,0.5,1.4-0.2c0-0.4-0.4-0.9-0.2-1.5
												c0.1-0.5-0.4-0.4-0.8-0.6C502.9,287.7,502,287.6,501.2,287.4L501.2,287.4z"/>
											<path class="st16" d="M498.4,288.9c-0.3-0.2-2.3-1.5-3-1.1c-0.2,0.1-0.3,0-0.3-0.3c0-0.2,0.1-0.6,0.2-0.9
												c0.1-0.3,0.2-0.8,0.5-1.1c0.7-0.6,2.3,0.6,3.1,0.9C498.7,287,498.3,288.9,498.4,288.9L498.4,288.9z"/>
											<path class="st17" d="M501.8,291.4c0.9-1.6,1.5-1.4,2.6-1.4c0.4,0,0.5-0.3,0.4-0.7c-0.3,0.6-1.7-0.1-2.4,0.3
												c-1.6,0.7-1.3,3.8-2,4.1C501.1,294.3,501.5,291.9,501.8,291.4L501.8,291.4z"/>
										</g>
										<g>
											<path class="st1" d="M453.1,307.6l-10,17.2h113.7l-10-17.2H453.1L453.1,307.6z"/>
											<g id="wavesb3">
												
													<linearGradient id="waveb1_9_" gradientUnits="userSpaceOnUse" x1="444.5085" y1="279.9774" x2="634.4105" y2="279.9774" gradientTransform="matrix(1 0 0 -1 0 602)">
													<stop  offset="0" style="stop-color:#002255"/>
													<stop  offset="0.5" style="stop-color:#0044AA"/>
													<stop  offset="1" style="stop-color:#002255"/>
												</linearGradient>
												<path id="waveb1" class="st18" d="M449.7,321.4c-1.7,0-3.2,0.2-4.7,0.4l-0.5,0.8c2.4-0.2,4.7-0.6,7.1-0.7
													c3.3,0.1,6.3,0.8,9.8,0.8c1.5,0,3,0,4.5,0c3.5,0,6.5-0.7,9.8-0.8c3.3,0.1,6.3,0.8,9.8,0.8c1.5,0,3.2,0,4.5,0
													c3.5,0,6.5-0.7,9.8-0.8c3.3,0.1,6.3,0.8,9.8,0.8c1.5,0,3,0,4.5,0c3.5,0,6.5-0.7,9.8-0.8c3.3,0.1,6.3,0.8,9.8,0.8
													c1.5,0,3,0,4.5,0c3.5,0,6.5-0.7,9.8-0.8c2.6,0.1,4.9,0.5,7.5,0.7l-0.5-0.9c-1.4-0.2-2.8-0.3-4.4-0.3c-1.5,0-3,0-4.5,0
													c-3.5,0-6.5,0.7-9.8,0.8c-3.3-0.1-6.3-0.8-9.8-0.8c-1.5,0-3,0-4.5,0c-3.5,0-6.5,0.7-9.8,0.8c-3.3-0.1-6.3-0.8-9.8-0.8
													c-1.5,0-3,0-4.5,0c-3.5,0-6.5,0.7-9.8,0.8c-3.3-0.1-6.3-0.8-9.8-0.8c-1.5,0-3,0-4.5,0c-3.5,0-6.5,0.7-9.8,0.8
													c-3.3-0.1-6.3-0.8-9.8-0.8C452.7,321.3,451.2,321.4,449.7,321.4L449.7,321.4z"/>
												<g>
													
														<linearGradient id="waveb1_10_" gradientUnits="userSpaceOnUse" x1="444.5085" y1="279.9774" x2="634.4105" y2="279.9774" gradientTransform="matrix(1 0 0 -1 0 600.8867)">
														<stop  offset="0" style="stop-color:#002255"/>
														<stop  offset="0.5" style="stop-color:#0044AA"/>
														<stop  offset="1" style="stop-color:#002255"/>
													</linearGradient>
													<path id="waveb1_1_" class="st19" d="M449.7,320.3c-1.7,0-3.2,0.2-4.7,0.4l-0.5,0.8c2.4-0.2,4.7-0.6,7.1-0.7
														c3.3,0.1,6.3,0.8,9.8,0.8c1.5,0,3,0,4.5,0c3.5,0,6.5-0.7,9.8-0.8c3.3,0.1,6.3,0.8,9.8,0.8c1.5,0,3.2,0,4.5,0
														c3.5,0,6.5-0.7,9.8-0.8c3.3,0.1,6.3,0.8,9.8,0.8c1.5,0,3,0,4.5,0c3.5,0,6.5-0.7,9.8-0.8c3.3,0.1,6.3,0.8,9.8,0.8
														c1.5,0,3,0,4.5,0c3.5,0,6.5-0.7,9.8-0.8c2.6,0.1,4.9,0.5,7.5,0.7l-0.5-0.9c-1.4-0.2-2.8-0.3-4.4-0.3c-1.5,0-3,0-4.5,0
														c-3.5,0-6.5,0.7-9.8,0.8c-3.3-0.1-6.3-0.8-9.8-0.8c-1.5,0-3,0-4.5,0c-3.5,0-6.5,0.7-9.8,0.8c-3.3-0.1-6.3-0.8-9.8-0.8
														c-1.5,0-3,0-4.5,0c-3.5,0-6.5,0.7-9.8,0.8c-3.3-0.1-6.3-0.8-9.8-0.8c-1.5,0-3,0-4.5,0c-3.5,0-6.5,0.7-9.8,0.8
														c-3.3-0.1-6.3-0.8-9.8-0.8C452.7,320.2,451.2,320.3,449.7,320.3L449.7,320.3z"/>
												</g>
												<g>
													
														<linearGradient id="waveb1_11_" gradientUnits="userSpaceOnUse" x1="444.5085" y1="279.9774" x2="634.4105" y2="279.9774" gradientTransform="matrix(1 0 0 -1 0 599.7695)">
														<stop  offset="0" style="stop-color:#002255"/>
														<stop  offset="0.5" style="stop-color:#0044AA"/>
														<stop  offset="1" style="stop-color:#002255"/>
													</linearGradient>
													<path id="waveb1_2_" class="st20" d="M449.7,319.1c-1.7,0-3.2,0.2-4.7,0.4l-0.5,0.8c2.4-0.2,4.7-0.6,7.1-0.7
														c3.3,0.1,6.3,0.8,9.8,0.8c1.5,0,3,0,4.5,0c3.5,0,6.5-0.7,9.8-0.8c3.3,0.1,6.3,0.8,9.8,0.8c1.5,0,3.2,0,4.5,0
														c3.5,0,6.5-0.7,9.8-0.8c3.3,0.1,6.3,0.8,9.8,0.8c1.5,0,3,0,4.5,0c3.5,0,6.5-0.7,9.8-0.8c3.3,0.1,6.3,0.8,9.8,0.8
														c1.5,0,3,0,4.5,0c3.5,0,6.5-0.7,9.8-0.8c2.6,0.1,4.9,0.5,7.5,0.7l-0.5-0.9c-1.4-0.2-2.8-0.3-4.4-0.3c-1.5,0-3,0-4.5,0
														c-3.5,0-6.5,0.7-9.8,0.8c-3.3-0.1-6.3-0.8-9.8-0.8c-1.5,0-3,0-4.5,0c-3.5,0-6.5,0.7-9.8,0.8c-3.3-0.1-6.3-0.8-9.8-0.8
														c-1.5,0-3,0-4.5,0c-3.5,0-6.5,0.7-9.8,0.8c-3.3-0.1-6.3-0.8-9.8-0.8c-1.5,0-3,0-4.5,0c-3.5,0-6.5,0.7-9.8,0.8
														c-3.3-0.1-6.3-0.8-9.8-0.8C452.7,319.1,451.2,319.2,449.7,319.1L449.7,319.1z"/>
												</g>
											</g>
											<g>
												<g id="wavesb3_1_">
													
														<linearGradient id="waveb1_12_" gradientUnits="userSpaceOnUse" x1="444.5085" y1="279.9774" x2="634.4105" y2="279.9774" gradientTransform="matrix(1 0 0 -1 0 598.6562)">
														<stop  offset="0" style="stop-color:#002255"/>
														<stop  offset="0.5" style="stop-color:#0044AA"/>
														<stop  offset="1" style="stop-color:#002255"/>
													</linearGradient>
													<path id="waveb1_3_" class="st21" d="M449.7,318c-1.7,0-3.2,0.2-4.7,0.4l-0.5,0.8c2.4-0.2,4.7-0.6,7.1-0.7
														c3.3,0.1,6.3,0.8,9.8,0.8c1.5,0,3,0,4.5,0c3.5,0,6.5-0.7,9.8-0.8c3.3,0.1,6.3,0.8,9.8,0.8c1.5,0,3.2,0,4.5,0
														c3.5,0,6.5-0.7,9.8-0.8c3.3,0.1,6.3,0.8,9.8,0.8c1.5,0,3,0,4.5,0c3.5,0,6.5-0.7,9.8-0.8c3.3,0.1,6.3,0.8,9.8,0.8
														c1.5,0,3,0,4.5,0c3.5,0,6.5-0.7,9.8-0.8c2.6,0.1,4.9,0.5,7.5,0.7l-0.5-0.9c-1.4-0.2-2.8-0.3-4.4-0.3c-1.5,0-3,0-4.5,0
														c-3.5,0-6.5,0.7-9.8,0.8c-3.3-0.1-6.3-0.8-9.8-0.8c-1.5,0-3,0-4.5,0c-3.5,0-6.5,0.7-9.8,0.8c-3.3-0.1-6.3-0.8-9.8-0.8
														c-1.5,0-3,0-4.5,0c-3.5,0-6.5,0.7-9.8,0.8c-3.3-0.1-6.3-0.8-9.8-0.8c-1.5,0-3,0-4.5,0c-3.5,0-6.5,0.7-9.8,0.8
														c-3.3-0.1-6.3-0.8-9.8-0.8C452.7,318,451.2,318.1,449.7,318L449.7,318z"/>
													<g>
														
															<linearGradient id="waveb1_13_" gradientUnits="userSpaceOnUse" x1="444.5085" y1="279.9774" x2="634.4105" y2="279.9774" gradientTransform="matrix(1 0 0 -1 0 597.543)">
															<stop  offset="0" style="stop-color:#002255"/>
															<stop  offset="0.5" style="stop-color:#0044AA"/>
															<stop  offset="1" style="stop-color:#002255"/>
														</linearGradient>
														<path id="waveb1_4_" class="st22" d="M449.7,316.9c-1.7,0-3.2,0.2-4.7,0.4l-0.5,0.8c2.4-0.2,4.7-0.6,7.1-0.7
															c3.3,0.1,6.3,0.8,9.8,0.8c1.5,0,3,0,4.5,0c3.5,0,6.5-0.7,9.8-0.8c3.3,0.1,6.3,0.8,9.8,0.8c1.5,0,3.2,0,4.5,0
															c3.5,0,6.5-0.7,9.8-0.8c3.3,0.1,6.3,0.8,9.8,0.8c1.5,0,3,0,4.5,0c3.5,0,6.5-0.7,9.8-0.8c3.3,0.1,6.3,0.8,9.8,0.8
															c1.5,0,3,0,4.5,0c3.5,0,6.5-0.7,9.8-0.8c2.6,0.1,4.9,0.5,7.5,0.7l-0.5-0.9c-1.4-0.2-2.8-0.3-4.4-0.3c-1.5,0-3,0-4.5,0
															c-3.5,0-6.5,0.7-9.8,0.8c-3.3-0.1-6.3-0.8-9.8-0.8c-1.5,0-3,0-4.5,0c-3.5,0-6.5,0.7-9.8,0.8c-3.3-0.1-6.3-0.8-9.8-0.8
															c-1.5,0-3,0-4.5,0c-3.5,0-6.5,0.7-9.8,0.8c-3.3-0.1-6.3-0.8-9.8-0.8c-1.5,0-3,0-4.5,0c-3.5,0-6.5,0.7-9.8,0.8
															c-3.3-0.1-6.3-0.8-9.8-0.8C452.7,316.9,451.2,316.9,449.7,316.9L449.7,316.9z"/>
													</g>
													<g>
														
															<linearGradient id="waveb1_14_" gradientUnits="userSpaceOnUse" x1="444.5085" y1="279.9774" x2="634.4105" y2="279.9774" gradientTransform="matrix(1 0 0 -1 0 596.4258)">
															<stop  offset="0" style="stop-color:#002255"/>
															<stop  offset="0.5" style="stop-color:#0044AA"/>
															<stop  offset="1" style="stop-color:#002255"/>
														</linearGradient>
														<path id="waveb1_5_" class="st23" d="M449.7,315.8c-1.7,0-3.2,0.2-4.7,0.4l-0.5,0.8c2.4-0.2,4.7-0.6,7.1-0.7
															c3.3,0.1,6.3,0.8,9.8,0.8c1.5,0,3,0,4.5,0c3.5,0,6.5-0.7,9.8-0.8c3.3,0.1,6.3,0.8,9.8,0.8c1.5,0,3.2,0,4.5,0
															c3.5,0,6.5-0.7,9.8-0.8c3.3,0.1,6.3,0.8,9.8,0.8c1.5,0,3,0,4.5,0c3.5,0,6.5-0.7,9.8-0.8c3.3,0.1,6.3,0.8,9.8,0.8
															c1.5,0,3,0,4.5,0c3.5,0,6.5-0.7,9.8-0.8c2.6,0.1,4.9,0.5,7.5,0.7l-0.5-0.9c-1.4-0.2-2.8-0.3-4.4-0.3c-1.5,0-3,0-4.5,0
															c-3.5,0-6.5,0.7-9.8,0.8c-3.3-0.1-6.3-0.8-9.8-0.8c-1.5,0-3,0-4.5,0c-3.5,0-6.5,0.7-9.8,0.8c-3.3-0.1-6.3-0.8-9.8-0.8
															c-1.5,0-3,0-4.5,0c-3.5,0-6.5,0.7-9.8,0.8c-3.3-0.1-6.3-0.8-9.8-0.8c-1.5,0-3,0-4.5,0c-3.5,0-6.5,0.7-9.8,0.8
															c-3.3-0.1-6.3-0.8-9.8-0.8C452.7,315.8,451.2,315.8,449.7,315.8L449.7,315.8z"/>
													</g>
												</g>
												<g id="seab">
													<g id="wavesb3_2_">
														
															<linearGradient id="waveb1_15_" gradientUnits="userSpaceOnUse" x1="444.5085" y1="279.9774" x2="634.4105" y2="279.9774" gradientTransform="matrix(1 0 0 -1 0 595.3086)">
															<stop  offset="0" style="stop-color:#002255"/>
															<stop  offset="0.5" style="stop-color:#0044AA"/>
															<stop  offset="1" style="stop-color:#002255"/>
														</linearGradient>
														<path id="waveb1_6_" class="st24" d="M449.7,314.7c-1.7,0-3.2,0.2-4.7,0.4l-0.5,0.8c2.4-0.2,4.7-0.6,7.1-0.7
															c3.3,0.1,6.3,0.8,9.8,0.8c1.5,0,3,0,4.5,0c3.5,0,6.5-0.7,9.8-0.8c3.3,0.1,6.3,0.8,9.8,0.8c1.5,0,3.2,0,4.5,0
															c3.5,0,6.5-0.7,9.8-0.8c3.3,0.1,6.3,0.8,9.8,0.8c1.5,0,3,0,4.5,0c3.5,0,6.5-0.7,9.8-0.8c3.3,0.1,6.3,0.8,9.8,0.8
															c1.5,0,3,0,4.5,0c3.5,0,6.5-0.7,9.8-0.8c2.6,0.1,4.9,0.5,7.5,0.7L555,315c-1.4-0.2-2.8-0.3-4.4-0.3c-1.5,0-3,0-4.5,0
															c-3.5,0-6.5,0.7-9.8,0.8c-3.3-0.1-6.3-0.8-9.8-0.8c-1.5,0-3,0-4.5,0c-3.5,0-6.5,0.7-9.8,0.8c-3.3-0.1-6.3-0.8-9.8-0.8
															c-1.5,0-3,0-4.5,0c-3.5,0-6.5,0.7-9.8,0.8c-3.3-0.1-6.3-0.8-9.8-0.8c-1.5,0-3,0-4.5,0c-3.5,0-6.5,0.7-9.8,0.8
															c-3.3-0.1-6.3-0.8-9.8-0.8C452.7,314.7,451.2,314.7,449.7,314.7L449.7,314.7z"/>
														<g>
															
																<linearGradient id="waveb1_16_" gradientUnits="userSpaceOnUse" x1="444.5085" y1="279.9774" x2="634.4105" y2="279.9774" gradientTransform="matrix(1 0 0 -1 0 594.1953)">
																<stop  offset="0" style="stop-color:#002255"/>
																<stop  offset="0.5" style="stop-color:#0044AA"/>
																<stop  offset="1" style="stop-color:#002255"/>
															</linearGradient>
															<path id="waveb1_7_" class="st25" d="M449.7,313.6c-1.7,0-3.2,0.2-4.7,0.4l-0.5,0.8c2.4-0.2,4.7-0.6,7.1-0.7
																c3.3,0.1,6.3,0.8,9.8,0.8c1.5,0,3,0,4.5,0c3.5,0,6.5-0.7,9.8-0.8c3.3,0.1,6.3,0.8,9.8,0.8c1.5,0,3.2,0,4.5,0
																c3.5,0,6.5-0.7,9.8-0.8c3.3,0.1,6.3,0.8,9.8,0.8c1.5,0,3,0,4.5,0c3.5,0,6.5-0.7,9.8-0.8c3.3,0.1,6.3,0.8,9.8,0.8
																c1.5,0,3,0,4.5,0c3.5,0,6.5-0.7,9.8-0.8c2.6,0.1,4.9,0.5,7.5,0.7l-0.5-0.9c-1.4-0.2-2.8-0.3-4.4-0.3
																c-1.5,0-3,0-4.5,0c-3.5,0-6.5,0.7-9.8,0.8c-3.3-0.1-6.3-0.8-9.8-0.8c-1.5,0-3,0-4.5,0c-3.5,0-6.5,0.7-9.8,0.8
																c-3.3-0.1-6.3-0.8-9.8-0.8c-1.5,0-3,0-4.5,0c-3.5,0-6.5,0.7-9.8,0.8c-3.3-0.1-6.3-0.8-9.8-0.8c-1.5,0-3,0-4.5,0
																c-3.5,0-6.5,0.7-9.8,0.8c-3.3-0.1-6.3-0.8-9.8-0.8C452.7,313.5,451.2,313.6,449.7,313.6L449.7,313.6z"/>
														</g>
														<g>
															
																<linearGradient id="waveb1_17_" gradientUnits="userSpaceOnUse" x1="444.5085" y1="279.9774" x2="634.4105" y2="279.9774" gradientTransform="matrix(1 0 0 -1 0 593.0781)">
																<stop  offset="0" style="stop-color:#002255"/>
																<stop  offset="0.5" style="stop-color:#0044AA"/>
																<stop  offset="1" style="stop-color:#002255"/>
															</linearGradient>
															<path id="waveb1_8_" class="st26" d="M449.7,312.4c-1.7,0-3.2,0.2-4.7,0.4l-0.5,0.8c2.4-0.2,4.7-0.6,7.1-0.7
																c3.3,0.1,6.3,0.8,9.8,0.8c1.5,0,3,0,4.5,0c3.5,0,6.5-0.7,9.8-0.8c3.3,0.1,6.3,0.8,9.8,0.8c1.5,0,3.2,0,4.5,0
																c3.5,0,6.5-0.7,9.8-0.8c3.3,0.1,6.3,0.8,9.8,0.8c1.5,0,3,0,4.5,0c3.5,0,6.5-0.7,9.8-0.8c3.3,0.1,6.3,0.8,9.8,0.8
																c1.5,0,3,0,4.5,0c3.5,0,6.5-0.7,9.8-0.8c2.6,0.1,4.9,0.5,7.5,0.7l-0.5-0.9c-1.4-0.2-2.8-0.3-4.4-0.3
																c-1.5,0-3,0-4.5,0c-3.5,0-6.5,0.7-9.8,0.8c-3.3-0.1-6.3-0.8-9.8-0.8c-1.5,0-3,0-4.5,0c-3.5,0-6.5,0.7-9.8,0.8
																c-3.3-0.1-6.3-0.8-9.8-0.8c-1.5,0-3,0-4.5,0c-3.5,0-6.5,0.7-9.8,0.8c-3.3-0.1-6.3-0.8-9.8-0.8c-1.5,0-3,0-4.5,0
																c-3.5,0-6.5,0.7-9.8,0.8c-3.3-0.1-6.3-0.8-9.8-0.8C452.7,312.4,451.2,312.5,449.7,312.4L449.7,312.4z"/>
														</g>
													</g>
													
														<linearGradient id="SVGID_5_" gradientUnits="userSpaceOnUse" x1="444.509" y1="292.2313" x2="634.411" y2="292.2313" gradientTransform="matrix(1 0 0 -1 0 602)">
														<stop  offset="0" style="stop-color:#002255"/>
														<stop  offset="0.5" style="stop-color:#0044AA"/>
														<stop  offset="1" style="stop-color:#002255"/>
													</linearGradient>
													<path class="st27" d="M453.2,307.5l-0.1,0.2h93.8l-0.1-0.2H453.2L453.2,307.5z M453,307.8l-0.1,0.2h94.2l-0.1-0.2H453z
														 M452.8,308.2l-0.2,0.4h94.8l-0.2-0.4H452.8L452.8,308.2z M452.5,308.7l-0.3,0.4h95.5l-0.3-0.4H452.5L452.5,308.7z
														 M452.1,309.4l-0.3,0.4h96.3l-0.3-0.4H452.1L452.1,309.4z M451.7,310.1l-0.2,0.4h97.1l-0.2-0.4H451.7L451.7,310.1z
														 M451.3,310.8l-0.3,0.4H549l-0.3-0.4H451.3z M450.9,311.6l-0.3,0.5h98.9l-0.3-0.5H450.9L450.9,311.6z"/>
													
														<linearGradient id="SVGID_6_" gradientUnits="userSpaceOnUse" x1="444.509" y1="289.5659" x2="634.411" y2="289.5659" gradientTransform="matrix(1 0 0 -1 0 602)">
														<stop  offset="0" style="stop-color:#002255"/>
														<stop  offset="0.5" style="stop-color:#0044AA"/>
														<stop  offset="1" style="stop-color:#002255"/>
													</linearGradient>
													<path class="st28" d="M457.4,312.3c3.5,0.7,3.8,0,3.8,0H457.4z M538.9,312.3c0,0,0.3,0.7,3.8,0H538.9z"/>
												</g>
												<g id="mountains">
													<g id="mountain1">
														
															<linearGradient id="SVGID_7_" gradientUnits="userSpaceOnUse" x1="528.4756" y1="290.291" x2="528.4756" y2="284.353" gradientTransform="matrix(1 0 0 -1 0 602)">
															<stop  offset="0" style="stop-color:#F5F549"/>
															<stop  offset="1" style="stop-color:#97C924"/>
														</linearGradient>
														<path class="st29" d="M530.6,297c-1.7,0-2.2,0.9-2.2,0.9c-2.7,10.6-11.8,21.3-22.6,21.3h-8.1V330c0,0,0,0,0,0h61.5
															l-6.2-11c-9.7-1.4-17.6-11.4-20.2-21.1C532.9,297.9,532.3,297,530.6,297L530.6,297z"/>
														<path class="st30" d="M530.6,297.5c-0.8,0-1.3,0.2-1.5,0.4c-0.3,0.2-0.3,0.3-0.3,0.3c0,0,0,0,0,0
															c-1.4,5.3-4.4,10.7-8.3,14.7c-4,4.1-9.1,6.8-14.6,6.8h-7.7v9.9H559l-5.7-10.1c-4.7-0.6-9-3.2-12.5-6.7
															c-4-4-6.9-9.4-8.3-14.7c0,0,0,0,0,0c0,0-0.1-0.1-0.3-0.3C531.9,297.7,531.4,297.5,530.6,297.5L530.6,297.5z"/>
														<path class="st31" d="M530.6,297.5c0.1,0,0.3,0,0.4,0c0,3,0,8.1,0,10.8c0,2.3-0.8,4.2-2,6.4c-0.5,1.6-1,1-2.3,2.9
															c-1.8,0.7-3.2,0.9-5.1,1.2c-2.5,0.4-8.1,0.8-10.9,0.1c3.6-1.1,7-3.3,9.8-6.1c0.7-0.8,1.5-1.6,2.1-2.4
															c1.1-1.4,2.1-2.9,3-4.5c0.4-0.6,0.7-1.2,1-1.9c0.5-1,0.9-2,1.3-2.9c0.1-0.3,0.2-0.7,0.4-1c0.2-0.7,0.4-1.3,0.6-2
															c0,0,0,0,0,0c0,0,0.1-0.1,0.3-0.3c0.1-0.1,0.3-0.2,0.6-0.2c0,0,0,0,0,0C529.9,297.5,530.2,297.5,530.6,297.5
															L530.6,297.5z"/>
														<path class="st32" d="M529.9,298.9c-0.4,6-2.3,13.2-6.6,17.8c-1.6,1.3-3.7,2.5-5.6,2.3
															C524.4,313.5,528.5,305,529.9,298.9z"/>
														<path class="st33" d="M524.5,309.3c-1,2.7-4.8,6.7-8.8,10c-1.2,0-1.8,0.1-2.8,0C515.3,319.1,521.1,314.3,524.5,309.3
															L524.5,309.3z"/>
													</g>
													<g>
														<g id="mountain1_1_">
															
																<linearGradient id="SVGID_8_" gradientUnits="userSpaceOnUse" x1="528.4756" y1="290.291" x2="528.4756" y2="284.353" gradientTransform="matrix(1 0 0 -1 -15.3407 602)">
																<stop  offset="0" style="stop-color:#F5F549"/>
																<stop  offset="1" style="stop-color:#97C924"/>
															</linearGradient>
															<path class="st34" d="M515.3,297c-1.7,0-2.2,0.9-2.2,0.9c-2.7,10.6-11.8,21.3-22.6,21.3h-8.1V330c0,0,0,0,0,0h61.5
																l-6.2-11c-9.7-1.4-17.6-11.4-20.2-21.1C517.5,297.9,517,297,515.3,297L515.3,297z"/>
															<path class="st30" d="M515.3,297.5c-0.8,0-1.3,0.2-1.5,0.4c-0.3,0.2-0.3,0.3-0.3,0.3c0,0,0,0,0,0
																c-1.4,5.3-4.4,10.7-8.3,14.7c-4,4.1-9.1,6.8-14.6,6.8h-7.7v9.9h60.9l-5.7-10.1c-4.7-0.6-9-3.2-12.5-6.7
																c-4-4-6.9-9.4-8.3-14.7c0,0,0,0,0,0c0,0-0.1-0.1-0.3-0.3C516.5,297.7,516.1,297.5,515.3,297.5L515.3,297.5z"/>
															<path class="st31" d="M515.3,297.5c0.1,0,0.3,0,0.4,0c0,3,0,8.1,0,10.8c0,2.3-0.8,4.2-2,6.4c-0.5,1.6-1,1-2.3,2.9
																c-1.8,0.7-3.2,0.9-5.1,1.2c-2.5,0.4-8.1,0.8-10.9,0.1c3.6-1.1,7-3.3,9.8-6.1c0.7-0.8,1.5-1.6,2.1-2.4
																c1.1-1.4,2.1-2.9,3-4.5c0.4-0.6,0.7-1.2,1-1.9c0.5-1,0.9-2,1.3-2.9c0.1-0.3,0.2-0.7,0.4-1c0.2-0.7,0.4-1.3,0.6-2
																c0,0,0,0,0,0c0,0,0.1-0.1,0.3-0.3c0.1-0.1,0.3-0.2,0.6-0.2c0,0,0,0,0,0C514.6,297.5,514.9,297.5,515.3,297.5
																L515.3,297.5z"/>
															<path class="st32" d="M514.6,298.9c-0.4,6-2.3,13.2-6.6,17.8c-1.6,1.3-3.7,2.5-5.6,2.3
																C509.1,313.5,513.2,305,514.6,298.9z"/>
															<path class="st33" d="M509.2,309.3c-1,2.7-4.8,6.7-8.8,10c-1.2,0-1.8,0.1-2.8,0C500,319.1,505.7,314.3,509.2,309.3
																L509.2,309.3z"/>
														</g>
													</g>
													<g id="mountain3">
														
															<linearGradient id="SVGID_9_" gradientUnits="userSpaceOnUse" x1="499.9754" y1="290.291" x2="499.9754" y2="284.353" gradientTransform="matrix(1 0 0 -1 0 602)">
															<stop  offset="0" style="stop-color:#F5F549"/>
															<stop  offset="1" style="stop-color:#97C924"/>
														</linearGradient>
														<path class="st35" d="M502.2,297.9c2.7,10.6,11.8,21.3,22.6,21.3h8.1V330c0,0,0,0,0,0h-65.8c0,0,0,0,0,0v-10.8h8.1
															c10.8,0,19.9-10.8,22.6-21.3c0,0,0.5-0.9,2.2-0.9S502.2,297.9,502.2,297.9L502.2,297.9z"/>
														<path class="st30" d="M500,297.5c0.8,0,1.3,0.2,1.5,0.4c0.3,0.2,0.3,0.3,0.3,0.3l0,0c1.4,5.3,4.3,10.7,8.3,14.7
															c4,4.1,9.1,6.8,14.6,6.8h7.6v9.9h-65v-9.9h7.7c5.5,0,10.6-2.8,14.6-6.8c4-4,6.9-9.4,8.3-14.7c0,0,0,0,0,0
															c0,0,0.1-0.1,0.3-0.3C498.7,297.6,499.2,297.5,500,297.5L500,297.5z"/>
														<path class="st31" d="M499.3,297.5c-0.1,0-0.2,0-0.2,0.1c0,0,0,0,0,0c-0.2,0.1-0.4,0.2-0.6,0.2
															c-0.3,0.2-0.3,0.3-0.3,0.3c0,0,0,0,0,0c-0.2,0.7-0.4,1.3-0.6,2c-0.1,0.3-0.2,0.7-0.4,1c-0.4,1-0.8,2-1.2,2.9
															c-0.3,0.6-0.6,1.3-1,1.9c-0.9,1.6-1.9,3.1-3,4.5c-0.7,0.8-1.4,1.6-2.1,2.4c-2.8,2.9-6.1,5-9.8,6.1
															c2.8,0.6,4-0.1,6.5-0.5c2-0.3,4.2-0.6,6-1.2c1.4-1.9,0.9-1.3,1.4-2.9c1.2-2.2,2.9-4.2,3.3-6.7
															C499,304.7,499.3,299.1,499.3,297.5L499.3,297.5z"/>
														<path class="st32" d="M499.3,298.9c-0.4,6-2.3,13.2-6.6,17.8c-1.6,1.3-3.7,2.5-5.6,2.3
															C493.8,313.5,497.9,305,499.3,298.9L499.3,298.9z"/>
														<path class="st33" d="M493.8,309.3c-1,2.7-4.8,6.7-8.8,10c-1.2,0-1.8,0.1-2.8,0C484.7,319.1,490.4,314.3,493.8,309.3
															L493.8,309.3z"/>
														<path class="st31" d="M501,297.6C501,297.6,501,297.6,501,297.6c0.3,0.1,0.5,0.2,0.6,0.2c0.3,0.2,0.3,0.3,0.3,0.3
															c0,0,0,0,0,0c0.2,0.7,0.4,1.3,0.6,2c0.1,0.3,0.2,0.7,0.4,1c0.4,1,0.8,2,1.2,2.9c0.3,0.6,0.6,1.3,1,1.9
															c0.9,1.6,1.9,3.1,3,4.5c0.7,0.8,1.4,1.6,2.1,2.4c2.8,2.9,6.1,5.4,9.8,6.5c-7.2,0-10.4-0.6-13-4
															c-2.6-3.4-3.6-4.9-4.1-6.9C502.3,306.3,500.8,301.8,501,297.6L501,297.6z"/>
														<path class="st32" d="M501.5,298.9c0.4,6,2.2,12,6.6,16.6c1.6,1.3,3.7,2.5,5.6,2.3C506.4,312.8,502.9,305,501.5,298.9
															z"/>
													</g>
													<g id="mountain4">
														
															<linearGradient id="SVGID_10_" gradientUnits="userSpaceOnUse" x1="480.7218" y1="290.291" x2="480.7218" y2="284.353" gradientTransform="matrix(1 0 0 -1 0 602)">
															<stop  offset="0" style="stop-color:#F5F549"/>
															<stop  offset="1" style="stop-color:#97C924"/>
														</linearGradient>
														<path class="st36" d="M484.7,297c-1.7,0-2.2,0.9-2.2,0.9c-2.5,9.7-11.8,22.3-21.5,23.8l-4.8,8.3h49v-11.3
															c-8.8-2.4-15.9-11.6-18.2-20.8C487,297.9,486.5,297,484.7,297L484.7,297z"/>
														<path class="st30" d="M484.7,297.5c-0.8,0-1.3,0.2-1.5,0.4c-0.3,0.2-0.3,0.3-0.3,0.3c0,0,0,0,0,0
															c-1.4,5.3-4.7,10.7-8.1,15c-3.4,4.3-9.7,8.6-14,9.1l-4.3,7.4h48.1v-10.7c-3.6-1.1-6.8-3.3-9.6-6.1
															c-4-4-6.9-9.4-8.3-14.7c0,0,0,0,0,0c0,0-0.1-0.1-0.3-0.3C486,297.6,485.5,297.5,484.7,297.5L484.7,297.5z"/>
														<path class="st37" d="M483.4,298.9c-0.6,9-5.7,20.5-11.3,22.4c-1.9,0.6-5.1,0.9-6.2,1
															C475.8,317.6,481.7,306.5,483.4,298.9L483.4,298.9z"/>
														<path class="st31" d="M484.7,297.5c-0.1,0-0.3,0-0.4,0c0,3,0,8.1,0,10.8c0,2.3,0.8,4.2,2,6.4c0.1,0.2,0.1,0.4,0.2,0.5
															c0.4,1.1,0.7,1.5,2.3,2.7c5,3.8,11.2,4.4,14.8,4c-1.1-0.9-2.4-1.7-3.4-2.5c1.7-0.1,3.4-0.2,4.5-0.5
															c-3.6-1.1-7-3.3-9.8-6.1c-0.5-0.5-0.9-1-1.4-1.6c-0.2-0.3-0.5-0.7-0.6-0.8c-1.1-1.4-2.3-2.9-3.1-4.5
															c-0.4-0.6-0.7-1.2-1-1.9c-0.5-1-0.9-2-1.3-2.9c-0.1-0.3-0.2-0.7-0.4-1c-0.2-0.7-0.4-1.3-0.6-2c0,0,0,0,0,0
															c0,0-0.1-0.1-0.3-0.3c-0.1-0.1-0.3-0.2-0.6-0.2c0,0,0,0,0,0C485.4,297.5,485.1,297.5,484.7,297.5L484.7,297.5z"/>
														<path class="st38" d="M485.4,298.9c0.4,6,2.3,13.2,6.6,17.8c1.6,1.3,3.7,2.5,5.6,2.3C491,313.5,486.9,305,485.4,298.9
															L485.4,298.9z"/>
														<path class="st33" d="M489.6,307.2c2.4,5.8,8.4,11.3,14.5,15c1.2,0,1.5,0,2.5-0.1
															C502.3,319.8,495.2,316.4,489.6,307.2L489.6,307.2z"/>
													</g>
													<g>
														<g id="mountain4_1_">
															
																<linearGradient id="SVGID_11_" gradientUnits="userSpaceOnUse" x1="480.7218" y1="290.291" x2="480.7218" y2="284.353" gradientTransform="matrix(1 0 0 -1 -15.4296 602)">
																<stop  offset="0" style="stop-color:#F5F549"/>
																<stop  offset="1" style="stop-color:#97C924"/>
															</linearGradient>
															<path class="st39" d="M469.3,297c-1.7,0-2.2,0.9-2.2,0.9c-2.5,9.7-11.8,22.3-21.5,23.8l-4.8,8.3h49v-11.3
																c-8.8-2.4-15.9-11.6-18.2-20.8C471.6,297.9,471,297,469.3,297L469.3,297z"/>
															<path class="st30" d="M469.3,297.5c-0.8,0-1.3,0.2-1.5,0.4c-0.3,0.2-0.3,0.3-0.3,0.3c0,0,0,0,0,0
																c-1.4,5.3-4.7,10.7-8.1,15c-3.4,4.3-9.7,8.6-14,9.1l-4.3,7.4h48.1v-10.7c-3.6-1.1-6.8-3.3-9.6-6.1
																c-4-4-6.9-9.4-8.3-14.7c0,0,0,0,0,0c0,0-0.1-0.1-0.3-0.3C470.6,297.6,470.1,297.5,469.3,297.5L469.3,297.5z"/>
															<path class="st37" d="M468,298.9c-0.6,9-5.7,20.5-11.3,22.4c-1.9,0.6-5.1,0.9-6.2,1
																C460.4,317.6,466.3,306.5,468,298.9L468,298.9z"/>
															<path class="st31" d="M469.3,297.5c-0.1,0-0.3,0-0.4,0c0,3,0,8.1,0,10.8c0,2.3,0.8,4.2,2,6.4
																c0.1,0.2,0.1,0.4,0.2,0.5c0.4,1.1,0.7,1.5,2.3,2.7c5,3.8,11.2,4.4,14.8,4c-1.1-0.9-2.4-1.7-3.4-2.5
																c1.7-0.1,3.4-0.2,4.5-0.5c-3.6-1.1-7-3.3-9.8-6.1c-0.5-0.5-0.9-1-1.4-1.6c-0.2-0.3-0.5-0.7-0.6-0.8
																c-1.1-1.4-2.3-2.9-3.1-4.5c-0.4-0.6-0.7-1.2-1-1.9c-0.5-1-0.9-2-1.3-2.9c-0.1-0.3-0.2-0.7-0.4-1
																c-0.2-0.7-0.4-1.3-0.6-2c0,0,0,0,0,0c0,0-0.1-0.1-0.3-0.3c-0.1-0.1-0.3-0.2-0.6-0.2c0,0,0,0,0,0
																C470,297.5,469.7,297.5,469.3,297.5L469.3,297.5z"/>
															<path class="st32" d="M470,298.9c0.4,6,2.3,13.2,6.6,17.8c1.6,1.3,3.7,2.5,5.6,2.3C475.5,313.5,471.4,305,470,298.9
																L470,298.9z"/>
															<path class="st33" d="M474.2,307.2c2.4,5.8,8.4,11.3,14.5,15c1.2,0,1.5,0,2.5-0.1
																C486.8,319.8,479.7,316.4,474.2,307.2L474.2,307.2z"/>
														</g>
													</g>
												</g>
												<g>
													<path class="st1" d="M556.5,324.7c-0.6,0.2-4.4-0.2-6.4,0l-1.3,0.3c-1.1,0-2.2,0-3.3,0c-3.6,0-6.6,0.9-10.1,0.9
														c-3.4,0-6.5-0.9-10.1-0.9c-1.1,0-2.2,0-3.3,0c-3.6,0-6.6,0.9-10.1,0.9c-3.4,0-6.5-0.9-10.1-0.9c-1.1,0-2.2,0-3.3,0
														c-3.6,0-6.6,0.9-10.1,0.9c-3.4,0-6.5-0.9-10.1-0.9c-0.3,0-0.5,0-0.8,0c-0.2,0-0.4,0-0.6,0c-0.1,0-0.2,0-0.3,0
														c-0.1,0-0.2,0-0.4,0c-0.2,0-0.3,0-0.5,0c-0.3,0-0.5,0-0.8,0c-3.6,0-6.6,0.9-10.1,0.9c-3.4,0-6.5-0.9-10.1-0.9
														c-0.3,0-0.5,0-0.8,0c-0.2,0-0.3,0-0.5,0c-0.1,0-0.3,0-0.4,0c-0.1,0-0.2,0-0.4,0c-0.2,0-0.4,0-0.5,0c-0.3,0-0.5,0-0.8,0
														c-2.9,0-6.2,0.6-8.9,0.9l-6.3,10.9l63,0l64.4,0L556.5,324.7z"/>
													
														<linearGradient id="SVGID_12_" gradientUnits="userSpaceOnUse" x1="192.3304" y1="680.2579" x2="193.3304" y2="680.2579" gradientTransform="matrix(116.1978 0 0 -5.849 -21907.5605 4304.8633)">
														<stop  offset="0" style="stop-color:#002255"/>
														<stop  offset="0.5" style="stop-color:#0044AA"/>
														<stop  offset="1" style="stop-color:#002255"/>
													</linearGradient>
													<path class="st40" d="M548,323.1c-0.2,0-0.4,0-0.6,0c-3.2,0.1-5.6,1.1-11.2,1.1s-6.2-1-12.6-0.9
														c-5.9,0.1-8.4,1.3-11.7,1.2c-3.2,0-8.5-0.7-12.5-0.3c-4,0.4-8.8,1.3-12,1.3c-3.9,0-7.8-0.7-11.9-0.3
														c-4.1,0.4-6,1.5-11.1,1.5c-4.4,0-9.1-0.7-12.7-0.7c-3.4,0-7.3,1-10.1,1.4l-0.8,1.5c2.2-0.3,8.6-1.2,10.8-1.3
														c2.3-0.1,10.7,0.5,15.3,0.3c4.6-0.2,5.2-1.2,10.6-1.2c3.8,0,6.7,0.4,10.6,0.4c2.4,0,4.6-1.2,8.3-1.2
														c0.9,0,1.9-0.1,2.8-0.1c3.1-0.5,8.4,0,12,0.2c3.3,0.2,5.5-0.6,8.9-0.7c1.5-0.1,3-0.1,4.5-0.1c3.5-0.1,6.4,0.6,9.7,0.6
														c3.2-0.2,6.4-0.9,9.9-1c1.5-0.1,3-0.1,4.5-0.1c2.3-0.1,5.8,0.1,8.3,0.5l-0.8-1.4C553.8,323.7,550.9,323.1,548,323.1
														L548,323.1z"/>
													<g id="wavesf3">
														
															<linearGradient id="wavef1_9_" gradientUnits="userSpaceOnUse" x1="192.4691" y1="634.0948" x2="193.4691" y2="634.0948" gradientTransform="matrix(126.7259 0 0 -1.5223 -23954.1934 1300.792)">
															<stop  offset="0" style="stop-color:#002255"/>
															<stop  offset="0.5" style="stop-color:#0044AA"/>
															<stop  offset="1" style="stop-color:#002255"/>
														</linearGradient>
														<path id="wavef1" class="st41" d="M450.3,334.7c-3.5,0-6.4,0.9-9.7,0.9c-1.2,0-2.4-0.2-3.5-0.3l-0.5,0.9
															c0.5,0,1,0.1,1.5,0.1c1.5,0,3,0,4.5,0c3.5,0,6.4-0.9,9.6-0.9c3.3,0.1,6.2,0.9,9.7,0.9c1.5,0,3,0,4.5,0
															c3.5,0,6.4-0.9,9.7-0.9c3.3,0.1,6.2,0.9,9.7,0.9c1.5,0,3,0,4.5,0c3.5,0,6.4-0.9,9.7-0.9c3.3,0.1,6.2,0.9,9.6,0.9
															c1.5,0,3,0,4.5,0c3.5,0,6.4-0.9,9.7-0.9c3.3,0.1,6.2,0.9,9.7,0.9c1.5,0,3,0,4.5,0c3.5,0,6.4-0.9,9.7-0.9
															c3.3,0.1,6.2,0.9,9.7,0.9c1.5,0,3,0,4.5,0c0.6,0,1.2,0,1.8-0.1l-0.5-0.8c-1.1,0.1-2.1,0.3-3.2,0.3
															c-3.3-0.1-6.2-0.9-9.7-0.9c-1.5,0-3,0-4.5,0c-3.5,0-6.4,0.9-9.6,0.9c-3.3-0.1-6.2-0.9-9.7-0.9c-1.5,0-3,0-4.5,0
															c-3.5,0-6.4,0.9-9.7,0.9c-3.3-0.1-6.2-0.9-9.7-0.9c-1.5,0-3,0-4.5,0c-3.5,0-6.4,0.9-9.6,0.9c-3.3-0.1-6.2-0.9-9.7-0.9
															c-1.5,0-3,0-4.5,0c-3.5,0-6.4,0.9-9.7,0.9c-3.3-0.1-6.2-0.9-9.7-0.9C453.3,334.7,451.8,334.8,450.3,334.7L450.3,334.7
															z"/>
														<g>
															
																<linearGradient id="wavef1_10_" gradientUnits="userSpaceOnUse" x1="192.4691" y1="634.0948" x2="193.4691" y2="634.0948" gradientTransform="matrix(126.7259 0 0 -1.5223 -23954.1934 1299.5024)">
																<stop  offset="0" style="stop-color:#002255"/>
																<stop  offset="0.5" style="stop-color:#0044AA"/>
																<stop  offset="1" style="stop-color:#002255"/>
															</linearGradient>
															<path id="wavef1_1_" class="st42" d="M450.3,333.5c-3.5,0-6.4,0.9-9.7,0.9c-1.2,0-2.4-0.2-3.5-0.3l-0.5,0.9
																c0.5,0,1,0.1,1.5,0.1c1.5,0,3,0,4.5,0c3.5,0,6.4-0.9,9.6-0.9c3.3,0.1,6.2,0.9,9.7,0.9c1.5,0,3,0,4.5,0
																c3.5,0,6.4-0.9,9.7-0.9c3.3,0.1,6.2,0.9,9.7,0.9c1.5,0,3,0,4.5,0c3.5,0,6.4-0.9,9.7-0.9c3.3,0.1,6.2,0.9,9.6,0.9
																c1.5,0,3,0,4.5,0c3.5,0,6.4-0.9,9.7-0.9c3.3,0.1,6.2,0.9,9.7,0.9c1.5,0,3,0,4.5,0c3.5,0,6.4-0.9,9.7-0.9
																c3.3,0.1,6.2,0.9,9.7,0.9c1.5,0,3,0,4.5,0c0.6,0,1.2,0,1.8-0.1l-0.5-0.8c-1.1,0.1-2.1,0.3-3.2,0.3
																c-3.3-0.1-6.2-0.9-9.7-0.9c-1.5,0-3,0-4.5,0c-3.5,0-6.4,0.9-9.6,0.9c-3.3-0.1-6.2-0.9-9.7-0.9c-1.5,0-3,0-4.5,0
																c-3.5,0-6.4,0.9-9.7,0.9c-3.3-0.1-6.2-0.9-9.7-0.9c-1.5,0-3,0-4.5,0c-3.5,0-6.4,0.9-9.6,0.9
																c-3.3-0.1-6.2-0.9-9.7-0.9c-1.5,0-3,0-4.5,0c-3.5,0-6.4,0.9-9.7,0.9c-3.3-0.1-6.2-0.9-9.7-0.9
																C453.3,333.4,451.8,333.5,450.3,333.5L450.3,333.5z"/>
														</g>
														<g>
															
																<linearGradient id="wavef1_11_" gradientUnits="userSpaceOnUse" x1="192.4691" y1="634.0948" x2="193.4691" y2="634.0948" gradientTransform="matrix(126.7259 0 0 -1.5223 -23954.1934 1298.2173)">
																<stop  offset="0" style="stop-color:#002255"/>
																<stop  offset="0.5" style="stop-color:#0044AA"/>
																<stop  offset="1" style="stop-color:#002255"/>
															</linearGradient>
															<path id="wavef1_2_" class="st43" d="M450.3,332.2c-3.5,0-6.4,0.9-9.7,0.9c-1.2,0-2.4-0.2-3.5-0.3l-0.5,0.9
																c0.5,0,1,0.1,1.5,0.1c1.5,0,3,0,4.5,0c3.5,0,6.4-0.9,9.6-0.9c3.3,0.1,6.2,0.9,9.7,0.9c1.5,0,3,0,4.5,0
																c3.5,0,6.4-0.9,9.7-0.9c3.3,0.1,6.2,0.9,9.7,0.9c1.5,0,3,0,4.5,0c3.5,0,6.4-0.9,9.7-0.9c3.3,0.1,6.2,0.9,9.6,0.9
																c1.5,0,3,0,4.5,0c3.5,0,6.4-0.9,9.7-0.9c3.3,0.1,6.2,0.9,9.7,0.9c1.5,0,3,0,4.5,0c3.5,0,6.4-0.9,9.7-0.9
																c3.3,0.1,6.2,0.9,9.7,0.9c1.5,0,3,0,4.5,0c0.6,0,1.2,0,1.8-0.1l-0.5-0.8c-1.1,0.1-2.1,0.3-3.2,0.3
																c-3.3-0.1-6.2-0.9-9.7-0.9c-1.5,0-3,0-4.5,0c-3.5,0-6.4,0.9-9.6,0.9c-3.3-0.1-6.2-0.9-9.7-0.9c-1.5,0-3,0-4.5,0
																c-3.5,0-6.4,0.9-9.7,0.9c-3.3-0.1-6.2-0.9-9.7-0.9c-1.5,0-3,0-4.5,0c-3.5,0-6.4,0.9-9.6,0.9
																c-3.3-0.1-6.2-0.9-9.7-0.9c-1.5,0-3,0-4.5,0c-3.5,0-6.4,0.9-9.7,0.9c-3.3-0.1-6.2-0.9-9.7-0.9
																C453.3,332.2,451.8,332.2,450.3,332.2L450.3,332.2z"/>
														</g>
													</g>
													<g>
														<g id="wavesf3_1_">
															
																<linearGradient id="wavef1_12_" gradientUnits="userSpaceOnUse" x1="192.4691" y1="634.0948" x2="193.4691" y2="634.0948" gradientTransform="matrix(126.7259 0 0 -1.5223 -23954.1934 1296.9248)">
																<stop  offset="0" style="stop-color:#002255"/>
																<stop  offset="0.5" style="stop-color:#0044AA"/>
																<stop  offset="1" style="stop-color:#002255"/>
															</linearGradient>
															<path id="wavef1_3_" class="st44" d="M450.3,330.9c-3.5,0-6.4,0.9-9.7,0.9c-1.2,0-2.4-0.2-3.5-0.3l-0.5,0.9
																c0.5,0,1,0.1,1.5,0.1c1.5,0,3,0,4.5,0c3.5,0,6.4-0.9,9.6-0.9c3.3,0.1,6.2,0.9,9.7,0.9c1.5,0,3,0,4.5,0
																c3.5,0,6.4-0.9,9.7-0.9c3.3,0.1,6.2,0.9,9.7,0.9c1.5,0,3,0,4.5,0c3.5,0,6.4-0.9,9.7-0.9c3.3,0.1,6.2,0.9,9.6,0.9
																c1.5,0,3,0,4.5,0c3.5,0,6.4-0.9,9.7-0.9c3.3,0.1,6.2,0.9,9.7,0.9c1.5,0,3,0,4.5,0c3.5,0,6.4-0.9,9.7-0.9
																c3.3,0.1,6.2,0.9,9.7,0.9c1.5,0,3,0,4.5,0c0.6,0,1.2,0,1.8-0.1l-0.5-0.8c-1.1,0.1-2.1,0.3-3.2,0.3
																c-3.3-0.1-6.2-0.9-9.7-0.9c-1.5,0-3,0-4.5,0c-3.5,0-6.4,0.9-9.6,0.9c-3.3-0.1-6.2-0.9-9.7-0.9c-1.5,0-3,0-4.5,0
																c-3.5,0-6.4,0.9-9.7,0.9c-3.3-0.1-6.2-0.9-9.7-0.9c-1.5,0-3,0-4.5,0c-3.5,0-6.4,0.9-9.6,0.9
																c-3.3-0.1-6.2-0.9-9.7-0.9c-1.5,0-3,0-4.5,0c-3.5,0-6.4,0.9-9.7,0.9c-3.3-0.1-6.2-0.9-9.7-0.9
																C453.3,330.9,451.8,330.9,450.3,330.9L450.3,330.9z"/>
															<g>
																
																	<linearGradient id="wavef1_13_" gradientUnits="userSpaceOnUse" x1="192.4691" y1="634.0948" x2="193.4691" y2="634.0948" gradientTransform="matrix(126.7259 0 0 -1.5223 -23954.1934 1295.6353)">
																	<stop  offset="0" style="stop-color:#002255"/>
																	<stop  offset="0.5" style="stop-color:#0044AA"/>
																	<stop  offset="1" style="stop-color:#002255"/>
																</linearGradient>
																<path id="wavef1_4_" class="st45" d="M450.3,329.6c-3.5,0-6.4,0.9-9.7,0.9c-1.2,0-2.4-0.2-3.5-0.3l-0.5,0.9
																	c0.5,0,1,0.1,1.5,0.1c1.5,0,3,0,4.5,0c3.5,0,6.4-0.9,9.6-0.9c3.3,0.1,6.2,0.9,9.7,0.9c1.5,0,3,0,4.5,0
																	c3.5,0,6.4-0.9,9.7-0.9c3.3,0.1,6.2,0.9,9.7,0.9c1.5,0,3,0,4.5,0c3.5,0,6.4-0.9,9.7-0.9c3.3,0.1,6.2,0.9,9.6,0.9
																	c1.5,0,3,0,4.5,0c3.5,0,6.4-0.9,9.7-0.9c3.3,0.1,6.2,0.9,9.7,0.9c1.5,0,3,0,4.5,0c3.5,0,6.4-0.9,9.7-0.9
																	c3.3,0.1,6.2,0.9,9.7,0.9c1.5,0,3,0,4.5,0c0.6,0,1.2,0,1.8-0.1l-0.5-0.8c-1.1,0.1-2.1,0.3-3.2,0.3
																	c-3.3-0.1-6.2-0.9-9.7-0.9c-1.5,0-3,0-4.5,0c-3.5,0-6.4,0.9-9.6,0.9c-3.3-0.1-6.2-0.9-9.7-0.9c-1.5,0-3,0-4.5,0
																	c-3.5,0-6.4,0.9-9.7,0.9c-3.3-0.1-6.2-0.9-9.7-0.9c-1.5,0-3,0-4.5,0c-3.5,0-6.4,0.9-9.6,0.9
																	c-3.3-0.1-6.2-0.9-9.7-0.9c-1.5,0-3,0-4.5,0c-3.5,0-6.4,0.9-9.7,0.9c-3.3-0.1-6.2-0.9-9.7-0.9
																	C453.3,329.6,451.8,329.6,450.3,329.6L450.3,329.6z"/>
															</g>
															<g>
																
																	<linearGradient id="wavef1_14_" gradientUnits="userSpaceOnUse" x1="192.4691" y1="634.0948" x2="193.4691" y2="634.0948" gradientTransform="matrix(126.7259 0 0 -1.5223 -23954.1934 1294.3501)">
																	<stop  offset="0" style="stop-color:#002255"/>
																	<stop  offset="0.5" style="stop-color:#0044AA"/>
																	<stop  offset="1" style="stop-color:#002255"/>
																</linearGradient>
																<path id="wavef1_5_" class="st46" d="M450.3,328.3c-3.5,0-6.4,0.9-9.7,0.9c-1.2,0-2.4-0.2-3.5-0.3l-0.5,0.9
																	c0.5,0,1,0.1,1.5,0.1c1.5,0,3,0,4.5,0c3.5,0,6.4-0.9,9.6-0.9c3.3,0.1,6.2,0.9,9.7,0.9c1.5,0,3,0,4.5,0
																	c3.5,0,6.4-0.9,9.7-0.9c3.3,0.1,6.2,0.9,9.7,0.9c1.5,0,3,0,4.5,0c3.5,0,6.4-0.9,9.7-0.9c3.3,0.1,6.2,0.9,9.6,0.9
																	c1.5,0,3,0,4.5,0c3.5,0,6.4-0.9,9.7-0.9c3.3,0.1,6.2,0.9,9.7,0.9c1.5,0,3,0,4.5,0c3.5,0,6.4-0.9,9.7-0.9
																	c3.3,0.1,6.2,0.9,9.7,0.9c1.5,0,3,0,4.5,0c0.6,0,1.2,0,1.8-0.1l-0.5-0.8c-1.1,0.1-2.1,0.3-3.2,0.3
																	c-3.3-0.1-6.2-0.9-9.7-0.9c-1.5,0-3,0-4.5,0c-3.5,0-6.4,0.9-9.6,0.9c-3.3-0.1-6.2-0.9-9.7-0.9c-1.5,0-3,0-4.5,0
																	c-3.5,0-6.4,0.9-9.7,0.9c-3.3-0.1-6.2-0.9-9.7-0.9c-1.5,0-3,0-4.5,0c-3.5,0-6.4,0.9-9.6,0.9
																	c-3.3-0.1-6.2-0.9-9.7-0.9c-1.5,0-3,0-4.5,0c-3.5,0-6.4,0.9-9.7,0.9c-3.3-0.1-6.2-0.9-9.7-0.9
																	C453.3,328.3,451.8,328.3,450.3,328.3L450.3,328.3z"/>
															</g>
														</g>
														<g id="seaf">
															<g id="wavesf3_2_">
																
																	<linearGradient id="wavef1_15_" gradientUnits="userSpaceOnUse" x1="192.4691" y1="634.0948" x2="193.4691" y2="634.0948" gradientTransform="matrix(126.7259 0 0 -1.5223 -23954.1934 1293.0632)">
																	<stop  offset="0" style="stop-color:#002255"/>
																	<stop  offset="0.5" style="stop-color:#0044AA"/>
																	<stop  offset="1" style="stop-color:#002255"/>
																</linearGradient>
																<path id="wavef1_6_" class="st47" d="M450.3,327c-3.5,0-6.4,0.9-9.7,0.9c-1.2,0-2.4-0.2-3.5-0.3l-0.5,0.9
																	c0.5,0,1,0.1,1.5,0.1c1.5,0,3,0,4.5,0c3.5,0,6.4-0.9,9.6-0.9c3.3,0.1,6.2,0.9,9.7,0.9c1.5,0,3,0,4.5,0
																	c3.5,0,6.4-0.9,9.7-0.9c3.3,0.1,6.2,0.9,9.7,0.9c1.5,0,3,0,4.5,0c3.5,0,6.4-0.9,9.7-0.9c3.3,0.1,6.2,0.9,9.6,0.9
																	c1.5,0,3,0,4.5,0c3.5,0,6.4-0.9,9.7-0.9c3.3,0.1,6.2,0.9,9.7,0.9c1.5,0,3,0,4.5,0c3.5,0,6.4-0.9,9.7-0.9
																	c3.3,0.1,6.2,0.9,9.7,0.9c1.5,0,3,0,4.5,0c0.6,0,1.2,0,1.8-0.1l-0.5-0.8c-1.1,0.1-2.1,0.3-3.2,0.3
																	c-3.3-0.1-6.2-0.9-9.7-0.9c-1.5,0-3,0-4.5,0c-3.5,0-6.4,0.9-9.6,0.9c-3.3-0.1-6.2-0.9-9.7-0.9c-1.5,0-3,0-4.5,0
																	c-3.5,0-6.4,0.9-9.7,0.9c-3.3-0.1-6.2-0.9-9.7-0.9c-1.5,0-3,0-4.5,0c-3.5,0-6.4,0.9-9.6,0.9
																	c-3.3-0.1-6.2-0.9-9.7-0.9c-1.5,0-3,0-4.5,0c-3.5,0-6.4,0.9-9.7,0.9c-3.3-0.1-6.2-0.9-9.7-0.9
																	C453.3,327,451.8,327,450.3,327L450.3,327z"/>
																<g>
																	
																		<linearGradient id="wavef1_16_" gradientUnits="userSpaceOnUse" x1="192.4691" y1="634.0948" x2="193.4691" y2="634.0948" gradientTransform="matrix(126.7259 0 0 -1.5223 -23954.1934 1291.7738)">
																		<stop  offset="0" style="stop-color:#002255"/>
																		<stop  offset="0.5" style="stop-color:#0044AA"/>
																		<stop  offset="1" style="stop-color:#002255"/>
																	</linearGradient>
																	<path id="wavef1_7_" class="st48" d="M450.3,325.7c-3.5,0-6.4,0.9-9.7,0.9c-1.2,0-2.4-0.2-3.5-0.3l-0.5,0.9
																		c0.5,0,1,0.1,1.5,0.1c1.5,0,3,0,4.5,0c3.5,0,6.4-0.9,9.6-0.9c3.3,0.1,6.2,0.9,9.7,0.9c1.5,0,3,0,4.5,0
																		c3.5,0,6.4-0.9,9.7-0.9c3.3,0.1,6.2,0.9,9.7,0.9c1.5,0,3,0,4.5,0c3.5,0,6.4-0.9,9.7-0.9c3.3,0.1,6.2,0.9,9.6,0.9
																		c1.5,0,3,0,4.5,0c3.5,0,6.4-0.9,9.7-0.9c3.3,0.1,6.2,0.9,9.7,0.9c1.5,0,3,0,4.5,0c3.5,0,6.4-0.9,9.7-0.9
																		c3.3,0.1,6.2,0.9,9.7,0.9c1.5,0,3,0,4.5,0c0.6,0,1.2,0,1.8-0.1l-0.5-0.8c-1.1,0.1-2.1,0.3-3.2,0.3
																		c-3.3-0.1-6.2-0.9-9.7-0.9c-1.5,0-3,0-4.5,0c-3.5,0-6.4,0.9-9.6,0.9c-3.3-0.1-6.2-0.9-9.7-0.9c-1.5,0-3,0-4.5,0
																		c-3.5,0-6.4,0.9-9.7,0.9c-3.3-0.1-6.2-0.9-9.7-0.9c-1.5,0-3,0-4.5,0c-3.5,0-6.4,0.9-9.6,0.9
																		c-3.3-0.1-6.2-0.9-9.7-0.9c-1.5,0-3,0-4.5,0c-3.5,0-6.4,0.9-9.7,0.9c-3.3-0.1-6.2-0.9-9.7-0.9
																		C453.3,325.7,451.8,325.8,450.3,325.7L450.3,325.7z"/>
																</g>
																<g>
																	
																		<linearGradient id="wavef1_17_" gradientUnits="userSpaceOnUse" x1="192.4691" y1="634.0948" x2="193.4691" y2="634.0948" gradientTransform="matrix(126.7259 0 0 -1.5223 -23954.1934 1290.4886)">
																		<stop  offset="0" style="stop-color:#002255"/>
																		<stop  offset="0.5" style="stop-color:#0044AA"/>
																		<stop  offset="1" style="stop-color:#002255"/>
																	</linearGradient>
																	<path id="wavef1_8_" class="st49" d="M450.3,324.4c-3.5,0-6.4,0.9-9.7,0.9c-1.2,0-2.4-0.2-3.5-0.3l-0.5,0.9
																		c0.5,0,1,0.1,1.5,0.1c1.5,0,3,0,4.5,0c3.5,0,6.4-0.9,9.6-0.9c3.3,0.1,6.2,0.9,9.7,0.9c1.5,0,3,0,4.5,0
																		c3.5,0,6.4-0.9,9.7-0.9c3.3,0.1,6.2,0.9,9.7,0.9c1.5,0,3,0,4.5,0c3.5,0,6.4-0.9,9.7-0.9c3.3,0.1,6.2,0.9,9.6,0.9
																		c1.5,0,3,0,4.5,0c3.5,0,6.4-0.9,9.7-0.9c3.3,0.1,6.2,0.9,9.7,0.9c1.5,0,3,0,4.5,0c3.5,0,6.4-0.9,9.7-0.9
																		c3.3,0.1,6.2,0.9,9.7,0.9c1.5,0,3,0,4.5,0c0.6,0,1.2,0,1.8-0.1l-0.5-0.8c-1.1,0.1-2.1,0.3-3.2,0.3
																		c-3.3-0.1-6.2-0.9-9.7-0.9c-1.5,0-3,0-4.5,0c-3.5,0-6.4,0.9-9.6,0.9c-3.3-0.1-6.2-0.9-9.7-0.9c-1.5,0-3,0-4.5,0
																		c-3.5,0-6.4,0.9-9.7,0.9c-3.3-0.1-6.2-0.9-9.7-0.9c-1.5,0-3,0-4.5,0c-3.5,0-6.4,0.9-9.6,0.9
																		c-3.3-0.1-6.2-0.9-9.7-0.9c-1.5,0-3,0-4.5,0c-3.5,0-6.4,0.9-9.7,0.9c-3.3-0.1-6.2-0.9-9.7-0.9
																		C453.3,324.4,451.8,324.5,450.3,324.4L450.3,324.4z"/>
																</g>
															</g>
														</g>
														<path class="st30" d="M443.8,324.7l-2.4,4.2c2.8-0.5,7.1-1.7,10.6-1.7c3.7,0,8.1,0.9,12.4,0.9c5.1,0,7-1.1,11.1-1.5
															c4.1-0.4,8,0.5,11.9,0.5c3.1,0,7.9-1.1,12-1.5s7.7,0.3,12.6,0.4c4.9,0.1,5.6-1.2,11.6-1.3c6.4-0.1,6.9,0.9,12.6,0.9
															c4.2,0.2,7.9-0.9,11.7-1.1c3.8-0.3,5.5,0,8.3,0.1l-1.8-3.3c0,0-0.1,0-0.1,0L453,323.6L443.8,324.7z"/>
														<path class="st1" d="M550.1,324.6c0,0,2.7,0.1,3.8,0.3c1.1,0.1,3,0.3,3,0.3l-0.4-0.5
															C555.9,324.9,552.1,324.5,550.1,324.6z"/>
													</g>
													<path class="st2" d="M500,224.9l-32.1,55.7L435,337.5l64.3,0l65.7,0l-32.2-55.7L500,224.9L500,224.9z M500,227.9
														l31.5,54.7l30.9,53.4l-63.1,0l-61.7,0l31.6-54.6L500,227.9z"/>
												</g>
											</g>
										</g>
									</g>
								</g>
							</g>
						</g>
					</g>
				</g>
			</g>
		</g>
	</g>
</g>
</svg>
