<?xml version="1.0" encoding="utf-8"?>
<!-- Generator: Adobe Illustrator 21.0.0, SVG Export Plug-In . SVG Version: 6.00 Build 0)  -->
<svg version="1.1" id="Layer_1" xmlns="http://www.w3.org/2000/svg" xmlns:xlink="http://www.w3.org/1999/xlink" x="0px" y="0px"
	 viewBox="0 0 1500 1000" style="enable-background:new 0 0 1500 1000;" xml:space="preserve">
<style type="text/css">
	.st0{fill:#00267F;}
	.st1{fill:#FFC726;}
</style>
<title>Flag of Barbados</title>
<rect class="st0" width="1500" height="1000"/>
<rect x="500" class="st1" width="500" height="1000"/>
<path id="h" d="M750,257.8c-16.2,44.3-32.8,90.4-68.2,125.8c11-3.6,30.2-6.9,42.6-6.6v186.4l-52.6,7.8c-1.9-0.2-2.5-3.1-2.5-7.1
	c-5.1-57.9-18.8-106.5-34.5-156.8c-1.1-6.9-21.1-33.1-5.7-28.5c1.9,0.2,22.4,8.6,19.2,4.6c-28-29-68.9-49.9-108.7-56.1
	c-3.5-0.9-5.6,0.9-2.4,4.9c52.8,81.2,96.9,177,96.5,290.7c20.5,0,70.2-12.1,90.8-12.1v131.5h25.9l5.9-367.2L750,257.8z"/>
<g transform="translate(24000,0) scale(-1,1)">
	<path id="h_1_" d="M750,257.8c16.2,44.3,32.8,90.4,68.2,125.8c-11-3.6-30.2-6.9-42.6-6.6v186.4l52.6,7.8c1.9-0.2,2.5-3.1,2.5-7.1
		c5.1-57.9,18.8-106.5,34.5-156.8c1.1-6.9,21.1-33.1,5.7-28.5c-1.9,0.2-22.4,8.6-19.2,4.6c28-29,68.9-49.9,108.7-56.1
		c3.5-0.9,5.6,0.9,2.4,4.9c-52.8,81.2-96.9,177-96.5,290.7c-20.5,0-70.2-12.1-90.8-12.1v131.5h-25.9L743.8,375L750,257.8z"/>
</g>
</svg>
