<?xml version="1.0" encoding="utf-8"?>
<!-- Generator: Adobe Illustrator 21.0.0, SVG Export Plug-In . SVG Version: 6.00 Build 0)  -->
<svg version="1.1" id="Layer_1" xmlns="http://www.w3.org/2000/svg" xmlns:xlink="http://www.w3.org/1999/xlink" x="0px" y="0px"
	 viewBox="0 0 2800 1400" style="enable-background:new 0 0 2800 1400;" xml:space="preserve">
<style type="text/css">
	.st0{fill:#CC0001;}
	.st1{fill:#FFFFFF;}
	.st2{fill:#010066;}
	.st3{fill:#FFCC00;}
</style>
<rect id="red" class="st0" width="2800" height="1400"/>
<rect id="white" y="1300" class="st1" width="2800" height="100"/>
<g id="use3035" transform="translate(0,-200)">
	<rect id="white_1_" y="1100" class="st1" width="2800" height="100"/>
</g>
<g id="use3038" transform="translate(0,-400)">
	<rect id="white_2_" y="900" class="st1" width="2800" height="100"/>
</g>
<g id="use3062" transform="translate(0,-600)">
	<rect id="white_3_" y="700" class="st1" width="2800" height="100"/>
</g>
<g id="use3064" transform="translate(0,-800)">
	<rect id="white_4_" y="500" class="st1" width="2800" height="100"/>
</g>
<g id="use3066" transform="translate(0,-1000)">
	<rect id="white_5_" y="300" class="st1" width="2800" height="100"/>
</g>
<g id="use3068" transform="translate(0,-1200)">
	<rect id="white_6_" y="100" class="st1" width="2800" height="100"/>
</g>
<rect id="blue" class="st2" width="1400" height="800"/>
<path id="path4945" class="st3" d="M576,100c-166.1,0-301,134.4-301,300s134.9,300,301,300c60,0,116-17.6,162.9-47.8
	c-27.4,9.4-56.7,14.6-87.3,14.6c-147.3,0-266.9-119.2-266.9-266s119.6-266,266.9-266c32.6,0,63.7,5.8,92.6,16.5
	C696.2,118.9,638.3,100,576,100z"/>
<path id="path4959" class="st3" d="M1075.2,556.2L948.4,490l37.5,135.4l-84.8-113.3L874.6,650l-26-137.9l-85.2,113l37.9-135.3
	l-127,65.8l94.3-105.8L625,455.3l132.1-55.4L625.2,344l143.7,5.9l-94-106.1L801.6,310l-37.5-135.4l84.8,113.3L875.4,150l26,137.9
	l85.2-113l-37.9,135.3l127-65.8l-94.3,105.8l143.7-5.5l-132.1,55.4l131.9,55.8l-143.7-5.9L1075.2,556.2z"/>
</svg>
