<?xml version="1.0" encoding="utf-8"?>
<!-- Generator: Adobe Illustrator 21.0.0, SVG Export Plug-In . SVG Version: 6.00 Build 0)  -->
<svg version="1.1" id="Layer_1" xmlns="http://www.w3.org/2000/svg" xmlns:xlink="http://www.w3.org/1999/xlink" x="0px" y="0px"
	 viewBox="0 0 900 600" style="enable-background:new 0 0 900 600;" xml:space="preserve">
<style type="text/css">
	.st0{fill:#FFFFFF;}
	.st1{fill:#CE1126;}
	.st2{fill:#FFFFFF;stroke:#C09300;stroke-width:1.2703;stroke-linejoin:round;}
	.st3{fill:#C09300;}
	.st4{fill:#C09300;stroke:#C09300;stroke-width:1.0739;}
	.st5{fill:#FFFFFF;stroke:#C09300;stroke-width:1.1888;stroke-linejoin:round;}
	.st6{fill:none;stroke:#C09300;stroke-width:1.2705;stroke-linejoin:round;}
	.st7{fill:#FFFFFF;stroke:#C09300;stroke-width:2.3777;stroke-linecap:round;stroke-linejoin:round;}
	.st8{fill:#FFFFFF;stroke:#C09300;stroke-width:1.2705;stroke-linecap:round;stroke-linejoin:round;}
	.st9{fill:#FFFFFF;stroke:#C09300;stroke-width:0.8915;stroke-linecap:round;stroke-linejoin:round;}
	.st10{fill:#FFFFFF;stroke:#C09300;stroke-width:1.1502;}
	.st11{fill:#FFFFFF;stroke:#C09300;stroke-width:0.9157;}
	.st12{fill:#FFFFFF;stroke:#C09300;stroke-width:1.2179;}
	.st13{fill:none;stroke:#C09300;stroke-width:1.2704;}
	.st14{fill:#C09300;stroke:#C09300;stroke-width:0.3542;}
</style>
<rect width="900" height="600"/>
<rect class="st0" width="900" height="400"/>
<rect class="st1" width="900" height="200"/>
<g>
	<path class="st2" d="M450.8,302.4l68.5,63.6l-4.9-115.5c-0.7-17.5-15.9-13.5-27-7.2c-11.2,7.2-24,7.2-37.4,2.4
		c-13.5,4.7-26.3,4.7-37.4-2.4c-11-6.3-26.3-10.3-27,7.2L380.7,366L450.8,302.4L450.8,302.4z"/>
	<g id="w">
		<path class="st3" d="M393.5,246.5l-4.7,112.3l-8,7.2l4.9-115.5C387.9,248.9,391.9,246.5,393.5,246.5L393.5,246.5z"/>
		<path class="st3" d="M403.1,254.5l-4,94l-8,8.2l4.9-108.5C397.5,249.8,402.2,253.7,403.1,254.5L403.1,254.5z"/>
		<path class="st3" d="M411.8,261.7l-3.2,78.4l-6.5,6.3l4-89.4C407.8,258.5,411,260.8,411.8,261.7L411.8,261.7z"/>
		<path class="st3" d="M421.3,265.7l-3.2,66.8l-6.3,5.1l3.2-74.3C416.6,264,419.7,265.7,421.3,265.7L421.3,265.7z"/>
		<path class="st3" d="M430.1,265.7l-2.3,55.7l-6.5,6.3l2.4-61.3C425.3,266.4,429.3,266.4,430.1,265.7L430.1,265.7z"/>
	</g>
	<g transform="matrix(-1,0,0,1,900,0)">
		<g id="w_1_">
			<path class="st3" d="M506.5,246.5l4.7,112.3l8,7.2l-4.9-115.5C512.1,248.9,508.1,246.5,506.5,246.5L506.5,246.5z"/>
			<path class="st3" d="M496.9,254.5l4,94l8,8.2l-4.9-108.5C502.5,249.8,497.8,253.7,496.9,254.5L496.9,254.5z"/>
			<path class="st3" d="M488.2,261.7l3.2,78.4l6.5,6.3l-4-89.4C492.2,258.5,489,260.8,488.2,261.7L488.2,261.7z"/>
			<path class="st3" d="M478.7,265.7l3.2,66.8l6.3,5.1l-3.2-74.3C483.4,264,480.3,265.7,478.7,265.7L478.7,265.7z"/>
			<path class="st3" d="M469.9,265.7l2.3,55.7l6.5,6.3l-2.4-61.3C474.7,266.4,470.7,266.4,469.9,265.7L469.9,265.7z"/>
		</g>
	</g>
	<path class="st4" d="M453.2,315.1l9.6,43.8l-3.2,3.2l-3.3-2.4l-5.5-39l2.3,39l-3.2,4l-3.2-4l2.3-39l-5.5,39l-3.3,2.4l-3.2-3.2
		l9.6-43.8H453.2L453.2,315.1z"/>
	<g id="b">
		<path class="st5" d="M428.5,295.8l-19.1,67.7l26.3,4l11.2-50.9L428.5,295.8L428.5,295.8z"/>
		<path class="st6" d="M422.2,318.9l2.3,5.6l12.4-11.8"/>
		<path class="st6" d="M430.8,304.9l2.6,24.3l7.9-10.3"/>
		<path class="st6" d="M438.1,323l4.3,14.9"/>
		<path class="st6" d="M444.1,332.4l-8.7,13.2 M438.1,358.8l-2.8-13.2l-2.4-13.4l-5.8,7.9l-2.6-9.1l-8.2,8.4l4.2,15.3l5.7-9.4
			l3.2,9.6l5.9-9.2"/>
		<path class="st6" d="M415,362l5.3-7.4l3.5,11.5l4.7-8l3.2,9.6"/>
	</g>
	<g transform="matrix(-1,0,0,1,900,0)">
		<g id="b_1_">
			<path class="st5" d="M471.5,295.8l19.1,67.7l-26.3,4l-11.2-50.9L471.5,295.8L471.5,295.8z"/>
			<path class="st6" d="M477.8,318.9l-2.3,5.6l-12.4-11.8"/>
			<path class="st6" d="M469.2,304.9l-2.6,24.3l-7.9-10.3"/>
			<path class="st6" d="M461.9,323l-4.3,14.9"/>
			<path class="st6" d="M455.9,332.4l8.7,13.2 M461.9,358.8l2.8-13.2l2.4-13.4l5.8,7.9l2.6-9.1l8.2,8.4l-4.2,15.3l-5.7-9.4l-3.2,9.6
				l-5.9-9.2"/>
			<path class="st6" d="M485,362l-5.3-7.4l-3.5,11.5l-4.7-8l-3.2,9.6"/>
		</g>
	</g>
	<g>
		<path class="st7" d="M450,393.8c19.9,0,39-1.6,50.2-4.7c4.7-0.9,4.7-3.3,4.7-6.5c4.7-1.6,2.3-7.2,5.6-7.2c-3.3,0.9-4-5.6-8-4.7
			c0-5.6-5.6-6.3-10.3-4.7c-9.5,3.2-26.3,3.9-42.2,3.9c-15.9-0.7-32.6-0.7-42.2-3.9c-4.7-1.6-10.3-0.9-10.3,4.7
			c-4-0.9-4.7,5.6-8,4.7c3.3,0,0.9,5.6,5.6,7.2c0,3.2,0,5.6,4.9,6.5C411,392.2,430.1,393.8,450,393.8L450,393.8z"/>
		<path class="st8" d="M422.9,363.5c6.5,0.9,13.6,1.6,19.2,0.9c3.2,0,5.4,5.5-0.9,6.3c-5.6,0.7-14.3,0-19.1-0.9
			c-4-0.7-12.8-2.3-18.4-3.9c-5.6-2.4-1.6-7.2,1.6-6.5C410.3,361.1,416.6,362.7,422.9,363.5L422.9,363.5z"/>
		<path class="st8" d="M477.1,363.5c-6.5,0.9-13.6,1.6-19.1,0.9c-3.3,0-5.6,5.5,0.7,6.3c5.6,0.7,14.3,0,19.1-0.9
			c4-0.7,12.8-2.3,18.4-3.9c5.6-2.4,1.6-7.2-1.6-6.5C489.7,361.1,483.4,362.7,477.1,363.5L477.1,363.5z"/>
		<path class="st8" d="M403.1,360.4c-4.9-0.9-7.2,4.7-5.6,7.9c0.7-1.6,4-1.6,4.7-3.2C403.1,362.7,401.5,362.7,403.1,360.4
			L403.1,360.4z"/>
		<path class="st8" d="M422.2,375.1c0-3.2,3.2-2.8,3.2-5.9c0-1.6-0.9-4-2.4-4c-1.6,0-3.2,1.6-3.2,3.2
			C419,371.4,422.2,371.9,422.2,375.1z"/>
		<path class="st8" d="M444.9,366c4.7,0,4.3,6.3,2,9.5c0-2.3-4-3.2-4-4.7C442.8,368.3,446.5,368.3,444.9,366L444.9,366z"/>
		<path class="st8" d="M496.9,360.4c4.9-0.9,7.2,4.7,5.6,7.9c-0.7-1.6-4-1.6-4.7-3.2C496.9,362.7,498.5,362.7,496.9,360.4
			L496.9,360.4z"/>
		<path class="st8" d="M477.8,375.1c0-3.2-3.2-2.8-3.2-5.9c0-1.6,0.9-4,2.4-4c1.6,0,3.2,1.6,3.2,3.2
			C481,371.4,477.8,371.9,477.8,375.1L477.8,375.1z"/>
		<path class="st8" d="M455.1,366c-4.7,0-4.3,6.3-2,9.5c0-2.3,4-3.2,4-4.7C457.2,368.3,453.5,368.3,455.1,366z"/>
		<g>
			<path class="st9" d="M404.7,362c1.6,0,4,0.7,4.7,1.6L404.7,362L404.7,362z"/>
			<path class="st9" d="M412.5,364.4c0.9,0,4,0.7,5.6,1.6L412.5,364.4L412.5,364.4z"/>
			<path class="st9" d="M441.2,367.6c-1.6,0-4.7,0-5.6,0.7L441.2,367.6L441.2,367.6z"/>
			<path class="st9" d="M432.5,367.6c-0.9-0.9-4-0.9-5.6,0H432.5L432.5,367.6z"/>
			<path class="st9" d="M495.3,362c-1.6,0-3.9,0.7-4.7,1.6L495.3,362z"/>
			<path class="st9" d="M487.5,364.4c-0.9,0-4,0.7-5.6,1.6L487.5,364.4L487.5,364.4z"/>
			<path class="st9" d="M458.8,367.6c1.6,0,4.7,0,5.6,0.7L458.8,367.6L458.8,367.6z"/>
			<path class="st9" d="M467.5,367.6c0.9-0.9,4-0.9,5.6,0H467.5L467.5,367.6z"/>
		</g>
		<g>
			<path class="st3" d="M403.3,374.6c-0.5-0.1-0.8-0.5-0.7-1c0.2-0.6,0.7-1,1.1-0.8c0.3,0.1,0.8,0.6,0.8,0.8c0,0.2-0.3,0.8-0.4,0.8
				c-0.1,0-0.1,0-0.2,0.1C403.9,374.6,403.6,374.6,403.3,374.6L403.3,374.6z"/>
			<path class="st3" d="M458.3,378.5c-0.2-0.1-0.5-0.5-0.5-0.7c0-0.4,0.6-1,0.9-1c0.2,0,0.7,0.2,0.8,0.4c0.3,0.3,0.3,0.9-0.2,1.2
				C459.2,378.6,458.6,378.6,458.3,378.5L458.3,378.5z"/>
			<path class="st3" d="M458.6,381c-0.4-0.1-0.6-0.3-0.6-0.8c0-0.5,0-0.6,0.5-0.8l0.4-0.2l0.3,0.2c0.5,0.2,0.7,0.4,0.7,0.8
				c0,0.3-0.2,0.7-0.6,0.9C459,381.1,459,381.1,458.6,381L458.6,381z"/>
			<path class="st3" d="M407.8,370.1c-0.3,0-0.8,0.3-1.1,0.5c-0.6,0.2-1.4,0.6-2,0.1c-0.6-0.2-1.4,0-1.5,0.7c0.2,0.7,1.1,1,1.6,0.6
				c0.4-0.5,1.5-0.9,1.7,0.1c-0.5,0.7-0.4,1.6-0.8,2.3c-0.1,0.5-0.3,0.9-0.5,1.3c-0.5,0-1,0-1.3,0.3c-0.6,0-1.3,0.3-1.6,0.9
				c-0.4,0.6-0.8,1.2-0.9,1.9c0.1,0.7,0.9,0.9,1.6,1c0.7,0.2,1.3,0.4,2,0.6c1.1,0.2,2.1,0.6,3.2,0.9c1.6,0.5,3.2,0.7,4.8,1.1
				c0.2,0.1,0.3,0.1,0.5,0.1c0.7,0.1,1-0.6,1.1-1.1c0.3-1.2,0.6-2.3,0.9-3.5c0.2-0.5,0.5-1.5-0.4-1.3c-0.5,0.3-1,0.8-1.6,0.8
				c-0.9,0.1-0.4,0.9,0,1.3c0.1,0.6-0.1,1.3-0.5,1.8c-0.5,0.3-1.2-0.1-1.7-0.2c-0.6,0-1.7-0.3-1.2-1.1c0.2-0.6,0.2-1.2,0.4-1.8
				c0.3-0.6,0.3-1.3,0.5-1.9c-0.4-0.8-1,0.3-1.5,0.3c-0.3,0.2-1.6,0.3-0.9,0.9c0.6,0.4,0.1,1.2,0,1.8c0,0.8-0.8,1-1.5,0.8
				c-0.6,0-1.5-0.5-1-1.2c0.1-0.6,0.3-1.1,0.4-1.7c0.2-0.7,0.4-1.4,0.7-2.1c0.1-0.6,0.3-1.2,0.6-1.8c0-0.7,0.5-1.3,0.5-2
				C408.1,370.2,408,370.1,407.8,370.1L407.8,370.1z M404.2,377.3c0.1,0,0.1,0,0.2,0c0.2,0.1,0.3,0.3,0,0.5
				c-0.1,0.1-0.2,0.2-0.3,0.2c-0.5,0-0.6-0.1-0.6-0.3c0-0.2,0-0.2,0.3-0.3C404,377.4,404.1,377.4,404.2,377.3L404.2,377.3z"/>
			<path class="st3" d="M403.1,382.4c-0.5-0.5-0.4-0.8,0.3-1.4c0.3-0.2,0.5-0.2,0.9,0.1c0.6,0.5,0.6,0.8,0.1,1.3
				c-0.2,0.2-0.3,0.3-0.6,0.3C403.5,382.6,403.4,382.6,403.1,382.4L403.1,382.4z"/>
			<path class="st3" d="M406.2,383.3c-0.5-0.1-0.8-0.6-0.6-1.1c0.1-0.4,0.2-0.5,0.8-0.5c0.7,0,0.9,0.1,0.9,0.7c0,0.4,0,0.4-0.2,0.6
				C406.8,383.2,406.4,383.3,406.2,383.3L406.2,383.3z"/>
			<path class="st3" d="M495.3,383.4c-0.2-0.2-0.3-0.3-0.3-0.5c0-0.4,0.2-0.7,0.7-0.9c0.7-0.3,1-0.3,1.2,0.2
				c0.3,0.6,0.3,0.8-0.1,1.3c-0.2,0.2-0.3,0.2-0.8,0.2C495.6,383.6,495.5,383.6,495.3,383.4L495.3,383.4z"/>
			<path class="st3" d="M410.2,384.5c-0.4-0.1-0.6-0.4-0.6-0.8c0-0.3,0-0.4,0.3-0.6c0.2-0.1,0.4-0.2,0.6-0.2c0.3,0,0.4,0,0.6,0.1
				c0.6,0.4,0.7,0.8,0.3,1.1C411.1,384.6,410.8,384.7,410.2,384.5L410.2,384.5z"/>
			<path class="st3" d="M432.1,385.5c-0.1-0.1-0.3-0.2-0.3-0.3c0-0.6,0.1-1.1,0.2-1.6c0.1-0.5,0-1.1,0.2-1.6
				c0.2-0.9,0.2-1.9,0.4-2.8c0-0.5,0.1-0.9,0.2-1.4c0.2-0.7,0-1.5,0.2-2.2c0-0.3,0.3-1,0.6-0.6c0.4,0.6,0.9,1,1.4,1.5
				c0.4,0.3,0,0.6-0.3,0.7c-0.4,0.2-0.5,0.6-0.5,1c-0.1,0.4-0.2,0.8-0.2,1.2c-0.1,0.6-0.1,1.3-0.2,1.9c-0.2,0.6-0.1,1.3-0.2,1.9
				c0,0.4-0.2,0.8-0.2,1.2c0,0.4-0.1,0.9-0.4,1.2C432.9,385.8,432.4,385.8,432.1,385.5L432.1,385.5z"/>
			<path class="st3" d="M461.8,375.7c-0.5,0.4-0.9,0.8-1.3,1.2c-0.6,0.4,0.5,0.7,0.6,1.1c0.2,0.6,0.1,1.2,0.2,1.8
				c0.2,0.6,0.3,1.1,0.2,1.7c-0.1,0.6-0.9,0.5-1.2,0.8c-0.5,0.2-0.7,0.7-1.1,1c-0.2,0.5-0.3,1.1-0.3,1.6c0,0.4-0.3,0.9,0,1.3
				c0,0.1,0.1,0.1,0.1,0.2c0.1,0.1,0.3,0,0.5,0.1c0.5,0,1,0,1.5-0.2c1.2-0.2,2.4-0.2,3.7-0.3c0.7,0,1.5-0.2,2.2-0.2
				c0.6,0.1,0.9-0.5,0.8-1c-0.3-0.7,0-1.4-0.3-2.1c-0.2-0.7-0.1-1.4-0.2-2.1c0-0.5-0.7-0.8-1.1-0.3c-0.3,0.3-0.9,0.4-1.2,0.8
				c-0.3,0.6,0.6,0.6,0.8,1.1c0.2,0.5,0.1,1,0.2,1.5c0.1,0.6-0.5,0.6-0.9,0.7c-0.5,0.2-1.3,0.3-1.6-0.3c-0.2-0.5-0.2-1-0.2-1.5
				c0-0.9-0.2-1.8-0.3-2.7c-0.1-1.1-0.2-2.2-0.3-3.3C462.5,376.3,462.5,375.6,461.8,375.7L461.8,375.7z M461.2,383.9l0.3,0l0,0.4
				l0,0.4l-0.4,0.1c-0.2,0.1-0.4,0.1-0.4,0.1c0,0-0.1-0.1-0.2-0.1c-0.2-0.2-0.2-0.4,0.1-0.7C460.9,384,461,383.9,461.2,383.9
				L461.2,383.9z"/>
			<path class="st3" d="M431.2,374.7c-0.4,0.1-0.9,0.7-1.2,0.7c-0.9,0.1-0.8,0.9-0.1,1.2c0.1,0.3,0,0.6,0,0.9
				c0.1,0.8-0.4,1.4-0.3,2.2c0,0.9-0.3,1.7-0.3,2.6c-0.2,0.9-0.2,1.8-0.4,2.8c-0.1,0.8-0.7,0.5-1.2,0.3c0-0.4,0-0.7,0-1.1
				c0.2-0.8-0.4-1.1-1.1-1.2c-0.7,0.1-1-0.5-0.9-1.1c0.3-0.4,1-0.3,1.5-0.3c1,0.2,0.9-1.1,0.4-1.6c-0.3-0.6-1.2-0.9-1.4-1.6
				c0.1-0.9-0.5-1.7-1.2-2.2c-1.1-0.1-1.9,0.9-2.3,1.8c-0.5,0.1-0.9,0.3-1.3,0.4c-0.7,0.2-1.7,1.4-0.8,1.9c0.5,0.1,2.2,0.5,1.5,1.3
				c-0.4,0.7-1.2,0.7-1.9,0.5c-0.7,0-1.5-0.4-1.5-1.2c-0.1-0.7-0.1-1.6-0.5-2.2c-0.1-0.8-1.1-0.6-1.2,0.1c-0.7,0.5-0.6,1.4-0.1,2
				c0.3,0.7,0,1.6-0.3,2.2c-0.2,0.9-1.2,0.9-1.8,1.2c-0.3,0.1-1.6-0.1-1.2,0.7c0.8,0.3,1.7,0.5,2.4,0.3c0.8-0.1,1.5-0.7,1.9-1.4
				c0.6-0.6,1.5-0.3,2.2-0.3c0.8,0,1.6,0.5,2.3,0.2c0.2-0.6,1.2-1.5,1.5-0.5c-0.1,0.9,0.7,1.3,1.5,1.2c0.9,0,0.5,0.6,0.5,1.1
				c0.1,0.9,0.7,1.4,1.4,1.8c0.3,0.1,0.5,0,0.8,0c0.7-0.2,1.6-0.6,1.8-1.4c0.3-0.7,0.3-1.5,0.5-2.2c0.2-1.1,0.4-2.3,0.4-3.4
				c0.3-1,0.2-2.1,0.4-3.2c0.1-0.8,0.2-1.6,0.3-2.3C431.7,374.6,431.5,374.6,431.2,374.7L431.2,374.7z M424.5,378.8
				c0.2,0,0.2,0.2,0.2,0.5c0,0.4,0.2,0.7,0.4,0.7c0.2,0,0.2,0.2,0,0.4c-0.1,0.1-0.3,0.1-0.7,0.1c-0.6,0-0.9-0.2-1.2-0.5l-0.2-0.2
				l0.3-0.2c0.1-0.1,0.4-0.3,0.6-0.5C424.1,378.9,424.3,378.8,424.5,378.8L424.5,378.8z"/>
			<path class="st3" d="M490.5,370.9c-0.6,0-1.1,0.1-1.7,0.2c-1-0.1-1.6,1-0.6,1.6c0.6,1.5,1.5-0.3,2.5-0.2c1.4,0.3,1.6,1.8,1.8,3
				c0.1,1.2,0.4,2.3,0.8,3.4c1,1.1-0.7,1.7-1.4,0.9c-0.6-0.7-1.9-1.5-2.7-0.6c-0.9,0.4-0.9,1.6-1.7,1.9c-1.2,0.4-1.4-1.1-2-1.8
				c-0.6-0.8-1.7-0.9-2.6-1.2c-0.4-0.9-0.2-2.3-1.1-2.9c-0.7,0.3-2.1,1.7-1,2.3c1.1,1-0.5,1.4-1,2.1c-0.7,0.8-0.8,1.9-1,3
				c-1.3,0.7-1.5-0.8-1.7-1.7c-0.1-1.1-1-0.8-1.7-0.4c-1,0.4-1.4,1.3-2.1,2c-0.1,0.6,0,1.4,0,2c0.2,0.8,1.2,0.4,1.8,0.4
				c1-0.4,1.4,0.6,0.6,1.2c-0.5,0.7-2.2,0.3-2.1,1.4c0.5,0.1,1.1,0,1.7,0c1.1-0.3,2.3-1.1,2.4-2.3c0.1-1.1,1.7-0.9,2.5-1.1
				c1-0.3,2.3-0.4,2.5,0.9c0.7,0.7,2.2,1.6,3,0.6c0.8-0.5,1.2-1.3,1.1-2.2c-0.2-0.8,1.3-0.8,1.6-0.4c0.5,0.9,2.2,0.6,2.9,0.1
				c0.8-0.6,1-1.7,2.2-1.7c1.8-0.5,3.6-0.8,5.4-1.5c1.4-0.3-0.2-1.2-0.6-1.7c-1.1-0.5-2,1.6-3.2,0.6c-0.9-0.7-0.9-2.1-1.2-3.1
				c-0.2-1.4-0.2-2.9-1.2-4C492.4,371.1,491.4,370.9,490.5,370.9L490.5,370.9z M483.7,380.4c0.1,0,0.3,0.1,0.5,0.2
				c0.4,0.2,0.8,0.6,0.8,1c0,0.2-0.1,0.2-0.4,0.4c-0.2,0.1-0.4,0.2-0.5,0.2c-0.2,0-0.6-0.4-0.6-0.5c0-0.1-0.1-0.3-0.1-0.5
				c-0.1-0.3-0.1-0.3,0.1-0.5C483.5,380.5,483.6,380.4,483.7,380.4z M490.2,380.8c0.4,0,0.6,0.1,0.8,0.4c0.2,0.3,0.1,0.6-0.4,0.8
				c-0.2,0.1-0.4,0.2-0.4,0.2c0,0-0.2-0.1-0.4-0.2c-0.3-0.2-0.3-0.3-0.3-0.5C489.4,381.1,489.8,380.8,490.2,380.8z M481.3,380.8
				c0.1,0,0.2,0,0.3,0.2c0.2,0.2,0.2,0.3,0.3,0.6c0,0.2,0,0.5,0,0.6c0,0.2-0.1,0.2-0.6,0.2c-0.6,0-0.7-0.1-0.7-0.7
				c0-0.4,0-0.5,0.2-0.7C481,380.9,481.2,380.9,481.3,380.8z M475.8,382.3c0.2,0,0.4,0.2,0.4,0.4c0.1,0.3,0,0.5-0.2,0.6
				c-0.2,0.1-0.7,0.2-0.9,0.1c0,0-0.1-0.1-0.2-0.2c-0.1-0.1-0.1-0.2,0-0.2c0.1,0,0.1-0.1,0.1-0.2s0.1-0.2,0.2-0.3
				C475.4,382.3,475.6,382.2,475.8,382.3L475.8,382.3z M485,383.5c0.2,0,0.3,0.1,0.4,0.2c0.2,0.2,0.2,0.4,0,0.6
				c-0.1,0.1-0.9,0.1-1.1,0c-0.1,0-0.2-0.1-0.2-0.2c0-0.1,0-0.2,0.3-0.3C484.6,383.5,484.9,383.5,485,383.5L485,383.5z"/>
			<path class="st3" d="M467.9,388.3c-0.1-0.1-0.2-0.1-0.1-0.2c0.2-0.3,0.5-0.4,0.8-0.5c0.5-0.2,1-0.6,1.4-1.1
				c0-0.3,0.4-0.5,0.4-0.9c0-0.5,0-1-0.1-1.4c-0.1-0.4-0.5-0.8-0.8-1c-0.3-0.2-0.7-0.3-0.8-0.6c-0.1-0.3,0.3-0.6,0.4-0.9
				c0.2-0.4,0.4-0.9,0.7-1.3c0.3-0.3,0.7,0,0.8,0.3c0.2,0.3,0.4,0.6,0.5,0.9c0.3,0.3,0.6,0.7,0.7,1.2c0.1,0.3,0.4,0.6,0.4,1
				c0,0.4,0.2,0.8,0.2,1.2c0,0.6,0,1.1-0.2,1.7c-0.1,0.3-0.4,0.5-0.6,0.7c-0.3,0.3-0.7,0.6-1.1,0.7c-0.3,0.1-0.5,0.4-0.8,0.3
				c-0.5,0-1,0.1-1.5,0C468,388.4,467.8,388.3,467.9,388.3L467.9,388.3z"/>
			<path class="st3" d="M461,388.7c-0.2-0.2-0.3-0.4-0.3-0.6c0-0.2,0-0.3,0.3-0.6c0.4-0.4,0.7-0.5,1.4-0.1c0.7,0.4,1,0.4,1,0.1
				c0.1-0.3,0.5-0.5,0.9-0.5c0.3,0,0.4,0,0.6,0.2c0.3,0.2,0.3,0.2,0.3,0.7c0,0.5,0,0.5-0.3,0.7c-0.3,0.2-0.3,0.3-0.7,0.2
				c-0.4,0-0.7-0.2-0.8-0.6c-0.1-0.2-0.1-0.3-0.2-0.1c0,0.1-0.1,0.1-0.2,0.1c-0.2,0.1-0.5,0.3-0.8,0.5c-0.1,0.1-0.3,0.1-0.5,0.1
				C461.3,389,461.3,389,461,388.7L461,388.7z"/>
			<path class="st3" d="M441.2,379.8c-0.7,0-1.4,0.6-1.5,1.2c0.2,0.8,0.8,1.5,0.4,2.3c0.3,1-0.8,1.4-1.5,0.8c-0.4-1-0.6-2-1.3-2.9
				c-0.8-0.2-1.2,1.1-1.7,1.5c0.3,0.8,1.1,1.4,1.2,2.4c0.2,0.9-0.4,1.9-1.2,2.4c-0.7,0.7-1.6,0.4-2.5,0.6c-1,0.6,0.8,0.8,1.2,0.8
				c1,0.1,2.1,0,2.9-0.8c0.8-0.4,0.7-1.7,1.6-1.8c1.6-0.1,3.2,0.2,4.8,0.3c0.8,0.2,2.2-0.1,2.8,0.5c0,1.1,0.9,1.8,1.8,2.2
				c0.5,0.1,1-0.5,1.5-0.6c1-0.3,0.7-1.5,1.2-2c1.7-0.1,3.3-0.1,5-0.1c0.3,0,0.4-0.4,0.6-0.6c0-0.6-0.1-1.3-0.2-1.9
				c-0.3-0.8,0.1-1.8-0.5-2.5c-0.8-0.2-1.5,0.5-2.4,0.6c-0.9,0.4-1.7,1.3-1.8,2.3c-0.5,0.9-1.4-0.2-1.1-0.9c0-0.3,0.1-0.7,0-1
				c-0.5-0.6-1.4-0.4-2.1-0.5c-1,0-2-0.2-3-0.2c-0.9-0.1-1.8,0.1-2.7-0.2c-1,0-0.9-1-1.1-1.8C441.6,379.9,441.4,379.8,441.2,379.8
				L441.2,379.8z M443.2,383.5c0.3,0,0.7,0.1,1,0.1c0.4,0.1,0.9-0.1,1.3,0c1,0.2,2,0.1,2.9,0.2c0.3,0,0.4,0.2,0.6,0.3
				c0,0.7,0,1.4,0,2.1c0,0.3,0.1,0.6-0.2,0.8c-0.1,0.1-0.2,0.1-0.2,0.1c-0.3-0.1-0.6-0.2-0.7-0.5c0-0.4,0-0.7,0-1.1
				c0-0.1,0-0.2,0-0.3c-0.2-0.2-0.5-0.2-0.7-0.2c-0.8,0-1.7-0.1-2.5-0.1c-0.7,0-1.4,0.1-2.1-0.1c-0.3-0.1-0.6-0.1-0.8-0.3
				c-0.2-0.3,0.1-0.6,0.3-0.7C442.5,383.6,442.8,383.5,443.2,383.5L443.2,383.5z M454.5,383.8c0.2,0,0.2,0,0.3,0.3
				c0,0.2,0.1,0.4,0.1,0.5c0,0.1,0,0.2-0.2,0.2c-0.5,0.2-1,0.2-1.2-0.1c-0.1-0.1,0-0.4,0.2-0.6C454,384,454.3,383.8,454.5,383.8
				L454.5,383.8z"/>
		</g>
	</g>
	<path class="st10" d="M450,327.2c32.6-25.1,29.8-61.9,29.8-61.9c-0.9,0.2-1.7,0.3-2.5,0.3c-6.8,0-23.2-3.9-27-8.9
		c-4.1,4.5-20.8,8.9-27.6,8.9c-0.9,0-1.7-0.1-2.5-0.3C420.2,265.3,417.3,302.1,450,327.2L450,327.2z"/>
	<path class="st11" d="M477.2,268c-0.3,0-0.6,0-0.8,0c-6.2,0-20.6-3.2-26.2-8c-5.8,4.4-20.5,8-26.6,8c-0.3,0-0.6,0-0.8-0.1
		c0,1.4,0.1,2.8,0.1,4.1c0.3,4.9,1.2,9.8,2.5,14.6c4.1,14.9,12.5,27.6,24.6,37.2c12.1-9.6,20.5-22.3,24.6-37.2
		c1.3-4.7,2.2-9.6,2.5-14.5C477.2,270.8,477.2,269.4,477.2,268L477.2,268z"/>
	<path class="st3" d="M439.4,265c-5.9,1.8-12.2,3-15.8,3c-0.3,0-0.6,0-0.8-0.1c0,1.4,0.1,2.8,0.2,4.2c0.3,4.9,1.2,9.8,2.5,14.5
		c2.8,10,7.5,19,14,26.8L439.4,265L439.4,265z"/>
	<path class="st3" d="M460,264.9v49.2c6.8-7.9,11.7-17.2,14.6-27.6c1.3-4.7,2.1-9.6,2.5-14.5c0.1-1.3,0.2-2.7,0.2-4.1
		c-0.3,0-0.6,0-0.8,0C472.6,268.1,466,266.9,460,264.9L460,264.9z"/>
	<g>
		<path class="st12" d="M462.3,253.1c0.7,0-0.9-3.6-0.9-3.6c1.8,1.8,8.4,2.2,8.4,2.2c-4-1.8-8-15.1-7.5-25.7
			c0.4-10.7-1.5-14.9-3.1-16.4c-2-2-8.4-3.8-12.7-4c-2.4-0.1-2,1.8-2,1.8c-4.4-1.1-8.9-1.6-10.9-0.2c-1.9,1.3-2.3,7.5-0.9,6.4
			c3.3-2.7,6.2-0.2,8.2,2.7c1.8,2.5,1.6,9.8-0.9,18.2c-2.7,8.9-10,17.7-10,17.7c4,0,9.5-3.5,9.5-3.5l-1.3,5.5c4.2-2,7.5-5.1,7.5-5.1
			l4,4.2c1.3-1.8,4-4.2,4-4.2S457.2,252.6,462.3,253.1L462.3,253.1z"/>
		<path class="st13" d="M446.1,227.6c0,0-2.2,16.4-6.4,21.1"/>
		<path class="st13" d="M449.6,227.1c0,0-0.9,16.6-3.8,22"/>
		<path class="st13" d="M452.8,227.8c0,0,0,18.2,1.1,21.3"/>
		<path class="st13" d="M456.7,228.7c0,0,0.9,15.3,4.7,20.8"/>
		<path class="st14" d="M442.1,219.6c-0.2-1.5-0.5-2.6-1.1-3.3c-2-2.9-4.9-5.3-8.2-2.7c0,0,1.1-3.5,3.6-3.6c1.9-0.1,6.2,1.4,9.9,7.8
			c0,0-2.8-0.6-3.5,0C441.6,218.9,442.1,219.6,442.1,219.6L442.1,219.6z"/>
		<path class="st14" d="M432.4,209.3c0.3-0.9,0.7-1.7,1.3-2.1c2-1.3,6.4-0.9,10.9,0.2c0,0-0.4-1.9,2-1.8c4.2,0.2,10.7,2,12.7,4
			c0.5,0.5,1,1.3,1.5,2.4h-0.1c-1-1.4-3.8-1.3-4.4-1.2c-1.1,0.1-1.7,0.1-3.1,0.4c-0.7,0.2-1.7,0.4-2.2,0.8c-0.4,0.4-0.8,1.6-1.5,1.6
			c-1.1,0-1-0.3-1.3-0.6c-0.4-0.4-0.5-1.1-0.9-1c-1.1,0.2-2.9-0.7-5.1-2.4c-2.2-1.8-3.1-2.2-6-2c-2.9,0.2-3.8,1.8-3.8,1.8
			L432.4,209.3L432.4,209.3z"/>
		<circle class="st0" cx="448.8" cy="210.7" r="1.2"/>
	</g>
</g>
</svg>
