<?xml version="1.0" encoding="utf-8"?>
<!-- Generator: Adobe Illustrator 21.0.0, SVG Export Plug-In . SVG Version: 6.00 Build 0)  -->
<svg version="1.1" id="Layer_1" xmlns="http://www.w3.org/2000/svg" xmlns:xlink="http://www.w3.org/1999/xlink" x="0px" y="0px"
	 viewBox="0 0 625 400" style="enable-background:new 0 0 625 400;" xml:space="preserve">
<style type="text/css">
	.st0{fill:#032EA1;}
	.st1{fill:#E00025;}
	.st2{fill:#FFFFFF;stroke:#000000;stroke-width:0.96;stroke-linejoin:bevel;}
	.st3{fill:#FFFFFF;stroke:#000000;stroke-width:0.9455;stroke-linejoin:bevel;}
	.st4{fill:#FFFFFF;stroke:#000000;stroke-width:0.96;}
	.st5{fill:#FFFFFF;stroke:#000000;stroke-width:0.981;}
	.st6{fill:none;stroke:#000000;stroke-width:0.8;}
	.st7{fill:none;stroke:#000000;stroke-width:0.96;}
	.st8{fill:#FFFFFF;stroke:#000000;stroke-width:1.0337;stroke-linejoin:bevel;}
	.st9{fill:#FFFFFF;stroke:#000000;stroke-width:1.0446;}
	.st10{fill:#FFFFFF;stroke:#000000;stroke-width:1.0429;}
</style>
<rect class="st0" width="625" height="400"/>
<rect y="100" class="st1" width="625" height="200"/>
<g transform="translate(117.14286,-434.9336)">
	<g>
		<path class="st2" d="M139,623.5h113.8v43.8H139V623.5z"/>
		<rect x="246.9" y="647.6" class="st2" width="3.6" height="16.5"/>
		<rect x="139" y="639.5" class="st2" width="113.8" height="5.1"/>
		<rect x="139" y="632.6" class="st2" width="113.8" height="4.5"/>
		<rect x="139" y="625.7" class="st3" width="113.8" height="4.4"/>
		<rect x="169" y="647.6" class="st2" width="3.6" height="16.5"/>
		<rect x="218" y="647.6" class="st2" width="3.6" height="16.5"/>
		<rect x="139.9" y="647.6" class="st2" width="3.6" height="16.5"/>
		<rect x="146.9" y="647.6" class="st2" width="3.6" height="16.5"/>
		<rect x="154.4" y="647.6" class="st2" width="3.6" height="16.5"/>
		<rect x="161.9" y="647.6" class="st2" width="3.6" height="16.5"/>
		<rect x="224.8" y="647.6" class="st2" width="3.6" height="16.5"/>
		<rect x="232.3" y="647.6" class="st2" width="3.6" height="16.5"/>
		<rect x="239.8" y="647.6" class="st2" width="3.6" height="16.5"/>
		<path class="st4" d="M94.5,669.5c1.8-0.9,3.8-3,4.4-5.3H292c0.7,2.3,2.7,4.4,4.4,5.3H94.5z"/>
	</g>
	<g>
		<g>
			<path class="st4" d="M193,556.8c0,0-0.1-4.1,2.3-4.2c2.4,0,2.3,4.2,2.3,4.2H193z"/>
			<path class="st4" d="M180.5,611.3v-5.5c-0.1-2.8-2.8-3-2.8-5c0,0-0.3-3,0.5-4.4c1.1,4,3.1,3.3,3.1,1.6c0-1.5-1.1-2.8-3.4-6.3
				c-0.7-1.1-0.3-4.7,0.7-5.9c0.4,3.1,0.9,4.5,2.2,4.5c0.8,0,1.5-0.5,1.5-2.1c0-2-1.3-2.9-2-4.7c-0.8-2.1-0.2-4.2,1-5.4
				c0.5,3,0.4,4.2,1.7,4.2c2.7-0.9,0-4.8-0.6-5.8c-0.7-1.2,0.9-3.5,0.9-3.5c0.9,2.7,1.1,2.9,2.1,2.7c1.2-0.3,1-2.1-0.4-3.5
				c-0.9-0.9-0.8-2.2,0.2-3.3c1,1.9,2.2,1.8,2.3,0.7l-0.8-4.4h17.3l-0.9,4.2c-0.2,1.2,1.4,1.5,2.4-0.5c1,1.1,1.1,2.4,0.2,3.3
				c-1.4,1.4-1.6,3.1-0.4,3.5c0.9,0.2,1.2,0,2.1-2.7c0,0,1.4,1.6,0.9,3.5c-0.6,1-3.3,4.9-0.6,5.8c1.3,0,1.2-1.2,1.7-4.2
				c1.3,1.2,1.8,3.3,1,5.4c-0.7,1.8-2,2.8-2,4.7c0,1.5,0.7,2.1,1.5,2.1c1.3,0,1.8-1.5,2.2-4.5c1,1.3,1.5,4.8,0.7,5.9
				c-2.3,3.5-3.4,4.9-3.4,6.3c0,1.7,2,2.4,3.1-1.6c0.8,1.4,0.5,4.4,0.5,4.4c-0.1,2-2.8,2.2-2.8,5v5.5L180.5,611.3z"/>
			<path class="st4" d="M187.7,565.3l-0.4-3.1h15.8l-0.4,3.1H187.7z"/>
			<path class="st4" d="M188.8,562.1l-0.3-2.6h13.6l-0.3,2.6H188.8z"/>
			<path class="st4" d="M190.9,559.5l-0.2-2.6h9.1l-0.2,2.6H190.9z"/>
			<path class="st4" d="M224,669.5c-2-0.8-5-2.9-5-5.1v-24.3l2.6-3.4l-52.8,0l2.5,3.4v24.3c0,2.2-2,4.3-4.1,5.1L224,669.5z"/>
			<rect x="178.2" y="647.6" class="st2" width="3.6" height="16.5"/>
			<rect x="208.6" y="647.6" class="st2" width="3.6" height="16.5"/>
			<path class="st4" d="M167.9,609.2v14.6v7v6h54v-6l0.1-21.7c-2.2,0.9-2.6,2.9-2.6,2.9v11.8h-48.8V612
				C170.7,612,170.1,610,167.9,609.2L167.9,609.2z"/>
			<path class="st4" d="M214.6,669.5c-1.8-0.8-5.6-2.9-5.6-5.1v-27.2c0.4-1.5,2.4-2.4,3.8-3.4h-35.8c1.7,0.9,3.6,1.7,4.3,3.4v27.2
				c0,2.2-3,4.3-4.8,5.1H214.6z"/>
			<path class="st4" d="M219.4,634.2l0-19.6l-4.9,0v-1.9h-38.8v1.9l-4.9,0l0,19.6L219.4,634.2z"/>
			<path class="st4" d="M206.9,669.5c-1.7-0.8-4.2-2.9-4.2-5.1v-23.2l1.4-2.1h-17.7l1.4,2.1v23.2c0,2.2-2.5,4.3-4.2,5.1L206.9,669.5
				z"/>
			<path class="st5" d="M190.7,639.2l9,0v30.4h-9V639.2z"/>
			<path class="st2" d="M204.4,632.5c0-2,5.8-2.1,8.8-3.8h-36c3,1.7,8.7,1.8,8.7,3.8l1.2,3.9L202,637L204.4,632.5z"/>
			<path class="st4" d="M211.4,611.3c0-4.9,0.2-6.8,1.7-6.8l0,15.6c-3.7,1.3-6.3,6-6.3,6l-23.2,0c0,0-2.6-4.7-6.3-6v-15.6
				c1.9,0,1.9,2,1.9,6.8H211.4z"/>
			<path class="st4" d="M213.1,609.3c0-5.6,4.9-6.3,4.9-6.3v5c-1.8-0.1-2.7,1.6-2.7,4c0,2.5,1.5,2.5,1.5,2.5v14.2h-3.6V609.3z"/>
			<path class="st4" d="M177.3,609.3c0-5.6-4.9-6.3-4.9-6.3v5c1.8-0.1,2.7,1.6,2.7,4c0,2.5-1.5,2.5-1.5,2.5v14.2h3.6V609.3z"/>
		</g>
		<g>
			<path class="st6" d="M186.8,570.6H204"/>
			<path class="st6" d="M184.8,576h20.9"/>
			<path class="st6" d="M182.8,582.5h24.9"/>
			<path class="st6" d="M180.7,590.4h29.5"/>
			<path class="st6" d="M180,599.4h30.4"/>
			<path class="st7" d="M170.8,628.9h48.7"/>
			<rect x="186.2" y="628.9" class="st7" width="18" height="6.6"/>
		</g>
		<g>
			<path class="st4" d="M183.9,614.2c3,3.6,2.7,9.7,2.7,13.3H204c0-3.6-0.3-9.7,2.7-13.3H183.9z"/>
			<path class="st4" d="M193.7,573.1l-2.4-1.2v-3.5c1,0.3,2.1,0.4,2.2,2c0.3-2.2,0.9-2.1,1.9-3c1,0.9,1.6,0.8,1.9,3
				c0.1-1.5,1.2-1.7,2.2-2v3.5l-2.4,1.2H193.7z"/>
			<path class="st4" d="M193.5,578.8l-3.9-2.7v-3.2c1.4,0.3,2.9,0.5,3.1,2.1c0.5-2.4,1.4-3.7,2.7-4.6c1.4,0.9,2.2,2.2,2.7,4.6
				c0.2-1.7,1.7-1.8,3.1-2.1v3.2l-3.9,2.7H193.5z"/>
			<path class="st4" d="M193.2,587.8l-4.5-4v-4.7c1.6,0.5,3.4,0.7,3.6,3.2c0.6-3.6,1.6-5.4,3.1-6.8c1.6,1.4,2.6,3.2,3.1,6.8
				c0.2-2.5,2-2.7,3.6-3.2v4.7l-4.5,4H193.2z"/>
			<path class="st4" d="M201.6,593.1l-4.1,5.7h-4.6l-4.1-5.7H201.6z"/>
			<path class="st4" d="M186.4,602.6c2.1,1.1,2.8,3.4,3,7.6H201c0.2-4.2,1-6.4,3-7.6H186.4z"/>
			<path class="st2" d="M204.2,593.1v-5.7c-1.9,0.5-3.2,1.7-3.8,3.3c0-1.9-2.5-6.3-5.2-8.4c-2.7,2.4-5.3,6.4-5.2,8.4
				c-0.5-1.5-1.8-2.7-3.8-3.3v5.7L204.2,593.1z"/>
			<path class="st2" d="M205,602.6l0-5.7c-2.1,0.5-3.5,1.7-4.1,3.3c0-1.9-2.7-6.3-5.7-8.4c-3,2.4-5.8,6.4-5.7,8.4
				c-0.5-1.5-2-2.7-4.1-3.3v5.7L205,602.6z"/>
			<path class="st2" d="M207.4,614.3v-6.6c-2.7,0.7-4.3,2.7-5.1,3.8c0-3.6-4-9-7.1-10.8c-3.2,1.8-7.1,7.4-7.1,10.8
				c-0.9-1.1-2.5-3.1-5.1-3.8v6.6H207.4z"/>
			<path class="st2" d="M206,628.9v-6.8c-2.3,0.9-3,3.2-3.8,4.7c0.3-6.9-3.9-14.2-7-16.1c-3.2,1.9-7.4,9.4-7,16.1
				c-0.8-1.5-1.4-3.8-3.8-4.7v6.8L206,628.9z"/>
			<path class="st4" d="M204.4,639.2v-6.8c-2.5,0.6-2.6,1.5-3.4,3c0.3-4.1-2.6-8.8-5.8-10.6c-3.2,1.9-6.1,6.5-5.8,10.6
				c-0.8-1.5-0.9-2.4-3.4-3v6.8H204.4z"/>
		</g>
	</g>
	<g id="tower">
		<g>
			<path class="st4" d="M98.9,664.2v-20.4c-0.7-2.6-2.9-4.9-4.5-5.4v-18l3.7,2l4.3,18.8v23L98.9,664.2z"/>
			<path class="st4" d="M98.9,664.3v-20.5c-0.7-2.6-2.9-4.9-4.5-5.4v-19.2c2.5,0,3.7,3.3,3.7,3.3l4.3,18.8v22.9L98.9,664.3z"/>
			<path class="st4" d="M96.3,669.5c1.7-0.8,4.2-2.9,4.2-5.1v-25.5l-1.2-2.1h43.5l-1.7,2.1v25.5c0,2.2,1.7,4.3,3.5,5.1H96.3z"/>
			<path class="st4" d="M135.8,669.5c-1.7-0.8-4.2-2.9-4.2-5.1v-24.3l3.6-3.4l-29.6,0l3.6,3.4v24.3c0,2.2-2.5,4.3-4.2,5.1
				L135.8,669.5z"/>
			<path class="st4" d="M131.7,669.5c-1.7-0.8-4.2-2.9-4.2-5.1v-22l2.4-3.4H111l2.4,3.4v22c0,2.2-2.5,4.3-4.2,5.1H131.7z"/>
			<path class="st4" d="M115.9,639.2l9,0l0,30.4h-9L115.9,639.2z"/>
			<rect x="103.7" y="647.6" class="st2" width="3.6" height="16.5"/>
			<rect x="134.4" y="647.6" class="st2" width="3.6" height="16.5"/>
			<path class="st2" d="M100.6,619.8h4.3v16.9h-4.3V619.8z"/>
			<path class="st2" d="M100.6,616.6h4.3v3.1h-4.3V616.6z"/>
			<path class="st8" d="M136.2,623.5h6.2v13.1h-6.2V623.5z"/>
			<path class="st4" d="M104.9,636.6v-28.9c1.2,0,1.4,4.2,4.2,4.2c1.5,0,1.3-1.8,0.5-3.2c-0.7-1.3-1.6-3-0.4-6.3
				c0.8,2.5,3.1,3.3,2.7,1.7c-0.7-2.7-2.8-3.1-1.2-7.3c0.5,3.5,2.8,3.3,2.2,1.3c-0.6-2.3-1.9-3.2-0.3-6.4c0.9,3.6,2.1,3.4,2.1,1.2
				c0-3.3-0.1-7,4.2-8.3c0,0,0.3-3.1,1.8-3.1s1.8,3.1,1.8,3.1c4.3,1.3,4.2,4.9,4.2,8.3c0,2.3,1.2,2.5,2.1-1.2
				c1.6,3.2,0.3,4.1-0.3,6.4c-0.5,2,1.7,2.2,2.2-1.3c1.6,4.2-0.5,4.6-1.2,7.3c-0.4,1.6,1.8,0.8,2.7-1.7c1.2,3.3,0.3,5-0.4,6.3
				c-0.8,1.4-1,3.2,0.5,3.2c2.8,0,3-4.2,4.2-4.2v28.9H104.9z"/>
			<path class="st4" d="M98.1,614.7l0,22.1h2.5l0-22.1C99.7,614.2,98.9,614.2,98.1,614.7L98.1,614.7z"/>
			<path class="st4" d="M98.2,629c3.1,1.6,6.2,3.4,7,7.8h-7V629z"/>
			<path class="st4" d="M141.4,622.4l0,14.4h2v-14.4C142.8,622.1,141.9,622,141.4,622.4L141.4,622.4z"/>
			<path class="st4" d="M143.4,628.9c-3.1,1.6-6.2,3.4-7,7.8h7V628.9z"/>
		</g>
		<g>
			<path class="st4" d="M122.8,595.3l1.8-1.5v-2c-0.7,0.1-1,0.3-1.5,0.9c-0.4-1.3-1.3-2.3-2.6-2.9c-1.2,0.6-2.1,1.6-2.6,2.9
				c-0.5-0.6-0.9-0.8-1.5-0.9v2l1.8,1.5H122.8z"/>
			<path class="st4" d="M123.8,600.2l0.8-1.8v-2.5c-0.7,0.1-1,0.3-1.5,0.9c-0.4-1.3-1.3-2.3-2.6-3c-1.2,0.6-2.1,1.6-2.6,2.9
				c-0.5-0.7-0.9-0.8-1.5-0.9v2.5l0.8,1.8L123.8,600.2z"/>
			<path class="st4" d="M123.9,606.8l2.7-3.3v-3.2c-1,0.1-1.5,0.5-2.3,1.6c-0.6-2.2-2-2.7-3.8-3.8c-1.8,1.1-3.2,1.5-3.8,3.7
				c-0.7-1.1-1.3-1.4-2.3-1.5v3.2l2.7,3.3H123.9z"/>
			<path class="st4" d="M124.7,613.3c0,0,3.1-2.7,3.3-4.2v-3.5c-1.2,0.1-2.4,0.5-3.3,1.9c-0.8-2.9-2-3.7-4.2-5.1
				c-2.3,1.4-3.4,2.2-4.2,5.1c-0.9-1.4-2.1-1.7-3.3-1.9v3.5c0.4,1.5,3.3,4.2,3.3,4.2H124.7z"/>
			<path class="st4" d="M126.1,625.3c0,0,4.3-4.8,4.4-6.6v-5.4c-1.6,0.2-3.1,1.3-4.3,3.6c-1-4.5-2.6-7.6-5.6-9.8
				c-3,2.2-4.6,5.3-5.6,9.8c-1.2-2.2-2.7-3.3-4.3-3.6v5.4c0.3,1.9,4.4,6.6,4.4,6.6H126.1z"/>
			<path class="st4" d="M126.1,632.4c0,0,3.7-3.7,4.4-5.4v-5.4c-1.6,0.2-3.1,1.3-4.3,3.6c-1-4.5-2.6-7-5.6-9.2
				c-3,2.2-4.6,4.7-5.6,9.2c-1.2-2.2-2.7-3.3-4.3-3.6v5.4c0.9,1.6,4.4,5.4,4.4,5.4H126.1z"/>
			<path class="st4" d="M127.5,636.6c-1.1-4.7-2-8.1-7.2-11.6c-5.2,3.5-6.1,7-7.2,11.6H127.5z"/>
			<path class="st4" d="M130.2,639.2v-6.8c-2.3,0.9-4.5,2.3-5.2,3.8c-0.9-3.8-2.6-5.4-4.7-7.7c-2.1,2.3-3.5,3.9-4.4,7.7
				c-0.8-1.5-2.9-2.9-5.2-3.8l0,6.8L130.2,639.2z"/>
		</g>
	</g>
	<g transform="matrix(-1,0,0,1,390.73979,0)">
		<g id="tower_1_">
			<g>
				<path class="st4" d="M291.8,664.2v-20.4c0.7-2.6,2.9-4.9,4.5-5.4v-18l-3.7,2l-4.3,18.8v23L291.8,664.2z"/>
				<path class="st4" d="M291.8,664.3v-20.5c0.7-2.6,2.9-4.9,4.5-5.4v-19.2c-2.5,0-3.7,3.3-3.7,3.3l-4.3,18.8v22.9L291.8,664.3z"/>
				<path class="st4" d="M294.5,669.5c-1.7-0.8-4.2-2.9-4.2-5.1v-25.5l1.2-2.1h-43.5l1.7,2.1v25.5c0,2.2-1.7,4.3-3.5,5.1H294.5z"/>
				<path class="st4" d="M254.9,669.5c1.7-0.8,4.2-2.9,4.2-5.1v-24.3l-3.6-3.4l29.6,0l-3.6,3.4v24.3c0,2.2,2.5,4.3,4.2,5.1
					L254.9,669.5z"/>
				<path class="st4" d="M259,669.5c1.7-0.8,4.2-2.9,4.2-5.1v-22l-2.4-3.4h18.8l-2.4,3.4v22c0,2.2,2.5,4.3,4.2,5.1H259z"/>
				<path class="st4" d="M274.8,639.2l-9,0v30.4h9L274.8,639.2z"/>
				<rect x="283.5" y="647.6" class="st2" width="3.6" height="16.5"/>
				<rect x="252.7" y="647.6" class="st2" width="3.6" height="16.5"/>
				<path class="st2" d="M290.1,619.8h-4.3v16.9h4.3V619.8z"/>
				<path class="st2" d="M290.1,616.6h-4.3v3.1h4.3V616.6z"/>
				<path class="st8" d="M254.6,623.5h-6.2v13.1h6.2V623.5z"/>
				<path class="st4" d="M285.8,636.6v-28.9c-1.2,0-1.4,4.2-4.2,4.2c-1.5,0-1.3-1.8-0.5-3.2c0.7-1.3,1.6-3,0.4-6.3
					c-0.8,2.5-3.1,3.3-2.7,1.7c0.7-2.7,2.8-3.1,1.2-7.3c-0.5,3.5-2.8,3.3-2.2,1.3c0.6-2.3,1.9-3.2,0.3-6.4c-0.9,3.6-2.1,3.4-2.1,1.2
					c0-3.3,0.1-7-4.2-8.3c0,0-0.3-3.1-1.8-3.1c-1.6,0-1.8,3.1-1.8,3.1c-4.3,1.3-4.2,4.9-4.2,8.3c0,2.3-1.2,2.5-2.1-1.2
					c-1.6,3.2-0.3,4.1,0.3,6.4c0.5,2-1.7,2.2-2.2-1.3c-1.6,4.2,0.5,4.6,1.2,7.3c0.4,1.6-1.8,0.8-2.7-1.7c-1.2,3.3-0.3,5,0.4,6.3
					c0.8,1.4,1,3.2-0.5,3.2c-2.8,0-3-4.2-4.2-4.2v28.9H285.8z"/>
				<path class="st4" d="M292.6,614.7l0,22.1h-2.5l0-22.1C291,614.2,291.9,614.2,292.6,614.7L292.6,614.7z"/>
				<path class="st4" d="M292.5,629c-3.1,1.6-6.2,3.4-7,7.8h7V629z"/>
				<path class="st4" d="M249.4,622.4l0,14.4h-2v-14.4C248,622.1,248.8,622,249.4,622.4L249.4,622.4z"/>
				<path class="st4" d="M247.3,628.9c3.1,1.6,6.2,3.4,7,7.8h-7V628.9z"/>
			</g>
			<g>
				<path class="st4" d="M267.9,595.3l-1.8-1.5v-2c0.7,0.1,1,0.3,1.5,0.9c0.4-1.3,1.3-2.3,2.6-2.9c1.2,0.6,2.1,1.6,2.6,2.9
					c0.5-0.6,0.9-0.8,1.5-0.9v2l-1.8,1.5H267.9z"/>
				<path class="st4" d="M266.9,600.2l-0.8-1.8v-2.5c0.7,0.1,1,0.3,1.5,0.9c0.4-1.3,1.3-2.3,2.6-3c1.2,0.6,2.1,1.6,2.6,2.9
					c0.5-0.7,0.9-0.8,1.5-0.9v2.5l-0.8,1.8L266.9,600.2z"/>
				<path class="st4" d="M266.8,606.8l-2.7-3.3v-3.2c1,0.1,1.5,0.5,2.3,1.6c0.6-2.2,2-2.7,3.8-3.8c1.8,1.1,3.2,1.5,3.8,3.7
					c0.7-1.1,1.3-1.4,2.3-1.5v3.2l-2.7,3.3H266.8z"/>
				<path class="st4" d="M266,613.3c0,0-3.1-2.7-3.3-4.2v-3.5c1.2,0.1,2.4,0.5,3.3,1.9c0.8-2.9,2-3.7,4.2-5.1
					c2.3,1.4,3.4,2.2,4.2,5.1c0.9-1.4,2.1-1.7,3.3-1.9v3.5c-0.4,1.5-3.3,4.2-3.3,4.2H266z"/>
				<path class="st4" d="M264.7,625.3c0,0-4.3-4.8-4.4-6.6v-5.4c1.6,0.2,3.1,1.3,4.3,3.6c1-4.5,2.6-7.6,5.6-9.8
					c3,2.2,4.6,5.3,5.6,9.8c1.2-2.2,2.7-3.3,4.3-3.6v5.4c-0.3,1.9-4.4,6.6-4.4,6.6H264.7z"/>
				<path class="st4" d="M264.7,632.4c0,0-3.7-3.7-4.4-5.4v-5.4c1.6,0.2,3.1,1.3,4.3,3.6c1-4.5,2.6-7,5.6-9.2c3,2.2,4.6,4.7,5.6,9.2
					c1.2-2.2,2.7-3.3,4.3-3.6v5.4c-0.9,1.6-4.4,5.4-4.4,5.4H264.7z"/>
				<path class="st4" d="M263.2,636.6c1.1-4.7,2-8.1,7.2-11.6c5.2,3.5,6.1,7,7.2,11.6H263.2z"/>
				<path class="st4" d="M260.5,639.2v-6.8c2.3,0.9,4.5,2.3,5.2,3.8c0.9-3.8,2.6-5.4,4.7-7.7c2.1,2.3,3.5,3.9,4.4,7.7
					c0.8-1.5,2.9-2.9,5.2-3.8l0,6.8L260.5,639.2z"/>
			</g>
		</g>
	</g>
	<g>
		<path class="st4" d="M72.7,694.2H318l0,12.5H72.7L72.7,694.2z"/>
		<path class="st4" d="M66.2,706.8h258.3l0,12.5H66.2L66.2,706.8z"/>
		<path class="st4" d="M85.6,675.5h219.6l0,8.1H85.6L85.6,675.5z"/>
		<path class="st4" d="M79.2,683.6h232.4l0,10.6H79.2L79.2,683.6z"/>
		<path class="st4" d="M89.4,669.3h211.9l0,6.2H89.4L89.4,669.3z"/>
		<path class="st9" d="M112.4,669.3h16v49.9h-16L112.4,669.3z"/>
		<path class="st10" d="M115.9,669.3h8.9v49.9H116L115.9,669.3z"/>
		<path class="st9" d="M187.1,669.3h16v49.9h-16L187.1,669.3z"/>
		<path class="st10" d="M190.7,669.3h8.9v49.9h-8.9L190.7,669.3z"/>
		<path class="st9" d="M262.2,669.3h16v49.9h-16V669.3z"/>
		<path class="st10" d="M265.7,669.3h8.9v49.9h-8.9L265.7,669.3z"/>
	</g>
	<g>
		<path class="st7" d="M98.9,664.2H292"/>
		<path class="st7" d="M115.8,713h9.2 M115.8,706.7h9.2 M115.8,700.5h9.2 M115.8,694.2h9.2 M115.8,688h9.2 M115.8,681.7h9.2
			 M115.8,675.5h9.2"/>
		<path class="st7" d="M190.8,713h8.6 M190.8,706.7h8.6 M190.8,700.5h8.6 M190.8,694.2h8.6 M190.8,688h8.6 M190.8,681.7h8.6
			 M190.8,675.5h8.6"/>
		<path class="st7" d="M265.6,713h9.2 M265.6,706.7h9.2 M265.6,700.5h9.2 M265.6,694.2h9.2 M265.6,688h9.2 M265.6,681.7h9.2
			 M265.6,675.5h9.2"/>
	</g>
</g>
</svg>
