<?xml version="1.0" encoding="utf-8"?>
<!-- Generator: Adobe Illustrator 21.0.0, SVG Export Plug-In . SVG Version: 6.00 Build 0)  -->
<svg version="1.1" id="Layer_1" xmlns="http://www.w3.org/2000/svg" xmlns:xlink="http://www.w3.org/1999/xlink" x="0px" y="0px"
	 viewBox="0 0 450 300" style="enable-background:new 0 0 450 300;" xml:space="preserve">
<style type="text/css">
	.st0{fill:#CE1126;}
	.st1{fill:#F9D616;}
	.st2{fill:none;stroke:#000000;stroke-width:1.5;stroke-linecap:round;}
</style>
<rect width="450" height="300"/>
<rect class="st0" width="450" height="150"/>
<g>
	<path class="st1" d="M231.1,91.8c32.1,3.4,55.4,32.2,52.1,64.3s-32.2,55.4-64.3,52.1c-11.4-1.2-22.1-5.7-31-12.9l-8.6,10.4
		c30.8,25.2,76.1,20.7,101.3-10c25.2-30.8,20.7-76.1-10-101.3c-10.9-8.9-24.1-14.4-38.1-15.9L231.1,91.8z"/>
	<g id="s3">
		<path id="s" class="st1" d="M302.6,142.4c0.5,5.1,0.5,10.2,0,15.3l-14.9-1.5c0.4-4.1,0.4-8.2,0-12.4L302.6,142.4z"/>
		<g transform="rotate(22.5,225,150)">
			<path id="s_1_" class="st1" d="M299.6,172.6c-1.5,4.9-3.4,9.6-5.9,14.1l-13.2-7.1c1.9-3.6,3.5-7.5,4.7-11.4L299.6,172.6z"/>
		</g>
		<g transform="rotate(45,225,150)">
			<path id="s_2_" class="st1" d="M285.3,199.5c-3.2,3.9-6.9,7.6-10.8,10.8l-9.5-11.6c3.2-2.6,6.1-5.5,8.7-8.7L285.3,199.5z"/>
		</g>
	</g>
	<g>
		<g id="s3_1_">
			<path id="s_3_" class="st1" d="M247.6,75.4c4.9,1.5,9.6,3.4,14.1,5.9l-7.1,13.2c-3.6-1.9-7.5-3.5-11.4-4.7L247.6,75.4z"/>
			<g transform="rotate(22.5,225,150)">
				<path id="s_4_" class="st1" d="M274.5,89.7c3.9,3.2,7.6,6.9,10.8,10.8l-11.6,9.5c-2.6-3.2-5.5-6.1-8.7-8.7L274.5,89.7z"/>
			</g>
			<g transform="rotate(-67.5,225,150)">
				<path id="s_5_" class="st1" d="M293.8,113.2c2.4,4.5,4.4,9.2,5.9,14.1l-14.4,4.4c-1.2-3.9-2.8-7.8-4.7-11.4L293.8,113.2z"/>
			</g>
		</g>
		<g>
			<g id="s3_2_">
				<path id="s_6_" class="st1" d="M261.8,218.8c-4.5,2.4-9.2,4.4-14.1,5.9l-4.4-14.4c3.9-1.2,7.8-2.8,11.4-4.7L261.8,218.8z"/>
				<g transform="rotate(22.5,225,150)">
					<path id="s_7_" class="st1" d="M232.6,227.6c-5.1,0.5-10.2,0.5-15.3,0l1.5-14.9c4.1,0.4,8.2,0.4,12.4,0L232.6,227.6z"/>
				</g>
				<g transform="rotate(67.5,225,150)">
					<path id="s_8_" class="st1" d="M202.4,224.6c-4.9-1.5-9.6-3.4-14.1-5.9l7.1-13.2c3.6,1.9,7.5,3.5,11.4,4.7L202.4,224.6z"/>
				</g>
			</g>
			<path class="st1" d="M199.3,114.7h51.4l-41.5,30.2L225,96l15.9,48.8L199.3,114.7z"/>
			<path class="st1" d="M287.9,216.3c3.8,3.7,9,7.4,12.8,10.7c3.7,3.3,6.6,6.1,8.9,9.9c3.4,5.5-0.4,11.8-5.7,8.1
				c-2.9-2-4.7-7.4-9.1-11.8c-3.3-2.8-5.8-5.7-14-7.1c-0.4-0.1-0.5-0.9-0.2-1.3L287.9,216.3z"/>
			<path d="M231.4,197.8l20.2,12l4.4,17.1l23.2-1.8l10.2-12l-37.9-26.2L231.4,197.8z"/>
			<path class="st1" d="M279.7,223.7c-26-17.3-42.6-26.7-67.5-40.9c-9.8-5.6-25-19.6-13-43c0.8,15.4,61.6,57.6,87.3,76L279.7,223.7z
				"/>
			<path class="st2" d="M216.1,167.5c20,18.9,45.3,34.3,67.8,51.3"/>
			<circle id="c" cx="290.4" cy="222.3" r="1"/>
			<g>
				<circle id="c_1_" cx="297.8" cy="228.8" r="1"/>
			</g>
			<g>
				<circle id="c_2_" cx="304.3" cy="235.4" r="1"/>
			</g>
		</g>
	</g>
</g>
</svg>
