<?xml version="1.0" encoding="utf-8"?>
<!-- Generator: Adobe Illustrator 21.0.0, SVG Export Plug-In . SVG Version: 6.00 Build 0)  -->
<svg version="1.1" id="Layer_1" xmlns="http://www.w3.org/2000/svg" xmlns:xlink="http://www.w3.org/1999/xlink" x="0px" y="0px"
	 viewBox="0 0 900 600" style="enable-background:new 0 0 900 600;" xml:space="preserve">
<style type="text/css">
	.st0{fill:#00853F;}
	.st1{fill:#FDEF42;}
	.st2{fill:#E31B23;}
</style>
<rect class="st0" width="900" height="600"/>
<rect x="300" class="st1" width="600" height="600"/>
<rect x="600" class="st2" width="300" height="600"/>
<g>
	<g id="c">
		<path id="t" class="st0" d="M0-100L-30.9-4.9l47.6,15.5L0-100z"/>
		<g transform="scale(-1,1)">
			<path id="t_1_" class="st0" d="M0-100L30.9-4.9l-47.6,15.5L0-100z"/>
		</g>
	</g>
	<g>
		<g id="c_1_">
			<path id="t_2_" class="st0" d="M95.1-30.9h-100v50L95.1-30.9z"/>
			<g transform="rotate(72)">
				<path id="t_3_" class="st0" d="M95.1-30.9L14.2,27.9l-29.4-40.5L95.1-30.9z"/>
			</g>
		</g>
		<g>
			<g id="c_2_">
				<path id="t_4_" class="st0" d="M58.8,80.9L27.9-14.2L-19.7,1.2L58.8,80.9z"/>
				<g transform="rotate(144)">
					<path id="t_5_" class="st0" d="M58.8,80.9l-80.9-58.8L7.3-18.3L58.8,80.9z"/>
				</g>
			</g>
			<g>
				<g id="c_3_">
					<path id="t_6_" class="st0" d="M-58.8,80.9l80.9-58.8L-7.3-18.3L-58.8,80.9z"/>
					<g transform="rotate(216)">
						<path id="t_7_" class="st0" d="M-58.8,80.9l30.9-95.1L19.7,1.2L-58.8,80.9z"/>
					</g>
				</g>
				<g transform="translate(450,300)">
					<g id="c_4_">
						<path id="t_8_" class="st0" d="M-95.1-30.9l80.9,58.8l29.4-40.5L-95.1-30.9z"/>
						<g transform="rotate(288)">
							<path id="t_9_" class="st0" d="M-95.1-30.9h100v50L-95.1-30.9z"/>
						</g>
					</g>
				</g>
			</g>
		</g>
	</g>
</g>
</svg>
