<?xml version="1.0" encoding="utf-8"?>
<!-- Generator: Adobe Illustrator 21.0.0, SVG Export Plug-In . SVG Version: 6.00 Build 0)  -->
<svg version="1.1" id="Layer_1" xmlns="http://www.w3.org/2000/svg" xmlns:xlink="http://www.w3.org/1999/xlink" x="0px" y="0px"
	 viewBox="0 0 900 600" style="enable-background:new 0 0 900 600;" xml:space="preserve">
<style type="text/css">
	.st0{fill:#FFFFFF;}
	.st1{fill:#0038A8;}
	.st2{fill:#FCD116;stroke:#000000;stroke-width:0.6;stroke-linecap:square;stroke-miterlimit:20;}
	.st3{fill:none;stroke:#000000;stroke-width:0.6;stroke-miterlimit:20;}
	.st4{fill:#FCD116;stroke:#000000;stroke-width:0.6;stroke-miterlimit:20;}
</style>
<title>Flag of Uruguay</title>
<rect x="0" y="0" class="st0" width="900" height="600"/>
<g>
	<rect x="333.3" y="66.7" class="st1" width="566.7" height="66.7"/>
	<rect x="333.3" y="200" class="st1" width="566.7" height="66.7"/>
	<rect x="0" y="333.3" class="st1" width="900" height="66.7"/>
	<rect x="0" y="466.7" class="st1" width="900" height="66.7"/>
</g>
<g>
	<g>
		<g id="t">
			<g id="s">
				<g transform="rotate(22.5)">
					<path class="st2" d="M2029.6,1120l150,100c-266.7,433.3,33.3,500-200,700c100-233.3-100-166.7-100-566.7"/>
					<path class="st3" d="M1979.6,1186.7c-66.7,433.3,150,566.7,0,733.3"/>
				</g>
				<path class="st4" d="M1515.2,1515.2h200l-200,1100l-200-1100H1515.2v1100"/>
			</g>
			<g transform="rotate(45)">
				<g id="s_1_">
					<g transform="rotate(22.5)">
						<path class="st2" d="M1802.9,1067.5l35.4,176.8c-495,117.9-330,377.1-636.4,353.6c235.7-94.3,47.1-188.6,330-471.4"/>
						<path class="st3" d="M1720.4,1079.3c-353.6,259.3-294.6,506.8-518.5,518.5"/>
					</g>
					<path class="st4" d="M1515.2,1515.2l141.4,141.4L737.3,2293l636.4-919.2L1515.2,1515.2L737.3,2293"/>
				</g>
			</g>
		</g>
		<g id="u">
			<g id="t_1_">
				<g id="s_2_">
					<g transform="rotate(22.5)">
						<path class="st2" d="M1679.6,870l-100,150c-433.3-266.7-500,33.3-700-200c233.3,100,166.7-100,566.7-100"/>
						<path class="st3" d="M1613,820c-433.3-66.7-566.7,150-733.3,0"/>
					</g>
					<path class="st4" d="M1515.2,1515.2v200l-1100-200l1100-200V1515.2h-1100"/>
				</g>
				<g transform="rotate(90)">
					<g id="s_3_">
						<g transform="rotate(22.5)">
							<path class="st2" d="M1732.2,643.2l-176.8,35.4c-117.9-495-377.1-330-353.6-636.4c94.3,235.7,188.6,47.1,471.4,330"/>
							<path class="st3" d="M1720.4,560.7c-259.3-353.6-506.8-294.6-518.5-518.5"/>
						</g>
						<path class="st4" d="M1515.2,1515.2l-141.4,141.4L737.3,737.3l919.2,636.4L1515.2,1515.2L737.3,737.3"/>
					</g>
				</g>
			</g>
		</g>
		<g>
			<g transform="scale(0.11)">
				<g id="t_2_">
					<g id="s_4_">
						<g transform="rotate(22.5)">
							<path class="st2" d="M1929.6,520l-150-100c266.7-433.3-33.3-500,200-700c-100,233.3,100,166.7,100,566.7"/>
							<path class="st3" d="M1979.6,453.3c66.7-433.3-150-566.7,0-733.3"/>
						</g>
						<path class="st4" d="M1515.2,1515.2h-200l200-1100l200,1100H1515.2v-1100"/>
					</g>
					<g transform="rotate(45)">
						<g id="s_5_">
							<g transform="rotate(22.5)">
								<path class="st2" d="M2156.4,572.5l-35.4-176.8c495-117.9,330-377.1,636.4-353.6c-235.7,94.3-47.1,188.6-330,471.4"/>
								<path class="st3" d="M2238.9,560.7C2592.5,301.5,2533.5,54,2757.5,42.2"/>
							</g>
							<path class="st4" d="M1515.2,1515.2l-141.4-141.4L2293,737.3l-636.4,919.2L1515.2,1515.2L2293,737.3"/>
						</g>
					</g>
				</g>
				<g id="u_1_">
					<g id="t_3_">
						<g id="s_6_">
							<g transform="rotate(22.5)">
								<path class="st2" d="M2279.6,770l100-150c433.3,266.7,500-33.3,700,200C2846.3,720,2913,920,2513,920"/>
								<path class="st3" d="M2346.3,820c433.3,66.7,566.7-150,733.3,0"/>
							</g>
							<path class="st4" d="M1515.2,1515.2v-200l1100,200l-1100,200V1515.2h1100"/>
						</g>
						<g transform="rotate(180)">
							<g id="s_7_">
								<g transform="rotate(22.5)">
									<path class="st2" d="M2227.1,996.8l176.8-35.4c117.9,495,377.1,330,353.6,636.4c-94.3-235.7-188.6-47.1-471.4-330"/>
									<path class="st3" d="M2238.9,1079.3c259.3,353.6,506.8,294.6,518.5,518.5"/>
								</g>
								<path class="st4" d="M1515.2,1515.2l141.4-141.4L2293,2293l-919.2-636.4L1515.2,1515.2L2293,2293"/>
							</g>
						</g>
					</g>
				</g>
				<circle class="st4" cx="1515.2" cy="1515.2" r="366.7"/>
			</g>
			<g transform="scale(0.011)">
				<g id="right">
					<path d="M162286.5,124407.7c-2121.2,2424.2-3333.3-1818.2-10909.1-1818.2c-7575.8,0-8787.9,4545.5-10000,3636.4
						c-1212.1-909.1,6363.6-6363.6,8787.9-6666.7C152589.5,119256.2,159559.2,121680.4,162286.5,124407.7 M153498.6,127135
						c2121.2,1818.2,303,5757.6-1818.2,5757.6c-2121.2,0-6060.6-3636.4-4242.4-6060.6"/>
					<path d="M143498.6,129862.2c303-3636.4,3333.3-4242.4,8181.8-4242.4s6969.7,3636.4,8787.9,4545.5
						c-2121.2,0-3939.4-3030.3-8787.9-3030.3s-4848.5,0-8181.8,3030.3 M144407.7,130771.3
						c1212.1-1818.2,2727.3,1818.2,6060.6,1818.2c3333.3,0,5151.5-909.1,7272.7-2424.2c2121.2-1515.1-3030.3,3636.4-6363.6,3636.4
						C148044.1,133801.6,143498.6,131983.5,144407.7,130771.3"/>
					<path d="M154710.8,132589.5c3939.4-2121.2,1515.1-5151.5,0-5757.6C155316.8,127438,157741.1,130468.3,154710.8,132589.5
						 M137741.1,150771.3c1818.2,0,2424.2-606.1,4848.5-606.1c2424.2,0,8181.8,3333.3,11515.2,2121.2
						c-6969.7,2727.3-4242.4,909.1-16363.6,909.1h-1515.2 M155316.8,155013.8c-1212.1-2121.2-909.1-1515.2-3333.3-4848.5
						C154407.7,151983.5,155013.8,152892.5,155316.8,155013.8 M137741.1,158044.1c7575.8,0,6363.6-1515.1,16363.6-5757.6
						c-7272.7,909.1-8787.9,3333.3-16363.6,3333.3h-1515.2 M137741.1,146832c2121.2,0,2727.3-1515.2,5151.5-1515.2
						c2424.2,0,5757.6,909.1,7272.7,2121.2c303,303-909.1-2424.2-3333.3-2727.3c-2424.2-303-1515.1-4242.4-4242.4-4848.5
						c0,1212.1,909.1,909.1,1212.1,2727.3c0,1515.2-2727.3,1515.2-3333.3,0c606,2424.2-1212.1,2424.2-2727.3,2424.2"/>
				</g>
				<g transform="scale(-1,1)">
					<g id="right_1_">
						<path d="M113195.6,124407.7c2121.2,2424.2,3333.3-1818.2,10909.1-1818.2c7575.8,0,8787.9,4545.5,10000,3636.4
							c1212.1-909.1-6363.6-6363.6-8787.9-6666.7S115922.9,121680.4,113195.6,124407.7 M121983.5,127135
							c-2121.2,1818.2-303,5757.6,1818.2,5757.6s6060.6-3636.4,4242.4-6060.6"/>
						<path d="M131983.5,129862.2c-303-3636.4-3333.3-4242.4-8181.8-4242.4s-6969.7,3636.4-8787.9,4545.5
							c2121.2,0,3939.4-3030.3,8787.9-3030.3s4848.5,0,8181.8,3030.3 M131074.4,130771.3
							c-1212.1-1818.2-2727.3,1818.2-6060.6,1818.2c-3333.3,0-5151.5-909.1-7272.7-2424.2
							c-2121.2-1515.1,3030.3,3636.4,6363.6,3636.4C127438,133801.6,131983.5,131983.5,131074.4,130771.3"/>
						<path d="M120771.4,132589.5c-3939.4-2121.2-1515.1-5151.5,0-5757.6C120165.3,127438,117741.1,130468.3,120771.4,132589.5
							 M137741.1,150771.3c-1818.2,0-2424.2-606.1-4848.5-606.1c-2424.2,0-8181.8,3333.3-11515.1,2121.2
							c6969.7,2727.3,4242.4,909.1,16363.6,909.1h1515.2 M120165.3,155013.8c1212.1-2121.2,909.1-1515.2,3333.3-4848.5
							C121074.4,151983.5,120468.3,152892.5,120165.3,155013.8 M137741.1,158044.1c-7575.8,0-6363.6-1515.1-16363.6-5757.6
							c7272.7,909.1,8787.9,3333.3,16363.6,3333.3h1515.2 M137741.1,146832c-2121.2,0-2727.3-1515.2-5151.5-1515.2
							c-2424.2,0-5757.6,909.1-7272.7,2121.2c-303,303,909.1-2424.2,3333.3-2727.3c2424.2-303,1515.1-4242.4,4242.4-4848.5
							c0,1212.1-909.1,909.1-1212.1,2727.3c0,1515.2,2727.3,1515.2,3333.3,0c-606.1,2424.2,1212.1,2424.2,2727.3,2424.2"/>
					</g>
				</g>
				<path d="M137741.1,160771.3c-1515.2,0-5454.5,909.1,0,909.1S139256.2,160771.3,137741.1,160771.3"/>
			</g>
		</g>
	</g>
</g>
</svg>
