<?xml version="1.0" encoding="utf-8"?>
<!-- Generator: Adobe Illustrator 18.1.1, SVG Export Plug-In . SVG Version: 6.00 Build 0)  -->
<svg version="1.1" id="Ebene_1" xmlns="http://www.w3.org/2000/svg" xmlns:xlink="http://www.w3.org/1999/xlink" x="0px" y="0px"
	 viewBox="0 0 60 60" style="enable-background:new 0 0 60 60;" xml:space="preserve">
<g>
	<defs>
		<rect id="SVGID_1_" width="60" height="60"/>
	</defs>
	<clipPath id="SVGID_2_">
		<use xlink:href="#SVGID_1_"  style="overflow:visible;"/>
	</clipPath>
	<rect x="-62.2" y="-0.8" style="clip-path:url(#SVGID_2_);fill:#00247D;" width="122.4" height="61.6"/>
	<g style="clip-path:url(#SVGID_2_);">
		<g>
			<g>
				<defs>
					<rect id="SVGID_3_" x="-42.2" y="-0.7" width="122.4" height="61"/>
				</defs>
				<clipPath id="SVGID_4_">
					<use xlink:href="#SVGID_3_"  style="overflow:visible;"/>
				</clipPath>
				<g id="Saint_Andrews_Cross_1_" style="clip-path:url(#SVGID_4_);">
					<path d="M-42.2-0.7l122.4,61 M-42.2,60.4l122.4-61"/>
					<polygon style="fill:#FFFFFF;" points="77.2,66 18.9,36.8 -39.5,66 -45.1,55.1 5.3,30 -45.1,4.9 -39.5,-6.3 18.9,23.2 
						77.2,-6.3 82.8,4.9 32.7,30 82.8,55.1 					"/>
				</g>
			</g>
			<g>
				<g>
					<defs>
						<path id="SVGID_5_" d="M-42.2-0.7l61,30.7h-61V-0.7z M18.9-0.7h61L18.9,30V-0.7z M18.9,30h61v30.7L18.9,30z M18.9,30v30.7h-61
							L18.9,30z"/>
					</defs>
					<clipPath id="SVGID_6_">
						<use xlink:href="#SVGID_5_"  style="overflow:visible;"/>
					</clipPath>
					<g id="Saint_Patricks_Cross_1_" style="clip-path:url(#SVGID_6_);">
						<path d="M-42.2-0.7l122.4,61 M-42.2,60.4l122.4-61"/>
						<polygon style="fill:#CC142B;" points="78.1,64.2 18.9,34.4 -40.4,64.2 -44,56.8 9.7,30 -44,2.9 -40.4,-4.2 18.9,25.3 
							78.1,-4.2 82,2.9 28,30 82,56.8 						"/>
					</g>
				</g>
				<g>
					<g>
						<g>
							<defs>
								<rect id="SVGID_7_" x="-42.2" y="-0.7" width="122.4" height="61"/>
							</defs>
							<clipPath id="SVGID_8_">
								<use xlink:href="#SVGID_7_"  style="overflow:visible;"/>
							</clipPath>
							<g style="clip-path:url(#SVGID_8_);">
								<path d="M18.9-0.7v61 M-42.2,30H80.2"/>
								<polygon style="fill:#FFFFFF;" points="29.2,60.4 8.8,60.4 8.8,40 -42.2,40 -42.2,19.7 8.8,19.7 8.8,-0.7 29.2,-0.7 
									29.2,19.7 80.2,19.7 80.2,40 29.2,40 								"/>
							</g>
						</g>
						<g id="Saint_Georges_Cross_1_">
							<g>
								<defs>
									<rect id="SVGID_9_" x="-42.2" y="-0.7" width="122.4" height="61"/>
								</defs>
								<clipPath id="SVGID_10_">
									<use xlink:href="#SVGID_9_"  style="overflow:visible;"/>
								</clipPath>
								<g style="clip-path:url(#SVGID_10_);">
									<path d="M18.9-0.7v61 M-42.2,30H80.2"/>
									<polygon style="fill:#CC142B;" points="25,60.4 12.7,60.4 12.7,35.9 -42.2,35.9 -42.2,23.8 12.7,23.8 12.7,-0.7 25,-0.7 
										25,23.8 80.2,23.8 80.2,35.9 25,35.9 									"/>
								</g>
							</g>
						</g>
					</g>
				</g>
			</g>
		</g>
	</g>
</g>
</svg>
