<?xml version="1.0" encoding="utf-8"?>
<!-- Generator: Adobe Illustrator 18.1.1, SVG Export Plug-In . SVG Version: 6.00 Build 0)  -->
<svg version="1.1" id="Ebene_1" xmlns="http://www.w3.org/2000/svg" xmlns:xlink="http://www.w3.org/1999/xlink" x="0px" y="0px"
	 viewBox="0 0 60 60" style="enable-background:new 0 0 60 60;" xml:space="preserve">
<g>
	<defs>
		<rect id="SVGID_1_" width="60" height="60"/>
	</defs>
	<clipPath id="SVGID_2_">
		<use xlink:href="#SVGID_1_"  style="overflow:visible;"/>
	</clipPath>
	<g style="clip-path:url(#SVGID_2_);">
		<rect x="-15" style="fill:#FFFFFF;" width="90" height="60"/>
		<g transform="rotate(-56.3099325)">
			<g id="b2">
				<g id="b">
					<path d="M-15.8,10.4l15,0 M-15.8,14.1h15 M-15.8,17.9h15"/>
					<path d="M-15.8,18.8V17h15v1.8H-15.8z M-15.8,15v-1.8h15V15H-15.8z M-15.8,11.3V9.5h15v1.8H-15.8z"/>
				</g>
				<g>
					<g id="b_1_">
						<path d="M-15.8,65.4h15 M-15.8,69.1h15 M-15.8,72.9h15"/>
						<path d="M-15.8,73.8V72h15v1.8H-15.8z M-15.8,70v-1.8h15V70H-15.8z M-15.8,66.3v-1.8h15v1.8H-15.8z"/>
					</g>
				</g>
			</g>
			<g>
				<circle style="fill:#C60C30;" cx="-8.3" cy="41.6" r="15"/>
			</g>
			<g>
				<path style="fill:#003478;" d="M-8.3,26.6c-4.1,0-7.5,3.4-7.5,7.5s3.4,7.5,7.5,7.5s7.5,3.4,7.5,7.5s-3.4,7.5-7.5,7.5
					c-8.3,0-15-6.7-15-15S-16.6,26.6-8.3,26.6z"/>
			</g>
		</g>
		<g>
			<g transform="rotate(-123.6900675)">
				<g id="b2_1_">
					<g id="b_2_">
						<path d="M-49.1-22.9l15,0 M-49.1-19.2h15 M-49.1-15.4l15,0"/>
						<path d="M-49.1-23.8h15v1.8h-15V-23.8z M-49.1-20.1h15v1.8h-15V-20.1z M-49.1-16.3h15v1.8h-15V-16.3z"/>
					</g>
					<g>
						<g id="b_3_">
							<path d="M-49.1,32.1h15 M-49.1,35.8h15 M-49.1,39.6h15"/>
							<path d="M-49.1,31.2h15V33h-15V31.2z M-49.1,34.9h15v1.8h-15V34.9z M-49.1,38.7h15v1.8h-15V38.7z"/>
						</g>
					</g>
				</g>
				<g>
					<path d="M-41.6-21.1v3.8 M-41.6,29.6v4.4 M-41.6,37.7v3.8"/>
					<path style="fill:#FFFFFF;" d="M-42.5-21.1l1.8,0l0,3.8h-1.8L-42.5-21.1z M-42.5,29.6h1.8l0,4.4h-1.8L-42.5,29.6z M-42.5,37.7
						h1.8l0,3.7h-1.8L-42.5,37.7z"/>
				</g>
			</g>
		</g>
	</g>
	<g style="clip-path:url(#SVGID_2_);">
		<path d="M47.7,41.8l10.4,6.9"/>
		
			<rect x="46.6" y="44.4" transform="matrix(0.8321 0.5547 -0.5547 0.8321 33.9835 -21.7328)" style="fill:#FFFFFF;" width="12.5" height="1.8"/>
	</g>
</g>
</svg>
