<?xml version="1.0" encoding="utf-8"?>
<!-- Generator: Adobe Illustrator 18.1.1, SVG Export Plug-In . SVG Version: 6.00 Build 0)  -->
<svg version="1.1" id="Ebene_1" xmlns="http://www.w3.org/2000/svg" xmlns:xlink="http://www.w3.org/1999/xlink" x="0px" y="0px"
	 viewBox="0 0 60 60" style="enable-background:new 0 0 60 60;" xml:space="preserve">
<g>
	<defs>
		<rect id="SVGID_1_" width="60" height="60"/>
	</defs>
	<clipPath id="SVGID_2_">
		<use xlink:href="#SVGID_1_"  style="overflow:visible;"/>
	</clipPath>
	<g style="clip-path:url(#SVGID_2_);">
		<rect x="-11.6" style="fill:#00247D;" width="83" height="70.5"/>
		<g>
			<defs>
				<rect id="SVGID_3_" x="-10.6" width="41.5" height="20.7"/>
			</defs>
			<clipPath id="SVGID_4_">
				<use xlink:href="#SVGID_3_"  style="overflow:visible;"/>
			</clipPath>
			<g id="Saint_Andrews_Cross_1_" style="clip-path:url(#SVGID_4_);">
				<path d="M-10.6,0l41.5,20.7 M-10.6,20.7L30.9,0"/>
				<polygon style="fill:#FFFFFF;" points="29.9,22.6 10.1,12.7 -9.7,22.6 -11.6,18.9 5.5,10.4 -11.6,1.9 -9.7,-1.9 10.1,8.1 
					29.9,-1.9 31.8,1.9 14.8,10.4 31.8,18.9 				"/>
			</g>
		</g>
		<g>
			<defs>
				<path id="SVGID_5_" d="M-10.6,0l20.7,10.4h-20.7V0z M10.1,0h20.7L10.1,10.4V0z M10.1,10.4h20.7v10.4L10.1,10.4z M10.1,10.4v10.4
					h-20.7L10.1,10.4z"/>
			</defs>
			<clipPath id="SVGID_6_">
				<use xlink:href="#SVGID_5_"  style="overflow:visible;"/>
			</clipPath>
			<g id="Saint_Patricks_Cross_1_" style="clip-path:url(#SVGID_6_);">
				<path d="M-10.6,0l41.5,20.7 M-10.6,20.7L30.9,0"/>
				<polygon style="fill:#CC142B;" points="30.2,22 10.1,11.9 -10,22 -11.2,19.5 7,10.4 -11.2,1.2 -10,-1.2 10.1,8.8 30.2,-1.2 
					31.5,1.2 13.2,10.4 31.5,19.5 				"/>
			</g>
		</g>
		<g id="Saint_Georges_Cross_1_">
			<g>
				<defs>
					<rect id="SVGID_7_" x="-10.6" width="41.5" height="20.7"/>
				</defs>
				<clipPath id="SVGID_8_">
					<use xlink:href="#SVGID_7_"  style="overflow:visible;"/>
				</clipPath>
				<g style="clip-path:url(#SVGID_8_);">
					<path d="M10.1,0v20.7 M-10.6,10.4h41.5"/>
					<polygon style="fill:#FFFFFF;" points="13.6,20.7 6.7,20.7 6.7,13.8 -10.6,13.8 -10.6,6.9 6.7,6.9 6.7,0 13.6,0 13.6,6.9 
						30.9,6.9 30.9,13.8 13.6,13.8 					"/>
				</g>
			</g>
			<g>
				<defs>
					<rect id="SVGID_9_" x="-10.6" width="41.5" height="20.7"/>
				</defs>
				<clipPath id="SVGID_10_">
					<use xlink:href="#SVGID_9_"  style="overflow:visible;"/>
				</clipPath>
				<g style="clip-path:url(#SVGID_10_);">
					<path d="M10.1,0v20.7 M-10.6,10.4h41.5"/>
					<polygon style="fill:#CC142B;" points="12.2,20.7 8,20.7 8,12.4 -10.6,12.4 -10.6,8.3 8,8.3 8,0 12.2,0 12.2,8.3 30.9,8.3 
						30.9,12.4 12.2,12.4 					"/>
				</g>
			</g>
		</g>
	</g>
	<g style="clip-path:url(#SVGID_2_);">
		<polygon style="fill:#FFFFFF;" points="50.7,32.2 51.5,29.6 52.4,32.1 55.1,32.2 52.9,33.7 53.7,36.3 51.5,34.7 49.4,36.3 
			50.2,33.8 48,32.2 		"/>
		<polygon style="fill:#CC142B;" points="51,32.5 51.5,30.8 52.1,32.5 53.9,32.5 52.5,33.6 53,35.3 51.5,34.3 50.1,35.3 50.6,33.6 
			49.2,32.5 		"/>
	</g>
	<g style="clip-path:url(#SVGID_2_);">
		<polygon style="fill:#FFFFFF;" points="41.3,16.8 42,14.5 42.7,16.8 45.1,16.8 43.2,18.2 43.9,20.5 42,19.1 40.1,20.5 40.8,18.2 
			38.9,16.8 		"/>
		<polygon style="fill:#CC142B;" points="41.5,17.1 42,15.6 42.5,17.1 44.1,17.1 42.8,18.1 43.3,19.6 42,18.7 40.7,19.6 41.2,18.1 
			39.9,17.1 		"/>
	</g>
	<g style="clip-path:url(#SVGID_2_);">
		<polygon style="fill:#FFFFFF;" points="59.1,14.4 59.8,12.3 60.4,14.4 62.6,14.4 60.9,15.6 61.5,17.7 59.8,16.4 58.1,17.7 
			58.7,15.6 57,14.4 		"/>
		<polygon style="fill:#CC142B;" points="59.4,14.7 59.8,13.3 60.2,14.6 61.7,14.7 60.5,15.5 61,16.9 59.8,16 58.6,16.9 59.1,15.5 
			57.9,14.7 		"/>
	</g>
	<g style="clip-path:url(#SVGID_2_);">
		<polygon style="fill:#FFFFFF;" points="50.8,7.2 51.5,4.9 52.3,7.2 54.7,7.3 52.7,8.7 53.5,10.9 51.5,9.5 49.6,10.9 50.3,8.7 
			48.4,7.3 		"/>
		<polygon style="fill:#CC142B;" points="51,7.6 51.5,6 52,7.6 53.7,7.6 52.4,8.5 52.9,10.1 51.5,9.1 50.2,10.1 50.7,8.5 49.4,7.6 
					"/>
	</g>
</g>
</svg>
