<?xml version="1.0" encoding="utf-8"?>
<!-- Generator: Adobe Illustrator 18.1.1, SVG Export Plug-In . SVG Version: 6.00 Build 0)  -->
<svg version="1.1" id="Ebene_1" xmlns="http://www.w3.org/2000/svg" xmlns:xlink="http://www.w3.org/1999/xlink" x="0px" y="0px"
	 viewBox="0 0 60 60" style="enable-background:new 0 0 60 60;" xml:space="preserve">
<g>
	<defs>
		<rect id="SVGID_1_" width="60" height="60"/>
	</defs>
	<clipPath id="SVGID_2_">
		<use xlink:href="#SVGID_1_"  style="overflow:visible;"/>
	</clipPath>
	<rect x="-15" style="clip-path:url(#SVGID_2_);fill:#006C35;" width="90" height="60"/>
	<path style="clip-path:url(#SVGID_2_);fill:#FFFFFF;" d="M24,14.3c0,0-0.1,0-0.2,0.1c-0.2,0.1-0.7,0.6-0.7,1.1
		c0,0.3-0.1,0.3,0.1,0.5c0.1,0.2,0.3,0.2,0.6,0c0.2-0.1,0.2-0.2,0.3-0.4c0.1-0.3-0.4,0.2-0.4-0.2c-0.1-0.3,0.2-0.5,0.4-0.8
		C24.1,14.4,24.1,14.3,24,14.3L24,14.3z M28.1,14.3c-0.1,0-0.2,0.1-0.3,0.4c-0.1,0.3-0.5,0.6-0.2,1.4c0.2,0.5,0.3,1.3,0.2,2.2
		c-0.2,0.3-0.2,0.3-0.4,0.6c-0.3,0.3-0.6,0.2-0.9,0.1c-0.2-0.2-0.4-0.2-0.5-0.8c0-0.8,0.1-2.2-0.1-2.5c-0.2-0.4-0.6-0.3-0.7-0.1
		c-0.7,0.7-1.1,1.8-1.3,2.8c-0.2,0.7-0.4,0.5-0.6,0.2c-0.4-0.4-0.4-3.1-0.9-2.7c-0.7,2.1,0.4,4.4,1.2,4.2c0.6,0.2,0.9-0.9,1.2-2.1
		c0.2-0.3,0.3-0.4,0.4-0.2c0,1.6,0.1,2,0.5,2.4c0.9,0.7,1.7,0.1,1.7,0c0.1-0.1,0.7-0.7,0.7-0.7c0.2-0.2,0.4-0.2,0.6,0
		c0.2,0.2,0.2,0.5,0.7,0.8c0.4,0.2,1.2,0,1.4-0.3c0.3-0.4,0.3-0.6,0.4-0.8c0.2-0.2,0.5-0.1,0.5-0.1c0,0.1-0.2,0.3-0.1,0.5
		c0.2,0.2,0.3,0.1,0.4,0c0.5-0.2,0.8-1.2,0.8-1.2c0-0.4-0.2-0.3-0.3-0.3c-0.2,0.1-0.2,0.1-0.4,0.3c-0.2,0-0.7,0.2-0.9-0.2
		C31,18,31,17.4,30.9,17c0,0-0.3-0.6,0-0.7c0.1,0,0.4,0.1,0.5-0.1c0.1-0.2-0.3-0.9-0.6-1.3c-0.3-0.3-0.6-0.3-1,0
		c-0.3,0.2-0.2,0.5-0.3,0.7c-0.1,0.3-0.1,0.6,0.2,1c0.3,0.5,0.7,1.1,0.6,2c0,0-0.3,0.4-0.7,0.4c-0.2,0-0.5-0.1-0.7-1.4
		c-0.1-1,0-2.3-0.4-2.9C28.3,14.5,28.3,14.3,28.1,14.3L28.1,14.3z M26.8,14.4c-0.1,0-0.3,0.2-0.4,0.4c-0.1,0.2-0.2,1.3-0.2,1.3
		c-0.1,0.3,0.3,0.5,0.5,0c0.3-0.8,0.3-1.1,0.3-1.4C27.1,14.5,27,14.4,26.8,14.4L26.8,14.4z M31.6,14.5c-0.1,0-0.2,0.1-0.3,0.3
		c0,0.4,0,0.7,0,1c0.1,0.2,0.4,0.6,0.6,0.9c0.8,1.1,1.6,2.2,2.4,3.4c0.1,0.9,0.2,1.7,0.3,2.5c0.1,1.8,0.2,4.1,0,6
		c0.3,0,0.9-0.6,1.1-1.4c0.1-1.2,0-3.5-0.1-4.2c0-0.3,0-0.6,0-1c0.9,1.5,1.8,3,2.6,4.7c0.3-0.1,0.2-1.9,0.1-2.1
		c-0.7-1.5-1.6-2.9-1.9-3.5c-0.1-0.2-0.5-0.8-0.9-1.4c-0.1-0.9-0.2-1.7-0.2-1.9c-0.1-1,0.4,0.1,0.3-0.5c-0.2-1-0.7-1.6-1.3-2.5
		c-0.2-0.3-0.2-0.3-0.5,0.1c-0.2,0.4-0.2,0.8-0.1,1.1c-0.1-0.1-0.2-0.3-0.3-0.4c-0.5-0.5-0.6-0.5-1-0.9
		C32.1,14.6,31.8,14.5,31.6,14.5L31.6,14.5z M45.8,14.6c-0.1,0-0.1,0-0.2,0.1c-0.1,0.1-0.3,0.4-0.3,0.6c0,0.5,0.1,1,0.2,1.6
		c0,0.1,0,0.1,0,0.2c-0.1-0.1-0.1-0.1-0.1-0.2c-1-1.1,0.5-0.2-0.2-1c-0.6-0.6-0.7-0.8-1.2-1.2c-0.2-0.2-0.4-0.4-0.5,0.1
		c0,0.4-0.1,0.9,0,1.3c0,0.2,0.2,0.6,0.4,0.8c0.7,0.8,1.4,1.7,2,2.6c0.1,1.9,0.2,3.6,0.3,5.4c0,0.8-0.3,1.9-0.5,2c0,0-0.4,0.2-0.6,0
		c-0.2-0.1-0.9-1.2-0.9-1.2c-0.4-0.3-0.6-0.2-0.8,0c-0.7,0.7-1,1.9-1.5,2.8c-0.1,0.2-0.5,0.4-0.8,0c-1-1.3-0.4-3.2-0.5-2.7
		c-0.9,1-0.5,2.6-0.3,2.9c0.3,0.6,0.5,0.9,1.1,1.2c0.5,0.4,0.9,0.1,1.1-0.1c0.5-0.5,0.5-1.9,0.8-2.1c0.2-0.5,0.6-0.4,0.8-0.2
		c0.2,0.3,0.4,0.5,0.7,0.6c0.5,0.4,1,0.5,1.6,0.1c0.4-0.2,0.6-0.5,0.8-1c0.2-0.6,0.1-4,0.1-5.8c0.4,0.5,0.7,1,1.1,1.5
		c0.2,1.6,0.2,3.2,0.2,4.8c0,0.3,1.1-0.9,1.1-1.5c0-0.5,0-1,0-1.4c0.5,0.9,1.1,1.7,1.5,2.6c0.3-0.2,0.2-1.9,0-2.1
		c-0.5-0.9-1.2-1.8-1.7-2.5c-0.1-0.9-0.2-2-0.3-2.3c-0.1-0.5-0.2-1.3-0.3-1.9c0-0.2-0.2-1-0.1-1.1c0.1-0.2,0.3,0,0.4-0.2
		c0.2-0.2-0.6-2.1-1-2.7c-0.1-0.2-0.4-0.2-0.7,0.2c-0.3,0.3-0.2,0.9-0.1,1.4c0.3,1.5,0.5,2.9,0.7,4.4c-0.4-0.5-0.8-1.2-1.3-1.8
		c0-0.1-0.1-0.3-0.1-0.3c0,0-0.1-1.2-0.1-1.5c0-0.1,0-0.1,0.1-0.1c0.1,0.1,0.1,0.1,0.2,0.1c0.1,0,0.2-0.2,0.2-0.4
		c-0.4-0.7-0.8-1.5-1.2-2.2C45.9,14.7,45.8,14.7,45.8,14.6L45.8,14.6z M9.2,14.7c-0.2,0-0.5,0.1-0.4,0.4c-0.1,0.1,0.4,0.6,0.5,0.9
		c0.1,0.2-0.1,0.8,0.1,0.9c0.1,0.1,0.3-0.4,0.4-0.9C9.9,15.7,9.9,14.9,9.2,14.7C9.3,14.7,9.3,14.7,9.2,14.7L9.2,14.7z M50.9,14.7
		c0,0-0.1,0.1-0.2,0.3c-0.2,0.4-0.3,1-0.2,1.6c0.5,3.6,0.9,7.1,1,10.3c0,0.3-0.1,0.5-0.2,0.9c-0.3,0.4-0.7,0.9-1,1.2
		c-0.3,0.2-1,0.5-1.3,0.7c-0.7,0.4-0.7,0.9-0.1,0.9c1-0.1,2.2-0.2,3-1.4c0.2-0.3,0.5-1.3,0.5-1.9c0.1-3.4,0-6.7-0.6-9.2
		c0-0.2-0.1-0.8-0.1-0.9c0.1-0.2,0.4,0,0.5-0.2c0.2-0.2-0.9-1.5-1.2-2.1C51,14.8,50.9,14.7,50.9,14.7L50.9,14.7z M40.3,14.7
		c0,0-0.1,0.1-0.2,0.2c-0.3,0.9-0.4,1.7-0.3,2.2c0.7,3.8,1.5,7.2,1.4,10.8c0.3,0,0.7-0.8,0.9-1.6c0.1-1.1-0.1-1.7-0.1-2.4
		c0-0.6-0.7-5.8-0.9-6.2c-0.2-0.9,0.7-0.1,0.6-0.6c-0.3-0.7-1-1.6-1.2-2.2C40.3,14.9,40.3,14.7,40.3,14.7L40.3,14.7z M14.5,14.8
		c-0.1,0-0.2,0.1-0.2,0.2c0,0.1,0,0.2,0,0.3c0,0-0.2,0-0.2-0.2c0-0.1-0.1-0.1-0.1-0.2c0,0-0.1,0-0.1,0c-0.1,0-0.1,0-0.1,0.1
		c0,0.1,0,0.1,0,0.2c0,0.1,0,0.1-0.1,0.1c-0.1,0,0,0-0.1,0c0,0-0.1,0-0.1-0.1c0-0.1,0-0.2,0-0.2c0,0-0.1-0.1-0.1-0.1
		c-0.3,0-0.3,0.3-0.3,0.4c0,0,0,0.6,0.3,0.7c0.5,0.2,1.4,0.1,1.4-0.7c0-0.1,0-0.3,0-0.4C14.6,14.8,14.5,14.8,14.5,14.8L14.5,14.8z
		 M21.1,14.8c-0.2,0-0.3,0.1-0.4,0.1c-0.3,0.3-0.4,0.8-0.1,1.1c0.3,0.1,0.5,0.4,0.3,0.5c-0.7,0.8-2.6,2-2.6,2.3c0,0,0,0,0,0
		c0,0,0,0,0,0c0,0,0,0,0,0c0,0,0,0,0,0c0,0,0,0,0,0c0,0,0,0,0,0c0,0,0,0,0,0c0,0,0,0,0,0c0,0,0,0,0,0c0.1,0.1,1.2,0.1,1.4,0
		c0,0,0,0,0,0c0,0,0,0,0,0c0,0,0,0,0,0c0.4-0.1,2.3-2.3,2.3-2.3c-0.1-0.1-0.2-0.1-0.3-0.2c-0.1-0.1-0.1-0.2,0-0.3
		c0.5-0.3,0.3-0.9,0.1-1.1C21.4,14.8,21.2,14.8,21.1,14.8L21.1,14.8z M38.4,14.8c0,0-0.1,0.1-0.2,0.3c-0.2,0.4-0.4,1-0.4,1.6
		c0.5,3.3,0.6,6.3,0.9,9.6c0,0.3,0,0.8-0.2,1c-0.8,0.8-1.9,1.9-3.2,2.3c-0.1,0.2,0.3,0.8,0.9,0.8c1-0.1,1.9-0.7,2.7-2.2
		c0.2-0.3,0.6-1.1,0.6-1.7c0.1-3.4-0.2-6-0.7-8.5c0-0.2,0-0.5,0-0.6c0.1-0.1,0.3,0,0.4-0.2c0.2-0.2-0.5-1.6-0.8-2.2
		C38.5,14.9,38.4,14.8,38.4,14.8L38.4,14.8z M11.6,14.9c-0.1,0-0.3,0.1-0.3,0.3c0,0.5,0,1.1,0,1.6c0.2,0.9,0.3,1.6,0.4,2.5
		c0,1.2-0.7,0.5-0.7-0.1c0.2-0.8,0.1-2,0-2.3c-0.1-0.3-0.3-0.4-0.5-0.3c-0.2,0-0.8,0.6-1,1.7c0,0-0.1,0.5-0.2,1
		c-0.1,0.5-0.4,0.9-0.7-0.1c-0.2-0.7-0.3-2.5-0.7-2.1c-0.1,1.4-0.2,3.9,1,4.1c1.4,0.1,0.6-2.4,1.2-2.9c0.1-0.2,0.3-0.2,0.3,0.1v2.2
		c0,0.7,0.5,0.9,0.8,1.1c0.4,0,0.6,0,0.8,0.3c0.1,1.3,0.1,2.5,0.2,3.8c0,0,0.9,0.3,0.9-2.1c0-1.4-0.3-2.6-0.1-2.8
		c0-0.3,0.3-0.3,0.6-0.1c0.4,0.3,0.5,0.6,1.1,0.5c0.9-0.2,1.4-0.7,1.4-1.4c-0.1-0.6-0.1-1.3-0.4-2c0-0.1-0.2-0.4-0.1-0.5
		c0.2,0.3,0.4,0.2,0.5,0c-0.2-0.5-0.4-1-0.8-1.2c-0.3-0.3-0.8-0.2-0.9,0.4c-0.1,0.7,0.2,1.5,0.7,2.1c0.1,0.3,0.2,0.7,0.2,1
		c-0.3,0.1-0.5,0.1-0.7-0.1c0,0-0.7-0.5-0.7-0.6c0.2-1.2,0-1.3-0.1-1.7c-0.1-0.5-0.3-0.6-0.5-0.9c-0.2-0.2-0.4-0.2-0.5,0
		c-0.3,0.5-0.2,1.7,0.1,2.2c0.2,0.5,0.4,0.8,0.3,0.8c-0.1,0.3-0.3,0.2-0.4-0.1c-0.2-0.6-0.3-1.6-0.3-2c-0.1-0.5-0.1-1.7-0.5-2
		C11.8,15,11.7,14.9,11.6,14.9L11.6,14.9z M16.6,14.9c-0.1,0-0.2,0-0.2,0.1c-0.3,0.1-0.6,0.4-0.5,0.9c0.4,2.2,0.6,3.9,1,6.1
		c0.1,0.3-0.2,0.6-0.4,0.6c-0.5-0.3-0.6-1-1.4-0.9c-0.6,0-1.3,0.6-1.3,1.3c-0.1,0.5-0.1,1,0,1.4c0.4,0.5,0.9,0.4,1.3,0.3
		c0.4-0.1,0.6-0.5,0.8-0.4c0,0,0,0,0,0c0,0,0,0,0,0c0.1,0.1,0,1.3-1.7,2.2c-1,0.5-1.8,0.6-2.3-0.3c-0.3-0.5,0-2.5-0.6-2.1
		c-2,5.1,4.6,5.8,5.4,0.2c0-0.2,0.2-0.3,0.3-0.3c0,0,0.1,0.1,0.1,0.2c-0.2,5.1-5.1,5.4-6,3.8c-0.2-0.4-0.3-1.2-0.3-1.7
		c0-0.3-0.1-0.5-0.2-0.5C10.3,25.6,10,26,10,26.7c-0.1,0.5-0.1,0.7-0.1,1.2c0.3,4,6.6,2.3,7.7-1c0.5-1.7,0-3,0.2-3.2c0,0,0,0,0,0
		c0,0,0,0,0,0c0,0,0,0,0,0c0,0,0,0,0,0c0.6,0.7,1.5,0.1,1.7-0.1c0.1-0.1,0.3-0.2,0.4,0c0.5,0.4,1.4,0.2,1.5-0.4
		c0.1-0.6,0.2-1.2,0.2-1.9c-0.3,0.1-0.6,0.2-0.7,0.3c0,0,0,0.1,0,0.1c0,0.2-0.1,0.4-0.1,0.5c0,0,0,0,0,0c0,0,0,0-0.1,0.1
		c-0.1,0.1-0.3,0-0.3-0.1c-0.2-0.7-0.8-0.8-1.2,0.3c-0.3,0.2-0.7,0.2-0.8-0.1c0.1-0.7-0.2-0.8-0.8-0.5c-0.2-1.4-0.4-2.8-0.6-4.2
		c0.2,0,0.5,0.2,0.7-0.1c-0.2-0.7-0.8-2.3-1-2.4c0,0,0,0,0,0c0,0,0,0,0,0c0,0,0,0,0,0c0,0,0,0,0,0C16.7,15,16.7,15,16.6,14.9
		C16.7,14.9,16.7,14.9,16.6,14.9L16.6,14.9z M36.3,15c-0.3,0-0.5,0.2-0.4,0.5c-0.1,0.2,0.5,0.8,0.6,1.1c0.2,0.5-0.1,1,0,1
		c0.2,0.1,0.4-0.5,0.5-1c0.1-0.4-0.2-1.3-0.7-1.5C36.4,15,36.4,15,36.3,15L36.3,15z M21,15.5c0.1,0,0.3,0.1,0.3,0.2
		c0.1,0.2,0,0.3-0.1,0.3c-0.1,0-0.3-0.1-0.3-0.2C20.8,15.7,20.8,15.5,21,15.5C21,15.5,21,15.5,21,15.5z M49.5,16.2
		c-0.2,0-0.5,0.2-0.4,0.5c-0.1,0.2,0.5,0.8,0.6,1.2c0.1,0.2-0.1,1,0,1.1c0.2,0.1,0.4-0.6,0.5-1.1C50.2,17.6,50,16.4,49.5,16.2
		C49.5,16.2,49.5,16.2,49.5,16.2L49.5,16.2z M33.7,16.6c0,0.1,0,0.2,0.1,0.3c0,0.2,0.1,0.4,0.1,0.6c-0.2-0.3-0.3-0.5-0.4-0.5
		C33.1,16.5,33.5,16.7,33.7,16.6L33.7,16.6z M37.4,18.4c-0.1,0-0.2,0.1-0.2,0.2c0,0.1,0,0.2,0,0.2c0,0-0.2,0-0.2-0.2
		c0-0.1-0.1-0.1-0.1-0.2c0,0-0.1,0-0.1,0c-0.1,0-0.1,0-0.1,0.1c0,0.1,0,0.1,0,0.2c0,0.1,0,0.1-0.1,0.1c-0.1,0-0.1,0-0.1,0
		c0,0-0.1,0-0.1-0.1c0-0.1,0-0.2,0-0.2c0,0-0.1-0.1-0.1-0.1c-0.3,0-0.3,0.3-0.3,0.4c0,0,0,0.6,0.3,0.7c0.5,0.2,1.4,0.1,1.4-0.7
		c0-0.1,0-0.3,0-0.4C37.5,18.4,37.4,18.4,37.4,18.4L37.4,18.4z M20.8,18.6c-0.1,0-0.1,0-0.2,0.1c-0.4,0.2-0.6,0.9-0.3,1.3
		c0.3,0.4,0.7,0.2,0.7,0.2c0.4,0.1,0.7-0.8,0.7-0.8s0-0.2-0.5,0.2c-0.2,0-0.2,0-0.3-0.2c0-0.2,0-0.4,0.1-0.7
		C20.9,18.7,20.9,18.6,20.8,18.6L20.8,18.6z M44.2,18.7c-0.2,0-0.5,0.1-0.6,0.5c0,0.2,0.1,0.3,0.1,0.5c0,0.1-0.1,0.2-0.4,0
		c0,0-0.2-0.3-0.2-0.3c-0.2-0.1-0.5,0-0.6,0.1c-0.1,0.2-0.2,0.5-0.1,0.8c0.3,0.5,1.2,1.4,1.7,1.4c0-0.5,0.1-1.1,0.1-1.5
		c0-0.1,0-0.3,0.2-0.3c0.1,0,0.4,0.1,0.4,0c0-0.3-0.1-0.7-0.3-0.9C44.5,18.8,44.4,18.7,44.2,18.7L44.2,18.7z M24.8,20.3
		C24.8,20.3,24.8,20.3,24.8,20.3C24.8,20.3,24.8,20.3,24.8,20.3c-0.1,0.1-0.1,0.1-0.3,0.2c-0.2,0.2-0.3,0.4-0.2,0.9
		c0,0.1,0.4,1.2,0.7,1.9c0.2,0.8,0.4,1.7,0.3,2.6c-0.5,1.1-1.6,2.2-2.6,2.7c-0.5,0.2-1,0.1-1.1,0c0,0,0,0,0,0
		c-0.3-0.2-0.3-0.6-0.3-0.6c0,0,0,0,0,0c0,0,0,0,0,0c0.9-0.6,1.9-1.1,2.6-2.7c0.2-0.6,0.3-1,0.1-2c-0.1-0.4-0.2-0.7-0.4-0.9
		c0,0,0,0,0,0c0.1-0.1,0.5,0.2,0.6,0c-0.1-0.5-0.4-1.1-0.8-1.4c-0.3-0.3-0.6-0.3-0.9-0.1c-0.3,0.2-0.4,0.8-0.2,1.4
		c0.2,0.4,0.6,0.5,1,1.3c0,0,0,0,0,0c0,0.1,0.1,0.6-0.1,0.9c-0.1,0.4-1.9,1.8-2,1.9c0,0,0,0,0,0c0,0,0,0,0,0c0,0,0,0,0,0
		c0,0,0,0,0,0c0,0,0,0,0,0c0,0,0,0,0,0c0,0,0,0,0,0c0,0,0,0,0,0c0,0,0,0,0,0c0,0,0-0.1,0-0.3c0-0.3,0.1-0.8,0.1-0.9c0,0,0,0,0,0
		c0,0,0,0,0,0c0,0,0,0,0,0c0,0,0,0,0,0c-0.6,0.4-0.8,1.5-0.9,1.8c-1.4,1-3.1,1.7-4,2.7c-0.5,0.8,3.4-0.9,3.8-1.1c0,0,0,0,0,0
		c0.1,0.1,0.1,0.4,0.3,0.7c0.4,0.5,1.3,0.9,2.1,0.7c1.4-0.5,2.2-1.5,3-2.5c0.1-0.2,0.3-0.3,0.5-0.2c0.6,1.3,2.2,2.2,4.3,2.2
		c0.5-0.6,0.3-0.9,0.1-1c-0.1,0-1-0.4-1.2-0.8c-0.1-0.4,0.1-0.7,0.6-0.9c1.3-0.2,2.7-0.3,3.9-0.8c0-0.4,0.3-1.1,0.4-1.3
		c0.1-0.2,0.2-0.2,0.2-0.2c0,0,0,0,0,0c0,0,0,0,0,0c0,0,0,0,0,0c0,0,0,0,0,0c0,0,0,0,0,0l-0.2-0.1l-4.3,0c-0.1,0-0.1,0-0.1-0.1
		c0,0,0,0,0,0c0,0,0,0,0,0c0,0,0,0,0,0c0,0,0,0,0,0c0,0,0,0,0,0c0,0,0,0,0,0c0,0,0,0,0,0c0,0,0,0,0,0c0,0,0,0,0,0c0,0,0,0,0,0
		c0,0,0,0,0,0c0,0,0,0,0,0c0,0,0,0,0,0c0,0,0,0,0,0c0,0,0,0,0,0c0,0,0,0,0,0c0,0,0,0,0,0c0,0,0.1-0.1,0.1-0.1c1-0.1,2.8-0.4,3-2.2
		c0-0.9-0.4-1.5-1.5-1.7c-0.8,0.1-1.4,0.9-1.3,1.7c0,0.2,0.1,0.7-0.2,0.8c-1.6,0.1-3.3,1.1-3.4,1.8c0,0,0,0,0,0c0,0,0,0,0,0
		c0,0,0,0,0,0c0,0,0,0,0,0c0,0,0,0,0,0c0,0,0,0,0,0c0,0,0,0,0,0c0,0,0,0,0,0c0,0,0,0,0,0c0,0,0,0,0,0c-0.1,0-0.2-0.2-0.2-0.4
		c-0.1-1.2-0.5-2.6-1.1-3.7C25,20.4,24.9,20.3,24.8,20.3C24.8,20.3,24.8,20.3,24.8,20.3C24.8,20.3,24.8,20.3,24.8,20.3
		C24.8,20.3,24.8,20.3,24.8,20.3C24.8,20.3,24.8,20.3,24.8,20.3C24.8,20.3,24.8,20.3,24.8,20.3L24.8,20.3z M28.9,20.9
		c-0.1,0-0.2,0.1-0.2,0.2c0,0.1,0,0.2,0,0.3c0,0-0.2,0-0.2-0.2c0-0.1-0.1-0.1-0.1-0.2c0,0,0,0-0.1,0c-0.1,0-0.1,0-0.1,0.1
		c0,0.1,0,0.1,0,0.2c0,0.1,0,0.1-0.1,0.1c-0.1,0,0,0-0.1,0c0,0-0.1,0-0.1-0.1c0-0.1,0-0.2,0-0.2c0,0-0.1-0.1-0.1-0.1
		c-0.3,0-0.3,0.3-0.3,0.4c0,0,0,0.6,0.3,0.7c0.5,0.2,1.7,0.1,1.4-0.7c0-0.1,0-0.3,0-0.4C29.1,21,29,20.9,28.9,20.9L28.9,20.9z
		 M45.5,21.6C45.5,21.6,45.4,21.6,45.5,21.6c0,0-2.3,1.6-2.4,1.7c-0.2,0.2-0.1,0.9,0,0.8c0.2,0.1,2.5-1.5,2.4-1.7
		C45.6,22.5,45.7,21.7,45.5,21.6L45.5,21.6z M31.1,21.9c0.1,0,0.2,0,0.3,0.1c0.2,0.1,0.3,0.2,0.3,0.4c0,0,0,0,0,0c0,0,0,0,0,0
		c0,0,0,0,0,0c0,0,0,0,0,0c0,0,0,0,0,0c0,0,0,0,0,0c-0.1,0.1-0.3,0.1-0.4,0c-0.2-0.1-0.3-0.2-0.3-0.4c0,0,0,0,0,0c0,0,0,0,0,0
		c0,0,0,0,0,0c0,0,0,0,0,0c0,0,0,0,0,0C31,21.9,31,21.9,31.1,21.9L31.1,21.9z M11.1,22.3c-1.2,0-2.9,1.6-3,2.4
		c1.3-0.6,2.5-1.2,3.8-1.8C11.6,22.6,11.8,22.3,11.1,22.3L11.1,22.3z M14.9,22.8c0.1,0,0.2,0.1,0.3,0.2c0.1,0.1,0,0.3-0.1,0.4
		c0,0,0,0,0,0c0,0,0,0,0,0c0,0.1-0.2,0-0.3,0c-0.2,0-0.2,0-0.3-0.2c0-0.1,0.1-0.3,0.1-0.4c0,0,0,0,0,0c0,0,0,0,0,0
		C14.7,22.9,14.8,22.8,14.9,22.8C14.9,22.8,14.9,22.8,14.9,22.8L14.9,22.8z M45,23.3c-0.2,0-0.4,0.2-0.3,0.5
		C44.7,24,45,24.7,45.1,25c0.1,0.2-0.1,0.9,0.1,1c0.2,0.1,0.6-0.4,0.5-1c0-0.3-0.1-1.5-0.5-1.7C45.1,23.3,45.1,23.3,45,23.3L45,23.3
		z M19.4,24.4c-0.2,0-0.4,0.1-0.3,0.4c0,0.2,0.5,0.4,0.6,0.9c0.1,0.2-0.1,0.8,0,0.8c0.1,0.1,0.4-0.4,0.4-0.8c0-0.2-0.2-1.1-0.6-1.2
		C19.6,24.4,19.5,24.4,19.4,24.4L19.4,24.4z M27.1,25.5C27.1,25.5,27.1,25.5,27.1,25.5C27.1,25.5,27.1,25.5,27.1,25.5
		c0.5,0.1,1.2,0.1,1.8,0.2c0.5,0,0.7,0.4,0.3,0.6c-0.5,0.2-0.9,0.3-0.9,0.9c0.1,0.3,0,0.5,0,0.6c0,0,0,0,0,0c0,0,0,0,0,0
		c0,0,0,0,0,0c0,0,0,0,0,0l0,0c0,0,0,0,0,0c0,0,0,0,0,0c0,0,0,0,0,0c-0.1,0-0.3-0.1-0.4-0.1c-0.3-0.2-1.1-0.7-1.2-1.8
		C26.6,25.7,26.8,25.5,27.1,25.5L27.1,25.5z M8.4,26.3c0,0-0.1,0.1-0.2,0.2c-0.7,1.1-0.8,2.8-0.4,3.3C8,30,8.4,30.1,8.6,30
		c0.4-0.2,0.6-1.1,0.5-1.4c-0.1-0.2-0.3-0.3-0.4-0.1c-0.3,0.6-0.4,0.2-0.5-0.2c0-0.7,0-1.3,0.1-1.8C8.4,26.4,8.4,26.3,8.4,26.3
		L8.4,26.3z M32.4,27.8c-0.1,0-0.1,0-0.2,0c0,0-0.5,0.3-0.7,0.6c-0.1,0.1-0.1,0.1-0.1,0.3c0.1,0.2,0.2,0.1,0.4,0
		c0.2,0,0.3,0.1,0.3,0.3c-0.1,0.3,0,0.4,0,0.4c0,0,0.2,0.2,0.4,0.1c0.5-0.2,0.8-0.4,1.4-0.5c0.2,0,0.2-0.5-0.1-0.5
		c-0.4,0-0.7,0-1.1,0.3c-0.2,0.1-0.3-0.1-0.3-0.2c-0.1-0.3,0.1-0.5,0.1-0.7C32.7,27.9,32.6,27.8,32.4,27.8L32.4,27.8z M47.8,28.3
		c-0.1,0-0.2,0-0.3,0c-0.1,0-0.2,0.1-0.2,0.3c0,0.3,0.2,0.3,0.3,0.4c0.1,0.1,0.2,0.2,0,0.4c-0.2,0.1-0.3,0.2-0.4,0.4
		c-0.1,0.1-0.1,0.3,0.1,0.4c0.4,0.1,1.4-0.5,1.4-0.5c0.2-0.1,0.1-0.3,0.1-0.3c-0.1-0.1-0.3,0-0.4-0.1c-0.1,0-0.3,0-0.2-0.2
		c0.1-0.1,0.1-0.2,0.2-0.3c0.1-0.1,0-0.2-0.2-0.3C48,28.3,47.9,28.3,47.8,28.3L47.8,28.3z M41.4,41.3C41.4,41.3,41.4,41.4,41.4,41.3
		c-0.7,0.2-0.7,0.9-0.2,1.2c-7.5,0-19-0.1-21.5-0.1c-1.4,0-5.8-0.2-5.8-0.2c0.9,1.4,2.3,1.7,4.1,1.7c3.3,0,18.8,0,23.2,0
		c-0.3,0.6,0,1.4,0.3,1.6c0,0,0,0,0,0c0,0,0,0,0,0c0,0,0,0,0,0c0.3,0.1,0.4-0.1,0.5-0.3c0.5,0,3.1,0.1,3.4,0c0,0,0,0,0,0
		c0.2,0.2,0.3,0.5,0.6,0.4c0.5-0.1,1-0.2,1-1.3c0,0-0.1-1.9-1.3-1.8c-0.3,0-1.1,0.1-1.1,0.1c-1-0.1-1.7-0.1-2.7-0.2
		c0.1-0.1,0.3-0.6,0.1-0.8c-0.1,0-0.1-0.1-0.3-0.1c0,0,0,0,0,0c0,0,0,0,0,0c0,0,0,0,0,0c0,0,0,0,0,0c0,0,0,0,0,0c0,0,0,0,0,0
		C41.4,41.6,41.4,41.4,41.4,41.3C41.4,41.4,41.4,41.4,41.4,41.3C41.4,41.4,41.4,41.4,41.4,41.3C41.4,41.4,41.4,41.3,41.4,41.3
		C41.4,41.3,41.4,41.3,41.4,41.3C41.4,41.3,41.4,41.3,41.4,41.3L41.4,41.3z M41.9,44.1C41.9,44.1,41.9,44.1,41.9,44.1
		c1.1,0.1,2.1,0,3.2,0.1c0.2,0.1,0.1,0.5,0,0.5c0,0,0,0,0,0c0,0,0,0,0,0c0,0,0,0,0,0c-0.4,0-0.6,0-0.9,0c0,0,0,0,0-0.1
		c-0.1-0.3-0.7-0.2-0.8,0c0,0,0,0,0,0c0,0,0,0,0,0c0,0,0,0,0,0c0,0,0,0,0,0c0,0,0,0,0,0c-0.5,0.1-0.9,0-1.4,0
		C41.7,44.5,41.7,44.1,41.9,44.1L41.9,44.1z"/>
</g>
</svg>
