<?xml version="1.0" encoding="utf-8"?>
<!-- Generator: Adobe Illustrator 18.1.1, SVG Export Plug-In . SVG Version: 6.00 Build 0)  -->
<svg version="1.1" id="Ebene_1" xmlns="http://www.w3.org/2000/svg" xmlns:xlink="http://www.w3.org/1999/xlink" x="0px" y="0px"
	 viewBox="0 0 60 60" style="enable-background:new 0 0 60 60;" xml:space="preserve">
<g>
	<g>
		<defs>
			<rect id="SVGID_1_" width="60" height="60"/>
		</defs>
		<clipPath id="SVGID_2_">
			<use xlink:href="#SVGID_1_"  style="overflow:visible;"/>
		</clipPath>
		<rect x="-10" y="40" style="clip-path:url(#SVGID_2_);fill:#ED1C24;" width="120" height="20"/>
	</g>
	<g>
		<defs>
			<rect id="SVGID_3_" width="60" height="60"/>
		</defs>
		<clipPath id="SVGID_4_">
			<use xlink:href="#SVGID_3_"  style="overflow:visible;"/>
		</clipPath>
		<rect x="-10" y="19.9" style="clip-path:url(#SVGID_4_);fill:#005DA4;" width="120" height="20.1"/>
	</g>
	<g>
		<defs>
			<rect id="SVGID_5_" width="60" height="60"/>
		</defs>
		<clipPath id="SVGID_6_">
			<use xlink:href="#SVGID_5_"  style="overflow:visible;"/>
		</clipPath>
		<rect x="-10" style="clip-path:url(#SVGID_6_);fill:#FFFFFF;" width="120" height="20"/>
	</g>
</g>
<path style="fill:#005DA4;" d="M27.1,20.9l0.6-9.3c-4.9-2.3-10.6-2.3-15.5,0l0.6,9.3c0.3,4.2,3.1,7.7,7.1,9
	C24,28.7,26.8,25.1,27.1,20.9"/>
<g>
	<path style="fill:#FFFFFF;" d="M17.1,23.9c0.6-0.3,1.3-0.3,1.9,0s1.3,0.3,1.9,0s1.3-0.3,1.9,0c0.9,0.5,2.1,0.2,2.6-0.7
		c0.1-0.3,0.2-0.7,0.3-1l-2.9-3.9l-1.2,1.6L20,16.4l-1.7,3.5l-1.2-1.6l-2.9,3.9c0.1,0.3,0.2,0.7,0.3,1C15,24.1,16.2,24.4,17.1,23.9z
		"/>
	<path style="fill:#FFFFFF;" d="M22.9,24.4L22.9,24.4c-0.6-0.3-1.3-0.3-1.9,0s-1.3,0.3-1.9,0s-1.3-0.3-1.9,0
		c-0.7,0.4-1.6,0.3-2.2-0.1c1,2.1,2.8,3.7,5.1,4.4c2.2-0.8,4-2.4,5.1-4.4C24.5,24.8,23.6,24.9,22.9,24.4z"/>
</g>
<g id="wave_1_" transform="scale(5) translate(0 5.1962)">
	<path style="fill:#005DA4;" d="M2.9-0.3C3-0.2,3.2-0.1,3.4-0.2l0,0c0.1-0.1,0.3-0.1,0.4,0c0.1,0.1,0.3,0.1,0.4,0s0.3-0.1,0.4,0
		c0.2,0.1,0.4,0,0.5-0.1l0,0v0.1C5,0,4.8,0,4.6-0.1l0,0c-0.1-0.1-0.3-0.1-0.4,0S3.9,0,3.8-0.1c-0.1-0.1-0.3-0.1-0.4,0
		C3.2,0,3,0,2.9-0.2l0,0V-0.3z"/>
</g>
<path style="fill:#ED1C24;" d="M12.8,11.4l0.6,9.5c0.3,3.9,2.9,7.2,6.6,8.4c3.7-1.2,6.3-4.5,6.6-8.4l0.6-9.5
	c0.2,0.1,0.4,0.2,0.5,0.2l-0.6,9.3c-0.3,4.2-3.1,7.7-7.1,9c-4-1.2-6.8-4.8-7.1-9l-0.6-9.3C12.4,11.6,12.6,11.5,12.8,11.4"/>
<path id="star_5_" style="fill:#FFDD00;" d="M20.5,15.1l-0.5-0.4l-0.5,0.4l0.2-0.6l-0.5-0.4h0.6l0.2-0.6l0.2,0.6h0.6l-0.5,0.4
	L20.5,15.1z"/>
<path id="star_1_" style="fill:#FFDD00;" d="M22.7,12.3l-0.5-0.4l-0.5,0.4l0.2-0.6l-0.5-0.4H22l0.2-0.6l0.2,0.6H23l-0.5,0.4
	L22.7,12.3z"/>
<path id="star_2_" style="fill:#FFDD00;" d="M18.2,12.3l-0.5-0.4l-0.5,0.4l0.2-0.6L17,11.3h0.6l0.2-0.6l0.2,0.6h0.6L18,11.7
	L18.2,12.3z"/>
</svg>
