<?xml version="1.0" encoding="utf-8"?>
<!-- Generator: Adobe Illustrator 18.1.1, SVG Export Plug-In . SVG Version: 6.00 Build 0)  -->
<svg version="1.1" id="Ebene_1" xmlns="http://www.w3.org/2000/svg" xmlns:xlink="http://www.w3.org/1999/xlink" x="0px" y="0px"
	 viewBox="0 0 60 60" style="enable-background:new 0 0 60 60;" xml:space="preserve">
<g>
	<defs>
		<rect id="SVGID_1_" width="60" height="60"/>
	</defs>
	<clipPath id="SVGID_2_">
		<use xlink:href="#SVGID_1_"  style="overflow:visible;"/>
	</clipPath>
	<g style="clip-path:url(#SVGID_2_);">
		<rect x="-4" y="0" style="fill:#B22234;" width="114" height="60"/>
		<rect x="-4" y="4.3" style="fill:#FFFFFF;" width="114" height="4.6"/>
		<rect x="-4" y="13.7" style="fill:#FFFFFF;" width="114" height="4.6"/>
		<rect x="-4" y="23" style="fill:#FFFFFF;" width="114" height="4.6"/>
		<rect x="-4" y="32.4" style="fill:#FFFFFF;" width="114" height="4.6"/>
		<rect x="-4" y="41.7" style="fill:#FFFFFF;" width="114" height="4.6"/>
		<rect x="-4" y="51.1" style="fill:#FFFFFF;" width="114" height="4.6"/>
		<rect x="-4" style="fill:#3C3B6E;" width="45.6" height="32.3"/>
		<g>
			<g>
				<g>
					<g id="s5">
						<g id="s4">
							<path id="s" style="fill:#FFFFFF;" d="M-0.2,1.4l1.1,3.3L-2,2.7h3.5l-2.8,2.1L-0.2,1.4z"/>
							<g>
								<path id="s_1_" style="fill:#FFFFFF;" d="M-0.2,7.8l1.1,3.3L-2,9.1h3.5l-2.8,2.1L-0.2,7.8z"/>
							</g>
							<g>
								<path id="s_2_" style="fill:#FFFFFF;" d="M-0.2,14.3l1.1,3.3L-2,15.6h3.5l-2.8,2.1L-0.2,14.3z"/>
							</g>
							<g>
								<path id="s_3_" style="fill:#FFFFFF;" d="M-0.2,20.8l1.1,3.3L-2,22h3.5l-2.8,2.1L-0.2,20.8z"/>
							</g>
						</g>
						<g>
							<path id="s_4_" style="fill:#FFFFFF;" d="M-0.2,27.2l1.1,3.3L-2,28.5h3.5l-2.8,2.1L-0.2,27.2z"/>
						</g>
					</g>
					<g id="s9">
						<g id="s4_1_">
							<path id="s_5_" style="fill:#FFFFFF;" d="M3.6,4.6L4.7,8L1.8,5.9h3.5L2.5,8L3.6,4.6z"/>
							<g>
								<path id="s_6_" style="fill:#FFFFFF;" d="M3.6,11.1l1.1,3.3l-2.8-2.1h3.5l-2.8,2.1L3.6,11.1z"/>
							</g>
							<g>
								<path id="s_7_" style="fill:#FFFFFF;" d="M3.6,17.5l1.1,3.3l-2.8-2.1h3.5l-2.8,2.1L3.6,17.5z"/>
							</g>
							<g>
								<path id="s_8_" style="fill:#FFFFFF;" d="M3.6,24l1.1,3.3l-2.8-2.1h3.5l-2.8,2.1L3.6,24z"/>
							</g>
						</g>
					</g>
					<g>
						<g id="s18">
							<g id="s5_1_">
								<g id="s4_2_">
									<path id="s_9_" style="fill:#FFFFFF;" d="M7.4,1.4l1.1,3.3L5.6,2.7h3.5L6.3,4.7L7.4,1.4z"/>
									<g>
										<path id="s_10_" style="fill:#FFFFFF;" d="M7.4,7.8l1.1,3.3L5.6,9.1h3.5l-2.8,2.1L7.4,7.8z"/>
									</g>
									<g>
										<path id="s_11_" style="fill:#FFFFFF;" d="M7.4,14.3l1.1,3.3l-2.8-2.1h3.5l-2.8,2.1L7.4,14.3z"/>
									</g>
									<g>
										<path id="s_12_" style="fill:#FFFFFF;" d="M7.4,20.8l1.1,3.3L5.6,22h3.5l-2.8,2.1L7.4,20.8z"/>
									</g>
								</g>
								<g>
									<path id="s_13_" style="fill:#FFFFFF;" d="M7.4,27.2l1.1,3.3l-2.8-2.1h3.5l-2.8,2.1L7.4,27.2z"/>
								</g>
							</g>
							<g id="s9_1_">
								<g id="s4_3_">
									<path id="s_14_" style="fill:#FFFFFF;" d="M11.2,4.6L12.3,8L9.4,5.9H13L10.1,8L11.2,4.6z"/>
									<g>
										<path id="s_15_" style="fill:#FFFFFF;" d="M11.2,11.1l1.1,3.3l-2.8-2.1H13l-2.8,2.1L11.2,11.1z"/>
									</g>
									<g>
										<path id="s_16_" style="fill:#FFFFFF;" d="M11.2,17.5l1.1,3.3l-2.8-2.1H13l-2.8,2.1L11.2,17.5z"/>
									</g>
									<g>
										<path id="s_17_" style="fill:#FFFFFF;" d="M11.2,24l1.1,3.3l-2.8-2.1H13l-2.8,2.1L11.2,24z"/>
									</g>
								</g>
							</g>
						</g>
						<g>
							<g>
								<g>
									<g id="s5_2_">
										<g id="s4_4_">
											<path id="s_18_" style="fill:#FFFFFF;" d="M15,1.4l1.1,3.3l-2.8-2.1h3.5l-2.8,2.1L15,1.4z"/>
											<g>
												<path id="s_19_" style="fill:#FFFFFF;" d="M15,7.8l1.1,3.3l-2.8-2.1h3.5l-2.8,2.1L15,7.8z"/>
											</g>
											<g>
												<path id="s_20_" style="fill:#FFFFFF;" d="M15,14.3l1.1,3.3l-2.8-2.1h3.5l-2.8,2.1L15,14.3z"/>
											</g>
											<g>
												<path id="s_21_" style="fill:#FFFFFF;" d="M15,20.8l1.1,3.3L13.2,22h3.5l-2.8,2.1L15,20.8z"/>
											</g>
										</g>
										<g>
											<path id="s_22_" style="fill:#FFFFFF;" d="M15,27.2l1.1,3.3l-2.8-2.1h3.5l-2.8,2.1L15,27.2z"/>
										</g>
									</g>
									<g id="s9_2_">
										<g id="s4_5_">
											<path id="s_23_" style="fill:#FFFFFF;" d="M18.8,4.6L19.9,8L17,5.9h3.5L17.7,8L18.8,4.6z"/>
											<g>
												<path id="s_24_" style="fill:#FFFFFF;" d="M18.8,11.1l1.1,3.3L17,12.4h3.5l-2.8,2.1L18.8,11.1z"/>
											</g>
											<g>
												<path id="s_25_" style="fill:#FFFFFF;" d="M18.8,17.5l1.1,3.3L17,18.8h3.5l-2.8,2.1L18.8,17.5z"/>
											</g>
											<g>
												<path id="s_26_" style="fill:#FFFFFF;" d="M18.8,24l1.1,3.3L17,25.3h3.5l-2.8,2.1L18.8,24z"/>
											</g>
										</g>
									</g>
									<g>
										<g id="s18_1_">
											<g id="s5_3_">
												<g id="s4_6_">
													<path id="s_27_" style="fill:#FFFFFF;" d="M22.6,1.4l1.1,3.3l-2.8-2.1h3.5l-2.8,2.1L22.6,1.4z"/>
													<g>
														<path id="s_28_" style="fill:#FFFFFF;" d="M22.6,7.8l1.1,3.3l-2.8-2.1h3.5l-2.8,2.1L22.6,7.8z"/>
													</g>
													<g>
														<path id="s_29_" style="fill:#FFFFFF;" d="M22.6,14.3l1.1,3.3l-2.8-2.1h3.5l-2.8,2.1L22.6,14.3z"/>
													</g>
													<g>
														<path id="s_30_" style="fill:#FFFFFF;" d="M22.6,20.8l1.1,3.3L20.8,22h3.5l-2.8,2.1L22.6,20.8z"/>
													</g>
												</g>
												<g>
													<path id="s_31_" style="fill:#FFFFFF;" d="M22.6,27.2l1.1,3.3l-2.8-2.1h3.5l-2.8,2.1L22.6,27.2z"/>
												</g>
											</g>
											<g id="s9_3_">
												<g id="s4_7_">
													<path id="s_32_" style="fill:#FFFFFF;" d="M26.4,4.6L27.5,8l-2.8-2.1h3.5L25.3,8L26.4,4.6z"/>
													<g>
														<path id="s_33_" style="fill:#FFFFFF;" d="M26.4,11.1l1.1,3.3l-2.8-2.1h3.5l-2.8,2.1L26.4,11.1z"/>
													</g>
													<g>
														<path id="s_34_" style="fill:#FFFFFF;" d="M26.4,17.5l1.1,3.3l-2.8-2.1h3.5l-2.8,2.1L26.4,17.5z"/>
													</g>
													<g>
														<path id="s_35_" style="fill:#FFFFFF;" d="M26.4,24l1.1,3.3l-2.8-2.1h3.5l-2.8,2.1L26.4,24z"/>
													</g>
												</g>
											</g>
										</g>
										<g>
											<g>
												<g id="s5_4_">
													<g id="s4_8_">
														<path id="s_36_" style="fill:#FFFFFF;" d="M30.2,1.4l1.1,3.3l-2.8-2.1H32l-2.8,2.1L30.2,1.4z"/>
														<g>
															<path id="s_37_" style="fill:#FFFFFF;" d="M30.2,7.8l1.1,3.3l-2.8-2.1H32l-2.8,2.1L30.2,7.8z"/>
														</g>
														<g>
															<path id="s_38_" style="fill:#FFFFFF;" d="M30.2,14.3l1.1,3.3l-2.8-2.1H32l-2.8,2.1L30.2,14.3z"/>
														</g>
														<g>
															<path id="s_39_" style="fill:#FFFFFF;" d="M30.2,20.8l1.1,3.3L28.4,22H32l-2.8,2.1L30.2,20.8z"/>
														</g>
													</g>
													<g>
														<path id="s_40_" style="fill:#FFFFFF;" d="M30.2,27.2l1.1,3.3l-2.8-2.1H32l-2.8,2.1L30.2,27.2z"/>
													</g>
												</g>
												<g id="s9_4_">
													<g id="s4_9_">
														<path id="s_41_" style="fill:#FFFFFF;" d="M34,4.6L35.1,8l-2.8-2.1h3.5L32.9,8L34,4.6z"/>
														<g>
															<path id="s_42_" style="fill:#FFFFFF;" d="M34,11.1l1.1,3.3l-2.8-2.1h3.5l-2.8,2.1L34,11.1z"/>
														</g>
														<g>
															<path id="s_43_" style="fill:#FFFFFF;" d="M34,17.5l1.1,3.3l-2.8-2.1h3.5l-2.8,2.1L34,17.5z"/>
														</g>
														<g>
															<path id="s_44_" style="fill:#FFFFFF;" d="M34,24l1.1,3.3l-2.8-2.1h3.5l-2.8,2.1L34,24z"/>
														</g>
													</g>
												</g>
												<g>
													<g id="s5_5_">
														<g id="s4_10_">
															<path id="s_45_" style="fill:#FFFFFF;" d="M37.8,1.4l1.1,3.3L36,2.7h3.5l-2.8,2.1L37.8,1.4z"/>
															<g>
																<path id="s_46_" style="fill:#FFFFFF;" d="M37.8,7.8l1.1,3.3L36,9.1h3.5l-2.8,2.1L37.8,7.8z"/>
															</g>
															<g>
																<path id="s_47_" style="fill:#FFFFFF;" d="M37.8,14.3l1.1,3.3L36,15.6h3.5l-2.8,2.1L37.8,14.3z"/>
															</g>
															<g>
																<path id="s_48_" style="fill:#FFFFFF;" d="M37.8,20.8l1.1,3.3L36,22h3.5l-2.8,2.1L37.8,20.8z"/>
															</g>
														</g>
														<g>
															<path id="s_49_" style="fill:#FFFFFF;" d="M37.8,27.2l1.1,3.3L36,28.5h3.5l-2.8,2.1L37.8,27.2z"/>
														</g>
													</g>
												</g>
											</g>
										</g>
									</g>
								</g>
							</g>
						</g>
					</g>
				</g>
			</g>
		</g>
	</g>
</g>
</svg>
