<?xml version="1.0" encoding="utf-8"?>
<!-- Generator: Adobe Illustrator 18.1.1, SVG Export Plug-In . SVG Version: 6.00 Build 0)  -->
<svg version="1.1" id="Ebene_1" xmlns="http://www.w3.org/2000/svg" xmlns:xlink="http://www.w3.org/1999/xlink" x="0px" y="0px"
	 viewBox="0 0 60 60" style="enable-background:new 0 0 60 60;" xml:space="preserve">
<g>
	<defs>
		<rect id="SVGID_1_" width="60" height="60"/>
	</defs>
	<clipPath id="SVGID_2_">
		<use xlink:href="#SVGID_1_"  style="overflow:visible;"/>
	</clipPath>
	<path style="clip-path:url(#SVGID_2_);fill:#CF142B;" d="M-14,0h90v60h-90V0z"/>
	<path style="clip-path:url(#SVGID_2_);fill:#00247D;" d="M-14,0h90v40h-90V0z"/>
	<path style="clip-path:url(#SVGID_2_);fill:#FFCC00;" d="M-14,0h90v20h-90V0z"/>
	<g style="clip-path:url(#SVGID_2_);">
		<path id="s_45_" style="fill:#FFFFFF;" d="M46.8,33.4l1.6,4.4l-3.9-2.6l4.7-0.2l-3.7,2.9L46.8,33.4z"/>
		<path id="s_5_" style="fill:#FFFFFF;" d="M42.9,28.1l3,3.6l-4.5-1.1l4.3-1.8l-2.5,4L42.9,28.1z"/>
		<path id="s_6_" style="fill:#FFFFFF;" d="M37.3,24.6l4.1,2.3l-4.7,0.5l3.5-3.1l-1,4.6L37.3,24.6z"/>
		<path id="s_7_" style="fill:#FFFFFF;" d="M30.9,23.1l4.6,0.8l-4.2,2l2.2-4.1l0.6,4.6L30.9,23.1z"/>
		<g>
			<path id="s_11_" style="fill:#FFFFFF;" d="M14.5,37.9L10.8,35l4.7,0.2l-3.9,2.6l1.6-4.4L14.5,37.9z"/>
			<path id="s_10_" style="fill:#FFFFFF;" d="M16.8,32.9l-2.5-4l4.3,1.8l-4.5,1.1l3-3.6L16.8,32.9z"/>
			<path id="s_9_" style="fill:#FFFFFF;" d="M20.8,28.9l-1-4.6l3.5,3.1L18.6,27l4.1-2.3L20.8,28.9z"/>
			<path id="s_8_" style="fill:#FFFFFF;" d="M25.8,26.5l0.6-4.6l2.2,4.1l-4.2-2l4.6-0.8L25.8,26.5z"/>
		</g>
	</g>
</g>
</svg>
